<svg xmlns="http://www.w3.org/2000/svg" width="800" height="533" baseProfile="full" style="background-color:false" xmlns:v="https://vecta.io/nano"><style><![CDATA[.B{font-family:&quot;Tahoma&quot;}.C{font-size:13px}.D{filter:url(#A)}]]></style><use href="#B" paint-order="fill" class="D"/><use href="#C" paint-order="fill" class="D"/><use href="#D" paint-order="fill" class="D"/><use href="#E" paint-order="fill" class="D"/><g fill="#eee" stroke="#000" stroke-miterlimit="10" stroke-width=".4"><use href="#B" paint-order="fill"/><use href="#C" paint-order="fill"/><use href="#D" paint-order="fill"/><use href="#E" paint-order="fill"/></g><defs><filter id="A" width="1000%" height="1000%" x="-100%" y="-100%"><feOffset dx="-9.8" dy="9.8" in="SourceGraphic"/><feColorMatrix values="0.2 0 0 0 0 0 0.2 0 0 0 0 0 0.2 0 0 0 0 0 1 0"/><feGaussianBlur stdDeviation="8"/><feBlend in="SourceGraphic"/></filter><path id="B" d="m567.902 467.956-.332.643-.452-.2zm-10.647-117.06-.498-.982-.403-1.532.284-1.95-.625-.518-.021-.392 5.24-3.288 1.467-1.219.487-.835 3.382-1.043.59-.51.91-1.309-.13-.367-.204-2.024-.4-.384-.828-1.881.012-.367-.781-.634-.671-.226-.448-1.025-.465-.889-.594-.42.459-1.627 1.133.084.847-.614.482-.733 1.336-.5-.01-1.1.125-.418-.16-1.297 1.037-1.456.54.018.33-.35 1.977-.04.622-.246.595-.881-.15-.55.123-.533.716-.281.203-.505-.199-.586.169-.812-.617-2.748-.715-.193-.46-.894-.59.194-.09-1.437-.642-.127-.03-1.584-1.135-2.655-.167-2.669-.67-1.995-.055-.72.237-.402.03-.978-.417-.55-.408-1.527.346-.48.468.469.768.008 1.203 2.341.4.31.409-.107 1.338.386.549-.025.974-.476 2.3-.007-.113-.424.182-.965.27-.056.315-.665-.13-1.622.262-.337.09-.87.422-.58.355-.092.343-.652-.09-.51.324-1.326.012-.698 1.48-.173.371-.692 1.735-.547.611-1.312.176-.996.566-.7.202.105.194-.79-.116-1.65.808-2.308-.26-.66.046-1.065.899-1.629-.316-.363.6-.215.52-.499-.076-.47.454-1.54-.015-.563.503-1.139.625-.45.573-.039.586.244.472-.33.539.26.656-.005.487 1.077 1.381.392.834.698 1.682.103.197.377-.21.459.476.466-.416.284.691 1.802.454.196.645.695-.285.208.617.717 2.068-.296.014-.281.365-.23.378-.729.284.647.552.249.738-.386.861.734.08.478.339.051.196.333.6.005.962.62 1.49.358.84-.175.515.795.461-.041.27-2.452-.248-.44-.39-.032-.082-.623-.22-.232-.133-1.655.63-2.485-.274-.807.093-.712-.244-1.147.377-1.211-.093-.356.457-.496.409-.896-.114-.255.471-.247.08-.786-.375-.43.017-.54.415-.687-.322-.944-.141-1.14.853-.422 1.043-.024.217-3.207-.858-1.516.195-.228-.044-1.446.31-.11.36-.861 2.979-2.442.622-.929.618-.512 2.12-1.16.6-1.218.058-.755.242-.45.861-.642.473-.027.63-.863.467-.035 1.254-.79.04-.247.507-.203 1.693-1.848.03-.234 1.201-.577 3.149.007 1.8-1.067-.483-1.138.282-.51-.086-.773.417-.272 1.253-.047.51-.206.631.246.18-.332.41.033 1.392-.642.278-.474-.146-.338.339-.487.489.07.461 1.289.623.315.306-.614 1.439-.767 2.01.418.449-.327-.208-1.782-.002-.42.512-1.375-2.017-1.5.743-.824-.082-1.418-.73-.724.04-.216.517-.245.207-1.529-.878-2.995-.471.017-.92-.85-.27-2.096 1.89.474 1.098 1.12.456.03.235-.493 1.3-.658.4.787.272.087 2.544.143.756-1.958-.718-.828-.117-.51-.37-.455.048-1.67-.175-.03-.507-1.763.267-3.166 1.093-2.534.726.168-.148-.941.318-.352-.331-.2.06-.398 1.154-2.64-.033-.362.318-.308-.049-.296.65-.567.181.099 1.146-3.685-1.59-1.848-.46.155-.523-.172.72-.362-.78-1.653-.084-.957.866-2.589.454-.485-.162-.888-.322-.573-.264-2.636.144-2.397.698-1.276 1.083.114 1.43.492.933-1.307.653-1.043 4.682-2.809 2.469 1.874.028.292 1.376 1.871.82-.564.836.194.657-.641-.106-.231 1.796-.057.557-.33.74-.073.557.905.819.485.435.68-.166.677.496.022.553.536 1.366.406.136.362.78-.868.384-.794.373-.1.888.148.29.494.435-.112.608.188.817.848.343-.247 1.503.94.4.055 1.872-1.753.14.528.474.112.453-.62.731.976.574-.019.89.782-.314 1.179-1.192.994-.751 1.749-.46 2.642.33.598-.57 2.042-.773 4.339.45 1.279.234 2.656.728 2.857-.442.733-.453.065-.389.398-.053 1.21-.484 1.525.237.307-.119.91.19.827-.234 1.93.464.628.613 1.957.672.77.331 1.012.575-.274.623 1.227.044 1.209.307.42.184.976.734.666.533 1.317 1.025.592.185.512-.178.863.178.46 4.082 6.289.572.959 4.375 7.032.669.453.654 1.08 1.459 3.512 3.944 3.092-.305-2.618 1.678-.092 1.788.755 4.645.629 3.482 3.13 4.24 2.923 3.897 3.703-.044.346-.483-.08-.03-.322-.725.282-.452.402v.281l-.362.845.03.523-.513.845-.332-.403-.392-.12h-1.116l-.664.563-.754 1.086-.302.764-.362.402-.392.926-.181.724-.15.12-.242.765-.212.201-.271.925-.362.322v.563l-.603.805-.966.684-.302.844-.814.724-.272.523-.573.282-.332.523-.362.241-.362.885-.452.362-.513.201-.513.925.03.242-.965 1.206-.03.322-.332.362v.523l-.423.12-.422.323-.18.321-.785-.08-.483.322-.604 1.126-.24.282-.152.603-.392.724-.211.644-.03.523-.181.402-.242 1.167-.301.522-.09 1.046-.393.564-.12 1.126-.152.12-.06.644.06 1.126-.03 1.489-.211.885-.211.16-.09 1.087-.182.483-.03.723-.15.684-.242.523-.815.725-.392 1.125-.482 1.73v2.374l.06.845-.302 1.045-.302.322v.402l-.332.161-.18.523-.272.322-.09 1.006-.393.603-.633.201-.423.604-.331 1.448.18 1.528-.24.523-.363.362-.332-.04-.301.563v1.167l-.543.241-.755 1.086-.03.925.181.604-.09.362.241 2.052-.03.643.18.885-.09.322-.543.523v.563l-.332.563h-.814l-.392.16-1.81-.522-.393.362-.422.08-.211.402h-.242l-.09.483-.664.885h-.211l.03.684-.241.523-.362.443.06.442-.483.201-.21.523v.443l-.242.402-.694-.08-.452-.563h-.332l-.332.361-.151.402-.724.644.03.523-.422.684-.574.12-.24.282v1.167l.24.12v.402l-.21.564v.563l-.242.442.694.282v.724l.271.04v.564l-.513.361.03.443.212.322-.272.201-.06.402-.573.201-.09.201-.906-.241-.905.04.03.523-.724.202-.422.482-.483.362-.181.322.06.483-.724.12-.362.282v.482l-.513-.04-.694.724.06 1.006-.09.201.121 1.247-.03 1.046-.151.523.302.16-.392.524-.694.08-.272.724-.694.201-.15.403-.815.201-.362.241-.453-.281-.845.442-.301-.322-.332.644-.03.604.271.482-.784.523-.634-.16-.301.562-.03.322.331.563.513-.04-.03.362-.392.08-.543.684h-.724l-.272.322-.422.12-1.57-.28-.3.24h-.363l-.875.604-.301.443-.211-.202-.604.08-.513-.08-.513.604-.21-.362-.755.04-.09-.563-.363-.242h-.332l-.153-.685-.51-.843-.513-.684-.211-.483-1.147-1.69-.15-.401-1.087-1.449-.15-.321-1.81-2.454-.393-.362-.845-1.126-.392-.322-1.327-1.65-.423-.321-.18-.322-.574-.563-.543-.161-1.026-.885-.422-.04-.85-.725-.719-.12-.483-.282-.663.04-.211-.12-.845-.12-1.086-.484-1.328-.08-2.081 1.086-.151.242-1.147.482-.814.523-.362.724-.242.242-.935.321-.302.242-.12.523-.664.08-.332-.523-.482-.402-.543-.644-.634-.402-.272-.322-.603-.362-.543-.523-.784-.12-.151-.242-.483-.04-.06.523-.664-.322-.513.322-.603.603-.423-.04-.664.523-.693.08-.151-.12h-1.66l-.694.442-.06.362-.995.04-.332.242-.996-.04-.814.563-.513-.08-.543.804-.604.603-1.629 2.655-.392.724-.453.523-.12.483-.513 1.046-.15 1.166.21.201-.12.443-.634 1.126-.09.644-.363 1.327-2.926 3.862-.905.845-.754.442h-.664l-.392.241-.845.202-.875.764-.845.08-.271.322-.724.563-1.207-.442-1.448.04-.452.16-1.57.041-.633.16-.362.283-1.026.08-.452-.362-.724.161-.574-1.086h-.392l-.603-.724-.362.16-.513-.12-.181-.241.241-.322-.543-.523-.905-.523-1.026-.16-.875.08-.935.281-.573.644-.422.16-.182.322-.482.121-.483-.603-.633-.161-1.092-1.482-.206-.449-.513-.523-.543-.804-.331-.322-1.268-1.69-.362-.362-.663-.362-.332-.362-.875-.683-.634-.363-.633-.12-.393.2-.874-.08-.664.363-.905.28-.785.443-.663.483-.664.08-.241.242-.513-.161-1.026-.724-.845.04-.18.16-.846.243-.482-.202-.362-.322h-.453l-.392-.281-.03.523-1.056-.603-.784.08-1.388-.04-.181.12-.724-.12-1.267.24-.936-.24-1.357-.04-.362-.202-1.6-.281-.482.08zM326.609 414.576l-.695.04-.06.402-.362.363-.272.522-.633.604-.151.764.272.402-.604.363-.12.603-.574-.242.272.644-.875 1.971-.785 2.011-.301 1.086-.242.202-.814-.04-.362.522-.151.443-.362.523-.362 1.126-.241.443-.06.603-.725 2.414-.302.884-.09.604-.664 3.218-.18 2.159-1.57-.36-.513-.834-.724-.563-.573-.241-.784.04-.634-.2.12-.403-.12-.362.302-.242-.302-.442-.422-.161-.694-.04-.573.12h-.815l-.272-.2-.603.16.03.483-.18.443-.483.16v-.563l-.423.241-.12-.241-.453.403-.996 1.246-.603 1.207-.241.644.12.724-.18 1.327.482.925.09-.844.03-1.207.574-.241.15.402-.06 1.086-.15 1.086.12.282h.362l-.18 1.005-.695.04-.21.523.603.282-.09.442.24.363.421.16.062.563-.392-.12-.543.362-.543 1.207-.03.522.332.604 1.267.281.483.322.09.926-.332.08-.15.563-.303.362-.573.161-.573.483-.211.362-.422.322.12.281-.392.443-.875.241-.603.563-1.147-.2-.995-.443-.453.16-.392.363-.483.12-.694.684-.03.282-.905.321-.724.644-.905.161-1.328.563-.271.363-.483.12-.301.322-1.388.804-.664.483h-.302l-.392.281-.844.363-.875.16-1.147.04-.543.242-.332.603.12.483-.24.362h-.242l-.241-.442.271-.443.272-.16v-.644l-.452-.966-.302-.442-.483-1.408-.332-.563-1.267-.966-.965-1.086-.755-.482-.905-.483-.754-.04-.724-.443-.754-.603-.393-.443-.995-.442-.392.282-.815.884-.905.362-.241-.241-.845-.08-.785-.443-.301-.322-.815-.2-.633-.443-.694-.161-.634-.764-1.478-1.489-.724-.241h-.573l-.393.925-.452.523-.694.2-.332-.28-.241-.443-.272-1.006-.875.08.06-.603-.361-.724-.03-.322-.423-.04-.21-.281-.303.08-.09-.563-.754-1.448-.03-.202-.815-1.246-.272-.805-.573-.482-.694-1.046-.21-.04-.604-.604-.242-.443-.271-.16-.423-.604-1.176-1.207-.634-.442-1.267-1.368-1.388-1.086-1.116-.563-.633.201-.453-.12-.06.684-.634-.322-.362-.483h-.453l-.271.322-.815.483-.874.12-.513.16-.574.363-.844.08-.785-.16-1.086-.403-.211-.2-.633-.081-.513-.403-.513.12-.272-.24-.965-.04-.151.684-.272.2-.573-.321.09-.524-.361-.804-.875-1.126h-.302l-.483-.523.06-.403-.542-.804-.212-.804-.573-.966-.06-.402-.784-1.247-.363-1.046-.24-.402-.212-1.529-.272-.563-.271-1.327-.754-1.086-.423-.363-.694-.925h-.15l-.574-.885-.332-.281-1.055-.322-.664-.08-.453-.202-.18.684h-.302l-.694-.644-.362-.764-.453-.643-.302-.765-.12-.683-.483-1.247-.12-.523-.514-1.448-.12-.805-.694-1.74-.694-1.317-.483-.725-.754-.522-.845-.402-.694-.684-.482-.724.18-.161-.21-1.006.12-.402h.27l.153-.603.24-.202.667.004-.093-.495-1.026.009-.15-.483-.302-.241-.15-.966.24-1.166.785-1.81.332-.121.694.563.573.08-.935-1.166-.755-.08-.302.16v.362l-.603.885v.483l-.362.805.03.523-.21 1.045.602 1.85.03.322-.21.926-.574-.12.06-.886-.15-.925-.211-.402-.302-1.288-.272-.362-.21-.683-.333-.362-.15-1.127-.242-.523-.362-.442-.422-.242-.423-.637-.452-.207-.211-.684.06-.362-.362-.885-.362-.523.09-.281-.09-.564-.664-1.488-.54-1.494-.24-.238-1.03-2.05-.543-1.206-.057-.651-.275-.435-.664-.563-.724.12-.482-.04.03-.563-.272-.08.06-.443.337-.24.569-.16.18.159.634-.044.42-.762.214-.12h.694l-.574.563-.09.242-.543.523.241.241.332-.241.06.523.423-.241.18.24.423-.402v-.452l.362.05-.12.564-.295.2.023.403-.271.522.241.202.483 1.046.12.603.362.483.335.073.299.33-.06.482.483.32-.483.484v.603l-.425.353.063.412.633 1.69.428.52.085.325.79.44.779.237.15.167 1.117.12.15-.522.815.08.453-.16.332-.403.09-.362-.09-.684.09-.523.664-.04.513-.603.452-.121.272-.684-.03-.684-.543-.683.392-.081.754.322.453.563.241-.201-.513-.644.634-1.086.905-.241.15-.483-.21-1.207-1.026-.523h-.966l-.663-.402-.212.523.302.161-.785 1.207-.331.764-.543-.241-.393.08-1.237.604-.603.361-.815-.322-.452-.28-.513-.845.211-.805-.905-.161-.09-.644.21-.04-.09-.644.544.161h.965l.543.282.332.322 1.056-.12.483-.162.331-.362.453-1.207.302-.643.21-.845.121-.965-.573 1.327-.12.644-.272.482-.241 1.046-.362.322-.966.12-.15-.2v-.885l.24-.563v-.443l.362-.965-.09-.524.242-.12v-.966l.12-1.327-.211-1.086-.241-.804h-.453l-.513.402-.18-.282.331-.281-.211-.523-.483-.081-.935.402v.564l-.483.362-.573-.161-.12-.201h-.574l-.392-.443-.03-.764-.393-1.127-.754-1.206-.362-.322-.241-.443-.513-.442-.302-.04-.452-.563-.453-.202h-.483l-.301.322-.723-.887-.544.002-.356-.325-.64-.117-.173.4.117.442-.064.687-.604-.926.063-.726-.696-.078-.688.239-.82.525.276.279.239.521h-.75l-.815-.724-.912-.358-1.207-.643-.784-.724-.06-.644.03-1.247-.151-.643-.392-.725v-.361l-.242-.403-.24-.04-.876-1.488-.332-1.047-.241-.28-.545-1.57-.149-.04-.392-1.005-.754-1.368-.181-.765-.334-.49-.178-.556-.092-1.81-.302-.804.574-.523.573-.211-.03-.352.271-.402.272.04.09.442.393.161.362-.246.54-.804.185-.115.3-1.168.19-.201.383.12.758-.112 1.203-.853.634-.563.845-.885.724-.201.996-1.207 1.176-.684-.241-.709.468-.38.241-.55-.273-1.857-.752-1.352-.229-1.89.077-2.42.86-4.938.774-1.026.777-.374 3.699-.925 2.027-.82.485.28 1.195 1.604.98.57 1.171-.074 1.305-.534.156.293 2.267.383 2.338-.022.378.298 3.06.891 1.336 1.324 2.304 1.802 1.905.946 2.145.397 3.704.155 1.544.596 6.375.553.495.19 1.317-1.024.885-.27 1.252.168 1.735-.16 3.725 1.576.242-.663-.517-.697 1.853-6.245.751.146 1.053-.908 1.564-2.208.896.12.595-.182 2.911-1.421.734.16 1.313-.185 1.306.2 1.318-.186 1.95.375.838.684 1.134-.48.96.292 1.501-.88.763-1.402.27-1.52-.1-1.594 2.896-2.777.198.03 1.09 1.683.698 1.42 1.865.53.689-.547.826 2.019.4-.298.517.14.305-.504.152-.837 1.122.864.805-.291.262 3.761.29.88 2.066 1.045 3.282 2.052-.572-1.827-1.278-2.47.42-.4.133-.649 1.173.012.24-.805.897-.258.445-1.044-.06-.392.616-.388.08-.78.255-.293 1.07-.1.423-1.135.545-.688.394-.287.863.101 1.317-1.702-.055-1.114-.305-.52-1.102-1.01-.43-.707-.858-.602-1.731-3.237 1.532-.883 2.552-.467.927.313.586-.2 1.254-1.17.656.105.888-.427.613 1.054.098 1.054.62 1.945.039 1.927-.534.789-.11.88-.92 1.246-.785.212-.047.38-.265.237-.8.417-.43.665-.34-.023-.027.411.338.145.284 1.874.938.656-.22.36.198.267-.016.855.544.358.251 1.257 2.835-.778-.41-.527.337-1.333 1.363-1.336.83-1.367 1.236-1.048.653-.086.2-.337.955-.483.493.073.117-1.061.404-.266.387.046.263-.407.503-.084.619-1.038.186-.94.561-.654 3.33-3.156.042 2.814.163.606.709.49.914 1.476 1.246 1.446.625 1.731.645.41.584 1.644 2.359 3.311.99-.096.658-1.31.442-.139 1.057-1.562 1.602-.582.21-.477.831-.253.8-.789 1.271-.62.46-1.144 1.13-1.123.61-.982 1.57 1.15.431.714.607.361.35-.066.479.724-.176.418-.007.668 1.541.662.288.52-.577.63-.348-.042-.654.71.547.907.623 3.098.822 1.54-.125 1.354.669.955-.744.628-.659-.014-.586.422.27.345.001.552-.786.34-.289 2.254-.452.387-.419 1.784-1.17 2.496-.304.44-2.301.99-1.644 1.184-.574-.248-.394-.488-.798.097-.577-.79-.893-.633-2.37-.714-.012-1.084-.33-.885-.644-.703-1.405-.23-2.463-1.878-.333-1.229-.825.807-2.63 1.304-.454 1.668-.217.227-.681.042-2.006 2.557-.28 1.59-.612 1.19.618.37.189.729.733.95.73 2.683 1.364.922 1.773.752-.471 1.57-1.341 1.93-.535 2.399-1.312 1.51.162.765-.534 2.642.065.853.637.021.286.249-.071.656-1.094.909-.072.436.686.806-1.064.137-1.083 1.854-.809.513-.191.498-1.2 1-1.633 1.899-1.84.606-.277-.082-.877.353-.272.483-.46.29-2.261.464-.466.554-1.89-.784.006.4-.269.416.125 1.717-.395 1.927-.223-.024-1.53 2.154-1.368.523-.46 1.506-.898 1.803-1.163.757-1.02 1.535-1.62.671-.321-1.35-.387-.278-2.547-.587-.46-.717-.318-.13-.566.123-1.706-.502-.498.034-1.142.886-.169.429.253.679-.109.406.457 1.28-.222 1.88 1.078.548.738-.2.15-.263.774-.308 1.199.18 1.304 1.318 2.803.105 1.082.73.863-.46.206-1.375.737-.758-.065-.336.822-1.374.485-.494.347-.76.246-.1 1.803.029.323.158.28.768.357.335.397-1.34.925-.088 2.26.499.49.494.288.906 1.265.573-.116.363.344 2.005.264.597-.096.527.62.28.08.625.471.854.407 2.186 2.288 2.28 2.041 2.863-.278.277.08 1.165 1.1.75.971 3.02.352.424-.16 1.732.262.59-.094 1.279.962 1.795.58 1.678.602.389-.038.36-.814 1.257.317 1.028 3.28-1.744 1.327.006 1.066 1.868.907.264zM348.715 222.565l.203.715 1.363-.953.332-.435.51.921-.384.427.057.616-.456.516.01.53.438 1.129.54 2.62.798.184-.096.213-.773-.268-.188-.32-.436-2.09-1.836.356.846-2.57-.561-.578-4.31-2.014.096-.625.32.224 2.97.606zm-58.228-71.656-.093-1.253 1.265-1.492.724.39.585-.404.2.317.363-.24.112-.46.232-.042.43-1.07.897.15.269-.234.338-1.017-.504-.188.09-.261-.043-1.333-.256-.058-.148-.502.366-.025.391-.991-.271-.19.21-.485-.178-.464 1.322-.804.628-.28.018-.513-.152-.458-.23-1.258.213-1.12-.153-2.73-.679-.867.443-1.294-.634-.846-.627-.441.012-.941-.396.212-.358-.621.304-.396-.298-.498-.286-1.321-.607-.849.21-.401-.065-.684-.522-1.054-1.265-.755-.862-.885.21-.168.24-1.108-.09-.509.547-1.364-.156-.77.195-.854.807-.51-.222-.264-.544-.067.366-.528-.392-.753-.679-.167-.472-.561-.284.166-.552-.69.062-2.09 1.28-3.33-.036-.521.533-.944.655-.315 1.011-1.456.41-.158.281-.475.362.02 1.328-.683.88-.816.332-.438.782-.104.932 1.055.59-.407.398.108.402-1.12.484.095.242.35.46-1.573-.112-.473.19-1.038.57-.182.54.15 1.18-1.427-.011-.648.866.145.192-.556.43-.413 1.104.077.743-1.484.961.305.325-1.175.601.101.009-.601-.346.004-.27-.89 1.347-.848-.386-1.048.81-.476.327.047.673.901.633.121.185-.271-.073-.375-.851-.752-.144-.566.096-.271.658-.013.268-.382-.696-.695.412-.671 1.122-.211.65-1.604-.223-.612.3-.195 1.348-.082 1.026.303 1.238.708.744.03.55-.328 1.543.467.399-.494-.086-.76-.439-.582.108-.594.856-.588.937-1.579.67-.564.849.1.643-.486.296-.783 1.784-.726.023-1.034.977.161-.267-1.124.595.402.482-.09.208-.773.453-.187.22-.397.765-.27-.168-1.09.478.062.25.99.27.09.335-.463-.073-.61.469-1.726.419.26.282 1.207.414.142.095-.534-.18-.586.399-.326.493.916.581.149.64-.914-.905-.675.179-.548.324-.283 1.604-.172.027-.628-.618-.987-.22-1.746-.638-.886.113-.823-.456-1.067 1.475.347.164.613.305.203.282-.342.932-.27.602-.07.798.372 2.62-.322.692.606 1.222.597.904-.179.256-.37 1.066-.564 1.304-.312.551-.525.174-.454 1.268-.327.325-.363 1.543.538.874-.154.812 1.092.998.53.652 1.022.173 1.009-.054.641-.399.244 4.315 1.373 3.113.616 1.424-.13.47-.555 1.539-.104 1.348.25.827-.39.826.244.879.747-.212.883.406 2.187-.11 1.748.44 1.091-.343 1.483.388 1.59.377.714.808.125 1.904.809 1.285 1.445.494.246 1.868.16 1.529-.334 2.066 1.493 1.362.15.933.873 1.518.729 1.529.526 1.3-.136.25.271-.002.908.403.16.075.397-.527.688.268.387.792.443 1.768.411 1.332-.164 1.844 1.79 1.129.517.715.97 1.195.242.2.346-.107.492.28.775-.022.55.847 1.208.288.795 1.354.668.264.537.568.003.264-.923 1.028-.099.517.857.655-.475.218.87.507.394.078.796.766-.103 1.069-.67.76 1.793 1.377.98.925-.191.807.945.258 1.019.306.73.452.296.163.396.851.154.429.95 1.299 1.025.747 1.316.244.93.607.52.387.87.4.044 1.535-.242.618.908.966.01.379.2.805 1.396.352.253 1.243-.59.683.193.497.525 5.45 2.448.213.677.488-.408.343.39.485-.174.266.721.6-.063.246.65.744.367.712.031.212.453.487-.047.268.672.914-.708.31-.026.223-.354.269.555.289-.105.638.666.523-.201.252.176 1.163.348.162-.3.396.407.28-.28.217.803-.445.537.178.894-.125.718 1.325 1.868-.077 1.045.802.365.32-.223.044-.547.717.345-.437 2.72.117.455-.207.422.23.695-.199.337.693.388-.724 1.673-.156 1.248.46.267.893-.23.884 1.291-.106.443.326.448-.418.494.059.326-.42.726.035 1.095.544.185.646.864.041 1.01.285.48.616.398.169.39 1.176 1.172.23 1.186.013.578-.252.508.576.783-.251 1.685.484.676-.586.28-.217.89-.62.424-.024.25-1.007.153-.415.37-.635.124-.585.683.005.998-.479.45-.036.682-1.573-.36-.426 1.082.865 1.23-.029.778-.335.247-.844-.575-.399.21.18.553.585.462-.385.151-.61-.438-.166.287.624.437-.791.788-.19.621.101.928-.466.108-.136-.67-.697-.303-.35.37-.24.739.198 2.047.945-.794.35.293-.222.73-1.036 1.064-.98.032-.637-.308-.421.17.822 1.452.154 1.086-1.793-.246-.629.162-.238 2.749.528.2.463.901 1.195 3.298.478 2.273.113 3.327-.382 2.854-.4.598-.533-.06-.228.201.231.653-.418.386.163.884-.718 2.99.24 2.762-.308 3.813-.597 2.402.208.269-.382 1.548.098.719.807.358 2.203.778 1.58-.13 3.569.993.547.58-.14 1.316-1.103.409-.122.403-.583.323-1.108 3.318-.528 1.805.12.96.985.192 3.428 1.482.456-.088.502.348.599-.086.418 1.206 1.66 2.491-1.2.599-1.328 1.063-2.953 3.373-1.44 1.043.268.213.174 1.021.357.157.278.49-.326.597.155.362.963.55.263.774.719-.664.447.534.26-.055.063-.486.772-.165.689.266.555.636.256.035 1.161 1.56-.357.509-.432 1.022.155.226.789-.309.154.648-.222.39.491.334-.361.543.123.229 1.087.022.234.549.356.218-.199.357.107.481.626.417.32-.279.332.59.355-.042.545.644.285-.118.047 1.168.618-.211.27.186.058 1.026.318.356.162.61.43-.116.702.63.13.294-.168.782.26.77-.27.33.124.455.314.233 1.06-.533.628.63.316-.066.466.321 1.021.018.354.275-1.417 1.32-.176.48-.96.487-.284.488.334.368.144.482.95 1.028.569.241.797-.04 1.306.576.373.89.459.444 1.026 2.239.22.16.175 1.131.61 1.015.315 1.107.575.482 1.386 2.073-1.834.099-.994-.59-1.028-.078-1.793.49-1.556-.279-.56.311-1.48-.193-1.334.525-.11.689-.366.213.028.546-.614.57-1.305.544-.781.604-.325.751-1.682 1.647-.96 2.294-.388.54-.42.027-1.216-.97-1.515-.308-.832.043-1.005-.354-.576.065-1.523 1.5.031.238-.588.452-.861.216-.293 1.183.425 2.282-.142 2.13-.578 1.204-.684 2.864-1.643 1.267.262.942.35.503.25 3.016-.883.302-2.092 2.527-.047.392-.968.524-.381.626-2.722 1.107-.333.24-.426.834.022-.272-.521-.717.156-.79.503-.865-.294-.396-1.762-1.264-2.623-.087-.358-.175-1.356-3.245.821-.508.027-.472-.296-.462.419-1.303-.455-.438-.06-.452.335-1.012-.215-.707-.403-.315-.62.5-.3-.008-.259-.325-.351.194-.595-.24-.39.356-.633-.423-.043-.37-.562-.407-.736.441-.219.466-.733.317-.18-.404-.495-.226-.468.051-.303.235-.024.416-.43.395-.627 1.28.065.378-.508-.01-.756.216.23.496-.138.483-.515-.07-.58-.838-.942.78.274.532.625.387-.286.35-.078.71-.532.19-.296-.263-.298.034.188 1.087-.25.511-.689.61-.146-.013.009-1.003-1.043 1.225-2.692 1.416-.623.117-.024-.555-.546-.326-.919.06-.868-.339-1.01.475.024.724-.647.271-.953-.296-.322.188-1.558.098-.209-.841.277-.572.588-.357-.03-.608-.49-1.183-.423-.616-.57-.182-.453-.562.064-1.719-.36-.162-.531.325-.897-.072-1.64 1.101-.87-1.3-.197-.828.125-1.492-.851-1.625-.486-.608-.225.219-1.28-.475.444-.265-.266-.896.403-.678 1.148 1.084.395-.028-.57-.613.78-.87-1.283-.79-.959.192-.512-1.007.452-.199-.175-.903 1.297.635.162-.666-.182-.314-1.047-.548.103-.261.747-.022-.04-.505-.917-.147-.193.831-.502-.135.26-1.025-.295-.444-.497-.014-.57-.717-.72.156-.043-.793-1.132-.338-.31-.763-.262.017-.605.825.403.465-.07.327-1.177.627.748.138-.028.519-.41.424-2.023.638-.436-.32-.39.037-.764-.685-.337-.033-.72.226-.277.466-.482-.343-.232 1.001-1.522-1.873-2.284-1.919-.528-.508-.161-1.53.964-.558-.02-.746-1.206-.19-.171-.464-.375-.484.034-.612-.701-1.12-.284-.28-.437-.01.319-.642-.47.063-.499-1.024.709-.488.612-1.334-.233-.476-.043-1.208-.233-.295-1.303-.36-.476.202-2.827.002.245-.305-.02-.748.345-.116.45-.637-.891-.503-.536-1.001-.632.198-1.115-1.267-.607-1.742.718-1.091-.152-.302-.566.137-.465.26-.186-.804.301-.37.61.039.19-.705-.237-.312-.5.419-1.282-.186-.706-.754.031-.603.353-.39-.373-.158-.383.302.064-1.216-1.49-.13-.138-.174.95-.813-.076-1.3.716-.644.246-.713-.425-.756.378-.364-.101-.323.275-.532-.07-.506-.59-.589.15-.13-.228-.556.546-.149.252-.406-.509-1.063-.006-.647.513-.339-.496-1.45.346-2.532-.917-.567-.228.47-.61.415-1.074.326-.184.491-.637-.202-.94 1.59-.095-.447.722-1.359.295.124.795-1.466.477-4.46-1.931-2.888-1.21-.566-.461-1.783-.402-.506.2-.204-.316-.485-.53-.328-.352-1.082-1.761-.435.029-.157-3.474-1.087-.31.361-2.387 1.159-.196.977-.602-.01-.742.485-.248.435.35.881-.495.729-.122.52.143.512.765.915.359-.153.37.326-.04.614.67.575-1.197.012-1.032-1.059-.73-.343.48-.681-.707-1.259-.101-.817-.792-1.597-.493-.321-1.844.555 1.463.994.327.536.062 1.522.282.516-.12.485.352 1.184-1.162-.7-.782.225-.895-.38-.353.05-1.384 1.045-1.093-1.571-1.808-1.275-3.82 2.477-1.524 1.363-1.02.568-1.985 2.04-2.268 1.559-2.742.346-1.306.482-1.27.798.061.371-1.491 1.99-.744.588-.03.91-.412.323-.466.128-.699-.19.138-1.589-.28-1.227-.97-.256-.378-.395-1.024-.243-.063-.481-.257.025-.537-.81-.274-.097.01-.467-.69-.516-.33-.53-.055-.784-.681-.302-.388-.405-.228-.9 1.202-.092.642-.398.313-.834-.377-.82-.989.548-.359-.197-.31-.577.105-.73-.291-.71.248-1.39.697-1.229.48-.265.755.05.638-.625.464.506-.019 1.88.441.408.539.084.516-.94.18-.828.774-1.14 1.82-1.064.674-.138.56.902.133.735.56.489.547-.589.262-.799.548-.056.471.532.289-.192.05-.717-.416-.64.236-1.031.51-.876-.229-.656.153-.601-.317-.93-.596-2.38-.548-.563.24-.376.19-.85.409-.06.054-1.179-2.103-.583-.006-.531-.161-.548-1.425-.595-.136-.376-.5-.268.267-1.48-.02-1.13.612-1.66-.318-.595.6-.53-.04-.292-.605-.459-.179-.452-.38-.513-1.023-.115-.928-.865-1.169-.355-.24.14-.727-.88-1.294-.849-.503.185-.412-.553.029-.366-.605-.858-.256-1.41-.196-.464-.45-.2.12-.597.699-.726.109-.99-.338-.283-.145-1.412-.446-.271.525-.4-.317-.54.383-.535-.82.237.104-.543.463-.108.014-.705.335-.255.149-.438-.134-.37-.285-.176-.243-.55-.616-.2-.654-.55-.403-.633-1.237-.464-.542-.83-.21.08-.386-.328-1.258-.306-.075-.506-.465-.124-.584-1.732-.239-.359-.37-.08-.226-.473-.324.113-.305-.424-.06-.631.341-1.31-.16-.636.326-2.1-.101-.796-.607-1.28-1.615-1.567-.616-1.287-.73-.437-.303-.506.043-.676-.252-.319-.493-.061-.815-.905.087-1.688-1.31-1.074-.707-.975-2.643-1.088.04-1.961z"/><path id="C" d="m486.78 352.87.012-1.135-.437-.885.176-.25.055-.89-.33-.81.303-.436.199-1.05.319-.11.466-1.102.373-.233.11-.52-.547-1.197.312-.782-1.994-1.51.009-.44-.455-.764-.514-.043.212-.816-.294-.71-2.075-1.493-.013-.725-.67-.362-.617-.895-1.226-.118-.42-.27-1.787.968-.244.07-.333-.279-.382.331-.885-.337-.15-.567-.588-.11-.052-.388-.818-1.04-.536.316-.391-.3-1.137-.006-.324-.279-.657.191-.416-.816-.181-.762-.59-.564-1.14-.208-.446-.311-.252.218-.615-.422-.857.049-.166-.271-1.004-.384-1.298-.077-1.79.398-1.41-.901-.213-.388-2.332-.883-.755.229-.524-.049-.692-1.648-1.072-.922-.934-.415-.207-.343-.811-.499-.591-.059-.536-.409-.778-1.312-.08-1.505-1.241.442-3-.376-3.008-.698-.27-.762-.84-.599-1.762-2.025-1.528-.83-.898-.809-.57-1.967-.405-.556.114-.455-.867-.667-2.236-.875-.34.057-.556.75-1.34.363.269-1.757-.296-2.127-.843-1.908-.252-2.395-.196-2.527.129-.432-.34-.92.104-1.492-.177-.452.02-1.14-.485-1.554-.59-.47-.64-1.695-.706-1.13-1.52-4.014-.462-.522.426-.834.333-.24 2.722-1.106.381-.626.968-.524.047-.392 2.092-2.527.884-.302-.25-3.016-.351-.502-.262-.943 1.643-1.267.684-2.865.578-1.203.142-2.13-.425-2.282.293-1.183.861-.216.588-.452-.031-.238 1.523-1.5.576-.065 1.005.353.832-.042 1.515.308 1.217.97.419-.027.387-.54.961-2.294 1.683-1.647.324-.75.78-.605 1.306-.545.614-.569-.028-.546.366-.213.11-.689 1.334-.525 1.48.193.56-.31 1.556.277 1.793-.49 1.028.079.994.59 1.834-.1 2.107 2.12.895-.103.892.682 1.53.74 1.409-.192 1.54.14 1.245.045.803-.339.373-.4 2.068-.57 2.678-.056 1.543.36.251-.13.527-1.347.638-.85.552-.148.128-.49-.353-.61.16-.583.9-1.152.181-1.004.273-.236.375-1.15.856-2.15-.668-.664.008-.28.678-.126 1.122-.788.022-.791.537-.965-.54-.082-.11-.52.758-1.22.245-.142.613.263.214.316-.059 1.65.587-.49 3.004-1.058 1.218-.188.202.137 1.41-1.294.565-.918 1.657-1.317.701-.22.627-.613 1.353-.083.73-.417.668.067 1.05-.62 1.78-.43.085-.188.564.094 2.942-2.722 1.002-.14-.072-.314.927-.492 1.326-1.148 1.293-.644-.057-.476.44-.588 2.043-1.046.199-.23.005-.45-.419-1.256.245-.457 3.216-2.88 2.933 2.338 1.996.386.861 1.067.02.399.46.64 1.297 1.445.334-.24 1.009.872 1.627.318 1.11.475 1.485-.186.739.17.475-.485.856-.014 1.005-1.269.687.217.67-.109 1.467-.9.627.013.903-.437 1.167-.214.344-.317.693.07.667-.945.218-1.371.92-1.53.78-.566 1.038-1.86.272-.334-.205-.3.051-.516 3.145.172.509-.15 1.423-.743 3.188-.044 1.557.234 2.343 2.392.287.062.536.643 1.945 1.579.92.356 1.824.38.033.484.84.81.608.116.248-.49.794-.022.329-.594.774-.275.555.042.359-.236.286-.636-.13-.257.477-.3.058-.484.387-.02.489.36.3-.29.612.079.695.471.222-.24.23.595.333.232 1.44.298.52-.024.172.356.705.367.608-.106.708.35.55-.19.213-.518-.89-1.147.646-.38.485-.872.065-.341-.492-1.264 4.32-2.31 2.014-1.402 1.89-.882 1.194-1.06.779-1.2-1.616-.504-.284-.652-.279-2.983.367-1.92-.44-.281-.258-.592.513-1.415-.148-1.77.486-.791 1.005-.698 1.06.219.593-2.636-.131-.684.362-1.325 1.381-1.716.28-.787 1.092-.666.736-1.086.11-1.052.567-.282.117-.616.476-.333-.171-.29.354-.7.408-.29.377-.858.027-.515-.204-.354.41-2.005-.192-.631 1.451-.695.692-1.206.372-1.658.783-.965.45-1.4 1.171-1.235.618.4.159.502 1.346-1.17.248-.548 1.014-.662.79-1.766.497-.126.351-.935.422-.075.144-.961.448-.18.344.212.58-.825.448.087.415-.63.87-.4.493.09.666.834.553.419.396.016.475.535 1.065-.666.54-.043.58-.742.852-1.403 2.48-1.083 1.127-1.194.392-.134.127-.532.555-.354.186-.488-.242-5.273.444-1.385-.337-.809-.844-.204.044-.243 1.342-.446.275-.665.537-.123.104-.312.416.03.116-.277.785-.003.022-.446.85-.898.93.267.6-.347.413.618.889.592.881.24 1.028.623 1.882.211.914.918 1.543.974.366.315.694-.482 1.019.886 1.22.174 1.662.823.433.01.945 1.395 1.288.222.893-.105 1.138.296 2.148 1.097 1.646.122 1.769-.516 2.014 1.74 1.494.743 1.18.975.086 1.723 2.261 4.369.286.087.805.944.867.435.587 1.501 1.685 1.603.907.344.201.358.581-.038.071.219 1.524.843-4.682 2.809-.654 1.043-.932 1.307-1.43-.492-1.082-.114-.699 1.276-.144 2.397.264 2.636.322.573.162.888-.454.485-.866 2.59.085.956.78 1.653-.72.362.521.172.461-.155 1.59 1.848-1.146 3.685-.182-.1-.649.568.049.296-.318.308.033.362-1.154 2.64-.06.397.331.201-.318.352.148.94-.726-.167-1.093 2.534-.267 3.166.507 1.763.176.03-.049 1.67.37.455.117.51.718.828-.756 1.958-2.544-.143-.272-.087-.4-.787-1.3.658-.235.494-.456-.03-1.099-1.121-1.888-.474.269 2.097.92.849.471-.017.878 2.995-.207 1.53-.517.244-.04.216.73.724.082 1.418-.743.824 2.017 1.5-.512 1.374.002.42.208 1.783-.449.327-2.01-.418-1.44.767-.305.614-.623-.315-.461-1.289-.49-.07-.338.487.146.338-.278.474-1.392.642-.41-.033-.18.332-.63-.246-.511.206-1.253.047-.417.272.086.773-.282.51.483 1.138-1.8 1.067-3.149-.007-1.201.577-.03.234-1.693 1.848-.508.203-.04.246-1.253.791-.467.035-.63.863-.473.027-.86.642-.243.45-.058.755-.6 1.218-2.12 1.16-.618.512-.622.93-2.978 2.441-.36.861-.311.11.044 1.446-.195.228.858 1.516-.217 3.207-1.043.024-.853.422.14 1.14.323.944-.415.686-.017.54.375.431-.08.786-.471.247.114.255-.409.896-.457.496.093.356-.376 1.21.243 1.148-.093.712.274.807-.63 2.485.133 1.655.22.232.083.623.389.031.248.441-.27 2.452-.461.041-.515-.795-.84.175-1.49-.358-.961-.62-.601-.005-.196-.333-.338-.05-.08-.48-.862-.733-.738.386-.552-.249-.284-.647-.378.729-.365.23-.014.281-2.068.296-.617-.717.285-.208-.645-.695-.454-.196-.691-1.802.416-.284-.476-.466.21-.459-.197-.377-1.682-.103-.834-.698-1.38-.392-.488-1.077-.656.004-.539-.26-.472.331-.586-.244-.573.04-.625.45-.503 1.138.015.564-.454 1.538.077.471-.52.5-.6.214.315.363-.899 1.63-.046 1.064.26.66-.808 2.308.116 1.65-.194.79-.202-.104-.566.699-.176.996-.61 1.312-1.736.547-.371.692-1.48.173-.012.698-.324 1.326.09.51-.343.651-.355.093-.422.58-.09.87-.262.337.13 1.622-.315.665-.27.056-.182.965.113.424-2.3.007-.974.476-.55.025-1.337-.386-.41.107-.4-.31-1.202-2.341-.768-.008-.468-.469-.346.48.408 1.528.418.55-.03.977-.238.401.055.72.67 1.996.167 2.669 1.135 2.655.03 1.584.643.127.09 1.437.589-.194.46.894.715.193.617 2.748-.169.812.2.586-.204.505-.716.28-.123.533.15.55-.595.882-.622.247-1.977.04-.33.35-.54-.019-1.036 1.456.159 1.297-.125.418.01 1.1-1.336.5-.482.733-.847.614-1.133-.084-.459 1.628.594.42.465.888.448 1.025.67.226.782.634-.012.367.828 1.88.4.385.204 2.024.13.367-.91 1.31-.59.509-3.382 1.043-.487.835-1.467 1.219-5.24 3.288.021.392.625.518-.284 1.95.403 1.532.498.983-.515.002-.362.2-.694.846-.332-.04-.694-.483-.513.04-.604.442h-.452l-.664-.684-.663.121-.845-.322-.815.121-.844-.2-.332.401-.483.362-.815-.201-.724-.483-.633-.2-.513.2-1.117-.643-1.116.161h-.663l-.513.281-.453.402-.452.081-.845.603-.513.08-.573.242-.242-.04-.512.322-.655.241-1.035-.402-.06-.12h-.785l-.905.482-.814-.04-1.177.925-.12.362-.423.643-.905 1.087-.332.563-.784.201-1.147.04-.12.201-.453-.04-.09.362-.302-.04-.151.322-.483.16-.633-.2-.483.804h-.634l-.392.804-.271.282-.664-.241-.935.12-2.082-.04-.181-.16h-.694l-.543.281-.513-.04-.271-.322h-.694l-1.63-1.448-.12-.322-1.569-1.569-.362-.161-.06-.442-.573.362-.634-.363-.362.121h-.995l-.272.202-.664.804-.332.201h-.422l-.815-.402-.301-.04-.785-.563-.573-.081-.724-.603-1.478-2.213-.392-.322-1.418.08-.694.283-2.866-.202-.242-.281-.633-.04-.362-.202-.664.443-.453.603-.06.322-.332.282-.271.683-.543.121-.302-.16h-.935l-.362.321-.634-.603-.362-.201-.634.277-.784-.157-.573.201-.362.684-.181.563-.272.202.06.361-.603-.04-.271-.563.06-.804-.483-.564-1.146-.804h-.392l-.272.281-.482.202-.242.844-.603-.281-.392-.04-.06-.483zM145.05 291.083l.157.238.446-.037.362.282.331.04.604.523.398.031.355.29.089.409 2.024 1.402h.633l.815.443.385.442-.173.2-.906-.481-.512-.443-1.328-.564-.543-.365-1.358-.72-1.96-1.167zm-5.009-7.82.572.5 1.33.634.844.843.422 1.74.392 1.247 1.569 1.73-.483-.08-1.327-.846-.362.242-.724-.08-.423-.483-.576-.483-.359-.603v-.604l-.39-1.055-.538-.799-.339-.358-.181-.523zm-1.357-4.396.573.43.332.442-.151.966.06.845.392 1.287-.09.402-.362.644-.186.04-.357-.523-.268-.806-.426-.683h-.724l-.453-.12-.15-.644.61-.37.083-.394.275-.243.329-1.124zm-19.098 1.856v.545l.151.604-.452.12-.513-.362-.03-.844zm30.35-5.188v.504l.302.04-.301.563-1.207 1.408-.332-.04.543-.724.157-.531.386-.153zm75.88-97.013-.225.416-.195 1.449 1.619 2.714.284.036.267-1.235.82.148.472-.365.23.47.392-.63.187-.011.741 1.655.683.021.72.58-.038.561-1.186.75-.555 1.555-.432.1-.535 1.063-.963.51-.14 1.151-.386.391.102.795.44.463.535.107.841-.5.496.278.391 1.565.359.215-.056 1.111.632.376.427 2.059.425.37-.584.595.302 1.02-.226 1.049-1.284.309.477.725-.992.393-.446-.926-.697-.17-.33.58-.275.032-.437-.517-.468.209-.11-.478-.492-.022.107-.328-.587.05-.744-1.635-.373-.063-1.6.63-.614.707.08.339-.555.396-.337.628.352.725.512 2.158-.145.28.35.488-1.543 1.674-.056.861.37.693-.545.327.004.253-.538.101.01-.348-.865.416.106-.785-.27-.047-.781.492-.444-.01-.524-.26-.31-.449.117-.217.947.092.089-.147-.41-1.641-.389-.572-.69.359-.848-.122-.547.38-.79.052-2.685-.47-.848-.464-.963.132-1.017.6-2.123.343-.457.306-.781.061-1.727.698-1.513.347-3.634 1.973-.803.956-2.104 1.246-.439-.359-.7.048-1.417-.626-.808.447-.197.207.318.785.45.098-.058.392-.317.146-.01.821-.579.607-.008.5-.434-.046-.56.973.113.34-.911.034.357.923-.303.75.043.983-.35.632-.431-.332-.447.527-.449-.1-.364.464-.251-.328-.42.04-.497.948-.354.106-.3.851.265.595-.32.918.756.536-.095.377-.33.183.004.452-.543.46.359.749.54.363.416.122.476-.208.906-.808.628.58.422-.473.37.415.11.471.3.16.737-.555.103.458.468.262.062-.617.832.141.333-.45.862.347 1.036-.43.155.32.57.045.66-.413.498.29.364-.18.45.333.774-.226.762.382.409-.04.396.714 1.17.292.31.532.19.688-.39.412-.281.035.242 1.017-.149.376.688.478-.205.75-.55-.151-.243.584 1.09 3.75.36.376.54.084.8.55 1.115 1.639-.353 1.042.305 1.548.43.457.53 1.45-.26.042.254.633.276.012-.073.51 1.115.508.64.825.832 2.544-.008.747.827 1.01-.01.308.306.179.101.404.284.063.728.764.064.579.512.955.118 1.268-.725.654-.044.446-.847-.08-.098-.175-.664.633-.359.091-2.771.48-.615 1.559.83.591-.147 1.659-.7 1.446.73.284.024.453.988.733-.332.473-1.394.972-.706.907-.599.11-.464.384-.69 1.244 1.424 1.453 2.984 2.074 1.193 2.031-.38 1.397-.211.182-.175.748-.3.273.125.461.499.467-1.287 1.249-.587 1.538.336.852-.462 1.124-.473.544 1.586 2.87-.293 1.3-.298.24.091.664-.383.596.305 2.661 1.57 1.585-1.372 2.496-.456.29.005.438-.736 1.293.45.568.746.31.24.463.355.168.09.729-.146.327-.635-.06-.445.425-.7.131.41.962-1.313.925-.894.966-.969 2.008-.09 1.345.61 2.154.093 1.625 2.506 6.974.299 2.017-.77 2.079.159 1.763-.445 2.016-1.016 1.334-.621.273.852 1.148 1.542 1.12 1.31 1.75 1.1.539.396.642-.777.373-.774 1.027-.86 4.938-.077 2.42.229 1.89.752 1.352.273 1.857-.241.55-.468.38-.423-.336-.392.314-.905-.033-.573.12-.604-.2-.663-.523-.393.04-.573-.362-.754-1.167-.543-1.086-.543-1.73-.332-.603-.06-.402-.694-1.61-.06-.401-.845-2.092-.09-.483-.815-1.73-.242-.804-.814-1.931-.392-.764-.725-1.086-.18-.483-.634-.966-.332-.321-2.444-3.218-.543-.604v-.16l-.844-1.047-1.418-1.488-.453-.603-.875-.603-.996-.966-.693-.442-.453-.483-.241-.08-1.81-1.61h-.242l-.331-.482-1.901-1.408-.936-.805-.784-.563-1.72-1.126-.663-.523-1.539-1.006-1.991-1.448-1.69-1.086-3.409-2.293-3.442-2.288-.321-.125-.913-.765-.935-.523-1.237-.844-.573-.201-.845-.684-1.328-.644-.719-.448-.82-.276-.15-.201-.935-.201-1.298-.524-.301.403-.447-.36.145-.565-.536-.362-1.184-.483-.142-.127-2.24-1.08h-.393l-2.203-1.73-.18-.361-1.388-1.328-.907-.69-.632-.839-.664-.2-.663-1.207.361.08.242-.52-.452-.163.09-.333-.269-.392-.274.048-.097-.653.851-.521.483-.523.483-.764 1.116-1.368.633-.684.423-1.005 1.569-1.65 1.146-1.49.543-1.044h-.271l.03-.724.452-1.126.12-.081.484-1.166-.332-.121-.453.966-.633 1.528-.151.483-.212.04-.422.603-.331.04-.03.523-.574 1.046-.543.483-.815.885-.362.563-.455.395-.36.53h-.18l-.483.805-.271.201-.51.956-.486.452-.362.845-.392.04-.422-.362-.43-1.006-.295-1.166-.15-1.247-.219-1.248-.566-1.528-.241-.845v-.442l.543-1.127.515-.762-.214-.364-.362.121.212-1.247-.242.04-.15.845-.332 1.006-.423-.04-.241-.604.03-1.327-.127-.524-.295-.361.031.642.144.444-.115 1.447.392.684.332.885-.181.483-.845-.523-.15.362.603.523.331.442.574 1.449.18.684v.925l.086.24.036 2.174.302.803h-.453l-.363-.203-.328-.924-.124-.08-.422-1.327v-.28l.271-.725.027-.483-.48-.442-.993-.396-.28-.73-.657-.438-.389.074.294.846-.08.442h-.368l-.09.604-.484.201-.542.845h-.453l-.422.281-.151 1.127.302.12-.302.483-.302-.16-.12.401-.091 1.006.815.282.21-.282-.03-.442.544-.483h.573l.482.201.363 1.086.18.242.873-.006.335.368.517.077 1.081 1.411.181.965.246.485.596.804.338.239.513.684-.124.483-.687-.16-.55-.402-.663-.282-1.509-.885-.36-.287-1.293-.804-1.545-1.04-1.207-.605-.995-.402-.574-.08-.935-.322-.633-.08-.965-.37-1.63-.234-.843-.288-1.36-.074-.21.08h-1.901l-.06-.12-1.388-.282-.905.04-.454.33-.934.274h-1.026l-.573-.322-.238-.359-.034-.848.182-.442.844.161.272-.241.12-.403-.296-.401.387-.685-.176-.687-.94-.198-.181.08-.302.966.06.885-.211.242-.211.804-.302.402.483.684.845.644.543.16h.543l1.448-.281.664-.201h.512l1.509.201.603.16 2.444.081.664-.04 1.66.402-.393.242-.905-.121h-2.052l-2.021-.12h-2.715l-.996-.081-1.267.12-.483.161-2.142-.04-.392-.08-.935.08-.151.16-1.237.162-.845-.04-1.72.16-2.684.081h-.996l-1.116.12-.302.162-.814.04-1.328.523-.422.04-.332.322-.845.08-.181.161h-1.66l.333-.764-.181-1.207-.634.201.453.282-.181.764-.483.322-.151.885.724.643-.784.321-.362.001-.815.845-.905.16-.543.323-.634.201-1.116.12-.845-.361-1.146-.725-.558.238-.404-.832-.416-2.861-.27-1.072.115-1.583-.243-.994-.623-1.572-.948-.711-.319-.342-.153-.523.006-.598.176-.75.633-1.075.343-.462.1-.7-.411-.73-.6-.79-.355-.778-.24-1.358-.464-1.044-.117-.578.036-.687.27-1.035.036-.54-.109-.677-.519-1.484.016-.81.65-.942.254-1.074-.03-.982-.334-2.332-.086-.981-.661-1.143-.495-.49-.955-.547-.204-.198-.062-.656.32-.31.955-.087.292-.115.254-.64-.146-.219-.77-.561-.375-.576-.189-.87.031-.93.297-1.227-.23-.684-.853-1.075-.37-1.357.018-.82.157-.49.36-.33.146-.346-.364-.81-.566-.409-.727-.18-.604-.463-.593-1.142-.167-.76.094-1.009-.115-.427-.325-.288-.82.174-.773-.15-.373-.422.013-1.696-.281-.66-.524-.652-.321-.902.001-.397.288-.483.798-.15.431.417.24-.164-.113-1.212-.29-.1-.346.235-.22-.59.147-.27.693-.607.548-.185.151-1.34.405-.594.061-.656-.359-.309-.38-.948.168-.27.434-.18.466.138.404.39.42-.66.008-.645.709-.885-.276-.814.47-.248.722.227.109-.122-.135-.808.06-.623.47-.328.329-.687-.41-.977.39-.151.777.546.385-.367-.17-.797.357-.661-.458-.354.282-.345.888-.08.118-.197-.282-.395-.276-.973-.363-.48.514-.549.402-1.07-.414-1.252.428-.598.268.341.218-.189-.109-.778.416-1.663.492-.323.211-.977.354-.95-.25-.738.23-.49.85-.24.086-.484-.155-.535-.322-.59.131-.63.828-.083.404-.468.087-.564.785.03.287.32.454-.133.462-.883.742-.395.302-.365.166-.624.36-.436.668-.333.21-.231.183-.613.673-.251.368-.741.597-.267.455-.62.736-.335.468-.513.629-.42.675-.31.343-.44.13-.723.532-.513.63-1.345.752-.488.22-.5.025-.633.196-.536.081-.735.422-.412.452-.249.456-.897.195-.21.131-.724.293-.451-.292-1.335-.056-.577.071-1.083.905-.168-.112-.376.137-.503.443-.2.159-.373.015-.538.347-.29.36-.52.003-.508.554-.056.162-.24-.31-1.22.288-.493.277-.954-.227-.599.454-.562-.003-.438.209-.158-.36-.787-.014-.39.241-.654-1.319-1.53.29-.63.303.038.32-.559.367-.033.154-.501.33-.391.507.138 1.067-.096.475.49.412-.226.52-.71 1.388-.51-.062-.456.553-.28.206.193.64.165.757-.2.23.802.712-.264.43.804.93-.438.54.087.12.197.903-.565.08-.446.285-.18.432.032.634.42.946-.49.388-.286.169-.513-.607-.414.136-1.617.312-.468-.386-.317.142-.473.24.013.412-.349.538.172.423-.86.192.192.247-.663.423-.087.644-.325.292.12.58.665 1.807.899.52-.132.186.63.559.267-.211.664.07.385.427.334.255-.248.567.03.392.49.393.21.2-.367.401-.092.87-.747.67-.34.286.06.425.377 1.225.13.34-.349.22-.626-.104-.358.435-.7-.03-.386-.363-.733.31-1.011 1-.706.099-1.024-.114-.406.077-.877.278-.658-.108-.487-.058-1.423-.098-.28.303-1.979.521.118.378-.328.345.133.076-.6.464-.315-.192-.628.434-1.008.175-.727.246-.218.005-.66.553-.09.16-.671-.367-.474.281-.464.042-.9.423-.03.097-.532-.49-.236-.5.223-.183-.327-.533-.498.109-.485-.101-.295.393-.29.449-1.3.848-1.372.535-.373.664-.634.948-1.243.251-.935 1 1.163.497-.142.476.216 1.05-.32.626.501.417.08.19.37 1.04.306 2.691 1.948 1.053.379 2.83.495 1.808-.7 1.154.016.246.81-.008.925-.168 1.015-.484.624-.069 1.657-1.165 1.613-.602 1.813.812 1.289.91-.515.231.133.06.456.882.225.475-.348.263-.024.254.392.499-.495.617.071-.422 1.057.207.215.738-.409.04.52-.595.4.98.257.305.748.404-.333.78.52.55-.274 1.114.472.166-.346-.505-.148.71-.939.215.384.306.034.437-.516.302.1.164 1.059.93-.567 1.638.23.202-.736.849.468.23-.092.417.312 1.645.4.253-.398.543-.174.39.165-.142.326.231.442.34-.178.29-.781.195-.134.475.196 1.093-.302.523.165 1.085 1.631.55.357.35.883.503.346.567 1.17 1.498 2.041-.427 1.236.067 1.446-.362 1.083.115.44.411.419.377-.182.729.271.271-.36-.203-.206.683-.413 1.522.027.6-.191 2.268.957 3.234.345.24.403-.301.173.419.44.001.383.801.21.472-.222.148.21.879-.273.139-.304.416.156.078-.4-.809-.293-.183-1.25.46-.97.418-.161-.008-.447.51-.055.957-1.04.514-.11.425-.572-.95-1.212 1-.464.805.241 2.381-.154 1.26.874 1.504.636 2.303-.113.005.408.456.438.52 2.425-.095 1.4.694 1.342.716.719 1.369.631.458-.029.82.701.217.468 1.152.726.626 1.005 1.566.243.96.44 1.718.017.772.31.501-.046.69.828.02.4.69.586.7.162 2.035-.505.452.103.101.302.793-.125.862.69-.225.812 1.143.583z"/><path id="D" d="m462.52 256.564-1.386-2.073-.575-.482-.315-1.107-.61-1.015-.176-1.13-.219-.161-1.026-2.24-.46-.443-.372-.89-1.305-.576-.798.04-.57-.241-.949-1.028-.144-.482-.334-.368.284-.488.96-.486.176-.48 1.417-1.321-.354-.275-1.021-.018-.466-.321-.316.066-.628-.63-1.06.533-.314-.233-.124-.455.27-.33-.26-.77.167-.782-.13-.293-.7-.631-.431.117-.162-.61-.318-.357-.057-1.026-.27-.186-.619.211-.047-1.168-.286.118-.544-.644-.355.042-.332-.59-.32.279-.625-.417-.108-.481.199-.357-.356-.218-.234-.55-1.087-.021-.123-.228.361-.544-.49-.333.221-.39-.154-.649-.789.309-.155-.226.432-1.022.357-.509-1.16-1.56-.257-.035-.555-.636-.689-.266-.772.165-.063.486-.26.055-.447-.534-.72.664-.262-.774-.963-.55-.155-.362.326-.596-.278-.491-.357-.157-.174-1.02-.269-.214 1.441-1.043 2.953-3.373 1.328-1.063 1.2-.599-1.66-2.492-.418-1.205-.6.086-.501-.348-.456.088-3.428-1.482-.986-.192-.119-.96.529-1.805 1.107-3.318.583-.323.122-.403 1.103-.41.14-1.315-.547-.58-3.57-.992-1.58.13-2.202-.779-.807-.358-.098-.72.382-1.547-.208-.269.597-2.402.308-3.813-.24-2.762.718-2.99-.163-.884.418-.386-.23-.653.227-.201.533.06.4-.598.382-2.854-.113-3.327-.478-2.273-1.195-3.298-.463-.9-.529-.202.24-2.748.628-.162 1.792.246-.153-1.086-.822-1.453.42-.169.637.308.981-.032 1.036-1.064.221-.73-.349-.293-.945.794-.197-2.047.24-.74.349-.369.697.304.136.669.466-.108-.102-.928.19-.62.792-.79-.624-.436.165-.287.611.438.385-.151-.586-.462-.179-.554.399-.209.844.575.335-.248.03-.776-.866-1.231.426-1.082 1.573.36.036-.682.48-.45-.006-.998.585-.683.635-.124.415-.37 1.007-.153.024-.25.62-.425.217-.889.586-.28-.484-.676.251-1.685-.576-.783.252-.508-.013-.578-.23-1.186-1.176-1.172-.169-.39-.616-.398-.285-.48-.04-1.01-.647-.864-.544-.185-.036-1.095.42-.726-.058-.326.418-.494-.326-.448.106-.443-.884-1.29-.893.23-.46-.268.156-1.248.724-1.673-.693-.388.198-.337-.23-.695.208-.422-.117-.455.437-2.72-.717-.345-.044.547-.32.223-.802-.365.077-1.045-1.325-1.868.125-.718-.178-.894.445-.537-.218-.804-.28.28-.395-.406-.162.3-1.163-.348-.252-.176-.523.2-.638-.665-.163-1.569-.198-1.074-.234-.18-.014-.802-.204-.093-.25-.672.27-.884-.04-1.051.44-.211.534-.885 1.305-.493.882.493 2.635.144 3.765 1.1 1.416.76 2.108.47 1.21-.739 1.189.28.59.731 1.681-.038.125-.375 2.081.297.666.507.936-.066.859-.35 1.288.113.269.22.989-.015 1.978.31 1.59.523.798.522.702.036.434-.304.705.014.88.298 2.113.242 1.279-.417.62.262 1.029-.222 2.436-.057.71-.378h1.047l2.343-.756 1.163.08.362.134.095.305.608-.26 1.755-1.54.821-1.032-.216-.981.272-1.9.626-.507.676.095.144-.487.964-.408.726.27 1.69-.77 2.248.132 2.743 1.502 1.049-1.503 3.337 1.663 5.172 1.14 3.387 1.597 2.028-.699.387.049 1.346-1.032-.047-4.018.348-2.624.544.156 1.163-.238 1.604.797 1.1.118.793.912.327 1.201-.056.7-.25.439.176 1.183.567.591-.034.342 2.446.092 1.053.62 1.168-.044.853.366.545.513 2.11-.325 1.178-.605.408.007.579-.535.914.178.196-.597 1.464-1.909.83.022 1.344-1.361 1.394-.905.133-.31-.532-.536-.002-.74.282-2.088.314-.68-.013-.806 4.308-.763.961-.235.619.307 1.688.105.922 1.262.682.164.165-.135.41.84.563.602 1.897.147.532.299 1.248-.054 1.513.425 1.378.268 4.291.433 3.27 1.428 2.142.187 1.317-1.437 5.767-4.28 6.473 9.18.31.955.158-.158-.022-.704.486-.555.004-.439.49-1.139-.25-.467.11-.645-.304-1 .306-.955 1.8-.691.888-1.061.188-.9.374-.437.76.416.93-.198 1.04-.695.603.48 2.352.494.174-.29.418.016.44.792.57.295.73.945.9.468-.356-.575.059-.272.7.202-.26-.802.138-.166 1.03-.294.04-.608.484-.233.42.204-.02-.712 1.048.121-.376-.61.526-.28.992-.079.343-.49.373 1.026.463-.116-.276-1.15.239-.223.542.03.883-.954.35-.283.414.113.203-.301.174-.847.79-.219.36.45.49-.329-.246-.587.667-.256.43-.696.335.728.183-.195-.122-.778.377-.11.16-.37.507-.132-.37-1.155 1.274-.652.813.636.088.353.639.051.963.482.7 1.171.487.326 1.983.874.796.691 3.235.648.942-.666.638-.12 1.477-.748.908-.045 1.913-.73 2.149-.04.664.293.654.612.169.452.548-.01 1.46 1.893-.648.4-.338.697-.122.926.382 1.19.643 1.104.047 1.042-.438 1.376.222.297-.318.586-.553.518.176.377-.22.796.634 1.775 1.214.402.252.317-.011.38.359.331.52.137.487-.356 1.157-.1 1.52.284.553.597 2.603.208.92.127.196.692-1.172 3.154.255.847-.096.316.556 1.38.716.657-.221 2.28.125.645-.103.658-.404.625.065.617-.105 2.264.396.768 3.847 1.052.574.373.184 1.644.27.236.015 1.77-.364.249-.448.757.15.713-.093.55.136.339-.047.932.201.443-1.058 1.773-.35.276.078 1.127.644.42.168.44-.217 1.99.134.81-.346.433-.7.38-.223.481-.689.492-.451.008v1.014l-.615 1.451-.678.355-.164.413-.456.292-1.359 2.425-1.558.756.066.549-.454.503.09.404-.5 1.255-.5.148-.225.612-1.148.683-.205.716-.701.485-.208-.092-.381.876-.6.347-.93-.267-.85.898-.022.446-.785.003-.116.276-.416-.03-.104.313-.537.123-.275.665-1.342.446-.044.243.844.204.337.809-.444 1.385.242 5.273-.186.488-.555.354-.127.532-.392.134-1.127 1.194-2.48 1.083-.853 1.403-.578.742-.54.043-1.066.666-.475-.535-.396-.016-.553-.419-.666-.834-.492-.09-.87.4-.416.63-.448-.087-.58.825-.344-.212-.448.18-.144.96-.422.076-.351.935-.496.126-.791 1.766-1.014.662-.248.547-1.346 1.171-.159-.502-.618-.4-1.17 1.235-.45 1.4-.784.965-.372 1.658-.692 1.206-1.451.695.192.63-.41 2.006.204.354-.027.514-.377.86-.408.288-.354.7.171.29-.476.334-.117.616-.568.282-.11 1.052-.735 1.086-1.093.666-.279.787-1.381 1.716-.362 1.325.131.685-.593 2.635-1.06-.22-1.005.699-.486.792.148 1.77-.513 1.414.258.592.44.28-.367 1.921.28 2.983.283.652 1.616.503-.779 1.201-1.194 1.06-1.89.882-2.014 1.401-4.32 2.31.492 1.265-.065.34-.485.873-.646.38.89 1.147-.214.519-.549.189-.708-.35-.608.106-.705-.367-.173-.356-.519.024-1.44-.298-.333-.232-.23-.594-.222.24-.695-.472-.612-.08-.3.29-.489-.36-.388.021-.057.483-.476.3.13.258-.287.636-.36.236-.554-.042-.774.275-.33.594-.793.022-.248.49-.608-.115-.84-.811-.033-.483-1.823-.38-.921-.357-1.945-1.579-.536-.643-.287-.062-2.344-2.392-1.556-.234-3.188.044-1.423.742-.51.151-3.144-.172-.051.517.205.3-.272.333-1.038 1.86-.78.567-.92 1.529-.218 1.37-.667.945-.693-.07-.344.318-1.167.214-.903.437-.627-.012-1.467.9-.67.108-.687-.217-1.005 1.27-.856.013-.475.485-.74-.17-1.484.186-1.11-.475-1.627-.318-1.009-.871-.334.239-1.297-1.445-.46-.64-.02-.4-.86-1.066-1.997-.386-2.933-2.338-3.216 2.88-.245.457.419 1.256-.005.45-.2.23-2.043 1.046-.44.588.058.476-1.293.644-1.326 1.148-.927.492.072.314-1.002.14-2.942 2.722-.564-.094-.085.188-1.78.43-1.05.62-.668-.067-.73.417-1.353.083-.627.613-.701.22-1.657 1.317-.565.918-1.41 1.294-.202-.137-1.218.188-3.004 1.058-.587.49.059-1.65-.214-.316-.613-.263-.245.142-.757 1.22.108.52.541.082-.538.965-.021.791-1.122.788-.678.125-.008.28.668.665-.856 2.15-.375 1.15-.273.236-.18 1.004-.902 1.152-.16.582.354.612-.128.49-.553.146-.637.85-.527 1.348-.25.13-1.544-.36-2.678.057-2.068.569-.373.4-.803.339-1.245-.045-1.54-.14-1.41.192-1.529-.74-.892-.683-.895.104zM326.609 414.576l-.79-1.652-.907-.264-1.066-1.868-1.327-.006-3.28 1.744-.317-1.028.814-1.257.038-.36-.601-.39-.581-1.677-.962-1.795.094-1.28-.261-.589.16-1.732-.353-.424-.971-3.02-1.1-.75-.08-1.165.278-.277-2.04-2.862-2.289-2.28-.407-2.187-.47-.854-.082-.625-.618-.28.095-.527-.264-.597-.344-2.005.116-.363-1.265-.573-.288-.906-.49-.494-2.26-.5-.925.089-.397 1.34-.356-.335-.28-.768-.324-.158-1.803-.03-.246.101-.347.76-.485.494-.822 1.374.065.336-.737.758-.206 1.375-.863.46-1.082-.73-2.803-.105-1.304-1.318-1.2-.18-.774.308-.149.262-.738.2-1.078-.547.222-1.88-.457-1.28.109-.406-.253-.679.169-.43 1.142-.885.498-.034 1.706.502.566-.124.318.13.46.718 2.547.587.387.277.322 1.351 1.618-.671 1.02-1.535 1.164-.757.898-1.803.46-1.506 1.367-.523 1.531-2.154.223.024.395-1.927-.125-1.717.27-.416-.008-.4 1.891.784.466-.554 2.262-.463.46-.291.271-.483.877-.353.278.082 1.84-.606 1.631-1.899 1.2-1 .192-.498.809-.513 1.083-1.854 1.064-.137-.686-.806.072-.436 1.094-.91.071-.655-.286-.249-.637-.02-.065-.854.534-2.642-.162-.765 1.312-1.51.534-2.4 1.342-1.93.471-1.569-1.773-.752-1.364-.922-.73-2.684-.733-.949-.19-.729-.617-.37.611-1.19.28-1.59 2.007-2.557.681-.042.217-.227.454-1.668 2.63-1.304.825-.807.333 1.23 2.463 1.877 1.405.23.644.703.33.885.012 1.084 2.37.714.893.633.577.79.798-.096.394.487.574.248 1.644-1.184 2.301-.99.304-.44 1.17-2.496.419-1.784.452-.387.289-2.254.786-.34v-.552l-.27-.345.585-.422.659.014.744-.628-.67-.955.125-1.354-.821-1.54-.623-3.098-.547-.907.654-.71.347.041.578-.63-.288-.519-1.54-.662.006-.668.176-.418-.48-.724-.35.066-.606-.36-.43-.715-1.571-1.15.007-.285 1.04-.823 1.075-2.343.315-.116.262.599.453.016.123.744 1.04-.947 1.218-.26.92-.583.94.3.215-.348 1.85-.132.24.305.548-1.165 1.635-1.499.546.715.421-.277-.388-.565.19-.283 1.521-.497.251.077 2.313-1.425.994-.782.078-.439.667-.34 1.926-2.326.88-.753 1.164-.562.542.083.404-.517.478.039.072-.529.522-.157.02-.442.934-.527.549-3.495-.946-.766-1.375-.649-1.213-1.108-.74-.199.128-1.34.183-.133.021-1.15.739.194.83.535.351-.628 1.53.038.296-1.032.21.61-.092.352.86 1.143-.051.587-.404.517.291.532.844.142.974-1.17.584.715 2.042-2.226-.378-.29.466-.383-.102-.845-.244-.008.02-.957.564-.431-.018-.71.739-.036.402-.347 1.896.077.726.464-.336.253.322.535-.877.74.557 1.026.836-.103.316.792.575.572.25-.334.53.167-.218 1.704.538.868.473.031.084-.84.593.482.461-.363.173-1.067.297.02.474-.4 1.205-.243.147-.884 3.08-1.225 2.534-1.76-.546-.58.256-.748-1.027-.197-.301-.566-.403.149-.554-2.178.281-.612 1.28-1.378-1.342-.33-.592-.386.251-.753 1.493-1.4.614.994 1.572-.57.926.713.708-.06.21-.59.723-.255.678.776-.001-.402.466.27.317-.553.405-.038.587.276.871 1.3 1.64-1.102.897.072.53-.325.361.162-.064 1.72.453.561.57.182.422.616.491 1.183.03.608-.588.357-.276.572.208.84 1.558-.096.322-.189.953.296.647-.271-.023-.724 1.01-.475.867.339.919-.06.546.326.024.555.623-.117 2.692-1.416 1.043-1.225-.009 1.003.146.013.69-.61.249-.511-.188-1.087.298-.034.296.263.532-.19.078-.71.286-.35-.625-.387-.274-.533.943-.779.579.838.515.07.138-.483-.23-.496.756-.215.508.009-.065-.378.627-1.28.43-.395.024-.416.303-.235.468-.05.494.225.181.404.733-.317.22-.466.735-.441.562.407.043.37.632.423.39-.357.596.24.351-.193.26.325.299.008.62-.5.403.315.215.707-.336 1.012.06.452.456.438-.42 1.303.297.462-.026.472-.822.508 1.356 3.245.358.175 2.623.087 1.762 1.264.294.396-.503.865-.156.79.521.717-.022.272.462.52 1.52 4.015.706 1.13.64 1.695.59.47.486 1.555-.021 1.14.177.451-.104 1.492.34.92-.13.432.197 2.527.252 2.395.843 1.908.296 2.127-.269 1.757 1.34-.363.555-.75.34-.056 2.237.874.867.667-.114.455.405.556.57 1.967.898.81 1.528.83 1.762 2.024.84.599.27.762 3.008.698 3 .375 1.242-.442.08 1.506.777 1.312.536.41.59.058.812.499.207.343.934.415 1.072.922.692 1.648.524.049.755-.229 2.332.883.213.388 1.41.901 1.79-.398 1.298.077 1.004.384.166.27.857-.048.615.422.252-.218.445.311 1.142.208.589.564.18.762.417.816.657-.19.324.278 1.137.006.391.3.536-.316.818 1.04.052.387.588.11.15.568.885.337.382-.331.333.278.244-.07 1.786-.967.42.27 1.227.118.617.895.67.362.013.725 2.075 1.493.294.71-.212.816.514.043.455.764-.01.44 1.995 1.51-.312.782.548 1.198-.11.519-.374.233-.466 1.102-.32.11-.198 1.05-.304.437.331.809-.055.89-.176.25.436.885-.01 1.135-.336-.322h-.573l-.241-.563-.393-.402-.814.08-.453-.362h-.332l-.278-.282h-.355l-1.207-.362-.785.081-.331-.282h-.332l-.453.242-.513-.161-.332.402-.572.04-.423-.2-.754.08-.513.322-.302.402-.603.281-.242.362h-.905l-.814-.281h-.634l-.875.24-.452-.04-.272.162h-.513l-.452.442-.905.483-1.69.684-.694.442h-.271l-.664-.322-1.056-.281-1.056-.443-.18-.16-1.268-.604-.814-.201-.483.04-.332-.201-1.267-.322h-.513l-.15.241-.936-.2-1.72-.289-.12-.114-1.056-.322-.181.322-.785-.282-.573.162-.965.683-.815 1.046-.513.925-.754.362-.241.242-.936.04-1.87.16-.905.202-.483.241h-.814l-.906.121-1.629.604-2.232.04-.181.08h-.936l-1.025.161-1.177.08-1.93.322-1.63-.16-1.025-.242-.423-.005-1.026-.196h-.875l-.18.322h-.332l-.332-.282h-.604l-.784.282h-1.267l-.483-.08-.995.12-.785-.241-.155-.362-1.173-.313-.995-.01-.392-.24-1.056.04-1.237-.403-1.539.483-.724.764-.057-.493-.395.05-.576.926.214.447-.815-.125-.332.563-.905 1.85-.241.322-.272.804v.403l-.513 1.207-.66 1.198-.365.451h-.242l-.452.684-1.358 1.85-.211.443-.392.402-1.086 1.89-.06.443-.604.965-.302.684-.392.604-.453 1.055.181.474-.24.361-.453-.08-.151-.242-.392.202-.272.402-.875.523-.332.483-.06.523-.543.08-.15.201h-.635l-.24-.201-.423.161-.875-.08-.453.442h-.694l-.754.241-.362.242-.814.16-.574.564-.603.764-.453.04-.633.764-.935 1.891.18.563-.09.403-.543.24-.422 1.248-.362 1.247-1.056 1.89-.634.04-.392-.16-.392.2-1.177-.12-.724.402-1.026.081-1.116 1.166-.211.523-.302.161-.754.121-.513-.12-.633.482-2.112.04-.664.12-.211.162-.936.04-.693-.08-2.263-.604-.724-.281-.513-.08-.754-.363-.453-.04-.663-.322-.785-.08-.452-.242h-.543l-.725-.241-1.81-.322-.573-.322-1.207-.361h-2.111l-.513.16-1.479-.08-.241.12h-.845l-.815.161-.06.12-1.206.685-.332-.12-.543.04-1.57 1.367.061.483-.543.482-.422-.2-.543.24-.724.484-.302.321-.634.04-2.051 1.81-.513.242-.392.563-.694.04-.543-.362-.573.161-1.298-.08-.513.16-.331.322-.363.04-.15.322-.694.443-.483.12-.362.283h-.573l-.483-.323h-.543l-.965.282-.664.523-.513.643-.905.604-.513.563-.573.362-.573.161-.332.317-.483-.035-.301.16-.996-.04-1.117.765-.512.643-.483.925-.513-.2-.513-.483-.271.2-.845.081-.513.442-.694.765-.543 1.086-.573.684-.483.362-.694 1.086-.21.563-.695.08-.392.644-.483 1.207-.362 1.448-.21.362-.544 1.931-.302.764-.12.805-.181.321-.12.885-.242.363-.182 1.166-.482.161z"/><path id="E" d="m209.443 329.449-.396-.642-1.1-.539-1.31-1.75-1.542-1.12-.852-1.148.62-.273 1.017-1.334.445-2.016-.158-1.763.769-2.08-.299-2.017-2.506-6.973-.094-1.625-.61-2.154.091-1.345.97-2.008.893-.966 1.314-.925-.411-.962.7-.13.445-.426.635.06.145-.327-.089-.729-.356-.168-.239-.463-.746-.31-.45-.568.736-1.293-.005-.437.456-.291 1.371-2.496-1.569-1.584-.306-2.662.384-.596-.091-.664.298-.24.293-1.3-1.586-2.87.473-.544.462-1.124-.336-.852.587-1.538 1.287-1.25-.5-.466-.124-.46.3-.274.175-.748.212-.182.38-1.397-1.194-2.031-2.984-2.074-1.424-1.453.69-1.244.464-.384.6-.11.705-.907 1.394-.972.332-.473-.988-.733-.025-.453-.729-.284.7-1.446.148-1.659-.83-.591.614-1.559 2.771-.48.36-.09.663-.634.098.175.846.08.044-.446.726-.654-.118-1.268-.512-.955-.064-.579-.728-.764-.284-.063-.101-.404-.306-.179.01-.307-.827-1.01.008-.748-.831-2.544-.64-.825-1.116-.509.073-.509-.276-.012-.254-.633.26-.042-.53-1.45-.43-.457-.305-1.548.353-1.042-1.115-1.64-.8-.55-.54-.083-.36-.377-1.09-3.749.242-.584.551.15.205-.749-.688-.478.15-.376-.243-1.017.28-.035.39-.412-.19-.688-.308-.532-1.171-.292-.396-.714-.409.04-.762-.382-.775.226-.45-.333-.363.18-.499-.29-.66.413-.569-.044-.155-.32-1.036.43-.862-.348-.334.45-.831-.141-.062.617-.468-.262-.102-.458-.739.554-.298-.159-.111-.471-.37-.415-.422.473-.628-.58-.906.808-.476.208-.415-.122-.541-.363-.359-.749.543-.46-.004-.452.33-.183.095-.377-.756-.536.32-.918-.264-.595.299-.851.354-.106.496-.948.42-.04.252.328.364-.465.45.1.446-.526.43.332.351-.632-.043-.983.303-.75-.357-.923.91-.035-.111-.34.56-.972.433.046.008-.5.58-.607.01-.821.316-.146.057-.392-.449-.099-.318-.784.197-.207.808-.447 1.417.626.7-.048.439.359 2.104-1.246.803-.956 3.634-1.973 1.513-.347 1.727-.698.781-.061.457-.306 2.123-.343 1.017-.6.963-.132.849.465 2.683.47.791-.053.547-.38.849.122.69-.36.388.573.41 1.641-.09.147-.946-.092-.117.217.31.448.524.261.444.01.78-.492.27.047-.105.785.865-.416-.01.348.538-.101-.004-.253.546-.327-.37-.693.055-.861 1.542-1.674-.349-.489.145-.28-.512-2.157-.352-.725.337-.628.556-.396-.081-.339.614-.707 1.6-.63.373.063.744 1.635.587-.05-.107.328.493.022.109.478.468-.21.437.518.275-.032.33-.58.697.17.446.926.992-.393-.477-.725 1.284-.31.226-1.047-.302-1.022.584-.594-.425-.37-.427-2.06-.632-.375.056-1.111-.359-.215-.391-1.565-.496-.279-.841.501-.534-.107-.441-.463-.102-.795.386-.39.14-1.153.963-.509.535-1.063.432-.1.554-1.554 1.187-.75.039-.563-.722-.579-.682-.021-.74-1.655-.188.01-.391.63-.231-.47-.472.366-.82-.148-.267 1.235-.285-.036-1.618-2.714.195-1.449.224-.416.303-.731 1.033-.849.014-.563 1.442-.249.638-.732-.067-.501.75.035.672-.919.696-.13 1.572-1.261.99-.122 1.275.145.468-.422.8-.173.535.158 1.362-.554.381-.434.699-.119.335-.633.854-.046.4.288 1.016-.39.777.635.774.312.44-.33.736.289 1.387-1.179.713.223 1.022-.256 1.748.007.609.189.232.445.93-1.681.026-.537.469-.612.446-1.38-.05-.51.46-.515-.434-1.043.267-1.184.632-.484.99.061.133-.919.514-.493.18-.465.292-.013.102-.782-.3-1.441-2.009-1.594.156-.28-.144-.759.16-.125.128-1.038 1.336-1.909.144-.738.606-.184 1.307-.951 1.566-.242.426-.82-.182-1.265.195-.254-.073-1.024.307-.422 1.967-.458.149-1.156.4-.35.519.077.26-.262.705-.18 1.603.66-.124-.343.209-.504.39.087.866-.411.013.628.814-.677.347.55.886-.442 1.095-1.207.698.096.342.269 1.194.08.418.324.94-1.417.302.129.416-.634 1.144-.194.36-.324.336.237.2.483.924.506.054.39.69-.296.307.47.335-.193.804.417-.46.116.101.44 1.005-.32.122.326-.146 1.217.513 1.519-.22-.121-.841-.96-.122-.418-.76.557-.411-.31.006.769 1.197 1.987-1.054 1.012-.495.162-.7 1.218-.356-.352-1.314-.122-.871.62-.209.91.615 1.747.096.92.013 1.438-.215.532.125 1.196.218-.183 1.447.355.993.583 1.825-.39 2.636-2.61.252-1.06 2.289-2.33.184-.596 1.176-1.28 5.284.93.378.389-.041 1.961 2.643 1.088.707.975 1.31 1.074-.087 1.689.815.904.493.061.252.32-.043.675.303.506.73.437.616 1.287 1.615 1.567.607 1.28.1.795-.325 2.101.16.635-.342 1.31.061.632.305.424.324-.113.227.472.37.081.238.359.584 1.732.465.124.075.506 1.258.306.385.328.21-.08.543.83 1.237.464.403.632.654.551.616.2.243.55.285.176.134.37-.149.438-.334.255-.015.705-.463.108-.103.543.82-.237-.384.534.317.54-.525.4.446.272.145 1.412.338.282-.11.99-.699.727-.119.596.45.2.196.465.256 1.41.605.858-.03.366.413.553.503-.185 1.294.85.726.88.241-.14 1.169.354.928.865 1.022.115.381.513.179.452.606.46.039.292-.6.529.318.595-.612 1.66.02 1.13-.268 1.48.501.268.136.376 1.425.595.16.548.007.53 2.103.584-.054 1.178-.41.06-.189.851-.24.376.548.562.596 2.38.317.93-.153.602.23.656-.51.876-.237 1.03.416.64-.05.718-.289.192-.47-.532-.549.056-.262.8-.548.588-.56-.49-.132-.734-.56-.902-.674.138-1.82 1.064-.773 1.14-.181.827-.516.94-.539-.083-.44-.408.018-1.88-.464-.506-.638.625-.755-.05-.48.265-.697 1.229-.248 1.39.29.71-.105.73.311.577.36.197.988-.547.377.82-.313.833-.642.398-1.202.091.228.901.387.405.682.302.055.784.33.53.69.516-.01.467.274.097.537.81.257-.025.063.48 1.024.244.379.395.97.256.28 1.227-.139 1.588.7.191.465-.128.413-.323.03-.91.743-.589 1.491-1.989-.062-.371 1.271-.798 1.306-.482 2.742-.346 2.268-1.559 1.985-2.04 1.02-.568 1.523-1.363 3.82-2.477 1.81 1.275 1.092 1.571 1.384-1.045.353-.05.895.38.782-.224 1.162.7-.352-1.185.12-.485-.282-.516-.062-1.522-.327-.536-1.463-.994 1.844-.555.493.321.792 1.596.101.818.707 1.259-.48.681.73.343 1.032 1.059 1.197-.012-.67-.575.04-.614-.37-.326-.359.153-.765-.915-.143-.512.122-.52.494-.729-.35-.881.249-.435.742-.485.602.01.196-.977 2.387-1.159.31-.36 3.474 1.086-.029.157 1.76.435.354 1.082.529.328.316.485-.2.204.402.506.46 1.783 1.21.566 1.932 2.887-.477 4.461-.795 1.466-.295-.124-.722 1.36.096.446.94-1.59.636.202.184-.491 1.074-.326.61-.414.228-.471.917.567-.346 2.531.496 1.451-.513.339.006.647.51 1.063-.254.406-.545.15.228.556-.15.13.59.588.07.506-.275.532.1.323-.377.364.425.756-.246.713-.716.644.076 1.3-.95.813.139.174 1.489.13-.064 1.216.383-.302.373.157-.353.39-.031.604.706.754 1.281.186.5-.42.238.313-.19.705-.61-.04-.3.371.185.804.465-.26.566-.137.152.302-.718 1.09.607 1.743 1.115 1.267.632-.198.536 1.001.892.503-.45.637-.345.116.019.748-.245.305 2.827-.001.476-.203 1.303.36.233.296.043 1.207.233.476-.612 1.334-.709.488.5 1.024.469-.063-.319.642.437.01.284.28.701 1.12-.034.612.375.483.171.464 1.206.191.02.746-.964.558.16 1.53.529.508 2.284 1.92 1.522 1.872.232-1.001.482.343.277-.466.72-.226.337.033.765.685.39-.038.435.32 2.024-.637.41-.424.027-.519-.748-.138 1.178-.627.069-.327-.403-.465.605-.825.261-.017.311.763 1.132.338.044.793.72-.156.569.717.497.014.295.444-.26 1.025.502.135.193-.83.917.146.04.505-.747.022-.103.261 1.047.548.182.314-.162.666-1.297-.635.175.903-.452.199.512 1.007.96-.193 1.283.79-.78.871.57.613-.396.028-1.148-1.084-.403.678.266.896-.444.265 1.28.475.225-.22.486.609.851 1.625-.125 1.492.196.829-.587-.276-.405.038-.317.553-.466-.27v.402l-.677-.776-.723.256-.21.59-.708.059-.926-.714-1.572.57-.614-.993-1.493 1.4-.251.753.592.385 1.341.33-1.279 1.379-.28.612.553 2.178.403-.149.3.566 1.028.197-.256.749.546.58-2.534 1.76-3.08 1.224-.147.884-1.205.244-.474.4-.297-.021-.173 1.067-.46.363-.594-.481-.084.84-.473-.032-.538-.868.217-1.704-.53-.167-.25.334-.574-.572-.316-.792-.836.103-.557-1.026.877-.74-.322-.535.336-.253-.726-.464-1.896-.077-.402.347-.739.037.018.709-.565.431-.019.957.244.008.102.845-.466.383.378.29-2.042 2.226-.584-.716-.974 1.17-.844-.14-.291-.533.404-.517.05-.587-.86-1.143.093-.353-.21-.609-.296 1.032-1.53-.038-.351.628-.83-.535-.739-.194-.02 1.15-.184.133-.128 1.34.74.199 1.213 1.108 1.375.65.946.765-.55 3.495-.933.527-.02.442-.522.157-.072.529-.478-.04-.404.518-.542-.083-1.163.562-.88.753-1.927 2.326-.667.34-.078.44-.994.78-2.313 1.426-.25-.077-1.522.497-.19.284.388.564-.421.277-.546-.715-1.635 1.5-.548 1.164-.24-.305-1.85.132-.214.347-.942-.3-.92.584-1.217.26-1.04.947-.123-.744-.453-.016-.262-.599-.315.116-1.075 2.343-1.04.823-.007.285-.61.982-1.13 1.124-.46 1.144-1.272.62-.799.788-.831.253-.21.477-1.602.582-1.057 1.563-.442.139-.658 1.31-.99.095-2.359-3.31-.584-1.646-.645-.409-.625-1.731-1.246-1.446-.914-1.476-.71-.49-.162-.606-.042-2.814-3.33 3.156-.561.654-.186.94-.62 1.038-.502.084-.263.407-.387-.046-.404.266-.117 1.061-.493-.073-.955.483-.2.337-.653.086-1.236 1.048-.83 1.367-1.363 1.336-.337 1.333.41.527-2.835.778-.25-1.257-.545-.358.016-.855-.199-.268.22-.36-.937-.655-.284-1.874-.338-.145.027-.411.34.023.43-.665.8-.417.265-.237.047-.38.784-.212.921-1.247.11-.879.534-.789-.038-1.927-.62-1.945-.099-1.054-.613-1.054-.888.427-.656-.104-1.254 1.169-.586.2-.927-.313-2.552.467-1.532.883 1.731 3.237.857.603.431.707 1.102 1.01.305.52.055 1.113-1.317 1.702-.863-.1-.394.286-.545.688-.422 1.136-1.071.099-.255.293-.08.78-.617.388.061.392-.445 1.044-.897.258-.24.805-1.173-.012-.134.65-.419.4 1.278 2.469.572 1.827-3.282-2.052-2.065-1.044-.29-.881-.263-3.761-.805.29-1.122-.863-.152.837-.305.505-.517-.14-.4.297-.826-2.02-.69.547-1.864-.529-.697-1.42-1.09-1.682-.2-.03-2.895 2.776.1 1.595-.27 1.519-.763 1.401-1.5.88-.961-.29-1.134.48-.838-.685-1.95-.375-1.318.185-1.307-.2-1.312.187-.734-.161-2.911 1.42-.595.184-.896-.12-1.564 2.207-1.053.908-.75-.146-1.854 6.245.517.697-.242.663-3.725-1.575-1.735.16-1.252-.168-.885.27-1.317 1.024-.495-.19-6.375-.554-1.544-.596-3.704-.156-2.144-.396-1.906-.946-2.304-1.802-1.336-1.324-3.06-.89-.378-.299-2.338.022-2.267-.383-.156-.293-1.305.534-1.17.074-.981-.57-1.195-1.604-.485-.28-2.027.82zm139.272-106.884-.557-.796-2.97-.606-.32-.224-.096.625 4.31 2.014.56.579-.845 2.57 1.836-.357.436 2.09.188.32.773.268.096-.213-.798-.184-.54-2.62-.439-1.128-.01-.531.457-.516-.057-.616.384-.427-.51-.921-.332.435-1.363.953z"/></defs><text transform="translate(616.494 307.159)" font-family="&quot;Tahoma&quot;" class="C">Almera</text><text transform="translate(257.986 414.697)" font-family="&quot;Tahoma&quot;" class="C">Cdiz</text><text transform="translate(352.556 176.21)" font-family="&quot;Tahoma&quot;" class="C">Crdoba</text><text transform="translate(494.016 293.517)" font-family="&quot;Tahoma&quot;" class="C">Granada</text><text transform="translate(125.515 242.02)" font-family="&quot;Tahoma&quot;" class="C">Huelva</text><text transform="translate(518.731 176.365)" font-family="&quot;Tahoma&quot;" class="C">Jan</text><text transform="translate(367.472 344.276)" font-family="&quot;Tahoma&quot;" class="C">Mlaga</text><text transform="translate(262.131 266.5)" font-family="&quot;Tahoma&quot;" class="C">Sevilla</text></svg>