<svg xmlns="http://www.w3.org/2000/svg" width="800" height="533" baseProfile="full" style="background-color:false" xmlns:v="https://vecta.io/nano"><style><![CDATA[.B{font-family:&quot;Tahoma&quot;}]]></style><use href="#B" paint-order="fill" filter="url(#A)"/><use href="#C" paint-order="fill" filter="url(#A)"/><g fill="#eee" stroke="#000" stroke-miterlimit="10" stroke-width=".4"><use href="#B" paint-order="fill"/><use href="#C" paint-order="fill"/></g><defs><filter id="A" width="1000%" height="1000%" x="-100%" y="-100%"><feOffset dx="-9.8" dy="9.8" in="SourceGraphic"/><feColorMatrix values="0.2 0 0 0 0 0 0.2 0 0 0 0 0 0.2 0 0 0 0 0 1 0"/><feGaussianBlur stdDeviation="8"/><feBlend in="SourceGraphic"/></filter><path id="B" d="m508.96 260.726-.582 1.869-.715.775-1.943-1.206-.768-.265-6.625-1.368-.89.359-.653 1.202-.557.412-.413.626-.19.885-2.063.033-1.051.993-.856.224-.568-.33-.235-.917-.3-.353-.596-.096-.745 1.253-2.745 1.227-1.007 1.333-.376 1.475.028.811-1.207 1.655-.53-.124-.814.242-.67-.077-.688-.27-.103-.459-.214.406-3.554-.397-.653.09-2.065-.79-.747.047-.422-1.081.066-.64-.655-1.422-.306-.665-2.177-1.242-.022.591-.164.072.165.137.003.662-.402.39-.136.79 1.099 1.984.084.533 1.036 1.64-2.645-1.417-1.668-.336-.174-.824-1.963-.908-.28-.58-.15-2.31-1.049-3.158-.023-2.053-2.132-7.488-1.418-2.03-1.68-3.082-2.273-1.789.079-.686-.357-1.106-.019-.8.208-.585.005-1.406-1.027-1.765.821-.583.313-.645-2.9-1.19-2.222-.512-2.293 2.189-1.22 1.928-.667-.165-1.925-2.119-.981-.216-.547-.616-.443-.045-.295-.42-.226.028-1.437-1.348-.379-.805.071-.348-.33-.481.148-.168-.579-.44-1.514-.022-.94-.815-1.053-.109-.714-.337-.243.142-.702-.759.16-1.012-.535-2.025.1-.538-.275-1.972.14-.285-.77-.566-.087-.57-.353-.203-.72.28-1.455-1.113-.445-.087-.762-.711-1.013-.062-.125-.245-.742-.265-1.182-.157-.52.406-.354-.714-.765-.534-.515-.094.103-.238-.49-.008-.259-.912-.824-.144-.367-.29-.407.076-.387-.746-.359-.273-1.106.08-.707.302-1.298-.064-.027-.286.868-1.407.757-.632-.138-.847.48-1.254-.447-.453-.075-1.114-.21-.31.082-.617-.526-.698.33-.985-.374-.944.13-1.41-.525-.583-.194-1.74.231-.462-.09-1.138-.633-.796-.186-.806-.458-.714-.311.02-.745-.65-.372.013-.313-.58-.851-.786-.128-.488-.673-.102-.912-.48-1.561-.066-.658-.713-.08-.147-1.114-.085.482-.876.368-1.355-.374-.41-1.788-.53-1.476-.945-.226-.966-1.966-3.355-.095-.505-.59-1.403-.412-.151-2.794-.011-.844.292-2.532-.393-.338-.198-.45.084-.86.956-4.278-.565-1.887-.72-1.729-1.243-.082-.328-.625-.115-1.363-.88-1.125-.402-1.018-.906-.334-.065-.674-.987-.396-.243-.576.057-1.28-.566.482-.708 1.195-.612.135-.286 1.383-.993.357-.529.19-2.197-.336-.511-.43-.177-.09-.48.179-.386 1.087-.744 1.745-3.319 2.43-1.924-.007 3.126 1.047 2.598.703.397 1.238-.56-.037-.442.298-.356.38-.031.733-.799-.334-.684.55-.902-.973-1.07.261-.25 1.168.033.155-.25-.164-.226-.43-.292-.208-1.054.301-.511.544-.278-.057-.273-.069-.173-.246-.607.486-.877-.008-.463-.76-.64.233-.331.52.076.084-.366-.602-1.572.328-.998.83-.465-.124-.454-.736-.377-.193-.595-.21-.676.823-.254-.108-.286-.738-.398.634-.73.113-.8-.159-.628.375-.988-.873-.572-.273-1.353-.04-2.338.07-.47.316-2.209-.123-1.797.77.003.36-1.928.533-.236 1.35-1.652.15-.91-.94-2.674-.413-1.91.198-.604-.471-.485.043-.3.707-.498-.13-.353.364-.88-.248-.454-.646-.352-.13-.275.173-.337.672-.415.043-.457-.825-.724-.186-.412-.999-.274-2.303-1.552-.287.717.28.353-.027.688-.28.256.17.716.235.838.42.164.122.316-.033 2.309-.89 3.739-.711 1.634-.487 1.398.094.184-1.392 3.11-.868 1.14-1.574-1.325-.425.048-1.205-1.264-1.48 1.113-1.098-.875-.854-.074-.226.6-.446.278-.564 1.538-.24.162.16.94.263.08-.354.588-.011.432.426.514-.287.556-.452.051-.472-.616.242-.4-.605-.457-.862-.12-.837-.523-.003-.543.944-1.109.594-.93-.023-.245 1.04-.838.159-.627.299-.032-.355-.877.038-.538.399-.478-.04-.312.38-.473-.245-.32.446-.232.393-1.275.703-.434.37-.817.25-.076.072-.568 1.028-.928.62-2.698.32-.712.43-.295.077-.875-.321-.115-.027-.213.21-.407-.088-.876.236-.288.913.606 1.19-.356.658-1.441-.753-.398-.563.489-.833-.214-.472-.407-.009-.433-.235-.17.087-.589-2.269-.98-2.11-.914-1.225-.972-1-1.16.973-1.019-1.049-.825.271-.483.79-.548-.014-.442 1.496.462.434-.635.05-.69-.245-.43-1.093-.923-.717-.374.699-1.563-.29-.469-.084-.934.258-.613-.165-.683-.639-.31-1.29.557-.176.586-1.394.144-.702-.427.021-.61.38-.396.09-1.034 1.273-2.317 2.063-.362.15-1.511-.436-1.266-.927.105-1.074.546-.118-1.092-.364-.124.17-.995-.656-.055-.286.168-.364-.308.975-2.122 1.675.117.397-1.9-1.022-.206.401-.246.225-.772.323-.047.093-.406-.609-2.632-1.337-2.082-.443-1.285 2.65-.089.446-.681.494-.075.023-.614.535-.117.36-2.067.2-.09-.04-.34.287-.346-.195-.43.178-.376-.988-.097-1.238-1-2.178.153.72-.551.488-.685.679-.346-.26-1.998 1.037-1.254-.425-.291-.013-.687.173-.583-.181-.802.065-1.074.365-.046.242-.266.57.013 1.652.505.88-.606.146-.52.078-.276.326.047 1.248-2.377-.246-.866-1.05-.886-.04-.515.93-.735-.352-2.208.012-.75-.264-.615.044-1.872 1.615-.839.409-1.19 1.084-.777.615-.048.256-.26-.152-.445.549-.6-.168-.232.007-.86.274-.473-.583-.14-.127-.566.142-1.02.599-.463.441-.04.827-.492 1.259-1.284-.088-.21.69-.43 3.09-.383.793.36.18.373 1.723-.007-.048.067-.637.876-.091.106.21.74.103.74-.109.417.44.372.01.035.1.099-.012.26.282.005.135.133.02.279.632.5.566.099 1.236.637.188.218 1.352-.4.617-.15 1.71 1.658.105.221-.004.66.606.803.776.513 1.023.211.209.043.14.087 1.44 1.8.016.01.163.232.676.323 1.15.76.01.15-.2.131.232.348.026.4-.035.311.062.091.12 1.848.041.017-.05.527.876.023.342-.262.34-.096.402.063.233-.242.587-.165.62.415.172.371.032.511-.352.715-.14.287.027.892.198.397.035-.008.018.095 1.457.242.09-.147.189.348.204-.996.487-.8.737-.22.792.094.287-.419.395-.575-.236-.521.002-.062.01-.213.116-.945.357-.462.713-.52.27-.753.12-.155.075-.05.718-.308.076-.01.063.187.272.8.588.526.431.078.75.407.305.482 1.682.717.262.021 1.093.593.458.56.461.075.091-.221.969-.256.457-.403 1.167-.497.01.013.674-.078 1.399.521.057.029.16.251.347-.07.032.012.026-.024.392-.079.072-.357 1.573-1.477.421-.242.01-.054.027-.156 1.433-2.158.342-.257.012-.032.475-.091.093.134.523-.253.165-.032.008.002.493.4.038.032.542-.018.136-.202.066-.1.184.032.165-.81.683-.767.693.86.46.193.402.169.514-.018 1.524.419.36.838.158.105.063.233.473.126.798.534.076.117.397.199.035.017.255.128.843-.27-.025-.172.22-.091.045.07.002.25.298.218.124.193.108.617-.117.475.156.305.353.146.865.507.254.292.123-.07.495.289.287.48.423-.127 1.266.27.217.153.32.355.124-.045.17.12.123.16-.06.32.538-.059.167.117.106-.02.405.213.934-.71 1.075-.726.293 1.358-.385.723 1.23.939-.243.146v.53l.487.052.779.507.197.448.699.734.62.844.531.941.066.74.522.3.089.157.222.44.002.523-.108.363.468.624.296-.1 2.432.521.06.037.062-.01 1.01.216.56 2.353.095.12.098.484.388.126.017.02.165.039.146.047.023-.009 2.773.635 1.375.52.773-.03.06.014.033-.017.646-.024.078-.004.851-.775.136-.069.034-.085.129-.117.015-.248.343-.868.593-.14.586.008.462.162 1.92.674.222-.202.012.003.098-.046.575.067 1.263-.888.039-.273.891-1.282.79-.245.186-.037 1.654.788.256.134.5-.031.163-.074.165-.004 1.334-.512.64-.14.051-.311.783-.57.57-.156.898-.074.63.158.056-.56.495-.496.808-.472.061-.306 1.595.45.017.01h.015l1.49.42 1.844 1.496.18.018.156.127.054-.107 3.335.33.132.581.415.696.213.527-.052.743-.306.506.261.128-.004.052 1.47 1.155.617.63.746.474.104.212.087.176.286-.21.722-.53 1.417-.76.061-.009.2.156.633-1.075-.305-.534.064-.245.231-.11-.07-.507.157-.598 1.7-.789.094-.01.869-1.016.53-.149.2-.588.296.205 1.138.995.126.15.869.428.115-.04.59-.21.181.112.137.855.264 1.642 1.503-.167.055-.007.858.34.276.332 1.258-.052.124.152 1.049-.283.152-.123.988-.106.096.035.356-.083.181-.019.074-.04.236-.055.252-.059.023-.005.18-.186.147-.153.58-.317.317.081 1.391.823 2.382.197.024-.035.04.003.252-.081.01-.045.093-.442.59-.845.97.204.63-.078 2.568.438.73.37.45.229.288-.276.016-.015.124.007.354.02.32.053.017-.035.066.003.02-.09.031-.154.46-.945.337-.196.045.024.62.663 1.336.646.59.022.876.099 1.165.336.426-.157.426.048.163.128.913.195-.005.359.606.796.567.206.217.292.249 1.102.404.327.078.344.682.279.504.666.34.108.486 3.582-.158.484 1.05 1.124.932.218.61.436.721.227.167-.108.476.37.35.052.428-.386.543.357 1.919.212-.173 1.137-.5 1.1-.117 2.012-.227.603.086.558-1.178 2.167.087.6-.745.999.898 1.388-.436-.042-1.069-.67-1.063 1.342-.335.73.238.723-.48.994 1.107.058.996.988-.647.108-.382.995-.33-.11-1.363 1.498-.855-.99-.476-.21-.129.098.16.587-.293.636-.779-.173.66 1.874.957 1.304.25.81-.226.32.023 1 .438 1.452-.06.34.938 1.024.735.285.845 1.39.13.338.024.06-.138.854-.65-.008-.241.373 1.095.828.173-.054.237 1.112.137-.034.452.982-.316.785-.806.408-.107.644-.912.183-.28.2.05.432 1.085.522.316-.025.975.72 1.501-.03.506.124.07.39.537.376-.446.25-.39.151-.424-.086-.148.23-.359.01-.072.335-.434.133-.485.785-.457.1.344 1.462.567-.073.604.254.44-.123.566.473-.99 1.254.158.571-1.225 1.127-.098 2.14-.549.59.12 1.71-.501 2.347-.151.48-.522.399-.374.63-.498 1.499-.542.783-.072.407.337.276-.42.608.084.762-.606.787.112.976-.29.847-.416.157.075.696-.494 1.71.314.43 1.284.851-1.07.699-.814.884-.048 1.853.27 1.686.437.632-.273 2.068-.482.779.067.307-1.092 1.022-.603 2.177-1.083 2.061-.095 1.257.066.442.274.207-.536.782-.963.192-.024 1.225-.5.732.542 1.58.724.043-.686 1.792-1.111.673-.233.608.103.724-.355.7.01-.667-.362-1.069-1.535.393-.713.632.235.55-.291.225-.67 1.765-.662.478.084.66-1.222-1.141-.589.294-.1.688-.814.582-.093.356-1.194 1.48-.402.85.058.766 1.38.272.131.208 2.693.956.477.417-1.308.188.03.376.602.928-.516 2.192-.023.524-.313.627 1.605.853-.095.825-.406.447-.978.133-.338.392-.487-.017-.151.24-.472.031.224.805-.224.933-1.861-.365.007.186-.501-.28-.513.673-.087 1.207.206.065-.02.706-.424 1.188-.72.85-1.797-.3-.584.226-.418-.2-.513.24-.872.863-.33 1.03-.392.343-.637-.093-.605.511-.978 1.978-.432 2.988-.517.336-1.732-.204-1.012.463-3.058.281-.856.362-.2-.155-.008.37.083.338-.465 2.046.053.824-1.112-1.155-1.243 2.274-.37-.106-.058 1.452-.498.393-1.307 1.221-.962.832-.797 1.165-.638.977-.236.89.031 1.725.693.36 1.657 3.156.679.35.269.357-1.264 1.365.394 3.104 4.408.574 1.038.36 2.75-1.338.517 1.306.249 1.113-.45.492-.145.48.289 1.231-.269.523.91 1.283.815 1.904-.408.16-1.11 1.399-.548 1.04-.933.812-1.284 2.421-.817 1.229-.328.198-1.11.551-1.369.17-.408-.183-2.035-.248-.55.52-.065.428.362 1.378-.034 1.089.118.34.924.883.077.348-.737 1.178-.198 1.601.115.609ZM475.606 362.19l.041-.751-.273-.273.03-.683.402-.82-.471-.601-.53-.287-.274-.507.19-.36-.227-.356-1.64-.182-1.836-.202-.511.136-.626.545-.218.509-1.341-.498-1.044-.233-.228.16-.914-.094-1.636-.865-.627-.63-1.617-.624-.565-.096-.564-.681-1.34-.628-.763-.709-.558-1.15-.554-.337-.346-.89.275-1.43-2.123-.442-.19.4-3.157.178.281.365-.756.318.1.326-.172.328-.325.2-.033.336-.475.494-.27 1.29-1.141.54-.314.906.022.528-.38.761.132.365-.254.399-.122.921-.45.335-.216.79.299 1.162.293.153-.413 1.47.16.947-1.463.049-1.134.784-1.87.687-1.087 1.097-.434-.242-.566.875-.737.51-.087.619-1.03-.571-.33-.57-.21-1.384-.39-.039-.307-.315-2.842.358-1.497.79.1.262-.336-.064.262.22-.176.239-.186-.133-.445.11-.355.808.243.659.87.839-.2.447.079.891-.47.709-.207.91-.123.817.216.643.738.734 1.063-.266 1.688.597.074.649.905-.125.017.153 1.282.481.456-.728.635-.465.954-.011.34-.192.607.26.094.918-.248.637.15.476-.217.159.2.522-.195.758.11.283-.102.415-.476.503.05.497.467.5-.058.546-.076.23.013.56.375.607-.162.296.387.122-.236.892.254.374-.31 1.02-.455.734-.456 2.123.253.396.18 1.017.994-.527.73.61.658 1.142-.022.49-.458.664-.036.713.583.246.28.44-.143.668-.38-.298-.22.063-.165.41-.09-.203-.23.1-.262.429-.167-.323-.311.247-.523.027.207.622-1.578.014-1.445.79-1.05.149-.466.346-.206.435.02.621-.412.324.02.425-.327-.178-.16.12.64.796.869 1.754.507.532 1.17.626.984 1.107.614 1.605.561.307 1.108 1.256.468 1.314-.098.476.17.541-.262-.101-.142.214.161.497-.318-.195-.385.147-.005-.362-.921.88-.679-.138-.426.702-.331-.181-.265.083-.482.511-.229.636-1.074.726-.084.457-.458.07-.081.223-.312-.082-.256.789.206.731-.28.275.066.225-.357.045-.118-.441-.216.044.13 1.014-.516.367.154.056-.098.584-.197-.188-.35.246-.513-.501-.154.396-.4.221-.155.315.283.214.105.449-.393-.217-.03.315-.217.044-.015-.632-.404.498-.263-.693-.573.598-.335-.224-.247.23-.144.439.159.359-.288.162-.2-.233.076.384-.65.272.008.207 1.013.854.784 1.34-.237.554.153 1.314-.512.448-4.107 2.467-2.466 1.175-1.248.201-.64-.868-.761.673-.97.153-.819.754-.733-.618-.937.196-1.936-1.048-1.555-1.707-.386 1.025-1.16 4.733.122 1.283-.319.482-.289 1.207-.875.994.174.162-.116.746-.245.271.451 1.517-.119.281.157.114-.134.52-.433.387-.004.543-.482.15.094 1.324-.171.115-.712.803-.402-.315-.64.227-.16.482-.568.255-.262-.213-.286.358-2.017 3.27 1.571 4.445-.572.227-.427-.17.009-.78-.427-.134-.193.207-.227.171.048.342-.279.052-.135-.285-.107.13-.01.588-.215-.295-.38.291-.441-.02-1.894 2.25-1.638.798-.318.201-2.07-.33-1.086.607-.274.271-.306.216-.625-.107-.13-.248-.508-.146-1.718.617-.628-1.21-.898.74-.06 1.523-.265.479-.196 2.326-.759.803-.343.826-1.22 1.157-.948-.197-.489.125-1.405 1.137-.759-.016-1.094.417-.325.386-.015.594-.352.458.31.338.286.904-.407.642-.47.186-.22.875.687.814.34 1.865-.417.473.31.222.444.85.029.861.302.584 1.353 1.14.435.079.85.814.317 1.025.412.203-.012.302-1.796 1.047-1.47.364-1.03 1.17-1.074.757-.736.204-.165.69-.573.431-.401.088-.288-.285-.4.068-.545-.546-.965.024-.674-.647-1.321-1.232-.498-.926.459-1.895.461-.255.36-.548-.282-.73-.692-.21.212-.251-.649-2.436.646-1.379.428.247.086-.786-.35-1.677-1.159-1.514.148-.418-.488-.9-.43.709-.758.443-.302-.532-1.013-.404-.484-.614-.304.036-1.696-1.033-.815-.177-1.56-.844-.809.233-.356-.232-2.362 1-3.244-.797-1.567.098-1.495.461-.104.43.248.19-.317.198-.472.364-1.337-.995-.291.435.082.171-.29.222-.302-.573-.37.141-.3.546-.485.3.217.715-.695-.282-.19-1.018-.7-.254-.56.032-.516-2.322-1.678-1.598-.175-1.38.689-.332.532-.018.745-.572 1.047.23 2.114-1.234.63-.174 1.235-1.029 1.42-.49.542-1.174.753-.89-.037-1.298-.78-1.005.16-.146-.477-.341-2.416-2.391-.615-.595-.623-.009-.47-.365-1.15-.264-.23-.93-.864-.618-.35-.742-.256-.11-.832-.079-.27.198-.537-.136-2.829.59-.883-.056-.619.12-1.403-.734-1.616.283-.9-.381-.586-1.078.46-.45-.28-1.085.283-.493-.115-.22.308-.807-.123-.152-.72.522-2.508-2.621.004-.644-.814-.641-.277-1.441-1.011-2.402.38-1.066-.535-.66.129.247-.531.574-.92.257-.42.352-.83 2.288.043 1.832.549 1.041-.228 1.099.3.905-.325.451-1.698.588-2.186 1.838-.482-.104-.27-.42.07-.823-.789-.005-.58-.227-.84.289-.898.532-1.145-.667-1.85-.44-.764.417-.372-.02-1.614-.811.674-1.699-.016-1.07.344-4.39-3.658 1.658-3.791-2.587-.318.063-.092.018-.661.131-.158.1-.815 1.091-1.03.386-1.779-1.923-.971-1.051-.343-.178-2.321-3.145-1.163-.931-.51.028-.948-.811-.172-.206-1.336-1.603-.708-.577-.819-1.163-1.265-1.13-.667-1.683-1.481-.864-1.089-1.23-1.044.359-1.058 2.08.057 1.577-.44.538-.52-.043-.795-1.544-.241-2.066.627-1.202.274-.196.043-.728 1.384.68.997-.41-.045-.656-1.023-.747-1.337-1.97-1.49-.825-.155-.302-.53-.074-.101-.445-.87-1.166-.267.04-.033-.425-.658-1.183-.478-.404-.29-.967-.697-.802-.155.095-.308-.64-1.175.01.029-.737-1.755-.118.26-.34-.069-.457.403-1.417.407-.49.345-.014.828.647.934-2.4.705-.6.459-1.177.731-1.069.998-1.642 1.533-1.328 4.295-1.987-.276-.952-.036-2.443-.663-3.725 1.274-3.917-.379-1.546.776-.313.802-1.53.391-.17.818 1.404 3.347.312.472.516 3.217 1.942 1.201-1.02.446-.006 2.827-2.29.627-.988.43-.288-.978-1.335-.047-.326-.984-1.047 1.05-2.172.29-1.756 1.347-2.078-.14-3.22.489-.788-.283-.324-.532-1.089-1.025-1.2.076-.426-.158-.918-.493-.51-.327-2.838.698-1.431 1.6-1.476-.033-.43-.287-.636.089-1.205.291-.512-.171-.585.18-1.053-.322-2.574-.243-.689-.902-1.01-.063-.44-.29-.297-.716-.376-.711.2-.294-.21-1.607-1.862-.358-.67-.151-.47-.28-.082-.733-.827-1.753-2.725-.59-2.659 1.075-1.31.54-1.203.263-1.496-.41-1.377-.582-.856 2.898 1.041.622-.776.792.45 1.873-.104 4.438-2.123.743-.831.283-.482 3.361 2.123.16-1.275 2.55-2.568-.065-1.602-1.227-2.585-.542-.505-.635.13-.104-.131-.49-.626 1.918-.474 1.86-1.083 1.842-.137.78-.735.38-.365-.199-.814-.388-.387 1.243-.95-.54-1.008.5-1.164.82.05 1.993-.988 1.81-2.058.512-.083.358.921-.577.234-.175.345-.056.846.5.268-.234.551.07.262.39.197-.246.51.14.16.94.204.277-.38.33.301-.035.297.49.394 1.054-.484.48.703 1.014.034 1.174-.355.678.616.532-.129.616-.978 1.098.159.741-.93 1.09-2.195-.368-1.299-1.509-2.296.452-.31 1.28-2.363.56-.422 2.306-.638 1.23-1.01.551-.178 1.821 1.633 1.605-.145.314.605.734-.376 1.264-.18-.163-.184 3.608-.816.036-.545.846-.541-.47-1.121.06-.641.876-1.275.407-.413.438.519.424.164 1.062-.194 2.594 1.73 1.738 1.498.54.848.42-.327.741-.156 1.623.489 1.211.091 1.566-1.35.527-.188.863-1.156-1.231 1.992-1.18 2.761-.515.616.206 2.698.369.369.567.198.808-.142 1.976 1.398.218.556.357.237 1.28.143.75-1.124 2.616-1.327-.287-1.684 1.416-.927.124-1.014.736-.458.297-.437-.32-.95.221-1.753.202-.297.423.006.23-.21-.292 1.098.274.756-.023.729.842 1.232.454.257-.017.397 1.192 1.176 3.258 1.606 1.089-.517.653-.085.035-.213.296.115.995-.252 1.09-.64-.319-.498.81-.838.136-1.236-.223-1.405.532-.19-.227-.808.116-.493.438-.717 1.196-.88-.015-.712.372-.778 1.112.586.438.5.116.635.975.901.29.765.567.181.2.818.366.04-.01.585.893.994-.18.229.348.404 1.62.874.273.436 1.413-1.179.877-1.276-.017-.578.737-1.63 2.13-2.694.382-.772 1.736-1.232.233-.613 1.244-1.025-.152-.434-1.094-.553-.713-.78-1.064-1.768-2.24-1.73-.9-.993.63-.354 2.117.145 1.8-1.36-.342-1.612.154-2.797-.489-3.02.234-1.38 2.541-1.6 3.15 3.894 2.75 3.804.646 2.873 1.11 2.66 1.812-.945.462-.506.3-1.218-.14-1.211-1.974-4.49-.83-.9-1.003-.583-.005-.232-.709-.32-1.445-.05-1.22-1.479-.467-1.036.002-3.699 1.46-.803.917-.053.857 1.22.754-.481 2.168.082.114-.29 1.174-.498.8-.008.225.263.176-.109.583.263 1.356.717.542 3.028.473.808 1.08.312.037-.312 1.6.7 2.051-.047.005.188.36.06-.606.453.194.468-.235.308.133.674-.316.546.866 1.183.946.893.567.93.51.222.291.173 1.277.565.823-.002 2.063 1.73 1.882 1.213.287.391.691-.424.777-.154-.07-1.347.589-.323.496.274 3.605 3.995.622 1.223.412.41 2.251.393.399.331 1.141 1.927.716.814.293.159.617-.201 1.15-.236 2.61.575 3.104 1.886 1.652 1.592 1.265.847 1.964.973.884.088 1.169-.317.551.1.725.906 1.888.744 1.034.649.526.68 1.298.134 1.409 1.085.375 2.252.397.969.494.982.046.091 1.138 1.428.184.595.652.935.587.435 1.233 2.521.455-.252.561-.692.304.05.23-.25-.085-.596.487-1.049-.107-.24.298-.917 1.55-.606 2.158-.094 2.601.454.884.702 1.847.823.137.385 2.222-1.068 3.082.385 2.436-.48-.226 1.188.426.507.675.064.146.673-.97.569-.319.436-.002.411.248.272.6-.604.748-.147.17.164-.488.856.037.387.397.33.842-.043.121-.736.273-.144.706 1.145.995.873.875.098.933.855-.366.234-1.215-.214-.382.106-.217.688.575.506.636.116.382.318.072.26-.578.467-.094.497.351.327.043.339.917.877.13.692-.13 1.006.239.297.619-.21.433.515-.962.818.115.587-.46 1.283-.511.021.002.402-.453.465.27 1.126-.722 1.057-.705.071-.695 1.224.025 1.093-.553.181.112.44.355.103-.382.687.046.776-.43.528.012.688-.492.057-.237.258.654.611.533.145.137.402.382.282-.2.597.081.54-.273.504.182.38-.268.51.515.438-.066.303.259.332-.232.255.342.056.134.987.257.051-.08.21.505.524-.013.272 1.228 1.452-.655.318-.017.238-.688.446-.681 1.286-.085.595-.824.236-.565.89-1.125.707-.079 1.053.188.448-.542.684.059.526-.635.26-1.233-.273-1.089 1.375-.55-.139-.633 1.147-.533-.383-.094-.352-.294.333-.627-.237.104.545-.232.284.232.715-.09.369-.77-.504-.353-.546-.558-.264.585 1.015-.169.118.135.321.313.092.335.917-.245.464-.385.241-.088.574-2.334.712-1.824-.323-.755-.594-.483.053.064-.338-4.137 1.778-3.17 3.228-.52-.313-1.115-.233Z"/><path id="C" d="m488.014 311.193-.137-.385-1.847-.823-.884-.702-2.6-.454-2.16.094-1.55.606-.297.916.107.241-.487 1.049.085.597-.23.248-.304-.049-.56.692-.455.252-1.234-2.521-.587-.435-.652-.935-.184-.595-1.138-1.428-.046-.091-.494-.982-.397-.97-.376-2.25-1.408-1.086-1.298-.134-.526-.68-1.034-.65-1.888-.743-.725-.906-.551-.1-1.17.317-.883-.088-1.964-.973-1.265-.847-1.652-1.592-3.104-1.886-2.61-.575-1.15.236-.617.2-.293-.158-.716-.814-1.141-1.927-.399-.331-2.251-.392-.412-.411-.622-1.223-3.605-3.995-.496-.274-.59.323.071 1.347-.777.154-.691.424-.287-.391-1.882-1.214-2.063-1.73-.823.003-1.276-.565-.292-.173-.51-.221-.567-.931-.946-.894-.866-1.182.316-.546-.133-.674.235-.308-.194-.468.606-.453-.36-.06-.005-.188-2.052.047-1.599-.7-.038.312-1.08-.313-.472-.807-.542-3.028-1.356-.717-.583-.263-.176.109-.225-.263-.8.008-1.174.498-.114.29-2.168-.082-.754.48-.857-1.22-.916.055-1.46.802-.003 3.699.468 1.036 1.219 1.48 1.445.049.709.32.005.232 1.003.582.83.901 1.974 4.49.14 1.211-.3 1.218-.462.506-1.811.945-1.11-2.66-.648-2.873-2.748-3.804-3.15-3.895-2.542 1.601-.234 1.38.489 3.02-.154 2.797.342 1.612-1.8 1.36-2.117-.145-.63.354.9.993 2.24 1.73 1.064 1.769.714.779 1.093.553.152.434-1.244 1.025-.233.613-1.736 1.232-.382.772-2.13 2.694-.737 1.63.017.578-.877 1.276-1.413 1.179-.274-.436-1.619-.874-.348-.404.18-.23-.892-.993.009-.585-.366-.04-.2-.818-.568-.18-.29-.766-.974-.9-.116-.635-.438-.501-1.112-.586-.372.778.015.712-1.196.88-.438.717-.116.493.227.808-.532.19.223 1.405-.136 1.236-.81.838.32.499-1.091.64-.995.251-.296-.115-.035.213-.653.085-1.09.517-3.257-1.606-1.192-1.176.017-.397-.454-.257-.842-1.232.023-.73-.274-.755.292-1.098-.23.21-.423-.006-.202.297-.22 1.752.319.951-.297.437-.736.458-.124 1.014-1.416.927.287 1.684-2.616 1.327-.75 1.124-1.28-.143-.357-.237-.218-.556-1.976-1.398-.808.142-.567-.198-.37-.37-.205-2.697.515-.616 1.18-2.761 1.23-1.992-.862 1.156-.527.188-1.566 1.35-1.21-.091-1.624-.489-.741.156-.42.327-.54-.848-1.738-1.497-2.594-1.73-1.062.193-.424-.164-.438-.52-.407.414-.875 1.275-.061.641.47 1.12-.846.542-.036.545-3.608.816.163.183-1.264.18-.734.377-.314-.605-1.605.145-1.821-1.634-.55.179-1.23 1.01-2.307.638-.56.422-1.28 2.363-.452.31 1.509 2.296.369 1.3-1.091 2.194-.74.93-1.1-.16-.615.98-.532.128-.678-.616-1.174.355-1.014-.034-.48-.703-1.054.484-.49-.394.034-.297-.33-.3-.276.38-.94-.204-.14-.161.246-.51-.39-.197-.07-.262.234-.55-.5-.269.056-.846.175-.345.577-.234-.358-.921-.512.083-1.81 2.058-1.992.988-.822-.05-.498 1.164.54 1.008-1.244.95.389.387.197.815-.38.364-.78.735-1.842.137-1.859 1.083-1.919.474.491.626.104.13.635-.13.542.506 1.227 2.585.065 1.602-2.55 2.568-.16 1.275-3.36-2.123-.284.482-.743.83-4.438 2.124-1.873.103-.792-.45-.622.777-2.897-1.04-1.824-1.245-1.983-2.256-.31-.057-.41-1.235-.561-.472-.87-.319-.46-.733-1.313-.874-2.382-2.278-1.022-1.265-.542-.39-.817-1.009-.982-.36-.153-1.019-1.12-.962.007-.528.241-.087-.078-.337-.458-.497-.938-1.096-2.033-1.291-.555-.581-.673-1.265-1.19-.529-.255-.312-.521.16-.41-.107-1.017-.593-2.127-.463-1.409-.746-1.022-2.196-1.193-1.325-1.08-.293-.497.185-1.653-.026-1.121-.596-.698-1.212v-.71l-.891-1.248-.062-.745-1.11-.78-.323.16-2.15.868-.518.543-2.144.652-3.114.188-.957.336-.424.804-2.665-2.255-.265-1.089-2.791-.587-4.103-1.27-.287-4.768-.612-2.99-.395-3.393-.5-2.538-1.056-.677.077-1.068.4-.736.176-1.398-.323-1.058.15-.518.49-.841.66-.412.138-.803-.607-1.449-.067-1.036.736-.215.646.14 1.885-1.725.612-.18.587-1.39.429-.33-.359-.308-.127-.788.13-.051-.112-.553.234-.257.23-1.736-.073-2.25.52-1.28.427-.511.063-.038.35-.206.224-.852 5.365 1.506.066.035.006-.015.218.061 1.193 1.031.088 3.114-.915 1.006.127 1.13.423-.041.426.409.224-.069.287.371.432.05.894.034-.021-.197.733-.119.802-1.1.862-.23.02-.237.17.222.458-.05.574-.89 1.171.186.839-.34.92-.72.098.154.076-.129 1.468.148.06-.589-.189-.15-.084-.593.354-.401-.6.005-1.184-.61.514-.745-.007-.85-.373-1.348.094-1.46-.185-.887-1.735-2.633-1.157-.69.465-1.424-.224-1.022.395-1.659-.332-1.472.644-.849-.11-.186.593-1.65-.322-.36.18-.292-.504-.996-.33.077-.534-.64.125-.371-1.353-1.716-.14-.641.318-1.197-.14-1.354.916-.962.883.574.697-.376 1.172.11 3.629.903.491-1.145.433-.295.062-1.042.59-.672.788-.727.254-.84 1.983-1.197.502.425 1.558-3.263 2.536.123.565-.27 1.666.281.716-.513-.297-2.827-.311-.247 1.08-1.35.705-.387.103.175.732-.236-.139-.46.333-1.973 1-1.08-.933-.508-.356-.786-1.056.21-1.172-.561.68-2.017-1.92-2.06-.398-1.046-.036-.655-1.48-1.213-1.334-.192-.053-.146.955-2.28 1.027-1.21.867-.585.72-1.52-.235-2.362.045-.504.29-.38-.248-1.158-.026-.09-.245-.422-.99.292-.817-1.658.002-.303.123-1.599-1.922-2.84-.135-3.184.377-.593-.172-1.27.193-1.83-.186-1.004-.899-1.551 2.197-1.349-.756-1.487.446-.614-.016-.762.708.53.693 1.262.873-.076 1.554-.334 1.206.752.664.402.725-.159 1.174-.647.745-.039 2.82 3.805.567.614.684.302 1.3.659 1.12-.037.38.456.782-.251.729.315.486-.347-.07-.178.544-.764.096-.511 1.199.56.093.339.567-.054-.147-.26.566-.43 1.055.87 2.819 1.048.816.917 1.326 2.465 1.671.849 2.267.987 3.642.547 1.081-.688.704-.138.453-1.167 2.892-.047 2.144 1.232 1.306-.096.462.266 1.507.198.367-.07.257-.466.521-.28.356-.717.01-.51.515-.83-.132-.176.689-.527 1.526-.618.223-.977-.62-.918.629-.353.587-.337.948-3.048 1.152-2.106 1.357-1.827.162-.78 1.177-1.38 2.428-2.074-.345-.485.502-.741-.506-.987.004-.423-.478-.422.224-1.01-1.927-.113-1.79.28-.614-.272-.742-1.811-.578-.89-.185-1.994-3.338-2.669-.115-.34.187-.993.558-1.904-.143-.755-.434-.188.448-1.31-.015-.994.253-.91-.357-1.532-1.888-1.604-.422-1.323.112-1.417 1.712-3.257.013-1.511.498-1.018-.056-.788.43-.37.154-.887-.844-1.443-.112-.327.14-.184 1.462-1.538.884-1.661 1.694-2.466.683-.832.946-.415.593-.42.871-1.362-.365-.53.292-.292-.419-.52-.25-.961-.585-.142-.91.41-.669-.601-.283-.548.267-.429.744-1.568.198-1.142.54-.987.06-.877.09-1.311 2.732-3.503 2.636-1.129.88-.98-.045-.448.942-2.035-.303-1.11.056-.745-.74-.438-.467.055-.08-1.39-.621-.333.445-.545.11-1.094 2.427-4.712.811.218.088.298 1.32.636.308-.02.855.73.63.154.815-.959 1.08-.066.122-.175.412.173.189-.395-.32-.824-.026-1.68.247-1.06.42-.088 1.077-1.1 1.9-1.452.785.173.365-.486-1.177-.772-.6-.12-.497-.26.132-1.006.254.045.261-.224.306-.088.987.457.387.455.348-3.042-.037-1.268.233-.83.892-.091 2.431.443 1.786-.147 1.645-.038 1.872.665 1.126-.035.548-.082 1.526-.82.035-.467.151.008-.275-.85-.017-.89.74-1.58-.45-.833-.245-1.388 1.053-.448-.107-.23.218-.49 1.16-.305 1.593.32 1.397-.372.44.06.485-.34 1.032.133 1.094-1.103.308-.124.732.153.252-.364.218-1.083.598-.462.3-.645-.039-.608.41-.256.173.083.572-.465.185-.71 2.276.178.013.687.425.29-1.037 1.255.26 1.998-.68.346-.487.685-.72.551 2.178-.153 1.238 1 .988.097-.178.376.195.43-.286.345.038.341-.2.09-.36 2.067-.534.117-.023.614-.494.075-.446.681-2.65.09.444 1.284 1.336 2.082.609 2.632-.093.406-.323.047-.225.772-.401.246 1.022.205-.397 1.901-1.675-.117-.975 2.122.364.308.286-.168.656.055-.17.995.363.124.119 1.092 1.074-.546.927-.105.436 1.266-.15 1.51-2.063.364-1.272 2.316-.092 1.034-.379.397-.021.609.702.427 1.394-.144.176-.586 1.29-.556.639.309.165.683-.258.613.084.934.29.469-.7 1.563.718.374 1.093.923.244.43-.049.69-.434.635-1.496-.462.014.442-.79.548-.27.483 1.048.825-.972 1.018 1 1.161 1.225.972 2.11.913 2.268.981-.087.59.235.169.01.433.471.407.833.214.563-.489.753.398-.657 1.441-1.19.356-.914-.606-.236.288.087.876-.21.407.028.213.321.114-.078.876-.43.295-.319.712-.62 2.698-1.028.928-.072.568-.25.076-.37.817-.703.434-.393 1.275-.446.232.245.32-.38.473.04.312-.4.478-.037.538.355.877-.3.031-.158.628-1.04.838.023.245-.594.93-.944 1.109.003.542.837.525.862.119.605.457-.242.4.472.616.452-.051.287-.555-.426-.515.01-.431.355-.59-.263-.079-.16-.94.24-.161.564-1.539.445-.278.227-.6.854.074 1.098.875 1.48-1.113 1.205 1.263.425-.047 1.574 1.325.868-1.14 1.392-3.11-.094-.184.487-1.398.71-1.634.89-3.739.034-2.31-.123-.315-.42-.165-.233-.837-.17-.716.279-.256.026-.688-.28-.353.288-.717 2.303 1.552.999.274.186.412.825.724-.043.458-.672.414-.173.337.13.275.646.352.248.454-.364.88.13.353-.707.499-.043.3.471.484-.198.603.413 1.911.94 2.674-.15.91-1.35 1.652-.532.236-.36 1.928-.771-.003.123 1.797-.315 2.209-.072.47.041 2.338.273 1.353.873.572-.375.988.159.627-.113.8-.634.731.738.398.108.286-.824.254.211.676.193.595.736.377.124.454-.83.465-.328.998.602 1.572-.084.366-.52-.076-.232.331.76.64.007.463-.486.877.246.607.07.173.056.273-.544.278-.301.511.209 1.054.429.292.164.226-.155.25-1.168-.032-.261.248.974 1.071-.551.902.334.684-.734.799-.379.031-.298.356.036.442-1.237.56-.703-.397-1.047-2.598.007-3.126-2.43 1.924-1.745 3.319-1.087.744-.18.386.091.48.43.177.336.51-.19 2.198-.357.53-1.383.992-.135.286-1.195.612-.483.708 1.28.566.577-.057.396.243.674.988.334.064 1.018.906 1.125.401 1.363.881.625.115.082.328 1.729 1.242 1.887.721 4.279.565.859-.956.45-.084.338.198 2.532.394.844-.293 2.794.01.413.153.589 1.402.095.505 1.966 3.355.227.966 1.475.944 1.788.532.374.41-.368 1.354-.482.876 1.114.085.08.147.658.713 1.561.066.912.48.673.102.128.488.851.787.313.58.372-.013.745.648.31-.02.46.715.185.806.633.796.09 1.138-.23.462.193 1.74.526.583-.131 1.41.374.944-.33.985.526.698-.083.618.211.309.075 1.114.447.454-.48 1.253.138.847-.757.632-.868 1.407.027.286 1.298.064.707-.302 1.106-.08.36.273.386.746.407-.076.367.29.824.144.26.912.489.008-.103.238.515.094.765.534.354.714.52-.406 1.182.157.742.264.125.246 1.013.062.762.712.445.086 1.455 1.113.72-.28.353.203.086.57.77.566-.139.285.275 1.971-.1.54.536 2.024-.16 1.012.7.759.245-.142.713.337 1.053.11.94.814 1.514.022.58.44-.148.168.33.48-.072.349.38.805 1.435 1.348.227-.028.295.42.443.045.547.616.981.216 1.925 2.119.667.165 1.22-1.928 2.293-2.189 2.223.512 2.9 1.19-.314.645-.82.583 1.026 1.765-.005 1.406-.208.585.019.8.357 1.105-.079.687 2.273 1.789 1.68 3.081 1.418 2.031 2.132 7.488.023 2.053 1.05 3.158.148 2.31.281.58 1.963.908.174.824 1.668.336 2.645 1.418-1.036-1.64-.084-.534-1.099-1.985.136-.788.402-.39-.003-.663-.165-.137.164-.072.022-.59 2.177 1.241.306.665.655 1.421-.066.64.422 1.082.747-.046 2.065.79.653-.09 3.554.396.214-.406.103.459.688.27.67.077.813-.242.531.124 1.207-1.655-.028-.811.376-1.476 1.007-1.332 2.745-1.227.745-1.253.596.095.3.354.235.917.568.33.856-.224 1.05-.993 2.063-.033.191-.885.413-.626.557-.412.653-1.202.89-.358 6.625 1.367.768.265 1.943 1.206-1.556 1.85 1.275 1.203 2.878 2.171 1.431 2.786-.728 1.195-.782-.027-1.11 1.69.276.63 1.485.604.296.31.19.994-.467 1.037.406 1.042 1.674 2.439-.426.725-.498 1.66.113 1.087-.43.614.043.613.482 1.034.264.143-1.736-.31-.044 1.524-.437.31-.9-.193-1.046-.587-.301.103-.734 1.052-.448-.03-.475-.318-.371.573-.115 1.408-.305.539-.226 1.435-.299.332-.155.99-.24.204-.1 1.858-.464.742.292.35-1.177 1.112-1.972 1.046-2.08-.186.31.465-.121.25.139.178-.584.744.127.61-.402.525-1.135-.04-2.391-.951-.108.118.671.283.048.274-1.653.564-.28.219-.031.308.836 1.058-.378.904.11.115-.57.957.03 2.49.705.262.794-.202.463.185-.036.513-.306.207.149.342.221.528-2.436.48-3.082-.385-2.222 1.068Z"/></defs><text transform="translate(443.649 162.52)" font-family="&quot;Tahoma&quot;" font-size="13">Huesca</text><text transform="translate(355.17 379.27)" font-family="&quot;Tahoma&quot;" font-size="13">Teruel</text><text transform="translate(321.742 249.536)" font-family="&quot;Tahoma&quot;" font-size="13">Zaragoza</text></svg>