<svg xmlns="http://www.w3.org/2000/svg" width="800" height="533" baseProfile="full" style="background-color:false" xmlns:v="https://vecta.io/nano"><use href="#B" paint-order="fill" filter="url(#A)"/><use href="#B" fill="#eee" stroke="#000" stroke-miterlimit="10" stroke-width=".4" paint-order="fill"/><defs><filter id="A" width="1000%" height="1000%" x="-100%" y="-100%"><feOffset dx="-9.8" dy="9.8" in="SourceGraphic"/><feColorMatrix values="0.2 0 0 0 0 0 0.2 0 0 0 0 0 0.2 0 0 0 0 0 1 0"/><feGaussianBlur stdDeviation="8"/><feBlend in="SourceGraphic"/></filter><path id="B" d="M355.557 164.579v.089h.266v.089h.067v.354h-.067v.09h-.066v.088h-.133v.089h-.267v.089h-.133v-.089h-.132v-.089h-.067v-.089h-.067v-.178h.067v-.176h.067v-.09h.132v-.088h.133v-.09h.2zm-228.981 9.227v.09h.132v.088h.067v.09h.333v-.09h.133v.09h.066v.265h-.066v.178h-.066v.089h-.134v.089h-.066v.087h-.067v.09h-.066v.266h-.067v.088l-.067.001v.088h-.266v-.088l-.333-.001v-.088h-.066v-.356h.066v-.176h.2v.089h.067v-.09h.066v-.088h.067v-.178h-.067v-.266h-.066v-.089h-.067v-.178h.267zm9.449-4.17v.09h-.133v.089h-.2v-.09h-.133v-.088h-.067v-.355h.067v-.089h.067v-.089h.066v-.089h.067v-.089h.066v-.176h.333v.532h-.067v.355h-.066zm577.061 73.945l3.942 1.874.156.74-1.121 2.607 1.9 5.65.126 5.074-.752 4.284-.432.785-2.193.91-.8 1.637-2.818.482-1.201-1.04.458-4.046-1.047-1.115-3.418-1.196-.892.776-1.684-.056-.373-.637-2.183-.527-1.785-1.696-1.956-.642-.25 1.7-2.616 1.495-.48.843-.812-.145-.68 2.143-1.065 1.237-1.16.425-.106 1.495.382.96.719.356-4.4-.373-.837.942-1.3.422-2.445-.21-1.998-.911-1.267.14-.759.731-.887-.365-.842.807-.812-.603-1.942.175-.276-.504-1.336 1.884-2.806.876-.568.61-1.256-.325.577 2.99 1.868 2.79-.22 3.114-1.982 1.729-.488 1.01.871 1.337-1.855 2.473-.201 3.022.812 1.57-.07 1.331-1.104 1.297-1.768.724-1.805-.154-5.888-2.385-2.802 2.095-3.794 1.09-1.361.247-1.53-.87-.364 1.623-2.845.115-1.448-.73-.972.035.436-2.869-3.25-2.09-.978-2.49-1.159-.486.366-.909-.57-1.215.715-1.048-.144-.912-1.712-2.005-1.512-1.59-2.035-.746-2.747-2.07-3.327.168-1.22.342-1.655 2.992-3.078.818-2.384.002-2.328 1.78-.007 1.568-2.851.646-1.71 2.571.184.674-2.095.573-4.21 4.822-.06 3.928-1.107-1.027-3.847-1.799-.809-1.011-2.366.475-2.42-.339-2.977.608-.26 1.037-1.308-.429-.947.442-2.885-.651-.552 2.023.445.81-.514 3.895-1.063.702-1.096 1.639.426 1.574-2.202 1.662 1.063 2.856-.149 1.45-1.973 4.37.873 2.601-1.456 1.87-.847-.097-3.656.478-4.826-.723-1.707-3.898-1.355 1.323-.98.32-.596-.35-.735.574-1.152 2.183-1.793.773-3.163.08-.633 1.406-1.85.836-.532.804-1.352-.687-.685 1.763-2.515 1.026-1.387-.59-.678.407-1.672-.554-1.085-.83-6.752.32-2.316 1.36-.946 1.876-3.567-.567-3.47-1.584-1.364.46-.79 1.091-3.882-.845-1.139-.585.597-2.493-1.404-.831-5.825-.123-2.07 1.995-1.277.348-1.76 12.107-1.084.553-1.304-.065-1.311-.665-1.175.252-1.467-.956-4.073-.196-3.415-.863-4.457 1.547-2.11-1.592-.702.205-.531.424-.072 3.66-1.556 3.387-.656.304-.833 2.944-2.935-2.329-.856.448-2.51-.05-2.04.504-.392 1.017-2.445 1.367-3.772-.698-.45-.643-2.9-.058-1.068-3.034-4.243-.63-.686.255-2.08-.856-1.264.642-.957-.432-3.44.39-2.209-.369-.48-1-1.057.193-1.653-2.186-2.162-.293-.223-.536-1.074-.2-1.767-1.594-.432.296-3.515-1.552-1.205.127-1.804 1.488-3.765 1.773-1.083 1.073-1.739.126-.302 1.63-1.089 1.035-.374 3.496-1.04.812-.909-.012-1.05 1.122-.658 3.72-1.871 2.032-.148 2.066-1.695 2.123 1.234 3.919-.368.851-.64.616-3.463.702-2.545-.286-.997.657-1.265.122-.938.916-.745-.76-4.127-1.015-1.093.5-2.533.119-.874.625-1.724-.999-3.195-3.681-.06-.784-3.046.687-.913-.497-2.087.564-.687-1.922.098-1.393 1.055-1.496-4.65 1.288-1.917-.844.375-1.141-1.582-2.082-1.32-.355-.054-.675-1.398.034-.588-1.585-2.329-.665-3.195-1.804-1.044-3.353-2.19-3.897.586-1.167-.704-1.829.864-2.454-.666.604-.352-.232-.661-2.476-1.537.228-2.074-1.147-1.733 2.58-1.84.377-3.853 1.177-1.91-.87-2.266-1.792-2.932-.771-.564-.762-2.423 1.048-1.18-.316-3.497-3.193-.722 2.088-1.668.723.373 2.25-1.126 3.51 1.094 1.567.147 1.86-1.337 1.355-.36 1.044-1.077-.41-1.134.816-1.532-.022-1.88 1.656-3.904 1.043-2.812-3.9-2.614-.75-.783.81-1.155-3.014-.886-.183-1.747-1.525-1.842-.56-1.975 2.16-4.686-1.237-3.093 12.057-2.79-1.748-1.022.28-4.078-.638-1.23-.529-.995-1.377-.196-1.153-.896-.355-2.78-3.25-1.236.622-1.153 2.4-3.868-.63-.566-.772-3.07-.01-.786-3.565-.81-1.277-1.213.189-.599-1.05-1.783-.164-.654-1.088-1.684-1.136-.28-.932-1.04.725.337.997-.607 1.262-2.268 1.271.115 1.644-3.977.184-1.653.705.48 1.805.8.45.21 1.74-.844 2.94-1.92.123-1.345-.726-.749.5-.246 2.64.396 2.259.695.673-4.176 3.796-.617-.007-2.279-1.726-2.237 3.47-3.016-.458-1.642-.882-1.19-1.698-1.549-.07-.377.686.151 3.072 1.39.898-.533 2.14.4.916 1.07.52 1.478-.496 2.54.55 2.252-.295 2.093.869-1.91 5.382 2.038 2.412-2.22.138-2.115 1.227-6.232.482-2.135 1.588-.873 2.797-1.608-.401-3.377-2.31-2.183.916-.738.732-2.807.446-.916.8-.7 2.289-6.667-.725-.504-.735-1.971-.456-1.472.021-1.138.56-1.814-.605-2.07.79-1.538-2.698-3.75 1.617-.871-1.183-1.573-.724-1.91.515-2.44-.232-.887.57-1.568-.555-5.703.713-1.191 1.061-4.03 1.253-2.364-.777-2.846 3.135-1.45 2.618-2.068 1.701-1.783 3.541-.912-.31-3.17.383.084-1.228 1.297-1.15-.043-1.49-.61-1.176-4.576-1.889-2.7-1.8-2.544-.364-3.002-1.196-2.78-.412-1.456-3.785 1.735-4.082-.35-5.362-6.202-6.88-.676-1.447-.74.028-.93-1.656-2.116-.775-3.153 1.11-3.965-.72-2.81-3.59-2.116-1.03-.366-1.279-.74-.543-1.23-.346-1.418-6.728-2.527-1.382.262.682-.45.36-.012 1.407-1.56.814.903 1.166-.022.521-.767.539 1.052 1.636-.597.792.503 1.53-.52.482.54.415-.51 1.131 1.424 1.504-1.83.14-.037.932.472-.323-.08 1.021-2.377-1.105-.1-.712-.604.002-1.087-2.716-.994.238-.487-3.25-2.72-1.68.528-2.19-.469-.44 1.368-1.01.954.522 1.273-3.876.959 1.092.497 1.933.806.492.833-.758-.037-.76 1.08.142-.346-.973.656-2.098-.336-1.968.635-.623-1.428-1.07.46-1.79 1.18.076 1.239-.786-.315-1.466 1.655-.007-.329-2.557 1.793-.408.973-1.007.513-1.939.942 1.61 2.595-.064 1.863 2.693 1.08-1.465 2.41-1.846.465-1.364 1.22-1.194.884.411 4.54-.223 1.463-3.161 2.08-1.651.228-.72.954-.174 2.567-1.953 3.187-2.555.181-2.601.701-1.825-.179-1.052.746-.929-1.146-.84-.827-1.92-1.68-1.821-.505-2.733-1.95-.287-2.123-1.666-1.415-3.193-1.331.095-1.038.67.83-3.246-.53.703-1.005.301-.457 3.533-.91 1.795-1.416 1.091.988 2-.78 1.188-1.781.59-2.23-.046-.888 1.702-2.024.902-1.232 1.9-1.784.141-.648-.737-1.849 1.115-.316 2.056-.702.354-3.785-1.166.053-1.354-1.043-1.904-.861-.97-2.007-.263-1.73-5.53 1.591-3.859 2.14-2.605-.177-2.432-1.237-3.048-3.676.667-1.529-2.08-2.084.445-1.949-4.985-1.106-.065-.729.471.074 2.153-.747.522-3.364-4.76-1.713-.156-1.275-.848-.98-2.093-2.619-1.984-.885-1.726-1.49-6.953.241-1.474.33.134-.14-1.3.786-.05-.433-1.154.851-1.751-.125-3.328 1.298-1.974-1.88-.5-1.51.386-1.118 1.674-1.92.049-2.605-.373-.906-.85-1.426-3.203-1.045-.697-.871-3.141-2.498-1.775-1.22.472.105-3.62-.594-1.964 1.081-2.514-.77-2.516.949-2.913-1.637-1.54-.65-1.706-.464-.187-2.74 1.176-1.392 1.62-.789-.04-.809-1.771-1.027.28-1.261-1.293-1.014.285.326-1.178-.786-.57.252-1.316-1.108.034.469-1.34 1.82-1.78-.46-1.148 1.065.74.38-.165-.12-1.683-.561-.047-1.298-1.8 1.681-2.4-1.189-.796.423-1.841 2.632-.508 2.352 1.028 2.432-.64 2.908 1.772.101.476 2.805-.81 1.21.316.978-1.181 1.375.628.558-.797-1.027-.976.49-.33 1.36.227-.522-2.25.329-.584 2.065-1.132.742.641.189-.38-1.052-1.069-.123-1.95 2.407-2.47.533-1.054 1.538-.274.547-1.362 1.788-1.26 1.418.514.76-.697v.265h.267v-.089h.133v-.087h.067v-.09h.066v-.088h.067v-.09h.133v-.088h.067v-.088h.132v-.089h.267v-.089h.066v-.089h.067v-.089h.067v-.089h.066v-.087h.066v-.267h-.066v-.533h-.066v-.62h.066v-.532h-.066v-.09h-.067v-.177h-.067v-.266h.067v-.267h.067v-.265h.066v-.267h-.066v-.177h.066v-.178h.066v-.089h.067v-.176h.066v-.178h.2v-.09h.134v-.088h.065v-.088h.067v-.089h.067v-.178h.067v-.178h.066v-.087h.067v-.09h-.067v-.088h.133v-.09h.133v-.088h.133v-.088H114v-.089h.066v-.178h.333v-.089h.066v-.088h.333v-.088h.133v-.09h.2v-.088h.066v-.178h.067v-.088h.133v-.089h.066v-.089h.067v-.354h-.067v-.09h-.2v.09h-.066v.176h-.066v.09h-.067v.088h-.599v-.089h-.133v-.089h-.067v-.089h-.066v-.087h-.133v-.09H114v-.088h-.067v-.09h-.133v.09h-.067v-.09h-.066v-.088h-.067v-.088h-.066v-.089h-.067v-.089h-.066v-.354h-.067v-.444h.067v-1.508h.066v-.09h.067v-.088h.066v-.355h.067v-.089h.066v-.621h.133v-.09h.067v-.087h.133v-.089h.066v-.089h.067v-.443h-.067v-.622h.067v-.177h.133v-.088h.067v-.09h.066v-.088h.067v-.09h.066v-.088h.067v-.088h.066v-.356h.067v-.088h.066v-.088h.067v-.09h.067v-.266h.066v-.088h.067v-.267h.066v-.089h.067v-.265h.066v-.267h.067v-.088h.066v-.089h.067v-.089h.067v-.089h.066v-.089h.067v-.088h.066v-.355h.067v-.177h.066v-.178h.133v-.089h.067v-.177h.067v-.088h.066v.088h.2v.088h.066v.09h.067v.088h.066v.09h.067v.088h.066v.177h.067v.089h.066v.089h.067v.089h.067v.088h.066v.088h.067v.09h.399v.088h.399v-.089h.532v-.089h.133v.178h.067v.09h.332v-.09h.267v-.089h.067v-.177h.066v-.088h.466v.088h-.067v.088h.067v.178h.067v.09h.066v.088h.333v-.089h.2v-.089h.066v-.089h.133v-.089h.133v-.088h.067v-.177h.133v-.09h.066v-.088h.067v-.09h.066v-.087h.067v-.178h.066v-.089h.134v-.089h.066v-.088h.067v-.088h.066v-.267h.067v-.444h-.067v-.089h-.599v.09h-.266v.088h-.466v-.089h-.133v-.089h-.066v-.088h-.067v-.088h-.2v-.09h-.132v-.088h-.267v-.09h-.466v-.088h-.399v-.088h-.266v-.089h-.066v-.089h-.134v-.089h-.133v-.089h-.066v-.088h-.067v-.088h.067v-.356h-.067v-.088h-.066v-.089h-.067v-.089h-.066v-.089h-.067v-.089h-.133v-.088h-.067v-.088h-.066v-.09h-.2v-.088h-.066v-.09h-.067v-.088h-.133v-.088h-.133v-.089h-.067v-.089h-.133v-.089h-.133v-.089h-.066v-.088h-.067v-.177h-.067v-.178h-.066v-.444h.066v-.089h.134v-.088h.133v-.088h.133v-.09h.066v-.088h.067v-.09h.066v-.088h.267v-.088h.066v-.089h.067v-.267h.2v-.088h.133v.088h.266v-.088h.133v-.088h.198v-.09h.067v-.177h.067v-.976h-.067v-.177h-.067v-.089h-.066v-.089h-.067v-.089h-.133v-.089h-.066v-.088h-.067v-.088h-.2v.089h-.066v.087h-.133v-.176h-.067v-.178h-.066v-.178h-.067v-.088h-.066v-.089h-.133v-.089h-.067v-.089h-.333v-.089h-.066v-.088h-.067v-.088h.067v-.178h.332v-.09h.466v.09h.267v.178h.066v.089h.333v-.09h.066l-.006-.355h-.06v-.266h-.067v-.089h-.066v-.265h.066v-.09h.133v-.088h.333v.178h.066v.176h.067v.09h.266v-.09h.399v.356h.068v.088l.066.001v.088h.066v.089h.067v.089h.066v.089h.2v.089h1.73v.087h.732v-.088h.066v-.088h.067v-.178h-.067v-.177l.2-.001v-.088h.2v.088l.115.001h.084v.177h.067v.089h.133v.089h.133v.089h.067v.087h.399v.09h.067v.082l.132.006v.09h.4v.088h.332v-.089h.267v.089h.133v-.089h.066v-.089h-.066v-.089h.599v-.089h.133v-.088h.2v-.088h.266v.089h.399v.087h.199v-.088h.067v-.088h.067v.089h.066v-.09h.134v-.088h.132v-.09h.067v-.088h.067v-.088l.066-.001v-.088h.067v-.089h.133v-.089h.067v-.178h.598v.178h.133v.077l.045.008.022.004v.089h.133v.088h.266v-.088h.532v.088h.267v-.088h.066v.088h.067v-.088h.067v-.356h.066v-.088h.066v-.088h.067v-.09h.066v-.177h.067v-.177h.067v-.089h.066v-.178h.2v-.089h.2v-.088h.199v.088h.066v.09h.2v-.09h.067v-.088h.066v-.088h.333v.176h.066v.09h.334v.088h.066v.178h.066v.088h.067v-.088h.133v-.089h.067v-.178h-.067v-.089h.067v-.176h.066v-.09h.066v-.088h.067v-.09h.133v-.087h.067v-.089h.066v.089h.6v.088h.332v-.088h.066v-.178h.067v-.089h.067v-.178h.066v-.088h.067v-.177h.066v-.09h-.066v-.176l-.067-.001v-.355h.133v-.089h.067v-.088h.066v-.088h.067v.089h.066v.087h.067v-.088h.067v.088h.399v.09h.066v.088h.134v.09h.132v.177h.067v.088h-.067v.089h-.066v.089h.066v.089h.2v.176h.133v-.088h.067v-.266h.067v-.09h-.067v-.265h-.067v-.355h-.066v-.088h-.133v-.09h-.067v-.088h-.067v-.09h-.066v-.265h.066v.089h.2v-.089h.133v-.089h.067v-.266h-.067v-.088h-.066v-.09h.266v-.088h.266v.089l.067-.015v-.074h.066v-.177h-.066v-.089h-.067v-.089h-.066v-.267h.066v-.087h.266v-.09h.333v.09h.133v.087h.466v.178h.066v.09h-.066v.088h.066v.089h.467v.088h.067v.089h.066v.089h.066v-.09h.134v.09h.133v.178h.067v.087h.332v-.087h.067v-.09h.133v.09h.133v.176h.067v.09h.2v-.09h.066v-.089h.133v-.087h.066v-.09h.067v.09h.2v.087h.066v.09h.067v.088h.066v-.089h.067v-.089h.133v-.087h.066v-.178h-.066v-.09h.066v-.088h.067v-.088h.066v-.089h.067v-.089h.067v-.089h.133v-.089h.066v-.089h.066v.09h.067v-.09h.067v-.176h.066v-.09h.067v-.088h.133v-.09h.2v.179h.133v.443h.067v.09h.066v.354h.067v.178h.066v.089h.466v-.09h.066v-.266h.067v-.088h.4v.088h.199v.089h.2v-.09h.133v-.087h.465v.088h.067v.089h.066v.089h.067v.089h-.067v.089h.067v.087h.133v.267h.066v.089h.067v.078l.133.011v.085l.2.003v-.088h.333v.088h.066v.089h.066v.178h.134v.089h.066v.087h.067v.09h.066v.088h.2v-.089h.066v-.089h.067v-.088h.332v.088h.2v-.088h.066v-.088h.133v-.09h.2v-.088h.066v-.09h-.066v-.087h.066v-.089h.133v-.089h.2v.089h.067v-.089h.132v-.089h.267v.089h.133v.089h.466v.089h.266v.088h.066v.089h.133v.089h.6v-.09h.066v-.088h.067v-.088h.066v-.178h.066v-.089h.067v-.089h.266v.178h.067v-.089h.066v.09h.067v.088h.133v.266h.066v.089h.067v.089h.067v.089h.399v.087h.2v.09h.133v.177h.067v.178h.066v.088h.133v.089h.066v.089h.134v.089h.132v.089h.2v.087h.267v.09h.066v.088h.066v.09h.2v.088h.067v.089h.266v-.089h.266v.089h.2v.088h.066v.178h.066v.089h.134v-.09h.066v-.088h.067v-.09h.066v-.176h.067v-.178h-.066v-.089h-.067v.09h-.067v-.09h-.066v-.089h-.067v-.088h-.066v-.088h-.133v-.09h.132v-.088h.067v-.09h.133v-.087h.267v.088h.066v.089h.066v.089h.067v.089h.067v-.09h.066v-.177h.067v-.088h.067v-.089h.065v-.089h.067v-.089h.133v-.089h.067v-.089h.067v-.176h.066v-.178h.067v-.09h.067v-.087h.199v-.089h.066v-.089h.067v-.178h.067v-.089h.066v.09h.067v.088h.066v.09h.067v.177h.066v.531h-.066v.09h-.066v.088h-.067v.178h.066v.089h.333v-.089h.266v-.089h.333v-.089h.133v-.089h.2v-.089h.532v-.088h.2v.088h.133v.09h.132v-.09h.067v-.531h.067v-.089h.067v-.089h.066v-.089h.332v.09h.067v.177h.067v.355h-.067v.089h-.133v.176h.054l.012.09h.134v.088h.066v.089h.067v.177h.067v.089h.066v.089h.133v-.09h.066v-.088h.134v.089h.066v.089h.067v.089h-.067v.089h-.066v.176h.066v.09h.067v.266h.066v.088l.266-.001v-.087h.133v-.089h.067v-.089h.399v-.089h.267v-.089h.132v-.089l.037-.008.03-.006v-.073h-.067v-.09h.267v.09h.133v.087h.066v.09h.4v.088h.2v.09h.2v-.09h.066v-.089h-.067v-.089h-.133v-.176h.066v-.178h.067v-.09h.2v-.087h.066v-.089h.2v-.089h.266v.089h1.264v.089h.267v.177h.066v.089h.067v.089h.266v.089h.066v.087h.333v-.088h.067v.088h.2v-.088h.066v.088h.332v.09h-.066v.088h.066v.09h.134v.088h.133v.089h.066v.088h.133v.089h.133v.089h.4v.178h.133v-.09h.066v.09h.067v.087h.066v.267h.067v.177h-.067v.267h.067v.265h.066v.09h.067v.088h.2v.09h.066v.088h-.066v.177h.066v.089h-.066v.089h-.067v.089h.067v.089h.465v.087h.466v.09h.133v.088h.067v.09h.067v.066l.121.022.011.088h.067v.089h.133v-.09l.267-.002v-.085h.066v-.356h.2v-.088h.066v-.088h.066v-.178h.134v-.09h.332v-.087l.267-.001v-.088h.066v-.178h.133v-.089l.042-.01.025-.006v-.073h.2v.09h.066v.266h-.066v.088h-.067v.178h.067v.089h.199v.089h.067v.089h.066v.087h.067v.09h.066v.088h.134v.09h.532v-.09h.066v-.178h.067v-.088h.266v-.088h.133v-.09h.067v-.177h.199v.089h.2v.089h.798v-.09h.067v.09h.066v.089h.067v.089h.133v.081l.067.006v.09h.2v-.09h.132v-.088h.2v-.088h.067v.089h.266v-.09h.133v-.088h.2v-.09h.2v-.088h.066v-.177h.066v-.178h.133v-.089h.067v-.177h.066v-.177h-.066v-.09h-.066v-.265h-.134v-.089h-.066v-.089h-.067v-.178h-.066v-.088h-.067v-.266h.067v-.09h-.067v-.087h.067v-.089h.066v-.089h.067v-.089h.066v-.178h.067v-.088h.067v-.088h.265v.089h.067v.087h.133v.09h.2v.088h.332v-.089h.067l-.009-.265h-.058v-.267h.067v-.088h.067v-.089h.066v-.089h.333v-.267h.067v-.088h.199v-.088h.266v.089h.067v.087h.067v.267h.266v.089h.066v.089h.067v-.089h.066v-.089h.067v-.089h.066v-.089h.066v-.089h.134v-.088h.465v-.088h.2v-.09h.067v-.265h.066v-.089h.2v.089h.066v.088h.067v.089h.067v.089h.066v.089h.134v.089h.066v.087h.133v.533h-.067v.532h.067v.09h.066v.177h.067v.177h.2v-.088h.133v.088h.2v.089h.066v.089h.2v.265h.066v.09h.2v-.09h.2v-.088h.066v-.088h.067v-.09h.066v-.088h.066v-.355h.134v-.089h.066v.09h.067v.088h.266v-.089h-.067v-.089h-.066v-.621h-.066v-.177h.199v-.089h.399v.089h.066v.266h.067v.354h.067v-.088h.2v-.177h.133v-.09h.199v-.088h.267v-.088h.199v-.089h.066v-.089h.333v.089h.067v.177h.067v.089h.066v.089h.066v.089h.067v.265h.067v.09h.133v-.09h.2v.09h.066v.088h.066v.089h.067v.177h.133v.178h.067v.089h.132v-.09h.267v-.088h.266v.089h.133v-.266h.067v-.089h.066v-.089h.067v-.089h.4v-.089h.465v.178h.066v.089h-.066v.089h.066v.355h.067v.265h.067v.178h.399v.089h.133v.088l.067.001v.088h.066v.089h.133v.089h.133v.178h.133v.087h.067v.09h.066v.177h.067v.089h.133v.088l.133.001v.709h-.067v.09h-.066v1.24h-.067v.09h-.066v.089h-.067v.089h-.066v-.09h-.267v.09h-.133v.089h-.066v.087h-.066v.09h.066v.088h.066v.266h.067v.356h.066v.089h.067v.265h.067v.178h.066v.088h.067v.178h.066v.178h-.066v.443h.066v.089h.067v.088h.066v.089h-.066v.267h-.067v.976h.067v.176h-.067v.178h.067v.09h-.067v.532h.067v.265h.066v.09h.067v.265h.066v.178h.067v.178h.066v.176h.067v.09h.133v-.178h.066v-.088h-.066l.01-.448-.076.004v-.356h.066v-.088l-.066-.015v-.251h-.067v-.09h-.066v-.176h-.067v-.356h.066v-.176h-.066v-.71h.066v-.533h.067v-.09h-.066v-.087h.066v-.089h.067v-.532h-.067v-.533h.067v-.354h-.067v-.533h-.066v-.178h.066v-.177h-.066v-.177h.066v-.09h-.066v-1.241h.066v-.178h.333v.09h.2v.088h.066v.088h.2v-.088h.066v-.178h.067v-.089h.066v-.443h.067v-.09h.133v-.087l.066-.001v-.088h-.066v-.089h.066v-.089h.133v-.089h.067v.09h.266v-.09h.067v-.089h.066v-.088h.067v-.088h.066v-.09h.067v-.088h.067v-.09h.066v-.087l.067-.001v-.088h.066v-.089h.067v-.089h.133v-.089h.2v.178h.199v-.089h.066v-.177h.067v-.177h.133v-.09h.2v-.088h.066v-.266h.467v.089h.132v.088h.133v.089h.866v-.09h.465v.09h.067v.178h.266v-.089h.067v-.09h.2v-.088h.199v-.088h.066v-.089h.267v.089h.067v.71h-.067v.088h.132v.089h.134v-.089h.266v.089h.067v.088h.133v-.088h.133v-.089h.066v-.089h.067v-.089h.066v-.089h.133v-.088h.133v-.088h.2v.089h.2v.087h.133v.178h.266v.09h.067v.176l.332.001v.088h.067v-.088h.066v.088h.134v.178h.066v.089h.066v.089h.133v-.09h.2v-.088h.266v.089h.334v-.09h.065v-.088h.334v.089h.066v.177h.067v.088h.266v-.088h.066v-.088h.133v-.09h.067v-.088h.067v-.355h.132v-.089h.067v-.089h.2v-.177h.2v-.088h.199v-.09h.067v-.088h.066v-.09h.067v-.087h.066v.088h.067v-.088h.4v-.089h.265v-.089h.067v-.178h.066v-.089h.267v-.088h.132v-.088h.134v-.09h.133v-.088h.665v-.09h.067v-.087h.266v-.089h.2v-.178h-.067v-.089h-.066v-.177h.066v-.088h.199v.089h.067v.176h.067v.09h.066v.088h.267v-.089h.266v-.089h.133v.09h.066v.088h.067v.089h.067v.089h.066v.088h.066v.089h.4v-.09h.133v-.087h.2v-.089h.133v-.089h.066v-.089h.066v-.089h.2v.09h.267v.088h.066v.082l.066.007v.089h.067v.088h.2v.089h.399v-.09h.066v-.087h.067v-.356h-.067v-.354h.799v-.09h.799v.09h.133v.089h.998v-.09h.066v-.088h.067v-.09h.067v-.087h.066v-.089h.066v-.089h.067v-.089h.4v-.089h.066v.178h.066v-.089h.067v-.089h.4v-.089h.132v-.087h-.066v-.178h-.067v-.09h.2v-.176h-.066v-.356h.066v-.089h.067v-.087h.133v-.09h.066v.09h.067v.176h-.066v.09h-.134v.177h.067v.177h.066v-.177h.133v.089h.067v.088h.2v.089h.132v.089h.2v.089h.067v.089h.066v.087h.067v.178h.133v.09h.066v.088h.067v.089h.066v.177h.067v.267h-.067v.176h.067v.267h.066v.177h.067v.089h.067v.089h.2v-.09h.132v-.088h.533v.089h.133v.178h.067v.176h-.067v.178h-.067v.09h-.066v.176l-.067.001v.088h-.066v.443h.066v.09h.333v-.09h.067v-.088h.266v.088h.066v.09h.067v.088h.133v-.178h.4v-.088h.066v-.088h.2v.089h.066v.087h.133v-.088h.067v-.177h.133v-.09h.066v-.088h.2v-.088h.066v-.089h.067v-.089h.066v-.178h.067v-.089h.067v-.088h.066v-.177h.066v.089h.133v-.09h.333v.179h.067v.087h.066v.09h.133v.088h.067v.267h.133v.71h-.066v.177h-.067v.355h-.067v.089h-.066v.176h-.067v.356h-.066v.444h-.067v.089h.067v.087h.066v.09h.067v-.09h.399v-.088h.133v-.088h.267v.443h.132v.089h.067v.088h-.066v.178h.066v.089h.133v.067l.133.008v-.075h.266v-.09h.067v.09h.332v.089h.333v-.09h.2v.09h.466v-.09h.4v-.088h.066v.089h.399v-.178h.133v-.09h.266v-.087h.599v-.089h.2v-.089h.066v-.089h.067v-.354h.067v-.09h.132v-.088h.2v-.088l.067-.001v-.088h.2v-.089h.332v.089h.2v.088h.067v-.088h.066v.088l.066.001v.088h.067v.089h.067v.089h.265v-.09h.267v.09h.2v-.09h.2v.09h.266v.089h.797v.088h.532v-.088h.4v.089h.132v.087h.067v.09h.066v.088h.067v-.089h.133v-.089h.266v.09h.134v.088h.066v.09h.133v.088h.067v.088h.133v.089h.133v.089h.266v.089h.066v.089h.067v.089h.067v.087h.066v.178h.267v-.178h.199v.09h.067v.088h.266v-.089h.133v-.089h.133v-.088h.2v-.266h.066v-.09h.2v.09h.466v-.178h.133v-.088h.2v-.089h.266v-.089h.333v.09h.066v.088h.133v.266h.066v.089h.067v.089h.133v.089h.067v.087h.066v.09h.067v.354h-.067v.178h-.066v.089h-.266v.07l-.067.019v.089h-.067v.087h-.066v.09h-.066v.088h-.067v.09h.067v.088h.265v-.089h.067v-.089h.133v-.089h.133v-.089h.067v-.088h.133v.088h.066v.09h.067v.266h-.067v.088h-.066v.089h.066v.089h.067v.089h.133v.354h.067v.09h.133v.088h.066v.089h.266v-.089h.067v-.355h.067v-.088h-.067v-.09h-.133v-.088h-.133v-.09h-.067v-.265h.133v.089h.067v.088h.399v-.088h.067v-.356h.133v-.088h.133v.088h.2v.09h.067v.088h.067v.09h.066v.176h.2v-.088h.2v-.089h.066v-.178h.466v-.089h.066v-.088h.2v-.088h.732v-.09h.2v.09h.133v.089h.133v.087h.066v.09h.267v.088h.066v.178h.067v.088h.066v.089h.066v.089h.467v-.09h.199v.09h.133v.07l.047.006.086.013v.089h.333v.089h.067v.087h.133v-.176h.066v-.09h.066v-.088h.067v-.09h.2v-.088h.066v-.088l.05-.006.017-.083h.067v-.089h.066v-.089h.2v-.089h.066v-.088l.106-.017.028-.004v-.156h.183l.016.089h.066v.089h.067v.087h.133v.178h.067v.09h.2v-.09h.066v-.089h.133v-.089h.067v-.088h.066v-.088h.067v-.09h.066v-.266h.266v.178h.067v.089h.066v.089l.2-.008v-.081l.237-.019.03-.002v-.068h.398v.089h.2v.089h.067v.089h.066v.087h.2v.09h.133v.088h.665v.09h.2v-.09h.067v-.266h.066v-.088h.133v-.09h.133v-.088h.466v.089h.267v-.09l.332-.01v-.078h.134v-.09h.132v-.265h.532v.09h.133v.088h.2v.088h.134v.089h.132v.089h.134v.089h.2v.089h.133v.089h.066v.087h.133v.09h.066v.088h.134v.09h.066v.088h.533v-.089h.266v-.178h.066v-.354h-.067v-.178h-.066V177h-.067v-.178h-.066v-.177h-.066v-.088h-.067v-.09h-.067v-.088h-.066v-.09h-.067v-.176h-.066v-.532h.066v-.533h-.066v-.267h-.067v-.176h-.067v-.178h-.066v-.09h-.066v-.176h-.067v-.178h-.066v-.798l.532-.02v-.069h.066v-.178h.067v-.175h-.067v-.622h-.066v-.178h.066v-.089h.067v-.088h.133v-.088h.066v-.09h.133v-.088h.067v-.177h.067v-.089l.077-.004.189-.01v-.075h.2v.089h.133v-.089h.133v.089h.133v.089h.133v.088h.067v.089h.066v.089h.133v.089h.466v-.09h.067v-.176h.066v-.088h.067v.088h.2v-.088h.132v.088h.067v.089h.2v.089h.133v.089h.066v.354h-.066v.076l.066.013v.178h.067v.266h-.067v.178h-.066v.087h.066v.09h.2v.177h.066v.089h.333v-.089h.2v.089h.2v.089h.398l.01.07.021.018h.036v.176h.066v.09h.067v.089h.133v.087h.266v.09h.4v.088h.066v.09h.067v.088h.2v.088h.133v-.088h.066v-.267h.067v.09h.133v-.179h.066v-.088h.333v.088h.066v.178h.067v.266l.067.001v.088h.066v.089h.067v.089h.066v.178h.599v-.09h.333v.09h.067v.087h.532v.178h.066v.09h.067v.088h.067v.088l.066.001v.088h.066v.089h.067v.089h.066v.089h.134v.089h.133v.087h.066v.356h.133v.088h.067v.089h.134v.089h.066v.178h.066v.089h.2v.176h.266v.09h.2v-.09h.132v-.089h.267v-.088h.466v-.088h.665v.089h.066l.001.087h.332v-.088h.067v-.088h.067v-.09h.199v-.088h.067v-.09h.066v-.088h.067v-.355h.066v-.089h.067v-.265h.067v-.355h.066v-.089h.066v-.089h.067v-.089h.399v.088l.133.001v.089h.067v.089h.133v.088l.4.001v.088h.665v.089h.133v.089h.067v.089h.199v.089h.133v.087h.133v-.088h.2v.088h.731v-.088h.067v-.088h.067v-.09h.133v-.088h.066v-.09h.067v-.265h.133v-.178h.2v-.089h.067v-.088h.066v-.088h.466v-.09h.266v.09h.133v.089h.067v.087h.066v.09h.266v.088h.4v.09h.798v.088h.133v.088l.2.001v.088h.133v.089h.066v.089h.067v.089h.067v.089h.132v-.089h.067v-.09h.066v.09h.2v.089h.067v.087h.067v.09h.199v-.09h.067v.09h.2v-.09h.066v-.088h.067v-.088l.107-.01.025-.003v-.076h.4v-.09h.133v.09h.066v.078l.03.005.037.006v.089h.133v.087h.133v.09h.067v.088l.532-.01v-.079h.133v-.089h.066v.09l.134-.002v-.088h.066v-.088h.134v-.088h.132v-.09h.2v-.088h.133v-.09h.134v-.087l.132-.001v-.088h.2v-.089h.133v-.089h.067v-.089h.133v-.089h.133v.09h.066v.177h-.066v.089h-.067v.088h-.066v.089h-.067v.089h-.066v.089h-.067v.089h-.066v.089h-.067v.087h-.133v.09h-.067v.088h-.066v.09h-.066v.088h-.067v.088h-.133v.089h-.067v.089h-.067v.089h-.133v.089h-.067v.176h-.065v.178h.065v.09h.134v.088h.266v.088h.2v-.088h.266v-.089h.067v-.089h.133v.09h.066v.088h.067v.088h.066v.089h.2v-.09h.067v-.176h.066v-.089h.266v-.089h.067v-.089h.133v-.088h.266v.088h.066v.178h.067v.09h.053l.014.088h.066v.088h.732v.089h.067v.088h.133v.09h.399v-.089h.399v-.09h.067v-.088h.066v-.088h.133v-.089h.134v-.089h.332v.09h.732v-.09h.266v-.089h.067v-.265h.066v-.09h.267v-.088h.132v-.09h.067v-.088h.2v-.088h.067v-.088l.043-.016.018-.007.005-.067.067-.008v-.08h.066v-.09h.267v-.176h.066v-.09h.133v-.088h.067v-.09h.133v-.176h.066v-.267h-.066v-.089h-.067v-.176h.067v-.09h.266v.09h.067v.089h.199v.176h.067v.09h.066v.084l.055.002.167.002h.044v-.089l.067-.008v-.08h.066v-.355h.2v.089h.067v.089h.133v-.09h.066v.09h.066v-.533h.466v.088l.067.001v.088h.266v.089h.134v-.09h.132v-.354h.067v-.089h.2v.09h.133v-.09h.066v-.089h.133v-.088h.533v.088h.266v.09h.066v.088h.333v-.089h.067v-.265h-.067v-.09h.067v-.088h.066v-.09h.134v-.087h.199v.088h.2v.089h.532v-.09h.067v-.087h.132v-.089h.067v-.089h.133v.089h.532v.089h.466v.088h.267v.089h.666v.083l.132.006v-.09h.466v-.088h.066v-.088h.067v-.267h.133v-.089h.399v.09h.2v-.09h.2v-.089h.399v-.088h.133v-.088h.066v-.178h.067v-.09h.133v-.087h.067v-.178h-.067v-.089h-.332v-.178h-.067v-.088h-.067v-.088h-.066v-.533h.066v-.089h.6v.09h.864v.088h.467v.089h.532v.088h.731v-.088h.067v-.089h.067v-.089h.133v-.089h.067v-.089h.066v-.089h.066v-.087h.067v.087l.066-.002v-.085h.067v-.178h-.067v-.09h-.066v-.176h-.067v-.089h.067v-.089h.4v.089h.332v-.089h.133v-.089h.134v-.089h.931v-.089h.067v-.087h.066v-.444h.133v-.356h.067v-.089h.2v.09h.598v-.09h.067v-.087h.066v-.09h.066v-.088h.134v-.09h.2v.09h.066v.089h.2v.069l.133.02v.087h.599v-.087h.133v.087h.266v-.087h.333v-.09h.066v.09h.067v-.09h.2v-.088h.2v.089h.132v.089h.2v-.09h.199v-.088h.133v-.09h.067v-.176h.066v-.178h.067v-.089l.6-.003v-.086h.066v-.089h.066v-.087h.133v-.09h.067v-.088h.066v-.09h.067v-.354h.133v-.089h.133v-.089h.066v.09h.133v-.09h.134v-.089h.266v-.087h.066v-.178h.067v-.355h-.067v-.178h-.066v-.178h-.067v-.176h.133v-.09h.067v-.088l.301-.016.032-.001v-.072h.066v-.088h.066v-.089h.134v-.089h.066v-.089h.067v-.089h-.067v-.176h-.066v-.178h-.2v-.266h-.066l-.013-.134-.005-.044h-.049v-.267h-.133v.09h-.067v-.09h-.066v-.088h.066v-.088h.067v-.533h-.067v-.178h-.066v-.089h-.067v-.088h.067v-.088h.133v-.09h.133v-.088h.2v.089h.066v.089h.133v.088h.2v.088h.066v.356h.067v.089h.066v.531h.067v.07l.133.02v-.09h.067v-.088h.066v-.088h.067v-.09h.066v-.088h.067v.089h.599v.089h.067v.088h-.067v.62h.067v.09h.133v.089h.266v-.09h.066v-.176h.2v-.089h.133v.089h.066v.177h.067v.089h.067v.26l.133.005v.178h.066v.09h.067v-.09h.133v-.089h.2v.09h.133v.088h.2v-.089h.065v-.089h.2v-.089h.067v.178h.067v.09h.066v.088h.066v.355h.067v.089h.266v.176h.134v.09h.066v.177h.066v.355h.067v.089h-.067v.089h-.132v.089h-.067v.087h-.067v.09h.067v.088h.067v-.089h.465v.09h.133v.088h.067v.089h.066v.089h.067v.62h-.067v.178h-.066v.266h.066v.089h.4v.089h.266v-.09h.133v-.088h.067v-.088h.066v-.089h.133v-.089h.067v.089h.4v-.089h.132v-.089h.066v-.089h.067v-.089h.067v-.087h.066v-.09h.067v-.088h.266v-.09h.066v-.265h-.066v-.443h.066v-.178h.067v-.09h.067v-.088h.066v-.088h.2v-.089h.133v-.178h.133v.09h.133v.088h.067v.177h.066v.621h.067v.267h.066v.177h.067v.621h.066v.178h.067v.355h-.133v.089h.066v.354h.067v.178h.067v.177h.066v.089h.066v.178h.067v.087h.066v.09h.067v.088h.067v.178h.066v.089h.067v.088h.133v.089h.266v.089h.466v-.09h.133v-.088h.133v-.266h.067v-.089h.066v-.089h.066v-.265h.067v-.09h.2v-.088h.333v-.09h.066v-1.33h.067v-.089h.133v-.089h.133v-.087h.066v-.09h.067v-.088h.066v-.09h.067v-.088h.133v.089h.134v-.09h.066v.09h.066v.089h-.066v.443h.266v-.178h.067v-.087h.2v.087h.132v.09h.067v.177h.066v.533h.067v.354h-.067v.178h-.066v.177h-.067v.178h-.067v.089h-.066v.089h-.133v.087h-.133v.178h-.067v.444h-.066v.267h-.067v.176h-.066v.178h-.067v.089h-.067v.177h-.066v.089h-.066v.089h.133v.089h.067v.265h-.067v.356h.067v.088h.066v.089h.066v.267h.067v.176h.066v.09h.067v.088h.067v.089h.332v.072l.033.004.1.013v.088h.2v.07l.037.002.296.017v.089l.216-.011.183-.009v-.07h.133v-.088h.067v-.088h.133v-.089h.067v-.089h.066v-.089h.066v-.089h.067v-.089h.066v-.176h.067v-.09h.067v-.088h.066v-.177h.2v-.089h.133v-.089h.066v-.089h.266v-.089h.067v.09h.2v.088h.066v.178h.067v.088h.066v.089h.333v.089h.067v-.355h.066v-.178h.067v-.178h.066v-.088h.266v-.088h.134v-.09h.133v-.088h.066v.089h.066v-.09h.267v.09h.067v.089h.266v.089h.066v.087h.067v.178h.066v.09h.333v.088h.133v-.089h.2v-.089h.2v-.089h.066v-.089h.066v-.088h.267v-.088h.066v.089h.066v.087h.067v.09h.133v.088h.067v.09h.066v.088h.067v.089h.067v.088h.066v.089h.05l.016.089h.134v-.09h.066v-.088h.133v-.088l.066-.005v-.084h.134v-.089h.2v-.089h.133v-.089h.066v-.089h.133v-.088h.133v.088h.067v-.088h.067v-.088h.133v-.09h.332v-.177h.067v.089h.133v.089h.133v.089h.066v.089h.134v.087h.066v.09h.266v.266h.067v.355h.066v.265h.067v.178h.332v-.089h.533v-.089h.4v.09h.066v-.09h.133v.09h.066v.085l.333.003v.089h.333v.089h.133v-.089h.133v.089h.133v.089h.067v.266h-.067v.089h.067v.089h.066v.265h.067v.266h-.067v.089h.067v.089h.066v.089h.133v.089h.2v.089h.067v.087h.2v.178h.199v-.178H332v-.088h.067v-.088h.133v.089h.066v.087h.6v-.088h.066v-.088h.066v-.09h.067v-.088h.067v-.09h.132v-.087l.067-.001v-.088h.066v-.089h.134v.089h.066v.088l.067.001v.266h-.067v.798h.067v.089h.2v.089h.066v.089h.066v.176h.067v.09h.2v.083l.083.001.25.004v-.089h.066v.09h.066v.088h.2v.089h.133v.088h.267v-.177h.066v-.089h.066v-.089h.067v-.089h.333v.09h.066v-.09h.133v.09h.267v-.178h.066v-.088h.067v-.09h.199v-.088h.2v.089h.067v.089h.133v.089h.066v.087h.066v-.088h.466v-.266h.067v-.089h.066v-.053l.013-.023.187-.013v-.088h.067v-.178h.067v-.178h.065v-.088h.067v-.088h.133v-.09h.067v.09h.466v.089h.333v.087h.066v-.088h.067v.266h.066v.083l.067.006v.089h.399v-.089h.333v.089h.399v.088h.399v-.088h.067v-.266h.066v-.09h.067v-.088h.066v-.177h.067v-.178h.067v-.177h.067v-.178h.065v-.178h.134v-.088h.466v.088h.332v-.088h.4v-.177h.066v-.09h.133v-.088h.133v-.088h.067v-.089h.066v-.089h.067v-.089h.066v-.178h.067v-.088h.798v.088h.2v.356h.067v.798h-.067v.09h-.067v.176l.067.001v.088h-.2v.267h-.132v.265h-.067v.622h-.133v.178h-.067v.176h-.133v.09h-.067v.088h-.132v.089h-.333v.088h-.134v.089h-.066v.089h-.066v.178h-.133v.089h-.067v.087h-.067v.178h-.133v.09h-.066v.176h-.067v.532h.133v.09h.067v.266h.066v.177h.067v.267h.067v.089h.066v.176h.067v.09h.066v.088h.066v.266h.067v.089h.2v.178h.133v.089h.067v.62h.066v.089h.2v.178h.066v.089h.133v.087h.134v.09h.265v.088h.067v.09h.133v.088h.133v.088h.067v.178h-.2v.089h-.066v-.09h-.067v.09h-.532v.089h-.2v.089h-.532v.087h-.333v-.088h-.732v.355h.133v.089h.067v.088h.067v.089h.066v.089h.066v.089h1.93v-.09h.067v.09h.199v-.09h.067v-.088h.066v-.09h.067v-.176h.067v-.089h.066v-.089h.067v-.089h.133v-.088h.066v-.177h.067v-.09h.066v-.088h-.066v-.09h-.133v.09h-.067v-.177h-.066v-.178h-.133v-.089h-.134v-.089h-.066v-.088h-.067v-.177h-.067v-.09h-.065v-.177h-.067v-.088h-.067v-.089h-.067v-.089h-.066v-.178h-.067v-.088h-.066v-.177h-.066v-.09h-.067v-.088h-.067v-.177h-.066v-.089h-.067v-.089h-.066v-.887h.066v-.178h.067v-.089h.133v-.088h.133v-.088h.066v-.09h.133v-.088h.067v-.09h.4v-.088h.066v-.088h.067v-.089h.066v-.532h-.066v-.267h-.067v-.177h-.067v-.089h-.133v-.089h-.2v.09h-.132v-.179h-.067v-.088h.066v-.088h-.066v-.267h.066v-.177h.067v-.178h.067v-.178h.067v-.176h.065v-.09h.067v-.177h.067v-.798h.066v-.622h.134v-.089h2.262v-.088h.2v-.088h.2v-.09h.2v-.088h.198v-.09h.134v-.087l.2-.008v-.081l.133-.008v-.08h.199v-.09h.133v-.089l.067-.01v-.079h.066v-.088h.133v-.088h.067v-.09h.133v-.088h.2v-.09l.199-.014v-.073h.333v-.089h.2v-.089h.266v-.089h.133v-.089h.066v-.089h.133v-.087h.134v-.09h.2v-.088h.132v-.09h.067v-.088h.066v.089h.067v-.09h.266v-.087h.067v-.089h.2v-.089h.133v-.089h.066v-.089h.2v-.089h.333v-.087h.066v-.09h.066v-.088h.2v-.09h.067v-.088h.133v-.088h.266v-.089h.066v-.089h.133v-.089h.134v-.089h.199v-.089h.067v-.087h.066v-.09h.067v-.088h.067v-.09h.066v-.088h.133v.089h.133v-.09h.067v-.176h-.067v-.178h-.067v-.089h-.133v-.089h-.066v-.087h-.066v-.09h-.067v-.088h-.067v-.09h-.066v-.088h-.067v-.088h-.067v-.089h-.066v-.178h.066v-.089h.733v-.089h.399v-.087h.133v-.09h.067v-.088h.066v-.09h.134v-.088h.066v-.088h.466v-.089h.066v-.089h.399v.089h.133v.089l.263-.006.108-.002.029-.002v-.079h.066v-.089h.067v-.178h.2v.09h.266v.088h.132v-.089h.134v-.089h.066v-.089h.134v-.087h.133v-.09h.132v.09h.067v-.09h.067v-.088h.133v.089h.266v-.09h.133v.09h.067v.176h-.067v.267h.133v.178h-.066v.088h-.067v.178h.067v.089h.066v.089h-.066v.265h-.067v.178h.067v.089h.133v.088h.066v.089h.067v.089h.266v.089h.2v-.09h.066v.09h.066v.089h.134v.087h.066v.267h.067v.089h.266v-.089h.333v.089h.399v.177h.067v.089h.066v.089h.067v.176l.067.002v.087h.066v.09h.2v-.177h.066v-.267h.067v-.177h.066v-.178h.133v-.089h.133v-.089h.067v.09h.266v.088h.133v.163l.029.002.237.013h.267v-.089h.199v.089h.133v1.33h-.067v.355h.067v.067l.4.022v.444h.066v.089h.133v-.09h.067v-.177h.066v-.177h-.066v-.089h-.067v-.621h.067v-.09h.066v-.087h.133v-.089h.067v-.089h.133v-.089h.133v-.089h.067v-.354h.066v-.266h.066v-.089h.2v.177h.067v.089h.066v.089h.067v.089h.067v.089h.199v-.09h.067v-.088h.066v-.178h.067v-.355h-.067v-.178h.067v-.087h.731v.087h.134v.09h.066v.088h.133v.09h.067v.088h.133v.089h.066v.088h.067v.089h.067v.178h-.067v.089h-.067v.087h-.066v.09h.066v.088h.334v-.089h.399v-.089h.066v-.087h.067v-.356h.332v-.088h.067v-.089h.066v-.089h.067v-.089h.133v-.089h.066v-.443H369v-.09h.4v.09h.066v.089h.066v.089h.067v.089h.333v.087h.533v.09h.132v.177h.067v.089h.066v-.089h.067v-.089h.067v-.089h.066v-.089h.067v-.087h.332v.087h.067v.178h-.067v.09h-.066v.088h-.067v.089h-.067v.088h-.066v.089h.066v.089h.067v.265h.067v.09h1.131v-.09h.2v-.087h.133v-.09h.066v.09h.133v-.09h.133v-.088h.2v-.09h.133v-.088h.2v-.088h.133v-.089h.066v.089h.2v-.089h.133v-.089h.133v-.089h.067v-.089h.133v-.089h.133v-.087h.466v-.09h.066v-.088h.134v-.178h.066v-.088h.133v-.089h.133v-.089h.133v-.089h.133v-.089h.067v-.089h.133v-.087h.133v-.09h.133v-.088h.067v-.09h.133v-.088h.133v-.088h.066v-.089h.133v-.089h.067v-.089h.067v-.089h.066v-.265h-.066v-.178h-.067v.089h-.133v-.09h-.133v-.088h-.067v-.088h-.066v-.089h-.067v-.089h-.066v-.089h.066v-.089h.067v-.265h.066v-.09h.067v-.088h.066v-.09h.067v-.087h.066v-.089h.067v-.267h-.067v-.089h-.066v-.088h.266v.088h.133v-.088h.333v.088h.067v.09h1.197v.088h.067v.09h.998v.088h.133v.266h.067v.178h-.067v.34l.067.014-.007.182.073-.004v.089h.133v.088h.466v-.088h.067v-.267h.066v-.178h.333v.178h.067v.09h.066v.088h.067v.089h.066v.355h.067v.265h-.2v.09h-.066v.177h.066v.089h.333v.444h.066v.265h-.066v.622h.066v.176h.067v.533h-.067v.267h-.066v.532h.066v.089h.067v.088h.066v.178h.067v.178h-.067v.354h.067v.266h.067v.089h.066v.089h-.066v.354h-.067v.09h.067v.088h-.067v.089h-.067v.62h.067v1.243h.067v.533h.066v.176h-.066v.09h.066v.088h-.066v.178h.066v.266h.066v.267h.067v.087h.067v.09h.133v.088h.199v-.089h.267v-.089h.133v-.088h.066v-.355h-.066v-.177h-.067v-.089h-.066v-.178h-.067v-.089h-.133v-.176h-.067v-.71h.133v-.355h.067v-.09h.067v-.354h.066v-.267h-.066v-.265h-.067v-.355h-.067v-.356h-.066v-.443h-.067v-.355h-.066v-.178h.066v-.531h-.066v-.445h-.067v-.087h.067v-.09h-.067v-.177h.067v-.09h.133v-.886h.066v-.177h-.066v-.445h-.067v-.265h-.066v-.178h-.067v-.177h-.066v-.178h-.067v-.089h-.066v-.089h-.134v-.087h-.132v-.444h.132v-.089h.134v.089h.133v.088h.332v-.088h.067v.088h.2v-.088h.066v-.089h.2v-.089h.133v-.178h-.067v-.265h-.066v-.09h-.266v-.088h-.067v-.09h-.266v-.087h-.067v.088h-.066v-.088h-.067v.088h-.066v.089h-.067v-.09h-.2v.09h-.399v-.09h-.332v-.087h-.067v-.089h-.399v-.089h-.133v-.089h-.133v-.089h-.267v-.089h-.132v.09h-.134v-.09h-.332v-.088h-.134v-.177h-.066v-.09h-.133v-.088h-.266v.089h-.333v.089h-.798v-.09h-.466v-.088h-.333v-.088h-.2v.088h-.466v.089h-.066v.089h-.067v-.09h-.066v-.265h-.067v-.089h-.133v-.089h-.2v-.089h.067v-.62h.066v-.356h.067v-.089h.067v-.088h.532v-.088h.066v-.09h.134v-.088h.066v-.09h.067v-.087h.4v.088h.066v.089h.731v-.09h.4v-.087h.133v-.089h.399v-.089h.066v-.089h.134v.09h.2v.088h.2v.089h.132v.088h.133v.089h.133v.089h.133v.089h.067v.088h.066v.088h.067v.09h.532v-.09h.2v-.088h.067v-.088h.132v-.09h.134v-.088h.133v-.09h.066v-.087h.067v-.089h.067v-.178h.066v-.178h.133v-.088h.133v-.088h.133v-.09h.067v-.088h.133v-.09h.133v-.087h.2v-.089h.066v-.089h.066v-.089h.067v-.089h.067v-.089h.133v-.176h.067v-.09h.066v-.088h.134v-.09h.065v-.087h.067v-.178h.067v-.089h.133v-.089h.067v-.265h-.067v-.09h-.067v-.088h-.066v-.09h-.067v-.087h-.067v-.089h-.065v-.178h-.067v-.089h-.067v-.532h.067v-.088h.067v-.089h.065v-.356h.067v-.088h.067v-.088h.066v-.09h.134v-.088h.066v-.09h.333v-.354h-.067v-.075l-.133-.014v-.089h-.066v-.088h-.067v-.088h-.199v-.09h-.134v-.088h-.132v-.09h-.067v-.087h-.133l-.014-.178h-.053v-.798h.067v-.444h.066v-.266h.2v-.09h.4v-.088h.465v.089h.2v.089h.132v.089h.133v.088h.333v.088h.067v-.176h.066v-.178h.067v-.09h.066v-.087h.134v-.089h.066v-.089h.066v.089h.067v.089h.2v-.089h.133v-.089h.133v-.089h.133v.09h.133v-.09h.067v-.089h.067v-.354h.066v-.178h.067v-.088h.132v-.089h.134v.266h.066v.089h.2v.089h.066v.089h.067v.088h.532v-.089h.2v.09h.066v.087h.067v.09h.266v.088h.2v.089h.133v.089h.2v.088h.066v.178h.133v.089h.266v.088h.133v.177h.067v.089h.133v.09h.4v-.09h.132v-.089l.067-.012v-.076h.067v-.089h.066v-.088h.266v-.09h.133v.09l.533-.003v-.086h.332v-.09h.2v-.088h.067v-.088h.199v-.089h.133v-.089h.067v-.355h-.067v-.177h-.066v-.09h-.067l-.009-.088h-.058v-.088h-.066v-.444h.066v-.089h.134v-.088h.2v-.09h.332v-.088h.532v-.09h.533v-.087h.333v-.089h.399v.089h.133v-.089h.2v-.089h.066v-.355h-.067v-.266h-.132l-.005-.09h-.062v-.176h.067v-.089h.066v-.089h.665v-.089h.133v.09h.267v-.09h.066v-.088l.19-.008.143-.007v-.073h.133v-.09h.067v-.088h.066v-.09h.067v-.088h.066v-.088h.067v-.267h.066v-.354h.067v-.178h-.067v-.09h-.066v-.176h-.067v-.089h-.066v-.178h-.067v-.443h-.066v-.09h-.067v-.265h-.066v-.089h-.067v-.354h-.066v-.178h-.067v-.62h-.067v-.267h.067v-.09h.067v-.176h.066v-.267h.067v-.266h.066v-.355h.067v-.088h.066v-.089h.067v-.267h-.067v-.087h.067v-.178h.066v-.178l.037-.01.03-.009v-.158h.066v-.089h.067v-.089h.133v-.089h.532v-.089h.2v-.088h.133v-.088h.067v-.09h.066v.09h.333v-.09h.2v.09h1.246l.016-.178h.066v-.09h.2v-.088h.2v-.088h.066v-.089h.067v-.089h.066v-.089h.133v-.089h.067v-.088h.067v-.088h.133v-.089l.066-.011v-.167h.133v-.09h.067v.069l.066.02v.09h.133v.267h-.133v.087h-.066v.09h-.067v.177h-.066v.177h-.067v.267h-.067v.089h-.066v.089h-.066v.265h.066v.089h.066v.089h.067v.355h.067v.178h.066v.176h.067v.09h.332v-.09h.059l.008.267h.066v.088h.335v-.088h.067v-.089h.066v-.089h.067v-.089h.066v-.089h.067v-.177h.067v-.088h.132v.089h.067v.709h-.067v.178h-.066v.443h.066v.089h.067v.089h.067v.177h-.067v.089h-.133v-.09h-.066v.179h-.067v.265h.067v.09h.132v.088h.067v.533h.067v.178h.066v.087h.134v.09h.133v.088h.066v.178h.066v.088h.067v.067l.05.008.083.014v.178h.067v.089h.2v.176h.066v.09h.066v.088h.067v.089h.067v.089h.133v.088h.066v.073l.044.001.469.015h.02v-.09h.198v-.087h.067v-.089h.066v-.089h.067v-.178h.066v-.088h.067v-.089h.067v-.177h.066v-.266h.133v.088h.4v.089h.531v.089h.253l.005.034.009.055h.133v-.09h.2v-.088h.066v.178h.067v.089h.133v-.09h.066v-.088h.067v-.09h.067v-.088h.066v.089h.599v.089h.066v.089h.067v.265h.051l.01.113.005.065h.067l.004.422.063.022v.267h.066v.087h.066v.09h.067v.62h-.067v.355h-.066v.09h-.066v.797h.066v.09h-.066v.443h.066v.443h.066v.09h.2v-.09h.067v-.088h.067v-.089h.066v-.177h-.067v-.178h.134v-.088h.066v-.178h.066v-.178h.067v-.177h.067v-.177h.066v-.09h.067v-.443h.665v-.089h.067v-.088h.067v-.089h.066v-.088h.066v.089h.133v.089h.067v.087h.266v-.088h.266v.088h.134v-.088h.132v-.089h.4v-.088h.133v-.09h.133v.09h.067v-.178h.133v.178h-.067v.443h.067v.533h-.067v.178h-.066v.443h.066v.088h.066v.267h.067v.089h.2v-.09h.266v-.088h.333v.089h.266v.089h.118l.015.088h.133v.088l.216-.012.184-.01v-.066h.198v-.088l.051-.007.017-.082h.066v-.178h.067v-.09h.2v.09h.066v.178h.066v.089h.067v.088h.133v.088h.067v.09h.399v.177h.067v.266h.066v.354l-.066.001v.088h-.067v.09h-.067v.532h.067v.089h-.067v.088h-.067v.355h-.066v.089h-.133v.089h-.133v.088h-.133v.089h-.133v.089h-.133v.089h-.133v.088h-.134v.088h-.066v.09h-.067v.088h-.066v.09h-.2v.088h-.133v.068l-.067.021v.444h.067v.087h.133v.09h.399v.177h-.133v.089h-.066v.089h-.066v.088h-.067v.089h-.067v.089h-.732v.089h-.133v.088h-.066v.177h.066v.09h.2v-.09h.133v.09h.133v.168l-.066.009v.177h.066v.089h.266v-.09h.067v-.087h.066v-.089h.2v.089h.466v.177h-.067v.178h-.066v.176h-.134v.09h-.066v.177h.066v.089h.067v.089h.266v.088h.266v-.088h.067v-.71h-.067v-.444h.134v-.089h.265v.09h.466v.088h.067v.177h-.067v.089h-.066v.089h-.066v.177h.066v.177h-.066v.267h.066v.089h.133v-.089h.067v-.089h.465v.089h-.066v.177h-.066v.178h-.067v.177h.067v.088h.266v.09h.066v.088h.121l.012.09h-.066v.088h-.067v.177h.067v.089h.199v-.09h.133v.09h.333v-.09h.067v-.087h.066v-.089h.133v-.089h.2v.089h.532v.089h.067v.088h.066v.089h.067v.178h.066v.176h.067v.09h.066v.088h-.066v.09h-.133v.088h-.067v.089h-.066v.088h-.066v.178h.066v.177h-.599v.088h-.067v.267h.134v.089h.066v.088l.133.001v.088h.266v.089h.067v.089h.066v.089h.266v-.09h.067v.09h.067v.621h-.067v.088h-.067v.089h-.066v.178h.066v.088h.2v-.088h.133v-.09h.133v.178h-.066v.355h-.067v.266h.067v.089h.133v-.09h.2v-.087h.199v-.089h.133v-.089h.067v.068l.133.003v-.07h.067v-.09h.332v.09h.133v.088h.067v.177h-.067v.178h-.066v.177h-.067v.177h-.066v.267h-.067v.355h-.067v.887h.067v.089h.067v.089h.066v.089h.067v.087h.133v.09h.133v.088h.066v.09h.134v.088h.133v.089h.133v.088h.466v.089h.066v.267h.067v.087h.2v-.087h.2v.087h.265v-.087h.133v-.09h.067v-.088h.066v-.09h.133v-.088h.466v.089h.067v.089h.066v.075l.2.014v-.09h.066v.09h.067v.089h.266v.343l.067.011v.089h.199v.089h.133v.088h.067v.267h-.067v.089h-.066v.265h.067v.09h.066v.088h.066v.089h.733v.088h.265l.001.089h.066v.178h.067v.354h.066v.09h.133v.354h.067v.089h.2v.178h.066v.087h.067v.178h.066v.178h.067v.089h.133v.088h.2v-.088h.266v-.089h.266v.089h.266v-.089h.133v.089h.2v-.089h.4v.089h.132v.088h.266v.089h.2v.089h.133v.089h.266v.163l.05.02.017.082h.066v.09h.133v.088h.133v.089h.067v.177h.067v.089h.132v-.09h.067v-.087h.333v.088h.067v.089h.066v.089h.066v.089h.133v.089h.067v.087h.267v-.088h.199v-.088h.133v-.09h.2v.09h.2v.089h.133v-.267h.066v-.177h.133v-.089h.133v-.089h.267v-.089h.2v-.089h.132v-.089h.133v-.087h.333v-.09h.266v-.088h.2v.089h.266v.089l.599-.009v-.08h.133v-.09h.067v-.088h.066v-.177h.066v-.089h.067v-.178h.067v-.177l.066-.017v-.16h.067v-.178h.133v.089h.067v.178h.066v.087h.066v.09h.067v.088h.066v.267h-.133v.088h-.066v.178h-.066v.089h-.067v.089h-.067v.087h-.133v.09h-.066v.177h-.067v.089h-.067v.089h.067v.088h-.067v.267h.2v.089h.333v.176h.066v.09h.067v.088h.2v-.089h.133v.09h.067v.088h.066v.089h.066v.088h.134v.089h.133v-.09h.2v-.087h.066v-.089h.066v-.089h.067v-.089h.133v-.089h.266v.09h.599v-.09h.2v-.089h.133v-.088h.2v-.088h.2v-.09h.199v-.088h.066v.089h.067v.178h-.2v.087h-.066v.09h-.067v.177h.067v.089h-.067v.088l-.067.001v.177h-.066v.089h-.333v.089h-.133v.089h-.332v.087h-.2v.09h-.133v-.09h-.2v.09h-.133v.088h-.133v.09h-.067v.088h-.066v.177h-.067v.089h-.266v-.09h-.134l-.005-.087-.06-.001v-.088h-.067v-.089h-.067v-.089h-.066v-.089h-.067v-.089h-.066v-.088h-.067v-.088h-.067v-.09h-.066v-.088h-.133v-.09h-.4v-.087l-.066-.001v-.088h-.133v.088l-.066.001v.266h.066v.354h.066v.09h.333v.088h.134v.089h.066v.088l-.2.001v.088h-.2v.089h-.2v.089h-.132v.178h.067v.087h.066v.178h.133v.09h.067v.088h.066v-.356h.133v.09h.134v.088h.132v-.089h.267v.09h.066v.177h-.266v.088h-.067v.089h-.066v.089h-.133v.089h-.067v.089h-.066v.089h-.067v.265h.067v.072l.066.017v.089h.067v.088h.332v-.088h.067v.088l.067.001v.088h.066v.089h.134v.089h.066v.089h.133v.089h.067v.087h.2v.178h.132v.178h-.066v.088h-.133v-.088h-.267v-.089h-.066v-.089h-.266v.09h-.067v.176h-.067v.267h-.066v.178h-.067v.087h-.066v.178h.066v.178h.067v.266h.066v.089h.067v.089h.2v-.09h.067v-.088h.132v-.09h.134v-.088h.2v-.088h.265v-.089h.133v-.089h.067v-.089h.133v-.089h.066v-.088h.067v-.177h-.067v-.09h-.066v-.088h-.066v-.177h.132v-.089h.067v-.089h.067v-.089h.133v-.089h.066v-.176h.067v-.09h.067v-.088h.065v-.09h.267v.09h.067v.089h.133v.089h.132v-.09h.067v-.177h-.067v-.09h-.065v-.087h-.134v-.178h-.066v-.178h-.067v-.176h.067v-.09h.066v-.088h.2v.089h.066v.089h.067v.089h.066v.087h.067v.09h.067v.088h.133v.533h-.067v.178h-.133v.087h-.067v.09h-.066v.088h-.067v.09h-.132v.047l-.001.218h-.133v.089h-.066v.089h-.067v.089h-.133v.074l-.133.014v.088h-.066v.267h-.067v.089h-.067v.088h-.066v.178h-.333v.089h-.066v.089h-.067v.265h-.067v.09h-.066v.177h-.067v.088h-.133v.089h-.066v.089h-.067v.178h-.066v.089h-.067v.087h-.066v.178h-.067v.178h-.067v.088h-.066v.178h.066v.089h.067v.089h.067v.089h.066v.087h.067v.09h.066v.088h.133v.09h.133v-.09h.067v-.089h.931v-.089l.067-.02v-.067h.133v-.09h.666v-.088h.199v-.09h.466v.09h.199v.621h-.066v.177h.066v.089h.134v.089h.133v-.178h.133v-.09h.2v.09h.062l.004.089h.067v.089h.199v.089h.133v.089h.932v-.09h.466v-.088h.066v-.355h.133v-.089h.066v-.089h.067v-.354h.067v-.09h.2v-.088h.066v-.178h-.066v-.088h-.2v-.089h-.067v-.089h-.266v-.178h.067v-.176h.266v-.09h.2v-.088h.133v-.09h.066v-.088h.067v-.088h.066v-.089h.067v-.178h.067v-.177h.066v-.088h.2v.089h.066v.087h.067v.09h.399v.088h.266v.09h.2v.088h.066v.088h.067v.089h.066v.178h.067v.354h-.067v.09h-.066v.177h.066v.088h-.066v.089h-.067v.089h-.133v.089h-.066v.178h.066v.087h.066v.178h.134v.09h.133v.088h.133v.088h.133v.089h.067v.089h.266v.089h.133v.089h.066v.089h.666v.087h.865v-.088h.133v.088h.466v.09h.066v.088h.133v.09h.2v-.09h.134v-.089h.066v-.177h-.066v-.088h-.133v-.09h.066v-.266h-.066v-.088h-.134v-.089h-.067v-.089h-.199v-.089h-.133v-.089h-.067v-.088h.067v-.266h-.067v-.09h.134v-.088h.199v-.088h.133v-.089h.134v-.089h.332v-.089h.067v-.177h-.067v-.088h-.067v-.09h.067v-.266h.067v-.088h.133v-.089h.066v-.089h.4v.09h.066v.088h.067v.088h.332v-.088h.067v-.089h.066v-.355h-.066v-.088h-.067v-.178h-.066v-.178h.066v-.088h.067v-.089h.133v-.089h.665v.09h.067v.088h.266v.088h.067v.089h.066v.089h.399v.085l.333.004v.089h.333v.089h.333v-.09h.066v-.088h.133v-.09h.266v-.088l.299-.016.034-.001v-.072h.2v-.088h.066v-.089h.067v-.089h.067v-.089h.066v-.177h.067v-.088h.066v-.178h.067v-.09h.066v-.708l.066-.005v-.084h.067v-.09h.133v-.088h.134v-.088h.532v.088h.266v.07l.263.019.003.089h.4v.089h.133v.089h.066v.087h.067v.444h.066v.267h.067v.178h.066v.087h.067v.09h.05l.004.034.012.143h.067v.089l.052.011.014.032v.045h-.066v.267h.067v.089h.132v.089h.133v.087h.067v.09h.732v.088h.134v.089l.132-.01v-.079h.134v.09h.998v.088h.2v.074l.104.011.029.003v.089h.132v.089h.067v.089h.133v.089h.266v-.09h.266v-.088h.2v-.089h.2v-.09h.066v.09h.067v.089h.2v.089h.199v.089h.598v-.09h.067v-.088h.067v-.09h.067v-.088h.066v-.088h.133v-.089h.2v-.089h.333v.09h.599v.088h.399v.088h.466v-.088l.066-.006v-.083h.067v.089h.132v-.089h.067v-.089h.067v-.089h.266v-.089h.2v.09h.798v-.09h.067v-.088h.067v-.088h.066v.089h.133v-.09h.066v-.088h.134v-.09h.066v-.088h.133v.089h.2v.089h.133v.089h.2v.089h.132v.087h.134v.09h.732v.088h1.53v-.089h.733v-.089h.199v-.088h1.264v.088h.266v.09h.333v.086l.2.002v.067l.063.007.136.015v.089h.666v.088h.332v.089h.2v.089h.2v.089h.466v.089h.399v.089h.266v.087h.067v.09h.133v.088h.066v.09h.133v.088h.067v.177h.066v.089h.533v-.09h.066v-.176h.067v-.089h.066v-.089h.067v-.089h.067v-.177h.066v-.266h.067v-.355h.132v-.089h.067v-.089h.4v-.089h.399v-.088h.133v-.088h.2v-.09h.2v-.088h.132v-.09h.067v-.088h.066v-.088h.6v.088h.066v.089h.133v.089h.133v.089h.133v.089h.133v.089h.067v.087h.066v.09h.134v.088h.199v.09h.133v.088h.2v.088h.133v.089h.133v-.09h.066v-.087h.533v-.089h.266v-.089h.067v-.089h.066v-.089h.067v-.088h.732v.088h.133v.09h.199v.088h.4v.09h.132v.088h.067v.088h.133v.178h.067v.089h.067v.089h.066v.089h.067v.176h.066v.178h.067v.089h.066v.266h.067v.089h.066v.265h.067v.09h.2v-.09h.066v-.088h.133v-.088h.067v-.09h.066v-.088h.067v-.09h.133v-.088h.133v-.088h.066v-.089h.333v-.089h.533v-.089h.199v-.089h.133v-.088h.2v-.088h.4v-.09h.066v-.088h.2v-.09h.132v.09h.067v-.09h.4v-.088h.132v-.088h.2v-.089h.2v-.089h.133v-.089h.133v-.089h.133v-.088h.133v-.088h.133v-.089h.266v.089h.133v-.09h.2v.09h.466v-.09h.399v-.088h.4v-.09h.332v-.088h.2v.089h.066v.089h.532v.089h.267v-.09h1.597v.09h.599v.089h.532v-.09h.266v-.088h.133v-.09h.133v-.088h.067v.089h.333v-.09h.4v-.087h.398v-.089h.865v.089h.267v.088h.265v.089h.067v.089h.133v.089h.133v.089h.067v.089h.067v-.09h.132v.09h.8v-.09h.066v-.088h.266v-.09h.266v-.088h1.132v-.09h.066v-.176h.066v-.089h.133v-.089h.134v-.089h.665v-.088h.133v-.088h.333v-.09h.267v-.088h.132v-.09h.133v.09h.133v-.09h.6v.09h.532v.089h.2v.089h.332v.089h.333v.176h.066v.178h.067v.089h.798v.088h.267v.089h.133v.089h.066v.089h.266v.089h.134v.089h.133v.087h.399v.444h.066v.178h-.066v.267h-.067v.176h-.066v.09h-.134v.088h-.132v.089h-.067v.088h-.133v.089h-.067v.355h.067v.088h.465v.09h.067v.088h.2v.09h.133v.088h.133v.088h.332v.089h.134v.089h.266v.089h.333v.089h.133v.089h.067v.087h.066v.09h.067v.088h.066v.09h.133v.62h-.067v.088h.067v.09h.4v.088h-.2v.09h-.067v.265h-.132v.089h-.2v.089h-.067v.178h-.066v.354h.066v.177h.067v.089h-.067v.089h-.066v.354h.066v.09h.067v.177h.066v.089h.133v-.089h.2v.177h.067v.621h-.067v.178h-.067v.266h-.066v.178h-.067v.089h-.067v.088h-.399v.088h-.066v-.088h-.067v.088h-.067v.09h-.066v.088h-.066v.09h-.067v.088h-.067v.088h-.2v.089h-.332v.089h-.067v.443h-.265v.09h-.067v.088h-.133v.089h-.2v.088h-.067v.089h-.066v.089h-.466v.089h-.066v.532h.066v.089h-.066v.62h.066v.267h.067v.089h.133v-.089h.067v-.089h.066v-.532h.067v-.09h.132v-.088h.067v.089h.333v.178h.067v.089h.066v.088h.066v.177h-.066v.178h-.066v.089h-.067v.088h-.133v.089h-.133v-.09h-.4v.09h-.2v.089h-.132v.089h-.6v.089h-.399v.088h-.399v.088h-.133v.09h-.067v.088h-.066v.266h-.066v.178h-.2v.089h-1.198v.089h-.333v.088h-.2v.088h-.132v.09h-.067v.088h-.066v.178h.066v.088h.2v-.088h.333v-.089h.199v-.089h.067v.09h.133v-.09h.2v-.089h.931v-.089h.133v.09h.2v-.09h.133v-.088h.067v-.088h.066v-.09h.2v-.088h.133v-.09h.066v-.088h.266v.089h.2v.089h.2v-.09h.066v-.088h.266v-.088h.4v-.089h.2v-.089h.066v-.089h.066v-.089h.134v-.088h.199v.088h.266v-.088h.066v-.088h.067v-.444h-.067v-.178h.067v-.089h.067v-.177h.066v-.088h.067v-.267h-.067v-.09h-.066v-.087h-.067v-.267h.067v-.089h.2v-.088h.066v.088h.133v-.088h.066v-.088h.067v-.178h.067v-.178h-.067v-.088h-.2v-.089h-.066v.089h-.067v-.178h.067v-.089h.133v-.089h.133v-.176h.133v.088h.466v-.088h.067v.088h.399v-.088h.133v-.09h.133v-.088h.266v.089h.2v.177h-.067v.088h-.066v.09h-.067v.177h.067v.089h.266v-.089h.067v-.089h.066v-.089h.067v-.089h.066v-.354h.067v-.09h.333v-.088h.066v-.266h-.066v-.089h-.134v-.177h-.066v-.088h-.067v-.09h-.133v-.088h-.066v-.09h-.466v.09h-.133v.089h-.067v.089h-.2v-.09h-.133v.09h-.066v.088h-.266v-.177h.067v-.178h.066v-.09h.067v-.176h.066v-.887h.066v-.621h.134v-.09h.133v-.088h.066v.089h.932v-.09h.666v-.088h.332v-.088h.267v-.089h.066v-.887h.066v-.267h.067v-.176l.066-.01v-.346h.134v-.09h.066v-.087h.333v.088h.133v.089h.066v.089h.067v.089h.133v.089h.066v.089h.067v.087h.067v.09h.066v.088h.133v.09h.067v.088h.066v.177h.067v.089h.066v.089h.067v.265h.067v.09h.133v.177h.066v.089h.067v.088h.066v.089h.067v.089h.2v.089h.133v.089h.399v.089h.599v.087h.067v.09h.265v.088h.466v.09h.333v.088h.133v.088h.333v-.088h.066v-.178h.067v-.089h.066v-.177h.067v-.088h.066v-.178h.067v-.09h.2v-.088h.266v-.088h.066v-.089h.333v-.089h.865v.09h.2v.088h.2v.088h.332v.089h.2v.089h.266v.089h.2v.089h.4v.089h.332v-.09h.266v-.088h.4v.089h.265v-.09h.333v-.088h.133v-.09h.133v-.088h.133v-.088h.067v-.089h.2v-.089h.532v.09h.067v.088h.199v.088h.267v.089h.065v.089h.2v.089h1.265v-.09h.731v-.088h.067v-.09h.067v-.087h.066v.088h.133v.089h.266v.089h.533v.089h.333v-.09h.066v-.088h.134v-.09h.332v-.087h.266v-.089h.133v-.089h.067v-.089h.066v-.089h.134v-.088h.332v-.088h.333v-.09h.066v.09h.334v.089h.598v.265h.067v.09h.066v.088h.067v.177h.066v.178h.067v.089h.067v.089h.066v.087h.067v.09h.066v.088h.066v.09h.134v.088h.2v.088h.731v.089h.133v.089h.06l.007.089h.067v.265h.066v.09h.067v.088h.066v.09h.067v.088h.133v.088h.2v.089h.399v-.09h.133v.09h.133v.089h.066v.089h.134v.089h.266v.088h.133v.088h.133v.09h.133v.088h.067v.09h.133v.176h-.067v.267h.067v.089h.066v.088h.133v.088h.067v.09h.133v.088h.133v.09h.133v.088h.133v.088h.2v.089h.066v.178h.067v.089h.133v.088h.2v.088h.266v.09h.2v.088h.133v.09h.133v.088h.266v.088h.133v.089h.066v.089h.134v.089h.066v.177h-.133v.088h-.067v.09h-.133v.088h-.066v.09h-.067v.088h-.133v.088h-.066v.089h-.067v.178h.067v.089h.066v.088h.067v.177h.066v.178h.067v.089h-.067v.177h-.066v.089h-.067v.089h-.133v.089h-.066v.088h-.067v.088h-.134v.09h-.066v.177h-.132v.089h-.067v.355h.067v.265h.066v.09h.132v.088h.134v.09h.067v.088h.133v.088h.066v.089h.067v.178h.066v.089h.067v.088h.266v.088h.067v.09h.066v.088h.066v.09h.067v.088h.133v.088h.133v.089h.067v.178h.066v.089h.067v.443h-.067v.266h.067v.089h.133v-.09h.067v-.088h.066v-.088h.133v-.089h.333v-.089h.266v-.089h.466v-.089h.133v-.088h.665v-.088h.267v.077l.036.002.23.01v.065l.076.012.057.01v.178h.067v.09h.066v.088h.133v.088h.066v.089h.067v.089h.133v.089h.067v.089h.066v.087l.067.001v.088h.067v.09h.066v.088h.066v.09h.067v.176h.067v.089h.066v.089h.067v.089h.066v.089l.117.006.007.036.01.045.066.001v.088h.066v.09h.133v.088h.134v.09h.066v.088h.133v.088h.133v.081l.067.008v.089h.067v.089h.2v.089h.132v.087h.067v.178h.066v.09h.466v.088h.2v.089h.066v.088h.067v.089h.388l.011.089h.2v.089h.066v.089h.067v.087h.066v.09h.067v.088h.063l.003.09h.2v.088h.066v.444h.067v.089h.067v.087h.066v.09h.666v.177h.066v.09h.067v.088h.067v.088h.332v.089h.2v.267h.066v.176h.067v.09h.066v.354h-.066v.089h-.067v-.09h-.399v.09h-.067v.354h.067v.09h.067v.088h.066v-.089h.067v.09h.066v.088h.066v.09h.067v.176h.067v.089h.2v.089h.133v.178h.332v.087h.067v.09h.066v.088h.195l.005.09h.133v.088h.067v.089h.066v.088h.2v.089h.132v.178h.067v.089h.134v.087h.066v.09h.067v.088h.199v-.089h.067v.09h.133v-.09h.067v-.089h.199v-.087h.466v.087h.067v-.087h.132v.087h.467v-.087h.132v-.09h.267v-.088h.199v-.09h.067v-.088h.133v-.088h.066v-.089h.067v-.089h.067v-.089h.066v-.089h.133v.09h.267v.088h.133v.09h.066v.088h.333v.088h.665v.089h.2v-.09l.066-.01v-.077h.067v-.089h.066v-.178h.067v-.089h.133v-.089h.066v-.176h.134v-.09h.399v.09h.333v.089h.067v.176h.066v.09h.066v.088h.067v.089h.399v-.089h.133v.09h.333v.175h.067v-.087h.199v-.089h.2v.089h.066v-.089h.067v-.089h.332v.09h.134v.088h.133v.088h.133v.067l.168.018.031.004v.178h.067v.089h1.198v-.09h.599v-.088l.066-.012v-.077h.133v-.09h.067v-.176h.067v-.178h.332v.09h.133v-.09h.267v-.089h.199v.09h.266v-.09h.067v-.089h.399v-.087h.133v-.09h.133v-.088h.133v-.09h.2v-.088h.133v-.088h1.065v-.089h.598v.089h.134v.088h.066v.085l.133.004v.089h.266v.089h.267v.089l.06-.008.073-.008v-.073h.067v-.09h.399v-.088h.133v-.09h.2v-.087h.266v-.089h.266v-.089h.465v-.089h.067v.09h.333v-.09h.199v-.089h.067v-.089h.4v.09h.399v-.09h.132v-.087h.067v-.09h.067v-.176h.066v-.09h.134v-.087h.039l.017-.017.01-.072.067-.01v-.079h.133v-.089h.133v-.089h.066v-.089h.333v-.087h.066v-.09h.067v-.088h.732v-.09h.466v-.088h.2v-.088h.199v.088h.133v.089h.133v.089h.134v.089h.132v.089h.067v.087h.067v-.087h.066v.087h.133v.09h.067v.177h.067v.178h.066v.531h.066v.09h.067v.088h.067v.09h.066v.177h.067v.156l.066.02v.179h.06l.007.089h.067v.086h.066v.089h.532v.09h.333v.083l.532.005v.09h.4v.088h.2v.07h.079l.718.018v.089h.267v.089h.067v-.09h.598v-.088h.067v-.088h.066v.088h.133v-.088h.134v-.089h.133v-.089h.066v-.089h.133v-.089h.2v-.089h.332v-.087h.067v.087h.2v.09h.133v.08l.138.002.46.006v.09h.267v-.09h.4v.075l.23.006.368.008v.09h.133v.088h.133v.088h.333v.089h.2v.089h.132v.089h.067v.089h.067v.087h.067v.09h.066v.088h.067v.09h.066v.088h.067v.089h.066v.088h.067v.089h.133v.089h.133v.089h.133v.089h.133v.072l.096.006.17.01v.088h.134v.09h.132v.177h-.066v.533h-.066v.087h-.067v.09h-.067v.177h.134v.09h.066v.088h.133v.088h.2v.089h.266v.089h.4v.089h1.13v-.09h.067v-.354h-.066v-.178H587v-.089h.066v-.176h.067v-.09h.067v-.088h.133v-.09h1.53v-.088h.4v.089h.132v.089h.067v.089h.067v.265h.066v.267h.066v.533h.067v.176h.066v.09h.134v.088h.133v.07l.052.006.147.013v.089h.134v.088h.266v.089h.399v-.09h.2v-.087h.2v.088h.132v.089h.134v.089h.066v.089h.067v.089h.399v-.09h.466v.09h.2v.087h.332v.09h.2v.088h.332v.09h.333v.088h.2v-.089h.599v-.089h.931v.09h.666v-.09h.266v-.089h.2v-.089h.532v.09h.067v.088h.133v.09h.399v.088h.2v.089h.266v.088h.2v.089h.133v.089h.132v.089h.067v.089h.266v.087h.134v-.087h.066v-.09h.066v-.088h.067v-.178h.067v-.088h.332v.088h.067v.089h.066v.089h.133v.089h.267v-.09h.066v.09h.2v-.09h.066v-.088h.6v-.09h.066v-.087h.067v.088h.132v.089h.2v.089h.332v.089h.4v-.09h.266v-.088h.466v-.089h.399v.089h.067v.089h.266v.089h.532v-.09h.134v-.088h.066v-.09h.067v-.087h.066v-.089h.067v-.089h.066v-.089l.117-.006.016-.083h.067v-.089h.133V206l.133.014v.09h.133v.161l.067.016v.089h.133v-.089h.067v-.089h.065v-.089h.134v-.089h.2v.067l.033.011.033.011v.09h.2v.08l.066.008v.089h.134v.088h.056l.01.089h.134v.089h.066v.178h.266v-.09h.133v-.088h.067v-.09h.132v-.088h.067v-.177h.066v-.089h.134v-.089h.066v-.089h.067v-.089h.066v-.087h.133v-.09h.8v.09h.398v.087h.6v-.087h.265v.087h.266v.09h.134v.088h.332v-.089h.333v-.089h.266v.07l.333.02v.088h.266v-.089h.267v-.089h.265v.09h.333v.088h.133v.089h.133v.09h.333v-.09h.998v-.089h.266v-.089h.6v.09h.332v.088h.067v.09h.665v.176h.067v.089h.2v.089h.199v.089h.2v-.089h.066v-.09h.133v-.088h.066v-.088h.134v-.089h.133v-.089h.066v.444h.067v.089h.133v-.09h.066v-.088h.067v-.09h.2v-.087h.067v-.089h.065v-.089h.134v-.089h.2v-.089h.133v-.089h.067v-.087h.199v-.09h.066v-.088h.866v.089h.134v.354h-.067v.09h-.067v.088h-.066v.089h-.067v.177h.2v.089h.266v.089h.133v.176h.067v.178h.066v.09h.932v.088h.6v.089h.332v.088h.066v.089h.134v.267h.066v.265h.133v.09h.066v.088h.134v.089h.199v.088h.2v.089h.399v.089h.533v-.09h.066v-.088h.865v.532h1.198v.09h.266v.088h.267v.09h.066v.088h.066v.177h.067v.178h-.067v.176h1.132v.09h.2v.088h.532v-.089h.2v-.089h.265v.09h.134v.088h.133v.09h.266v.088h.332v.089h.067v.088h.133v.089h.067v.089h.133v.089h.2v.089h.332v.087h.067v.267h.133v.09h.133v.088h.133v.088h.133v.089h.067v.089h.066v.089h.067v.089h.066v.176h.067v.09h.066v.088h.067v.09h.133v.088h.466v-.089h.532v-.089h.266v-.089h.266v-.089h.067v-.089h.067v-.087h.266v-.09h.399v-.088h.133v-.09h.067v-.088h.066v-.088h.067v-.089h.133v.089h.266v.088h.732v-.088h.333v-.089h.066v-.089h.2v-.089h.2v-.089h.2v.267h-.067v.177h-.067v.178h-.067v.354h.067v.267h.133v.089h.466v-.089h.333v-.089h.133v-.089h.133v-.089h.067v-.089h-.067v-.087h-.067v-.09h-.066v-.088h-.067v-.178h.133v-.088h.134v-.089h.133v-.089h.465v-.089h.533v-.089h.998v-.089h.332v.533h-.066v.178h-.066v.178h-.067v.265h.067v.178h-.067v.355h.067v.178h.067v.176h.331v-.089h.133v-.087h.066v-.09h.533v.177h.066v.09h.932v.088h.067v.09h.332v.088h.2v.089h.598v.088h.134v.089h.067v.178h-.067v.089h-.067v.087h-.2v.268h.334v-.09h.2v-.089h.066v-.354h.067v-.09h.332v-.088h.2v.089h.066v.089h.333v-.09h.332v-.088h.134v-.088h.066v-.089h.067v-.178h.732v.09h.2v.088h.332v.089h.267v.088h.332v.178h.066v.17l.067.008v.176h-.067v.09h-.066V214h-.066v.09h-.067v.354h.067v.089h.332v.089h.133v.087h.067v.09h.133v.088h.399v-.089h.133v-.089h.4v.178h.066v.09h.333v.088h.466v-.089h.067v-.089h.067v-.178h.133v-.087h.466v.087h.133v.09h.133v.088h.066v.266l.067.001v.088h.4v-.088l.066-.001v-.088h.066v-.178h.067v-.178h.067v-.087h.132v-.178h.067v-.09l.2-.02v-.068h.266v-.088h.2v.088h.199v.267h-.067v.176h-.066v.09h-.067v.088h-.133v.266l.133.001v.078l.056.002.144.008v.089h.133v.089h.466v.089h.599v.089h.2v.087h.2v.09h.199v.088h.532v-.089h.333v-.089h.399v.09h.266v.088h.666v.089h.2v.09h.133v.087h.066v.089h.067v.089h.067v.089h.731v.178h.067v.265h.066v.178h.067v.176h.066v.09h.133v.089h.4v.089h1.264v.176h.333v.09h.133v.088h.133v.09h.266v.088h.2v.088h.2v.089h.2v.178h.066v.178h.066v.176h.334v-.089h.066v-.087h.533v.087h.067v.09h.065v.088h-.065v.09h-.067v.176h.067v.178h.065v.089h.067v.089h.666v.089h.066v.087h.134v.09h.066v.088h.067v.09h.133v.088h.466v-.089h.266v-.089h.133v-.089h.066v-.089h.133v-.087h.2v.087h.066v.09h.134v.177h.399v-.089h.2v-.089h.132v-.089h.267v.09h.665v-.09h.466v-.087h.2v.087h.2v.09h.066v.088h.066v.09h.134v.088h.066v.088h.066v.089h.067v.089h.067v.089h.066v.089h.998v.089h.134v.087h.532v.09h.2v.088h.266v.178h.066v.177h-.066v.178h-.067v.089h-.067v.089h-.066v.087h-.066v.178h.066v.09h.133v.088h.2v-.089h.2v-.089h.199v-.089h.067v-.089h.133v.09h.066v.088h.067v.09h.066v.176h.067v.089h.133v.089h.266v.074l.133.015v-.089h.067v-.09h.133v-.088h.067v-.088h.066v-.089h.067v-.089h.266v-.089h.333v-.089h.266v-.087h.465v.087h.267v.09h.066v.088h.067v.09h.066v.088h.067v.088h.066v.178h.067v.267h.066v.176h.067v.09h.133v.088h.266v.09h.266v.087h.267v.089h.332v-.09h.533v-.087h.4v-.089h.465v-.089h.399v-.089h.333v.09h.598v.088h.466v.09h.6v.087h.399v.089h.399v.089h.199v.089h.199v.089h.599v.089h.2v.087h.266v.09h.2v.088h.133v.178h.066v.266h.066v.089h.2v.089h.2v.089h.2v.087h.33l.002.09h.199v.088h.067v.09h.067v.265h.2v.089h.332v.089h.2v.089h.266v.089h.333v-.09h.2v-.088h.266v-.09l.16-.008.106-.006v-.074h.133v-.09h.133v-.087h.2v-.089h.2v-.089h1.264v.09h.266v.088h.266v.088h.133v.089h.133v.089h.067v.089h.066v.089h.333v.089h.4v.087h.382l.017.09h.399v.088h.066v.09h.067v.088h.067v.088h.066v.089h.067v.089h.599v.089h.332v.089h.333v.089h.133v-.09h.2v-.088h.133v-.09h.2v-.088h.133v-.09h.532v.09h.133v.089h.133v.089h.066v.089h.134v.089h.333v.087h.731v-.087h.6v.087h1.596v.09h.4v.088h.332v-.089h.533v-.089h1.53v.09h.2v-.09h.2v-.087h.133v-.089h.199v-.09h.2v-.088h.066v.089h.933v-.09h.066v-.088h.066v-.09h.133v-.087h.267v.088h.332v.089h.2v.089h.067v.089h.132v.178h.067v.354h.066v.177h.333v.089h.067v.089h.066v.089h.067v.178h.133v.087h.133v.09h.6v-.09h.199v-.087h.133v-.09h.067v.09h.066v.176h.067v.178h.133v.09h.2v.087h.665v-.088h.132v-.089h.067v-.089h.732v.09h.067v.088h.2v.088h.199v.089h.332v-.09h.134v-.087h.133v-.089h.067v-.178h-.067v-.176h-.067v-.356h-.067v-.533h.067v-.176l.156-.007h.044v-.082h.2v.089h.2v.089h.465v.087h.266v.089h.067v.09h.133v.076l.2.012v-.089h.133v-.089h.066v-.089h.133v-.087h.133v-.09h.067v-.088h.066v-.178h.067v-.177h.067v-.089h.865v-.089h1.463v-.089h.662l.004.09h.2v.088h.266v.09h.2v.087h.133v.177h.066v.09h.067v.076l.132.013v.089h.466v.087h1.132v.09h.066v.088h.125l.009.09h.132v.088h.134v.088h.731v.089h.067v.178h.2v.089h.133v.089h.466v.087h.133v.09h.133v.088h.067v.09h.133v.088h.066v.088h.102l-.19 1.155.596 2.878-2.573 2.851-.389.986.49.782-3.241-.7-.218 1.162 1.089 1.89-1.048.09-.872.965 1.071.668.022.698-.763 1.398.157.788-.639.13zm-8.5-17.958v.09h.067v.088h.066v.444h.066v.265h-.066v.09h-.4v-.09h-.132v-.089h-.067v-.087h-.066v-.178h.066v-.178h.067v-.09h.066v-.087h.067v-.089h.066v-.089h.2z"/></defs><text transform="translate(377.263 266.5)" font-family="&quot;Tahoma&quot;" font-size="18">Asturias</text><text x="643" y="519.333" font-size="11">Created with paintmaps.com</text></svg>