<svg xmlns="http://www.w3.org/2000/svg" width="800" height="533" baseProfile="full" style="background-color:false" xmlns:v="https://vecta.io/nano"><use href="#B" paint-order="fill" filter="url(#A)"/><use href="#B" fill="#eee" stroke="#000" stroke-miterlimit="10" stroke-width=".4" paint-order="fill"/><defs><filter id="A" width="1000%" height="1000%" x="-100%" y="-100%"><feOffset dx="-9.8" dy="9.8" in="SourceGraphic"/><feColorMatrix values="0.2 0 0 0 0 0 0.2 0 0 0 0 0 0.2 0 0 0 0 0 1 0"/><feGaussianBlur stdDeviation="8"/><feBlend in="SourceGraphic"/></filter><path id="B" d="M133.203 421.567v-.673l-.393-.449.953-1.12.393.897.112.897.448.522.449 1.496.28.149-.056 1.047.505 1.57.056.896.392 1.196v1.869l.28 1.047v.97l.393 2.244.449.448 1.008 2.467.73.897.392-.374.673.523-.225.822h.897l.336.674.505.223 1.682-.448-.056 1.346.953 1.046.168.66.505.237.056 1.047-.169 1.42 1.514 1.943 2.86 2.691 1.793 1.121.841.748 3.364 1.644 1.57-1.57 2.97-1.794.281-.672 1.514-1.046 1.85.149-.168.448.616 1.196.953.225.393 1.12.617.898-.113 1.42.505.373.056 2.318-1.794 1.196-.392 1.495-.617.598-2.747-.448-3.588-.15-.84.224-2.524-.598-1.57-2.168-1.12-1.12-2.468-1.72-1.85-1.196-1.57-.748-1.008-.747h-.617l-1.402-.598-1.177-.15-2.69.076-1.234.672-.897 1.196-.168 1.121-.617 1.196-.056.822-.56.449-.786-.449-.224.748-.56.074-.785.972-.056.599-1.121.971-.225.972-1.85 1.121-1.29 1.346-1.345.149-.504-.15-.505-1.719.505-1.794v-1.12l.224-.3v-1.12l.28-.599-1.177-4.709-.224-.598-.168-2.093 1.289-.15.505-.448-.168-2.99-.337-1.644-.673-.449-.672-1.047.056-.597 1.177-.524.112-.597.841-.374.616-.897.169-1.346.729.299v.523l.728.748h.729l1.458-1.046.392-1.047.617.673h.84l1.346-1.42.56-1.72-.335-2.317.897-.449.112-2.466-.617-1.645.224-.597-.56-1.047-.112-.823-.617-.672-.449.598-1.065.373v-.597l-.448-1.196.672-.972.169-.598Zm0 0h-.505l-.392-.598.336-.524.56 1.122Zm12.165.822-.673-.224-.392-.898-.449-1.868.393-.448.56.075.898.597-.617.599.28 2.168Zm-56.566-22.35.617.747-.225 1.271-.84.299-1.402-.149-.28-.598.897-1.046.111-.449 1.122-.075Zm2.354.224.73.225-.225 1.12h-.56l-1.122-.448.168-.747 1.01-.15ZM81.01 369.84l-.112 1.42-.897.075 1.01-1.495Zm10.54-3.364.448.449.112 1.644-1.121 1.046.392.374.842.075.168.747-1.01 1.196-1.233-1.495-.336-.822.448-.374-.392-.972 1.682-1.868Zm86.166-11.96 1.178.075-.168.971.448.075.505.673-.169.673-.897-.075-1.177-.822.112-.748-.729-.598.169-.523.728.3Zm269.49-34.833.448.822-.561.224-.392-.448.504-.598Zm-4.822 1.121.28.449 1.401-.075.112.448 1.907.524-.113.747h1.122l-.449.897-.56 1.72-.897.149-.225-.673-1.738.822-.112 1.122 1.065.224-.56 1.794-1.009.075.056 1.27.785.898-.897.523-1.962-.523-.785.075-.224-.374-1.066.149-.168-.748-.56.225-.673-.3-.673.823-.73-.299.057-.449 1.01-.298-.113-.972.168-.898-.616-.149-1.234.374-.448-.972-.056-.822.897-.748-.168-1.42.72-.074-.832-1.346v-.897l1.12.598.45.598.055 1.196 1.122 2.243 1.065-.225.055-1.196-.336-.449-.897-.074.225-1.42.728-.224.617.224.505.897 1.12.672.898.225.112-.523-.392-.599-.449-2.765 1.29-.449ZM87.4 376.045l1.177.224.225.747-.785.374-.337-.449h-1.625l.897-.896h.448Zm6.671 23.097-.896-.971.112-1.346.336-.524-.056-1.195h-.841l-.785-1.046-.056-.674-.616-1.12v-.823l.728-1.644.561-.45-.225-1.12.505-.822v-1.346l1.402-.449.056-1.046.84-.747-.167-.598.672-.374.225-1.046-.28-.449H94.8l-.224-.897-.673-.225-.112-.97-1.345-.6-.393-1.27-.448-.822.953-.673.112-.523 1.121-.449.953-2.541 1.178.598.952-.374.561.598-.672.448.897.749 1.009-.375.448-.447 1.57.447.168-.971 1.065.524 2.187-.15.336-.673h.729l.336-.448 1.066.747.728-.075.673.747 1.121-.075.673-.97.616-.45-.224-1.195-.897.522-.56-.074-1.234-1.644.617-.374-.841-.897-1.233-.448-.28-.748.055-.972-.28-.597.897-.599.449-.598.504-.074.785-2.093-.56.224v-.972l-.45-.374.618-.598v-.672l-.673-.972-.28-.972.953-1.271.672-.523 1.346-.598.168-.672 1.29-1.645.952.075 1.906-1.122-.336-.897.449-.523h1.009l.28-.373 1.85.448.28-1.047.449-.597-.28-.822v-.898l1.401.449 1.01-1.122.055-.822.449-.673 1.01.075v.748l.335 1.644 2.187.524.953-1.346-.056-.747.672-1.048.28-.822.674-.447h1.233l.504-.225.28.672.674.075 1.009.524.392-.748h1.29l.112-.972.728-.747.056-1.27.897-.823h.673l.56.747.898.599.504-.225.505.523-.505.449.393.897.729-1.12v-.375l.729-.673 1.177.075-.617-.972.729-1.196 1.12-.075 1.683-.822h.617l.728-1.27h1.065l.73 1.121.448-.15.28-1.12-.168-.674.336-.523 1.29.374-.169.449.056 1.27.561.15.28.598 1.178-.299.448-.449.729-.075-.112-1.345-.392-.822.28-.973h.673l.28.749 1.065-1.346.841.374.729-.016 1.457-.957.729.374 1.29.3.055 1.12-.448.3-.56 1.121 1.457.3.449.747 1.233.822 1.121 1.868h.56l.898-.822.336-.598 2.13.224.898-.224.448.598 1.177.225.337-.823 1.009 1.42.504.075 1.066.747-.561.599-.729 1.27.729.3v.598l1.177-.075.056.672-1.738 1.122h-.504l-.617-.822-.617.299-.112 1.046-.505 1.869.337 1.495.785 1.42.785.523 1.738 1.794.729.224-.28.748-.057 1.42 1.346-.224h1.065l.168.896-.84 1.047.111.374.841.15-.392.597-.897.374-1.29-1.42-.448-.075-.337 1.196-.56.449h-.953l-.56.597.392.674-.505 1.046h-1.01l-.616 1.42-.729-.075-.168 1.271.112.823-.28.747.168 1.046-.224.972.336.747-1.57-.149-1.289-.598-1.906.075-.897.299-.505-.449-.952 1.27.056 1.048-.898-.075-.84.747-.785-.598-.673.972.393 1.87.055 1.793-.897 2.168.561.15-.672 1.793.168 1.42-1.794.523-.785-.896h-1.121l-.056.97-1.066 2.916h-.729v.673l-1.064-.224-1.514.972.168.597-1.065 1.047h-.449l-.112.823-.448.747-1.066.672-2.074-.075-.28-.97-.729-.45-.897.374-.448.973.673.447-.281 1.047.84.15.17.672-.337.374-.673-.299-.224-1.196-.505-.373-1.177-.3-.28-.449-1.402.225.56 1.121-.055 1.196-.897.374-2.355-.673-.392.374-.673 1.943-1.066.748-1.008 1.794-.841 2.99.392.524.056.97h.448l-.056 1.422-.28.747.393.97-.505.45v.972l-.616 1.12.28 2.019.673 2.466-.449.225-.617-.747-1.625-1.346-.45-.598-1.288-.224-.561 1.12-.224.973-.953.672-1.29.524.393-.822-.785-.374.392-1.644.056-.973-.672-1.046-.393-1.644-.728-.972-.617-1.346-1.738-1.495-1.121-.598-2.355.897-.785.075v.822l-.897.524-.56 1.644h-.393l.28-1.42v-.898l-.84-.747-1.346-.149v.822l-.505.673-1.12.448-.617-.448v-.897l.784-.075.393-.523-.449-.448-1.008-.075.28-1.196-.505-.599-.84.225-1.627-.15-.616.15-.28-.673-1.01.15-.28-.374-1.29.448-.729 1.196-1.569 2.019-.056 1.644-.841.449-.56.597-.505-.597-.449-2.093-.617-.973-.56-.073-.504-.749-1.234-.149-.505-.598Zm-2.242-26.386.953.971-.224.748h-.56l-.562-.523.393-1.196Zm353.974-58.604.728.897-1.177 1.72-.224 1.42-1.01.075-1.177-1.719-.056-.449.841-.15.056-1.12.392-.524 1.627-.15Zm268.815-185.974.953.597v1.196l-.953-.224v-1.57Zm-233.16-11.138.672.299.057.598h-.841l.111-.897Zm228.283-11.885.728 1.42.73.3-.73 1.27h-1.065l-.616-1.122.336-.224-.224-.897.84-.747Zm-40.757-34.384.504.97-.672.076-.45-.374.618-.672Zm26.853 19.584.449.448.28.897-.673.224-.056-1.57Zm16.37 58.677 1.178.45.112.821-.84.15-.898-.598.448-.822Zm2.635-10.278-.448.487.224.747.504.523-.056 1.046-.728-.223-.561 1.046-.505.298.337 1.346-1.065.972-.561 1.046-1.682.3.28.672-1.681.673-2.299-.224-.112-.524-3.195-.598h-1.738v-.523l-.953-.598-.28-.747h-1.29l.224-.673-.566-.448-1.677-.822h-.897l.057.822-.505.149-.897-1.345-.616-.524-.786-.075-1.569-1.345-1.234-.374-.784-.83-1.121-.888-.842-1.122-1.12-.224-1.178-1.42-.953-.375-1.121-1.046-1.682-.598-.337-.449h-.953l-.392-.822-1.121-.075-2.243-.896-.964-.897-.493.075-1.626-.897-.841-1.271-.841-.15-.84-.822-.45-.971-1.008-.674v-1.196l-1.066-.97-1.401-.674-1.29-1.046-1.233-.449-.224.374-1.122-.972h-.616l-.448-1.046-1.01-.299-.336-.449-1.458-.523-.168-.374-1.346-.523-.84.075-.449.448-1.457-.298-.953-.973h-.841l-.785-.298-1.29-.972-.616.15-1.066-.15-.728-.524-1.01-.224h-1.962l-.56-.598.504-.896-.953.074-.504.673-.617-.075-.28.449h-.841l-1.346-.898-.672.898-.785.597-.449-.149-1.681.075-.113.448-1.121.15-.112.598-.84.822-.842.074-.449-.447-.56.747h-.953l.112-1.196h-.953l-.504 1.046-1.57.075-.505.224-1.906-.074-1.233.299-1.514-.374h-1.682l-1.345-.747-.225.747-.616-.599-1.234.075-.167.449h-.842l-.504.299-.673-1.346.392-1.42v-1.42l.561-.748-.392-.897.672-.597-.336-1.795 1.626-2.093.224-.747-.224-.897-.56-.896.056-.973.504-1.12-.337-.524-.056-.822-.448-2.392.337-.3-1.122-1.12-.28.224-1.065-.075-.953.299-.785-.673-.225-.598-.897.673h-.784l-1.066-.748.26-.374-.26-1.494.225-.747-.28-.973-.673-.672.616-1.346 1.514-.15.336-1.12 1.122-.076.28-.747-.841-.672.392-.747 1.01-.075.448-1.496.617-.149-.112-.972.616-.449.168-1.27 1.234-.972 1.009.3.953.746.393-.897 1.457-.148.504-.374h1.626l.729.299.953-.15.617-.823.897 1.122.953.136.56-.435.393-.971h1.906l1.682-.225 1.065.448.449.823.336 1.407.728-.51h.786l.672 1.12.73-.747-.561-.523-.113-1.495 1.178.075.785-1.42 1.065-.15.56.15.785.972v.597l1.458-.224.448-.448h.617l.953-.748.336.075 1.682 1.57-.056.597 1.065.137 1.29.387.448-.374.841-.15.112-.747 1.738-.747 2.803-.224.561.374 1.009-.449 1.29-.225.504-.597.112-.823 1.794.374 1.065 1.645 1.178.597.111.524.954.448.28-1.196 1.01-.822 1.345.597.392-.223 1.738-.299-.225-2.018.393-.674.449.596.84-.446v-1.27l.561-.075.729-.823v-1.344l-.729-.449-.897-.972 1.29-.374 1.233-.075.336 1.121.56-.224.225.673-.504.3-.449.747.505.373-.56.524.111.523-.392.972.729.373v1.046l-.73.749.505 1.42.673-.15.056 2.093.729.822.224.748h.505v-1.122l.56-1.27.505-.673h1.682l.953.143-.056-.89.336-1.271.56.299.337-.823.785.599-.168 1.27-.673 1.047v.523l-.617.897v.598l-.504.897-.337 1.72-.504.223.168 1.27.617.45.056.523.729.374.616-.972-.056-.748.673-.747 1.065.672.168-1.644-.224-.299.448-2.243-.56-1.57.224-.522-.617-1.047-.168-1.943.673-.15 1.514.374.56-.299 1.01-.075.784.972 1.514.524.448.447.953.075-.448.822-1.009.225.112 1.868-.224.674.224.971-1.29.225.617.597-.168 1.047-.392.299.056.897.672-.373.169-.823 1.345.15.336.896-.84.673-.057.748.617.672.897.146.505-.444 1.009.148.28-.896.448-.374v-.896l.841-.374 1.066 1.27-.617 1.197 1.009.373v.822l.785-.224.112 1.047-.729.97.449.226-.168 1.27-.393.523-.112.822.449.599.112 1.494.84.674.057 1.42.672-.823v-.523l-1.289-1.495-.449-1.196.057-1.346.672-.223.28 1.046.561-.3-.336-.971.392-.823.56 1.047-.111 1.869 1.177-.224.841.299-.56.747 2.018.374.392-.374 1.346.15.392-.599 1.345.21 1.01-.508 1.009 1.196.729-.374 1.681.15.56.822h-1.68l-1.066.672-.224 1.271.897.299.055 1.496 1.122-.15v.597l-.505.375-.617-.15-.28 2.467-.504.373.056.897 2.074.972.56.523.057 1.72-1.121.298.392.748.785-.523 2.242.075-.224 1.495.505.523-1.514 1.57.056 1.494 1.01.599.448.522.224.823.617.748-.056 2.092.336.748 1.065.224.392 1.943.785 1.57h2.019l-.337.897.057.673.953 1.72-.281.522v.897l.673.225 1.738-.075 1.065.971-2.355 1.421-1.009-.225-.56.3-.337-1.42.505-.823-1.178-.822-1.57-.897.057-.449-1.626-.522-.112-.374-.897-.075-1.738-.747-1.121.074-2.13-.374.56.673.897.449.953.074.617-.299.728.374-.392.972h1.01l1.064.747.897-.075.73.524.728 1.12-.056.524.953.449 1.29 2.392-.393.448.337 1.57-.169 1.196.337.225.112.97-.953.45-.337 1.307Zm-256.706 148.96-.953.276-.505-.298-.336-.734-.897-.986v-1.12l.617-.748-.112-.599-.897-.747-.393-.897-.729-.448-.953.15v-1.122l-.336-.373-1.01-.075.169.597-.953.823-.28-.673-1.458-.299-.449-1.57v-.673l.56-.597.786-.15.112-1.794-.112-1.271-.729-.822-.224-.748-1.682-2.168-1.738-.597-.56-1.196-1.738-1.27-1.122 1.045-.336-.373-1.121-.224-1.234-.599-2.13.3-1.738.448.168.598-1.009.075-.224 1.644h-.785l-.504-.373.056-.673-1.514-.3-.448-.747-.73-.298-.448.224-.56-.748-1.57-.598-1.01.822-1.737-.074-2.803.074-.561-.747h-1.57l-2.018 1.42-.56 1.121h-.729l-1.01-.373-.84-.075-.73-.524-1.008-1.12-.225-.598-.84-.15-1.066.897-1.85.299-.56-.15-.449-.672.168-.748-1.625-1.42-.953-1.121.112-.673-1.234-1.345-1.12-.823-.674-.223-.448-.749-.785-.448-1.346-1.944-1.233-2.69-.056-1.87.392-.747.225-1.57.728-1.569-.111-.598.392-.748-.168-1.42-.617-.822-.56-1.794-.953-1.57-1.234-1.42-.897-2.242-.673-.972.113-.599.616-.672 1.178-.524.84-1.42.393-1.719 1.57-1.046.168-1.495.673.15.336-.748-.449-1.42-.728-.971-.056-.524-1.794-2.168-1.01-.822-.616-.972-1.066-.598-.504-.523-.617.075-.56.523-1.01-.598-.504-1.121-.504-.599-1.458-.896v-.598l-1.122-.3-.448-1.345-1.233-.672-2.018-.823-.224-.373-.786.224-.84-.898-2.019-.597-1.962-.15-.84.822-1.402.599.28-1.196-1.233-.375.28 2.318-.056.822-1.177 1.345.728.822h.785l1.346-1.494.336.298-1.457 1.496h-2.635l-.841-.972-.73-.224-1.008-.748-1.121.375-.842 1.046.057 1.046-.673.822-.785 1.495-1.626.598h-1.962l-.449.897-.728.075-.56-.897-.954.075-.956 1.327-.445.242-.953-.148-.393.597-.897-.15-.336.897-.505.374v.748l.449 1.046 1.401.075.168.748-.728.523-1.066-.3-.784 1.047.112.673.56.523.112 2.018-.28.748-.112 1.12-.84.749v.522l-.505.749h-.505l-.112 1.345-.841-.374-.112.897.392.449-.28.747.112 1.196.336.523-.168.898-1.065.148-.563-.298-1.175.15-.673-1.196-1.177.373-.056-1.122-.617-1.046-.448-.075-.841-.97-.729-.076-.953.673-.224.448-.897.15.897-1.495.056-.673-.84-.225-.281-1.793.056-2.018-.28-.524-1.29.898-.616-.674-.173-1.27-.447-.448h-.726l.336-1.42-.953-.076.56-.672.17-.897 1.12-.971.897.298.897-.298.953.073.449-1.046-.505-.298-2.41-.15.112-.822-.393-.823-.56-.224-.168-.897-.561-.3-.449-1.195-.728.15-.28-.673-.618.598-1.457.298-.337.524.281.747-.84.524h-1.907l-.28.672-.617.375-.56-.377.335-.745.225-1.196-.224-.897.336-.374-1.514-.672-2.074 1.046.392.748-.504 1.27-1.065.822-1.85.748h-.785v-1.195l.504-.225.057-1.495-.337-.374-1.682.3-.056-.6h-.953l-.224.823-.392.3-1.346-.075.112-1.346.56-.523 2.075-.45 1.178-.597.448-.523-.841-.822-.729.822h-1.345l-.561-.822-.168-1.495-.337-.523-1.177.15-.336-.748-1.065-.075.28-1.495-1.514-.074-.168-.449 1.177-2.243.168-1.42-.896-.3-.112-1.195h-.505l-.28-1.196.224-.971.336-.3.168-.971 1.234-.225.224-.523.056-1.196.56-.896 2.243-2.093.56.298 2.58-.15.729-.822 1.233-.299.505-.747h.504l1.233-1.12h.449l.728-.823 1.01-.374.952-.075.225-.822-.336-.972.448-.597.897-.075.673-.823.729-.448 1.177-.15 1.345-1.196.841-.374 2.243-.523.84-1.345.617-.15 1.29-1.87.673-.522v-.448l.784-.897 1.178-.224 1.065-1.346-.112-.822.56-.374.112-.598 1.514-.748 1.626-1.27.841-.224.673-.524 1.457-2.018 1.177.374.898-.075.896.523.112-.523 1.458.374.841-.523 1.682-.598.224-.599.673-.149.84-1.12 3.701-2.393.168-.748 1.121-.897.785-2.093.673-.374.673-.822 2.354-2.018.393-.598.56-.224.112-.896 1.01-.823.616-.897.28-1.496.954-.373.784.673h.73l1.345-1.495.672-.3 2.075-1.867-.112-.973.448-1.12-.224-.823.504-1.42.73-.748.56-.15.673-.822h1.009l.448 1.122.841.149.505.822.84-.448.057-1.046-1.29.148.897-1.793v-.822l.729-.673.224-.748 1.57-.149.673-.897-.112-1.196.673.224 1.12-.299 2.692-2.093.897-.15.392-.97.729-.45.953.076.056.97.336.3 2.747-1.42.673-.598-.112-1.944 1.009.15.336.374h.841l-.448-.748.168-1.57.785-1.794 1.289.3.898.448.111-.748 1.29.374.953.599.729-.15-.449-1.196.113-1.421 1.233.15 1.513 1.27 1.234-.298.224-.598.729.075 2.018-1.121h.449l.448.822.56-.075.897-1.943.898-.674v-.747l.952-.299 1.066.075 1.401-.448 1.01-.524.504-.897 1.682-1.121.336-.897 1.345-1.196.561-.15 1.234-.971h.784l.28.747.674-.299h1.12l.449-1.27 2.523-.3.785-.448.448-1.122.056-.747 1.29-1.046.336-.822 1.346-.524v.748l1.345.298.673.449.841 1.047 1.906.299h1.962l1.57-2.243h.504l.393-.823.785-.822.448-.074.785-.673h.393l1.57-.971 1.008-.897 1.066-.3h.953l-.28 1.197.896-.374.392.448h1.01l2.298-1.046 1.234.373-.673 1.645-.056.672-.449.599 1.178.223 1.009-.522 1.682-.075 1.009-.449 1.345-1.494.561-.3 1.12-1.12h1.122l.168.523-.953.897.561.522 1.233-1.046 1.682.15 1.01-.972.28.972.504-.075.561-.747 1.345-1.27.337-1.57 1.065-.3 1.065-.822.449-1.121.56-.374 1.682-.374h1.121l.449-.897 1.177.075.953-.598 1.009.075-.056.822-.785.897-.056.897h.953l2.299-1.794.056.972 1.009-.075.168-.374 1.177-.15 1.57-1.42.392.523.057 1.196-.505.375-1.29 1.644v.523l-.728.897-1.177.225-.393.597-.953-.374-1.009 1.047-1.178.075-1.065 1.12h-.504l-.392.749-.505.149-1.794 1.345-.392.524-1.29-.599-.785.225-.84-.972-1.346.075-.897.971.056 1.346-.729.897h-.617l-.728.524-.561.822-1.402-.225-.111 1.047.448.822v1.345l-.785-1.196-.729-.373-.504-1.046-1.514-.075-.56-.374-1.066.374-.448.897.056.747-.673.075-.392 1.793.112 2.542.448 1.196.28 1.72 1.682 2.765.897.673.56.896.954.674 1.009-.075.617-.449v-.672l.897-.225.056-.522 1.177.073.505.3 1.289-1.644h.617l.728 1.046.897-.075.113-.449.897.225.448-.822.73-.748.84.3 1.402-.823.56-.972.785.225 1.177-.748.168-.448 1.626-.599.392-1.27.505-.972 1.234-.3.56.6 1.121.298-.56.673-1.682 1.57h-.897l.336.97-.504.3.056 1.121-.561.3.56 2.54 1.738-.074-.111 1.047-1.458 1.868-1.29 2.168-.84.822h-.393l-.505.748-1.177.15-.84-.449-.673.442-.841.007-.953.448-1.066.15-.224.298-1.289-.224.28-.672-.336-.374-.841.074-.337-.822h-.672l-.56.373-.954 1.197-.673 1.645-.336 1.943.056 2.168.673 3.214.953 1.718.28 1.122.28.075.561 1.121L480 155.91l1.065.897 1.514 1.869 1.345.673.225-.374 1.065 1.121.448.075 1.514 1.42 1.121.523.504-.075.842.599 1.457.672.504.673 1.01.075 1.57.972v.448l.672.598.73.3.952-.15.28.448 1.963 1.046 1.12.972 1.122.374 2.13.075 1.122-1.42 1.625.15.953-.524 1.346-1.121 1.121.075.449-.225.168-.896.897-.375 1.794-1.42.392.074.673-.97 1.177-.524h.617l.56-.448.897-.15 1.57-.523.169-.898 1.009-1.494-.393-2.018.337-2.093 1.065-.449.616-.597.897-.3.56.3.674 1.046.392.223.785 1.271 1.065.674.617-.075 1.065.897.168 1.345.56.075.449.598 2.075.374h1.065l.616.298 1.29-.223.617 1.196h.448l.56 1.195 1.122 1.046h1.233l1.233.524.449 1.196 3.14.225 1.962-.15.224.897h.56l.113.822-.729.374-.112.897-1.065 1.27-.225 1.197.168.822 2.803.074 1.29-.074.673.224.392 1.57-.504.821-1.178-.223-.504.597-1.065.075-1.122 1.271-.056 2.617-.448.522.224 1.197.617-.075-.337 2.317-.56 1.72.56.298.225.599-.841.448.168 2.018.392.074-.056 1.645-2.242-.15-.336-.373-.673.747-.28 1.495-.225.3.336 1.046v.972l-.448.597v1.196l-.505.449-.728-.149-.897.149-1.065-.449-1.122-.149-1.065-.822-.785.074-.617.375-.223.822-.449.149-.505.897-.224 1.196-.84 1.494.223 1.271-.505.972.057.45-.841 1.494-.392 1.345v1.346l.28 1.271 1.57 1.046 1.177.449.616-.15.225 1.27-.673.6-1.233.373-.225-.225-2.914-.074-.73 1.046.337.747-.56.374-.17.897.393 1.42-.336.823-1.01.149.17.449-.337 1.12h-1.402l-.785.524-.728.897-1.57.673-1.01.598-.055 1.495-.898.822-1.289.673-1.514 2.018h-.897l-.055 1.047-.897.972-2.019 2.69-.28 1.196-.841 1.27-.56.226-.225.597.225 1.42-.28.673-.562.075.165.747-.22 1.046-1.122 1.795-.504 1.72-.113 1.195-.336 1.046-.28 1.72-.224 3.812-.449 1.868.336.449.113 1.047-.449.971v.897l-.448.599h-.505v-1.57l-.953-1.346-.449.075-.224 1.42-.616.225.168.672h.673l.504-.448.336.747-.504.374-.393 1.195-1.009 1.421-.785.672-.056 1.196-.448.749.168.597-.673 1.27-.168.898-.448.524-.28 1.046-.954.672.112.524-.616.897-.449-.15-.112 1.346-.504 1.046-.841.822-.785.448-1.01-.073-.784-.3.056-.971-.897-.15.056 1.494h.617l.168.599-1.233.299-1.178.673-2.018-.15-.448.374-.954-.075 1.178 1.047-.393.597-.392 1.271.168.449-.617.897-.953-.225-.504.449.224.747-.897.524-.56.598-.73.224-3.083-.149-.224-.225-1.514.449h-.673l.057 1.494-1.963 1.72-.728.075-.953-.524-.225.599-1.065.373-1.513 2.093v.523l-1.122.449-.84 1.719-.954.523v.449l-1.29 1.346-.335.672-1.458 1.943-.84.823-.674 1.12-2.074.898-1.457.224-1.234-.3-.336-.821-1.01-1.345.225-.822-.392-.972-1.794-.3-.73-.673-.336-.672.561-.725Zm-139.594-83.368-.504.973.056.448-.617 1.196-.785.597-.448-.074-1.177 2.243-.617.672-1.177.598h-.73l-.784.673-.449.075.28-1.42.337-.225-.056-1.046.729-.972h.84l.505-1.046h.561l.673-1.047.84-.224.73-.598.392.075.504-.748.897-.15Z"/></defs><text transform="translate(419.329 204.346)" font-family="&quot;Tahoma&quot;" font-size="16">Baleares</text><text x="643" y="519.333" font-size="11">Created with paintmaps.com</text></svg>