<svg xmlns="http://www.w3.org/2000/svg" width="800" height="533" baseProfile="full" style="background-color:false" xmlns:v="https://vecta.io/nano"><use href="#B" paint-order="fill" filter="url(#A)"/><use href="#B" fill="#eee" stroke="#000" stroke-miterlimit="10" stroke-width=".4" paint-order="fill"/><defs><filter id="A" width="1000%" height="1000%" x="-100%" y="-100%"><feOffset dx="-9.8" dy="9.8" in="SourceGraphic"/><feColorMatrix values="0.2 0 0 0 0 0 0.2 0 0 0 0 0 0.2 0 0 0 0 0 1 0"/><feGaussianBlur stdDeviation="8"/><feBlend in="SourceGraphic"/></filter><path id="B" d="m666.879 223.314-.038 1.3.338.849-.262.75-.375 2.498-.863.4-.45-.6-1.087-.249-.112-1.35-.412-.45.262-.85 1.2-.55.15-.65h.6l.15-.649.899-.45Zm41.5-116.914.112.35 1.05.45.974 1.85-.75 1.699-.824.299-.788 1.35-1.274-.35-.263.5-.787.15-.937-.55-.188-1.5.226-1.849.45-.4.412-1.1.6-.05 1.987-.85Zm-.938 22.693h.638l1.537 1.5.637.35 1.312.249 1.237 1.8.075.85-.525.7-.75.05-.824.849-.225.85v1.25l-1.687 2.448v.75l-.412.35-1.35-.35-1.05 1.5-.787-.4-1.125.75-.337-.75-.787.4-.525-.7-.113-1.05.338-.9 1.874-1.1.75-.899-.337-1.5.562-.2.525-.749-.45-1.75.712-1.249.525-.05.15-.65-.337-.75.337-1.05.413-.55Zm-3.224-2.85.788.65-.15 1v1.3l-.488.3-.787-.25.225-1.2-.375-1.2.787-.6Zm-21.845 69.98-.348.349-1.2.05-.899.6-.712.25-1.087 1-.975-.201-.862 1.2-.3 1.25.037.75-.637.849.075 1.8-.525.05-.675.7-.075.5-1.05 1.099v.3l-.75.749-.374.8.037.55-.562.7-.825.35-.187.65-.563-.3.076-1-.563-1.45-.675-.11-.075-.59-1.837.3-.262-.5-1.124-.6h-1.088l-.187.5-.937.8-.263-.05-.824-1.05-1.05-.1-1.012.15-.712.55-.15.5-.563.05-.562-.8-.113-1.149.3-.5-.075-1.8-.637-.599-.112-1.1 1.274-1.35 1.574-.199.563-.85-.112-.7.75-.55.074-.7.488-.85 1.012-.45 1.424-2.098-.037-.8-.375-.05-.263-.9.225-.65-.075-1.049-.224-.25.15-1.2.374-.35-.45-.75.038-1.65.525-.949-.375-.8-.15-1.449.3-.75v-.75l.3-1-.038-.7 1.013-1.649-.038-.45.675-.95.15-1.449.937-.2.262-.65.788-.45.487-.65.637-1.399 1.2-.7.862-1.399.9.05 1.087-.55.412-.55.3-1.25.825-.55 2.212-.149.562-.5.6.25.45-.75 1.274.8.3-.25.488.6.9-1.95 1.349-.15 1.312-1 .188-1.499 1.686-.7.713-.899.187-1.4.45-.6.9.1 1.574-.05.038.85.45.5h.674l.413-.65 1.35-1.4.674.05.6-.95.825-.549 2.399.35.75.95 1.162.75.3.65.787.45.038.55 1.012-.013.9-.288 1.35-1.25 1.386-2.499.45-.55.187-2.149.038-2.1.225-1.099.412-.05.3-.85.375-.25.375-3.199.45-.1.187-1.35.487-.649.825-.25-.187-1.65.45-.45.862-.349 1.612-1.65.45-.3.075-.55.562-.2.038 1.4.6.8 1.124-.4 1.05.55 1.124.25.113.95.787 1.35 1.237.2.6 1.998-.3 1.75.262.6-.337 1.45-.413.6-.3 1.748-.112 1.5-.262.4-2.137 1.05v.65l-.525.05-.412.85-.375.15-.262.949-1.013.8v.9l.225 1.399.375.65.712.65v.75l.713.25.112 1.2.225.699-.225 1.35-.337.999-1.162 2.85v.449l-.75 1.45.337 1.349-.674 1-.113 1.1.637 1.487-.075 1.162-.562.75-1.012.2.15 1.399-1.462 1.85.075.6-1.35-.05-.862.749-.675.3-.674 1.05-.488.1-.075.55-.487.45-.638-.101-.225.6-.524.5-.713-.15-.075.75-.375.85-.562.749-.487-.2-.45 1.05-.9-.4-.037-.4-2.062.55-.562.25-.713-.1-.937.3-.262.65-1.125.15-.487.25-.713 1.15-.262.949-.337-.05-.563.7-.45-.15-1.387.4-.562-.1-.787.949-.375.85-.975-.05-.675.25-.375-.4-.974.05-.225.35-1.275-.6-1.162.4-.975-.1-.814.3Zm-251.594 208.06-.562.724-.263.95-.037 2.449-.788.65-.862.1-.937-.2-1.687.25-1.012-.8-.637-1-1.238-.8v.55l-1.462.05-1.5-.9-.637-.05-.674-.8-1.088-.25-1.012.25-.412.889-.375.311-.375-.85-.487-.45-.787-.1.075-1.149-.225-.1-.263-1.25-.825-.35-.15.5-.674-.3-.038-.5-.975-1.1-.374.05-1.612-1.349-.45-.5-.563-1.449-.75.1-.636-.5-.638-1.15h-.45l-.6-1.4-.974-.449-.713.25-.937-1.1-.337-.95-.45-.55-.487-.1-.6-.549-.488-1.2-.112-1.05-.562-.45-.375-.949-.188-1.1-1.05-2.6-.674-.849-.637-2.349-.525-.65-1.35-2.499-.187-1.25v-1.099l.412-.3-.225-.7.375-1.5-.262-.15.3-1 .037-1.048-.375-.55.113-1-.375-.2-.075-2.6.3-.15.637-1.25.6-1.498.112-2.05.45-.75-.675-1.7.788-.299.487-.45.787.15 1.312-.1 1.2-.7h.337l1.837-1.9.562-.799.075-1.35.3-.449 1.013.05.862-.4 1.237-.95.375.1.562-1.2.075-.7.787-.249 1.388-1.354.075-.496 1.049-1.399.488-1.8-.188-.65-.712-.399v-.75l.262-.6.638-.25.15-1.249-.413-1 .487-.9.15-.9.525-.3.15-.6-.525-1.649.6-.45.3-.849-1.312-.85-.412-.8-.038-.55.525-.35 1.05.4.6-.25.562-.95.824-.099.488.6-.075.9.862.05.412.55.975-.2.225-.4 2.55-.75.749-.95.712.7h.375l.563.85.524 1.599.525.05.6 1 2.1.8.3-.3 1.274-.25 1.012.55 1.312-.1.262-.35.638.15h1.574l.975-.25.637-.8 1.65-.7 1.387 1.55 1.087-.15 1.312 1 .337-.2.975.75.562.749.375-.35.713.2 1.05 1.8 1.424-.65.562.25.6-.75.3.45 1.275-1.3.037-.5.825-.9-.3-.4v-1.799l-.375-.1-.862-1.15.412-1 .9-.3.487-.899.45.05.375-.85.712.2.825-.1.637.3.713 1.25-.375.45.375.95-.6.6v1.599l-.9.4-.412.8v1.599l.15 1.05-.375.25-.075-2.45-.525-.25-.6.3-.262.75.487.55-.562.55.637.4.075 1.4.225.099.975 1.7.262 1.1.3.45-.113 2.199-.524.7-.038.799.487 1.35-.562.75-.037 1.549-.488.35.413 1 .637.449-.337.65.15.55 1.5 1.75 1.611 1.2.6-.151-.075.95.262.15-.075 1.2.938 1.099.75.55-.338.45.225.5v.9l.562.25.413.9-.338.549-1.05.15-.187.75.375 1.2-.6.2-.262.449.262 2.15v.899l.412.6-.524.35.412.75.487-.2.375.6h.563l-.225.8.562.149.825.8-.038 1.049-.824-.15-1.013-.95-.787.45-.825 1.2.075 1.15-.3 1.199.15.35-.187 1.8-.412 1.1-.488.65.038.949.3.85.45.5.787.35-.113 1.05-.525.899.038 1.65-1.2.35-.487-.3-.488 1.199-.6.5-.787-.15-.674 1-.225.7.187.699-.675.8.113.7-.188.799.375 1.05-.225 1.1-1.237 1.35-1.762.693-1.949.156-.525.6h-1.05l-.937.35-.525-.2-.9.2-1.274.75-.712 1-.825.499-.712-.25-.713.05-1.874 1.6-.075.45h-.975l-.524.55-.788-.101-1.5.975Zm144.067-58.308.075-1.849-.862-.75.712-.75.413-1.25.674.3.038.7.937.7.3-.5 1.462.05.637.35.862-.7.6.95.675-.2h1.2l.862-.35 1.087-.1.487-.4.675.05 1.462-.2 1.875-.55 2.25-1.049 1.799-1 .262-.45 1.274-.5 2.7-1.749.375-.5.974-.45 1.725-1.6.787-1.649.9-.35 2.661-2.25.788-.749.824-1.1.862-.6 1.163-1.249.225-.7.524-.7.45-.2.563-.9.6-.149.674-.8.113-.9.412-.2.113-.65.412-.3.3-3.098-.188-.65.113-.7.487-.9.15-.95-.524-.599.45-.95.037-1-.375-1.199-.075-1.3.188-1.799.487-.4-.3-1.15.037-1 .563-1.099-.075-1.15.187-.599.75-1 .862-.3 1.125-1 .412-.8.75-.949.487-1.1v-.8l.637-.449.713-1.15-.225-.65.112-.6-.037-1.599.112-1 .525-.05.375-.65-.3-.649.113-.95-.3-1 .937-1.749.075-1.9.637-.55-.075-.9.863-.649.3-.85h.337l.487-.95h.263l.675-.999.712-.6.674-.25 1.388-1.9.899-.949.413-1.449.45-.8.637-2.7.524-.4v-.549l1.2-2.2.038-.85.375-.249.187-.7.075-1.3.562-.349-.225-1.4.488-.7.712-.3-.075-.7.3-.999 1.05-1.25.75-1.449.524-.55-.037-.75.824-.9-.075-1.399-.375-.5-.262-1.1v-.85l.225-.949.638-.7-.113-1.6.788-.749.261-1.85h.413l.45-.949-.038-.75.638-1.1.112-.699.75-1.35-.188-.8-.562-.6-.225-.75.038-.899-.563-.25.113-1-.263-.65v-1.249l.375-.55.038-.7.562-.449.675.75.712-.55.375-1.5.9.15.75-.4.112-.4 1.087-.8.225-.6.825.25 1.162.05.187-.6.938-.299.824-1 1.275.5.412-.05.113-.9 1.2-.9h.487l.45.85.6-.35.974.2.45-.15.3-.75.825.1.337-.7.9-.1 1.912 1.55v.7l.9-.35.374 1-.45.45.563 1.35.6-.6.524.25-.037.55.525.45.9-.2.486.35-.15.899.3.4.226 1-.113 1.099.45 1.1.45.6.225 1.15-.225 1.299.075.9-.3.85.225 1.549.187.3-.112 1.2.15.399v2.1l.187 2.749.413.6-.038.95.375 1.898-.525.6.637 2.85-.6.999-.3 1.15-.074 1.299.45.4-.375 1.35.037.6.6.7-.038.5-.487.3-.337.9-.825.499-.15 1.2.675.05-.225.899.038.8-.525.65-.375 1.399-.225.2-.113 1.05.15.85-.637.65-.975.2-.075.7-.524-.201-.563.4.038.55-.375.55-.263 1.25.226.949.899 1.25.3 1.1.075.999-.337.65.3 1.1-.038.85-.675.549.15 1.4.3.849.937.45.375 2.05v.75l-.487 1.049-.038 1.9-.674.15-.338.849-.413.4-.336 1.35-.076.9-.337.4-.075 1.199-.562.4-.45 1.15.075 1.349-.263.25-.112 1.4-.487.349-.45 2-1.275.15.263 1.7-.638.449-.075.8-.524.749-.038 1.05.6.4.112 1.65-.337 1.749-1.312.45-.338 1.5-.3.549.038.75-.375.55-.15.75-.6.15-.562 1.449-.712.6-.488 1.05-.712.15-.937.849-1.462.1-1.087-.35-1.575.05-1.275.2-.45 1.15-.936.9-.6.1-.713 1.099-.787.4-.45-.75-.525-.05-.225.8-.787.35-.674-.3-1.275.85-2.962.15-.712.35-.262-.35-.6.15-.075.55-.638-.05-1.387.599h-1.162l-.75.3-.6.75-.524-.05-.375-.45h-.9l-.525.7-1.237.05-.337.6-1.162.5-.263-.35-.9.6-.224.6-.825-.1-.45.45-.525-.101-1.35.25-.412-.25-.375.4-.487-.25-.975.05-.487.25-.375.75-1.35.8-.6-.3-.899.95-.75 2.148-.862.95v.55l-1.275.9-.45 1.6-.712.6-.487.849-.225.9-.487.25-.563.8-.825 1.999-1.162 1.1-.337 1.099-.487.1-2.137 2.35-.113.499-.862 1.1-.412.9-.375.25-1.125 1.399-.562.25h-.862l-1.537-.6-1.125.05-.375.3-.6-.9-.524-.35-1.163.4-.637-.05-.413-.45-2.099-.6-1.237-.05-1.874-.999-.975-.25-.457-.45-.518.05-1.687-.9-1.387-.25-.562-.35-2.137-.25-1.012.5-1.312.15-.825.4-.375 1.1-.45-.75.45-.255.413-.745.187-1.1.412-.499.675-.35ZM95.22 417.103l-1.237-.7h-.787l-1.162-.45-1.725-.008-2.024-.692H87.16l-1.35-.55-1.011-.1-1.2.1-.263.2-1.537-.15-.3-.55-.674-.349-.825-1.15.037-2 .15-.799.9-.35.075-2.699-.525-.6.375-1.35 1.312-.999.413-.65.637-.1.15-.7 1.837.2.112 1 .825.9 1.162.5h.9l.675.3.974.05.338.25 1.987.05 1.312-.6.524-.45.563.1.262-.5 1.125-.05.675-.2.15-.45.937-1 1.2-.65.45-1.399 1.386-1.3.938-.3.674-.55v-.35l.788-1.149.15-1.35-.413-1.299-.675-.9 1.237.1.3-.6h.9l.45-.3 1.237-1.599.637-1.05 1.837.15.413-1.05h.6l.337-.4h1.837l.825.25.3.45.974.25.487 1.1h.675l-.074.55.712.75v1.2l1.05 1.1.412 1.199v1.449l-.638.5-1.124 2.5-.862.05-.338.549-.562 1.8-.713.55.676.749-.488.5-1.612 3.449-.3 1.95-.412.749-1.388.1-.224-.3-.9.25-1.2 1.7-.15.75.263.899-.263.5-.112 1.2.15 1.1-.825.949-.187.6-.075 1.3-.825 1.199.187.65-.075 3.798-.412 1.05-.525.5-.337-.35-.675.5-.862-.15-.6-.5v-.6l-.862-.6-.675-.1-1.537-2.099-.263-1.35-1.012-.7.113-.6-1.162-1.949-1.5-.85Zm116.476-61.03-1.274.049-.375.2-.075.75-1.387.05-.975-.65-.3.4-1.312-.15-.975.2-.037.55-1.35.4-.75-.5-.15-.5-1.911-.05-.638.15-.412-.4-.15-.9-.825-1.1-.9-.15-.524-.3-.038-1-.562-.049-.412-.55-.525.1-.338-.45-.824-.1-.713-1.349h-.412l-.263-1.05.263-.5-.113-1-.712-1.15-.75.05-.974-.65-.263-.648.037-.9-.262-.4-.975-.65.263-1.35-.187-.65.075-1.799.3-.4v-.7l.487-1.05-.113-1.5-.525-.649-.037-1 .188-.75.75-.8.412-1.449v-1.65l.45-.399.187-1.149.337-.25.188-.8.487-.05.375-.75-.15-.9.675-1.199 1.312.35 1.237-1.25.375.4.525-.15.525-.55.862-.1.524-1 2.287-.05.263.7.975.75-.038 1.05.6-.15.825.3.862-.15.637.35h2.25l.45-.25.337.9.937-.45 1.124.55.15.85.975.899.263 1.5.75.35.974-.4 1.162 1.099.975.3-.15.95.75.65 1.799.6 1.312 1.199 1.088.05.187 1.05.3.6.637.45-.375 1.149.562.7h.713l.187.45-.45.75.15.499.113 1.95-.038 1.25.45.2-.075.749.338.65-.975.7-.038.55-.637-.15-.337.299.037 1.05-.937 1.399-1.125.05-.487.75-.562.3-1.012 1.1-.038 1.15h-1.2l-.45 1.15-1.574 1.542.187.657-.562.2-.412-.7-.863.25-.637 1.45Zm-89.41-76.677-.599-.55-.712-.2-1.537-2.35v-.9l-.338-.4.188-.698-.787-1.45.037-1-.225-.55.037-1.25.188-.849-.263-.9.225-.8-.712-.45.225-.6-.262-1.049.15-1.1-.525-.3-.225-1.449-.937-.95-.45-1.6-.262-.199-.226-1.2-1.012-.7-.487-1.699-.638-.906-1.312-.793-.3-.4.3-.85.15-1.1-.3-1.399-.45-1.05-.45-.55-.187-.8-.6-1.049.038-.75-.487-.85h-.563l-.075-1.15-1.312-1.599-.412-1.15-.675-.499.075-1.45-.787-1.3-.9-2.948-.487-2.2.262-.55-.412-.45.112-1-.225-.249-.037-1-.412-.05-.6-.6-.3-1.35-.338-.05-1.424-.849-.675-.65v-4.548l.15-1.1 1.05-1.55.637-.45.112-.849.863.15 1.5-1.6-.226-1.449.6.05.487-.65.038-.7.375-.2-.075-.95.974-.2 1.5-1.399.225-.85.487-.55.975.15 1.125-.6.787-.799-.188-.65.638-.95.75.251.6-.15.937.85.037 1.049.525.05.6.8 3.299 1.1 1.2.05.074.3 1.162.2.563-.4 1.312.1.974-.45h.675l.6-.5.937.15.862-.65.713.25.975-.25.075.3 1.012-.4.225.6 1.237.25.15 1.1.3.399v.85l.637.25-.075.85 1.125 1.899.337.9.15 1.899.3 1.15.562 1.15-.187.199.675 1.95.487.3.562 1.35.525-.151.487.7-.112.8.487.5.188 1.05.6.049-.225 1.8-.563.8-.337.849.037.65-.825 1.15-.487.05-.562.5-.787 1.249-.525.45-.487.85-.038 1.749-.712 1.35-.488.45-.112 1.199.337 1.05.713.5.337.7.6 1.999-.225.4v1.1l.262.15.563 2.048.037.9-.225 1-.525.6.225 1.1-.15 2.349-.337.9.187.649-.562.45.113 1.6-.413 1.249-1.05 1.4-.712 1.3-1.612 1.549-.374 1.2.037.95-.413.449-.075.8-.374.45-.076.7-.487.05-.075.599-.6 1.3-1.124 1.75-.488.549-.45 1.1-.262 1.399-.637 2.05-.563 1.1-.3 1.099-.824.69-1.013-.54Zm164.242 79.525-.268.9-.712-.05-.075.6-1.05.4-.45-.7-1.049.25-.337-.45-.863-.05-.075.8h-.712l-.713 1.05-1.237.1-2.098-1.1-.75-1.15.075-2 .187-1.25-.562-.7v-1.948l-.263-.8-.6-.6-.674.15-.413-.5-.975-.05-.712-.4-.037-.5.524-.9-.037-1.599-.674-1.1.262-1.2-.75-1.049-.862-.35-.563-.999-.9-.5-.074-.7-.413-.9-.862.05-.525-.55-.225-.9-.9-.999-.112-.65-.45-.35-.45-1.499-.75-.8-.112-.7-.412-.3-.075-.899-.712-.95-.225-.95.075-1.4-.338-.749-.75-1-.9-.05-.224-1.25-.825-1.099-.262-1.3-.6-.35-.487-.9.15-1.548-.413-.75.075-.85-.375-.8-.075-.8-.487-1.05.337-.15-.037-1.249.45-.1.337-.8.075-1.05-.45-.8.038-.399-1.088-.55-.15-.95-.9-.1-.711-.849-.3-1.8-.975-1.349v-.6l-.675-.05-.75-.8v-1.6l-1.087-.749-.487-.55-.375-1.149.075-.5-.675-.5-.825-1.2-.75-.1-.636-.549-.713.05-.3-1.35.15-1 .712-.95 1.275-.4.562-.35 1.462.3 1.125-.999h.675l.337-.35.825-.15.188-.7 1.086-.05 1.163-1.75.487-.449 1.125-.05.225-.4.9-.55.974.2.037.6.75.7.938 1.2.675.3 1.724-.05.3.6.562-.4 1.387.25h.862l.675.25.3-.45 1.05.15.225.45.787.149 1.237-1.6.787-.4.863 1 .487-.05.112-1.25.45-.549 1.537.7 1.2-.1.712-.55.075-1.1.45-.1 1.425.45.562-.4-.037-1.05.487-.35.824-.05.675.4.525-.35.562.85.938-.05.712-.25.412.6.9-.25h1.462l.487.3 2.1-.05.45-.95.712.35.9-.15 1.05-1.099.786.05.825-1.1.6-.1 1.05-1.4 1.162.2.562-.5.225.7.937.05.3-.25 1.05.1.6-.4 1.124-.099 1.65-2-.038-.55.638-1.049.45.25.9-.35 1.236-.15.638-1.35-.45-.2-.225-.6.825-.25.3-.899.562.3.787-.15.188-.4-.3-1.2.824-.8.412-.649.6.2.075-.85 1.425-.95.75-1.15.15-2.298.712-1.5-.075-.9 1.275-1.3.112-.5 1.05-.599.075-.55.562-.05.412-1.2 2.062-1.249 2.1.2.075-.3 1.237-.35.225-.6.487.05.563-.6 1.237.05.374-.55.113-.799-.113-1.4.45-.95.825-.4.637.05.6 1.3.563-.1.562-.45.487.65 1.087.1.937-.3.6-.9.712.95 1.088-.85.262.4.825.15.712.55 1.875-.2.787.6.974.35 1.05.05 1.387-.55.75.05.9-.7.9.05.262-.5.637-.1.75-.5.037-.449.825-.25.188-.45.562.2.562-.5.9-.4.412.3.675-.05.375.35 1.35.4.375.35-.038.8.262.4.937.549.038 1.25.825 1.5-.038.75-.675.55-.3.649.076.7-.338.95-1.2.9-.075.949-.524.25-.075.75-1.2-.4-.937.3-2.362 1.5-.075.45-1.162.099-1.087 1.55-1.912 1.299-.712.05-.75.55-.937.15-.637.85-.638-.15-.525.55-.225.899-.712.8.263.8-.375 1.05v.599l-.75.9-.375.75-.862-.1-.788.3-.562.7-.412.999-1.162 1.5-.675.4-.6.7-.337.849-1.762 2.15-1.312.849-.263.69-.524.11-.75-.45-.638.5-.112.55-.563.15-1.161 1.599-1.688 1.25-.187.6v1.55l-.487 1.249-.563.95v1.099l.6 2.499.263.5-.113 1.2.45.95.037 1.449-.3 1.45-.412.65-.712.399-.3.7-.562.4-.975 1.55.075 2.148-.412.45-.075.8-.713 1.05-.75 2-.562.9v.598l-.674.9-.45 2.2-.3.3-1.575 3.149.413.9-.113.95-.75.949.075.95-.337 1.799.525.55-.075.95-.75.1-.337 1.099.225.85h.525l.487.55-.413.8-.9.95-.487-.6-.562.65.075.899-.937.2v.75l-2.025 1.999.338.75-.3.6-.675.05-.562.55v.55l-.713.899-.337.7-1.35 1.25.225.55-.45 1.249-.674.3h-.713l-.562 1.4.038.449-.863.4-.337.75-.6.25-.187 1.1-.675.649-1.012.05v.85l-.787.2-.413.6.338 1.599-.788 1.15-.75-.3-.037-.75-.525-.35-.6.1-.487.5-.6-.25h-.9l-.262.3-1.274-.05-1.313.1-1.462 1-.862.25-.6.5-1.05.1-.15.5-.519.349Z"/></defs><text transform="translate(468.47 338.736)" font-family="&quot;Tahoma&quot;" font-size="15">Las Palmas</text><text transform="translate(147.678 274.5)" font-family="&quot;Tahoma&quot;" font-size="14">Santa Cruz de Tenerife</text><text x="643" y="519.333" font-size="11">Created with paintmaps.com</text></svg>