<svg xmlns="http://www.w3.org/2000/svg" width="800" height="533" baseProfile="full" style="background-color:false" xmlns:v="https://vecta.io/nano"><use href="#B" paint-order="fill" filter="url(#A)"/><use href="#B" fill="#eee" stroke="#000" stroke-miterlimit="10" stroke-width=".4" paint-order="fill"/><defs><filter id="A" width="1000%" height="1000%" x="-100%" y="-100%"><feOffset dx="-9.8" dy="9.8" in="SourceGraphic"/><feColorMatrix values="0.2 0 0 0 0 0 0.2 0 0 0 0 0 0.2 0 0 0 0 0 1 0"/><feGaussianBlur stdDeviation="8"/><feBlend in="SourceGraphic"/></filter><path id="B" d="M435.387 95.306v.14h.105v.277h-.105v.14h-.104v.14h-.21v.139h-.104v.14h-.21v.14h-.103v.137h-.104v.28h-.105v.139h-.209v-.14h-.21v-.279h.105v-.138h.105v-.14h.104v-.139h.105v-.14h.105v-.279h.104v-.138h.104v-.14h.523v-.139h.104zm-44.078 12.256v.14h.521v.14h.628v.416h-.314v.14h-1.149v-.14h-.417v-.14h-.523v-.416h.209v-.14h1.045zm111.135-10.863v.279h.105v.14h.313v.277h-.105v.14h-.104v.139h-.104v.14h-.314v.14h-.104v.556h.104v.14h.21v.137h-.105v.14h-.105v.279h-.104v.14h-.627v-.14h-.209v-.14h-.104v-.279h-.105v-1.392h.105v-.697h.104v-.139h.21v-.138h1.147v.138h-.103v.14h-.105zm166.652 139.11l-2.269-2.983-2.565-1.52 1.238-2.031.785-4.202-1.467-1.142-.168-4.273 1.563-5.613-1.421-1.174-1.223-2.731-2.208-1.844.888-1.846-.506-1.22 5.99-1.61 3.46-.035 3.064-2.2 1.645-.284 6.59 3.641-.782 6.103-2.208 3.697-4.361 3.005-.484 2.286 1.465 3.366-1.866 2.67 2.343 5.676-1.749 2.037-5.249 1.048-.505 1.18zm-84 30.64l-8.384-3.17-4.877-2.635-6.613-.677-4.33-1.68-4.802-.821-5.273 1.29-1.48 1.148-1.778-7.06-1.57-2.906-4.204-2.209-2.828.512-.926-1.334-2.787-.255-1.512-1.64-1.105.099-1.141-.949-2.684 1.7.773 3.47-1.83.985-.48 1.755-1.697 1.215-.45 2.618-3.26 1.27.045 1.981-2.896 4.39-.528 2.605.688.462-4.208 4.83-3.351 1.612.36 2.67-.658.908-3.609 1.15-1.87 2.823-3.399 1.803-3.825 1.106-3.659.141-2.929 1.584-1.442 3.507 1.055 3.542-1.333.767-2.645 1.613-3.088-1.12-.956 1.016-4.215 1.17-4.343-2.524-1.956-.12-1.466-1.609-1.765.434-2.194 2.387-2.104.218-3.357.054-3.433-.985-.967-.975-1.437 2.186.024 1.497 1.769 3.035 5.357 3.596-.836.459-.01 2.146-3.26 3.674-2.707 1.643.276 3.47-.737 1.009-1.764-.119-2.145-2.044-1.277.585-.757-.796-3.069.077-1.13.625-4.76.303-.764 2.765-6.198 10.133-5.805 2.88-7.807 2.297-5.772 6.679-4.97 11.96-5.844 17.485-.494 1.446 1.163 2.506 3.842 3.771 1.776 3.32 7.106.201 3.074.945 2.427-.401 3.642-2.252-2.529 3.278-.47 2.07 1.532 2.222 2.704-2.423 1.102-5.632 1.96-.314 2.527-3.557 1.499-.668 6.1-.382.921-2.196-.323-2.647.746-1.312.12-5.52 3.633.492 2.853-.96 1.143-2.57 10.362 7.544.825 2.781 2.789 3.28-1.36 4.866-1.793.88-2.132-.36-1.012-1.117-2.542.509-1.498 5.313-1.103 1.507.516.44-3.619 2.308-3.918-1.115-1.596-1.495-2.842.826-4.482-3.43-1.907-2.53-.07 1.13-.97.674 1.332 1.689 2.971 1.715 2.335 8.41-3.702.549-2.287-1.597-.553-1.259-2.324 1.358-1.418-.704-1.53.721 8.212 2.158 1.894 2.322-3.08 5.066-2.863 1.218-.828 3.445.894.897 5.215-.425 1.05 1.823 3.252-.264 2.86 2.729 2.43-.761 1.964-1.903-2.018-3.257.11-3.504.977-2.083-1.154-.39 2.253-5.445 1.624-1.922 4.477 3.179 5.654 2.35 4.302 5.088-3.3 6.48.132 1.772 6.492 8.146-.069 2.846-1.12 1.206 1.295 4.29.075 4.374-1.708 2.148-.412 3.003-.604.717-2.17.067-9.47 5.596-3.438.553-8.526-5.908-3.157-3.156-1.935 6.906-.705 1.09-2.382.324-.7.751.323 4.72-.808 4.334-5.837-.872-1.546-2.186-6.845 3.502.831 2.804-3.747-.153-3.439 1.813-4.96.26-1.017-5.127-3.411-1.343-1.466 1.192-1.914-.186 1.394-8.645-.608-.801.393-5.585-1.638-5.433.313-7.17-1.323-3.665-2.814.516-3.663 5.53 2.48 6.502-.915-.486-2.767.504-3.362 2.55.424 3.843 1.294 1.635-.571.997-1.391.868-1.604-2.102-2.226 1.008-2.43 4.508.195 3.443 1.423 3.169-3.299 1.798-6.409 1.248-3.613-.464-1.514-5.373-3.275-.572-.46-2.847-1.66-2.806.462-3.303-5.434-1.685-3.661-.025-5.58 2.163-2.59-.514-2.074 1.002-8.927-9.658-1.944-1.157-1.458.267-1.025-3.484 2.581-4.487 4.931-.983.842-.95.524-2.998 1.957-.855 2.12 1.613.161 1.596 1.871 1.217 1.927-.021-.193-.698 1.35-1.548.129-2.981 3.215-3.427.886-5.2-4.878-1.34-.772-1.204-1.545-.255-1.405-1.775 1.78-1.43-2.123-1.264-7.32 6.099-4.449.137-1.654 2.131-3.754 2.69-1.413 2.168-3.626-.013-3.738-2.875-2.547-4.196 1.047-2.93-.214-5.168-2.68-10.856-.077-3.302 2.279-1.6.824-2.26-5.317-3.075-.903-7.97.23-10.712-2.808-2.527-6.116-2.935-5.944-.1-4.284-1.826-3.61 1.277-1.764-.18-4.42-1.386-11.977-1.238-5.851-6.405-1.536-3.102-1.973-1.761-.995-2.477.19-3.257-4.49-5.225-1.08-4.636-1.167-.798-2.197-3.78-2.206-1.638-3.749-1.932-3.188-.384-3.547-1.471-3.991-5.122-1.908-1.321-3.463.75-1.617-1.839-.765.325-3.029 4.197-1.997 5.217.282 1.295-6.868-.476-.705.621-9.426-4.494-14.11 13.969-5.964-3.714-6.129.528-5.819-4.961-2.1 2.603-2.984 2.015-3.744 1.295-3.222 3.659-.845-.258-4.158-1.836-8.173-.26-4.187-2.317-2.275-.193-3.44-.14-3.5.82-2.132 2.69-1.963 1.205-3.385-.748-.895-1.757-2.224.63-2.352-3.593 1.658-6.292 1.742-3.19-3.674-4.703-2.164.292-1.191-.679-4.966.798-.144-9.484-2.548-2.276-4.197-2.27-1.524-.18-3.138-1.93-1.463.02-2.539-2.01-3.544-.433-.162-1.704-1.562-1.645-4.256-1.666-.844-3.033-.283-3.8-3.55-2.625-.206-1.182-2.117-1.034 3.281-3.701-.435-6.365 1.978-.51 1.3-4.484.15-1.12-2.224-2.083.681-2.196L80 248.265l.891-2.097 3.137-1.868 1.525-.056 2.275 1.148 4.465-.182.572-2.547 2.4 1.365 2.137-.388 5.955-1.71 4.398-3.288 9.243 3.743 2.832.241 2.775-1.136 1.734-2.035.109-2.088-1.275-2.465.316-4.744 2.912-3.882-1.368-2.098.767-1.586 3.11-2.714.346-4.886-2.932-4.38-.905-4.693 1.97.51.892-.958 4.404-1.375 2.097-2.957.434.79 3.048-.273 1.275.946 1.321-1.268 1.393.574 1.19-1.147 1.989-.22 3.137 1.428 3.839.331 2.038-.662 1.314-1.478 6.907.585-1.128-.56-.601-1.505.166-2.347 1.822-.667 1.672-1.942 1.067-3.364 1.275.228.752-1.324 4.107-2.347.393-2.668 3.07 1.008 2.801 2.663 3.427.826.586 1 2.643.088 1.4-1.218 5.365 1.878 1.642 1.75-.718 6.351 1.885 1.632 4.424-.757 1.254-2.569 3.444-1.429.677-1.231 1.181-6.725-.199-7.964-2.981-8.868 1.76-4.093-.245-1.161-6.188-2.942 1.003-.202-.246-1.238 1.197-2.193-.034-1.096-1.682-1.048 1.369-1.515 1.645-.142-1.71-2.966.343-1.823 5.088 1.098-.77-1.228.611-1.547 4.038-4.475-.934-4.518.297-1.813h.153v-.138h.105v-.14h.104v-.139h.21v.14h.52v.14h.21v-.14h.104v-.14h.105v-.14h.312v-.14l.147-.014.063-.006v-.117h.209v-.14h.209v-.139h1.567v-.14h.209v-.14h-.105v-.139h-.105v-.138h.105v-.279h.105v-.279h.208v-.277h.104v.14h.419v.277h.103v.14l.58-.016.047-.002v-.122h.313v-.14h.21v-.138h.313v.138h.731v.14h.836v.14h.104v.278h.105v.138h.105v.28h.104v.556h.103v.28h.105v.116l.052.011.053.012v.14h1.149v-.14h.417v-.14h.314v-.14h.105v-.14h.104v-.137h.418v-.14h.313v-.139h.522v-.14h.523v-.14h.94v-.139h.417v.14h.105v.14h.105v.139h.209v.14h.208v.14h.209v.556h.105v.696h.104v.28h1.358v-.14h.209v-.14h.209v.14l.73-.012v-.128l.258-.023.056-.004v-.113h.418v-.14h.626l.001.14h.313v.14h.105v.14h.209v.14h.313v-.14h.104l-.022-.28h-.082v-.14h-.105v-.416h.21v-.14h.73v-.14h.21v.14h.208v.14h.21v.14h.208v.137h.418v-.417h-.105v-.417h.105v-.14h.104v-.139h.313v-.14h.94v-.14h.314v-.139h.627v.14h.626v-.14h.105v-.277h.104v-.28h.314v-.139h.626v.14h.731v.14h.314v.139h.104v.14h.21v.137h.312v-.138h.105v-.279h.104v-.14h.105v-.139h.105v-.138h.521v.138h.105v.14h.21v.14h.104v.139h.208v.14h.105v.277h.104v.419h.21v.277h.208v.14h.313v.14h.314v-.418h-.105v-.14h-.104v-.139h-.104v-.14h-.104v-.279h.104v-.277h.105v-.28h.209v-.139h.209v.14h.208v.14h.732v-.14h1.044v-.14h.627v-.138h.836v-.14h.209v-.139h.104v-.14h3.029v.14h.73v.14h.627v.14h.21v.137h.209v.14h.626v-.14h2.193v.14h1.15v.14h.314v.278h.104v.138h.208v.14h.104v.279h.21v.14h.835v.107l.091.013.118.02v.11l.105.027v.14h.209v.126l.208.013v.14h.105v.14h.209v.137h.209v.107l.208.033v.14h.105v.279h.104v.14h.105v.416h.731v.14h.209v.14h.105v.137h1.357v-.138h.105v-.279h.104v-.14h.105v-.14h.105v-.137h.312v-.14h1.15v-.14h.209v-.139h.209v-.14h.522v-.139h.418v-.138h1.253v-.14h.209v-.139h.417v-.14h.314v-.14h.417v-.137h.21v-.14h.104v-.279h.105v-.279h.209v-.138h.104v-.14h.209v-.139h.104v-.14h.21v-.139h.104v-.138h.522v-.14h.209v-.139h.313v-.14h.209v-.14h.209v-.139h.104v-.137h.21v-.14h.104v-.14h.208v-.14h.21v-.139h.104v-.138h.104v-.279h-.104v-.14h-.105v-.279h-.104v-.138h.104v-.14h.105v-.139h.21v-.14h.312v-.139h.209v-.138h.209v-.14h1.045v-.139h.626v-.14h.105v-.14h.104v-.139h.105v-.137h.103v-.28h.105v-.14h2.925v.14h.21v.14h.208v.277h.104v.42h-.104v.139h-.104v.14h-.105v.137h-.104v.28h.104v.139h.418v.14h.104v.277h.105v.28h.104v.416h-.104v.28h-.21v.139h-.312v.417h-.105v.696h.105v.419h.104v.14h.104v.137h.105v.14h.104v.14h.105v.139h.209v.14h.104v.14h.105v.137h.104v.14h.104v.14h.418v.139h.21v.14h.208v.277h.104v.14h.21v.139h.21v.14h.312v.14h.21v.137h.208v.14h.21v.14h.208v.106l.08.004.65.029.002.14h1.044v.137h.835v-.277h.418v-.14h.418v-.14h.627v-.14h.626v-.137h.627v-.14h.104v.14h.523v.278h.627v-.14h.209v-.138h.103v-.14h.209v-.14h.418v-.139h1.044v.14h.104v.14h.105v.14h.104v.137h.21v.14h.626v-.14h1.567v.14h.94v-.14h.313v-.138h.732v-.14h.104v-.418h.104v-.278l-.104-.025v-.114h-.104v-.14h-.21v-.417h.418v.138h.313v.138l.105.002v.14h.209v.139h.417v-.14h.418v-.14h.314v-.14h.417v.14h.105v.28h.105v.556h-.105v.28h-.314v.14h-.417v.276h.104v.14h.209v.14h.104v.14h.21v.137h.313v.14h.21v.14h.312v.139h.94v.14h1.463v-.14h1.774v-.14h.314v-.279h.104v-.277h.105l-.022-.42h-.083v-.416h.105v-.28h.105v-.416h.104v-.28h1.044v.14h.418v.14h.105v.14h.208v.137h.104v.14h.21v.14h.313v.139h.208l-.007-.178-.005-.101h-.091v-.278h-.105v-.279h.418v-.14h.209v-.14h.21v-.137h.104v-.279h.105v-.419h.417v-.138h1.672v-.14h.286l.027-.139h.209v-.14h.313v-.139h.21v-.138h.104v-.14h.104v-.139h.627v.14h.209v.14h.104v.137h.208v.28h.105v.139h.731v-.14h.21v-.14h.313v-.139h.208v-.138h.21v-.14h.313v-.139h.417v-.14h.314v-.14h.836v-.139h.417v-.137h.314v-.14h.209v-.14h.313v-.14h.209v-.139h.418v-.138h.417v-.14h1.045v-.139h.731v.14h.418v.14h.418v.137h.522v.14h.105v.14h.208v.139h.105v.14h.209v.137h.104v.14h.105v.139h.208v.14h.105v.14h.104v.14h.102l.003.137h.104v.14h.105v.279h.104v.277h.105v.14h.105v.696h-.105v.28h.208v.139h.21v-.14h.104v-.14h.105v-.14h.104v-.137h.105v-.14h.103v-.139h.105v-.14h.21v-.14h.104v-.139h.209v-.138h.104v-.14h.209v-.139h.104v-.14h.21v-.139h.104v-.138h.209v-.14h.104v-.139h.209v-.14h.104v-.14h.21v-.139h.104v-.137h.209v-.14h.104v-.14h.209v-.14h.104v-.139h.21v-.138h.208v-.14h.209v-.139h.418v.14h.313v.14h.499l.024.137h.417v.14h.417v.139h.732v.14h.208v.14h.313v.137h.419v-.138h.314v-.279h.104v-.279h.104v-.138h.21v-.14h.104v-.139h.313v-.14h.313v-.14h.314v-.139h.314v-.138h.208v-.14h.104v-.139h.21v-.14h.104v-.139h.627v.14h.209v.14h.94v-.28h.626v-.138h1.254v-.14h.208l.001-.139h.208v-.14h.105v-.14h.209v-.139h.105v-.137h.208v.137h.104v.14h.21v.14h.104v.112l.21.027v.14h.104v.14h.104v.114l.104.023v.14h.209v.14h.105v.118l.104.02v.14h.105v.138h.087l.018.14h.103l.001.14h.104v.14h.104v.139h.314v-.14h.105v-.28h.104v-.139h.105v-.277h.103v-.14h.21v-.279h.104v-.138h1.045v-.14h.209v-.278h.103v-.28h.314v-.137h.626v-.14h.314v-.14h.21v-.14h.209v-.139h.103v-.138h.21v-.14h.104v-.139h.209v-.14h.104v-.14h.313v-.139h.21v-.137h.313v-.14h.208v-.14h.21v-.14h.313v.14h.105v.115l.05.002.576.023v-.14h.314v-.14h.417v-.139h.21v-.277l.104-.025v-.394h.105v-.14h.104v-.137h.105v-.14h.313v-.14h.209v-.14h.522v.14h.418v.14h.313v-.14h.209v-.14h.209v-.139h.209v-.138h.312v-.14h.731v-.139h.523v-.14h.417v-.139h.627l.001.14h.836v.14h.103v.139h.098l.002.178.005.239h.104v.14h.105v.139h.21v.14h.313v-.14h.313v-.14h.104v-.416h-.105v-.42h.105v-.277h.314v-.138h.208v-.14h.731v-.14h.523v-.14h.209v-.139h.104v-.137h.104v-.14h.418v-.14h.419v-.14h.835v.14h.313v.14h.314v-.14h.208v-.14h.104v-.139h.105v-.14h.836v.14h.418v-.14h.104v-.277h.105v-.14h.94v-.14h.313v-.139h.104v-.137h.105v-.28h.105v-.279h.312v-.14h.94v-.137h.105v-.14h.21v-.14h.104v-.14h.626v-.139h.105v-.556h.104v-.28h.105v-.137h.104v-.14h.313v-.14h.21v-.139h.313v-.14h.208v-.137h.21v-.14h.208v-.14h.21v-.14h.417v-.139h.418v-.14l.203.002.005-.14h.21v-.139h.522v-.14h.731v-.139h.105v-.14h-.21v-.137h-.208v-.14h-.105v-.419h.105v-.277h.104v-.28h.105v-.416h.104v-.28h.105v-.279h.209v-.137l.104-.002v-.138h.313v-.14h.313v-.14h.314v-.139h.313v-.14h.313v-.137h.21v-.14h.313v-.14h.104v-.139h.21v-.14h.103v-.137l.105-.002v-.138h.21v-.14h.104v-.14h.104v-.139h.21v-.14h.103v-.137h.314v-.14h.104v-.14h.105v-.139h.209v-.14h.208v-.137h.731v.137h.105v.14h.104v.28h.105v.695h-.105v.278h-.104v.14h-.105v.139h-.104v.14h-.104v.14h-.105v.416h-.104v.28H370v.139h.522v.138l.104.002v.277h.105v.28h.104v.106l.042.014.063.019v.137h.418v.14h.418v-.14l.209-.028v-.11h.209v-.139h.209v-.14h.522v-.14h.626l.001-.139h.522v-.137l1.567-.002v-.138h.835v-.14h.522v-.14h.314v-.139h.209v-.14h2.193l.001-.137h.104v-.559h.104v-.137l.105-.002v-.278h.104v-.14h.314v-.139h.208v-.14h.836v-.137h.94v-.14h.104v-.279h.105v-.696h-.209v-.14h-.105v-.14h-.103l-.001-.137h-.208v-.14h-.105v-.14h-.105v-.139h-.104v-.277l-.105-.002v-.138h.105v-.28h.104v-.139h.105v-.277h.105v-.14h.104v-.14h.104v-.139h.104v-.277h.105v-.14h.104v-.14h.627v.14h.104v.14h.105v.277h.105v.14h.209v.14h.313v.139h.209v.138h.104v.14h.21v.278h.104v.28h.104v.834h-.104v.14h-.104v.139h-.105v.14h-.105v.14h-.104v.137l-.105.002v.137h-.104v.14h-.104v.264l-.104.015v.278h-.105v.418h-.105v.278l.105.002v.137h.105v.14h.417v.14h1.253v.14h.209v.139h.209v.138h.627v.14h.208v-.14h.21v-.138h.104v.138h.105v-.138h.209v-.419h.208v-.14h.836v-.277h.104l-.025-.28h-.08v-.278h-.104v-.138h-.208v-.14h-.21v-.14h-.104v-.139h-.105v-.277l-.104-.002v-.417h-.103v-.417h.207v-.14h.21v-.14h1.253v-.139h.94v.14h1.15v-.14h.103v-.277h.104v-.28h.105v-.556h.104v-.28h.104v-.278h.104v-.138h.105v-.14h.105v-.14h.104v-.139l.065-.017.04-.012v-.25h.104v-.138h.105v-.14h.103v-.14h-.103v-.139h-.523v-.277h-.105v-.28h.942v.14h1.776v.14h.209v.138h.313v.139h.208v.14h.105v.14h.194l.015.139h.209v.138h.209v.14h.209v.139h.209v.139h.096l.008.14h.105v.14h.104v.138h.209v.14h.313v.139h.314v.139h.208v.14h.314v.138h.314v.14h.313v.139h.104v.14h.105v.14h.104v.139h.21v.137h.103v.14h.105v.976h.104v.14h.105v.139h.104v.137h.731v-.556h.105v-.14h.209v-.14h.209v-.137h.104v-.14h.209v-.14h.104v-.139h.21v-.14h.521v-.137h.314v-.14h.104v-.14h.105v-.418h.105v.14h.731v-.14h.208v-.138h.105v-.14h.313v-.14h.105v-.139h.104v.14h.313v-.14h.21v-.14h.104v-.137h.104v-.28l.105-.034v-.105h.73v.14h.105v.535l.105.021v.139h.104v.417h.104v.14h.523v.139h.209v.279h-.105v.138l-.209.002v.137h-.104v.28h-.105v.14h-.104v.277h-.105v.14h-.104v.418h-.104v.138l-.105.002v.137h-.418v.14h-.104v.28h-.104v.139h-.21v.138h-.208v.14h-.105v.975h-.104v.279h-.105v.138h-.104v.418h.104v.14h.105v.138l.104.002v.137h.105v.14h.209v.14h.104v.14h.105v.139h.104v.138h.104v.14h.21v.139h.208v.14h.105v.139h.208v-.14h.105v-.14h.104v-.139h.105v-.14h.104v-.416h-.104v-.14h-.313v-.14h.104v-.137l.104-.002v-.138h-.104v-.14h.209v-.14h.94v.14h.418v-.14h.313v-.139h.105v-.277h-.105v-.28h-.105v-.279h.105v-.137h.418v.137h.104v-.137l.21-.002v-.138h.104v-.696h.313v-.14h.21v.278h.103v.14h.21v-.14h.104v-.138h.104v-.14h.314v-.14h.104v-.416l-.104-.002v-.138h.104v-.28h.104v-.139h.627v-.14h.209v.14h.104v.14h.105v.14h.104v.14h.105v.139h.209v.137h.208v.14h.314v-.14h.73v-.137h.106v.137h.418v-.137h.104v-.14h.522v-.14h.105v-.279h.104v-.14h.104v-.137h.105v-.14h.104v-.14h.105v-.139h.209v-.14h.104v-.137h.105v-.14h.104v-.14h.104v-.14h.523v.28h.104v.14h.209v.137h.522v-.137h.105v.277h.104v.14h.209v.417h.104v.696l-.104.002v.417h-.209v.14h-.209v.139h-.418v.138h-.104v.14h-.209v.139h-.104v.14h1.88v-.28h-.104v-.696h.104v-.556h-.104v-.558h-.105v-.28h-.105v-.139h-.104v-.277l-.105-.002v-.557h-.104v-.14h-.104v-.277h-.105v-.14h-.104v-.278h-.105v-.138h-.209v.138h-.73v-.138h-.314v.138h-.209v.14h-.522v.139h-.21v.14h-.104v.139h-.104v.138h-.731v.14h-.104v.139h-.314v.14h-.104v.14h-.94v-.14h-.418v-.14h-.21v-.14h-.208v.14h-.418v-.14h-.104v-.14h-.105v-.137h-.209v-.14h-.104v-.279h.104v-.277h.105v-.28h.104v-1.252h.21v.138h.078l.026-.138h.104v-.14h.104v-.14h.836v-.139h.104v-.557h.105v-.14h.314v-.139h.208v-.14h.104v-.137h.628v-.14h.104v-.14h.627v-.139h.104v-.417h.313v-.14h.105v-.14h.418v-.139h.104v-.14h.104v-.137h.105v-.279h-.105v-.14h.105v-.14h.104v-.14h.314v-.137h.103v-.14h.105v-.554h.104v-.28h.104v-.139h.21v-.14h.104v-.14h.104v-.137h.105v-.14h.104v-.139h.104l.001-.14h.104v-.14h.104v-.137h.105v-.14h.104v-.14h.105v-.139h.105v-.14h.104v-.14h.104v-.137h.104v-.836h-.104v-.279h.104v-.14h.732v-.139h.209v-.138h.104v-.279h.105v-.14h.104v-.14h.314v-.137h.104v-.14h.104v-.279h.105v-.14h.104v-.139h.105v-.138h.104v-.14h.21v-.139l.104-.004v-.135h-.105v-.14h-.313v.14h-.21v.139h-.312v.14h-.21v-.14h-.104v-.14h-.104v-.14h.313v-.137h.209v-.14h.104v-.14h.21v-.139h.104v-.279h.209v-.138h.313v.138h.104v.14h.627v.14h-.104v.139h-.105v.279h.105v.138h.417v-.138h.418v-.14h1.358v.14h.105v.138h.104v.14h.105v.14h.104v.139h.209v-.14h.209v.14h.104v.14h.731v-.14h.106v-.14h.104v-.14h.105v-.14h.418v-.137h.105v-.42h-.105v-.14h-.209v.14h-.627v-.14h.313v-.139h.21v-.138h.626v.138h.417v-.138h.21v-.14h.626v-.139h.105v-.28h.104v-.416h.105v-.14h.521l.002.14h.103v.14h.105v-.14h.731v-.14h.313v.14h.314v.14h.627v-.14h.313v-.14h.104v-.14h.105v-.277h.209v.138h.104v.14h.105v.14h.939v-.14h.314v-.14h.209v.14h.209v.279h.105v.14h.626v-.14h.104v-.14h.21v-.14h.417v-.139h.209v-.138h.105v-.14h.73v-.139h.627v-.14h.314v-.139h.209v.14h.103l.001-.14h.104v-.138h.21v-.14h.522v-.139h.313v-.14h.314v-.14h.417v.14h.209v-.14h.314v-.139h.417v-.138h.523v.138h.313v.14h.104v.14h.105v.418h.104v.278h-.416v.14h-.106v.416h.105v.14h.627v.14h.313v-.14h.105v-.14h.104v-.277h.105v-.14h.313v-.14h.522v-.139h.105v-.138h.104v-.14h.418v-.139h.314v.14l.312-.021v-.119h.105v-.14h.105v-.14h.104v-.139h.731v-.138h.105v-.558h.104v-.417h.105v-.279h.104v-.278h.627v.138h.209v-.138h.209v-.14h.104v-.139h.209v.14h.313v.975h-.104v.138h-.105v.14h-.104v.14h-.313v.139h-.105v.277h.105v.14h.313v-.14h.73v.14h.21v.14h.626v-.14h1.463v-.14h.522v.14h.523v.14h-.105v.139h.105v.14h.73v.14h.418v-.14h.418v-.14h.105v-.14h.103v-.416h.313v.137h.627v-.138h.314v-.14h.313v-.139h.104v-.14h.314v-.139h.209v-.138h.313v-.14h.313v-.139h.314v-.14h.626v-.14h.105v-.139h.314v-.138h.103v-.14h.21v-.139h.208v-.14h.21v-.139h.104v-.138h.104v-.14h.209v-.139h.104v-.418h-.104v-.277h.104v-.14h.523v.14h.104v.14h.104v-.14h.627v.14h.105v.137h.088l.016.14h.314v.28h-.105v.278h.105v.138h.078l.011.061.015.079h.105v.139h.313v.14h.104v.14h.105v.696h.104v.14h.187l.023-.14h.312v-.14h.105v-.279h.104v-.14h.105v-.417h.104v-.14h-.104v-.139h-.105v-.138h-.104v-.14h-.105v-.279h-.104v-.14h-.208v-.139h.521v-.137h.105l.007.522.097.034v.28h.105v.137h.313v-.138h.104v-.14h.21v-.139h.104v-.14h.209v-.14h.104v-.276h-.104v-.28h-.104v-.14h.104v-.277h.104v-.14h.104v-.558h.105v-.417h.104v-.279h.105v-.138h.314v.138h.731v.14h.105v.14h.521v-.14h.105v-.278l.209-.011v-.268h-.314v-.836h.105v-.14h.314V88.9h.835v-.138h.208v.138h.105v.14h.418v-.14h.105v-.137h.104v.137h.313v-.138h.105v-.418h.209v-.14h.417v-.14h.209v-.137h.105v-.14h.105v-.14h1.252v-.14h.314v-.139h.105v-.138h.208v-.14h.105v-.139h.731v.14h.94v.14h.104v.116l.066.004.248.017v.14h.94v.14h.418l-.001.14h.104v-.14h.105v.14h.21v-.14h.521v.14h-.103v.246l.103.03v.14h.314v-.14h.209v-.137h.105v-.14h.104v.14h.418v.137h.94v-.137h.104v.137h.105v.14l.313-.03v-.11h.104v-.137h.105v.137h.209v.14h.208v.14h.105v.14h.312v.139h.626v-.14h.106v.14h.313v-.14h.627v.14h.313v-.14h.105v-.14h.104v-.139h.418v.28h.104v.416h-.104v.28h-.21v.139h-.103v.277h.103v.14h.105v.28h-.208v.139h-.209v.139h-.105v.138h-.208v.14h-.104v.14h-.105v.279h.105v.137h.313v-.137h.21v.137h.416v-.137h.105v.137h.94v.14h.105v.14h.209v.14h.73v-.14h.209v.279h-.103v.14h-.21v.137h-.209v.14h-.626v.14h-.314v.139h-.104v.14h-.105v.137h-.627v.14h-.104v.14h-.105v.14h-.103v.139h-.105v.14h-.209v.118l-.104.019v.279h-.105v.28h-.21v.137h-.207v.14h-.105v.14h-.104v.418h.104v.138h.105v.14h.103v.279h-.103v.14h-.105v.416h.105v.14h.417v.28h.21v.277h.104v.14h.209v.139h.103v.14h.105v.137h.104v.14h.21v.14h.313v.139h.313v.14h.21v.14h.104v.137h.104v.14h.209v.14h.627v.139h.208v.14h1.671v.137h.314v.14h.209v-.14h.105v-.277h1.462v.14h1.149v.137h.105v.698h.103v.138h.105v.28h.104v.139h.105v.14h.105v.137h.104v.419h-.104v.28h-.314v.137h-.522v-.138h-.522v-.14h-.21v-.14h-.104v-.139h-.418v-.14h-1.148v.14h-.21v.14h-.313v.14h-.105v.14l-.417-.035v-.106h-.417v.14h-.105v.138h-.104v.14h-.21v.114l-.05.012-.054.013v-.14h-.105v.14h-.312v.14h-.314v.14h-.314v.137h-.104v.14h-.104v.558h-.21v.138h-.313v.14h-.522v.139h-.835v.14h-.105v.556h-.104v.14h-.94v-.14h-.21v.14h-.417v.14h-.314v-.14h-.104v-.42h-.105v-.137h-.522v.138h-.417v.14h-1.462v-.14h-.209v-.138h-.208v.138h-.105v.14h-.523v.14h-.522v.139h-.104v.14h-.21v.139h-.104v.138h-.208v.14h-.104v.116l-.105.023v.14h-.21v.277h-.104v.28h-.418v.139h-.209v.14h-.104v.139h-.105v.277h-.208v.14h-.209v.14h-.104v.14h-.105v.137h-.104v.28h-.105v.278h-.208v.14h-.105v.138h-.209l-.019.114-.085.025v.134l-.105.006v.277h-.105v.138h-.104v.279h-.104v.14h-.107v.139h-.103v.115l-.104.025v.277h-.105v.14h-.104v.28h-.105v.277h-.105v.14h-.103v-.14h-.523v.14h-1.462v.14h-.105v.279h.105v.138h.626v.139l1.136-.006.075.002.148.004v.14h.312v.14h.105v.416h.105v.28h-.105v.14h-.105v.139h-.209v.138h-.103v.279h-.105v.14h-.314v-.14h-.314v.14h-.416v.139h-.315v.138h-.94v-.278h-.104v-.14h-.104v.14h-.104v.14h-.21v-.14h-.626v-.14h-.732v.14h-.103v.417h.103v.14h.105v.14h.313v.107l.105.032v.14h.105v.137h.626v.14h.522v.14h.104v.14h.523v-.14h.732v-.14h.104v-.277h.417v.137h.105v.14h.209v.14h.209v.279h.105v.138h.208v.558h-.522v.138l-.21.002v.137h-.521v-.137h-.104v.137h-.627v.14h-.314v.14h-.104v.417h-.418v.14h-.209v-.14h-1.045v-.138h-.522v.138h-.418v.14h-.104v.139h-.313v.14h-.104v.416h-.105v.14h-.105v.14h-.104v.836h.104v.139h.418v.138l.209.002v.137h.104v.14h2.194v.14h.104v.14h1.254v-.14h.209v.14h.105v.139h.103v.138h.104v.14h.524v.139h.104v.14h.313v-.14h.104v.556h.105v.14h-.105v.556h.105v.14h.418v-.14h.104v-.137h.104v-.28h.105v-.14h.105v-.139h.104v-.417h.522v-.14h.209v.14h.418v-.14h.418v.28h.104v.138h.731v.279h.105v.14h-.105v.416h.105v.14h-.105v.419h.105v.277h.105v.42h-.105v.276h.105v.559h-.105v.277h-.105v.14h-.105v.279h-.104l-.022-.14h-.081v.14h-.105v.14h-.105v.417h-.313v.14h-.105v.139h-.105v.138h-.104v.14h-.208v.139h-.21v.279h-.104v.14h-.104v.137h-.105v.28h-.105v.14h-.103v.139h-.21v.138h-.104v.14h-.104v.139h-.105v.14h-.21v.139h-.103v.14h-.105v.137h-.208v.14h-.105v.14h-.21v.14h-.104v.139h-.208v.137h-.314v.14h-.314v.14h-.104v.14h-.313v.279h-.209v-.14h-.21v-.14h-.939v.115l-.104.025v.115l-.418.025v-.14h-1.567v.14h-.209v.137h-.104v.14h-.105v.279h-.104v.277h-.104v.28h-.104v.696h.104v.279h.104v.277h.104v.14h.105v.14h.104v.14h.105v.139h.314v.277h.103v.14h1.045v-.278h.104v-.14h-.104v-.278h-.627v-.14h-.104v-.14h-.21v-.696h.105v-.138h.105v-.14h.104v-.139h.105v-.14h.417v-.139h.418v-.14h.21v.14h.104v.14h.104v.14h.104v.416h.091l.014.696h.196l.013.28h.105v.11l.104.03v.139h.105v.277h.103v.111l.418.029v.14h.21v.139h.208v.277h.104v.14h.105v1.254h.105v.278h.104v.14h.105v.279h.105v.556h.104v.28h.105v.137h.312v.14h.105v.279h.105v.28h.104v.277h.104v.14h.105v.139h.208v.14h.105v.137h.105v.14h.104v.14h.105v.139h.104v.14h.208v.14h.105v.137h.627v-.138h.104v-.14h.313v-.139h.94v-.14h.106v-.14h.104v-.139h.105v-.138h.103v-.14h.104v-.139h.105v-.14h.21v-.139h.209v-.138h.104v-.14h.105v-.139l.079-.01.024-.13h.523v-.14h.731v-.139h.417v.14h.314v.14h2.82v-.14h.418v-.14h.314v-.137h.104v-.14h.105v-.14h.104v-.14h.105v-.139h.208v-.138h.21v-.14h.208v-.139h.105v-.14h.208v-.14h.105v-.139h.313v-.138h.627v-.138h.104v-.14h.21v-.14h.312v-.139h.837v-.138h.103v-.14h.105l-.007-.16-.038.021h-.895v.14h-.313v.14h-.836v.137h-.313v.14h-.314v.14h-.104v.139h-.209v.14h-.104v.137h-.21v.14h-.209v.14h-.208v.14h-.104v.139h-.105v.14h-.104v.137h-.419v.14h-.103v.14h-.314v.139h-2.611v-.14h-.314v-.14h-.104v-.139h-.418v.14h-.522v.14h-.522v.139h-.313v.14h-.21v.137h-.104v.14h-.104v.14h-.105v.139h-.21v.14h-.104v.14h-.103v.137h-.105v.418h-.21v.14h-.313v.137h-1.148v-.138h-.21v-.14h-.104v-.139h-.209v-.14h-.105v-.139h-.103v-.138h-.105v-.14h-.209v-.279h-.104v-.279h-.105v-.137h-.105v-.28h-.104v-.279h-.104v-.138h-.105v-.14h-.104v-.279h-.104v-.14h-.314v-.835h.104v-.138h.105v-.14h.105v-.139h.104v-.14h.21v-.14h.086l.017-.139h.104v-.137h.105v-.14h.209v-.14h.105v-.279h.104v-.138h.105v-.14h.103v-.139h.105v-.28h.105v-.139h.104v-.417h-.104v-.279h.104v-.277h.105v-.696h.104v-.28h.105v-.14h.104v-.139h.522v-.556h-.104v-.14h-.105v-.14h-.105v-.277h-.104v-.836h.104v-.14h.628v.14h.312v.14h.105v.14h.21v.137h.313l-.001.14h.21v.28h.104v-.14h.105v.14h.104v.139h-.104v.277h-.105v.28h-.105v.416h.105v.14h.105v.14h.104v.139h.21v.14h.73v-.14h.105v-.28h-.105v-.276h-.104v-.14h-.105v-.14h-.104v-.14h-.105v-.139h.105v-.277h.731v-.14h.313v-.14h.105v-.14h.312l.001-.139h.209v-.137h.104v-.14h.105v-.14h.104v-.696h-.104v-.28h.417v.14h.418v-.14h.21v-.139h.417v.14h.314v-.14h.731v-.137h.521v-.14h.732v-.14h.313v-.14h.104v-.139l.105-.02v-.12h.105v-.277h.313v.14h.731v-.14h.209v-.14h.104v-.416h.105v-.559h-.105v-.14h-.208v-.137h-.105v-.14h-.209v-.14h-.522v-.139h-.313v-.14h-.21v-.277h-.104v-.14h-.105v-.14h-.103v-.139h-.105v-.14h-.209v-.137h-.313v-.14h-.105v-.14h-.104v-.139h-.104v-.14h-.21v-.137h-.209v-.14h-.104v-.14h-.104v-.14h-.21v-.139h-.104v-.14h-.105v-.137h-.104v-.14h-.105v-.975h1.776v.14h.209v-.14h.626v.14h.732v-.14h.313v-.14h.209v-.137l.522-.002v-.138h.314v-.14h.103v-.556h.105v-.14h.104v-.279h.105v-.277l.105-.002v-.278h.104v-.14h.522v-.139h.105v-.14h.209v-.137h.104v-.14h.105v-.14h.103v-.139h.105v-.14h.21v-.277h.104v-.14h.104v-.14h.105v-.278h.104v-.834h.105v-1.115h.104v-1.253h.104v-.28l-.104-.014v-.264h-.104v-.138h-.105v-.14h.105v-.14h.313v-.139h.209v.14h.417v.14h.1l.005.139h.21v.137h.313v-.137h.209v.138h.104v.14h.105v.139h1.671v-.14h.418v-.14h.21v-.137h.626v.138h.626v-.138h.21v.138h.104v.14h.104v.139h.105v.556h-.105v.42h.105v.276h.104v.42h.104v1.112h-.104v.28h-.104v.14h-.105v.139H492v.138h-.104v.139H492v.14h-.104v.14h-.314v.14h-.731v.137l-.209.002v.137h-.208v.14h-.105v.14h-.104v.417h-.105v.279h-.104v.556h-.105v.697h.105v.14h.104v.139h.21v.14h.312v.139h.314v.138l.104.002v.137h.105v.28h.104v.14h.105v.139h.104v.138h.209v-.138H492v-.14h.21v.14h.626v.138h.209v.279h.104v.137l.522.002v-.14h.418v-.139h.209v-.14h.21v-.137h.416v-.14h1.881v.12l.418.02v-.14h.835v.14h1.044l.001-.14h.105v-.28h.103v-.139h.105v-.277h.105v-.696h.104v-.559h.105v-.137l.104-.002v-.138h.105v-.28h.103v-.139h.105l-.015-.168-.09.029v-.138h-.312v.138h-.105v.14h-.104v.278h-.105v.417h-.105v.419h-.104v.167l-.001.25h-.313v.14h-.105v.14h-.104v.139h-.105v.277h-.417v-.14h-.21v-.137h-.104v-.419h-.104v-.14h-.105v-.137h-.313v.138h-.104v.279h-.105v.14h-.104v-.14h-.105v-.28h-.104v-.137h-.209v-.14h-.313v-.14h-.94v.14h-.419v-.14h-.626v-.139h-.21v.14h-.417v-.14h-.104v-.14h-.105v-.417h.209v-.14h.105v-.415h.105v-.14h.208v-.14h.104v-.139h.105v-.14h.105v-.137h.104v-.28h.105v-.14h.104v-.139h.105v-.974h.208v-.14h.105v-.419h.104v-.277h.105v-.14h.104v-.14h.209v-.696h.105v-.556h.104v-.28l.104-.024v-.532h.105l-.008-.057-.012-.082h-.085v-.557h-.105v-.14h.105v-.418h-.104v-.138h-.104v-.14h-.105v-.558h-.104v-.278h-.105v-.418h-.104v-.974h.313v-.14h.209v-.14h.522v-.139h.522v-.14h.731v-.137h.731v-.14h.523v-.14h.731v-.139h.314v-.14h.835v-.14h.105v-.137h.313v-.14h.73v-.139h1.15v-.14h.104v-.277h.105v-.28h.105v-.418h.104v-.138h.104v-.419h-.104v-.556h-.104v-.557h-.105v-.14h-.105v-.279h.105v-1.113h-.105v-.14h-.104v-.278h.104v-.14h-.104v-.557h.104v-.279h.105v-.138h.105v-.14h.208v-.139h.209v-.14h.104v-.14h.105v-.137h.105v-.14h.104v-.139h.627v-.14h.522v-.14h.209v-.139h.313v-.138h.105v-.14h.626v-.139h.21v-.14h.104v-.139h.104v.14h.209v-.14h.313v-.138h.418v-.14h.104v-.279h.627v-.14h.313v-.139h.105v-.138h.836v-.14h.104v-.139h.21v-.14h.104v-.277h.313v-.14h.209v-.139h.105v-.14h.104v.14l.044-.002.269-.013v-.125h.418v.14h.105v-.14h.104v.14h.313v-.14h.104v-.14h.105v.28h.105v.14h.835v-.14h.105v-.14h.836v-.139h.417v.139h.418v.28h-.209v.14h-.209v.137h-.105v.28h.105v.415h.104v.14h.105v.14h.209v.139h.313v.14h.418v.14h.105v.137h.104v.14h.836v.14h.104v-.14h.836v-.14h.103v-.138h.105v-.14h.105v-.139h.104v-.14h.105v-.416h.104v-.14h.105v-.278h.207v-.054l.002-.086h.208v.11l.233.016.186.014v.14h.104v-.14h.105v-.278h.104v-.14h.418v-.139l.104-.002v-.138h.105v-.14h.104v-.416h.208v-.14h.419v.14h.209v.14h.417v-.14h.105v-.14h.104v-.14h.105v-.277h-.105v-.14h-.104v-.139h.104v-.14h.105v-.279h.312v-.137h.105v-.28h.105v-.417h.208v-.14h.079l.026-.139h.105v-.14h.208v-.14h.105v-.276h.104v.137h.418v.14h.208v-.14h.105v-.137h.105v.137h.313v-.137h.105v-.14h.208v-.14h.105v-.14h.209v.14h.209v-.139l.105-.008v-.132h.104v-.138h.105v-.14h.104v-.139h.104v-.14h.418v-.139h.105v-.14h.104v-.137h.209v-.14h.313v-.14h.522v-.139h.21v.14h.313v-.14h.313v.14h.627v-.14h.208v-.14l.105-.006v-.55h.104v-.14h.419v-.14h.104v-.556h.522v-.14h.105v.14h.417v-.14h.105v-.277h.104v-.14h.21v-.279h.104v-.138h.185l.023.138h.314v-.138l.104-.002v-.137h.105v.137h.209v-.137h.208v-.14h.314v-.14h.104v-.14h.105v-.276h-.105v-.14h-.104v-.14h.313v-.14h.209l.011-.106.093-.058v-.252h.105v-.14h.104v-.14h.21v.14h.104v.14h.105V85h.626v-.138h.105v-.14h.522v.14h.104V85l.418.001v.138h.313v.14h1.15v.419h.104v.137h.417v-.137h.314v-.14h.417v.14h.523v.137h.417v-.137h.419v-.14h.104v.126l.209.014v-.14h.104v-.419h.21v-.138l.313-.002v-.137h.104V85l.104.001v.278l.314-.01v-.13h.104v-.138l.105-.002v-.277h.104v-.14h-.104v-.556h.209v.14h.208v.137h.21v.836h.088l.006.052.01.088h.104v.279h.21v.14h.103v.137h.105v.14h.104v-.14h.105v-.137h.104v-.14h.105v-.14l.104-.002v-.415l.105-.002v-.137h.104v-.14h.104v-.28h.105v-.139h.104v-.137h.105v-.559h.104v-.138h.314v.138h.104v.14h.104v.14h.21v.139h.104v.14h.105v.556h-.105V85h-.104v.14h-.105v.139h-.105v.279h-.104v.277h-.105v.28h.105v.279h.104v.137h.21v-.137h.104v-.14h.105v-.14h.209v-.14h.104v-.139h.104v-.277h.105v-.28H546v-.415h.105v-.14h.104v-.14h.105v-.279h.104v-.277h.104v-.557h.105v-.14h.104v-.139h.21v-.14h.104v-.416h.105v-.28h.104v-.14h.417v-.139h.21v-.138h.104v-.14h.104v-.139h.105v-.14h.104v-.139h.104v-.417h.105v-.28h.104v-.139h.105v-.138h.105v-.14h.104v-.139h.105v-.14h.103v-.139h.105v-.14h.104v-.137h.419v-.14h.104v-.28h.313v.141h.314v-.28h.104v-.137h.105v-.14h.208v-.14h.105v-.14h.104v-.139h.105v-.14h.105v-.137h.104v-.14h.105v-.28h.208v-.139h.313v.14h.105v.14h.522v.14h.314v-.14l.104-.002v-.138h.105v-.417h.73v-.14h.627v.14h.314v-.14h.105v.14h.104v.14h.626v-.14h.105v-.14h.105v-.279h.208v.419h.104v.14h-.104v.277h.104v.128l.105.012v.14h.209v.139h.105v-.14h.104v-.14l.208-.015v-.124h.21v-.14h.313v.14h.731v.14h-.105v.416h-.104v.28h-.104v.14h-.209v.279h.104v.137h-.104v.14h-.104v.14h-.105v.279h.105v.138h.104v.14h.313v.108l.21.03v.14h.104v.14h-.105v.14h-.105v.277h-.208v.14h-.105v.416h.105v.697h-.119l-.404.001v.138h-.208v.14h-.21v.14h-.104v.139h-.104v.14h-.209v.137h-.21v.14h-.313v.14h-.104v.14h-.209v.139h-.104v.277h-.105v.28h-.104v1.392h.104v.279h-.104v.556h.104v.14h.105v.14h.104v.417h-.104v.696h-.105v.14h-.104v.126l-.105.013v.14h-.208v.137h-.104v.14h-.105v.28h-.105v.139h-.314v.14h-.209v.137h-.103v.14h.103v.279h-.103v.277h-.105v.14h-.209v.14h-.104v.14h-.105v.278h.105v.278h.091l.013.279h-.104v.417h-.105v.14h-.418v.14H553v-.14h-.21v.14h-.104v.139h-.105v.14h-.104v.556h.104v.14h.105v.137h.104v.14h.105v.28H553v.139h.104v.417h.105v.14h.104v.139h.208v-.14h.105v-.14h.209v-.139h.417v-.138h.523v.557h-.105v.14h-.104v.277h-.105v.14h.105v.14h.21v.139h.209v.14h.104v.137h.103v.14h.21v-.14h.104v-.418h.105v-.836h-.105v-.835h-.104v-.14h-.105v-.14h-.208v-.137h.103v-.14h-.103v-.14h-.314v.14h-.105v.556l-.453-.015-.068-.002V92.8h-.105v-.14h-.105v-.137h-.104v-.14h-.314v-.14h-.313v-.14h.105v-.277h.313v-.14h.209v-.139h.105v-.14h.104v-.14h.105v-.139h.103v-.417h.105v-.279h.209v-.138h.104v-.14h.105v-.139h.314v.14h.103v-.14h.105v.14h.105v.14h.104v.137h.21v-.417h-.105v-.14h-.105v-.139h-.104v-.14h-.105v-.137h-.105v-.14h.105v-.14h.105V88.9h.104v-.973h.105v-.14h.209v-.14h.105v-1.392h-.105v-.28h.104v-.973l.104-.002v-.416h-.104v-.417h.104v-.42h.105v-.139h.104v-.138h.21v-.14h.208v-.139h.209v-.14h.104v-.139h.21v-.14h.313v-.137h.418v-.14h1.358v-.14h.104v-.416l-.104-.002v-.278h-.105v-.696h.105v-.419h.522v-.138h.209v-.14h.417v-.139h.628v-.279h.208v-.14h.209v-.137h.105v.277h.104v.14h.626v.14h.105v-.14h.105v.14h.313v-.14h.104v-.14h.104v-.277h.105v-.14h.314v-.14h.417v-.14h.105v-.139h.313v.14h.105v.14h.104v.14h.104v.277h.105v.14h.104v.278h.105v.14h.626v-.14h.104v.14h.105v.14h.313v-.14h.21v.14h.103v-.14h.835v-.14h.419v.14h.835v-.14h.105v-.14h.104v-.279h.105v-.137h.417v-.14h.105v.277h-.105v.14h.105v.14h.209v-.14h.104v-.14h.104l.001.073v.067h.208v.14h.523v.278h.105v.14h.208v-.14h.105v-.139h.418v.697h.104v.14h.104v.276h.105v.14h.104v.558h.314v-.14h.209v.14h.208v-.14h.314v.14h.104v.138h.105v.14h.104v.14h.104v.279h.105v.833l-.105.002v.278h-.207v.139h-.105v.417h.105v.14h.208v.28h.105v.139h.104v.696h-.104v.417h-.105v.28h-.104v.276l.104.002v.138h.105v.28h-.105v.279h-.313v-.559h-.209v-.14h-.522v.28h.105v.556h-.21v.28h-.105v.14h-.104v.139h-.21v.137h-.312v.14h-.314v.14h-.522v.14h-.209v.278h-.105v.138h-.104v.419h-.105v.277h-.105v.28h-.208v.14h-.104v.139h-.105v.417h.105v.14h.208l.001.416h.208v.14h.21v.14h.418v.14h.208v.139h.105v.14h.209v.137h-.105v.14h-.105v.14h-.104v.139h-.105v.14h.628v-.14h.104v-.14h.313v-.14h.314v-.277h.209v-.14h.313v-.418h.104v-.14h-.835v-.277h-.731v-.14h-.21v-.14h-.104v-1.252h.209v-.14h.21v-.14h.104V88.9h.208v-.138h.21v-.14h.626v-.139h.209v-.14h.104v-.139h.21v-.14h.208v-.137h.313v.137h.21v.113l.06.004.357.023v-.556h.522v-.14h.21v-.278h.104v-.14h.104v-.139h.104v-.14h.419v.28h.104v.277h.105v.14h.103v.14h.105v.14h.105v.139h.209v.137h.104v.14h-.209v.14h-.104v.14h-.209v-.28l-.104-.027v-.113h-.105v.14h-.104v.558h.104v.417h.105v.14h.103v.14h.314v-.14h.105v-.14h.313v-.14h.104V88.9h.418v-.138h.418v-.14h.313v-.278h.105v-.14h.313v-.14l.105-.01v-.127h.208v-.14h.105v-.14h.104v-.14h.314v-.139h.104v-.277h-.104v-.14h-.627v-.14h-.94v.14h-.104v-.14h-.105v-.279h-.104v-.137h-.105v-.28h.105v-.279h.626v-.137h.21v.137h.208v.14h.105v.14h.313v.14h.104v.139h.522v-.14h.21v-.14h.417v-.14h.105v-.139h.208v-.137h.523v.696h.105v.137h.626v-.277h.105v-.14h.209v.14h.104v.14h.104v.137l.105.002v.138h.104v.28h.105v.139h.313v-.14h.209v.14h.104v.14h-.104v.277h.104v.14h.418v-.14h.21v-.14h.103v.14h.418v.28h-.104v.276h-.105v.14h-.104v.14h-.209v.14h-.104v.139h-.21v.14h-.104v.416h-.104v.28h-.105v.277h.105v.14h-.105v.696h.105v.279h.104v1.113h-.104v.419h.104v.14h.105v.137h-.105v.14h-.104v.14h-.105v.556h-.836v.28h-.104v.278h.105v.138h-.105v.28h-.104v.418h-.104v.138h.104v.14h.104v.14h.105v.139h.104v.14h.105v.137h.104v-.138h.105v.138h.104v.14h.104v.14h.523v.279h.104v.14h-.104v.277h.104v.14h.731v.416h.105v.14h.104v-.14h.209v.14h.313v.14h.21v.139h.104v-.14h.105v.14h.103v.14h.523v-.14h.836v.14h.209v.14h.104v.137h.104v.14h.105v.14h.209v.139h.313v.14h.313v.137h.21v.14h.208v.14h.21v.139h.626v.14h1.15v.14h.417v-.14h.313v.14h.209v-.14h.209v.14h.313v-.14h.105v.14h.208v.137h.105v.14h.104v.14h.314v.139h.209v.14h.94v-.14h2.193v-.14h.105v-.14h.209v-.14h.208v-.137h.105v-.14h.209v.14h.313v.138h.209v.14h.104v1.53h-.104v.14h-.105v.14h.105v.14h.104v.137h.627v.14h.523v.14h.626v.139h.836v.14h.73v-.14h.21v.14h.626v.14h.419v.137h-.105v.558h.105v.138h.313v-.138h.104v.138h.104v.14h.105v-.14h.105v-.138h.104v-.14h.314v-.139h.208v-.14h.314v-.14h.313v-.137h.313v-.14h.314v-.14h.209v-.139h.313v-.14h.209v-.139h.314v-.138h.208v-.14h.209v-.139h.418v-.14h-.105v-.14h.105v-.277h.104v-.14h.209v-.139h.418v.28h.313v-.142h.835v.14h.105v.14h.105v.138h.418v.14h.104v.139h.209v.14h.522v.14h.418v.137h.391l.027.14h.522v.14h1.462v.139h.523v.14h.104v.14h.21v.137h.208v.14h.104v.139h.21v.14h.104v.14h.209v.276h.104v.28h.104v.14h.105v.139h.104v.138h.105v.14h.104v.139h.105v.14h.105v.277h.103v.139h.21v.42h.104v.139h.105v.556h.209v.418h.104v1.114h-.104v.14h-.105v.138h.105v.279h.104v.557h-.104v.14h.104v.556h-.104v.14h-.105v.139h-.104v.14h-.105v.14h.105v.139h.209v.696h.104v.138h.104v.14h-.104v.139h.104v.419h.104v.696h-.104v.138h-.104v.14h-.104v.139h-.105v.14h-.314v.14h-.209v.137l-.313.002v.277h-.104v.14h-.21v.14h-.104v.139h-.104v.138h-.209v.14h-.313v.139h-.105v.14h-.104v.14h-.105v.137l-.208.002v.137h-.314v.14h-.209v-.14h-.104v.28h-.105v.14h-.731v.139h-.105v.138h-.103v.558h-.105v-.14h-.835v-.14h-.105v.14h-.105v-.14h-.104v-.139h-.418v.14h-.209v-.14h-.104v-.14h-.21v-.137h-.104v-.14h-.104v-.14h-.522v-.139h-1.045v-.14h-.209v-.137l-.069-.012-.14-.023v-.105h-.94v.139l-1.775.002v.137h-.418v-.137h-.313v.137h-.21v.14h-.104v.14h-.314v-.14h-.313v-.14h-.313v-.137l-.105-.002v-.278h-.104v-.14h-.104v.14h-.313v-.14h-.105v-.139h-.105v-.277h-.104v-.559h.104v-.137h.105v-.28h.105v-.14h.104v-.139h-.104v-.14h-.105v-.137h.105v-.14h.104v-.418h.105v-1.393h.104v-.556h.208v-.14h.105v-.14h-.105v-.14h.105v-.137h.105v-.558h-.105v-.138h-.731v-.419h-.105v-.14h-.104v-.14h-.105v-.137h-.208v.138h-.105v.279h.105v.14h.208v.14h-.104v.139h-.208v-.14h-.105v-.14h-.105v-.139h-.104v-.14h-.105v-.14h-.105v.14h-.104v-.14h-.103v-.137h-.105v-.14h-.105v-.279h-.104v-.277h-.105v-.14h-.522v-.558h-.104v-.138h-.105v-.28h-.105v-.416h-.104v-.28h.105v-.418h.104v-.138h.105v-.14h.104v-.139h-.104v-.14h-.314v-.277h-.105v-.28h-.104v-.139h-.105v-.14h-.104v-.14h-.104v-.137h-.105v-.14h-.209v.14h-.104v.277h.104v.28h.105v.14h.105v.139h.104v.138h.104v.14h-.104v1.95h-.105v.138h-.104v.28h-.105v.695h-.104v.557h-.105v.558h-.104v.14h-.104v.138h-.209v.14h-.314v.139h-.104v.14h-.105v.975h.105v.556h.104v.14h.105v.138h.104v.14h.105v.558h.105v.138h.104v1.531h-.209v.14h-.523v-.556h-.103v-.28h.103v-.14h-.103v-.137h-.105v-.14h-.105v-.14h-.104v-.556h-.105v-.28h-.104v-.139h-.105v-.14h-.104v-.137h-.209v-.14h.105v-.14h-.105v-.139h-.209v-.277h-.104v-.14h-.105v.14h-.105v-.14h-.521v.14h-.419v-.14h-.208v-.14h-.94v.14h-.105v.14h-.835v.138h-.105v.418h.105v.278h-.105v.279h-.104v.28h-.105v.139h-.104v.138h-.105v.279h.105v.14h.104v.139h.105v.138h.104v.14h.21v.139h.104v.14h.104v.416h.104v.14h.105v.14h.104v.14h.105v.139h.104v.556h.105v.417h.105v.559h-.21v-.14h-.209v.14h-.313v.138h-.104v.418h.104v.14h.209v-.14h.104v.14h.105v.138l.104.002v.277h-.104v.419h.104v.138h.313v.14h.105v.695h.104v.14h.105v.14h-.105v.14h-.312v.139h-.419v.138h-.104v.14h.104v.139h-.104v.14h-.21v.139h-.103v.138h-.105v.418h-.104v.14h.104v.277h-.104v.14h-.314v.14h-.209v.14h-.104v.139h-.104v.138h-.105v.14h-.104v.139h-.21v.14h-.208v-.14h-.104v-.14h-.105v-.556h-.104v-.14h-.105v-.14h-.104v-.137h-.105v-.14h-.731v.14h-.418v.137h-.836v-.137h-.417v-.14h-.21v-.14h-.104v-.14h-.209v-.416h-.104v-.14h-.104v-.14h.104v-.139h-.104v-.277h.104v-.28h-.104v-.14h.104v-.139h.209v-.137l.104-.002v-.278h.105v-.14h-.105v-.139h-.313v.14h-.313v-.14h-.21v-.14h-.104v-.137h-.208v-.14h-.314v.14h-.313v-.14h-.105v-.14h-.208v-.279h-.105v-.14h-.104v-.137h-.419v-.14h-.103v-.14h-.21v.14h-.104v.14h-.731v.138h-.105v.279h.105v.14h-.105v.14h-.209v.139h-.104v.138h.104v.14h-.209v.139h-.104v.14h-.209v.139h-.104v.138h-.105v.279h.105v.14h.104v.14h.105v1.252h-.105v.28h-.104v.416h-.105v.14h-.104v.279h.104v.138h-.313v.14h-.105v.139h-.104v.14h-.104v.14h.104v.556h-.313v.14h-.731v-.14h-.314v-.14h-.104v-.14h-.209v.14h-.104v.28h.103l.001.139h.209v.138h.418v.14h.73v-.14h.314v-.138h.104v-.14h.627v-.14h.105v-.139h.104v-.14h.209v-.137h.209v-.14h.313v-.14h.104v-.14h.314v.14h.313v.28h.105v.417h.105v.14h.208v.139h.627v-.14h.418v-.14h.104v-.139h-.104v-.14h.104v-.137h.105v-.14h.104v-.558h-.104v-.974h.104v-.558h.209v-.138h.313v.417h.105v.28h.104v.139h.313v.137h.105v.14h.104v.14h.105v.14h.104v.139h.105v.138h.104v.14h.21v.278h.103v.14h.105v.14h.522v-.14h.209v.417h.104v.28h.105v.139h.73v.138h.105v.14h.21v.139h.418v.14h.104v.139h.313v.14h.105v.137h.835v-.137h.314v-.14h.208v-.14h.105v-.14h.104v-.139h.105v-.14h.104v-.137h.105v-.28h.105v-.279h.103v-.137h.105v.137h.104v.14h.21v.14h.104v.14h.105v.139h.104v.138h.208v.14h.105v.139h.104v.14h.105v.139h.105v.277h.104v.42h.105v.139h.103v.138h.105v.14h.104v.139h.105v.14h.105v.279h.104v.277h.105v.14h.105v.14h.104v.139h.208v.417h-.104v.419h.104v.137h.628v.14h.103v.14h.105v.835h.104v.14h.21v.14h.104v.137h.105v.28h.104v.139h.104v.14h.104v.417h.105v.14h.104v.278h.105v.138h.105v.28h.104v.139h.104v.417h-.104v.14h-.105v.418h.105v.417h.104v.14h.104v.14h.21v.137h.104v.14h.209v.14h.105v.14h.209v.139h.313v.14h.104v.137h.21v.28h-.105v.278h.104v.138h.105v.42h.105v.139h.207v.417h-.104v.279h-.103v.556h.103v.14h.105v.28h.104v.137h-.105v1.532h.105v.14h.105v.556h.104v.559h.105v.696h-.105v.14h-.104v.277h-.105v.279h-.105v.14h-.104v.14h-.103v.137h-.105v.558h.105v.138h.103v.28h.105v.418h-.105v.138h-.103v.14h-.105v.139h-.105v.14h-.104v.696h.104v.14h.105v.556h-.105v1.811h-.104v.278h.104v.696h-.209v.14h-.105v.139h-.104v.14h-.105v.124l-.103.015v.137h-.105v.14h-.208v.14h-.21v.115l-.21.025v.14h-.207v.137h-1.15v.14h-.418v.14h-.208v.278h-.105v.14h-.209v.138l-.084.006-.02.133h-.105v.14h-.104v.14h-.313v.416h.105v.14h.626v-.14h.104v-.137l.105-.002v-.138h.313v-.139l.104-.008v-.132h.105v-.417h.209v-.14h1.148v-.14h.314v-.139h.314v-.14h.104v-.137l.105-.002v-.138H600v-.14h.105v-.139h.313v-.14h.21v.28h.103v.14h.21v-.14h.104v-.14h.104v-.417h-.104v-.14h.104v-.14h.105v-1.67h.105v-1.81h-.105v-.28h-.105v-.139h.105v-.14h.105v-.277h.104v-.279h.104v.14h.104v1.113h.105v.14h.94v-.14h.626v-.138h.314v-.14h.105v-.14h.104v-.139h.105v-.28h.104v-.695h.104v-.138h.314v-.14h.209v-.14h.209v-.139h.313v.14h.104v.14h.105v.14h.105v.137h.104v.14h.21v.139h.312v.14h.313v-.14h.313v.14h.21v.14h.104v.137h.104v.14h.21v.14h.104v.139h.208v.279h.105v.138h.105v.14h.313v.139h.522v.14h.21v.14h.208v.137h.209v.14h.104v.14h.314v.139h.209v.14h.417v.139h.419v.138h.104v.14h.104v.139h.105v.14h.208v.14h.105v.276h.105v.14h.313v-.14h.104v-.14h.105v.28h.104v.14h.21v.14h.208v.835h-.104v.557h-.105v.277h-.104v.14h-.105v.279h-.104v.28h-.105v.137h-.105v.279h-.103v.28h-.105v.416h-.104v.696h.104v.14h.209v-.14h.105v-.417h.105v-.556l.104-.002v-.277h.105v-.14h.104v.28h.105v.137l.104.002v.137h.104v.14h.21v.14h.104v.14h.104v.139h.21v.138h.104v.14h.313v.139h.209v.28h.104v.137h.522v.28h.105v.139h.104v-.14h.21v-.14h.104v-.277h-.105v-.14h.105v-.139h.105v-.14h-.105v-.14h-.21v.14h-.73v-.14h-.105v-.137h-.104v-.14h-.105v-.14h-.209v-.139h-.313v-.14h-.313v-.14h-.105v-.276h-.104v-.14h-.105v-.14h-.104v-.14h.104v-.277h.105v-.418h.104v-.278h.105v-1.81h-.105v-.28h-.104v-.138h-.209v-.14h-.104v-.14h-.21v-.139h-.626v-.14h-.209v-.137l-.209-.002v-.138h-.105v-.14h-.104v-.139h-.104v-.14h-.418v-.14h-.418v-.137h-.209v-.14h-.104v-.139h-.21v-.14h-.208v-.277h-.104v-.14h-.105v-.14h-.209v-.139h-.313v-.14h-.105v-.14h-.208v-.137h-.21v-.14h-.104v-.139h-.209v-.14h-.105v-.14h-.312v-.137h-.105v-.14h-.105v-.14h-.313v-.139h-.105v-.14h-.208v-.139h-.105v-.138h-.104v-.14h-.105v-.139h-.104v-.14h-.105v-.14h-.208v-.137h-.104v-.14h-.314v-.418h-.105v-.14h-.105v-.138h-.417v-.14h-.313v-.139h-.836v-.14H602.3v.14h-.105v-1.671h.105v-.278h.104v-.14h.104v-.279h.104v-.556h.105v-.14h.105v-.14h.104v-.277h.104v.138h.313v-.138h.105v-.279h.105v-.14h.104v.14h.105v.14h.73v-.14h.105v-.14h.105v-.279h.104v-.277h.417v-.14h.105v-.279h.105v-.138h.105v-.279h.313v-.14h.104v-.975h-.104v-.138h-.523v-.698h-.105v-.137h-.104v-.14h-.208v-1.532h.103v-.14h.419v-.14h.105v-.277h.104v-.14h-.105v-.139h-.104v-.279h.105v-.277h.104v-.42h-.105v-.139h.21v-.138h.104v-.279h-.104v-.14h-.105v-1.252h-.105v-.419h-.104v-.277h.105v-.42h.104v-.276h.105v-1.395h.104v-.417h.104v-.418h.104v-.138h.105v-.836h-.105v-.419h.105v-1.113h.105v-.28h.104v-.278h.104v-.417h-.104v-.557h-.105v-.696h.105v-.28h.94v.28h.105v.138l.104.002v.277h.104v.419h.105v.277h.104v.28h.105v.139h.104v.277h.105v.14h.104v.28h.105v.695h.104v.696h.104v.28h.105v.137h.104v.14h.105v.14h.104v.14h.105v.139h.104v.556h.104v.14h.105v.14h.104v.137h.105v.14h.104v.14h.105v.14h.104v.276h.105v.14h.104v.14h.209v.279h.104v.14h.105v.137h.21v.14h.208v.14h.104v.14h.105v.139h.104v.138h.104v.14h.105v.278h.105v.14h.313v.14h.209v.137h.104v.14h.105v.14h.104v.14h.105v.139h.208v.137h.105v.14h.104v.14h.21v.14h.208v.279h.105v.137h.208v.14h.105v.14h.313v.416h.105v.14h.522v.14h.313v.14h.21v-.14h1.148v.14h.105v.139h.626v.14h.105v.137h.209v-.138h.417v-.14h.105v-.278h.418v-.14h.104v-.14h.21v.14h.312v-.14h.105v-.277h.104v-.14h.105v-.14h.104v-.139h.105v-.277h-.105v-.14l-.104-.03v-.11h-.522v-.139h-.314v-.14h-.209v-.137h-.209v-.28h.21v.14h.313v.14h.417v-.14h.731v-.14h.105v-.14h.104v-.695h-.104v-.14h.104v-.14h.105v-.137h.209v-.14h.417v-.14h.21v-.14h.104v-.139h.21v-.137h.104v-.14h.104v.14h.104v.137h.314v.14h.313v.28h.104v.139h-.104v.138h-.209v.139h-.104v.28h-.105v.279h.105v.137h.313v.14h.418v-.14h.104v-.137h.418v.137h.522v.117l.313.006v-.123h1.15v.14h.104v.14h.314v-.14h.104v-.14h.104v-.277h.104v-.14h.105v-.14h.105v-.139h.104v-.277h.21v.126l.08.004.232.007v.14h.418v.14h.313v-.14h.523v.14h.626v.14h-.104v.139h.104v.14h.21v-.14h.521v.14h.105v-.14h.209v-.14h.104v-.14h.105v-.279h.313v.14h1.045v.14h.104v.14h.105v.139l.522-.017v-.123h.313v.14h.314v.277h.104v.14h.209v.109l.209.03v-.139l.313-.006v-.134h.104v-.137h-.103v-.14h.521v.14l.731-.004v-.415h.105v-.14h.417v.14h1.045v.14h.105v.139h.104v-.14h.105v-.14h.104v.14h.105v-.14h.105v.14h.103v.14h.105v.14h.104v.137h.105v.14h.104v.14h.105v1.115h.105v.137h.208v.14h.522l.004.103.123.021.082.015v.14h.522v-.14h.314v-.14h.313v-.139h.418v.14h.313v.14h1.254v-.14h.314v-.14h.208v-.138h.732v-.14h.208v-.139h.313v-.14h.732v-.139h.209v-.14l.127-.019.082-.013v-.105h.417v-.14h.418v-.14h.313v-.139l.134-.02.075-.01v-.11h.21v-.137h.835v-.14h.731v.14h.21v.137h.104v.14h.103v.14h.314v.14h.21v.139h.104v.277h.104v.14h.104v.14h.104v.139h.105v.277h.105v.14h.418v-.14h.104v-.138h.104v-.418h-.104v-.14h.104v-.14h.105v-.137h.104v-.14h.105v-.14h.418v-.14h.103v-.556h.21v.14h.314v.14h1.044v.137l1.044-.011v-.126h.523v-.14h.104v-.836h.105v-.14h.103v-.14h.105v-.556h.21v-.14h.208v.696h.105v.14h.417v.14h-.104v.14h-.105v.277h-.105v.14h-.208v.14h-.104v.139h-.105v.14h-.209v.416h-.208v.417h-.21v.28h-.104v.14h-.104v.416h.104v.14h.105v.975h.104v.14h.209v.14h.104v.277h.105v.419h-.105v.417h-.105v.279h.314v.277h-.417v.14h-.105v.279h-.104v1.671h.104v.138h.105v.42h-.105v.416h.105v.28h.103v.139h.21v.14h.104v.137h.314v.14h.104v.14h.104v.139h.105v.14h.104v.14h.418v-.14h.209v.14h.209v.137h.104v.14h.21v.418h-.105v.557h-.105v.556h-.104v.28h-.105v.417h.105v1.115h-.105v.277h.105v.14h.104v-.14h.105v-.138h.105v-.558h.104v-.417h.105v-.28h.104v-.556h.104v-.14h.105v.14h.104v-.14h.105v-.14h.104v-.137h.21v.138h-.105v.14h.104v.14h.104v.139h.105v-.14h.104v-.28h.105v-.276h-.105v-.14h-.105v-.14h-.103l-.001-.556h-.104v-.28h-.104v-.139h-.314v-.557h.105v-1.113h-.105v-.279h.21v-.14h.104v-.279h.208v-.138h.627v-.14h.105v-.139h.104v-.14h.104v-.277h-.104v-.14h-.104v-.558h-.105v-.277h-.104v-.14h-.21v.14h-.312v-.14h.103v-.556h.523v.277h.105v.14h.522v-.14h.209v.14h.208v-.417h-.208v-.14h-.105v-.419h.105v-.137h.104v-.14h.104v-.28h.21v.14h.522v-.14h.73v-.139H661v-.138h.314v.138h1.358v.14h.627v.14h.313v.139h.209v.14h.418v.137h.104v.14h.104v.28h.105v.139h.209v.14h.522v-.14h.522v-.14h.21v-.14h.417v.14h.105v.14h-.105v.277h-.105v.28h.105v.139h.314v-.14h.103v-.14h.21v.28h.104v.14h.105v.417h.209v.118l.07.006.243.015v.14h.418v.139h1.357v.138h.21v.14h.104v.124h.05l.785.015v.14h.105v-.14h.21v-.14h.835v.14h.208v.14h.837v.14h.103v-.14h.314v.14h.104v.137h.105v-.138h.313v-.14h.104v.278h.105v.14h.418v-.417h-.105v-.279h-.104v-.14h.209v-.138h.313v.278h.104v.14h.21v.278h.104v.138h.417v-.138h.21v-.14h.313v.14h1.045v.138h.626v-.138h.731v-.14h.105v-.139h.836v.14h.417v.14h.104v.137h.105v.14h.523v.14h.521v.14h.211v.139h.312v.139h.733l-.001.138h.418v.696h.105v.14h.104v-.14h.417v-.137h.105v-.14h.209v.14h-.104v.403l.104.013v.14l.314-.013v-.406h.417v-.137h.105v-.14h.313v-.14h.208v-.14h.105v-.139h.314v-.138h.209v-.14h.313v.278h-.21v.14h-.208v.14h-.209v.139h-.105v.14h-.104v.416h.105v.14h.209v-.14h.104v-.14h.105v-.139h.313v.28h.104v.139h.522v.14h.104v.14h.628v-.14h.418v.417h.104v.14h.314v.138h.104v.14h.104v-.14h.417v.14h.21v.138h.104v.14h.417v-.14h.105v-.138h.104v.138h.105v-.138h.104v-.418h.104v-.14h.732v.14h-.105v.279h.105v.14h.208v-.14h.105v.14h.104v.137h.21v.14h.313v-.14h-.104v-.138h.312v-.14h.419v.14h.104v.557h.105v.14h.313v.14h.104v.276h.105v.28h.104v.14h.105v.277h-.105v.279h.105v.417h-.21v.14h-.104v.139h-.105v.14h-.104v.14h-.105v.137h-.103v.14h-.21v.279h-.104v.28h-1.15v.137h-.206v.28h.103v.278h.105v.138h.104v.14h.105v.139h.105v.419h.085l.007.05.012.088h.3l.013.14h.313v.139h.105v.14h.21v-.14h.104v-.14h.208v-.14h.105v-.137h.209v-.14l.104-.023v-.256h.21v-.14h.104v-.139h.103v-.277h.105v-.14h.21v-.14h.208v-.14h.105v.14h.417v.14h.105v.14h.104v.14h.105v.137h.104v.14h.105v.14h.104l.008.386.071.032.025.138h.314v-.138h.104v.138h.105v.14h.105v.139h.207v.14h.105v.14h.105v.277h.105v.14h.209v.139h.417v.14h.105v.139h.104v.138h.21v.14h.207v.139h.105v.417h-.105v-.138h-.103v.138h-.105v.14h-.209v-.14h-.104v-.138h-.21v-.14h-.208v-.139h-.209v-.14h-.314v-.14h-.21v-.277h-.313v-.14h-.313v.281h.104v.277h.105v.557h-.105v-.138h-.209v-.14h-.105v-.279h-.312v-.14h-.314v.14h-.105v.696h.105v.14h.21v.28h.104v.139h.104v.138h.105v.14h.104v.139h.104v.14h.104v.14h.105v.277h.105v.14h.104v.139h.105v.14h.105v.122l.103.017v.277h.104v.28h.105v.14h.105v.137h.209v.14h.21v.139h.312v.14h.314v-.14h.104v-.14h.208v-.14h.105v-.695h-.105v-.138h.105V146h.732v.14h.104v.138h.209v.14h.104v.139h.21v.14h.312v.14h.627v-.14h.105v-.14h.417v-.14h.21v.14h.209v.14h.208v.14h.104v.137h.105v.279h-.105v.39l.105.029v.138h.314v-.138h.417v.138h.105v.14h.626v.556h.105v.14h.104v.696h.105v.835h-.105v.28h.105v.14h.209v.137h-.105v.28h.105v.139h-.105v.14h.105v.139h.209v.138h.103v.14h.314v-.14h.105v-.278h.209v-.14h.104v.14h.209v-.14h.209v.14h.209v.14h.209v.138h.313v-.138h.209v.138h.104v-.138h.105v-.14h.313v-.14h.209v.14h.21v.14h.104v.138h.209v.14h.103v.278h-.103v.14h-.21v.697h-.104v.277h.105v.279h.209v.14h.103v-.14h.419v.14h.104v.416h.21v.28h.208v.14h-.209v.139h-.104v.138h.104v.14h.313v-.14h.105v-.138h.313v.138h.105v.14h-.21v.139h-.104v.14h-.104v.139h.104v.138h.105v.109l.044.006.165.024v-.14h.104v-.137h.313v-.14h.21v.278h.521v-.138h.105v-.14h.104v-.14h.105v-.139h.104v-.14h.418v.14h.418v-.417h.21v-.14h.312v.14h.105v.278h.313v.14h.21v.139h.312v.14h-.104v.277h.104v.14h.105v.139h.104v.419h.105v.138h.209v.14h.104v.139h.209v.14h.104v.139h.21v.277h.104v.14h.104V157h.209v.14h.209v.14h.104v.14h-.209v.139h-.104v.277h.104v.14h.314v-.14h.104v-.14h.105v.14h.104v.28h-.104v.139h.104v.558h.522v-.14h.105v-.14h.105v-.277h.104v-.14h1.462v-.14h.105v-.139h.208v-.14h.105v-.137h.104v-.14h.314v.278h.104v.14l.157-.014.156-.014.88 2.207-1.287 4.032 1.75 10.733-.697 6.3-2.184 2.772-8.737.824-1.375.767-3.38-.151-2.208 2.803-2.33.959-1.59 3.714-3.336-1.649.16-2.461-2.656-3.089-.08-5.535-8.786 2.85-2.155 3.303-2.527 1.316-1.296-.993-1.556.478-4.066 2.515-4.39-.157-1.312-1.228.708-1.872-.833-2.11-6.943 1.66-.747 1.194-3.12 1.308-3.277-4.724-.638 1.538-3.328 2.184 1.286 6.13-.223 2.104-6.943 2.865-3.782-1.14-3.546 1.897-1.847.159-2.048 3.146-1.223 5.806-2.73 3.416-2.888-2.436-2.569.392 1.096 1.42-2.967 3.007-1.72.564-2.767-1.078-2.916 3.702-2.851-1.444-1.14.743-.101 1.788.857 1.021 1.072 4.68 4.222 7.851-.9 3.752.598 13.528 1.658 5.405.675.042.484 2.268 1.34 1.492 1.788 9.653-1.602.54-2.92-.663-1.453.893-3.04-.49-1.18.668-5.338-2.29-8.04.001-2.493 1.425-5.692-1.702-2.381.036zM366.779 435.257l.205-9.326-2.388-2.788-2.685-.557-1.89-1.303-2.033 2.732-.238 2.82 2.918 3.962-1.355 2.863 2.962 4.567 4.504-2.97zm-27.084-6.63l.005-2.656-.75-1.272-5.019-1.222-2.227 1.525 2.928 4.375 5.063-.75z"/></defs><text transform="translate(319.642 246.5)" font-family="&quot;Tahoma&quot;" font-size="20">Cantabria</text></svg>