<svg xmlns="http://www.w3.org/2000/svg" width="800" height="533" baseProfile="full" style="background-color:false" xmlns:v="https://vecta.io/nano"><style><![CDATA[.B{font-family:&quot;Tahoma&quot;}.C{font-size:13px}.D{filter:url(#A)}]]></style><use href="#B" paint-order="fill" class="D"/><use href="#C" paint-order="fill" class="D"/><use href="#D" paint-order="fill" class="D"/><use href="#E" paint-order="fill" class="D"/><g fill="#eee" stroke="#000" stroke-miterlimit="10" stroke-width=".4"><use href="#B" paint-order="fill"/><use href="#C" paint-order="fill"/><use href="#D" paint-order="fill"/><use href="#E" paint-order="fill"/></g><defs><filter id="A" width="1000%" height="1000%" x="-100%" y="-100%"><feOffset dx="-9.8" dy="9.8" in="SourceGraphic"/><feColorMatrix values="0.2 0 0 0 0 0 0.2 0 0 0 0 0 0.2 0 0 0 0 0 1 0"/><feGaussianBlur stdDeviation="8"/><feBlend in="SourceGraphic"/></filter><path id="B" d="m438.595 413.865-.178-.377.512.036.335-.285.294-.774.306.019.21-.433-.532-.47.034-.241-.452-.322-.039-.574h-.19l-.136-.27-.018-.905-.477-.706.58-.674.498-1.753-.035-1.017.447-1.938-.696-.605-.62-.984 1.758.435.792.893.846.176 1.065-.766v-.382l1.095-.176.39.22.234-.074.211-.389 1.044-.91.423-1.122.73-.522.588-.135.812-2.276.475-.59.084-1.204.548-1.578-.065-.875.285-2.026.422-.592.435-1.877-.538-1.517-1.89-.921-.297-.686-.824-.358-.981-1.647-1.23-1.165-1.373-.328-1.016.277-.98.253-.22-1.734-1.525-1.526-.233-.982.029-1.087.296-1.08-.176-2.17-.373-1.252-.136-1.257-.37.039-.098-.156-.061-1.501-.997-.61-1.16-.348-.627-.492-.224-.803.048-1-.557-.023-.103-.3-.375-.01-3.159.278-.4-.313-.22-.826-.537-.74-.958-.882-.516-.222-.39.044-.889.42-.336-1.408-.31-.268.261-1.89.27-.385.466-.496.173-.731.513-.114.663-1.101 1.423-1.606.561-2.095.066-1.304.503-1.212 1.07.013.43-.277.66.189.293-2.522-.228-1.401.315-2.012-.165-.243.262-.933-1.035-1.951-.654.184-.842-1.634-.293-.901.058-1.104-.876-1.76 1.912-2.447 1.465-3.03 2.452-2.439.89-1.74.2-.776 1.094-1.94 2.851-3.17.695-1.268.105-.506-.129-1.154-.325-1.123-.74-.852-.23-.593-.228-1.412-.437-.965.14-.279 1.168-.353 2.707-.111 1.01.5.767-.553.585.188 1.223-.291.272.13.9-.544.415.133 1.333-.21.599-.958.92-.768 2.568.124.734.301 1.376 1.111 1.941.613 1.774-.697.298.169 1.78-1.88 2.757 3.54 1.468 1.065 1.31 1.876 1.225 1.082.92.834 1.278 1.719 2.98 2.378 1.314 1.616.465-.55.489-1.043.303-.184.135-.617-.157-.615 1.082-2.85.578-.511 1.448-.51.774.306.123.718.468.147 1.283 1.731.152.585-.228.934.494 1.377.552.782.303 1.09 4.187-2.355 2.561-2.142 1.052-.014.202-.62 2.333-.372-.007-.538.32-.618.984-.356 1.577.674 2.966.153 2.554.634 1.945.473 2.326-.082-.752-.732.113-.673-.187-1.016-.542-.118-.225-.362.054-1.144-.29-.114-.115-.439-.578-.688-.015-.651.375-.523-.038-.564-.36-.612-.08-.803-.412-.176-.52-.77-.055-.59.21-.41-.17-.227-.316-.04.068-.297-.548-.95 1.46.042 1.401.399 1.173-.126.987-.349 2.325.948-.832 1.775.942 1.582 1.23 1.206 1.134.92.48 2.018 2.246-.82 2.876-.506 4.817-.108 1.544 1.27 2.51 1.14 3.169-.026 4.12.75.696-2.77 2.262-2.475 2.194-.487 1.936-1.612 2.186-1.041 2.573-1.022 1.991-.969 1.347-.935 1.411-1.337 1.632-.874 2.034-1.758.46-.374 2.024-.726 1.893-1.142.97-.216.647.358.865-.915.531-.072.157.52-.548.139-.044.248.1.519-.223.674.125.718.657-.03.654-.959.465.197.328.768-.817.334-.185.493.372.472.587.096.48-1.235.61-.095.313.264-.161.775.203.26-.535.128.072.358.413.21-.043.242-.17.075-.784-.59-.49.52.54.509.474-.097.813.187.075.21-.35.457.26.906-.54.33-.006.399 1.048-.118.13-.754.46-.745.593.072-.207-.458.183-.156.382.238.027.646-.403.772.34.37.492-.273.132-.195-.09-1.116-.264-.632.349-.276.793.134.314.264.082.662.228.166.708-.683.295.166.109.187-.144.477-.288.267-.584-.108-.21.142.103.315.64.293.894-.498.794.146.203.87-.343.673.743-.275.971.04.518.924.44.204.194.664.316.312.926-.05.621.8.561-.223-.097-.35-.323-.145.134-.145.441-.206.798.335.255-.456.541.014.251.348 1.035.342.012.235-.26.2.355.414.432-.056.235-.404.584.344-.01.279.32.165.43-.528.359-.063.604.594.473-.17.744.361.464.594.287-.782.279.898.597-.115 1 .386.43.438.46-.076.38-.307.029-.396.41-.54.258.043.376.656-.055.34.628.608.28-.3.308.193.288-.152 1.009.12 1.272.533.301.658-.445 1.558-.797 1.82-.108 1.751-.1 2.45.049 2.118-.43 2.377-.81 1.6-.293.722-.22 1.731-.252.475-1.3 1.872-1.593 1.356-.519 2.325-.789 2.574-1.471.976-.01 2.857-.956 1.104.187.919-.142 2.048-.146.187.275.764.45.483.697.233 1.21 1.16 1.258.758 1.736 2.532.657 1.555.827.617 3.133 4.308.615 1.954.174.062.588 1.27.806.227.813-.232 2.322.111 1.326-.35 3.677-.426 1.12-.291.615.323 2.21-.63.58-.845.785-.48.726.28.392-.058 1.014.64 1.73-.234.18 1.482-.105.63.244.583-.039.46.266.07.318 1.046.932 1.53 1.579 1.014-.716 1.559-.062 1.52.177.551-.479.991.437 3.374.61.828-.281.987-.485.574-.102 2.23.468.925.007.384-2.039 1.003-1.104.164 1.5 4.911.62.642.151.752.99 1.656-.09.466.19.46 1.054 1.282-1.617 2.38-2.899 2.656-2.813.24-1.697-.413-.17.22-.393-.094-1.086.211-.743-.123-1.092-.697-6.855-6.209-.401-3.571-6.184-2.14-2.06.866-2.36.438-1.26.495-.307.32-.347-.049-1.577 1.41-.458.918-1.578 1.936-2.474 1.26-1.545 1.369-.074.32-1.342.64-2.3-3.46-1.626.57-1.813 1.11-1.938 1.87-2.464 3.544.453 1.669-.517 3.097-.382 3.947-1.377.781-2.005 1.623-.431 1.494-.644 2.52.798 2.115.917 4.493.02 1.825.215 1.387.048 4.492.286 1.58-.346 4.192-3.737 2.433-.373.487-1.382 1.01-.228.002-.437.419-.61 1.283-1.312 1.117-2.659 1.656.013-.182-1.107-.355-.99.11-.304.262-1.413.397-.536-.204-.124.168-3.337-.341.043-.5-.307-.74-1.087-.567-.269-.475-.117-.748-.45-.22.019-1.194.164-.129.56.087.324-.36-.357-.275.322-1.05-.544-.732-.456-.352-.496-.088-.282-.695-.21-.03-.477.438-.443-.034-.19 1.104-.41-.121.085-.434-.13-.177-.365-.008-.678-.472-.45.132-.027-.495-.885-.762-.767.198-.137.743-.191.08-.563-.495-.727-.287-.308.114.02 1.766-.745-.1-.1-.34-.217-.051-.338.338-.982-.544-.116.688 1.224 1.132-.78.345-1.805.272-1.053 1.95-.522.309-1.474-.069-1.133.539-1.4 1.64-2.371 1.873-1.385.649-3.998 1.115-1.355.18-1.482.74-.763.066-1.363-.295-2.02-2.114-.556-.046-.317.18-1.832-.835-1.43 1.056-1.205 1.912-.748 2.279-2.88 3.471-2.463.851-2.89.667-.6.316-1.15 1.258-1.89.93-.663.673-.223 1.042-.66 1.349.052.748-1.078 2.223-.42.324-.775 1.226-.523 1.176.136.531-.077.859-1.089 1.984-3.067 3.306-1.956 1.195-1.58 1.635-.017.676-.795 1.66-.592 2.24.269.507-1.576.46-1.467-.11-1.913-.976-1.014-.264-.795.093-1.148-.197-.842-1.243-.386-.01-1.48-.732-1.087-.155-.908-.79-.618.43-.223-.005-.103-.276-1.375-.868-.814-.817-1.677-.189-.915-.554-.786-.214-.791-.528-.369-.55.34-.78.185.08.625-.431.183-.637 1.022-.61.2-.544.447-.132.445-1.118-.08-.36.404-.449-.059-.488 1.388-.674 1.21-2.16.407-.26.146-.368.605-.317.546-1.292.001-.904.402-.007.613-.438.2-.429.623-.338.308-.386-.12-.722.194-1.772-.15-.392-.574-.375-.068-1.004.311-.245.943-1.58-.18-.395.042-.83-.12-.303-.285-.008.368-.48-.135-.636.4-.674-.038-.25.362.027-.014-1.576-.24-.21-.164-1.465-.511-.332-3.427-.937-.353-.685.094-2.016-.058-.55.36-.557.09-.586-.11-.574.197-2.032-.638-.585-.495-1.23.085-.281-.227-.755 1.044-2.81-.175-.616-.82-.113-1.963-.171-.355-.015-.493-.532-1.354-.252-1.03.089-.434.317-.464-.122-.32-.294.01-.34-.225-.282-1.08-.358-.566-1.582.196-.71-.157-.335.493-.461.283-.522-.197-.265.39-1.226-.042-.928-.573-.983-.34-1.06.108-.825.301-.621.579-.356-1.302-1.688-.488.01-.15-.403-.583-.545-.592-.26-.53-.007-1.384.042-1.704.65-.81.04-1.316.666-.568.107-.839.593-2.39-.46-.492-.116-.71-.616-1.766-.78-.434-.29-.623-1.042-.858-.43-.57-.045-.077-.315-.725-.567Z"/><path id="C" d="m227.794 302.613-.104-.78 1.446-4.204 1.538-5.858.003-.909.264-.966.505-1.29.356-.331.104-.748.64-.912.259-.96.891-1.521.733-.72.875-1.575 1.452.52 3.594 2.878 2.411.589.607.664.813.25.384.392.477.14 1.068 1.638.02.331.71 1.21.1.238-.413 1.582.122.352-.395.543.913 1.572-.295.494-.836.484-1.458 2.013-.062.519.166.651 1.208-.195-.28.736.12.517-.833 1.375-1.135 1.05-1.268-.246-.69.25-.964-.08-.466.136-.263.27-1.798.637-1.222 1.263-.167.064-.287-.32-.371.322-.231.03-.09-.267-.467.211-.2.557-.463.004-.267.858-.554-.444-.53-.146-.432.298-1.365-.463-.234-.13.001-.462-.256-.135-.33.174-.311-.191-.882-.971-1.024-.061-.173-.967-.664.04Zm166.54 121.553-1.228-.238-1.348-.38-1.112.048-.473-.266-1.69-.13-.502-.536-.366-.75-.147.121-.607-.147-.822-1.123-1.503-.094-.551-.273-.857.208-3.838.68.012.719-.28.606-.25 1.86v.659l.475.477-.119.277-1.242.805-1.197 1.213-.74-.02-1.304 1.701-.174.532-.815-.159-.515.477-.364-.006-1.049.539-1.88.29-.485-.458-.76-.326-1.041.04-.939-.553-2.179-.082.03-.304-.504-.527-.157-1.054.223-.39.05-.624-.292-1.07-.706-.813-.98-.106-1.429-.71-1.036.213-.485-.14-.31 2.338.042 3.58-1.199.92-.345-.044-1.806.622-3.018-1.422-4.607-1.016-2.974-1.481-.934 1.339-2.443-1.338-2.003-.117-1.506.685-.646-.24-.86.363-.128.434-.602-.085-.558.451-.242 1.693.193.874-.732.92-1.564 1.371-.541.233-.085-.272-.322-.12-1.036-.071-2.088.674h-.932l-.633.336-2.17.051-.916.198-.553-.233-1.14.371-1.882-.215-.784-.267-.628-.012-.387.271-.625-.032-.71-.465-1.418-.466-1.762-.276-.881.013-.24-.196-1.147-.1-.765.312-.834.059-.593-.452-1.854-.265-.112.334-1.498.034-.525-.651-1.06-.25-1.077.66-1.877-.42-1.262-.677-3.355-.98-2.347-.129-.786-.438-1.162.438-.476.789-.392.188.036.936-.241.788.223.599.181.083.013.713.208.161.176.957-.158.242.154.07.15 1.086-.258.093-.239-.495-.23-.078.03.395-.275.022-.814.632-.24-.6-.433.042-.19-.403-.633-.028-.663-.326-.218-.58-.536.056-.236-.642-.208-.098-.224.253-.306-.348-.435.364-.189-.603-4.856-2.18-.442-.47-.609-.17-1.108.525-.313-.225-.717-1.244-.338-.178-.86-.009-.551-.809-1.368.216-.356-.04-.345-.774-.54-.463-.218-.83-.666-1.172-1.157-.913-.382-.846-.455-.148-.303.01-.145-.352-.402-.264-.273-.65-.23-.908-.719-.842-.824.17-1.227-.873-.677-1.598-.952.598-.683.09-.07-.708-.45-.351-.195-.775-.584.423-.46-.763-.916.088-.235.822-.216.089-.29-.091-.235-.479-1.206-.595-.257-.708-.755-1.077.02-.49-.25-.69.096-.438-.178-.308-1.065-.216-.637-.864-1.006-.46-1.643-1.595-1.186.146-1.576-.367-.705-.394-.239-.345.47-.613-.067-.354-.36-.142.003-.809-.223-.24-1.159.12-1.36-.469-.735-.382-.618-.267-.832-.778-1.213-.134-1.84-1.33-1.363.298-1.664-.143-.44-.22-1.145-1.286-1.696-.721-.72-.111-.336-.636-.345-1.416.305-1.322-.392-.972.099-1.557-.362-1.949.188-.786-.783-.666-.736-.217-.736.348-1.201-.223-1.371.092-.419.495-1.269.116-2.773-.55-3.844-1.222.355-.218.048-.57-.153-.9-.581-.91-.89-.472-.723-.973-.779.137-1.374-.48.785-.544 2.147-.275.672.037.553.28 1.353-.874.643-1.51 1.017-1.21.448-1.956.715-1.776-.012-.874.31-.913-.092-.867.49-2.531.881-2.216.1-.934.862-1.35.639-.657.36-.885.49-.441.411-.933 1.467-.21.974.326.82-.147.448.148 1.097-.057 1.139.525.55.11.5-1.705-.32-.568.47-2.642.385-1.223.58-.771-.183-.476-1.048-.113.08-.634-.858-.286-2.031-.19-.36.124-.458-.175-1.007-.481.133-.51-.316-.4-1.107-.432-.807.343-.465.465-1.495-2.39-.311-1.3-.03-1.486-.782-1.5-.584-2.827-1.02-2.791-.063-.824 1.344.32.697-.033.5-.03 2.096 1.05 1.143.98 1.975 1.051.703.111.631-.26.733.287.81-.907.334-.864.64-.269.373.367.572-.182.049-.69.625-1.424-.97-1.07-2.184-.773-1.548-2.862.454-1.866 1.215-1.184.104-1.16-.196-.391.43-.818-.13-.81.134-.562.815-1.251.63-.328.691-.043.015-1.533.983-.619.779-1.305.388-.883-.105-.2 3.544 1.28 3.008-.647 2.723.89 3.664 2.325.124-.137 1.317.571 1.227.17.134-.492-.163-.423-1.368-.94.007-.636-.177-.245-.696-.152-.522-.576-.47-.155-.455-1.212-.234-.213-1.79-.756.297-.5-.557-1.723-.342-1.948.087-.273-1.948-1.061.204-.306-2.231-7.299-.617-1.2 2.538-.754 2.03-.262.69.122.066-.369-.393-1.957.565-2.413.96-1.18-.112-.364.221-.772.51-.436.009-.909.444-1.017 1.068-1.538.258-1.535-.327-.276-.481-1.12-.386-.187-.437-.6-.13-1.14 2.712-.468 1.854.529 2.165-.59.633-.741-.301-.747.068-2.494-.428.078 2.723-1.947.464.37 1.7-.052.046-.663.954-.576.286-.502-.493-.741-.036-1.365-.24-.465.154-.38 1.77-1.335.02.739 1.102.86-.36-.837.448-.51.175-.673-.284-1.085.41-.227.165-.523.285.015.097.705 1.647 1.214 1.02.204 1.129.79-.13.413-.815-.337-.94.4-.169.936-.755.739.423.012.591.449.481 1.384.735.759.285 1.09.18.125.01.537.288.327 1.81.938-.103-1.39.306-.408.62-3.2.622-.108.295-.643 1.113.53.882.875-.16.376.327.296 1.16.095.467.351.885.18 1.75.797 1.706.063 1.365.535.058.157 1.658.314.685.552 2.19-.143 2.37.629 1.609-.141 1.24.185.192.181.466-.158 3.166-1.17.147-.31.671-.286.277-.332 2.59-9.224.749-1.274.915.438.398.534.9.522 1.084.203 2.245-.286 1.16-.435.736.146.926-.528 2.952-.413.188.147.018.84.175.266-.2.829.95 4.805-1.02.01-.144.15-.758-.225-.952.083-.809 2.582.298 1.072-.259 1.003.44.777-.025.365.448.606-.322.642-.234.043.024.59-.368.678-.732.588-.544.106-1.804-.478-.359-.492-.474-.132-.92.43.175.808-.396.61-.01 1.349-.907 2.775.188.654-.697 1.094.253.445-1.01 2.639.01.515-.492.764-.016.489.708-.154.503.12.729-.312.724.364.487.795.122 1.102.536-.1.412.978.441-.202 1.356-.878.505-1.383.705-.662 2.545.613.53.353 1.553-.057 2.344.88 2.817-.091.016.636.406.604-.069 1.296.371.212-.346.953.274.56-.077.349.716.81.037.38-.71.807-.102.208.135.15 3.722 1.824 1.2-.025 1.366.618 2.366 2.244 1.807.459 1.517-.14.42-.942.874-.269 1.252-1.318.252-.908.27-.235 1.65-.542 2.634-.138.85.42 1.167.934.405.838 1.023.197.732.67.177-.024 1.878-1.007 1.272-.938.424-.692.388-.237-.042-.801.486.21 1.71-.346 1.796-.059 1.455-.375.1.273 1.08-.362.366.15 2.062-.702.893.313.34.574.652.188 1.059.036.757-.392 1.525-.267.112-.655.62-.743 3.109-2.526.687-.846.862-.26.619-3.74 2.183-1.918 2.022-.949.682-.634.728-.254.21-.432 5.875-.48 1.836.379 2.075.803-.22-.667.22-.769-.255-1.154-.358-.709-.088-.534.186-.313-.132-.314.154-.632 1.045-1.49.114-.574.479-.698.3-1.396 3.717-.008 4.423-.697 2.41.28.063-1.783 2.632-1.052 1.343.076 3.218 2.518.968.086.38.27 1.983 1.96.595 1.005.75.052.662-.18.503.07 2.633-.81.747 1.543 1.482.438-.055-.936.516-.32 1.65.864 1.131-.421.895.094.143-.987 2.316-2.144.195.231.16-.138-.325 1.034.176.679-.284.267.036.335.528-.172-.066.446.163-.217.328.055.057.215.685.426.18 1.206.868 1.473.201-.13-.245-.149-.031-.752.224.22-.075.37.37.061.031-.23.11.108-.257.658.657.469.35-.071.362 2.105.621.775.202.55.325.077.377.468-.042.866-.46.075-.897-.201-.184.139-.086.754-.885 1.507.331 1.04.42.174.241.527.34.1.04.21 1.712-.768.459 1.069-.093.172.741-.378.733.108 1.69-.978 1.106-1.48.333-.914.025-.899.282-.058.135-.586.663-.169.362-.522.388-.192.1-.45 1.654.383-.033 1.094.415 2.153.918 1.43.61 2.621.935 2.04.423.545-.14.279.438.965.228 1.412.23.593.74.852.325 1.123.13 1.154-.107.506-.694 1.267-2.85 3.172-1.095 1.94-.2.775-.89 1.74-2.452 2.438-1.465 3.031-1.912 2.447.876 1.76-.058 1.104.293.901.842 1.634.654-.184 1.035 1.951-.262.933.165.243-.316 2.012.23 1.401-.293 2.522-.662-.189-.43.277-1.07-.013-.502 1.212-.066 1.304-.56 2.095-1.424 1.606-.663 1.1-.513.115-.173.731-.465.496-.27.386-.261 1.89.309.267.336 1.408.888-.42.39-.044.517.222.958.881.537.741.22.826.4.313 3.159-.278.375.01.103.3.557.022-.048 1 .224.804.627.492 1.16.348.997.61.061 1.5.099.157.37-.038.135 1.256.373 1.252.176 2.17-.296 1.08-.029 1.087.233.982 1.525 1.526.22 1.734.98-.253 1.016-.277 1.373.328 1.23 1.165.98 1.647.825.358.297.686 1.89.921.538 1.517-.435 1.877-.422.592-.285 2.026.065.875-.548 1.578-.084 1.204-.475.59-.812 2.276-.587.135-.731.522-.423 1.122-1.044.91-.211.389-.235.073-.39-.22-1.094.177v.382l-1.065.766-.846-.176-.792-.893-1.758-.435.62.984.696.606-.447 1.938.035 1.016-.498 1.753-.58.674.477.706.018.904.136.271h.19l.039.574.452.322-.034.24.532.471-.21.433-.306-.02-.294.775-.335.285-.512-.036.178.377-.544-.02.093.245-.684.356.33 1.03-.452.117-.142.329-.337.099.11.693-.164.173-.298-.648-.32-.167.12.46-.183.326-.595.23.22.522-.436.293-.321-.4-.233.09.13.54-.397-.434-.204-.002-.155.755-.181.268-.37-.101.125.551-.436-.298-.787.849.19.308-.672-.334-.214.199.247 1.024-.115.21-.298-.107-.332-.914-.18.044-.126.392.061.485-.376-.463-.568.048-.469.25.335.544-.502.005-.431-.113.018.634-.375-.182-.43.208-.037.542-.917.262-.124.148.233.714-.625-.18-.052.243.316.512-.801-.417-.65-.842-.507-.263-.393-.705-.372-.015-.155.258-2.096-.44-.536-.427-.928.62-.827.175-.678-.37-.333.39-.167.8-.791.946-1.604.616-.273.85.272.891-.099.575.223.416-.437 1.015-.003.39-.434.495.02.628-.14.14-.276-.85-5.767-8.18-5.138 3.814-1.174 1.28-1.908-.166-2.913-1.273-3.823-.385Z"/><path id="D" d="m448.245 312.051-.272-.13-1.223.29-.585-.187-.767.553-1.01-.5-2.707.11-1.168.354-.424-.545-.935-2.04-.61-2.621-.918-1.43-.415-2.153.033-1.094-1.653-.383-.101.45-.388.192-.362.522-.663.17-.135.585-.282.058-.025.9-.333.913-1.105 1.48-1.691.978-.733-.108-.74.378.092-.172-.46-1.07-1.71.768-.042-.208-.339-.1-.24-.528-.42-.175-.332-1.039.885-1.507.086-.754.185-.14.896.202.46-.075.042-.866-.377-.468-.325-.077-.202-.55-.62-.775-.363-2.105-.35.07-.657-.468.257-.658-.11-.108-.032.23-.369-.061.075-.37-.224-.22.031.752.245.15-.201.13-.869-1.474-.179-1.206-.685-.426-.057-.215-.328-.055-.163.217.066-.446-.528.172-.036-.335.284-.267-.176-.68.326-1.033-.161.138-.195-.23-.313-1.384.067-2.915-.188-.833.445-.94-.369-.91.58-.557.153-2.539.263-.79.4-.442-.204-1.42.207-1.566-.474-2.517.218-.08.921-1.459-.398-1.203.225-.285.066-.86.64-1.342-.988-.431-1.912-2.728-1.1-1.252-.448-1.275-1.516-.424-.263-.508-.477-.391.08-.795-1.625-1.446-.412-.624-1.704-5.875-.016-.043-.52-.815-.854-.774-1.046-1.357.276-.339-1.37-2.884-.372-1.44v-.702l-.386-1.072-1.608-2.352-.578-.28-1.354-1.448-1.024-.259-.505-.498-.629.064-.344-.207-.494.18.488-1.451.896-1.08-.034-.668.62-.472-.015-1.295.017-.418.628-.677.32-1.522-.122-1.309.157-.46-.215-.695.395-.437-.245-.439.11-.863-.126-.443.259-.28-.362-.452.193-1.521-1.303-.084-2.111.451-1.034-.112-.766-3.336-.999-1.994-.454-.248.01-1.426-.468-1.146.368-.494.489-1.275v-.423l1.225-.13.9.385 2.085.188 1.08-.578 1.1-.286.646-.271 2.7-2.564.72-1.126-.378-.752.25-.026.053-.177-.451-.617.215-.245-.14-.132-.38.139-.058-.249-.526-.446.245-.379-.047-.141-.45-.004-.265-.338.126-.144-.288-.337.22-.22-.493-.247.012-.316-.46-.018-.3-.432-.433-.069.164-.03-.219-.241-.333.299-.082-.425-.197-.046.264-1.033-.366-.39.938-1.2.39.108.122.474.416.203.671.053.375-.16.019-.485.374-.9 2.493.957.684.495.969.16.426.427.2-.36-.13-1.254.33-.744-.013-.446-.541-.26-.299-1.051.138-1.139.32.03.588-.615.274-.418.136-.973.77-.076.967.83-.062.201.747.917 1.451 1.133.642.281 1.21 1.73 1.176.812 1.511.52.59.274.8-.095 1.67-.868.747-.809.592-.345-.126-.28 1.153-3.143 1.427-.325 1.308.147.86-.097.43-.38-.12-.514.369-1.001-.142-.359.56-.59.688-2.35-.08-.37.242-.834.312-1.573-.256-.347-.123-1.638.158-.25.022-.854-.432-3.08.063-1.946-.216-.113-.096-.453-.295-.076-.186-.36.588-.699.023-.39-.126-.161-.31.341-.03-.498-.26-.301.246-1.452-.154-.594.462-1.093.09-1.886.517-.527-.344-.1-.083-.204.559-.69-.25-.764-.02-.343.452-.41.442-.874.043-.384-.2-.401 1.258-.452.078-.146-.402-.484.539-.427.34-1.184.397-.316.749.484.64-.024.247.178-.189.97-.772 1.645.953 1.17.949.498 1.267 1.038 1.376.427.31-.575-.806-1.27.264-.004.544.54.275-.022.32-.405.149-.424-.671-.55.144-.22 1.255.57 1.334 2.616.424-.246.534-.732-2.249-2.559.213-.906.55-.04.467.359.657-.148.79-.972-.81-.734-.042-.235.464-.008.434-.596.495.026.006.657.305.546.401.299.233-.415.937-.085.891-1.119.825.618.69-.716.655.515.513-.229.343.124.473-.065.702.419.517-.208.157-.597.602-.042.573.688.346-.12.768.399.02.483.186.103.478-.16.442.578.97.017-.16.471.345.599.274.146.76-.289.822.474.427-.13.104.18.42-.11.48-.593.578-2.551-.637-1.253-.494-.217-.557-.8-.648-.474-1.526-.608.773-1.477-.02-.796.768-.791-1.089-1.106-.608-1.548.684-1.841 1.157-1.426.546 1.661.341.435.433 1.582 1.706.897.85-.305 1.353-1.063.464-.092.559-.405 1.353-.162 1.1-.825.184-.465.885-.79.46.307.43 1.027.504.604.407-.471 1.056-.54 1.615-1.306-.135-.525-.175-.77-.628-.339-.414-1.038-.635-.201-.654-1.053-.882-.843.013-1.014.37-1.768 1.328-1.503 1.734.84.797.013.525.763.786.568.448.53.033.461-.56 1.099.674.7.706.337.207.415 1.16.28.534-.362.747-.022.965-.493 1.024.15.547-.863.577-1.637-.093-.69-.698-1.82-.055-1.448.424-.946 1.01-.456.322-.522.197-.895 2.067 1.696 1.72.59.255.41.692.579 1.147.025 2.326-1.434.466.175 1.414-.121.337-.327.392-2.372.569-1.018 2.244.357 1.256.635.924.073.106-.123.755.267 1.075.38-.06.4.737 1.034 1.282.876.209-.084.515.207.575.44.007.751.964 1.17 1.253 1.067 1.353.407 1.384.793 1.344.287.662.513 1.166-.56.317.032.415-.316.198-.923-.412-1.218.307-.36.306-.024.799 1.492 1.131-.008.323.378.913.476.227-.09.296.271.297.816.396.371.148 1.887.496.855-.024.986.19.105-.006.475.358.383-.475.468.03.202.928.066.054.83.954.622.737 1.553-.227.37-.011.589-.377.563.804 1.509-.078.246.223.084-.275.254.326.302.183 1.091.425.28-.204-.07.041.518 1.166 1.06-.08.282.16.218-.486.801.486.952-.231.413.488.358.085 1.62.554.324-.224.366.841.58.452-.85.32-.242.352.959.946 1.254.846.74.247.583.514.228 1.635.11-.028.685 1.095-.008.287.596.144-.089.649.747.27.9.445.376.613 1.102.03.397.25-.038.81 1.086.094.414.493.069.145.28 1.387.77 1.245 1.833.952.696.042.61-.929.382-1.288-.633-.04.678-.255.183-.584 1.12.224 1.923.74 1.438.485.04.41-.5-.053-1.47.985-1.936.972-.335 1.014 1.145 1.38.805.62 1.568 1.179 1.051.762 1.083.66.538 1.243 1.492.16.192.884.756.474-.027 1.082.868 2.162 2.928.32.165.904.979 1.657 1.79.959-.359.758-1.016.147-.092.616-.122.086-.017.296-.06 3.53 2.41 3.406-1.544-.32 4.088.015.997-.628 1.581-.81 1.327.098.529 1.297 1.665 1.305.575 1.85 1.172.252.4-1.228 1.018.652.96.041.626 1.2 1.825.676 1.801 1.026 1.825.18 1.523.427 1.375 1.211.558.52-.02.86-.36 1.384-.2.72.42 1.968.38 2.09.296 1.024.533 1.05.682 1.635.477 3.042-.837.917-.036.735-.209.755.248.64-.51.515-.115.664-.578.75.098.163 1.285 1.563 1.488.48 2.162-1.117 1.027-4.841 1.875-.407.715-.024.316.147.088-.274.853.27.248-.195.513.815.682.06.38.255.198-.132.311.27.265-.222.663-.182 2.625-.007 1.893.24.098-.3.281.073 1.47-.664 1.726-.39 1.017.015.635-.097 1.671-.5.763.182.724-.598.723-1.251 2.624-1.46 1.333-1.245 2.071-1.293 2.51.434.75-.124 1.64.11.702.88 1.822-1.701 2.71-1.2.69-2.017.266-1.255-.336-1.636-1.097-2.5-1.035-3.431 3.05-1.348 1.424-1.798 3.37-.887 2.27-.898 3.05-.689 1.413-.78.623-.643.345-.648-.005-2.02.678.347.88-.23.116-.003.536-1.415.081-.294.328.492.018.517.413.69-.212.063.34-.335.579.493.721-.48.385.176.864-.276.532.564.621-.154.188-.425.194-.005.646.78.956-.242.417.11.208-.304.53-.851-.616.147.758.563.29-.72.634.183.27.699.142-.01.19-.537.113-.19.346-.195.545-.075 1.655-.514.28-.444-.266-.316.072-.18.261.076.396.93.42-.063.269-.53.487.363.364.51.158.027.158-.572.37.035.441.65.352.085-.708.16-.1.327.266.182.472.963.064-.491.413-.359.986-.97.216-1.893 1.142-2.024.726-.46.374-2.034 1.758-1.632.874-1.41 1.337-1.348.935-1.991.969-2.573 1.022-2.186 1.04-1.936 1.613-2.194.487-2.262 2.475-.696 2.77-4.12-.75-3.17.026-2.51-1.14-1.543-1.27-4.817.108-2.876.506-2.245.82-.481-2.019-1.134-.92-1.23-1.205-.942-1.582.832-1.775-2.325-.948-.987.349-1.173.126-1.402-.4-1.46-.042.549.95-.068.299.316.039.17.226-.21.41.055.591.52.77.411.176.08.803.361.612.038.564-.375.523.015.65.577.69.116.438.29.114-.054 1.144.225.363.542.117.187 1.016-.113.673.752.732-2.326.082-1.945-.473-2.554-.634-2.966-.153-1.577-.674-.985.356-.32.618.008.538-2.333.373-.202.619-1.052.014-2.56 2.142-4.188 2.354-.303-1.09-.552-.781-.493-1.377.227-.934-.152-.585-1.283-1.731-.468-.147-.123-.718-.774-.306-1.448.51-.578.511-1.082 2.85.157.615-.135.617-.303.184-.49 1.042-.464.55-1.314-1.615-2.98-2.378-1.277-1.719-.92-.834-1.226-1.082-1.31-1.875-1.468-1.065-2.757-3.541-1.78 1.88-.298-.169-1.774.697-1.94-.613-1.377-1.11-.734-.302-2.567-.124-.922.768-.598.959-1.333.21-.414-.134-.901.544Z"/><path id="E" d="m379.672 143.953-1.067-.626.845-.768-.167-.369.156-.33.768.244.121.545-.23.35-.183-.135-.085.398.21.005-.368.686Zm156.052 22.434-.68.996-.428 1.096-.656.558-.87 2.235-.77-.603-.323.015-.379.455-.374 1.32.064.426-.243.316-.514-.228-.247-.582-.846-.741-.946-1.254-.352-.96-.32.244-.452.85-.84-.581.223-.366-.554-.325-.085-1.619-.488-.358.23-.413-.485-.952.486-.8-.16-.219.08-.283-1.166-1.06-.041-.516.204.069-.425-.28-.183-1.091-.326-.302.275-.254-.223-.084.078-.246-.804-1.509.377-.563.01-.59.228-.37-.737-1.552-.954-.621-.054-.831-.927-.066-.03-.202.474-.468-.358-.383.006-.475-.19-.105.024-.986-.496-.855-.148-1.887-.396-.371-.297-.816-.296-.27-.227.089-.913-.476-.323-.379-1.131.009-.8-1.492-.305.024-.307.36.412 1.218-.198.923-.415.316-.317-.032-1.166.56-.663-.513-1.343-.287-1.384-.793-1.353-.407-1.254-1.067-.963-1.17-.007-.752-.575-.44-.515-.206-.21.084-1.28-.876-.737-1.034.059-.4-1.075-.38-.755-.267-.106.123-.924-.073-1.256-.635-2.244-.357-.569 1.018-.393 2.372-.336.326-1.414.122-.466-.175-2.326 1.434-1.147-.025-.692-.578-.255-.41-1.72-.59-2.067-1.697-.197.895-.323.522-1.01.456-.423.946.055 1.447.698 1.82.093.691-.577 1.637-.547.863-1.024-.15-.965.493-.747.022-.534.362-1.16-.28-.207-.416-.706-.336-.674-.7.56-1.099-.033-.46-.448-.531-.786-.569-.525-.762-.797-.013-1.734-.84-1.327 1.503-.37 1.768-.014 1.014.882.843.654 1.053.635.2.414 1.04.628.338.175.77.135.525-1.615 1.305-1.056.54-.407.472-.505-.604-.428-1.027-.461-.308-.885.79-.185.466-1.099.825-1.353.162-.559.405-.464.092-1.353 1.063-.85.305-1.706-.897-.433-1.582-.341-.434-.546-1.662-1.157 1.426-.684 1.84.608 1.549 1.09 1.106-.769.79.02.797-.774 1.477 1.527.608.648.474.557.8.494.217.637 1.253-.577 2.551-.48.593-.421.11-.104-.18-.427.13-.822-.474-.76.289-.274-.146-.344-.599.16-.471-.971-.017-.442-.579-.478.16-.186-.102-.02-.483-.768-.398-.346.12-.573-.69-.602.043-.157.597-.517.208-.702-.42-.473.066-.343-.124-.513.23-.654-.516-.691.716-.825-.618-.89 1.12-.938.084-.233.415-.401-.3-.305-.545-.006-.657-.495-.026-.435.596-.463.008.043.235.808.734-.79.972-.656.148-.467-.359-.55.04-.213.906 2.25 2.56-.535.731-.423.246-1.335-2.615-1.255-.57-.144.219.67.55-.149.424-.32.405-.274.022-.544-.54-.264.003.807 1.27-.31.576-1.377-.427-1.267-1.038-.949-.499-.953-1.169.772-1.645.189-.97-.246-.178-.641.024-.749-.484-.397.316-.34 1.184-.54.427.403.484-.078.146-1.259.452.201.401-.043.384-.442.873-.452.411.02.343.25.764-.56.69.084.203.344.101-.517.527-.09 1.886-.462 1.093.154.594-.246 1.452.26.301.03.498.31-.341.126.16-.023.391-.588.7.186.36.295.076.096.452.216.113-.063 1.947.432 3.079-.022.855-.158.25.123 1.637.256.347-.312 1.573-.243.834.081.37-.687 2.35-.56.59.14.359-.368 1 .12.516-.43.38-.86.096-1.308-.147-1.427.325-1.153 3.143.126.28-.592.345-.748.809-1.67.868-.8.095-.589-.274-1.51-.52-1.177-.811-1.21-1.73-.642-.282-1.451-1.133-.747-.917.062-.2-.966-.83-.771.075-.136.973-.274.418-.588.615-.32-.03-.138 1.139.299 1.052.54.259.014.446-.33.744.13 1.255-.2.359-.426-.427-.97-.16-.683-.495-2.493-.956-.374.9-.019.484-.136-.33-.901-.654.13-1.03-.798-1.719.116-.349-.237-.59.232-.617-.393-.26.511-.294.363-.804-.38-.789.404-1.14-.152-.735-.57-.55-.267-.614.234-.675-.172-.544-1.006-1.59.307-1.08-.228-.802-.402-.446-.516-.227-.172-.631-.25-.057-1.491.956-1.589 1.57-.912.255.165.285-.828.689-1.237 2.274-.02.628-.47-.266-.148-.583-.347-.36-1.213-.56-.042-1.277 1.218-1.5-.292-1.203.568-1.609-.115-.522.151-.803-.15-.303-.062-.394.452-1.083 1.514-1.4-.022-.185.872-.554.185-.874-.455-.435.847-.709.066-.353.506-.092.009-.236-.274-.132.052-.55-.574-.378-.36-.84.378-.56-.078-.219 1.112-.336-.53-1.476.832-.333.115-1.008.388-.932-1.1-.9-.555-.974-.013-.38-.341-.513.005-.586-.468-1.049-1.217.078-.386.311-.553-.397-1.976-.395-.174-.505.192-1.764-.17-.442.478-1.937-.655-2.198.083-.422.223-.678-.164-1.39-2.266-1.552-.37-1.127-.383-.423-.112.107.262.768-.517-.106-.81-.52-.558-.894-2.144 1.112-.568.147-.558-.35-.588.642-.71-.724 1.274-1.495-.146-.085.34-.368-.62-.754.466-.719-.32-.174.395-.532-.068-.276-.338-.173-.56-.089-.288-.292-.14.15-.527-.442-.78-.201-1.925-2.3.156-.19-.196-.242.132-.374-.12-.122.184-.196-.16-.155.811-.629-.529-1.031-.97-.674.083-.181.525.046.767-.475.055-1.378.759-1.087-.237-.651-.033.38-.636.997-.924.522-.345-.17-.137.559-.75-.247.158-.408-1.977-.814-.01-.447.219-.47-.431-.728-.01-.432-.477-.686-.008-1.1-.69-.685-.299-.018-.606-.54-.383-.67-.652.128-.459 1.807-.023.98-.538-.27-.446.113-.54-1.292-.39.076-.119-.245-.117 1.296-.825-.34-.596.124-.033-.492-.597-.036-.037-.538-.697-.691-1.111-.235.002-.372.56-.012-.125-.65.598-.838.1-.656.903-.688.411-.695.42-.306.354-1.078-.39-.533-.095-.109-.24-.275-.662.641-.243-.658.144-.372.268-.027.338-1.644-.012-.9-.33-.324.053-.164-.37-.976-.558-.53-.354-.656-.615-.375-1.882-.04-1.147-.52-1.304-.002.222-.292.554.235.063-1.056.314-.258.398.223.329-.244.034-1.07.9-1.02.007-.512.503-.861-.262-1.578.754-.43.077-.325-.614-.924h.544l.33-.644-.609-.775.077-.248 2.33-1.647.265-.093.537.232-.163-.993-.162-.523.376-.525-.69-.538-.308.11-.36-.49-.565.062-.06-.26.235-.22-.206-.38.044-.4.197-.108.618.363.687-.236-.475-.61.287-.759-.069-.465 1.115-1.456.191-.5-.122-1.099.342-.41.351-1.418.605-.913.308-.776.16-.51-.142-1.327 1.71-1.053.57-.582-.296-.917-.998-1.159-1.358-1.245-.672-1.793-.183-.21-.718-.14.03-.532.327-.335-.082-.532.368-.67-.124-.532.53-.392.164-.963-.207-1.154.196-.156-.63-.184-.397.041-.366.282-.403-.124-.399.207-.687-.364-.103-.376-1.828-1.069-.756.359-.454-.143-.26-.828.131-.547-.287-.363.023-.772-.72-1.317-1.122-1.355-1.744-.84-.409-.827-.686-.435.388-1.272-.313-.598 1.225-.148 1.087.479.613-.794.216-.02.642-1.334.676.204.65-.449.51.084.688-.436.743.059-.184-.383.216-.33.61-.29.61-1.408.483-.615.467-1.112 1.839.144.492-.286 1.05.596.65-.232-.16-.564.112-1.32-.322-.694.805-1.245-.217-.778.071-.68-.604-.65-.472-.046-.349-.652-.089-1.057.52 1.622.347-.152 1.157.621 2.403-.443 1.254.542 1.04.028.903.383.572-.324.048-.419.697-.39.163.151.79-.134.633.143.341.367.481.1.744-.126.222-1.033 1.172-1.174.45-.015.42.422.742.277.413 1.547 1.64-2.79-.193-.47-.02-.263.213-.057-.102-.316 1.23-1.312 1.079-.04.747-.75.356.136.379-.161.737.227.347-.161.963.53.748.102.578.472 1.595.434.689-.024 1.088.52.483-.353 1.586.387.822 1.008.226.018.382-.526.377.077.63.479 1.011.252 1.076.557.12-.395.68-.05 1.75-.56 1.697-1.019.644.478.52.131 2.589-.82 1.14-.15.128-.17 1.547.077.587-.625.385-1.1-.107-1.023.689.066.946-.663 1.29-.342.415-.828.845.365.92-.056.554.45.702.048.625.558.207.514-.599 1.88.691.866.174.572.04.783-.31.879 3.332 1.404 1.035.672-.047.227 1.81.013.922.282 1.114.073.676.475-.097-.95.883-1.521.623-.618 2.985.304 1.29-.516.261 1.878.437 1.178 1.374.824 2.52 1.096 1.4-.459.853.058.087.295 1.008.772-.15 1.048.682 1.109.387-.828.126-.271.67.555 2.66-.659.103.183.097 1.208-.556 1.657-.746.788-.477.162-1.375-.235-.198.953.263.606 1.623-.693 2.365 1.21.088.19-.524 1.735-.217.386-.855.613-.224.655 1.425 1.385.554.172.772-.703 1.204-.227 1.285-.566.519-1.478 1.894 2.074-.045 1.225.558.703.27 1.631.497.178 1.593.073.17-.124.492.554 1.06 3.063-.002 1.513 1.93.057.153.36.548-.312.22.525-.092.24 1.084-.12-.005.83.9.727.154.325.445-.414 1.178-.095 1.845-1.612.166-.369.849-.276 1.668-.943.59 1.167 1.486 1.299.307.077.706 1.32.756-.66 1.192-.437.938-.805.24.052.64.721 2.026-.293 3.038-3.803.928.462 4.572 1.248-.04-.364.812-1.14 2.31-.923.73-1.821.392-.182 1.394 1.955.777.696 1.154.659 1.003.309.548.476.462.569-.193.584.676.636.728.304.748.057.8-1.121-.904-.814-.785-1.432.19-.996.318-.218-.227-1.021.342-.862.832-.787-.002-.453-.105-2.25.394-.75.892-.312 2.9-.175 1.996-.608.483-.505 2.001-.808.301-.15 1.034.727.058.694.83 1.161v.662l.649 1.129 1.044.555 1.54.024.461-.173 1.007.274 1.11 1.233.952 2.045 1.312.695 1.98.43.947.553.383.1.485-.149.237.29 1.109.493.626 1.178.517.54 1.893 1.203.874 1.02.426.463.073.315-.225.08-.006.492 1.042.896.143.949.914.335.761.94.505.363.951 1.178 2.218 2.12 1.223.815.429.682.81.297.522.44.383 1.15.288.053 1.846 2.1 1.698 1.16.542.796.382 1.282-.246 1.393-.503 1.12-1 1.22.549 2.477 1.633 2.537.682.77.26.076.142.438.333.624 1.496 1.734.274.194.662-.185.666.35.271.277.059.41.84.94.226.642.3 2.396-.168.98.16.545-.272.478-.083 1.121.268.592.03.4-1.49 1.375-.65 1.333.305 2.643.459.474.147.855-.07.397.954 1.118.495 1.014.263.301-.455.733.13 3-1.254 1.934-.27 1.636-.978 2.022.916.975.045.304.91 1.243-.4.268-.584.92-2.632 2.132-.415.006-1.12.95-2.995-1.808-.439-.481-3.117-.29-.761-1.307-.365.157-.747 1.425-.722.291.353 1.44-1.186 3.648.617 3.468.033 2.275.258.887-4 1.85-1.427 1.237-.93 1.528ZM189.157 238.69l-2.847.288-2.363 1.203-1.181.171.135-.68.352-.343.563-4.028 1.241-3.254.935-3.676.742-1.709-.055-1.15.312-2.362-.157-1.935-.178-1.613-.77-2.677.565-2.541.076-1.144-.171-1.573.925-1.074 1.232-.352.773-.596.266-.008 1.948 1.133 1.377-.05.461-.346.326.066 2.2-.015.343-.178.626.406 1.1-.101 3.524.23.243.21-.126 1.633.388.4.094.507.448.358.952-.086.696-.576.308.035.995.373.453-.404 1.247-.642.472.276.688-.088.18-.191-.013-.485 1.503-.953 1.875-1.888.391-1.067.654-.055.355.496.187-.008.291-.32.091-1.213.715-.091-.065-.634.44-.336.357-.654.704-.363.565.311.488-.292.953.05.793-.724 1.487-.302.146 1.706.314.28.652 1.605-.067 1.224-.542 1.377.687.174 1.644-.803.662.067 1.113-.567.927-.227.656.057-.426-.636.344-.013-.382-.555.295-.373.733.03.279.061 1.972-.438-.01-.286.298-.424.427-1.775-.548-1.245-.092-.65 1.387-.713 1.324-1.233 1.179-.769.593.096.295-.968 1.274-.954.239.222.994-.719.879-.124.473-.323 1.406-1.41-.157-.78.362-.191 1.073-.563-.243-.713-.176.034.088-.41-.214-.743-.478-.677.797-.594-.122-.596.406-.496-.06-.406.333-.53 1.488.392.536.238.16.367.345.227 1.638.603.76-.407 1.036-1.444 1.01.563.346.052.108-.39 1.486-.313-.15-.623 1.504-.18.387 2.039-.422.315-.397.04.078.826.86.432.552.552-.627 1.1.689.684-.298.84.331 1.384-.042.97.714.52.533-.348.343.283.722.183.481.823.367.191 1.345.124.417-.422.572-.168 1.255.208.312-.121.23-.361.428-.131.247-.422.388.007.75-.418.57-.635.742-.137.617.566-.246.766 2.384.675 1.42.295 1.327-.366.521-.426-.056-1.029.283-.453.857-.458.822-.08 1.511-.865.15-.271 3.135-.384.972-.587.296-1.027-.126-1.763.794.19.123-.583.627-.397 1.09-1.14.918-1.222.574-.408.87-.289-.153-.438.176-.915-.414-.213.762-1.657-.095-.543.345.098.221.321 1.016.135.17.317.599.25-.223 1.97.168 1.26-.121 1.05.114.734 1.193 2.252-.26 1.009-.032 1.148.665-.43.574.147.827.668.51 1.097 1.038-1.16.405.164.077.224-.297.437.261.778 1.001.336.564-.43.423-.802 1.4-.588.268-.365.126-.794.505-.736.41-1.51 1.15-1.823 1.117-.128.252-.263.239.108.268.776.787-.372.452.457.47.147.485-.117.059-.8-.187-1.031.203-.683.386-.231.155-.457.585-.406 1.135.464.482.609.424.041-.223.119-.049.378.591 1.508.312.368.528-.103 1.375.835-.075.68-.56 1.24.19.338.48.228 1.215-.49 1.006.662.862-.058.736.299.32-.526 1.275-.948.703-1.713.896.219.65.573.2.417 1.046.776 2.7.26-.245.524.023 1.144.466.221.058.467 1.09 1.322 1.014.555.621.847 1.478-.343 2.344.007-.317 1.773.515.249-.035.816.189.156.36-.699.425-.446.27-.703.249.1.466-.168.553.505.913 1.105.543.214 1.044-.079.488.22 1.079-.035.534.101.145-.372 1.088.509 1.117.955.218.25-.155 1.052 1.132.92.582.161 1.713-1.3.686.29.34-1.05.068-.03.573.232 1.534 1.675.514.889.075 1.064.56.707.054.324 2.588.894.29-.197 1.786-1.668.291-.11.244.184.566.48-.062.12 2.116 1.179.715.035.511-.855 1.107-.572.098.927.565 1.031.314.064.025.3 2.264.761.886.702.23.042.037-.159 1.43.788-.753 1.321.299.546.653-.024-.486 1.441-.296.44-.328.098-.601-.177-.556.447.003.275 1.04.91-.11.275-.583.284-.059.339.465.398-.055.25-1.565.531.066.924-.944.675-.088.57-.256.189-.703-.075-1.049.746-1.129 1.61-.564-.225-.193-.502-.906.107-.383.25-1.133 1.232-.351.775-.476.303-.351.777.129.93-.433-.255-.223.374-.514.221.181.66-.163.377-.582-.743-.532.264.548 1.307.327.256.582-.132.273-.434.371.23-.142.617-1.293.647-1.026-.255-.685-.966-.401.002.958 1.846-.01.495-.368.356-.79.347-.343.02-.29-.227-.028-.612 1.096-.538-.57-1.1-.12.513-.366.47-.444-.013-1.375.606.266.48-.106.506-.893-.242-.468.25-.122-.802-.567-.273-.558.295-.422.749-.355.019-.275-.023-.465.847-.025 1.065-.188.233-.507-.014-.052-1.4-.142-.148-1.228.364-1.462 1.045-.87.34.02.607.615.832-.683.85.325.244-.126.127.357.113.096.325.36.196 1.684.074 1.37.363 1.903 1.793 1.044.162-.22-.416 1.657-1.556 1.005-1.48 2.192-1.326.98-1.522.092-.93 1.318-.454 1.928-1.403 1.31 1.033 1.957-1.814 1.117-.375.392-.283h2.612l.036-.39.343.048-.681-2.574.869-.537.664.2.646-.33.597-.581 1.44-.443.474-1.494 1.426-.026.058-.272 2.304-.277 2.036-.054.928-.327-.209-.646.19-.588.258-.781.21-.872.471.007.026-.398.18.205.227-.1-.112-.35.236-.046.137.316.382.102.376-.311.311-.01.217.024.197.792.222-.081.244-.54.46.183.605-.153-.073.493.366.155 1.381-.744-.131-.412.364-.024.537.27-.18.527.103.737.185.121.508-.23 1.04.05.456-1.07 1.574.846-.064.385.74.423.728-.167.236-.619-.25-.248.003-.421.767-.581.033-.21.929.233.18-1.113-.496-1.264.265-.899 1.93-.117 1.222-.594.967-.114.681.264 1.519 1.407.85 1.933.572.247.376-.076.631.037.296.105.007.257.637.234.317-.056.088-.204-.11-.694.556.231.163-.063.06-.446.269.063.243.609.276.125.226-.926.583.249.346-.438.157.756 1.637-.393 1.8-.842.004.344.331.195.38-.295-.484-.064-.15-.255 1.656-1.707.108-.735.424-.024.214-.298.37.01.199-.641.191-.118.833-.04-.168.688.493.278.16 1.218-.134.418.216.226-.083.546v.423l-.49 1.275-.367.494.467 1.146-.009 1.426.454.248 1 1.994.765 3.336 1.034.112 2.11-.45 1.304.083-.193 1.52.362.453-.26.28.127.443-.11.863.245.44-.395.436.215.695-.157.46.121 1.309-.319 1.522-.628.677-.017.418.014 1.295-.62.472.035.668-.896 1.08-.488 1.451.494-.18.344.207.63-.064.504.498 1.024.258 1.354 1.448.578.28 1.608 2.353.385 1.072v.702l.374 1.44 1.369 2.884-.276.339 1.046 1.357.854.774.52.815.016.043 1.704 5.875.412.624 1.625 1.446-.08.795.477.39.263.509 1.516.424.449 1.275 1.1 1.252 1.91 2.728.99.431-.641 1.342-.066.86-.225.285.398 1.203-.921 1.46-.218.08.474 2.516-.207 1.565.204 1.421-.4.442-.263.79-.153 2.539-.58.556.369.91-.445.94.188.834-.067 2.915.313 1.383-2.316 2.144-.143.987-.895-.094-1.131.421-1.65-.863-.516.32.055.935-1.482-.438-.747-1.543-2.633.81-.503-.07-.663.18-.75-.052-.594-1.006-1.983-1.959-.38-.27-.968-.086-3.218-2.518-1.343-.076-2.632 1.052-.063 1.782-2.41-.28-4.423.697-3.717.01-.3 1.395-.48.698-.113.574-1.044 1.49-.155.632.132.314-.186.313.088.534.358.709.255 1.154-.22.77.22.666-2.075-.803-1.837-.379-5.874.48-.21.432-.728.254-.682.634-2.022.949-2.183 1.917-.62 3.741-.861.26-.687.846-3.108 2.526-.621.743-.112.655-1.525.267-.757.392-1.059-.036-.652-.188-.34-.574-.893-.314-2.062.704-.366-.15-1.08.361-.1-.273-1.455.375-1.796.059-1.71.347-.486-.211.042.801-.388.237-.424.692-1.272.938-1.878 1.007-.177.024-.732-.67-1.023-.197-.405-.838-1.168-.934-.849-.42-2.635.138-1.649.542-.27.235-.252.908-1.252 1.318-.874.269-.42.942-1.517.14-1.807-.46-2.366-2.243-1.367-.618-1.199.025-3.722-1.823-.135-.15.102-.209.71-.808-.037-.379-.716-.81.077-.349-.274-.56.346-.953-.371-.212.069-1.296-.406-.603-.016-.637-2.817.09-2.344-.879-1.552.057-.531-.353-2.545-.613-.705.662-.505 1.383-1.356.878-.44.202-.413-.979-.536.1-.122-1.1-.487-.796-.724-.364-.729.312-.503-.12-.708.154.016-.489.492-.764-.01-.515 1.01-2.639-.253-.445.697-1.094-.188-.654.907-2.775.01-1.349.396-.61-.174-.808.92-.43.473.132.359.492 1.804.478.544-.106.732-.589.368-.676-.024-.591.234-.043.322-.642-.448-.606.025-.365-.44-.777.259-1.003-.298-1.072.809-2.582.952-.083.758.226.145-.151 1.02-.01-.951-4.805.2-.83-.175-.266-.018-.839-.188-.147-2.952.413-.926.528-.736-.146-1.16.435-2.245.286-1.083-.203-.901-.522-.398-.534-.915-.438-.748 1.274-2.59 9.225-.278.331-.671.286-.147.31-3.166 1.17-.466.158-.192-.18-1.24-.186-1.608.141-2.372-.629-2.19.143-.684-.552-1.658-.314-.058-.157-1.365-.535-1.707-.063-1.749-.797-.885-.18-.468-.351-1.16-.096-.326-.295.16-.376-.882-.875-1.113-.53-.295.643-.623.108-.62 3.2-.305.409.102 1.39-1.809-.939-.289-.327-.008-.537-.181-.126-.285-1.089-.735-.759-.48-1.384-.592-.45-.423-.011.755-.74.169-.934.94-.401.815.337.13-.413-1.13-.79-1.019-.204-1.647-1.214-.097-.705-.285-.015-.165.523-.41.227.284 1.085-.175.674-.448.509.36.837-1.103-.86-.019-.739-1.77 1.334-.153.38.24.466.035 1.365.493.741-.286.502-.954.576-.047.663-1.699.052-.464-.37-2.723 1.947.428-.078-.068 2.494.3.747-.632.74-2.165.591-1.854-.529-2.712.468-.25-.193-2.36 2.193-2.282 1.446-.329-.021-1.327 1.037-.118-.517.28-.736-1.209.195-.166-.651.062-.519 1.458-2.013.836-.484.295-.494-.913-1.572.395-.543-.122-.351.414-1.583-.101-.237-.71-1.211-.02-.331-1.068-1.638-.477-.14-.384-.392-.813-.25-.607-.664-2.411-.589-3.594-2.879-1.452-.519-.875 1.575-.733.72-.891 1.52-.259.961-.64.912-.105.748-.355.331-.505 1.29-.264.966-.003.91-1.538 5.857-1.446 4.205.104.78-.35.227-.515.032-.274-.243-1.08-1.207-.832-.583-1.25-1.367-1.246-.927-.235-.434-.709-.568-1.739-2.306-1.32-2.337-.446-.863-1.436-1.59-.874.167-.087.16-.572-.005-.887-.483-1.905-2.335-1.954-1.654-1.108-1.877-1.027-1.332-.016-.372-.847-.546-.57-1.023-1.664-1.422-1.118-1.406-1.225-1.109-.44-.672.133-.344 1.25-1.076.496-1.048.403-.17.546-.897.459-1.388.925-.77.155-.223-.052-.393-.213-.08.244-.45-.07-.658.354.033.711-.8.25-.88-.732-.746.44-2.853.535-1.294.825-1.156-.714-1.488-1.103-1.605-.58-.203-1.085-1.33-.06-.561.967-.088.576-.487-.222-1.486-.46-1.134-.193-1.313.058-1.256-.115-.008-.377.21-.89-.061-2.41.137-.39.656-.448.35-1.637 1.976-1.202.982-.059.784-.92 1.082-1.23.013-.882-.531-1.851-.557-1.321.062-.555-.922-.16-.676.475-1.854-.374-.198-.116-1.024.302-1.25.064-2.317.212-.902.38-.65 1.082-.994.489-1.028.65-.675-.052-.86-.502-.095-.28-.165-.208-1.16-1.53-.681-.074-.816-.645-.556-.863-.151-1.317.174Z"/></defs><text transform="translate(485.666 376.365)" font-family="&quot;Tahoma&quot;" class="C">Albacete</text><text transform="translate(300.069 376.365)" font-family="&quot;Tahoma&quot;" class="C">Ciudad Real</text><text transform="translate(476.22 231.972)" font-family="&quot;Tahoma&quot;" class="C">Cuenca</text><text transform="translate(424.452 122.104)" font-family="&quot;Tahoma&quot;" class="C">Guadalajara</text><text transform="translate(276.255 251.873)" font-family="&quot;Tahoma&quot;" class="C">Toledo</text></svg>