<?xml version="1.0" encoding="UTF-8" standalone="no"?>
<svg
    width="297mm"
    height="210mm"
    viewBox="0 0 297 210"
    version="1.1"
    id="svg1"
    xml:space="preserve"
    xmlns="http://www.w3.org/2000/svg"
    xmlns:svg="http://www.w3.org/2000/svg"><defs
     id="defs1" /><g
     id="layer1"><path
       style="fill:#000000;stroke-width:0.714257"
       d="m 38.935951,91.964077 c 0.04687,-0.111839 0.304581,-0.834989 0.5727,-1.606994 0.53952,-1.553459 1.049159,-2.457773 2.628276,-4.663685 0.58498,-0.817174 1.162097,-1.694932 1.282482,-1.950579 0.490438,-1.041469 1.525615,-3.876173 1.777554,-4.867609 0.147963,-0.582265 0.464607,-1.47699 0.703655,-1.988276 0.752052,-1.608526 0.960203,-2.06761 1.343498,-2.963139 0.939099,-2.194101 1.586064,-3.646328 2.174242,-4.880463 0.776813,-1.629935 2.006362,-4.497914 2.008751,-4.685506 9.29e-4,-0.07527 0.132747,-0.555182 0.292863,-1.066468 0.160115,-0.511287 0.33889,-1.259859 0.397277,-1.663492 0.189369,-1.309125 1.267307,-4.866082 1.925709,-6.354413 0.511093,-1.155335 1.100856,-3.267549 1.100856,-3.942673 0,-0.409056 0.08168,-0.81906 0.216678,-1.087671 0.119173,-0.237119 0.282024,-0.640289 0.361893,-0.895932 0.37217,-1.191244 1.787981,-2.840278 2.700013,-3.144781 0.72578,-0.242317 1.149673,-0.242359 2.124785,-2.12e-4 1.437675,0.357013 2.005418,0.36167 2.730736,0.0224 0.844035,-0.394802 1.743987,-0.904879 2.225155,-1.261178 0.823852,-0.610052 2.22105,-1.279698 2.982475,-1.429434 0.756726,-0.148811 1.994934,-0.328156 2.345468,-0.339722 0.09587,-0.0031 0.226593,-0.03956 0.290503,-0.08087 0.231104,-0.149407 1.110789,-0.02166 1.424056,0.206804 0.175432,0.12794 0.410475,0.266664 0.522319,0.308275 0.111845,0.04161 0.203353,0.155583 0.203353,0.253272 0,0.260193 -0.741825,1.037733 -1.381992,1.448527 -0.642969,0.412591 -0.825836,0.739676 -0.825836,1.477126 0,1.209155 0.298425,1.833913 2.313245,4.842814 0.676995,1.011015 1.335482,2.011049 1.463303,2.222298 0.297011,0.490865 0.634855,0.954547 0.929612,1.27587 0.127822,0.139341 0.493857,0.590453 0.813411,1.002472 0.822446,1.060422 1.895921,2.104571 2.440232,2.373564 0.255643,0.126337 0.961567,0.710955 1.56872,1.299153 1.033089,1.000836 2.698347,2.160606 4.125154,2.872968 0.25564,0.127635 0.704786,0.444853 0.998103,0.704929 0.758348,0.672419 1.711489,0.965599 3.185152,0.979731 1.208466,0.01159 1.200573,0.0096 3.24182,0.826606 0.97174,0.388948 2.201941,0.576913 3.788371,0.578833 0.788747,9.28e-4 3.661504,-0.497325 4.589957,-0.796129 0.19173,-0.06171 0.87151,-0.22658 1.51062,-0.366389 0.63911,-0.139809 1.42347,-0.322909 1.74302,-0.406888 0.31956,-0.08398 0.99934,-0.213257 1.51062,-0.287284 0.51129,-0.07403 1.13132,-0.186406 1.37785,-0.249731 0.80566,-0.20695 2.77024,-0.120527 4.40921,0.193965 1.65986,0.318502 4.25105,0.889863 5.36828,1.183718 0.984,0.25881 2.15162,0.297029 2.73936,0.08966 0.26697,-0.09419 0.74159,-0.171263 1.05471,-0.171263 0.41562,0 0.78024,-0.106198 1.35076,-0.39343 0.42979,-0.216387 1.0057,-0.460574 1.27978,-0.542639 0.27408,-0.08207 0.77224,-0.388711 1.10704,-0.681434 0.33478,-0.292724 1.0044,-0.859333 1.48803,-1.259131 0.86825,-0.717753 1.37074,-1.421219 1.54587,-2.164148 0.0493,-0.20906 0.4955,-0.743194 1.18918,-1.423468 1.09369,-1.072558 1.11875,-1.088848 1.67484,-1.088848 0.46091,0 0.5894,0.04643 0.69993,0.252971 0.1951,0.364548 0.0566,1.992678 -0.23535,2.766627 -0.2805,0.743616 -0.30215,1.169616 -0.0815,1.605182 0.0874,0.172581 0.23033,0.597318 0.3176,0.94386 0.1245,0.494369 0.12781,0.640363 0.0154,0.677842 -0.175,0.05833 -0.19909,1.374624 -0.0271,1.480918 0.0639,0.0395 0.1162,0.173312 0.1162,0.297362 0,0.12405 0.0523,0.225545 0.1162,0.225545 0.0639,0 0.11711,0.09151 0.11823,0.203353 0.001,0.12548 0.27937,0.365771 0.72626,0.627487 1.43166,0.838435 1.42809,0.837455 4.24852,1.162495 0.9556,0.110127 1.28722,0.108279 1.62682,-0.0091 0.82682,-0.285701 1.47113,-0.640458 2.2809,-1.255864 0.81519,-0.619532 0.82081,-0.621633 1.48044,-0.553856 0.61685,0.06338 0.67539,0.04781 0.85583,-0.227558 0.25637,-0.391271 0.45522,-0.373172 0.63369,0.05768 0.14394,0.347519 0.98059,1.157348 1.19567,1.157348 0.0605,0 0.40403,0.148937 0.76344,0.330972 1.26884,0.642631 2.82266,0.853676 6.32644,0.859275 2.63174,0.0042 3.97321,-0.111738 4.32037,-0.373408 0.0639,-0.04817 0.27308,-0.123363 0.46481,-0.167093 0.47146,-0.107526 1.96117,-0.668227 2.03353,-0.765383 0.0319,-0.04291 0.37184,-0.224255 0.75531,-0.403002 1.65952,-0.773563 2.02518,-0.970702 2.90504,-1.566181 0.51128,-0.346034 1.11262,-0.766784 1.33632,-0.934999 0.22368,-0.168216 0.72045,-0.540521 1.10391,-0.827345 0.38346,-0.286824 1.3247,-0.89417 2.09162,-1.349658 1.07127,-0.636238 1.65025,-0.89749 2.49834,-1.127329 1.38384,-0.375033 1.97543,-0.395078 1.97543,-0.06693 0,0.199401 -0.0784,0.232792 -0.55197,0.235138 -0.67978,0.0034 -2.05708,0.360156 -2.6597,0.688992 -0.96316,0.525577 -2.53147,1.519374 -2.81898,1.786313 -0.16628,0.154391 -0.45895,0.378989 -0.65037,0.499106 -0.31835,0.199765 -1.43825,1.00001 -2.1503,1.536542 -0.15977,0.120391 -0.5781,0.36102 -0.92962,0.534729 -0.3515,0.17371 -0.71754,0.362932 -0.81341,0.420494 -0.26471,0.158944 -1.14084,0.573567 -1.21199,0.573567 -0.0345,0 -0.3119,0.152857 -0.61643,0.339682 -0.30454,0.186826 -1.08892,0.498325 -1.74308,0.69222 -0.65416,0.193896 -1.3078,0.420146 -1.45252,0.502779 -0.19853,0.113351 -1.09057,0.150241 -3.63299,0.150241 -4.45916,0 -5.34498,-0.141124 -7.43689,-1.184805 -0.44738,-0.223201 -0.95109,-0.570368 -1.11936,-0.771482 -0.30284,-0.36194 -0.30993,-0.363812 -0.69721,-0.183849 -0.2896,0.134575 -0.48523,0.153771 -0.75293,0.07389 -0.30547,-0.09116 -0.4409,-0.05744 -0.87152,0.216991 -0.28041,0.178705 -0.66671,0.463782 -0.85843,0.633503 -0.55447,0.490815 -1.74788,0.926115 -2.61454,0.953666 -0.95117,0.03023 -3.01276,-0.209434 -3.77655,-0.439044 -1.48905,-0.447636 -2.49357,-1.185821 -2.85772,-2.100025 -0.075,-0.188385 -0.12894,-0.88566 -0.12258,-1.585447 0.006,-0.687041 -0.0313,-1.249166 -0.0833,-1.249166 -0.0521,0 -0.1631,-0.207254 -0.2467,-0.460564 -0.16982,-0.514557 -0.0984,-1.813684 0.12237,-2.226214 0.1976,-0.369231 0.2889,-2.024172 0.11751,-2.1301 -0.27734,-0.171402 -0.67784,0.06309 -1.52927,0.895418 -0.83596,0.817186 -1.16184,1.299708 -1.32797,1.966266 -0.0922,0.369732 -0.76131,1.095447 -1.7997,1.951811 -0.41542,0.342597 -0.83614,0.71142 -0.93492,0.819606 -0.27864,0.305148 -1.02957,0.74266 -1.79581,1.046282 -0.38347,0.151946 -0.77565,0.331023 -0.87152,0.397947 -0.52139,0.363979 -0.84618,0.465917 -1.74302,0.547049 -0.54324,0.04915 -1.22046,0.123836 -1.50494,0.16598 -0.6142,0.09099 -1.61318,-0.06983 -3.67104,-0.591012 -0.8336,-0.211118 -1.9317,-0.445156 -2.44023,-0.520084 -0.50853,-0.07493 -1.21857,-0.210569 -1.57786,-0.301421 -1.01681,-0.257117 -2.7499,-0.397672 -3.53,-0.286287 -1.48789,0.212448 -2.34237,0.353505 -2.78883,0.460382 -0.25565,0.0612 -0.85699,0.195239 -1.33632,0.297868 -0.47933,0.10263 -1.23754,0.287275 -1.68492,0.410322 -2.437955,0.670541 -4.162258,0.955698 -6.10058,1.008889 l -1.917324,0.05261 -0.864708,-0.360541 c -0.475588,-0.198298 -1.18151,-0.442229 -1.568716,-0.542071 -0.387206,-0.09984 -0.78844,-0.257245 -0.891629,-0.349785 -0.130723,-0.117239 -0.588748,-0.186175 -1.510618,-0.227357 -1.614521,-0.07212 -2.259481,-0.269163 -3.08682,-0.943037 -0.65041,-0.529769 -1.14549,-0.854519 -2.477544,-1.625169 -1.249455,-0.722864 -2.110386,-1.370753 -2.873039,-2.162093 -0.397823,-0.412785 -1.096331,-0.975901 -1.552242,-1.251366 -0.73424,-0.443634 -2.198203,-1.894173 -2.198203,-2.178046 0,-0.04745 -0.31691,-0.425212 -0.704246,-0.839477 -0.387335,-0.414265 -0.895748,-1.066953 -1.129805,-1.450419 -0.234057,-0.383465 -0.57078,-0.879068 -0.748273,-1.101339 -0.177492,-0.222272 -0.322713,-0.450055 -0.322713,-0.506185 0,-0.05613 -0.156872,-0.300121 -0.348605,-0.542204 -0.191732,-0.242081 -0.348605,-0.477366 -0.348605,-0.522854 0,-0.04548 -0.131514,-0.247126 -0.292255,-0.448084 -0.397378,-0.496804 -0.429258,-0.539541 -0.749297,-1.004487 -0.153972,-0.223688 -0.427082,-0.578469 -0.606911,-0.788404 -0.284177,-0.331751 -0.326962,-0.478377 -0.326962,-1.120532 0,-0.501573 -0.04884,-0.757575 -0.152083,-0.797194 -0.111793,-0.0429 -0.14063,-0.282644 -0.108849,-0.904957 0.0497,-0.973164 0.297358,-1.376483 1.084337,-1.765849 0.440474,-0.217929 0.919618,-0.697035 0.919618,-0.919546 0,-0.227252 -0.771617,-0.438969 -1.176573,-0.322828 -0.214838,0.06161 -0.976142,0.112026 -1.691789,0.112026 -0.742106,0 -1.332034,0.04993 -1.372993,0.116201 -0.0395,0.06391 -0.251748,0.116202 -0.471664,0.116202 -0.219916,0 -0.399847,0.05229 -0.399847,0.116201 0,0.06391 -0.124628,0.116202 -0.276952,0.116202 -0.179224,0 -0.298395,0.08201 -0.337725,0.232403 -0.0408,0.156008 -0.1585,0.232402 -0.358069,0.232402 -0.178367,0 -0.34705,0.09297 -0.421672,0.232404 -0.08144,0.152177 -0.243306,0.232403 -0.468895,0.232403 -0.267048,0 -0.344516,0.05226 -0.344516,0.232403 0,0.170429 -0.07747,0.232403 -0.290504,0.232403 -0.159776,0 -0.290911,0.06536 -0.29141,0.145252 -0.001,0.164822 -0.52061,0.435755 -0.835671,0.435755 -0.133504,0 -0.209236,0.08626 -0.209236,0.238333 0,0.162123 -0.128854,0.292171 -0.402973,0.406705 -0.526044,0.219795 -1.08548,0.212407 -2.15346,-0.02844 -1.253559,-0.2827 -2.544647,-0.249845 -3.07554,0.07827 -0.228877,0.141453 -0.493849,0.407461 -0.588827,0.59113 -0.09498,0.183667 -0.265821,0.383784 -0.379649,0.444703 -0.113829,0.06092 -0.406315,0.520013 -0.649968,1.020208 -0.243654,0.500195 -0.516014,1.04824 -0.605246,1.217878 -0.08923,0.169638 -0.164077,0.483382 -0.166323,0.697209 -0.0061,0.588371 -0.57708,2.917955 -0.831673,3.393667 -0.137765,0.257416 -0.682561,1.708856 -1.161962,3.095689 -0.550486,1.592469 -1.114875,3.646133 -1.305328,4.749754 -0.285565,1.654762 -1.03564,3.782063 -2.156146,6.115087 -1.009577,2.102054 -3.405024,7.546038 -3.553583,8.076004 -0.04479,0.159777 -0.180332,0.430957 -0.301209,0.602622 -0.19595,0.278283 -0.450254,1.011656 -1.241616,3.580632 -0.401069,1.301981 -1.402475,3.615285 -1.857416,4.290744 -0.239982,0.3563 -0.669597,0.979546 -0.954698,1.384987 -1.300553,1.849512 -2.177257,3.329403 -2.332731,3.9377 -0.06157,0.240905 -0.245957,0.817111 -0.409747,1.280463 -0.235696,0.666774 -0.346397,0.84246 -0.530845,0.84246 -0.176942,0 -0.212532,-0.04893 -0.147834,-0.203356 z"
       id="path1" /></g></svg>