<svg xmlns="http://www.w3.org/2000/svg" width="800" height="533" baseProfile="full" style="background-color:false" xmlns:v="https://vecta.io/nano"><use href="#B" paint-order="fill" filter="url(#A)"/><use href="#B" fill="#eee" stroke="#000" stroke-miterlimit="10" stroke-width=".4" paint-order="fill"/><defs><filter id="A" width="1000%" height="1000%" x="-100%" y="-100%"><feOffset dx="-9.8" dy="9.8" in="SourceGraphic"/><feColorMatrix values="0.2 0 0 0 0 0 0.2 0 0 0 0 0 0.2 0 0 0 0 0 1 0"/><feGaussianBlur stdDeviation="8"/><feBlend in="SourceGraphic"/></filter><path id="B" d="M319.379 372.709v-.11h-.06v-.08h-.295v-.079h-.237v-.394h.059v-.08h.06v.08h.118v.079h.177v.079h.178v.078h.238l-.093.261-.145.166zm-209.96-208.156v.158h.06v.078h.058v.237h.06v.08h.118v.079h.355v.077h.119v-.077h.355v.077h.06v1.027h-.119v.08h-.06v.235h-.058v.159h-.06v.236h-.059v.079h-.118v.08h-.296v.078h-.119v-.079h-.06v-.079h-.176v.158h-.06v.08h-.118v.156h-.06v.08h-.059v.079h-.059v.158h-.118v.078h-.06v.08h-.058v.078h-.06v.08h-.177v.079h-.237v.078h-.474v.079h-.059v.079h-.118v.079h-.06v.08h-.118v.078h-.296v.078h-.059v-.078h-.236v-.079h-.119v-.079h-.119v.08h-.177v.078h-.118v.078h-.06v.08h-.059v.078h-.06v.08h-.058v.079h-.06v.078h-.058v.079h-.06v.158h-.059v.08h-.296v.078h-.06v.078h-.117v-.078h-.06v.078h-.296v.08h-.236v.079h-.119v.079h-.118v.079h-.06v.078h-.236v-.078h-.06v.078h-.236v-.078h-.178v-.08h-.118v-.078h-.118v-.08h-.119v-.079h-.118v.08h-.06v-.158h-.059v.078h-.06v-.078h-.058v-.079h-.237v-.079h-.059v-.079h-.118v-.08h-.474v.08h-.177v.08h-.06v-.08h-.296v.08h-.177v.078h-.119v.08h-.059v.077h-.178v.159h-.058v.079h-.06v.157h-.059v.08h-.118v.078h-.06v.08h-.059v.078h-.059v.237h.059v.158h-.059v.08h-.059v.077h-.119v.08h-.059v.078h-.059v.159h-.06v.078h-.117v.079h-.119v.079h-.06v.079h-.058v.08h-.06v.078h-.177v-.079h-.06v.08h-.118v-.08h-.473v-.079h-.119v-.08h-.177v-.078h-.474v.079h-.059v.079h-.059v.08h-.118v.078h-.237v.078h-.118v.08h-.06v.079h-.118v.079h-.119v.157h-.059v.079h-.06v.08h-.058v.078h-.059v.08h-.06v.156h-.059v.075l-.516-.198-7.063-2.323-.133-.031.179-1.165-1.76-6.776v-.078h.178v-.079h.177v-.158h.118v-.08h.119v-.077h.06v-.08h.058v-.078h.06v-.08h.058v-.079h.06v-.079h.059l.01-.09.05.012v-.316h.058v-.157h.06v-.08h.177v-.079h.356v.08h.058v.078h.06v.08h.294v-.08h.06v-.079h.118v.08h.06v-.08h.177v-.079h.237v.08h.118v.078h.178v-.079h.059v-.079h.237v-.079h.118v-.079h.178v-.078h.118v-.08h.355v.08h.178v.078h.118v.08h.06v.078h.059v.08h.118v.394h.118v.079h.119v-.08h.118v-.078h.06v.079h.058v.079h.06v.08h.118v.077h.119v.08h-.06v.078h.06v.159h.118v.079h.06v.078h.117v.079h.06v.08h.118v.078h.06v.08h.177v.077h.059v.08h.118v.079h.119v.079h.118v.079h.06v.079h.295v.078h.178v.08h.059v.078h.237v.08h.119v.079h.117v.078h.297v.158h.059v.079h.06v.079h.058v.08h.06v.156h.058v.159h.06V164h.059v.158h.06v.158h.118v.157h-.06v.08h.06v.079h.059v.157h.059v.158h.059v.158h.06v.395h.058v.079h.593v.078h.059v.08h.059v.078h.118v.08h.06v.079h.058v.157h.06v.079h-.06v.158h.06v.08h.178v.077h.058v.08h.06v.079h.177v.158h.119v.079h.06v.157h.413v-.08h.178v-.077h.059v-.158h.06v-.159h-.06v-.079h.06v-.078h.177v-.079h.118v-.079h.118v-.08h.592v.08h.119v-.08h.178v-.078h.118v-.078h.059v-.08h.118v-.079h.06v-.079h.177v-.079h.356v-.079h.414v.08h.177v.078h.237v.08h.119v.079h.059v.079h.059v.078h.177v.079h.119v.077l.118.002v.08h.118v.078h.237v.078h.474v.08h.06v.079h-.06v.158h-.237v-.08h-.355v-.078h-.06v-.08h-.177v-.079h-.118v-.078h-.06v-.079h-.118v-.079h-.118v-.08h-.474v-.078h-.059l-.013-.078h-.105v-.08h-.237v.08h-.237v.078h-.118v.158h-.06v.08h.06v.235h.06v.08h.236v.079h.177v.079h.119v.157h.06v.079h.117v.158h.06v.157h.059v.08h.118v.079h.355v-.08h.119v-.079h.059v-.078h.296v-.079h.059v.08h.06v.077h-.06v.08h-.06v.158h-.177v.079h-.059v.157h.06v.08h.118v.078h.236v.08h.119v.079h.059v.078h.059v-.078h.356v-.08h.058v.08h.237v-.08h.06v-.158h-.06v-.079h-.118v-.157h.118v-.08h.06v-.078h.118v.079h.06v.079h.058v.079h.059v.157h.119v-.079h.06v-.078h.236v-.08h.118v-.078h.119v-.08h.118v-.078h.118v-.08h.06v-.236h-.06v-.079h-.059v-.079h-.059v-.078h-.414v.078h-.06v-.157h-.059v-.08h-.059v-.158h.414v.08h.592v.079h.296v-.08h.06v-.079h.059v-.079h.059v-.078h.06v-.237h.058v-.71h.06v-.08h.118v-.078h.059v-.08h.06v-.394h.118v-.08h.06v-.077h.295v-.08h.118v-.078h.355v-.08h.355v-.079h.06v-.078h.236v-.079h.06v-.158h.06v-.08h.058v-.156h.06v-.08h.058v-.079h.06v-.236h.236v.078h.119v.08h.059v.078h.06v.159h.058v.078h-.059V164h.06v.079h.058v.08h.06v.078h.059v.08h.06v.077h.177v.08h.118v.079h.06zm-28.472-3.788v.157h.119v.473h-.06v.08h-.059v.079h.119v.079h.118v.315h-.059v.08h-.118v.078h-.12v-.079h-.117v.08h-.237v-.08h-.178v.08h-.177v-.08h-.06v-.079H80v-.236h.06v-.08h.059v-.078h.118v.079h.059v-.159h-.059v-.079h.059v-.079h.06v-.078h.058v-.079h.119v-.158h.06v-.157h.236v-.08h.118zm634.377 208.282v.079h.06v.078h.117v.079h.06v.394h-.06v.632h.06v.08h.059v.078h.06v.079h.058v.237h.06v.079h.059v.395h-.06v.157h-.118v.079h-.06v.079h-.058v-.08h-.06v-.235h-.058v-.08h-.06v-.079h-.059v-.079h-.178v-.079h-.059v.08h-.06v-.08h-.058v.08h-.06v-.08h-.118v.158h-.118v-.079h-.06v-.157h-.059v.078h-.06v-.157h.06v-.08h.06v-.157h-.06v-.079h-.06v.079h-.117v-.079h-.06v-.079h.06v-.079h.118v.08h.296v-.08h-.059v-.079h.06v-.158h.177v-.157h-.06v-.238h.06v-.078h.059v-.473h.06v-.08h.236zm3.67-.553v.158h.06v.474h-.06v.078h-.06v.316h.06v.08h.178v.077h.059v.159h.059v.079h.177v.079h.237v-.08h.178v.08h.059v.157h.06v.08h-.06v.157h-.06v.08h-.058v.077h-.06v.08h-.296v-.08h-.059v-.078h-.118v-.079h-.118v-.079h-.178v-.079h-.06v-.079h-.117v-.08h-.06v-.235h-.059v-.159h-.06v-.789h.06v-.157h.06v-.079h.058v-.08h.06v-.078h.118zm-1.48.315v.08h.06v.078h.354v.08h.06v.079h.059v.078h.118v.395h-.059v.078h-.06v.08h-.058v.237h.059v.078h-.119v.079h-.177v.08h-.118v.078h-.06v-.079h-.06v-.158h-.117v-.078h-.06v-.158h-.058v-.08h-.06v-.315h-.06v-.236l-.058-.001v-.078h-.06v-.238h.06v-.079h.414zm-313.133-9.628v.078h.059v.08h.059v.079h.059v.158h-.06v.079h-.058v-.08h-.71v-.157h.059v-.08h.059v-.079h.236v-.078h.297zm201.494-29.694l.237.018v.158h.06v.474h.059v.157h.058v.08h.119v.078h.118v.159h.06v.157h.059v.316h.118v.157h.06v.08h.058v.079h.297v-.08h.532v.08h.118v.236h.06v.158h.059v.316h-.178v.079h-.059v.079h-.059v.079h-.118v.078h-.06v.394h-.059v.08h-.06v.158h-.058v.236h.059v.08h-.06v.078h.06v.237h.178v.473h.059v.08h.296v.079h.118v.079h.06v.236h.059v.158h.059v.08h.059v.078h.059v.078h.119v.08h.059v.079h.178v.079h.177v-.08h.118v.08h.06v.079h.118v.078h.059v.158h.118v.159h.06v.079h-.06v.157h.06v.079h.059v.158h.059v.078h.06v.08h.058v.078h.06v.08h.059v.079h.059v.079h.06v.157h.118v.079h.059v.08h.059v.078h.118v.078h.06v.08h.058v.079h.06v.079h.06v.079h.118v.157h.059v.08h.177v.078h1.125v.08h.06v.078h.059v.079h.058v.079h.119v.158h.059v.079h.118v.315h.06v.08h.059v.079h-.178v-.08h-.059v-.079h-.06v-.158h-.058v-.078h-.06v-.079h-.118v-.08h-.059v-.078h-.296v.079h-.059v.158h.06v.078h-.12v.08h-.118v-.08h-.118v-.157h-.06v-.158h-.059v-.08h-.237v.08h-.295v.079h-.178v.079h-.06v.157h-.059v.08h-.118v.078h-.059v.159h.06v.078h.058v.079h.119v.079h.06v.079h.058v.236h-.059v.08h-.119v.079h-.354v.079h-.06v-.08h-.059v-.079h-.236v.08h-.06v.632h-.059v.236h-.06v.868h.06v.158h.06v.077l-1.982-.351-.539-.14-.662-.175-.328-.325-.656-.466-.432-.636-.3-.467-.12-.416.082-.507.105-.43-.349-.728-.215-.39-.098-.52.15-1.315.092-.307.038-.123.105-.575.08-.884.223-.627.318-.808.295-.887.409-.76.04-.076.073-.1z"/></defs><text transform="translate(124.273 189.5)" font-family="&quot;Tahoma&quot;" font-size="13">Ceuta</text><text transform="translate(550.082 341.5)" font-family="&quot;Tahoma&quot;" font-size="13">Melilla</text></svg>