<svg xmlns="http://www.w3.org/2000/svg" width="800" height="533" baseProfile="full" style="background-color:false" xmlns:v="https://vecta.io/nano"><use href="#B" paint-order="fill" filter="url(#A)"/><use href="#C" paint-order="fill" filter="url(#A)"/><g fill="#eee" stroke="#000" stroke-miterlimit="10" stroke-width=".4"><use href="#B" paint-order="fill"/><use href="#C" paint-order="fill"/></g><defs><filter id="A" width="1000%" height="1000%" x="-100%" y="-100%"><feOffset dx="-9.8" dy="9.8" in="SourceGraphic"/><feColorMatrix values="0.2 0 0 0 0 0 0.2 0 0 0 0 0 0.2 0 0 0 0 0 1 0"/><feGaussianBlur stdDeviation="8"/><feBlend in="SourceGraphic"/></filter><path id="B" d="m280.547 438.82-.004.015-.015.056-.008.063-.041.181-.017.06-.053.107-.05.091-.06.068-.006.015-.016.01-.036.041-.126.088-.107.058-.098.04-.035.014-.06.014-.084.02-.076-.005-.14-.06-.004-.001-.05-.03-.047-.021-.04-.01-.136-.001-.036.004-.015.008-.01.005-.023.012-.078.069-.024.042-.17.232-.015.02-.006.004-.025.016-.012.005-.03.001-.037-.013-.03-.026-.017-.037-.013-.057.003-.106.009-.04.022-.054.053-.079.06-.063.079-.072.203-.157.003-.003.185-.186.006-.006.005-.03-.004-.016-.008-.037-.029-.087-.025-.06-.026-.098-.02-.046-.054-.09-.035-.037-.05-.038-.103-.048-.048.005-.15.041-.103.024-.016.005-.04.015-.058.009-.047.012-.084.01-.05.012-.04-.001-.032-.009-.034-.017-.097-.064-.055-.017-.007-.002-.068-.014-.064-.003-.017.004-.024.007-.008.004-.03.014-.036.035-.01.066.017.042.007.069.062.086.082.114.036.11.003.079-.005.032-.028.087-.049.098-.016.044.012.035.006.168-.007.061-.006.028-.006.023-.005.016-.007.022-.015.023-.064.067-.098.079-.077.05-.047.017-.093.03-.069.01-.083.022-.102-.002h-.032l-.05.008-.252.074-.122.055-.033.009-.039.048-.012.027-.032.031-.032.022-.11.054-.123.072-.046.037-.038.05-.034.056-.083.082-.15.168-.07.084-.09.116-.104.124-.057.075-.048.074-.053.066-.052.033-.08.008-.028-.019-.027-.026-.061-.079-.05-.148-.002-.004-.007-.05-.008-.099-.01-.305-.024-.104-.007-.057-.036-.086-.024-.091-.029-.058-.029-.046-.04-.175-.02-.047-.041-.082-.013-.024-.008-.016-.045-.055-.042-.024-.039-.002-.13-.013-.189-.037-.144-.026-.114-.005-.077.02-.036.018-.027.015-.064-.009-.042.008-.043.004-.065-.014-.069-.05-.111-.124-.107-.118-.088-.114-.067-.133-.023-.07-.06-.17-.02-.094-.031-.172-.027-.112-.017-.073-.026-.041-.04-.049-.027-.026-.014-.012-.05-.026-.05-.02-.064-.007-.07-.009h-.008l-.056-.003-.05-.01-.066-.02-.188-.036.005-.024.007-.027.037-.01.03-.008.017-.016-.013-.021-.038-.044-.005-.02.007-.023v-.022l-.007-.009-.016-.022-.043-.032-.006-.045.009-.03.021-.015.038-.04.017-.011.012.005.016.016.005.019.01.012.017-.001.009-.015v-.057l-.02-.16-.013-.023-.016-.007-.005-.003-.037.01-.05.003-.014-.009v-.02l.014-.022.017-.01.01-.024.03-.035.002-.003.029-.015.012-.017-.002-.028-.016-.033-.038-.055-.025-.044-.03-.046-.018-.022-.02-.01-.027.007-.03.013-.032.023-.043.032-.031.004-.023-.01-.015-.015v-.023l.006-.01.006-.009.016-.035.02-.043.014-.031.004-.034-.003-.042-.014-.01-.021-.002-.048.006-.017-.013-.008-.034-.001-.057.001-.063.008-.082-.002-.054-.015-.037-.006-.04-.025-.136.002-.078-.005-.08-.013-.042-.022-.057-.01-.055-.026-.03-.057-.036-.003-.002-.037-.028-.005-.024.01-.021.006-.056-.006-.038-.009-.029-.017-.06-.015-.05-.028-.026-.044-.038-.021-.04-.018-.02-.054-.052-.01-.028.01-.023.01-.023.024-.023.029-.045.029-.063.003-.007.007-.048.017-.089.01-.05-.005-.032-.005-.066-.01-.023-.027-.018-.032-.02-.018-.019-.013-.024-.007-.013-.007-.011-.038.013-.014.01-.037.02-.018-.006-.005-.002-.024-.012-.02.002-.025.032-.006.007-.02.023-.026.031-.02-.002-.031-.025-.034-.063-.052-.08-.052-.043-.027-.03-.003-.042.002-.079-.004-.02-.014-.022-.008-.047.011-.027.01-.027-.004-.021-.016-.031-.035-.043.001-.03.013-.025.008-.037-.007-.032-.02-.041-.009-.029-.004-.053-.015-.022-.025-.009-.06-.002-.042-.009-.084-.045-.054-.045-.048-.003-.042-.018-.034-.029-.072-.003-.026-.005-.043-.051-.062-.12-.003-.075-.034-.063-.013-.053-.003-.014-.105-.393-.14-.177-.119-.143-.186-.221-.063-.09-.228-.294-.287-.367-.137-.177-.173-.221-.105-.213-.086-.176-.115-.234-.2-.405-.178-.375.012-.023.04-.069.02-.036-.003-.025-.035-.046-.008-.03-.008-.046-.03-.06-.06-.09-.085-.117-.013-.028-.014-.023-.096-.12-.048-.06-.006-.008-.025-.036-.02-.038.004-.05.002-.023.014-.14.007-.088-.008-.11-.062-.331-.033-.14-.017-.088-.007-.054.006-.15.014-.051.04-.109-.004-.061-.03-.055-.109-.12-.037-.056-.017-.06-.007-.042.011-.061.018-.037.045-.061.027-.036.02-.044.01-.044.005-.053.001-.01.002-.156.007-.048.007-.02.02-.03.063-.045.009-.024.012-.037.002-.005.003-.053v-.03l-.039-.059-.046-.041-.095-.072-.056-.04-.035-.031-.015-.033-.006-.07-.017-.076.003-.025.018-.05.09-.153.01-.018.026-.016.04-.003.007-.027-.005-.06.012-.025.014-.021.013-.02-.002-.03-.012-.018-.043-.036-.016-.017.006-.02.018-.006.052.007.022-.003.009-.01.005-.005.013-.023v-.018l-.057-.093-.046-.062-.069-.089-.054-.05-.036-.016-.027.008-.03.017-.023.035-.006.01-.026.045-.038.034-.033.016-.034.007-.03-.006-.026-.022-.006-.041.001-.054.082-.129.045-.07.03-.088.008-.052-.008-.038-.034-.054-.02-.016-.06-.051-.052-.05-.034-.054-.002-.027.015-.028.033-.029.009-.048v-.034l-.028-.025-.058-.025-.055-.026-.036-.02-.017-.018-.005-.02.002-.019.021-.015.049-.01.08.005h.042l.016-.002.01-.004.004-.018v-.056l-.022-.054-.041-.048-.067-.033-.087-.024-.089.005-.062.025-.046.036-.012.034.001.007.006.029.03.037.026.038-.001.036-.002.034-.01.026-.041.035-.07.048-.045.055-.037.02-.061.011-.028-.005-.015-.006-.009-.004-.011-.015-.007-.009-.017-.03-.012-.06-.003-.067-.002-.052-.024-.061-.03-.058-.022-.094-.008-.067.007-.035.01-.024.022-.03.072-.06.079-.082.023-.042-.004-.024-.016-.01-.007-.005-.054-.011-.054-.02-.038-.04-.027-.043-.013-.04.002-.031.014-.043.026-.037.074-.064.05-.022.112-.051.044-.038.025-.037.018-.046-.003-.039-.007-.007-.005-.006-.026-.027-.072-.015-.147-.019-.151.003-.095.012-.053.023-.004.002-.05.023-.014.003-.015-.012-.008-.018-.001-.04.058-.157.009-.032.015-.055v-.082l-.005-.011-.013-.033-.01-.016-.023-.038-.054-.035-.037-.01-.134-.025-.077-.03-.103-.007-.014-.004-.01-.003-.01.005-.028.013-.101.034-.09.017h-.048l-.115-.04-.015-.028.01-.006.024.005.088.038.024-.005.007-.01-.008-.016-.084-.034-.265-.262-.034-.016-.033-.002-.095.021-.036.019-.112.102-.007.004-.08.05-.06.085-.09.09-.052.035-.024.01-.02.001-.04-.016-.037-.023-.024-.03-.009-.03.006-.043.009-.027.032-.042.09-.466.015-.048.009-.068v-.059l-.006-.038-.01-.01-.01-.001-.028.016h-.045l-.04-.019-.083-.021-.105-.036v-.019l-.013-.016-.06-.068-.166-.188-.183-.207-.083-.094-.048-.053-.097-.18-.065-.122-.09-.168-.021-.039-.076-.16-.084-.117-.033-.03-.024-.032-.1-.091-.071-.091-.034-.054-.07-.063-.024-.022-.045-.05-.113-.198-.044-.121-.058-.081-.03-.059-.09-.207-.005-.012-.097-.286-.046-.142-.051-.077-.07-.113-.134-.226-.108-.154-.145-.19-.052-.068-.082-.093-.046-.098-.07-.17-.045-.084-.093-.237-.135-.342-.126-.255-.077-.11-.048-.1-.046-.114-.028-.095-.086-.172-.087-.182-.073-.157-.055-.104-.002-.149-.038-.165-.06-.186-.004-.025-.022-.163-.01-.136-.028-.068-.054-.106-.043-.061-.043-.09-.036-.092-.05-.09-.113-.153-.121-.164-.063-.082-.122-.166-.04-.06-.047-.061-.062-.08-.091-.12-.088-.117-.11-.147-.052-.056-.079-.085-.088-.1-.04-.04-.05-.057-.119-.125-.184-.275-.07-.103-.273-.119-.032-.011-.176-.066-.164-.068-.027-.043-.059-.094-.03-.052-.127-.204-.153-.25-.168-.28-.178-.225-.145-.214-.22-.32-.103-.15-.076-.11-.13-.188-.118-.174-.048-.07-.397-.44-.15-.14-.294-.277-.234-.232-.226-.225-.139-.134-.156-.201-.224-.278-.183-.224-.066-.111-.087-.14-.095-.147-.115-.186-.077-.129-.083-.139-.012-.02-.102-.171-.354-.608-.071-.174-.086-.059-.182-.125-.059-.04-.105-.07-.043-.07-.096-.145-.094-.133-.123-.189-.063-.107-.056-.086-.168-.247-.104-.148-.075-.102-.152-.21-.12-.148-.102-.168-.108-.184-.11-.183-.106-.181-.071-.17-.14-.325-.084-.196-.04-.195-.053-.235-.06-.258-.07-.192-.055-.152-.081-.223-.043-.116-.083-.23-.01-.066-.035-.248-.003-.018-.012-.029-.032-.072-.107-.196-.032-.197-.008-.023-.002-.005-.018-.028v-.046l.016-.06.015-.062.008-.046-.013-.149.001-.053.015-.046.035-.074.02-.03.016-.045.007-.056v-.068l-.01-.033-.023-.04-.066-.07-.047-.029-.01-.003-.02-.009h-.024l-.026.016-.015.03-.02.073-.012.02-.025.024-.052.026-.052.016-.07.011-.051-.01-.026-.01-.011-.012-.003-.017.02-.073.004-.01.002-.048.008-.032.015-.016.02-.004.028-.018.023-.024.009-.024-.007-.038-.044-.03-.026-.025-.05-.082-.02-.049-.028-.17-.008-.018-.03-.035-.048-.031-.043-.014h-.026l-.046.011-.042.023-.063.046-.103.085-.02.009-.018-.002-.013-.01-.007-.038-.001-.007v-.04l.006-.079.016-.081v-.092l-.005-.032-.02-.02-.064.007-.074.032-.094.053-.081.056-.08.042-.05.011h-.026l-.033-.01-.014-.011-.024-.055.002-.027.023-.046.03-.029.01-.021-.003-.026-.07-.03-.035-.025-.021-.021-.013-.022-.007-.026-.001-.05.012-.03.014-.008.17-.072.027-.015.013-.024.003-.025-.013-.038-.015-.017-.013-.008-.043-.006-.048-.001-.078-.001-.02-.005-.061-.035-.075-.025h-.007l-.035.003-.023.025.001.029.01.033.004.037.005.005.003.004.041.12.007.034-.006.051-.032.028-.062.023-.058.01-.155-.008-.02-.005-.064-.017-.038-.015-.025-.017-.036-.008h-.032l-.101.044-.035.01-.038-.003-.04-.024-.002-.005-.004-.005-.008-.02-.01-.031-.024-.09-.008-.088.002-.03.025-.121v-.089l-.005-.029-.022-.044-.02-.027-.036-.019-.147.002h-.067l-.036-.047-.016-.033-.002-.143-.015-.09-.013-.08-.028-.014-.01-.002-.07-.011-.027-.014-.047.003-.055.042-.062.062-.063.046-.074.028-.028.004-.026-.007-.005-.001-.038-.02-.05-.049-.018-.032.004-.043.007-.015.006-.01.093-.007.062-.03.014-.014v-.015l-.01-.024-.017-.023-.017-.01-.04-.01-.03-.024-.05-.071-.057-.052-.053-.037-.052-.028-.028-.001-.027.012-.028.011-.071.058-.022.01-.028-.007-.006-.014v-.037l.005-.018.048-.077.01-.025.007-.042.004-.022.004-.11-.016-.015-.031-.006-.055-.003-.096-.006-.026.01-.017.013-.033.042-.08.063-.025.011-.032.006h-.063l-.031-.007-.033-.013-.011-.022-.004-.013-.011-.045.003-.04.017-.035.042-.046.015-.032.006-.042-.017-.08-.027-.083-.015-.066-.003-.046-.013-.062-.02-.065-.025-.014-.024.005-.06.014-.051-.022-.04-.03-.005-.004-.024-.048-.004-.009-.01-.039-.02-.015-.04-.016-.05-.014-.02.01-.028.034-.026.071-.024.067-.025.033-.036.006-.074-.008-.039.009-.026.023-.04.006-.024-.02-.01-.031-.023-.038-.005-.009-.046-.057-.044-.03-.042-.006-.061-.006-.046.012-.05.048-.064.074-.022.006-.056-.028-.067-.032-.044.002-.046.029-.032.045-.018.017-.018.016-.032.012-.05.007-.15-.006-.024.005-.017.019-.003.03.025.065.028.065.007.03-.017.031-.053.036-.021.026-.01.036-.01.034-.027.024-.034.008-.007-.006-.007-.006-.02-.007-.034-.022-.029-.028-.004-.028.006-.03.016-.048.009-.027.001-.042-.014-.025-.025-.016h-.023l-.04.026-.053.052-.078.068-.083.052-.066.06-.026.033-.011.03-.004.056.005.035.004.022-.004.035-.033.033-.03.023-.033.025-.02.024-.033.006-.022-.01-.015-.007-.151-.15-.035-.034.111-.15.044-.06.073-.11.12-.208.085-.132.091-.206.052-.153.038-.245.04-.117.05-.07.128-.095.08-.03.09-.014.083-.04.176-.03.01.004.06.017.064-.01.109-.067.036-.026.236-.049.085-.026.038-.027h.04l.082-.026.109-.054.094-.078.085-.046.11-.051.088-.029.107-.091.045-.107.04-.108.064-.115.015-.138.092-.201.043-.132.019-.077.006-.049-.011-.077-.062-.194-.01-.031-.028-.066-.027-.044-.032-.036-.045-.067-.037-.129.02-.088.068-.1.02-.029.016-.063.028-.047.084-.09.003-.002.053-.046.058-.022.102-.023.04.007.024.014h.004l.04-.003.092.012.062-.002.052-.014.125-.089.083-.075.157-.116.086-.072.055-.055.078-.053.23-.195.058-.082.062-.089.04-.117.06-.122.004-.01.013-.04.044-.141.012-.02.01-.02.095-.033.02-.044-.01-.099.055-.131.055-.178v-.044l.009-.06.028-.057.04-.045.009-.01.013-.093.041-.162.073-.14.023-.058-.005-.077-.014-.06-.007-.033-.004-.073.017-.29-.005-.034-.007-.05-.03-.095-.04-.067-.047-.036-.027-.021-.08-.14-.122-.074-.1-.03-.1-.08-.061-.006-.055.033-.028.017-.076.018-.039-.005-.083-.009-.052.006-.153.048-.038.025-.07.044-.045.04-.036.01-.04.041-.089.055-.047.02-.033.04-.006.005-.053.041-.056.063-.081.198-.021.037-.017.03-.013.017-.048.063-.123.203-.002.01-.008.042-.015.04-.037.064-.015.108-.033.12-.047.04-.093.03-.153.035-.046.023-.053.008-.039-.021-.103-.04-.132-.033-.163-.054-.082-.046-.054-.045-.057-.094-.026-.071-.134-.364-.017-.216.018-.127.025-.119.006-.213.024-.113.013-.167.012-.163.014-.073.04-.112.045-.125.02-.09.077-.16.02-.097.03-.084.068-.112.052-.114.03-.126.052-.106.101-.271.034-.074.068-.198.002-.052v-.02l.032-.057.011-.052.002-.007.008-.136-.023-.108.013-.06-.01-.036.008-.333.008-.104.038-.103.018-.09.01-.056.008-.076.024-.114.028-.083.02-.093.005-.277.023-.239-.02-.22-.018-.138-.006-.047.01-.158-.028-.138-.039-.136.026-.172.152-.218.176-.135.121-.03.116-.029.26-.151.154-.097.29-.197.151-.183.078-.167.056-.162.04-.177.065-.222.038-.202.022-.205-.015-.488-.04-.21-.005-.281-.022-.206-.091-.169-.017-.044-.061-.16-.038-.223-.042-.54.006-.204.012-.195.064-.115.117-.208.226-.27.225-.29.21-.296.137-.193.113-.135.232-.237.332-.538.152-.231.073-.301.09-.201.06-.159.098-.138.049-.079-.036-.23-.02-.328-.003-.288-.002-.148-.01-.13-.014-.088-.002-.09.02-.118.045-.13.002-.005.109-.184.072-.12.05-.177.048-.074.075-.05.1-.033h.082l.033.005.077.01.026.004.009.004.299.113.247.083.097-.06.087-.101.077-.08.022-.024.033-.075.164-.29.15-.296.008-.026.052-.234.072-.207.09-.198.106-.096.088-.089.096-.09.144-.106.094-.037.073-.028.118-.096.014-.065.002-.007-.017-.155.001-.116.045-.106.023-.168.038-.114-.008-.11-.018-.116-.018-.078.007-.071.063-.132.023-.042.19-.35.014-.104-.035-.243.008-.142.057-.187.097-.178.013-.025.073-.154.003-.32-.012-.003-.09-.04-.004-.037.008-.009.012.007.01-.003v-.024l-.014-.044-.013-.12-.023-.122-.01-.133.004-.032.035-.134v-.149l.007-.03.02-.04.08-.113.012-.02.027-.085.067-.053.035-.051.067-.081.026-.047.051-.074.055-.1.035-.053.175-.176.057-.08.05-.063.033-.022.049-.001.014-.012.052-.07.084-.08.055-.04.027-.053.061-.046.022-.03.01-.004.014.007-.012.047.01.001.016-.01.131-.1.062-.034.096-.065.035-.033.053-.062.109-.094.089-.089.046-.061.007-.023.013-.02.033-.03.018-.014.055-.038.06-.065.058-.08.01-.043-.002-.055-.033-.106-.012-.03-.029-.07-.013-.031-.077-.124-.087-.096-.033-.02-.013-.015-.042-.022-.033-.001-.033-.02-.096-.018-.018-.001-.165-.013-.09-.024-.02-.002-.016.01-.02.004-.034-.016-.048-.012-.082.011-.027-.001-.073-.021-.088.002-.048.01-.108.015-.058.013-.107-.002-.041.007h-.1l-.04-.009-.022.006-.027.02-.044.007-.05-.003-.03.021-.204.051h-.021l-.043.024-.082.024-.045-.002-.076-.02-.023.006-.017.018-.06-.011-.005-.011-.012-.006-.036.026-.05.007-.117-.023-.112-.048-.056-.038-.075-.073-.07-.103-.106-.194-.14-.296-.047-.124-.02-.04-.011-.061-.028-.074-.036-.068-.042-.17-.01-.024-.032-.036-.011-.034-.007-.064-.017-.086-.02-.055-.032-.063-.035-.052-.074-.203-.002-.08.043-.17.024-.05.027-.03.03-.104.019-.047-.006-.028h-.03l-.005-.105.023-.097.003-.032.017-.02v-.02l-.008-.024.003-.037.016-.03.001-.042.026-.038.03-.244.032-.1.025-.117.026-.089.01-.042v-.021l-.01-.014.002-.018.01-.024.024-.02.004-.04-.007-.108-.013-.042-.014-.025-.013-.035.004-.061-.008-.055-.002-.013.004-.088-.007-.111.004-.042.024-.086.004-.08-.006-.027v-.034l.022-.046.007-.03-.023-.081-.005-.03.003-.063.041-.163.006-.205.021-.05.008-.045-.007-.187.003-.134-.017-.053v-.034l.008-.046-.02-.235.002-.13-.039-.265-.026-.088-.017-.09.003-.077.024-.085-.005-.098.007-.06.048-.13.025-.11.002-.05-.034-.076.011-.033.022-.012.009-.01.001-.077.03-.077-.003-.03-.02-.056.002-.032.011-.035.031-.05.056-.11.064-.166.025-.032.006-.016.002-.048-.006-.07.002-.067.006-.026.018-.039.003-.059.012-.043.031-.097.018-.08.018-.015-.014-.114v-.023l.043-.188.007-.05-.002-.024-.006-.006-.022-.001-.014.005-.04.018.01-.02.049-.02.016-.015.007-.017.003-.021-.002-.05-.008-.063v-.026l.003-.018.009-.017.009-.01.013-.003.018.023.01-.01-.002-.025-.005-.014-.012-.023-.013-.017-.019-.015.008-.014.027.023.017.003.009-.012.003-.022-.006-.028v-.007l-.017-.016-.005-.012-.009-.037-.015-.049.003-.01.003-.008.014-.015.01-.018-.014-.097-.009-.034-.056-.166-.008-.017-.01-.017-.058-.054-.014-.018-.021-.032-.029-.056-.022-.036-.024-.049-.016-.054-.004-.054.004-.108v-.025l-.001-.008-.007-.02-.014-.019-.006-.014-.003-.017.01-.05.001-.063.006-.034.01-.035.061-.147.004-.034-.003-.043.016-.105.023-.067.056-.118.017-.051.01-.051-.001-.028-.01-.057-.001-.01.012-.06v-.051l-.01-.036-.016-.04-.01-.031-.004-.025-.001-.045-.027-.079.028-.04.006-.018-.001-.017-.007-.026v-.019l.015-.105.002-.061.01-.039.008-.024.01-.066.005-.144.003-.016v-.023l-.01-.059.008-.066.02-.012.031-.02.063-.11.073-.07.045-.062.022-.037.013-.016.012-.015.012-.013.012-.031-.004-.12.008-.072.01-.044.032-.09.053-.105.03-.067.027-.046.042-.036.028-.017.029-.014.065-.108.04-.096.07-.145.037-.105.021-.086.013-.036.014-.03.025-.046.05-.118.028-.055.041-.109.06-.221.01-.045.013-.08.015-.03.006.042.003.02.004.024.01.018.008-.005.011-.008.024-.044.016-.045.006-.055.002-.071-.013-.137-.034-.189-.025-.093-.025-.097-.02-.1-.022-.133-.012-.101-.008-.03-.003-.01-.01-.002-.006-.002-.007.006-.008.033-.003.033.001.079-.013.015-.016-.046-.016-.06v-.085l-.001-.018-.007-.024-.014-.017h-.01l-.004.006-.016.03-.002-.003-.007-.01v-.118l.013-.209.007-.067.019-.106.028-.1.049-.11.03-.054.07-.11.08-.099.055-.068.038-.04.022-.028.078-.077.06-.055.08-.073.072-.055.025-.026.036-.03.064-.05.038-.023.028-.02.023-.024.012-.017.07-.112.01-.022.02-.022.049-.024.05-.028.049-.031.042-.031.036-.02.046-.025.006-.004.02-.01.052-.051.072-.04.096-.064.214-.186.134-.119.017-.011.017-.012.05-.03.037-.028.03-.016.044-.026.013-.01.05-.026.064-.047.046-.024.078-.032.044-.024.022-.016.019-.009.043-.019.035-.011.042-.02.057-.032.077-.053.036-.019.03-.011.074-.016.023.004.026.007.026.003.045.004.05-.007.024.005.05.004.02.005-.037.02-.035.01.047.035.018.009.02.006.029.003.039-.002.019-.005.015-.009.01-.009.015-.013.022-.013.028-.01.06-.009.061-.002.103-.013h.037l.097.01.142-.007-.012.017.006.01.044.002h.061l.022-.005.047-.001.063-.02.029-.018.07-.062.045-.049.007-.008.03-.03.04-.052.037-.045.064-.055.05-.049.083-.071.024-.02.055-.037.004-.003.045-.028.08-.037.013-.003.094-.052.072-.032.108-.04.084-.04.045-.019.057-.028.053-.027.08-.049.061-.037.066-.038.027-.02.076-.04.044-.03.052-.028.032-.023.05-.045.08-.047.02-.017.017-.013.04-.04.075-.06.05-.041.006-.005.035-.033.021-.018.052-.05.005-.005.053-.052.014-.012.038-.032.01-.007.02-.02.02-.022.05-.046.027-.031.044-.04.025-.02.077-.069.03-.03.039-.053.027-.03.003-.004.035-.031.028-.022.03-.024.02-.02.022-.026.024-.033.044-.07.018-.023.02-.034.005-.008.012-.022.023-.052.018-.02.019-.015.024-.017.017-.011.008-.005.02-.015.033-.022.062-.043.022-.014.019-.01.026-.025.007.002.017-.013.064-.057.005-.004.031-.02.017-.02.003-.003.022-.027.052-.09.028-.033.007-.015.012-.02.004-.009.013-.014.003-.004-.001-.012-.012-.016-.014-.038v-.03l.014-.018.014.003.01.023.01.014.012.003.005-.012.002-.005-.01-.026-.001-.007-.003-.017.01-.04.005-.06.004-.014.007-.033.013-.021.009-.011.002-.004.004-.007.01-.01.032-.033.013-.016.018-.015.038-.03.019-.018.006-.006.027-.02.018-.017.017-.015.032-.037.018-.018.036-.045.005-.01.007-.015.012-.028.028-.046.018-.024.007-.008.022-.023.013-.017.012-.012.016-.028.005-.02v-.043l.001-.016.002-.012.016-.037.01-.027-.001-.03-.002-.03v-.013l.002-.012.005-.013.017-.015.011-.008.015-.006.013-.003.021.003h.006l.01-.015.006-.008.028-.01.001-.012-.001-.015-.001-.01.012-.025.022-.042.019-.05.002-.04v-.01l-.007-.02-.002-.006-.018-.034-.011-.037-.008-.04-.007-.05-.006-.023-.018-.038-.017-.045-.016-.042-.002-.005-.014-.038-.01-.015-.012-.019-.014-.039-.004-.016-.001-.029.001-.017.01-.031.019-.046.02-.025.024-.027.005-.004.006-.005.067-.04.046-.037.003-.003.018-.016.036-.035.02-.02.024-.017.025-.015.032-.016.008-.007.005-.005.079-.073.022-.011.042-.032.026-.022.007-.012.01-.006.02-.033.003-.005.007-.005.004-.004.013.026.007.012.01.008.013-.002.016-.017.01-.027.004-.025.01-.017.026-.011.023-.006.005-.001.011-.01.006-.006.006-.014.006-.018.002-.021v-.015l.002-.007.001-.005v-.04l.018-.043.002-.023-.006-.037.004-.035.019-.017.024-.013.013-.013.015-.01.014-.007.005.003.007.003.008.034.022.023.007.025-.024.017-.013.015.001.014.005.005.007.01.016.001.019-.012h.013l.011.005.018.016.008-.002.005-.001.021-.005.037-.02.014-.005.008.004.012.006.013.036.009.008.01.015.004.001.006.002.007-.02.003-.007.002-.041-.006-.024-.005-.017-.006-.022v-.032l-.01-.04-.015-.013h-.019l-.008-.014-.006-.001h-.005v.015l-.007-.002-.011-.002-.009-.005-.001-.013.004-.014.015-.03.02-.009.016-.004h.019l.014.003.015.01.014.02.011.01.015.002.037.005.02.009.014.001h.005l.015-.009.006-.004.011-.016.015-.013.007-.007.028-.004.022-.012.006.004.024.01.023.028.006.009.004.004.025.025.025.012.017-.004.009-.006.005-.01.002-.006.008-.041.017-.017.005-.015.003-.008.026-.028.003-.015v-.02l.017-.014.003-.024.005-.006.005-.007.014.004.009.023.008.01.01.005.01.002.006-.008.002-.004-.001-.014-.005-.018-.002-.01.006-.011.017-.014.008-.01.005-.008.018-.033.012-.016.023-.037.013-.014.028-.006.017-.001.01-.001.02-.018.015-.01.006-.002.006-.003h.006l.033-.001.006-.003.009-.005.016-.042.01-.015.012-.009h.03l.008-.003.004-.002.016-.04.012-.008.03-.006.009-.001.01-.006.028-.024.02-.01.043-.004.007-.002.01-.002h.008l.046-.016.016-.015.02-.02.007-.007.023-.014.084-.022.014-.005.01-.007.034-.012.038-.006.008-.001.026-.01.05-.026.072-.026.032-.007.016-.002.022-.004.035-.012.038-.019.02-.007.039-.008.032-.008.083-.048.008-.004.047-.033.013-.006.013-.003.007.002.025.003.019-.001.01-.004.015-.02.017-.01.06-.018.044-.023.024-.007.043-.003.019-.004.017-.006.074-.028.005-.002.012-.022.004-.008.013-.007.004-.002.022.001.013.001.007-.002h.006l.018-.02.026-.012.014-.016.02-.05.011-.018.01-.017.01-.008.008-.006.04-.007.021-.003.017-.012.015-.007.039-.002.01-.008.01-.011.012-.022.011-.014.004-.006.019-.009.007-.003h.022l.05.003.003-.008.022-.004.009-.004.005-.001.018-.004.01-.007.021-.014.007-.004.01-.012.02-.036.01-.013.018-.01.02-.006.015-.01.006-.004.026-.03.02-.016.031-.018.009-.007.04-.039.017-.02.006-.012.022-.05.02-.03.033-.03.03-.018.034-.02.009-.008.024-.021.008-.006.019-.018.024-.018.018-.015.009-.014.006-.023.01-.131.016-.062.031-.083.017-.054.009-.01.002-.003.012-.022.041-.046.02-.028.005-.015.125-.036.036-.067.145-.267.052-.124.073-.49.043-.174.05-.086.134-.174.045-.057.095-.112.065-.178.015-.039.429-.547.264-.321.27-.289.178-.149.184-.154.318-.357.464-.395.418-.387.017-.016.206-.201.154-.137.2-.178.234-.14.169-.122.138-.037.079.01.113-.005.345-.037.165-.02.275-.035.537-.039.281-.031.242-.077.281-.016.146.008.427.091.051.03.109.122.066.048.107-.008.19-.058.087-.049.008-.004.059-.054.07-.091.223-.185.092-.1.135-.095.17-.144.148-.18.14-.272.017-.101.136-.438.013-.07-.008-.092.01-.102.02-.102.084-.215.048-.15.022-.1.037-.05.062-.055.043-.06.041-.1.022-.093.14-.199.158-.268.178-.339.047-.127.168-.255.086-.148.03-.078.01-.063.048-.152.08-.236.089-.242.055-.18.066-.138.073-.127.033-.029.159-.139.086-.152.089-.154.065-.095.074-.086.035-.067.079-.174.056-.108.025-.028.028-.013.013-.003h.005l.047.007.045.014.072.024.086.009.055-.006.031-.014.242-.19.015-.028.022-.099.035-.066.098-.137.076-.085.039-.033.042-.01.06.007.046.01.077.029.009.005.031.019.21.03.064-.021h.046l.03.006.065-.01.006-.001.148-.038.031-.004.089.011h.003l.043-.018.02-.04-.001-.064.012-.077.019-.026.079-.073.14-.125.073-.043.135-.039.08-.028.07-.025.02-.02.012-.024-.005-.017-.01-.027.008-.03.022-.024.033-.035.015-.016.016-.032v-.037l-.001-.023.009-.07.03-.059.04-.067.027-.044.02-.033.096-.08.034-.02.032-.01.025.006.037.032.055.071.004.037-.027.077-.014.039-.003.03.007.021.015.017.02.011h.026l.115-.024.086.004.098-.026.105-.045.127-.094.054-.07.004-.018.023-.092-.005-.12.009-.018.046-.045.012-.033v-.026l-.017-.052-.032-.042-.017-.036-.008-.008-.017-.02-.034-.01-.026-.015-.007-.017-.006-.03.013-.227.019-.075.07-.176.044-.06.026-.026.066-.062.12-.081.024-.039.016-.055.042-.237v-.028l.002-.047.008-.075.024-.083.025-.047.07-.04.03-.004.01-.002.155-.053.035-.024.046-.04.03-.052.002-.064-.01-.1-.01-.09-.014-.03-.02-.044-.08-.161-.035-.09-.039-.101-.025-.105-.042-.13-.004-.013-.005-.016-.019-.045-.045-.054-.025-.02-.018-.007-.048-.001-.066.021-.092.06-.093.025-.059.01-.068-.009-.058-.024-.028-.025-.032-.039-.018-.038-.009-.05.005-.074.009-.034.03-.05.007-.071.01-.04.007-.055.008-.018.026-.024.017-.015.028-.044.018-.067.006-.076-.006-.048-.021-.073-.005-.037-.004-.023.015-.1.02-.26-.001-.098-.02-.188-.061-.223-.09-.27-.085-.212-.057-.205-.095-.178-.047-.052-.034-.05-.05-.127-.005-.013-.028-.043-.139-.186-.06-.034-.037-.016-.079-.033h-.033l-.046.014-.016.017-.019.011-.181-.08-.034-.033-.04-.065-.12-.226-.053-.117-.058-.106-.018-.025-.024-.033-.037-.04-.054-.025-.008-.019-.006-.033v-.029l.042-.028.16-.11.114-.063.03-.02.046-.03.113-.113.129-.109.085-.085.049-.033.046-.038.101-.104.054-.052.073-.072.053-.09.06-.07.063-.045.145-.123.178-.108.104-.042.155-.09.117-.087.136-.103.104-.08.07-.046.058-.046.063-.057.03-.024.075-.04.124-.143.172-.162.01-.014.168-.218.18-.233.15-.263.057-.145.054-.143.045-.168.053-.195.03-.278v-.009l.03-.157.031-.163.097-.2.062-.205.017-.08.035-.174.057-.34.099-.177.069-.18.09-.147.071-.08.031-.036.123-.1.052-.08.08-.092.09-.178.045-.13.004-.01.068-.157.047-.077.067-.142.1-.218.058-.097.126-.185.14-.226.14-.184.087-.11.14-.182.076-.122.159-.133.098-.088.04-.045.048-.051.18-.174.049-.068.132-.239.024-.076.103-.074.089-.124.11-.151.108-.164.063-.12.061-.115.081-.16.015-.037.044-.11.059-.08.057-.089.101-.226.064-.118.087-.11.128-.256.038-.044.111-.11.16-.114.046-.052.049-.057.09-.114.155-.135.061-.08.073-.14.047-.07.034-.064.071-.124.044-.083.068-.145.035-.057.011-.011.053-.058.063-.088.034-.119.004-.047.002-.026.041-.129.02-.149.003-.143.027-.067.045-.073.064-.068.086-.1.097-.097.02-.03.092-.129.072-.14.035-.093.061-.152.04-.102.042-.124.002-.007.046-.166.057-.165.056-.135.114-.154.025-.027.066-.071.091-.119.092-.073.064-.081.02-.04.005-.044.043-.102.017-.07.025-.064.017-.051.017-.054.012-.07.01-.068.004-.077.023-.07.018-.046.036-.064.026-.04.02-.045.039-.1.027-.043.042-.067.053-.082.043-.082.027-.07.048-.1.024-.066v-.045l.078-.105.017-.036.029-.049.035-.07.02-.042.028-.062.012-.053.018-.07.014-.043.018-.043.016-.043.022-.036.055-.074.05-.06.036-.05.044-.057.061-.1.018-.025.04-.031.044-.046.044-.098.007-.014.03-.07.038-.072.04-.095.036-.067.033-.025.04-.074.045-.066.03-.027.06-.042.085-.07.045-.037.062-.073.07-.114.086-.127.049-.06.065-.04.035-.038.054-.055.006-.006.043-.036.037-.045.093-.088.071-.078.105-.118-.033-.037-.049-.057-.08-.082-.107-.11-.098-.095-.041-.06-.02-.048-.037-.116-.04-.097-.002-.006-.066-.107-.067-.071-.035-.056-.034-.083-.086-.05-.008-.007-.113-.108-.102-.09-.073-.087-.107-.164-.03-.042-.08-.078-.046-.067-.088-.087-.066-.077-.012-.036-.086-.106-.052-.108-.034-.077-.004-.01-.031-.093-.02-.032-.038-.037-.081-.055-.006-.004-.041-.047-.04-.04-.085-.088-.057-.047.022-.037.03-.047.068-.12.073-.115.072-.105.03-.042.016-.024.01-.002.05-.116.027-.073.006-.049v-.007l-.002-.038-.02-.06-.033-.083.058-.088.067-.103.072-.11.08-.12.014-.02.06-.09.022-.118.003-.018.017-.09.027-.134.015-.07.021-.116.043-.087.102-.217.104-.21-.066-.154-.058-.129-.054-.116-.006-.019-.025-.077-.033-.108-.039-.122-.043-.13-.036-.083-.033-.067-.014-.058-.038-.067-.068-.09-.051-.05-.055-.066-.048-.07-.005-.007-.055-.054-.093-.056-.142-.212-.078-.121-.084-.11-.072-.103-.037-.122-.043-.132-.06-.243-.029-.05-.009-.094-.012-.161.003-.173-.041-.082-.035-.058-.069-.097-.043-.078-.093-.122-.055-.098-.075-.149-.04-.105-.047-.078-.048-.07-.018-.024-.046-.04-.087-.075-.033-.05-.113-.201-.074-.151-.052-.105-.022-.09-.046-.13-.083-.182-.016-.064.001-.09-.047-.133-.059-.128-.076-.143-.034-.035-.053-.055-.085-.088-.125-.135-.149-.154-.161-.16-.16-.176-.036-.041-.11-.126-.096-.109-.098-.115-.053-.048-.083-.058-.038-.028-.093-.07-.084-.08-.067-.067-.06-.06-.03-.043-.08-.074-.071-.079-.134-.12-.058-.04-.077-.05-.097-.053-.134-.055-.14-.063-.13-.06-.082-.022-.114-.04-.015-.006-.132-.055-.104-.054-.126-.067-.1-.063-.082-.047-.125-.07-.107-.07-.111-.115-.11-.102-.075-.067-.064-.05-.12-.111-.043-.047-.042-.062-.03-.044-.105-.122-.065-.07-.097-.079-.066-.031h-.07l-.07-.016-.032-.019-.103-.088-.077-.043-.105-.076-.095-.062-.1-.072-.098-.073-.112-.094-.07-.055-.07-.035-.052-.028-.1-.076-.05-.046-.014-.016-.022-.026-.02-.031-.026-.031-.055-.023-.048-.028-.1-.088-.08-.032-.06-.042-.073-.036-.058-.046-.071-.033-.065-.032-.075-.026-.07-.032-.013-.004-.12-.04-.043-.007-.053-.01-.127-.01-.023-.01-.052-.03-.1-.01-.103.001-.055-.018-.089-.04-.108.045h-.017l-.141-.007-.125-.001h-.286l-.129-.003-.217.002-.346-.001-.195.028-.167.028-.109.016-.014.003-.267.367-.276.106-.085.038-.153.055-.138.057-.217.093-.16.065-.104.04-.101-.014-.092-.014-.2-.037-.127.041-.009.002-.396.19-.162.095-.293.176-.207.086-.05.034-.057.027-.2.066-.174.046-.047.014-.067.012-.173.035-.114.024-.162.032-.077.018-.176.035-.245.052-.084.016-.073.014-.094.018-.256.055-.237.05-.088.028-.273.115-.217.101-.073.054-.016.012-.075.108-.028.044-.058.084-.12.202-.054.099-.112.2-.055.075-.065.087-.041-.023-.035-.02-.118-.038-.133-.055-.143-.052-.071-.025-.059-.03-.104-.035-.145-.057-.169-.07-.122-.036-.12-.06-.063-.013-.15-.051-.09-.026-.215-.086-.176-.061-.14-.044-.367-.082-.082-.019-.16-.033-.169-.024-.179-.04-.147-.02-.157-.066-.208-.066-.08-.014-.149-.054-.203-.072-.21-.073-.196-.07-.335-.119-.056-.02-.07-.025-.01-.05-.036-.152-.04-.11-.021-.068-.016-.061-.11-.22-.057-.079-.068-.072-.111-.126-.031-.05-.006-.07.009-.111.003-.127.008-.031.001-.006-.008-.062-.003-.092-.01-.072-.022-.088-.013-.06-.02-.054v-.023l-.001-.014-.007-.023-.013-.038-.007-.012-.032-.054-.052-.098-.01-.08.005-.077.022-.043.008-.016.027-.05.054-.058.051-.028.054-.041.028-.007.03-.023.018-.049.032-.02.022-.003.029-.014.019-.038.028-.055.023-.026.017-.016.006-.02.01-.045.022-.034.003-.043.01-.035.022-.046.04-.069.036-.051.029-.027.022-.013.022-.01.02-.033.02-.052.006-.046-.014-.052-.014-.038-.017-.043-.023-.017-.014-.028-.004-.036-.003-.04.002-.05.003-.05.033-.094.035-.088.034-.105.031-.047.039-.044.025-.028.017-.02.02-.058.013-.043.001-.062.007-.024.005-.04-.006-.042-.011-.045-.005-.04-.004-.04-.01-.042-.003-.04.013-.033.02-.042.017-.038.014-.036.006-.046v-.027l-.009-.045-.01-.046-.002-.075.004-.077.006-.134-.003-.046.004-.027.024-.028.041-.037.049-.039.082-.06.111-.06.014-.006.04-.028.035-.032.052-.043.06-.045.037-.049.018-.057.011-.064.004-.083.014-.04.027-.04.023-.03.05-.08.026-.032.008-.01.014-.053-.012-.03-.021-.033-.002-.027v-.046l.006-.026v-.005l.01-.054v-.058l-.011-.037-.028-.043-.044-.053-.064-.06-.046-.022-.014-.001-.035-.003-.03-.008-.027-.053-.009-.048-.007-.04-.014-.016-.033-.018-.026-.026-.018-.038-.026-.028-.032-.021-.023-.044-.023-.038-.007-.048.007-.044.024-.024.019-.008.024-.002.027-.01.043-.022.029-.023.027-.032.022-.04.005-.031-.003-.026-.022-.026-.008-.032v-.034l.02-.02.02-.028.01-.035.01-.027.018-.022.028-.022.034-.015.035-.02.021-.03.026-.047.023-.023.016-.04.023-.067.027-.04.025-.008.024-.018v-.045l.008-.022.025-.023.025-.025-.004-.019-.03-.013.004-.022.064-.04.02-.026.001-.038-.01-.046-.019-.046-.002-.005-.024-.047-.028-.054-.002-.03.02-.033.037-.052.031-.043.029-.044.01-.058.022-.055.03-.035.041-.018.06-.006.034-.024.015-.033.004-.01.014-.04.012-.041-.007-.047-.01-.041-.014-.06-.02-.061-.022-.034-.04-.033-.041-.016-.016-.014-.007-.006-.002-.023.014-.017.045-.027.056-.032.027-.019.034-.046.04-.048.029-.037.022-.037.002-.005.003-.022-.017-.044-.015-.037v-.03l-.019-.015-.038-.026-.002-.018.007-.026v-.034l-.012-.012-.016-.023-.008-.032-.014-.015-.016-.005-.021-.016-.017-.015-.015.007-.024.013-.006-.01v-.028l.01-.024.008-.021.004-.06-.003-.047.003-.024.01-.02.005-.027-.003-.032-.016-.061-.002-.043-.015-.031-.015-.036v-.054l-.015-.055-.035-.075-.006-.028.01-.026v-.03l-.017-.028-.024-.023-.028-.022-.03-.007-.04-.014-.03-.024-.022-.027-.028-.019-.035-.012-.036.006-.14-.007-.037-.002-.087-.012-.072-.018-.041-.016-.03-.01-.021-.013-.02-.015-.021-.008-.025-.002h-.027l-.054.01-.058.013-.052.008-.06.017-.055.027-.033.004-.036-.012-.051-.012-.052.015-.031.023-.037-.002-.026-.012-.017-.03-.023-.021-.042-.013-.04.016-.046.05-.038.028-.028.006-.057-.01-.053-.026-.041-.004-.038-.023-.03-.013-.03-.026-.013-.011-.007-.007-.062-.005-.01-.022-.001-.024.016-.027.016-.02.006-.025-.02-.03-.014-.005-.015-.006-.067-.014-.022-.025-.004-.035.007-.078-.018-.016-.03-.002-.04.006-.087-.022-.054-.034-.025-.002-.025-.011-.014-.006-.018-.001h-.009l-.032.002-.007-.014.001-.023-.014-.014-.014.007-.026.013-.012-.019-.014-.01-.018.008-.006.016-.019.024-.033-.002-.023-.011h-.025l-.029.011-.033-.007-.043-.02-.042-.026-.03-.017-.046-.033-.044-.035-.035-.035-.037-.032-.064-.037-.142-.053-.018-.029-.07-.118-.051-.07-.03-.033-.034-.032-.044-.014-.065-.033-.02-.023-.03-.048-.024-.033-.023-.027-.032-.023-.012-.023-.016-.03-.027-.016-.034-.015-.064-.021-.138-.053-.07-.026-.048-.025-.036-.016-.04-.01-.03.002-.115.006-.015-.006-.018-.006-.018-.01h-.028l-.032.008-.029.012-.037.034-.036.02-.04.012-.03.014-.024.023-.022.001-.044-.001-.1.01-.027-.011-.04.005-.044.02-.062-.003-.013-.01-.01-.023-.03-.01-.024.007-.04.01-.026-.002-.043-.007h-.048l-.068.01-.027-.014h-.014l-.03.013-.035.007-.041-.006-.046-.025-.043.002-.06-.003-.038-.022-.044-.002-.036-.009-.052-.022-.038-.003-.033-.01-.048-.022-.04-.006-.036.001-.051-.008-.064-.028-.077-.038-.05-.022-.048-.005-.027-.03-.05-.03-.038-.027-.008-.006-.01-.007-.02-.005-.01.004-.015.005-.013-.007-.006-.004-.015-.023-.038-.028-.051-.011h-.061l-.024-.008-.066-.02-.072-.016-.058-.023-.015-.02-.031-.022-.056-.025-.026-.015-.033-.026-.03-.03-.03-.032-.02-.044-.002-.045-.016-.026-.034-.038-.055-.042-.066-.042-.077-.04-.051-.01-.03-.032-.03-.02-.019-.016-.023-.038-.024-.036-.02-.028-.032-.014-.028-.023-.024-.002-.04.01-.032-.009-.054.003h-.024l-.098.016-.015.003-.043.003-.026.008-.023.012-.033.012-.04.036-.015.016-.025-.004h-.023l-.03.027-.045.01-.046.029-.072.03-.059.028h-.065l-.05.011-.02.002-.154-.043-.045-.05-.038-.043-.042-.01-.059.021-.066.013h-.007l-.049-.003-.016-.017-.004-.004-.02-.02-.023-.004-.02-.013-.027-.015-.05.007-.047-.007-.028-.016-.023-.018-.028-.006-.04.001-.053-.007-.04-.011-.043-.028-.05-.072-.04-.052-.014-.033-.019-.015-.025-.026.002-.026-.007-.031-.025-.038-.024-.022-.035-.021-.051-.012-.066-.004-.061-.008-.048-.008-.05-.01-.03-.028-.031-.017-.05-.037-.02-.006-.024-.008-.063-.012-.053-.005-.079-.047-.049-.051-.027-.04-.026-.039-.03-.025-.035-.011-.049-.039-.025.002-.072.008-.066.004-.061-.008-.055-.031-.056-.037-.03-.008-.049-.005-.039-.01-.033-.016-.02-.038-.026-.036-.042-.029-.026-.026-.008-.041.005-.016.004-.014.016-.04.001-.036-.014-.052-.013-.047-.019-.041-.027-.026-.067-.029-.036-.03-.05-.052-.03-.006-.036-.002-.06-.011-.025-.022-.047-.047-.03-.05-.031-.077-.036-.058-.03-.071-.08-.114-.065-.11-.048-.08-.02-.05-.042-.085-.022-.037-.013-.013-.033-.029-.03-.022-.02-.024-.063-.063-.02-.02-.046-.022-.039-.031-.078-.064-.208-.166-.032-.022-.12-.112-.152-.135-.067-.042-.055-.028-.077-.046-.1-.063-.115-.089-.205-.137-.08-.052-.074-.048-.057-.034.031-.222.023-.19.032-.29.029-.274.053-.47.015-.154.001-.013-.091-.214-.128-.322-.025-.054-.019-.059-.025-.07-.06-.103-.122-.19-.064-.124-.102-.19-.01-.02-.011-.139-.011-.138.031-.264.03-.331.014-.131.024-.028.015-.015.11-.141.119-.104.02-.04.04-.03.047-.055-.003-.103-.004-.124-.002-.08-.011-.33v-.098l-.007-.102v-.04l-.002-.157-.007-.24-.002-.038-.09-.125-.175-.227-.144-.168-.059-.07-.041-.178-.06-.244-.026-.1-.025-.148-.013-.072-.013-.054-.01-.034-.026-.074-.03-.124-.016-.067-.024-.186.04-.11.029-.086.043-.101.04-.107.036-.11.161-.236.144-.227.02-.046.101-.223.021-.047.09-.197.1-.221.044-.1.003-.006.004-.01.08-.171.076-.163.097-.213.016-.032.018-.043.034-.045.033-.112.042-.077.028-.103.028-.016.035-.067.036-.07.018-.039.012-.046.14-.305.067-.078.156-.295.157-.257.034-.062.057-.092.038-.055-.062-.073-.013-.032.1.086 3.46 2.122 1.193-1.618.716-1.57 2.13-2.178.246-1.368 1.056-1.045.772-.387-.04-.489.44-.69-.427-1.37-.6-.15-.712.751-.333.992-1.032-1.218-.136-.563.079-1.136 1.531-2.314.442-.95.001-.633.9-1.118 1.947-1.437.199-.116.432.339 1.035-1.079.838-.412 1.82-.385.705.14.7.864 1.68.106.748-.316.46 1.17.91.329-.8.941-1.23 2.552-2.445-1.292-.528.635.087 1.501 1.729 1.01.702.84-.19 2.064.365 1.637.526.512 3.365-1.913.785-.892-.585-.409.097-.694 2.262-2.906.08-1.389-.407-1.422 1.413-.616.392-1.218-.068-.747 1.196-.91-1.037-.588-2.602-.746-1.44-.921-2.177-2.07 2.216-3.747 2.155 1.028.332-.205 4.298 1.205.746.806.86.062.241.853.366.3 5.27 2.623 1.486.378 2.043.946 1.342-.089 1.735 1.123 1.385.061 1.95-1.066 1.233.211 1.987-.15 2.463-.504 1.178.32.074.938 1.315 2.749-.49.975-.002 1.61-.282 1.219 2.28 1.471 1.043 1.247 2.76.467.252.672-.056 1-.403.564-.118 1.476-1.31 4.658-.645 1.03-1.514.714-.674 2.085-1.064.9-1.014 1.364.001 1.39.497.807-.126 1.06.4.84.363.729.506.245.362 1.288 2.187 2.191.773-.014 1.02-.904.326-.032 1.331.681.925.039 3.195.864 2.265 1.054 1.032.192 2.672-3.673.357.014 1.462.946 1.494-.587.807.47.02.36.921.014.587.513 1.12.122 3.236 1.377.11.141-.515.593-.135.72.781.126.513.447-.02 1.564 4.47.517.334-1.36.004-2.115-.549-.951 6.185 2.307 2.735-.906 1.453-.12 1.587.105.813-.406.34.077.699.269 1.487 1.16 1.571.309.918-.124.219-.152 2.252.65.39-.071.588.035.731-.649 1.25-1.788 1.83-1.062 1.71-.47.998.375-.263 2.131.647.915.106.828.764.916-.106.413.344 1.115-.077 1.08-.518 1.298.327 1.61-.374 1.147.09.658 1.527 1.336.555 1.01 3.353.483 1.092.483 3.66.43.716.84 1.202 2.712 1.563 2.026 4.429-.405 1.757.899.275.41-.13.631.81.826.528 1.814.707-.425.67-.903.748-1.749 1.569-1.865.81-.585 2.086-3.36 1.38-1.523 2.056-1.402 1.72-1.676 1.27-.938.903-.368 1.595-1.544.476-.03-.18 2.209.257 1.575-.278.804.164 1.433.308.708.076 3.005.218.645-.163.68.485.592-.365.758.114.439 2.516-2.619.364-.228.587.155 1.765-2.354.19-.815.622-.433.091-.608.83-.618.564-.92.326.085.664-1.038.506-.045 1.414.72.25 1.106-.11.702-1.52 1.685 1.626.1 3.549-2.005 3.061-1.53 2.228-.354.838-.536 1.716-.09 2.209-1.61-.316-.47-.05-1.155 1.128-2.534 5.936 1.545.998.513.204.431 2.946 2.644.439.298.47.819 2.667 2.908 1.45 1.156 2.251.304.157.064.845-1.271 2.294-2.333 1.046.375 3.374.152.871-.237.655-1.233.724.013 1.158-1.714-1.458-1.369-.846-.371.137-.98 1.109-.066 1.055-.725.528-.679.363-1.303-1.356-1.2-.803-1.43-1.5-1.536-.95-2.084 1-.414 1.953-1.717.714.136.702-.38 1.003-.398.79-.972.944.318.732-1.171.388.842.8.71 1.665 2.501.506-1.728.7-.394.498-.933.4 1.796 1.405 1.909.836.853 1.85.74 1.158 1.525.562 1.382.666.395.774-.432 1.558.222 1.684-.48.499.4-.087.26 1.355.317 1.862-1.547.154-.445.468-.072 1.257-.873.998-2.078 1.109-4.417 1.745-1.902.343-1.105.437-1.382.002-1.471-.716-1.039-.3-1.025.124-1.937.149-1.92 1.638-8.378 1.138.347.975-.03 1.62 1.042.893.939 2.525.012 4.456 2.964 2.303-.866 5.406-1.486 1.337-.19.46.25.802-.294 1.921-.62 3.358-2.601.824-1.171.645-2.35.114-1.7-.342-3.287 1.507-.122 1.393-.435 2.003 1.774 2.614 2.947 1.589-.688 2.711-.294.558-1.04.789-.632 2.121 1.268.982-.175.684-1.322 1.148-.548-.68-1.82.223-.2 2.604-.004.356.315.669-.04.453-.296.863-.052.224 1.255 1.33.08 1.145 1.26.405.248.427-.226.333.175v.6l.302.168 1.772.602.561-.387.69.19.718.577.347-1.115.602-.005.258-.723.607-.274.117.348.3-.04.481-.418.373.415.217-.083 1.587-1.64 2.334-.828.342-.35.604-.175 1.251.104.897-.325 1.646.32 1.474-1.365 1.08-1.785 1.724-1.347.427.028 2.962-1.877 3.065-2.848.325.25.168 1.48.567.78.501.243.624 1.453.426.36-.335 1.992-1.387 1.997-.577 1.32-.012 1.18-.661.567-.288 1.002.147.474-1.248 1.531-.733 3.133.51 2.541-.085.479-.896-.158-2.636.339-3.296.98.802 1.558 2.897 9.476-.265.397 2.529 1.379-.113.354.444 2.529.723 2.238-.386.649 2.324.98.305.277.59 1.575.611.2.677.749.904.196.23.32-.01.823 1.777 1.222.212.55-.175.639-1.593-.221-1.71-.742-.161.178-4.757-3.02-3.535-1.155-3.906.84-4.602-1.66.137.258-.504 1.147-1.012 1.694-1.276.804-.019 1.99-.897.057-.818.425-1.059 1.624-.174.73.169 1.051-.558 1.062.255.508-.135 1.506-1.578 1.537-.59 2.423 2.011 3.716 2.836 1.003 1.26 1.39-.813 1.85-.064.895-.743.236-.482-.476-.832.35-.434 1.121-1.051 1.177-.952-.372-.82.338-.912-.144-2.564-1.366-1.485-1.272-2.722-1.363-.648.04-.905.041-1.745-.415.08 1.07 1.326 3.625.758 3.67 1.014 1.947.04 1.929.404 1.687 1.94 3.104.605-.603 1.048-.446 1.438.56.409.521-.173.661 1.309.626.593.226.468-.16 2.637.245 1.115.372-.105.823 1.361.147.237.618-.753 1.002-.498 1.587-.612 3.43.416.738-.65 2.215-.714-.144-1.479-.682-1.423.074-.583-.191-1.064.19-1.264-.423-1.905.273-.535 1.21-.635.573-.468 1.15-.83.854-1.118 1.751-.13 1.214-1.144 2.876-.637 3.287.12 1.125-.402 1.186.016 1.134-.929 2.306-.582 2.54-1.32 1.572-.835 1.96-1.757 1.134-.718-.364-.873-.048-2.787.357-1.02.708-.375.42-1.467.378-.201.525-.637.607-1.51.362-1.232.65-.296.43-1.046.207-1.413-.691-.802-.7-3.03.371-.922-.43-.696.081-1.078.312-.327.396-.353-.234-.19-.71-1.705-.401.526 1.235-.13.95.738 1.026.255 2.02.715 1.142-.032.725-1.855.2-.375.327-.207.634 1.048.781-.741 1.057-.673-.172-.57-1.06-.352-.043-.109.42.208.678-.11.617-.21.067-.269-.23-.326-1.397-.485-.3-.542 1.995.084.706-.387.536-.313-.104-.289-1.145-.553-.072.195 1.261-.884.313-.255.458-.525.216-.24.895-.558.103-.688-.463.31 1.3-1.13-.187-.027 1.197-2.064.84-.342.904-.745.562-.98-.115-.777.653-1.083 1.825-.99.681-.125.687.508.672.099.88-.462.572-1.784-.541-.637.379-.86-.034-1.432-.82-1.187-.35-1.56.095-.346.226.259.708-.753 1.855-1.298.244-.476.777.805.803-.31.442-.76.015-.113.314.167.655.984.87.086.433-.215.314-.732-.14-.779-1.043-.379-.054-.936.55.447 1.213-1.559.982.312 1.029.401-.006-.01.696-.696-.117-.375 1.359-1.113-.353-.858 1.717-1.278-.09-.497.478-.221.644-1.003-.168.012.749-.831.993-.534.658-.623-.174-.659.212-.22 1.2.13.547-.534 1.819-.28-.405-.56-.11-.464 1.296-.46-.125-.683.47-1.078-1.22-.904.12-.384.507-1.018.945-1.536.79-.418-.024-.327.55-.473.182-1.17 1.685-.757.364-.617 1.092.043.602-1.481 3.852-.072 2.418.638.798.329-.192.546.649.785.193.454.871-.424.611.113.239.516-.162.242.048.015.259-.933.589-.226.988.18.89-.632 1.578.104.588-.277 1.282-.243.194.997 1.023 1.463.874.604 1.22.075.79-.244.465.703.981.331 1.529.28.283.064.292-.351.458.414.72.459-.247-.015 1.088.725.512.733.977-.512 1.497.786 1.002.176 3.16-.246 1.295.266 1.454-.15.161.326.37-.02.593-.727.324-.309.571-.162-.242-1.058.6.206.538-.243.56.314.22-.453 1.146-.423.03.171.58.296.067.002.672-.267-.017.315.887-.104.302.582.217-.39 1.177-.312.271-1.037-.173-.498 1.237-.268.048-.13.532-.42.278-.23-.366-.677.467-.837-.451-1.464 1.725.107 1.449-6.111-1.075-1.36 1.48-.214.69-2.647 2.695-.292 1.225-3.05 3.019-2.11.452-1.148-.674-1.674-.41-.252.21-.145-1.383.25-.616-.015-1.663-.112-1.063-.711-2.022.241-1.052 1.007-.717 1.52.141.413.407.81-1.409.572-.186 1.219-1.172-1.384-2.298-.008-.89.476.36.879-.646.14.484.973 1.11.239.756.016-.616-.593-1.756.169-1.408-.141-.377-1.163.37-.136-.21.02-.3.532-.133-.022-.505-.413.256-.495-.234-.388.223-.355-.543-.798.343-.063-.452-1.068-.585-.232-.558-.388-.275-.417.375-1.323.224-.481.733-.35-.149-.67 1.018-.347-.165-.1.231.273.333-.243.223-.484-.375-1.38-.093-.396-.31-.808-.112-1.267 1.397-1.024.51-.402-.636-.94.784-.164-.2.148-.527-.583.28-.22-.238-.2.433-.45-.1-.241.582.143.397-1.854-.764-.816.209-.3.303-.601-.09-.463.406-.172 1.337-2.275.53-.355.489.085 1.184-.227.293.211 1.463-.492.949-1.812.28-1.512 1.1-.701.214-.167.853-1.544 2.208-.149 1.2-.185.145.167.877-.18.325 2.323 1.843.347 1.667-.117.905-.34.015-.207.538-.594.57-.153 1.063-1.146-.07-.731.56-.309 1.368.502 1.207-.532.596.058.59-.516 1.596-.543.708-.03.62-1.076 1.946-.268-.515-.705-.22-2.021-.006-1.183.295-.825-.258-1.604 1.364-.851-.334-.509.382-.895-.362-.898-.735-1.176.453-.462-.334-.988.053-.388.732-.808.139-.441.5-1.576.641-.619-.182-.925.2-.54.488-1.475-.167-1.146.14-1.818 1.46-.805.15-.778 1.062-.868-.04.079.58-.74.847-1.667.287-.016.652-1.195.981-.35.846-.688-.683-1.322-.674.26-.938-.997-.8.213-.177-.103-.228-.348-.04-.167.406-.512.185-.118-.35-.522-.118-2.354.584-.81-.188-.797-.679-.024-.462-.798-.958-.58.053-.893-.357-1.986-.02-1.111-.51-1.811-.28-.724-1.162-1.333-.84-.251-.542-.949-.81-.53.033-1.583-.73-.828-.832-.803-1.552.11-1.62-.41-1.825-.19-.98-.53-.506-.004-.472-2.665.13-1.738-.735-1.458-1.01-2.755.178-.932-.28-1.154.538 1.098 1.401-.079.247-.413.414-.595.128-1.107 1.203-.59.064.01.517-.483.187-.533 1.12.212 1.446.936.34-.09.462-.482-.18-.16.352-1.018.316-.17-.243-.546.256-.927-.242-.002-.444-.484-.51.347-.199-.276-.467-3.741-.398-2.623-1.107-.694.221-1.761-.031-.79.477.235.24-.314.415-.843-.313-.435.21-.476-.485.173-.48-.306-.03.418-1.25-.077-1.674.494-1.429-1.732-2.36-.657-1.354-.582-.4-.404-1.022-.637-.413-1.255-1.886-.604-.191-1.265.35-.55-.228-.226.155-.334.903-.393.206-.267-.51.163-.379-.45-.19-.63.202-.074.453-.217.006-1.458-.318-.117-.232-.328.088-.482-.36-.267.106-.981-.542-.235.852-1.894-.266-.557.265-.518.39-.19-1.223-.35-.117-.505.596-.354-.038-.249-.445-.82 1.086.584.171-.193.4-1.288-.545-.637.318-.902-.603-.468.385-.352-.865-1.133-.298.687-.46-.045-.603-.854.473-.24-.249.488-1.222-.713-.083-.577.573-.294-.454-.304.028-.55.403-1.02-.261-.069-.526-.267-.155-1.053.596-.94-1.49.696-2.098 1.349-1.866.08-1.917.56-.721.193-1.174.01-1.07-.284-.937-1.336-.02-2.091.81-3.274-.572-1.217-.438-3.112-2.253-1.203-.353-.22-.43-.483-.091-.434-.47-.29-.11-1.215.37-.55-.25-.574.164-.331-.268.038-.567-.268.14-.596-.65-.054-.038-.05-.019-.043.003-.055.03-.041.015-.075.019-.022.02-.02.032-.015.05-.015.08-.033.046-.024.014-.051.014-.069.009-.12-.001-.057-.011-.05-.017-.034-.034-.03-.047-.022-.069-.018-.224.02-.116.009-.096v-.195l.013-.123.021-.05.03-.118-.005-.077.013-.085.033-.132.047-.11.017-.087.017-.046-.006-.112.046-.067.013-.019.055-.1.046-.174-.011-.132-.056-.083-.056-.017-.066.015-.053.096-.03.023-.118.058-.062.016-.03.013-.087.061-.086.032-.094.056-.077.06-.134.193-.096.182-.03.09-.053.057-.072.097-.028.129-.025.044-.022.062-.023.11-.013.044-.017.03-.016.029-.07-.019-.091-.034-.135-.002-.078-.024-.004-.025-.002-.01-.01-.063.003-.1.054-.068.062-.09.026-.039.04-.055.03-.082.03-.071.033-.085.02-.102-.002-.09-.05-.036-.074-.028-.11-.012-.103.01-.098.002-.089.014-.027.01-.125.082-.075.029-.064.023-.11.007-.04.014-.067-.02-.01-.002-.044-.012-.026-.01h-.036l-.024.01-.024.019-.044.06-.015.029-.005.022-.024.104-.063.083-.053.075-.067.089-.036.041-.062.053-.037.045-.07.049-.058.094-.074.105-.108.135-.041.038-.038.072-.083.061-.054.06-.04.042-.039.045-.029.053-.04.056-.096.108-.19.236-.049.074-.022.05-.018.132-.007.083-.065.03-.053.016-.035.017-.049.035-.037.04-.054.084-.115.108-.036.04-.025.006-.054-.015-.058-.07-.1-.109-.085-.062-.053-.05-.11-.136-.112-.124-.057-.075-.082-.095-.04-.057-.05-.09-.03-.076-.044-.167-.03-.048-.019-.166-.003-.014-.007-.032-.03-.057-.01-.014-.043-.059-.016-.021-.019-.008-.082-.001-.082.023-.033.009-.072-.011h-.029l-.023.01-.028.023-.026.033-.022.039-.007.03-.004.071-.011.023-.026.028-.24.129-.056.039-.06.026-.137.078-.117.078-.148.12-.06.037-.06.037-.106.081-.06.03-.047.03-.206.198-.03.04-.01.012-.042.03-.022.018-.016-.001-.022.01-.207.028-.32.064-.08.01-.06-.004-.095.01-.057-.012-.135-.053-.073-.04-.064-.082-.028-.035-.028-.022-.035-.014-.046-.003-.023.005-.026.017-.017.003-.039-.011-.047-.027-.06-.017-.078-.007-.131.012-.126.029-.05-.005-.079.008-.03.014-.018.008-.016.007-.027.024-.053.167v.028l.007.038.043.082.077.086.079.13.007.011.046.156.012.103.046.194-.003.067-.012.06-.065.135-.014.068-.037.1-.028.028-.016.009-.104.017-.11-.03-.043-.023-.065-.026-.073-.058-.136-.143-.01-.012-.047-.029-.052-.003-.02-.002-.064.017-.029.027-.032.042-.038.056-.039.095.027.079.054.268-.005.105.008.156-.005.015-.024.082-.032.052-.026.03-.212.179-.054.08-.08.092-.06.083-.04.066-.043.086-.013.037v.015l.021.037.027.08-.003.013-.004.007-.008.012-.038.04-.035.032-.038.06-.045.078-.126.045-.109.072-.086.034-.305.223-.079.067-.055.035-.054.01-.06-.004-.052-.013-.089-.067-.048-.027-.061-.008-.035-.01-.165-.083-.15-.09-.071-.054-.047-.041-.053-.066-.06-.035-.034-.03-.025-.035-.073-.084-.015-.01-.037-.016-.014-.006-.156-.042-.024-.002-.037.007-.04.007-.05.002-.08-.007-.134-.034-.108-.035-.058-.01-.012-.002-.029-.01-.055.05-.048.058-.04.065-.04.075-.03.045-.021.046-.007.024Z"/><path id="C" d="m421.356 288.385-1.626-.101 1.52-1.685.11-.702-.25-1.106-1.414-.72-.506.045-.664 1.038-.326-.086-.565.92-.829.618-.09.609-.623.433-.19.815-1.765 2.354-.587-.155-.364.228-2.516 2.619-.114-.439.365-.758-.485-.592.163-.68-.218-.645-.076-3.005-.308-.707-.164-1.434.278-.804-.257-1.575.18-2.21-.476.03-1.595 1.545-.904.368-1.27.938-1.719 1.676-2.056 1.402-1.38 1.522-2.085 3.36-.811.586-1.569 1.865-.749 1.749-.67.903-.706.425-.528-1.814-.81-.826.13-.63-.275-.411-1.757-.899-4.43.405-1.562-2.026-1.202-2.713-.717-.838-3.66-.431-1.09-.483-3.354-.484-.555-1.01-1.527-1.335-.09-.658.374-1.147-.327-1.61.518-1.298.077-1.08-.344-1.115.106-.413-.764-.916-.106-.828-.647-.915.263-2.13-.999-.375-1.709.47-1.83 1.06-1.25 1.79-.73.648-.59-.035-.389.072-2.252-.65-.219.151-.918.124-1.571-.308-1.487-1.161-.7-.269-.34-.077-.812.406-1.587-.106-1.453.121-2.735.906-6.185-2.307.55.951-.005 2.116-.333 1.359-4.47-.517.019-1.564-.513-.447-.781-.126.135-.72.516-.593-.11-.14-3.237-1.378-1.12-.122-.587-.513-.92-.014-.02-.36-.808-.47-1.494.587-1.462-.946-.357-.014-2.672 3.673-1.032-.192-2.265-1.054-3.195-.864-.925-.039-1.331-.68-.326.031-1.02.904-.773.014-2.187-2.19-.362-1.289-.506-.245-.363-.728-.4-.841.126-1.06-.497-.807-.001-1.39 1.014-1.365 1.064-.899.674-2.085 1.514-.715.644-1.029 1.31-4.658.12-1.476.402-.563.056-1.001-.253-.672-2.759-.467-1.043-1.247-2.28-1.471.282-1.218.002-1.611.49-.975-1.315-2.75-.074-.937-1.178-.32-2.463.504-1.987.15-1.234-.21-1.949 1.065-1.385-.06-1.735-1.124-1.342.089-2.043-.946-1.486-.378-5.27-2.623-.366-.3-.24-.853-.861-.062-.747-.806-4.297-1.205-.332.206-2.155-1.03-2.216 3.749 2.177 2.069 1.44.921 2.602.746 1.037.587-1.196.91.067.748-.391 1.218-1.413.616.407 1.422-.08 1.39-2.262 2.905-.097.694.585.409-.785.892-3.365 1.913-.526-.512-.366-1.637.191-2.064-.702-.84-1.729-1.01-.087-1.501.528-.635 2.445 1.292 1.23-2.552.8-.941-.91-.328-.46-1.171-.749.316-1.678-.106-.701-.865-.705-.138-1.82.384-.838.412-1.035 1.079-.432-.34-.2.117-1.945 1.437-.9 1.118-.002.632-.442.95-1.531 2.315-.079 1.136.136.563 1.032 1.218.333-.992.712-.75.6.15.427 1.37-.44.69.04.488-.772.387-1.056 1.045-.246 1.368-2.13 2.178-.716 1.57-1.193 1.618-3.46-2.122-.1-.086-.065-.163-.11.014-.106.013-.159-.07-.077-.077-.057-.053v-.063l-.093-.099-.089-.068-.048-.03-.13-.078-.188-.079-.095-.062-.01-.094-.073-.07-.104-.066-.107-.123-.048-.065-.091-.102-.079-.073-.193-.172-.2-.157-.11-.09-.034-.04-.131-.048-.107-.059-.148-.144-.08-.218-.04-.03-.124-.098-.054-.045-.208-.165-.05-.053-.007-.018-.019-.05-.173-.114-.083-.055-.12-.117-.074-.074-.106-.117-.105-.11-.203-.137-.066-.036-.094-.052-.13-.1-.133-.222-.083-.086-.18-.225-.02-.195.009-.03.068-.249.143-.285-.038-.116-.108-.042-.194-.116-.126-.11-.045-.041-.068-.115-.094-.156.006-.107-.073-.093-.12-.134-.057-.044-.177-.161-.111-.176-.068-.085-.118-.15-.126-.157-.108-.188-.135-.074-.063-.032-.118-.05-.088-.037-.08-.031-.105-.071-.058-.033h-.012l-.02.004-.023.005-.036-.025-.027-.025-.007-.007-.05-.038-.018-.043.003-.033.023-.047.017-.051v-.057l-.002-.033-.03-.028-.05-.046-.04-.036-.052-.05-.043-.024-.07-.02-.016-.005-.043-.014-.03-.01-.016-.035.001-.052-.018-.045-.031-.085-.047-.074-.011-.03-.018-.048-.004-.014-.037-.074-.154-.03-.05-.01-.111-.022-.101-.023-.11-.019-.11-.052-.025-.007-.017-.013-.115-.054-.153-.068-.146-.104-.127-.089-.088-.09-.07-.109-.06-.064-.019-.02-.056-.083-.04-.039-.069-.065-.126-.118-.064-.07-.05-.014-.05-.064-.059-.09-.017-.031-.005-.008-.03-.075-.087-.216-.145-.355-.01-.025-.006-.013.064-.161.02-.062.15-.451.135-.448.046-.15.094-.31.024-.087.01-.028.003-.04-.003-.069-.023-.359-.009-.138-.007-.128-.01-.018.01-.074.007-.041-.097-.162-.077-.128-.054-.08-.087-.097-.071-.135-.056-.154-.04-.076-.031-.077-.001-.051-.003-.094-.002-.101.016-.188-.007-.106.004-.162-.004-.18-.04-.24.014-.107-.055-.114-.046-.107-.019-.112-.139-.046-.02-.063-.108-.048-.082-.036-.1.027-.069-.037.042-.083-.041-.09-.07-.11-.027-.12-.084-.166v-.06l.021-.056-.002-.008-.05-.089-.018-.094-.004-.027-.024-.044-.018-.034-.116-.03-.146.018-.079-.024-.035.016-.017.008-.022.02-.023-.029-.009-.009-.005-.005-.021-.033-.012-.008-.033-.05-.007-.021.004-.047-.019-.158-.089-.184-.006-.083.001-.028.02-.133.045-.197.009-.092.049-.14.041-.12.009-.048.008-.049.067-.11.132-.098.154-.191.034-.052.068-.133.068-.087.088-.216.068-.18.138-.186.025-.16.083-.177.005-.104v-.12l.04-.055-.03-.09.029-.086.032-.099-.007-.018.018-.015.01.008.017.015.062.04.024.014.131.092.096.026.056-.006.024-.041.007-.094.012-.097.036-.028.032-.041.027-.054.029-.07.034-.064.03-.059.038-.06.05-.073.024-.057v-.075l-.027-.043-.055-.064-.04-.06v-.053l.031-.051.039-.067.06-.144.035-.123.014-.099.008-.055.006-.099.02-.049.046-.039.043-.042.036-.08.023-.123.005-.108.023-.034.066-.059.063-.016.075-.02.073-.017.017-.004.048-.04.006-.027-.002-.053-.001-.023-.017-.094-.034-.082-.023-.081-.01-.074-.002-.067.018-.04.035-.024.062-.042.08-.054.042-.047.03-.032.006-.046-.02-.084-.072-.116-.017-.036-.067-.087-.034-.052-.017-.04v-.079l.04-.11.003-.025.006-.089.013-.013.02-.01.007-.006.033-.023.039-.09.026-.082v-.025l-.024-.071-.055-.081-.07-.082-.024-.041-.012-.035-.019-.02-.076-.025-.038-.027-.035-.052-.05-.11-.045-.064-.064-.11-.05-.11-.018-.028-.04-.034-.043-.018-.021-.021-.06-.082-.077-.139-.02-.027-.035-.034-.004-.003-.022-.065.01-.019.012-.022.031-.079.029-.069.035-.068.053-.072.09-.06.027-.042.034-.112.034-.199-.006-.12.003-.029.046-.133.021-.032.007-.03.024-.092.013-.051-.006-.042-.022-.055-.036-.056-.01-.016-.017-.024-.027-.013-.027-.047.008-.046.042-.085.02-.02.052-.053.014-.053-.018-.056-.01-.087-.018-.108-.02-.04-.033-.06-.006-.04.003-.018.022-.038.013-.016.03-.036.022-.053.02-.077.004-.048-.016-.059-.053-.088-.005-.01-.008-.028.004-.047.045-.037.036-.023.055-.048.032-.024.022-.03.018-.068.022-.027.038-.02.061-.053.055-.053.018-.025.02-.037-.005-.067.018-.025.013-.012.038.006.042-.013.061-.074.013-.065.03-.034.093-.086.08-.107.05-.087.048-.072.038-.038.057-.044.04-.02.113-.058.056-.044.027-.08.018-.077.008-.015.039-.073.061-.1.04-.064.025-.056-.006-.042-.074-.119-.048-.094-.057-.106-.035-.052-.054-.061-.052-.055-.052-.077-.077-.06-.118-.193-.047-.067-.057-.102-.064-.07-.034-.028-.04.012-.103.041-.088-.007-.172-.079-.093-.055-.013-.008-.067-.047-.126-.114-.084-.079-.025-.028-.026-.029-.068-.047-.056-.08-.026-.038-.03-.08-.015-.026-.02-.019-.046-.032-.025-.01h-.036l-.176.02-.14.01-.098-.024-.095-.035-.096-.045-.145-.075-.1-.066-.076-.06-.087-.064-.1-.004-.086-.044-.02-.016-.025-.028-.018-.036-.037-.088.001-.127-.009-.067-.038-.075-.043-.076-.052-.095-.06-.049-.081-.069-.04-.036-.057-.034-.142-.068-.083-.026-.045-.024h-.038l-.038.034h-.03l-.066-.01-.114-.04-.08-.015-.073-.034-.102-.012-.073-.002-.084-.012-.051-.015-.011-.005-.018-.011-.068-.011h-.05l-.044-.006-.07-.037-.058-.037-.036-.042-.03-.033-.046-.028-.096-.046-.067-.01-.028-.014-.065-.052-.061-.086-.052-.039-.04-.024-.041-.012h-.046l-.072.016-.233.007-.045.012-.162.1-.029.021-.07.006-.062-.022-.026-.03-.04-.034-.032-.035-.037-.057-.018-.042-.031-.101-.01-.091-.002-.084.003-.05-.009-.07-.034-.061-.058-.029-.088-.027-.035-.048-.043-.064-.019-.064-.011-.119-.028-.108-.006-.125.02-.065.02-.051-.007-.065.007-.08.014-.08.003-.017-.007-.029-.023-.025-.034-.012-.08-.006-.084-.014-.025.01-.027.01-.05.054-.08.053-.077.059-.21.162-.094.084-.04.05-.021.024-.027.034-.05.057-.09.084-.05.028-.05.01-.096-.013-.088.01-.032.008-.06.023-.033.006-.062.011-.08.013-.06.024-.05.035-.042.036-.001.015-.003.043-.014.063-.045.047-.042.06-.019.032-.034.004-.152-.05-.129-.055-.02-.028-.014-.037v-.054l.016-.1.005-.05-.014-.094-.003-.123v-.072l.015-.05v-.048l-.001-.032-.017-.014-.028.005-.107.016-.08-.007-.058-.021-.059-.038-.054-.059-.051-.078-.023-.058-.048-.058-.03-.01-.043-.01-.08-.002-.11.017-.096.008-.05.003-.083-.024-.065-.056-.07-.088-.038-.055-.025-.048-.034-.023-.049-.002-.063.018-.058.032-.063.027-.061.003-.039-.02-.041-.053-.015-.047-.03-.052-.025-.032-.05-.021-.074-.023-.124-.025-.096-.02-.058-.016-.044-.024-.013-.02-.015-.052-.005-.052.012-.035.018-.032.023-.021.026-.007.039-.006.032-.015.019-.048.03-.062.007-.016.06-.063.1-.066.057-.057.013-.044-.003-.048-.025-.154-.027-.067-.044-.063-.059-.071-.04-.012-.067-.022-.052-.015-.02-.005-.023-.023-.047-.067-.081-.057-.077-.02-.107-.025-.006-.001-.095-.007-.038.011-.031.023-.024.017-.043.016-.06-.019-.047-.055-.016-.076v-.08l.01-.083-.026-.15-.023-.07-.017-.026-.03-.034-.038-.014-.089-.025-.08-.036-.042-.02-.033-.027-.037-.04-.032-.068-.009-.062.012-.064.054-.137.014-.085-.015-.069-.036-.083-.009-.062.007-.087.032-.126.041-.078.046-.057.049-.061.089-.101.036-.062.021-.063-.007-.043-.06-.082-.021-.018.013-.054.019-.036-.006-.051.001-.029-.01-.052-.064-.136-.012-.026-.005-.05.024-.073.009-.056.012-.148.031-.154.02-.079.013-.086.007-.107.007-.108-.01-.06-.015-.028-.005-.009-.068-.084-.03-.024-.008-.055.018-.077.033-.113.013-.11.003-.076.005-.115-.004-.136-.009-.034-.027-.08-.013-.012-.038-.033-.103-.078-.16-.09-.077-.05-.047-.036-.053-.079-.01-.058.013-.067.014-.036.027-.05.052-.062.05-.058.046-.044.048-.046.016-.03-.004-.022-.028-.027-.046-.044-.098-.076-.044-.02-.126-.063-.106-.051-.129-.077-.1-.063-.224-.099-.03-.024-.078-.06-.075-.042-.092-.035h-.006l-.064.008-.23.186-.09.09-.047.044-.067.053-.157.123-.06.025h-.048l-.068-.03-.1-.086-.01-.026-.033-.036-.106-.05-.076-.027-.035-.008-.118-.025h-.038l-.059.02-.06.01-.06.004-.068-.001-.108-.003-.099.014-.2.016-.158.041-.023.006-.062.018-.059.008-.023-.021-.02-.038-.018-.045-.053-.133-.053-.095-.04-.059-.043-.02-.064-.023-.07-.039-.052-.014-.01-.004-.044-.001-.034-.001-.093.026-.079.033-.02.012-.063.06-.046.036-.033.037-.063.058-.01.01-.032.018-.04.011-.03.002-.034-.017-.039-.038-.048-.067-.046-.049-.112-.05-.108-.044-.066-.04-.073-.094-.062-.096-.071-.153-.363-.41-.09-.052-.094-.019-.103-.025-.08-.03-.064-.06-.15-.172-.118-.181-.07-.103-.048-.025-.052-.031-.045-.078-.002-.058-.061-.166-.035-.143-.03-.123-.016-.044-.031-.055-.044-.02-.063-.007-.047-.012-.057-.016-.082-.034-.056-.022-.034-.052-.004-.028.005-.031.016-.038.06-.058.052-.07.037-.071.043-.083.042-.08-.004-.037-.007-.042-.047-.034-.04-.011-.008.001-.078.018-.089.014-.072.001-.04-.014-.029-.02-.02-.035-.009-.07-.001-.023-.009-.137-.01-.07-.012-.056-.016-.031-.03-.026-.023-.038-.016-.025-.035-.108-.066-.288-.014-.06-.03-.064-.027-.041-.05-.085-.018-.095-.034-.143-.015-.136-.004-.037-.027-.05-.013-.07-.043-.056-.08-.117-.058-.06-.028-.027-.521-.363-.03-.011-.074-.033-.083-.042-.056-.053-.034-.059-.025-.037-.007-.043.025-.128.01-.084-.001-.042-.04-.096-.039-.073-.005-.025.001-.078-.027-.09-.015-.113-.038-.15-.025-.045-.013-.035-.067-.037-.06-.034-.072-.013-.098-.012-.125-.036-.11-.06-.025-.031-.018-.028-.015-.036-.014-.06-.008-.056-.026-.174-.045-.09-.032-.031-.128-.04-.065-.04-.083-.039-.138-.048-.11-.066-.1-.044-.052-.018h-.083l-.15-.03-.147-.011-.046.001-.059.028-.076.024-.04.01-.04.008-.039-.01-.026-.005-.087-.02-.04-.003-.016-.013v-.048l-.008-.054-.036-.047-.019-.042-.013-.03-.09-.085-.051-.023-.23-.115-.142-.182-.044-.066-.03-.078-.03-.04-.074-.065-.035-.02-.063-.06-.043-.05-.05-.072-.11-.167-.057-.052-.04-.035-.032-.015h-.033l-.029.021-.036.002-.084-.015-.123.062-.063.022-.086.042-.07.035-.037.012-.036-.002-.057-.013-.143-.035-.017-.009-.012-.006-.015-.026-.013-.024-.027-.07-.127-.253-.042-.063-.03-.034-.08-.054-.053-.02-.073-.015-.075-.014-.021-.032-.029-.135-.007-.057.004-.036.045-.087.012-.013.03-.035.023-.046.012-.042-.006-.157-.043-.05-.035-.038-.007-.008-.044-.06-.011-.036-.013-.14-.002-.084.009-.16-.006-.154.007-.11-.008-.152-.001-.018-.03-.027-.133-.09-.037-.016-.204-.058-.031-.014-.04-.03-.028-.063-.001-.08v-.01l.008-.183-.012-.06-.02-.06-.01-.07-.023-.055-.01-.015-.028-.023-.136-.102-.113-.108-.053-.079-.004-.005-.059-.072-.006-.017.007-.08-.038-.174-.014-.109-.005-.078.013-.117v-.084l-.055-.374-.034-.147.001-.069-.034-.102-.03-.133-.016-.214-.048-.211-.024-.11-.02-.034-.129-.129-.054-.045-.058-.034-.043-.015-.078-.06-.103-.11-.059-.073-.05-.133-.063-.146-.025-.036-.07-.045-.143-.122-.073-.045-.145-.07-.145-.088-.073-.06-.056-.088-.03-.062-.056-.087-.071-.076-.078-.108-.02-.04-.024-.073-.017-.07-.053-.116-.05-.136-.034-.07-.07-.093-.055-.06-.077-.126-.037-.048-.02-.047-.028-.05-.043-.054-.004-.005-.023-.04-.027-.115-.007-.055.001-.04.024-.094.018-.107.105-.236.033-.053.016-.04.01-.026.01-.038.026-.058.041-.133.026-.11.005-.045.044-.105.007-.069-.021-.093-.106-.11-.107-.12-.036-.078-.043-.145-.043-.252.024-.15.057-.253.01-.058.006-.086-.005-.06-.04-.211.008-.203-.02-.23-.037-.153-.03-.065-.04-.06-.089-.112-.025-.02-.106-.054-.083-.016-.065-.028-.058-.031-.03-.03-.014-.04-.017-.078.015-.23v-.127l-.007-.105-.021-.053-.079-.02-.093.022-.201.078-.021.008-.14.045-.108-.009-.05-.02-.03-.021-.036-.023-.043-.051-.059-.052-.113-.074-.15-.074-.082-.06.098-.147.074-.063.08-.07.274-.127.159-.067.191-.073.12-.036.105-.003.153-.018.154.006.119.01.19.023.247.048.344.071.305.049.375.039.143.011.017.001.083-.005.177-.02.132.012.447.046.337.013h.311l.595.03.118-.005.251.01.335-.045.327-.041.29.03.518.098.423.099.202.064.15.092.112.067.182.055.213.011.452-.014.275-.026.261.002.387.014.328.03.451.018.319.033.166.03.185.048.17.054.301.058.189.032.26.076.717.302.168.098.134.08.286.229.124.121.128.136.207.192.368.237.168.07.114.066.119.06.172.057.185.049.16.032.142.062.306.112.142.072.083.012.325.054.453.006h.065l.167.068.082.033.255.15.258.086.218.018.231-.047.185-.093.22-.15.371-.223.179-.073.533-.062.423-.053.347-.08.014-.003h.026l.468.017.281.007.172.054.296.11.188.062.686.242.374.099.545.12.473.128.212.039.756.3 1.095.465.272.04.143.005.316-.025.296-.142.225-.142.295-.273.247-.228.25-.27.293-.208.674-.223.262-.105.363-.2.16-.08.264-.129.351-.082.053-.012.46-.057.322-.093.18-.105.144-.09.107-.13.089-.133.2-.347.1-.085.126-.103.147-.062.324-.105.575-.144.322-.05.436-.026.162-.005.529-.226.392-.103.49-.091.432-.07.015-.003.036-.005.374-.08.126-.048.184-.07.21-.015.208.015.183.024.06.007.678.163.505.165.173.042.14.054.153.07.181.045.264.048.415.15.353.145.57.182.41.066.43-.066.199-.07.308-.133.231-.06.31-.04.303-.013.168.044.111.047.343.115.33.126.105.023.263.056.443.003.43.059.023.002.032.01.362.104.163.014.11.01.271.077.047.013.157.086.168.066.348.165.286.055.358-.03.155.002.098.009.025.002.031.01.118.04.187.074.28.115.294.104.327.071.267.052.34-.013.119-.006.208-.01.272-.043.137-.05.259-.177.08-.118.098-.061.256-.174.244-.153.225-.17.119-.079.14-.106.09-.11.092-.13.081-.099.168-.119.117-.045.17-.051.25-.05.117-.03.217.063.393.015.649-.058.123.011.116.026.123-.007.217-.024.127-.048.056-.021.121-.028.136-.004.072.006.093.041.046.013.262.071.28.134.134-.004.384-.052.168-.065.14-.03.174.05.038.004.014-.003.118-.02.074.014.055.04.102.05.259.112.206.102.19.072.138.045.076.02.21.097.369.155.155.08.206.079.117.018.15.007.1-.01.008-.002.058-.012.04-.025.105.02.45.027.016-.003.092-.015.086-.039.082-.045.175-.044.127-.042.112-.012.081-.008.23-.04.161.002.095-.004.168-.058.122-.061.339-.234.12-.053.114-.05.132-.069.15-.085.096-.04.219-.056.504-.195.18-.082.128-.09.126-.037.108-.015.416-.127.22-.082.064-.01.098.004.103-.017.183-.064.062-.013.06.001h.025l.18-.058.083-.041.016-.008.184-.075.155-.08.163-.059.154-.01.097-.008.116-.023.072-.028.004-.042.006-.056.027-.073.07-.14.011-.076-.007-.07.05-.157-.002-.08-.021-.094-.005-.02.002-.099.012-.08-.017-.117.006-.035.018-.06.036-.058.04-.1.006-.014.035-.07.004-.05.076-.092.062-.062.013-.01.038-.031.084-.079.022-.036.054-.06.068-.064.17-.202.007-.015.01-.019.055-.069.019-.014.014-.01.016-.02.03-.061.023-.065.008-.042v-.078l-.035-.144-.028-.114.017-.049.01-.067.042-.13v-.038l.024-.091.015-.113.013-.103.002-.028-.004-.11.007-.069.019-.085.018-.032.042-.154.017-.092.017-.047.024-.099.018-.039.042-.061.078-.084.052-.085.04-.09v-.048l-.01-.114-.033-.121-.068-.153-.054-.097-.019-.108-.002-.12-.016-.038v-.014l.022-.03.002-.027.011-.016.05-.02.042-.053.108-.178.027-.057.04-.056.011-.016.037-.06.022-.05.031-.106.076-.249.01-.074.093-.25.041-.054.049-.12.023-.108-.012-.073.015-.102.012-.284.027-.086.026-.033.018-.046.061-.073.08-.077.132-.094.036-.019.028-.008.028-.002.055-.004.031-.014.032-.031.034-.072.006-.012.01-.032.062-.197.026-.18.016-.094.013-.043.005-.043-.01-.087.005-.02.02-.04.014-.05.057-.06.053-.037.07-.04.026-.02.033-.027.106-.1.097-.15.034-.098.002-.006.023-.032.01-.01.076-.078.036-.056.014-.042.01-.028.051-.12.02-.017.058-.028.027-.012.008-.018-.001-.017-.003-.036-.017-.041-.034-.05-.06-.057-.107-.07-.197-.086-.141-.086-.106-.038-.082-.05-.023-.031-.056-.115-.009-.034v-.03l.005-.04.014-.042.032-.069.1-.172.03-.033.03-.06.032-.048.022-.054.007-.083-.007-.122-.017-.143-.064-.148-.043-.12-.026-.039-.025-.067-.062-.049-.02-.026-.008-.03-.002-.041.008-.107.015-.095.02-.055.053-.108.036-.058.08-.177.027-.094.01-.06.062-.19.046-.198.031-.175.02-.092.002-.088.01-.083.063-.274.042-.135.026-.042.034-.035.029-.02.093-.033.011-.006.018-.01.017-.01.007-.003.038-.03.03-.034.02-.036.004-.017.017-.07.012-.137-.003-.065-.008-.047-.034-.135v-.034l.009-.047-.012-.044-.045-.085-.01-.035-.012-.093-.007-.09-.002-.138.015-.076.015-.038.003-.042-.014-.055.038-.2.035-.139.2-.434.02-.025.027-.053.013-.072.05-.082.018-.04.02-.077.036-.044.043-.031.057-.052.522-.396.032-.02.015-.008.187-.07.037-.044.012-.025.011-.056.001-.012.006-.072-.006-.093-.01-.057-.025-.066-.018-.049-.011-.046-.014-.179v-.049l.002-.017.007-.118.009-.082-.005-.062-.041-.141-.018-.041-.008-.014-.036-.063-.022-.03-.096-.126-.073-.07-.135-.088-.02-.012-.05-.049-.008-.012-.035-.058-.005-.008-.03-.091-.018-.085-.002-.079-.002-.034.005-.056.035-.15.009-.042-.006-.065-.049-.17-.02-.034-.032-.039-.022-.044-.053-.184-.028-.102-.007-.062-.005-.189-.004-.037-.031-.062-.028-.026-.02-.015-.048-.035-.132-.075-.063-.036-.075-.029-.07-.018-.056-.023-.02-.02-.086-.152-.02-.026-.042-.028-.03-.031-.026-.091.014-.038.02-.055.027-.048.03-.034.03-.053.025-.047.039-.046.145-.168.022-.042.01-.04.002-.013.004-.06-.01-.032-.013-.038-.007-.046-.025-.033-.013-.013-.07-.066-.02-.042-.013-.042-.008-.063.002-.031.034-.12.006-.023.022-.12.048-.138.013-.078.028-.096.015-.177-.001-.062-.019-.184-.011-.047-.001-.046-.01-.025-.02-.049-.013-.055.013-.122v-.08l-.015-.075.005-.025.048-.045.024-.014v-.007l.018-.003.015-.008.025-.008.034.004.018.002.115.058h.038l.051-.019.027-.02.014-.04-.002-.072v-.013l-.01-.037-.019-.029-.029-.035-.005-.019.002-.033-.004-.046.016-.205.002-.112.016-.05.033-.073.13-.216.01-.048.012-.025.08-.075.037-.036.02-.036.027-.088.007-.048.01-.135-.01-.044v-.022l.005-.014.014-.038.014-.025.024-.005.152.048.215.084.087.02.064.005.043-.004.1-.026.055-.028.092-.091.029-.036.058-.105.03-.03.035-.02-.004-.026.004-.016.019-.027.067-.072.04-.026.047-.068.026-.074.001-.053-.021-.099-.004-.027-.002-.01.002-.03.08-.103.026-.023.045-.022.034-.007.018.002.023.001.071-.015.068-.004.065.002.046-.005.061-.013.082-.041.034-.008.057.007.029-.003.006.003.013.005.054.094.01.024v.018l.018.022.028.012.054-.009.03-.01h.082l.045.006.079-.015.034.012.118.008.023-.008.022-.024.063-.04.049-.003.023.008.03.023.004.007.037.055.012.04.01.016.073.07.044.004.057-.023.102-.053.042-.013.212-.166.091-.057.033-.005.108-.048.059-.013.138-.016.053-.015.063-.025.082-.045.043-.042.033-.024.079-.046.04-.036.045-.058.023-.053.02-.114-.008-.058.014-.073.097-.202.014-.045.096-.16.013-.047.004-.056-.018-.07-.004-.026-.004-.03.012-.075.02-.064.084-.086.068-.052.037-.036.04-.052.023-.007.038.002.04.02.06.059.048.063.022.036.019.045.005.004.025.02.015.007.038.016.038.002.076.005.043-.013.014-.027.025-.124.025-.124.014-.034.017-.094.001-.063.01-.046.02-.03.127-.112.015-.016.015-.026.014-.013.058-.015.062-.007.051.001.048.007.068.019.018.005.046-.056.06-.125.045-.183-.007-.04-.002-.024-.016-.01-.044-.01-.055-.043-.07-.057-.03-.049-.02-.057-.004-.04-.003-.03.01-.04v-.005l.055-.203.052-.124.147-.227.068-.096.023-.088.015-.213v-.124l.004-.05.015-.05.032-.084.16-.304.107-.133.037-.05.028-.06.071-.079.006-.006.013-.012.097-.09.048-.064.033-.046.042-.035.039-.032.09-.053.222-.214.012-.01.106-.064.13-.048.176-.047.294-.049.193.029.075.03h.012l.064.002.03-.006.022-.006.085-.032.065-.01.055-.02.037-.053.042-.065.028-.059.023-.136.018-.058.012-.04.007-.043.012-.026.088-.111.065-.052.083-.034.007-.002.08-.011.039-.011.043-.004.02-.022.043-.098.051-.19.074-.275.02-.1.026-.135.003-.011.008-.08.029-.058.003-.005.04-.033.087-.066.08-.042.084-.059.076-.039.073-.047.048-.034.006-.019.012-.089.017-.068.041-.1.027-.097v-.021l-.026-.082-.035-.074-.033-.08-.048-.115-.02-.074-.004-.139v-.017l.028-.22.027-.124.016-.034v-.036l-.008-.025.008-.067.014-.052.038-.076.025-.043.02-.049.015-.072-.004-.088.006-.021v-.022l-.011-.203-.015-.163v-.035l.015-.1.024-.055.002-.03.007-.027.021-.038.027-.059.011-.056-.007-.026-.019-.03.004-.046-.007-.048-.027-.028-.026-.027-.02-.008-.03.001h-.049l-.048-.008-.013-.003-.046-.008-.019-.014-.05-.06-.038-.054-.012-.013-.035-.039-.04-.037-.023-.073-.006-.096.018-.051.017-.065.059-.226.094-.345.034-.095.074-.161.043-.064.018-.033.04-.043.118-.134.085-.112.162-.204.018-.049.053-.188.022-.123-.01-.044-.023-.049-.09-.145-.041-.047-.034-.036-.107-.178-.034-.081-.03-.035-.01-.076.001-.046.007-.048.027-.064.04-.04.127-.153.046-.058.036-.075.027-.057.006-.037.024-.132.001-.121-.019-.08-.05-.128-.037-.063-.087-.13-.161-.25-.103-.14-.056-.13-.049-.064-.02-.04-.093-.092-.073-.037-.103-.036-.132-.007-.018-.001-.01-.031-.03-.098.003-.04.012-.067.016-.041.03-.037.048-.036.103-.046.08-.022.145-.025.054-.027.02-.023.016-.05.004-.037-.004-.033-.022-.047-.045-.056-.03-.018-.047-.014-.127-.054-.052-.047-.042-.056-.013-.045.006-.046.038-.076.112-.165.066-.08.116-.091.06-.044.048-.041.165-.105.029-.027.02-.03.01-.043.01-.119-.02-.136-.007-.11.008-.062.037-.042.046-.023.04-.014.075-.024.1-.022.185-.019.133-.02.14-.023.051-.027.186-.06.087-.049.047-.043.033-.052.039-.1.01-.039.017-.174.031-.165.037-.125.013-.09.038-.066.026-.032.046-.04.125-.085.025-.015.27-.158.094-.048.062-.05.056-.067.013-.026.04-.146.02-.05.01-.054.01-.234.014-.043.044-.35-.01-.096.004-.205-.008-.067-.02-.088-.017-.039-.057-.077-.107-.198-.005-.009-.016-.08.015-.09.01-.03.018-.053.04-.06.04-.087.012-.05.002-.054-.008-.213-.013-.046-.07-.145-.114-.173-.008-.012-.068-.094-.087-.103-.038-.062-.024-.084-.047-.104-.018-.081-.002-.034.008-.088v-.006l.036-.087.007-.02.025-.077.01-.086v-.084l.002-.156.01-.067.063-.132.091-.107.032-.024.075-.028.068-.04.207-.185.12-.164.019-.085.027-.065.036-.038.037-.026.067-.036.014-.007.041-.038.06-.108.007-.012.045-.073.018-.03.01-.037-.006-.082-.012-.066-.036-.084-.162-.195-.118-.106-.042-.032-.038-.03-.057-.054-.09-.066-.107-.062-.053-.023-.058-.05-.058-.098-.039-.094-.026-.093v-.059l.008-.064.108-.287.01-.004.035.002.02-.015.077-.068.115-.118.082-.076.018-.026.103-.148.095-.118.05-.099.051-.093.07-.15.012-.063.016-.08.035-.141.02-.059.022-.038.005-.044.015-.105.014-.033.058-.139.047-.05.087-.068.187-.132.017-.013.048-.061.08-.144.048-.103.056-.139.024-.073.02-.177.021-.124.052-.166.036-.148.002-.215-.03-.17-.024-.077-.062-.112-.007-.017-.042-.1-.045-.157-.008-.069.006-.159.016-.108.002-.019.013-.066.003-.014.035-.13.028-.048.087-.057.07-.035.23-.097.169-.057.084-.015.172-.005.107-.026.067-.038.024-.02.088-.07.045-.032.036-.056.041-.116.016-.086-.012-.085-.03-.08-.067-.122-.077-.114-.175-.14-.171-.073-.205-.049-.433-.07-.183-.051-.128-.054-.055-.038-.064-.045-.068-.07-.024-.04-.004-.06.003-.06.03-.13.136-.261.002-.005.043-.063.058-.055.087-.118.017-.05.007-.094-.004-.043-.008-.025-.032-.05-.103-.115-.024-.023-.043-.039-.067-.049-.031-.03-.014-.021v-.026l.01-.076-.005-.033-.19-.35-.189-.255-.162-.218-.045-.067-.068-.124-.042-.067-.026-.046-.01-.164.009-.108.02-.123.048-.219.031-.18.027-.158.028-.109.043-.125.01-.041.005-.021.005-.053-.014-.084-.038-.059-.036-.038-.075-.045-.05-.027-.17-.087-.058-.033-.03-.036-.017-.067-.025-.12-.005-.015-.024-.084-.023-.07-.033-.049-.124-.111-.105-.05-.062-.03-.105-.071-.093-.095-.148-.174-.01-.012-.073-.078-.065-.054-.062-.038-.078-.03H299.59l-.07-.002-.075-.008-.072-.047-.063-.069-.043-.045-.021-.022-.075-.078-.004-.038-.001-.114.006-.043.014-.028.118-.12.15-.164.06-.067.082-.102.122-.264.004-.029.033-.105.028-.07.017-.076.006-.03-.005-.079-.017-.04-.056-.058-.077-.06-.111-.024-.093-.004-.128.014-.371-.01-.32.008h-.014l-.084-.007-.174-.06-.13-.078-.078-.04-.142-.074-.07-.044-.074-.057-.026-.046-.007-.083v-.03l-.004-.334-.015-.046-.034-.051-.057-.052-.084-.027-.153-.01-.153.005-.06.015-.108.076-.062.077-.1.1-.06.019-.085.01-.08-.017-.056-.03-.003-.002-.067-.065-.068-.177-.019-.145.013-.272.024-.116.003-.014.01-.469-.021-.208-.051-.167-.06-.11-.037-.075-.006-.012-.018-.077.002-.055.008-.232.011-.11.005-.227.013-.141-.003-.174-.06-.093-.096-.129-.023-.03-.04-.05-.03-.038-.004-.05-.002-.11.013-.148-.008-.078-.014-.035-.025-.037-.052-.042-.09-.063-.103-.06-.088-.065-.072-.098-.032-.068-.008-.094-.11-.217-.044-.052-.304-.282-.124-.096-.07-.057-.048-.04-.067-.036-.06-.051-.056-.09-.032-.16-.018-.135-.012-.1-.005-.085-.005-.071-.002-.025-.018-.122-.05-.19-.02-.124-.044-.143-.029-.084-.03-.037-.06-.01-.094.02-.02.006-.048.018-.056.03-.112.036-.045.007-.08-.004-.017-.01-.016-.028-.037-.067-.029-.027-.037-.017-.062-.01-.152.002-.143.06h-.052l-.043-.009-.053-.07-.022-.044-.011-.042-.003-.012v-.044l-.016-.064-.006-.082.01-.029.02-.023.071-.034.143-.034.057-.049.011-.03v-.052l-.015-.077-.023-.093-.034-.105-.002-.007-.005-.041.007-.06.01-.081.026-.092.004-.065.053-.141.008-.062-.004-.043-.014-.022-.02-.013-.063-.01-.026-.003-.06.002-.09.023-.058.033-.05.008-.059.015-.023.006-.071.02-.108.039-.014.01-.037.023-.033.029-.044.062-.055.1-.025.036-.044.04-.023.01-.029-.008-.034-.04-.01-.037-.022-.07-.03-.025-.05-.053-.082-.044-.072-.02-.087-.014-.027-.023-.021-.035-.022-.048-.007-.09v-.078l-.006-.03-.004-.022-.02-.048-.082-.15-.07-.092-.02-.018-.02-.008-.06.004-.035.028-.049.058-.037.067-.075.095-.105.103-.077.085-.037.086-.014.07-.014.032-.032.037-.033.025-.07.034-.135.026-.055.005-.062-.002-.035-.012-.05-.053-.066-.155-.014-.08.04-.084.09-.12.036-.081.01-.074-.007-.08-.02-.057-.031-.06-.038-.055-.032-.039-.062-.04-.153-.007-.14.03-.06.018-.042.022-.021.025-.067.123-.026.03-.061.04-.076.037-.05.015-.024.008-.069.014-.089-.002-.27-.083-.181-.074-.297-.058-.067-.008-.04-.022-.066-.043-.04-.049-.035-.072-.079-.132-.034-.058-.043-.055-.027-.02-.038-.012h-.033l-.045.016-.063.047-.034.039-.065.104-.083.104-.02.02-.021.01-.034.003-.048-.007-.078-.026-.048-.034-.117-.135-.105-.096-.095-.043-.02-.003-.056-.008-.124.04-.054.025-.123.078-.097.094-.069.136-.009.075.006.094.027.162-.002.112-.028.098-.007.024-.026.05-.035.032-.057.033-.084.038-.042.013-.048.007-.032-.005-.027-.025-.04-.067-.016-.026-.015-.05-.007-.053.006-.081.028-.11.009-.163.012-.06.03-.088.045-.068.037-.067v-.062l-.011-.067-.02-.063-.027-.047-.034-.039-.033-.028-.025-.01h-.073l-.021.009-.026.022-.067.075-.033-.005-.077-.023-.073-.03h-.035l-.1.041-.05.005-.033.004-.052-.002-.054-.009-.072-.028-.018-.014-.002-.026.054-.063.025-.046.017-.045.008-.039-.003-.075-.022-.053-.014-.024-.125-.022-.081.043-.025.007h-.149l-.052-.008-.018-.03-.01-.074-.005-.133-.03-.138-.003-.012-.013-.044-.014-.017-.018-.01h-.039l-.023.008-.02.025-.01.023-.005.057-.004.05-.013.04-.043.016-.055-.005-.091-.029-.046.003-.058.017-.031.01-.017-.028-.006-.018.013-.088.032-.08.01-.09v-.023l.003-.021-.01-.033-.013-.01-.025-.007-.094.004-.055-.02-.136-.06-.124-.021-.075-.046-.03-.007-.044.001-.06.017h-.03l-.025-.007-.027-.025-.022-.039-.008-.03.005-.023.016-.014.08-.031.098-.029.015-.008.067-.08.015-.076.016-.033.035-.044.074-.077.024-.017.05-.02.013-.019.014-.041.006-.089-.024-.024-.118-.052-.018-.013-.08-.125-.043-.056-.058-.058-.028-.014-.033-.002-.063.016-.122.06-.054.017-.034-.001-.034-.027-.012-.032.045-.128.102-.149.02-.014.059-.008.016-.008.018-.05.001-.028-.012-.026-.078-.036-.044-.028-.056-.057-.125-.075-.01-.023.002-.093.027-.076.032-.049.025-.02.068-.022.026-.016.007-.029-.008-.015-.022-.017-.029-.009-.037.002-.044.02-.032.004-.017-.007-.016-.017-.011-.025-.023-.026-.007-.019-.001-.016.021-.126.002-.054-.004-.012-.046-.047-.049-.078-.008-.052.015-.043.006-.037.003-.074-.01-.04-.041-.034-.035-.08-.026-.038-.015-.01-.017-.01-.077.004-.075.016-.052-.002-.06-.033-.047-.048-.014-.047-.006-.032-.022-.022-.12-.02-.016-.01-.002-.02.004-.015.012-.027.045-.059.104-.087.04-.028.06-.026.045-.054.016-.034.035-.06.044-.105.027-.125-.008-.054.01-.02.039-.02.153-.048.083-.008.015-.002.05-.017.065-.046.02-.02.016-.043-.005-.046.004-.023.011-.068.001-.062-.01-.027-.026-.04-.077-.088-.03-.047-.014-.045-.019-.111-.015-.063-.035-.08-.004-.058v-.021l.022-.065.056-.137.058-.163.047-.184.018-.094.004-.021-.003-.038-.007-.015-.053-.077-.017-.083-.048-.076-.124-.16-.09-.057-.036-.057-.02-.014-.095-.02-.008-.007-.007-.032.004-.023.034-.045.023-.023.009-.036-.02-.038-.07-.073-.1-.072-.071-.041-.03-.036-.002-.017.006-.023.055-.111.054-.067v-.014l-.05-.04-.026-.032-.028-.085-.01-.01-.024-.012-.072-.017-.038-.02-.05-.044-.038-.049-.008-.028.03-.118.009-.02.011-.013.014-.01.025-.005.016.002.037.017.038.025.04-.018.082-.11.078-.104.037-.03.113-.053.002-.031-.011-.054.006-.031.004-.022.052-.079.006-.049-.046-.141.002-.092-.008-.042-.037-.093-.008-.096-.022-.108.005-.038.001-.028.007-.037.022-.016.01-.008.031-.01.066-.01.033-.016.045-.048.005-.023-.05-.09-.016-.072-.028-.044-.017-.01-.012-.002-.05.024-.036.008h-.021l-.01-.011.003-.019.024-.033-.008-.012-.067-.02-.017-.027-.036-.06-.035-.069-.02-.018-.053.01-.028-.003-.032-.016-.017-.021-.006-.044-.01-.073-.021-.033-.04-.048-.114-.023-.04-.017-.078-.036-.067-.006h-.086l-.12.048-.026-.002-.013-.03-.003-.015-.008-.087-.017-.026-.031-.036-.033-.016-.052-.057-.064-.031h-.11l-.022-.007-.025-.022-.024-.033-.018-.033-.028-.025-.012-.057-.017-.023-.035-.016-.037-.024v-.046l.012-.009.018-.024.007-.026-.002-.023-.017-.028v-.03l.012-.028.016-.023.005-.028-.006-.015-.021-.021-.018-.042-.016-.032v-.03l.018-.031.029-.033.036-.028.036-.016.033-.038.017-.045.02-.099.005-.046-.006-.028-.013-.041.008-.031.014-.056.01-.087-.004-.034v-.087l.002-.057.008-.01.039-.017.037-.028.041-.04.07-.098.08-.126.084-.145.015-.041.045-.072.028-.035.062-.042.141-.019.083-.032.105-.055.12-.058.184-.175.042-.076-.102-.234.01-.154.03-.168.031-.117.013-.235.013-.114.004-.044-.005-.017-.031-.11.033-.224.058-.206.07-.144.086-.115.062-.151.005-.012.03-.077.007-.036.011-.065.077-.234.035-.155.008-.206.007-.169-.005-.063.106-.055.113-.125.049-.168.04-.158-.003-.205-.006-.067.155-.147.025-.032.012-.015.09-.265-.113-.147-.04-.05-.094-.194v-.04l.09-.09.005-.005.097-.097.13-.054.155-.066.163-.138.126-.127.214-.173.19-.222.115-.115.138-.106.103-.112.131-.184.084-.099.05-.042.02-.019.04-.016.245-.02.26-.01.11-.05.228-.015.051.013.245-.084.165-.064.23-.127.144-.085.144-.07.127-.116.005-.005.152-.113.087-.039.183-.096h.18l.15.009.113.15.071.09.054.067.043.065.103.178.034.105.15.039.115.02.202-.084.01-.004.016.004.166.052.136-.007.103-.056.13-.11.204-.11.105-.084-.001-.008-.033-.172.035-.22.055-.164.063-.154.121-.18.2-.212.12-.097.088-.061.09-.063.141-.22.039-.056.02-.03.075-.112-.003-.064-.004-.02-.019-.073-.026-.102-.036-.18.127-.228.044-.046.001-.045.085-.245.074-.193.088-.12.042-.093.077.015.008.001.184.027.259.071.259.056.118.002.11-.026.179-.06.116-.01.102-.054.159-.072.08-.11.022-.028.04.008.142.031.165.042.053.068.104.095.053.022.091-.023.122-.088.148-.01.066.084.23-.055.11-.089.183-.025.145.088.122.05.024.012.218.103.126.054.175.09.048.092.05-.05.256-.063.016-.004.024.01.222.1.12.075.214.092.09.049.075-.04.076.039.141.016.218.03.11-.144.085-.15.036-.064.047-.06.029-.075.054-.054.064.017.107-.002.113.015.095.014.154-.04.182-.066.226-.088.125-.064.17-.065.058-.07.041-.053.086-.023.023-.006.004.01h.007l.167-.01.205-.125.05.064.12.064.167.067.058.027.104.04.096.034.01.01.136.132.089-.096.066-.03.156-.04.255-.074.184-.052.13-.036.095-.026.116-.073.108-.067.094-.058.206-.129.146-.09.155-.132.212-.18.244-.389.043-.16.051-.183.047-.231.004-.031.013-.034 2.273 2.686.863-.195.345 1.173.335.17 1.484-.108-.07.406.258.19 1.338.046.487.48.824-.088-.255-1.259 2.589.08.434.597 2.826 1.105.006-1.23.474-.6 1.3-1.06.78-.17 1.066-1.307 1.07-.711.841.387.21 1.078.834 1.574 1.643 1.413.211-.66 1.344-.73.005-1.179.75-.877 3.995-.953.673.716 1.176-.321 1.31.084 2.185-.934 1.305.153.43-.628 1.578-.835.28-.556 1.588-1.34-.43-.84.45-1.404-.09-.373-1.007-1.376.545-2.418 3.03-3.047 2.502-1.172 2.882-1.302.953-.206 1.398-1.152 1.588-.436 1.487.311 1.498-.319-.353-.876.186-.6 1.92-1.662.696-1.304 1.384-.453 2.084.507 1.009-.29.907.085 1.772-1.155-.143-.768.194-.619-.546-.327.032-.846 2.464-2.46.162-.958 1.241-.791 1.189-.039.37-.456 3.509-.253.828-.939 1.572-.158.542-.397.322-1.12.459-.552 1.227.146 1.895-2.657 1.09-.133.923.377.38-.082 1.112.367 1.34-.03.337.242.936 1.554.443.14.133.827.78.701 1.41.681 1.444.194.661.74-.436.79 1.12 1.963 1.849-.129 1.523-.97.51.184-.117 1.055-.281.035-.73.957-.551 1.436 1.332.25.114.577 1.366.309.369-.173.849.324.576.315.118.537.521-.118.331.282.271.685.979-.076.158.435.72.252.402.452-.263.26-.388-.215-.509.093-.26.797-.927-.212-.212.397.194.245 1.42.14-.291.903-1.189.382-.26.322-.004.499.641.327-.14 1.656-.444.4-.823-.15-.561.873-.66-.32-.444.271 4.772 1.552 1.955 1.002.817-.234 1.138.124 1.121.449 1.466-.129-.449 2.957.397 1.025.633.538.652 1.204 1.765 1.191 1.667.341.407.638.899.605.445-.323 2.924 1.183.488.562 2.128.028.461.536.402-1.572.709-.51 1.533-2.541.48-1.106-.175-1.06 1.188-1.403 1.279-.006.808-.798 1.235-.496.355-.671.335.223.298-.194-.47 1.126.823.575 2.788-2.707.287-.614.73-.509 1.053.148 1.375-.54.446.795 1.504 6.038-.922.996-.5 1.047-1.184.44 1.205 1.83 3.537.993.89-.28 1.698-1.074.857-.881.417.277.767-.12 1.335.353 1.551-.016.612.388.959-.544 1.25 1.372 3.284 2.292-.407 2.154 1.333 1.282 2.888.334.529.308.11.744.586.865.259.062.09.44-.656 1.579 1.113 1.402 1.467-.22.918.25 2.872 1.49.582.634 1.47.349.47.553.876.23.587-.127.692.32 1.535-.36 1.139-.836 1.218.183.107.306.26-.177 1.13-.795 2.155-.521.357-2.731 1.983-.502 1.572-1.084 1.25-3.121 2.167-.5 2.207.8 2.046-1.252 1.827.152.798-.996 1.115-.372.721.192-1.906 5.378.013.62-.558.877-.873.786.02 1.222.678 1.298-.52.694.224.517-.01 2.104.237.261-.012 1.251-.406 1.733.128.614.854.593-.001.434.379.246.041.748 1.377 2.497-.01.64.495.613.627.294.132 1.41-.345.01-1.004.773-1.6.459-1.2 1.393.222 2.043-.099 1.485-.733 3.3.999 3.475.23 2.094.206 2.513-.406 3.066.072 1.494-.963 2.219-1.215 4.772-1.61 4.226-.733 5.229-.456.446-.175.883 1.533-.222 3.068-1.563 3.697-.373 1.709-.227 1.122.196.837.722.096 1.06 1.986.885.27 1.506.364.213.652.124.066 1.116-.843.876-.635 1.336-1.405 1.29-.493.844-.275 1.17-.083 3.01-.392 1.622.15 1.33.485.257-.616 2.407.207.877.721 1.199 1.715-.082 2.404.724 1.146.69 1.595-.018 1.196-1.404.076-1.019 1.56-1.275 2.126-2.565.582-.454.507-.852 3.127-.179 1.157.08.489-.273.15.011-.076 1.63.25 1.706.597 1.471.29 1.93-.748.632-1.256.114.078.73 1.41 1.726.752.264 1.432 2.083.927 1.933-1.071 1.5-.695 1.68-.572 3.704.95.97-.323 1.143-.923 1.038-.46-.043.09.853-.315.585.276.105.068.51-.202.29-1.202.998-.595 1.803-.709 1.163-.523.222-.644 1.36-1.623 1.397-.174.448.573.872 1.59 1.44 1.451 1.826 2.16 1.846.741 1.327 1.1.71.02.483 1.333 1.73 1.439 2.436 2.537 2.147 2.475 3.033 1.15.626.744.007.112-.207 1.135-.217 1.865 2.064.578 1.12 1.715 3.035 2.257 2.994.92.738.306.563 1.618 1.203 1.622 1.775 1.08.757 1.403 1.567-2.604.004-.222.2.679 1.82-1.148.548-.684 1.322-.982.175-2.121-1.268-.789.632-.558 1.04-2.711.294-1.59.688-2.613-2.947-2.003-1.774-1.393.435-1.507.122.342 3.288-.114 1.699-.645 2.35-.824 1.17-3.358 2.601-1.92.621-.803.295-.46-.251-1.337.19-5.406 1.486-2.303.866-4.456-2.964-2.525-.012-.893-.94-1.62-1.042-.975.031-1.138-.347-1.638 8.378-.149 1.92-.124 1.937.3 1.025.716 1.038-.002 1.472-.437 1.382-.343 1.105-1.745 1.902-1.11 4.417-.997 2.078-1.257.873-.468.072-.154.445-1.862 1.547-1.355-.317.087-.26-.499-.4-1.684.48-1.558-.222-.774.432-.666-.395-.562-1.382-1.158-1.525-1.85-.74-.836-.853-1.405-1.91-.4-1.795-.497.933-.7.394-.507 1.728-1.664-2.5-.801-.71-.388-.844-.732 1.172-.944-.318-.79.972-1.003.398-.702.38-.714-.136-1.952 1.716-1 .415.948 2.084 1.501 1.536.803 1.43 1.356 1.2-.363 1.303-.528.68-1.055.724-1.109.066-.137.98.846.371 1.458 1.37-1.158 1.713-.724-.013-.655 1.233-.87.237-3.375-.152-1.046-.375-2.294 2.333-.845 1.27-.157-.063-2.25-.304-1.45-1.156-2.668-2.908-.47-.819-.439-.298-2.946-2.644-.204-.431-.998-.513-5.936-1.545-1.127 2.534.049 1.156.316.47-2.21 1.608-1.715.091-.838.536-2.228.355-3.061 1.529-3.548 2.006Z"/></defs><text transform="translate(358.445 368.17)" font-family="&quot;Tahoma&quot;" font-size="13">Badajoz</text><text transform="translate(370.445 194.164)" font-family="&quot;Tahoma&quot;" font-size="13">Cceres</text></svg>