<svg xmlns="http://www.w3.org/2000/svg" width="800" height="533" baseProfile="full" style="background-color:false" xmlns:v="https://vecta.io/nano"><style><![CDATA[.B{filter:url(#A)}.C{font-family:&quot;Tahoma&quot;}.D{font-size:13px}]]></style><use href="#B" paint-order="fill" class="B"/><use href="#C" paint-order="fill" class="B"/><use href="#D" paint-order="fill" class="B"/><use href="#E" paint-order="fill" class="B"/><g fill="#eee" stroke="#000" stroke-miterlimit="10" stroke-width=".4"><use href="#B" paint-order="fill"/><use href="#C" paint-order="fill"/><use href="#D" paint-order="fill"/><use href="#E" paint-order="fill"/></g><defs><filter id="A" width="1000%" height="1000%" x="-100%" y="-100%"><feOffset dx="-9.8" dy="9.8" in="SourceGraphic"/><feColorMatrix values="0.2 0 0 0 0 0 0.2 0 0 0 0 0 0.2 0 0 0 0 0 1 0"/><feGaussianBlur stdDeviation="8"/><feBlend in="SourceGraphic"/></filter><path id="B" d="m238.726 333.315.09.54.404.358.718 1.077.449 1.257.628.358v.958l-1.077.18-.359.657-.673-.12-.718-.717-.135-.599-.449-.777.225-1.077v-1.257l.897-.838Zm1.84-2.692.135.718-.449.539-.269-.897.583-.36Zm-6.282-2.812.045.299-1.032 1.316-1.167-.538.763-.598.224-.48h1.167Zm-20.642-62.225.583.418v.539h-.898l-.18-.778.495-.18Zm3.993-3.59.45 1.076-.674-.06.224-1.016Zm.045 16.753.36.478-.27.598-.628-.179.134-.718.404-.18Zm29.213-7.779.315.18v.777l-.718-.538.403-.419Zm-35.764-23.215.628.898.09.838-.45.179-.852-1.017.225-.838.359-.06Zm2.782 3.53.27.778v.838l-.719.299-.18-1.137.18-.718.449-.06Zm53.266-106.621.448.419.45-.18.403.778-.27.598-.897-.419-.807.658-.494-.119-.36-1.257h.495l1.032-.478Zm62.644-2.753.045-.777.673.06-.718.717ZM450.04 69.865l.308.623.613.275-.951.803.017.36.892.44-.285 1.4.159 1.36-.652-.044-.385.331-1.215-.673-.447.164 1.035 1.716.85.175.162 1.366.907.83 1.615 2.959-.867.278.356.498-.085.639-1.068.875-.816-.667-.534.627-1.202-.272.244 1.362-.437 1.247-1.126 1.238-.22.716-.837-.297.128.844-.719.101.411 1.06 1.31.72-.054.271-.91.26 1.368.528-.388.845-.91.3.135.61 1.399.213.16 2.107-.37.833.705.283-.463 1.006-1.183-.79-.215.356-1.745.388-.384-.524-.606.266-.405.664.528.465.272 1.147-.354.246-.518 1.658-.524.362.29.595-.72.326-.295.759.657.4-.72.387.558.73.294-.21.66.84-1.145 2.123.954.05.772.403.107.803-.88.551.478.563-.54.3.456.484-.308.85.636-.034-.289 1.03-.82.255-.401-.403-.683.083-.587 1.461.77.902-1.8 2.276.31.555-.75 2.01.221.63-.523.384-.033.622-.377.308.009 1.463-.765 2.361-.623.602-1.551.335-.13-.328-2.089 1.882-.428 1.32-.065.624.8.368-.962 2.337-1.896 3.234-2.224-.205-1.465.48-1.895-1.25-1.942-.63-.309.447-1.364-.264-1.774 1.928-.508 1.263-.658.601.184.766.763.13 1.095 2.176-.133 1.327.771 3.633-1 3.481-.779 1.346-1.124.56-.951 1.033-.661 1.553-1.26 1.336-2.231 1.615-1.768 2.767-.806.617 1.177 1.803 2.258.548.645 1.216-1.702 5.828-1.672 3.711-.331 1.918-2.682 5.693.514 1.46 1.287 1.247-.087 2.795 1.105 4.79.268 2.659.841 3.857 1.466 2.59 1.59 1.586.215.893-.84 1.277-3.386 3.17.543 1.602 1.394 2.464-.051 1.259.337 1.543.494.007-.1.712 2.046 5.265.02 1.95 1.402 2.91-.18 1.917-.281 5.435-1.314 4.084-3.6 2.012-.765 1.208 1.262 2.993-2.996 3.046-.342 1.044-1.385.986-2.123.53-.862 1.437-.699.544-.019.702-.969 1.334.285.323-.58.87.066.564-.75.372-1.784.061-.455-.344-.401.685-1.33-.028-1.074 1.474-.706.482-1 .016-.714 1.404-1.47-.401.11-.824-1.418.215-.255-.96.639-.019.073-.51-1.248-.526-.607-1.488-1.501-.174-.348-.315-.909.226-1.967 1.387-.645-.258.021.73-1.053-.44-.8 1.272-.34-.218-.382-.925.109-.834-1.005.077-1.408 1.454-.801-.075.094-.526-.584-.387-.961.34-.473-.136-.58-.777-.697.12-.65-.38-.156-.665-1.686-.76-.874.069-.486-.438-2.31 1.836-.863 1.549-.676.306-.512-.6-.686-.127-.944.422-.09.4.826.397.602 1.424 1.054.38-.03 1.337-.68.5-2.973-.644-.649-.486-.067-.717-.504-.116-1.265 1.108-.605-.32.313-.918-1.494-.648-1.205.905-.137.754-2.155 1.524.005 1.11.433.75-.857.454-1.468-1.507-1.782-.218.177-1.404.843-.585-.028-.318-1.526-.474-.773.453-.427-.158-.264-.753.222-1.063-.525-.567-.269-.946-.964 1.425-.103 1.263-.635.477-.6-2.343-.853.625-.722-.32-.991 1.018-.066.793.546.82.327.119 1.05-.497.597.623.112.83-.699 1.352.464.51.16.802-.346 1.997-.198.404.242 1.231-1.303.217-1.301 1.015.062.99-1.059 1.089-1.071-1.027-1.277-.393-1.612.291-.628-.21-.025-.955-1.51.074-.024.647.59 1.14-.431.903-1.096-.97-.307.17-.667 1.732-.952.854-.542.053-.32.845 1.435 1.705-.065.45-.572.222-1.896-.267-1.301 1.673-.45.161-1.929-.496-1.6.533-1.379-.023-1.032.468-2.932-1.715-.836-1.029-2.291.055-.768.243-.788.807-.922-.125-.68-.761-.62-.167-.442.917-1.185-.133-.837-.247-.428-1.521-1.269.029-.492 1.076.794 1.913-1.458.098-1.31.888-1.197-.29-.354.455-1.969-.495-1.023.12-1.235 3.796.545 1.866-.394.362-1.23.087-.364-.887-1.054.545-.151.448-1.16-1.29-1.943-.772-.285-.49-.827-.238-.708.1-.089 1.345-1.603.174-1.847.473-.218 1.223-4.172.996-2.237.178-1.24 1.578.396.899-.527 1.567-.689.261-.054.422.689 1.074-.103.503-.564.837-1.166.779-.494 1.017-.494.478-.448.897-.135.898.09.719-.763.119-.673.658-.673-.06-.09-.418-.583-.48h-1.077l-.045.719-.853.778-.314.598-.718.418-.673-.059-1.346.777-1.75-.478-.943-1.017-.852-.36-.719.18-.314-1.196h.45l.224-.779.762-1.375-.224-.958-1.256-.418-.898.06-.134-.54-.54-.837-.133-.778-.404-.299-.404-.957-.673-.06.448 1.496-.18 1.077v1.376l-.627-.3-.898-.12-.18.42.135.897-.628 1.377.045.658-.404.539-.539.119.494 1.256.494.346 1.346-.106.314.658 1.031.598-.268 1.197h-.583l-.494-.36h-1.166l-.45.779-.314.06-.583 2.632.27.718.493-.06.045 1.137-.988-.06-.269-.598h-.404l-1.077-.777-1.122.119-.314-.479-.628-.24-.224-.957.718-.598v-.478l.448-.54 1.122-.178v-.897l-.583-.899-1.212-.718-.987-.179-1.346.06-.539 1.017-.044.778-.623.12-.544.778-1.256.777-.673.838.089.598-.538.36-.988 1.017-.269.478-.718.479.09 1.136.718 1.137h1.39l.45.539.09 1.615-1.661-.06-.359.658-.673-.179-.763.36-.628-.48-1.302.06-.718.838-.044.718-.763 1.077.269.359-.493.658h-.584l-.763-.3-1.525.18-1.167.778-.18.36.629.717-.315 1.197.494.538.359 1.795-.763 1.197-.18.539-.538.478-1.48.778-1.078.359-.538.897.18.958.717 1.017-.583-.06-.359-.777-.135-1.078-.808.3.046.837-.54-.06-.313.36-1.436-.839-.628.42-.943.359-.404-.36-.18-.838.315-2.093.449-1.436.404-.659.807-.359.09-1.675-.404-.658.135-.36-1.302-1.854-1.705-2.214-1.167-.358-.269.239-.942.12-.449.777h-.987l.538.898-.18.538-.672-.419-.718.18-.404-.598-.718-.3-.539-.837.045-.958.808-.658.584.24.493-.36.314-2.033-.493-.36.314-1.017 1.122-1.137.403.778.539-.598.583-1.197-.224-.598.583-.599-.09-.838-.718-.538.674-.359h.493l.898-.718 1.077-1.674.987-1.856-.045-.777.27-1.137-.719-.48.045-1.555-.359-.538.494-.897-.045-.778.404-.3.359-.897.718-.06.359-.718.09-2.034.224-.838-.628-.539.135-.538.627-1.256.45-.18v-1.077l.313-.359 1.078-.06.672.3.494-.898.135-.838-.045-1.435.134-.659 1.167-.359.404.539.763-.599.045-.658.493-.598-.044-1.077.538-.48.898-.178.538.12.539-.54.09 1.138.942.119.942-.777.538-.659.494.06.988-1.496-.045-1.196.269-.42.583-.06-.045-.776.628-.06.45-.539-.135-1.496.448-.299.18-.718.763.12.359-1.137.359-.06.807-.838.719-.359.807-.06.449-.418.763 1.017 1.256.538 1.122.3-.314-.599.224-.898-1.301-.179-.135-.479.674-.179-.045-1.017-.853-.718.628-.538.18-2.154 1.57.239.539-.479.987-.478.135-.718-.27-.839.314-.598.763.06.225-.419-1.077.06-.449.36-.18 2.034-1.077.299-.807-.957-.673-1.437-.404-.299-.943.06.853.598-.538 1.198-.45.478-.089 2.692-.314.719-.449.299h-.628l-.134.718-1.212.059-.723-.837-.758-.18.224-.838-.673.12-.135.479-1.077.479-.09.478-.448.359.27.658-.494.54-.404.836-.09.719-.493.598-.898.419-1.167.06-.134-1.078.18-.358-.315-.659-.852-.12-.225-.478-.538.24.044.597-.448.36-.09 1.615-.853-.12-.493.3-.404-.6-.494-.178-.987.419h-.449l-.448-.838h-1.57l-.046-1.197.494-.718.269-.897-.27-.54-.987-.417-.404.897-.852-.48-.538.42-.09.539-.45.658-.403.12-.583.597-1.077.3-.853-.24-.404.3-.852.12-.584-.18-.224.778.628.419.36.837.986.18.225.658.583.478-.045.42-1.032.298-.134.958-.494.897-1.436-.18-1.077.24-1.077 1.376.09.42.628.777.045.957-.314.898-.629.12h-1.39l-.046-.838-.404-1.676-1.48-1.196h-.808l-1.75.538v-.658l.404-.718v-.837l-.314-1.197-.718-.479-1.033-.06.315-.478-.135-.958-.539-.24.36-.657-1.212-1.915-.718-.179v-.778h-1.391l-.494-.778-.314-.957.225-.659 1.39.42.27-.42.628-.119h1.93l1.122-.778h.403l1.078-.837.09-.958.358-1.137-.045-1.795-.27-1.495-.986-1.437-.808-.359-.628.06-.539.957h-.359l-.852-.718-1.347-2.033-.269-.778-.359-.42-.224-.957.09-.837-.539-.06.045-1.017.538-.18-.179-1.556.18-.359 1.121.299-.044-.538.314-.478.044-.838-.942-.12.09-.717 2.109-1.018.134-.658.54-.479-.674-.957-.539-.24-.852.36h-.629l-.269-.48-.628-.118-.628.299-.943-.06-.538-.24-.09-1.016-.27-.3.046-.718-.23-.838-.757-.658-.09-1.196-.583-1.257.09-.957-.674-.299-1.122-.24-.583-1.256-.36.18.046.598-.36.718.494.24-.044 1.494.717.6.27 1.196-.314.658v.718l.583.838-.18.658-.942.18-.628-.48-1.212.06-1.48-.18.044-1.076.18-.658-.18-.539h-.718l-.628-.658.314-.718-.359-.418v-1.138l-.583-.179-.763.658-.36-.359-.582-.06-.135 1.017.223.539-.088 1.436-.225.3-1.346-.3-.808.479-.628-.12-1.212.538-.718.778-.314.778.629 1.257.269 1.555-.404.718-.045 1.137-.449.599-.134.957-.763 1.675-.629-.18-.09-1.256-1.031-.598-.135-.838.583-1.496.045-.718.584-.897v-.598l-.674-.06-.313-1.316-.45-.599h-1.346l-1.031-.479.762-1.376.629-1.794.314-1.856.762.3-.134-1.436-.27-.54.09-.537.45-.24.762-.778-.09-.658 1.302.24 1.121-1.317.36-.897-.36-2.274.27-.538-.27-1.017.36-.54.09-1.196-.225-.598.539-.12-.315-1.256-.493-.658-.584-.12-.897.24-.404.299-.449-.838-.269-.06-.045-.957-.449-.539.225-1.136-.494-.898-.314-2.393-.314-.479-1.077-.3-.808-1.435-.045-1.436.673.06.718-.299.629 1.256.358 1.077h.673l.584.479h.808l.448-1.017.09-.659.494-.06.403.599.584-.3.27-1.136.403-.419.224-1.136-.044-.658.628-.899v-.718l-.494-1.555.135-.42-.718-1.016.09-.778 1.436-.299.404.36.134 1.016.673-.24.225-.538.897.06.673-.18.494.18.314.658.538-.06v-.658l-.493-.419.224-.418-.224-.838.583-.538-.269-.658-.045-1.018.404-.957h.36l.537.778-.18 1.257 1.212.717 1.616-.837.09 1.421.673.373-.18 1.197.808.18 1.032-.719.045-.717-.404-.898.09-.598.943-.24 2.019-.06v-1.376l.404-.418.09-1.556.672-1.316 1.571-.12.224.18 1.077-.06.629-1.197.628-.12.134-.598h-.718l-.763 1.675-.717.06-.36-.838-.538-.179-1.032.658-1.122.18-.314-.659.045-1.316.27-1.016.224-1.557-.584-.179-.269.538.045 1.198-.36.957-.807.059-.314.24-.224.837.09.658h-.674l.045 1.138-.404.179h-1.212l-.313-.18-.853-1.316-.225.538-.628-.359-.179-1.017.359-.119-.045-1.077-.404-.958-.449-.06-.583-.658-.314-1.017.18-.538-.18-.48.448-.298-.314-.598.045-.838H207l.18.718.573.479-.08.658h1.212l.404-.18-.27-.658.494-.717 1.032.538.808-.778-.045-.719.539.06.269-.418.045-2.333.18-.898.538-.24.269-1.316 1.346 1.795.539.12.987-.24.628-.42-.045-1.733-.314-.6 1.526.36.314.539.584.24.269-.48v-1.076l1.121.119.719.718.718.12 1.122-.06-.046 1.137.763.598.629.06.359-.599.673-.359.045-.538.403-.24.718.898.763-.06.36.3-.674.478-.27.599 1.123-.42.583.779.494-.18.314-.838.718-.06.808.24.718.478.673-.538.852-.24.718-.598.808-.299 1.122-1.735.135-1.496-.09-.897.224-.658.853-.48h.493l.135.659h.538l.54-.598-.225-.958.987-.358-.09-1.855.36-.599.672.06.898.838.044.478-.358 1.436.448.599.629.359h.852l.27-.838.583-.359.135-1.077.807-.658 1.705 1.196.674-.478.089-.718 1.616.12.493-.359.584.418.852.06.045.36-.583.717v.539l.583.778.763-.48h.987l.628-.478.45-.838 1.031-.897v-.778l.539-.717-.045-1.078-.224-.598-.494.3-.09.718-.628.658.09.598-1.032.658-.315.837-.493.54.045-1.377-.404-.18.09-.717-.629-.778-.179-.659-.718.12-.763-1.556.314-1.196-.493-.658v-.778l.269-.599-.673-.239h-.718l-.583.24v.418l-1.661-.12-.673-.239-.583-.598-.36-1.256-.986-.54-.09-.298.762-.42.404-1.016.449-.3h.763l.718-.837.628.18.898-.24.448-1.077.988-.18.762.24.943.539h1.032l1.436 1.435-.224-1.435.224-.718 1.212-.24 1.39.359.135-.418.584-.24-.45-.838-.178-.957.314-.897-.763-2.514.628-.478h1.301l1.122.478.583.06 1.077-.239.763.838.135.644.763-.106.045-1.376.224-.598h.494l1.121.478-.224.718 1.212.06-.045-1.077.628.48.673.178-.134-2.034.359-.18-.135-1.376.18-.658.583-.419.449-.837 1.077.06.583.478.314.898.045 1.975.808-.06.987.359.045.957h.852l.584-.778.359.12.045 1.136.538 1.676h.449l.673.598.494-.06.718.479v.598l.628.48h.494l.987.776h1.256l.763-.418 1.256 1.137h.718l.225.479 1.077.179 1.525-.18.674-.478h.987v.778l.718.777.718.06 1.212-.418.987.059 2.827-1.436 1.256-.419.987-.12 1.571-.837 1.077-.299.897-.539.853.06 1.167-.598.538-.658 1.616-.778 1.122.06.404.479.628-.659-.135-1.017.494.24.135.597 1.435-.299.405-.418.493.06-.09 1.076.853-.06.404-.299.763.06.583.36.763.179.314.359.628-.24.763.659 1.84.12.942-.54.36-.477 1.076.179.808-1.257.673-.06.404-.718.808-.717.538.299.673.06.629-.718v-1.018l.673-1.137.224-.957.449-.658.18-.957-.809-.42.853-1.196.538-.479h.719l.269.706-.449 1.09.763-.18 1.57-.12.135-.419 1.66-.957.539-.419.27-1.375-.046-.658.853.239.494-.48.358-.837.54-.538.942-.599.717.36.673.597 1.347.06.448.54.135.717.673.18.045.359.763.119.853-.897-.763-1.197-.628-.598.224-.778.448-.658.988.12.359-.659.404.472.852.546-.18.777-.358.54 1.122 1.973.538.24-.044.718-.494.059-.539-.36-1.032.06-.224.779h-.584l.18.778.493.06.405-.778.717-.18.584.36.045.478-.629.36 1.347.716.538.659-.852.359.493.658-.224.957h-.45v1.436l.584.599.09.598.584.3-.09.957 1.122.538.493.538.628-.119.674.658.358-.359-.358-.479-1.077-.359-.45-1.196-.582-.18-.404-.478-.494.06-.224-.48.179-1.316.853.06.224-.299-.09-.718.449-.06 1.391.718.314-.538.898-.18.09-.658.897.12.27-.36.044-1.196-.763-.299.36-.539v-.777l.313-1.017h.629l.314-.598-.539-.36.18-.478.718.12.269-1.437-.314-.538-.808-.12-.583.12-.225.478-.449.06-.672-.718.134-.538.897-.06v-.42l-.718-.716.898-.42-.224-.897.987-.24 1.885-.957.673-.18 1.526-.06.942.18 1.346-.598.224.957.853.24.224.36-.224 1.674.494 1.137 1.436.359.448-.538 1.571-.06.853.179.718.539v.897l.538.658.18 1.137.673.479.808.179.09.479.627.359-.762.418.224.718-.538 1.078.717 1.077.763-.06.404.478.045.658.673.18.718-.18.539.12.852 1.316.09.719h.853l.762.538.09.598 1.077 1.316-.045.48-.942.298.224 1.616-.538.838-.539.478-.314.598.539.36.045-.838.448-.12.539-.957-.135-1.496.18-.299.852-.419.27-.778-.629-.119-.044-.658-.36-.18.045-1.077-.897-1.317.538-.538.404.598.584-.299-.629-.837-.224-1.316-.404-.42-.853.06-.448-.478.134-.36.719-.06 1.346-1.076.09-.957-.54.239-.538-.718-.763-.18-.053-.717.547-.898-.045-.658-.493-.18-.539-1.675.36-1.436h.493l.493-.778.045-1.495.629-.18.538-.957 1.436-.247.763-.292.359-.359h1.077l1.346.36.538.657.584.36 1.257.418v-.778l1.57-.778-.18-.359-.628.24-1.66-.12-.898.18-.269-.479-.005-.898-1.296.06-.18-.478-.628-.24-.314-.538h-.583l-.629-.36h-.538l-.718.42.09.598-.763.419-.227-.24-.76.12-.539-.419-.449-.717-.583-.48-.898-.359-.718-.06-.673.24-.314-.24-.808.958-.09.419.943.419-.134.478-.808.42-.718-.599-1.885-.479-.628-.598-.27-.658-.718-.539-.448-.06-.808-.658-.18-.538-.987-.18-1.974.3-.135-.838-.583-.18-.987.048-1.122-.526-.045-.718h1.705l-.224-.659h-.494l-.583-.658.538-.478 1.75-.06 1.167-.299 1.122-.838 1.122.12.538-.838h.628l.135 1.316.494.3.763-1.436.897-.06-.09-.538.584-.18.718 1.077 1.346.06-.045-.718 1.57.179-.269 1.257 1.302.18.763-.18.134-.658h3.052l.449-.718 1.032-.3-.045-.838-.36-.598 1.078.24.18-.3h.717v-.419l-1.032-.119 1.167-1.376.583.837h.539l.718-.658.224-1.795.449-.239.359-1.017-.045-.718.18-.957.313-.3.046-.957.986-.718-.09-.538-1.076.358-.853-.059.179.598-.448.598-.673.06-.18.719.36 1.016-.674.419-.224.539-1.346.18-.314.597-.988.06-.403.3.044.538.404.479.18.658-.942-.12-.45.778-.628.18-.807-.12.09-.897-.674-.24-.538 1.256-.673-.06-.539.958-.942-.539-1.077-.119.852-.598-.045-.42-1.525.719-.987.239-.45-.12-.089-1.256.135-.658.987-.838-.36-.778h-.448l-.628.778-.628-.18-.538.599.179.957-.225.539-.134 1.555-.942 1.137h-1.93l-.359.24-.18.718-.808-.12-.538.598-1.436.165-.224-1.002h-.942l-.404-.659-.36.24-1.3-.479-1.616 1.077h-.584l-.359.778-.762.598-.36-.658-.807-.06-.314-.36.269-.657h.628l-.269-.958.224-.418 1.212-.958.045-.478 1.615-.957-.224-.719.673-.239.404-1.077.18-1.675-.943-.897-.942-.48.314-.658-.539-.299.494-.598.045-.778.853-1.615.717.06.315-.42.987-.059.044.898 1.033-.24 1.435-1.316.225-.718-.808-1.017.045-.48-1.122-.059.36-1.017-.45-.18-.493.36h-.538l-.494-1.018.314-.478-.808-.42-.897-.119-.27-.957.449-1.197 1.077-1.017h1.167l.359.42.583 1.255 1.122 1.137 1.122.06.449-.36.628-.956.224.479.673.239.718.837 1.437-.24.538-.298.404-.598.494-.06.942-1.137.493.06 1.392-1.376.313-.06 1.257-1.017 1.75-1.257-.538-.718.27-.18.358-1.196h.583l.27-.538 1.166-.24.584-.898-.135-.718.763-.179.224-.598-.628-1.137.718-.3h.808l-.045-1.376.314-.359.763.12.359 1.078-.224.478 1.076.18 2.2-.12 1.256-.957.718-.36.583-1.435.538-.3.315-1.256.852-.538 1.392.12.628-1.736.449.24.314.957h.404l1.121-.659-.718-.957.18-.718 1.66.24-.359-.718.09-.42.987-.358.404-.838.27-1.735.538.12.538 1.196-.09 1.257.853.479-.045 1.196-.808 1.077.045.478.629.54.403-.06.135-.599 1.346-.06.18.42 1.032.777 1.077-.12.359.12.449-.958h-1.301l-.943-.538-.449-.898-.448-.299-.046-.658 1.437.24 1.032-.12.763.179.224-.3-.314-1.495-.628-.299-.27.24h-1.211l-.494-.24-.18.599-.762-.48.314-1.734-.36-1.556.36-1.077-.494-.419.314-.598 1.077.12-.314-1.376.449-.54-.135-.957.45-.299.269-1.675h.403l.673-.598-.09-.36.764-.178.269-.36.987.24.628-.599.808.12.583-.18.897 1.018.405-.538h1.076l1.706 1.675 1.032-.3.494-.598.807-.538 1.077-.36 1.212-.837-.09-.838 1.167.36.628-.539h.538l1.302-1.316.493-.3.898-1.017v-.299l-.628-.599v-.897l.808-.359h.852l.987.718h1.077l1.077-.957-.044-.658.673-.598.134-.779.404-.359.808-1.196.448-1.675h.36l1.031 1.137 1.077.059.54-.36.941-.058.853-.48.808-1.136 1.301 1.376.494.359.18 1.436-.584.3-.224 1.435.269.838-.628.479.404.658-1.436.717.314 1.497 1.523 1.077h1.124v1.495l.763.36-.718.837.584.419-.135.538-1.212-.12-.762-.298-1.078-1.078-.897-.239-.045.718.628.419.27 1.137h-.404l-.673 1.017-.404.12.045.897-.315.538.045.719.494.598-.135.299-.853-.18-.852-.418-.18.598.45.479h.762l.808.24 1.122.776.045 1.078-.18.658h-.852l-.988 1.077-.673.12.36.538 1.21-.12.54-.658.403.48h.763l.314-.66 1.122-.358.404-.3h.628l.539.42.448-.12.27-1.137-.763-.36-.718-.658-.18-.598-.942-.119.135-.838-1.392-2.573.449-.239.18-.718 1.032-.658.762.538.943.18.628-.299h1.795l-.897 1.076.448.48 1.93.12.314.537 1.212-.359v-.299l-.853-.837h-1.032l-.18-1.197-.493-.36.134-1.016.494-.539h.538l.719.599.987-.36.628-.478-.449-1.137h-.628l.27-1.017.987-.06.269 1.137 1.077-.538.269-.778-.314-.42.045-.537.763-.719.404.24 2.288.12.404-.36.09-.957 1.256.538.808-.179.628-.421.584-.716.269-1.016.852.777.898-.18.583-.538.494-.12.224-.478.674.06.314-.719.807-.658.988.24-.36-1.077.494-1.077 3.994-2.035.449-.598.09-1.795 1.794-.24.404.898.718.18.404.658.673.598-.224.957-.673.36-.494-.3-.942.539.09 1.795-.54.36-.807.118-.763.898v.718l-.359.3.45 1.196-.09.718h-.494l-.988.478-.403.42v1.376l.134 1.256-.314.538v.6l.853.717-.629.24-.404.657-.673.29Z"/><path id="C" d="m462.604 58.864.225.48-.225.657-.583.06-.27-.419.405-.718.448-.06Zm-48.67 254.863 1.853-1.233 1.056-1.583.061-1.991.792-.691.944-3.073.428-.273 1.036-2.148-.139-1.889.952-4.841-.74-2.068-.082-1.547.855-1.883 2.028-.682-.302-1.276.453-.842.626.245.618-.148.759-1.56-.854-1.537.052-1.573-1.046.088-4.744-2.827-2.564-.193-2.79-1.184-1.195-2.109-.884-.798-.68-.144-2.092-3.323-2.13-2.074-.548-1.94.242-5.033.793-1.272.767-2.317 2.33-2.53-1.228-.493-.787-1.645-1.58.514-.122.49-.803.574-1.332-1.03-.68.219-.468-.6.75-.37-.065-.565.58-.87-.285-.323.97-1.334.018-.701.699-.545.862-1.437 2.124-.53 1.384-.986.342-1.044 2.996-3.046-1.262-2.993.765-1.208 3.6-2.012 1.314-4.084.28-5.435.181-1.917-1.402-2.91-.02-1.95-2.046-5.265.1-.712-.494-.007-.337-1.543.051-1.259-1.394-2.464-.543-1.602 3.386-3.17.84-1.277-.215-.893-1.59-1.586-1.466-2.59-.84-3.857-.27-2.658-1.104-4.791.087-2.795-1.287-1.247-.514-1.46 2.682-5.693.33-1.918 1.673-3.711 1.702-5.828-.645-1.216-2.258-.548-1.177-1.803.806-.617 1.768-2.767 2.231-1.615 1.26-1.336.66-1.553.952-1.034 1.124-.559.78-1.346 1-3.481-.772-3.633.133-1.327-1.095-2.175-.763-.131-.184-.766.658-.601.508-1.263 1.774-1.928 1.364.264.309-.446 1.942.63 1.895 1.248 1.465-.479 2.224.205 1.896-3.234.962-2.337-.8-.368.065-.625.428-1.32 2.09-1.881.129.328 1.551-.335.623-.602.765-2.36-.009-1.464.377-.308.034-.622.522-.385-.221-.63.75-2.009-.31-.555 1.8-2.276-.77-.902.587-1.46.683-.084.401.403.82-.255.29-1.03-.637.034.308-.85-.456-.485.54-.299-.479-.563.881-.551-.107-.803-.772-.403-.954-.05 1.144-2.122-.66-.84-.293.21-.559-.73.721-.389-.657-.399.295-.76.72-.325-.29-.594.524-.363.518-1.658.354-.246-.272-1.147-.528-.465.405-.664.606-.266.384.523 1.745-.387.215-.357 1.183.791.463-1.006-.704-.283.369-.833-.16-2.107-1.4-.213-.134-.61.91-.3.388-.845-1.368-.528.91-.26.054-.272-1.31-.719-.41-1.06.718-.1-.128-.845.836.297.22-.716 1.127-1.238.437-1.247-.244-1.362 1.202.272.534-.627.816.667 1.068-.875.085-.639-.356-.498.867-.278-1.615-2.958-.907-.831-.162-1.366-.85-.175-1.035-1.716.447-.164 1.214.673.386-.33.652.043-.159-1.36.286-1.4-.893-.44-.017-.36.951-.803-.613-.275-.308-.623.54.248.582-.778.898.539.134-.658.763-.06-1.032-1.317.27-.718-.674-1.615.404-.719.718.898 1.302.12.538-.479.045-.478h.718l.314-.36-.314-.897.09-1.256.628-.54 1.167.24h.808l.628.24.134.658.494-.12-.18-.777.27-.838.538-.3 1.391-.179.27.539.538.12.538.957-.224 1.076-.628.42.718.657.045 1.377.493 1.017-.538.598.942 1.077.943-.12.314-.239.942.12.673-.12.045 1.078-.673.538-.449 1.376-.224.299.269.837.494-.074.404-.584.538.24-.134 1.376-1.257 1.077-.18 1.256v1.137l.487.3-.127 1.077 2.288.957-.404.359-.403.897.089.838.538.12.27-.48.09-1.555.404-.3-.135-1.016-.808-1.137.718-1.077.808-.838 1.212-.12.987-1.016v-.539l-.673-.479.044-.658-.493-.359-.45-1.376.315-.778.853-.06.18.3 1.345-.06.808.18 1.032-.48.27-.598.897-.419.045-.538-.404-.359.224-.957-.897-.778.27-.24.897.18.224-.599 1.122.24.404-.12.449.479.538-.12 1.032-1.316h.539l.718 1.257.493.359.135 1.256.673-.658 1.57.359.404-.42.763-.06.36-.358-.36-.598.673-.36.27.659-.27.479.808.299.494.419 1.66-.24.898.419-.629.42.36.477-.494.24-.314.538-.584.12-.403.718v.658l.269.359.808.12.224.718h.449l.762-.479.225.838.718.12.224.598.763-.359h.628l.673.478.763.06.718 1.078.628-.24 1.257.06.942.18.449.418 1.077.18.539.538-.045.718.673.12.718.717 1.211.12.584.539.628-.06.449.36 1.48-.24 1.212.957h.583l.27.419-.225 1.256.629 1.017.538.599-.27.658 1.213 1.795.404.18-.27.837 1.122.479-.09 1.496h.673l.36.718.807-.18.449.36.673 1.375 1.077.479.583.479.449 1.376.135.837 1.346.838.134.718.404.24-.359.837.09.359.763-.18.404.419h.853l.897.718.808.18 1.39 1.496.494.18h1.033l1.256.598-.584.837.18.778-.628.3-.673.717-.045.778-.628.24-.045.418 1.122.06.269.538-1.122.3-.628.837-.27 1.137h.494l.18-1.017 1.256.24 1.705-.898-.045-1.017-.314-.48.09-1.555.852.06.27-.658.987.24.628.358 1.122.3 1.57.18 1.706.059.942.18h1.84l.404.119.628-.359v1.077l.943.658 2.109.06 2.513-.18.269-.24 1.346.12.539-.298h.808l.538.598.404-.42-.225-.837 1.437-.06.448.36 1.571.359.404.419.673.179.673-.478.808.059.359.299 2.244.18-.135-.718 1.39-.18.809.659.762-.12.225.718.852-.718.225.897h.448l.315.54-.18 2.332.18.898-.18.538-.538.538-.629.18-.269 1.317-.673.718-.404 1.974.045 1.017-.359.539-.045 1.376-.224.658.224.538.045 1.377.583.538.36 1.188-1.232 1.077-.956-.347-1.206.85-.368.919-1.038.184-.359.711-1.623 1.667.164 1.859-1.392.763-.222.394.353 1.518-.918-.154-.33.223.692.658-.376.537-.927-.423-.66.796-.816-.213-1.891.547-.069-.321-1.96-1.195-1.64.431-1.587-.693-1.774.342-.286 1.242.802.536-1.133 1.62.874 1.213.379.032.08 1.135-.664.386-1.226 1.2-.317.904.747-.023-.17.887.53.385-.22.794.684-.192.85.872.693-.189.546 1.194.532.028.939-1.093 1.848-.793.313.126.438 1.15 1.103 1.039-.64 1.964.52 1.697-.729 1.695.4 1.325-.07 2.441.822-.319 1.685 1.197.587 2.119.705.47.962 2.159.61.573 1.757.252 1.295-.033.754-1.129 1.019-.26 1.267.337-.875 1.331.084 2.244-.574 1.181.292.78-.53.032-.291 1.78 1.005 4.689.597 1.164 1.765 1.338.662 1.412.86.572 1.154.105 2.27 3.21.503-.352-.05-1.452.491-.318.746.044 1.315 3.361 1.405-.3 1.03 1.403 2.48-.45.834 2.056.12 1.64-1.443 1.757-1.074 2.6 1.167 3.73 1.353.178.58.654.704 1.284-.035.913 2.552.786.473-.239.214-1.386 1.246-.752.438.498 1.203-.096.83-1.28 1.365-.61.6-1.147 1.503.03 1.2-.397.527-.801-.667-1.349.955-.736.614-1.21.308-2.382.678-.203-.203 1.714.7-.451.898-.064.954 2.153 1.432 1.124 1.315.193.34 1.843 1.133 1.227.558 1.296.773.566-.503.626.12.71-.472 1.23-.122 1.755-3.88 3.04-.644.117-.154.485-1.402 1.113-.987 2.133-3.061.15-.596-.278-.823.806-.314.92-1.625 1.245-.728.987-1.256-1.816-1.75.044-.636-1.086-.346 1.307-.655.68-1.21.275.222 1.724-1.116.005.212.988-.835.53-.796-.05-.31 1.206.963.722-.428.42.226 1.326-.442 1.415.233.657-.728-.096.025.513-.562.51-.543-.331-.335-1.304-.647-.736-.858 2.614-.644-.353-.922.682.316.297-.357 1.476 1.835 1.134.329 2.191.67-.161.733 1.832.475.479 1.603.745.054-.689-.294-.41 1.234-.095-.96-1.014.343-.762-.013-.605-.34-1.032.403-.534-.71-1.104.533-.715-.609-.786 1.052-.549.135-1.651 1.704.932.956 4.536.83.234.499.366.247.862 1.427.695 1.894 2.421 2.675.486 2.126-.749 1.427.523.627 1.116.499-.018.455.976 4.183 4.639.236 3.616-1.17 2.753.982 2.552 1.875.277-3.846.158.65 1.744 1.754 1.806.861 1.988.006 1.864.278.655 1.799 1.314-.798.76-2.517-1.364-.322-.816-.494-.145 1.086-.855-6.064 1.77 1.902 5.452 1.03 2.111.794 1.145 1.11.227-.452.907.617 1.03-1.796.993-.471 1.751-1.38.792-1.028 1.324.083.347.684.375.081.986-.553 1.226-1.346 1.015-.66.038-1.255.998-.511.08-.99 1.16-.15 1.105-1.026 1.55-5.075 4.03-1.824-.14-1.554-3.043-.48.13-1.35 1.623.313 1.11-.128.782-.988.172.599 1.84-.61.941-1.754 1.36-1.042-1.705-.647.216-.843-.29-.583.666-1.27.042-1.746 2.086-1.184.736-1.25 2.233-1.362 1.17 1.795 2.313.364 1.819 1.621 1.364.163.586.851.415-.302.746.768.72-1.258.66-.171.6 2.006.593.76 1.36-1.412.226-.764-.73-1.003.474-.81.78-.436-.047-1.02.777-.625-.017-.82.728-.166 1.442.36.817-.213 2.123.263 1.763-.748 1.346.927 1.817 1.548.458.112.693-1.8 1.544-.085.565-.44.4-1.006.187-.393 1.573.199.984-1.4 1.872.058.618-1.085 2.211.547.357.482-.36.433.095.332 1.763-1.44 2.387-.135 1.075-.37.606-.834.483.119 2.508-1.043 1.03-.769 1.436-.937 2.723-1.12.99.042 2-1.986.266-1.431 1.186-.322.602-1.082.527-.164 1.205-.868-.2-1.913 1.028-.586 1.014.013 1.295.72 1.045-1.839 1.883-.006.387-.579.319-.65 1.101.296.544-.128 1.295-.413.733-.668 2.86-.893.63-.766.056-.58 1.008.548 1.235-1.324.343-.843 2.471.29 1.712-.666 2.51-.744 1.565-2.423-2.421-2.143-4.782.64-2.712-.462-.925 1.053-1.63.884-.25-.36-.524-2.09-.975-2.391.39-.945-1.142-.358-1.017-.64-.69-.07-.558-.743-.396-.736-1.586-.973.638-2.484-.565-.954-1.907-.85-.933-.799-.361-1.737.684-.999-.325-1.398.12-1.892-.518-.641.124-.163.38-1.52.15-1.822 1.127-1.978-2.017-1.054-.588-1.708-.454-.661.984.027.472-1.414.6-2.042 1.403-1.743.71-1.966 1.974-2.957-.025-.826.811-1.416.468-3.462 2.694-4.417 1.045-2.013-.118-1.385-.563-2.609-3.025-1.477-.815-3.289 1.729-.999 1.499-2.472 1.214-.567-.266-.712-1.627-.476-.374-.541-2.546-1.338-.521-1.339-1.066-1.534-.264-.842-1.695-1.535.288-1.659-.183-2.003-1.16-1.157-1.002-.56-2.457-1.33-1.807-2.824-.315-1.375-.601-2.19 1.207-1.497-.797-.615-.455-1.664-.823-.837-1.611-1.126.018-.431-.626.415-.542 1.08.294 1.304-1.04 1.635-.43.59.553 1.113.084.325-.676.422-.186-.747-1.507-.69.052-.689-.458-.505-1.039-1.428-.198-1.002.563-.839 1.275-2.418 1.303-1.138-.236-.619-1.437-1.431-.869-.716.262-.7-.599-2.227.62-.124-1.346-.808-.316-2.205-1.267-2.177.474-.47-.153-.27-.799.67-.994-2.144-.014-1.314 1.155-2.644-.589.397-.88 1.299-.445.175-1.47-3.62-.793 1.942-.491.729-.78.762.422.407-.564-.299-.737.173-.266 1.112-.655.873.252-.212-2.6-3.476-1.265-.948-1.21-1.708-3.627-.444-.015Z"/><path id="D" d="m370.49 405.15 3.054-.909.876-1.588.168-1.157 1.288-.35.835-1.381-.059-.385-2.103-.627-.242-.398-.204-2.236.41-1.661-.744-.818-.05-.501-1.031.031-.545.48-.456-.34.408-.9 1.071-.787 1.516-.667 1.1-.009.462-.43.276-1.115-1.684-1.185.149-1.039 1.616-1.406-.514-.407h-.636l-2.373.562-.654-.253-2.543.012-1.402 1.877-1.756.55-1.635-.068-.991-1.34-.39-1.12-1.422-.07-1.601-1.506-.68-.12-.648-2.298.102-1.813-.798-2.255.855-.772.129-2.945.726-1.503.06-1.794-1.771.12-.89-.688-.585.232-.446-.241-.048-.576-.594-.392-.432-1.043-1.862-1.712-.365-1.086-.965-.82-2.18-.271-.058-1.507.726-.084.502-.831-1.137-2.783 1.172-1.311.41-1.224-.394-.399-2.125-8.14-1.286-2.758-.149-1.71.54-1.43-.59-1.052.075-.978-.512-1.834-.934-.626-2.967-3.984 2.217 1.419 1.704-.791.256-1.717 1.007.264 1.844-.808 1.701-.11 1.548 1.128 1.834-1.26.456-1.521.644-.64 1.583-.496.018-1.143.33-.337.201-1.165.715-.073.518-1.006 2.123-1.13 1.794-1.56.661-.148 1.595.149 1.283.928 2.946-3.873 2.428-1.092-.649-1.13.3-.64.983-.442 1.055-1.033 1 1.031.996 2.126 2.37 1.862 1.648-1.173 1.034.368 2.788-.466.24-.27 2.589.458.97-.86 1.923.952 2.056.206.88.782 1.08-.5.688-.84 1.145.856.434-.17.698.307.47 1.014.619.34 1.808.28.484-.455.252-1.537 1.518-1.443.29-1.701 1.374-1.289.94.267 2.115 1.056 1.349-.046 2.526-.917.77-.663 2.22-1.002.443.015 1.708 3.628.949 1.21 3.475 1.265.212 2.6-.873-.253-1.112.655-.173.266.3.737-.408.564-.762-.421-.729.779-1.941.49 3.619.795-.175 1.469-1.3.444-.395.881 2.643.59 1.314-1.156 2.143.014-.669.994.27.799.47.154 2.177-.475 2.205 1.267.808.316.124 1.346 2.228-.62.698.599.717-.262 1.431.869.619 1.437 1.138.236 2.418-1.303.84-1.275 1.001-.563 1.428.198.505 1.039.689.458.69-.051.747 1.506-.422.186-.325.676-1.113-.084-.59-.553-1.635.43-1.304 1.04-1.08-.294-.415.542.43.626 1.127-.018.837 1.611 1.663.823.616.455 1.496.797 2.19-1.207 1.376.6 2.825.316 1.329 1.807.56 2.457 1.157 1.001 2.003 1.16 1.66.184 1.534-.288.842 1.695 1.534.264 1.339 1.066 1.338.52.54 2.547.477.374.712 1.627.567.266 2.472-1.214 1-1.5 3.288-1.728 1.477.815 2.61 3.025 1.384.563 2.013.118 4.417-1.045 3.462-2.694 1.416-.468.826-.811 2.957.025 1.966-1.974 1.743-.71 2.042-1.402 1.414-.601-.027-.472.66-.984 1.71.454 1.053.588 1.978 2.017 1.823-1.127 1.52-.15.162-.38.641-.124 1.892.519 1.398-.12.999.324 1.737-.684.798.362.851.932.954 1.907 2.484.565.973-.638.736 1.586.742.396.07.559.641.69.358 1.015.945 1.143 2.392-.39 2.09.976.36.523-.885.25-1.053 1.63.462.925-.64 2.712 2.143 4.782 2.423 2.421.744-1.564.665-2.511-.289-1.712.843-2.471 1.324-.343-.547-1.235.58-1.008.765-.055.893-.63.668-2.86.413-.734.128-1.295-.296-.544.65-1.101.58-.32.005-.386 1.839-1.883-.72-1.045-.013-1.295.586-1.014 1.913-1.029.868.201.164-1.205 1.082-.527.322-.602 1.43-1.186 1.987-.266-.043-2 1.12-.99.938-2.723.77-1.437 1.042-1.03-.119-2.507.523.319 2.252.023 1.292-.439.99.186 2.118.74.64 1.395 1.462-.795 2.45-.51.566-.382.028.796.557.54 2.95 1.345.892-.164 1.294-4.035.881-1.08 4.06-.308.446-.292 1.154.239 1.673 2.008.228.645 1.126-.158 1.472.845 3.3 1.02 2.7 2.248 1.817.384 1.259-.419.586-1.434.696.732 1.032-.167.632.452-.434 1.11 1.01.734.723 1.81.993.957-.461 1.782-1.764 1.554.342 3.497-.247.953 1.152 1.37-1.64.226.62.964-1.285 1-.16 1.438-.222.375-1.096-.174-.88.715 1.606 2.238 1.63.767.433 1.346.48-.153 1.332.364 1.185-.364.06.572.965.364 1.28-.122 2.233.808.842 1.258.389 1.71 1.405-.541 1.336 1.011 2.523.808-.82 3.069.13 1.025-.404 2.51.591.73.497 1.52-.394-.128.045 1.623-1.133 1.675.326.996-1.842 2.144-.455 1.27-1.71 2.55.193.66-.362 2.251-.688.6-.75-.192-1.36.42-.524-.121-1.065 1.019.194.6-.473.934-.9.335-.278.453.216.888 1.101 1.47v.687l.651 1.334.622.563-1.232.76-.314.677-.909-2.027-2.2-.502-2.227-1.142-1.32-.075-.919-.402-2.124.251-1.815.867-.304-.136-2.75 2.024-1.033 1.54.724 1.152-1.983 2.634-1.615.266-.597-.223-3.804 2.582-.84 1.115.403 1.163-.904 4.582.334.842-1.918 2.633-1.436.212-1.29.819-1.333.287-.788-.185-.547.62.108 1.043-.293.296.337.677-.086.922-.46.649.36.458-.227.656-1.057-.29-.788.985.115 1.132-.172 1.534-1.499-.26-.722.826-.5-.403-2.187 1.916-.074.578.49 1.778 1.447.522 1.516 1.758 2.905.274 3.214-.8.273 3.457 1.362 1.168.57 1.396-.857.722-.523 1.841-1.07 1.348-.518 1.903-1.22.692.094.463-.63 1.102-.21.815.192.71 1.118 2.089-.824.973-1.652 1.203-.268.823-.93 1.82-.747.257-.385-.177-2.012.008-.855-.196h-.882l-.683-.363-.287-.492-1.115.664-.715.62-1.445-.268-.436.303-1.301-.232-.567-.418-1.236-2.61-.12-1.086-.35-.943-1.943-1.12-1.875-.742-1.268-.962-1.241-.282-1.038-.03-1.35-.586-1.692.893-.385 1.376-.756.792-.87-.625-1.968-.166-.518.207-.367.885-.746 1.23-.023.778.28.81-.387.906.556.218.302 1.079-.858.941.596.594-.517.705.505 1.815.621.29.071.744.956 2-.87 1.017-.482.288.065.958-.377 1.016-.2 1.563-.822 1.784-1.044 1.762-1.325.213-.55-.219-.864.528-.95 1.02-.72.29-1.46.9-.625-.305-.548.299-.675-.316-1.443.55-.707.068-.716.672-1.171.411-1.363.973-.954.897-1.09.116-1.68.022-.674.926-1.641 1.019-1.008-.345-1.684.01-.473-.226-1.02.192-2.46.803-1.206-2.651-.303.01-1.565 1.294-1.618.873-.723.091-.03.8-.24.778-.657.678.052.576-.356.6-.813.198-.02.778-.984 1.103-1.127.704-.148.446-.553-.032-1.269.724-.266-.769.745-1.235-.896-.842-.024-.595.537-.254.284-.603-.056-.526-.395-.474-.87-.438-.945-.838-.658-.147-.614-1.187-.208-1.71.52-1.069-1.11-1.572-1.156.293-2.353-.007-1.786.53-.9-1.716-.073-.428-1.766.401-.816.594-.66.281-.315.69.367.872.554.534.318 1.037-.777.516-.135.374-1.43.689-.098.275-2.222.82-.653.384-.31-.206-1.482.431-.202.395-1.31-.15-1.175.317-1.235.691-.301-.201-2.1-.181-.71-.283-.906-.069-2.048.85-.479-.249.016-1.387.272-.587.176-1.552.246-.397.584-.13-.13-.747.646-1.257.496-.425.095-.948-.343-.218.536-.748.885-.118 1.065-1.099.356-.153.12-.654-1.4-.416-.407.16-2.11.09-.775-.397-.521-.702-.451-.108-1.134 1.117-1.16.097-1.744-.26-1.691-.117-.43-.2-1.678-1.52-.307-.91-1.506.037-.536-.469-1.027-1.458-1.533-1.082-1.104-.028-2.905 1.484-1.814 1.76-1.889-.178-.766-.376-.556-.727-.544-.161-1.116-.008-.216.376-.824.667-1.36 1.57-1.385.6-.84.242-1.34-.047-.324.262-6.144.2-.763-.052.279 1.205.248 2.087-1.288.952-1.38-.23-.09.452-1.182.36-.351.523-.71 2.12-.289-.096-1.125-1.951-.874.079-.497-.35-.342-.607.647-1.27-.033-.787.253-.399.338-2.01.056-1.752-.144-1.505-.313-1.557-.023-.87.596-2.385-.157-1.279-.529-.531-2.442.075-.527-.143-.55 1-.179 1.818.124 1.437-.498 1.873-.418.841-.896 2.785.26.349-.248.51-1.173-.004-1.494.565-1.032.787-.762.12-1.169-.478-.105-.43-.592-.07-1.426.251-.864-.2-.615.588-.612.173-1.045.905-.264 1.54-.75.654.078.688-.577.67-.896.268-.393.6-.442 1.876-.628 1.038-.089.87-1.004-.556-.527.285-1.207.254-1.272-.095-.533.417-.01.622-.707.226-.188.49-1.742 1.324-.955-.14-.313-.23-.709.34-.46.517-1.023.196-.998.373-.328-.36-.97.293-.102.666-1.36-.51-.357-.299-1.693.018-.262-.205-.705.276-.417.545-1.18-.004-2.671-1.266-1.115-.698-1.725-.028.255-2.916.268-6.317-.745-.298.035-.447-.379-1.375-.127-1.23-.39-.552-1.803.88-1.7-.31-1.069.591-.073-1.11.405-.142-.413-.698-.125-1.154-.578-1.021-1.706-1.28.185-.516-.428-1.117.175-.353-.169-1.107.704-1.022.376-1.228.842-.546.426-.803-.067-.45.653-1.046.108-.532.946-.827.504-.953.388-.13 1-.906.06-.287.85-.313-.243-.753.44-.816.669-.133.04-.681.384-.398.654-1.703-.03-1.451 3.17-1.036.428-.257 1.68-3.204.91-.658 1.565.379.756-.525 1.724-.439 1.056-.522 1.148-1.019.528-2.531-.118-1.041-.155-3.07-.443-1.338-.158-.871-.811-1.517-.55-1.644-1.5-.788-2.07-1.376-.774.246-2.339 1.158-1.886-.76-1.612.764-.827.738-.91 1.085-.835.43-1.05.062-.663-1.63-.313-.274.428-.51-.175-1.117.258-.414-.484-1.949.329-1.256-.438-2.058-.03-.74-.533-.96.15-.558-.212-.402-.168-1.94.762-.946.138-.67-.47-.761-.065-.736-.67-.995v-.584l-.668-.695Z"/><path id="E" d="m255.913 393.627.27.897.538.598 1.212.3.987 1.137.134.718-.538.119-.718-.777-.942.059-.404.599-.494-.54-.673-.358.404-.838-.449-.897-.045-.599.719-.418Zm-.583-9.394 1.077 1.376.583.24.09 1.196.314.3.18 1.435.493.658-.852.06-.853.957.494.3.449.778-.584.418-.404.659-.897.239-.673-.06-.225-.478.045-.778 1.167-.24.09-1.256.359-.479-.27-.538-.09-.898.36-.958-.673-.658-.09-.598-.628-.299-.404-.658-.09-.658 1.032-.06Zm9.199 22.018.404.898-.538.12-.225-.838.359-.18Zm12.206-101.954.359.837-.987.838-.628.18-.539-.539.539-1.017.628.06.628-.359Zm-15.078 18.728-.853-.718-.269-.48.314-1.017h.808l-.404-1.076.539-.838.493-.3-.224-.957-.314-.359-.539.06-.045.538-.762.42-.763-.778-.718-1.137.987-.778-.09-.598h.718l.673-.478.314.717-.044 1.197.493.418h.763l.673-.717.943.12.09.538-.674.3v.477l.36.719-.763.598.179 1.855-.853.3-.045.956-.224.12.224 1.376-.179.718.673.598-1.256.42-.36-.719-.538-.06-.763-.418v-.658l.628-.3.45.419.358-.478Zm26.656 26.146.403.48-.314.896-.762-.658.134-.538.539-.18Zm-36.394 13.941.27.419-.27.778-.763.239-.134-.718.36-.718h.537Zm2.065-11.368.135 1.316-.135.598-.853.778-.404 1.197v.658l-.269 1.077-.359.598-.18 1.317-.448 1.615v.658l-1.167.36-.494-.24.09-.538-.314-1.496.493-.898.584.3.135-.539-.225-.718-.763-1.017.225-.718.403-.3.36-.777.583.12.718-1.616-.045-.778.673.18.314.419.943-1.556Zm31.347-59.234.103-.503-.689-1.074.054-.422.69-.261.526-1.567-.396-.9 1.24-1.577 2.237-.178 4.172-.996.218-1.223 1.846-.473 1.604-.174.09-1.345.707-.1.827.239.285.489 1.943.772 1.16 1.29.151-.448 1.054-.545.364.887 1.23-.087.394-.362-.545-1.866 1.235-3.796 1.023-.12 1.97.495.353-.455 1.198.29 1.31-.888 1.457-.098-.794-1.913.492-1.077 1.27-.028.427 1.522.837.246 1.185.133.442-.917.62.167.68.76.922.126.788-.807.768-.243 2.291-.055.836 1.03 2.932 1.714 1.032-.468 1.379.023 1.6-.533 1.93.496.449-.161 1.3-1.673 1.897.267.572-.221.065-.45-1.436-1.706.321-.845.542-.053.952-.854.667-1.732.307-.17 1.096.97.43-.903-.59-1.14.025-.647 1.51-.074.025.955.628.21 1.612-.29 1.277.392 1.071 1.027 1.06-1.089-.063-.99 1.3-1.015 1.304-.216-.242-1.232.198-.404.346-1.997-.16-.801-.464-.51.7-1.353-.113-.83-.596-.623-1.05.497-.328-.12-.546-.819.066-.793.99-1.018.723.32.853-.625.6 2.343.635-.477.103-1.263.964-1.425.27.947.524.566-.222 1.063.264.753.427.158.773-.453 1.526.474.028.318-.843.585-.177 1.404 1.782.218 1.468 1.507.858-.453-.434-.75-.005-1.111 2.155-1.524.137-.754 1.205-.905 1.494.648-.313.918.605.32 1.265-1.108.504.116.067.717.65.486 2.972.644.68-.5.03-1.338-1.054-.38-.602-1.423-.825-.396.09-.401.943-.422.686.127.512.6.676-.306.863-1.549 2.31-1.836.486.438.874-.07 1.686.762.156.663.65.382.697-.121.58.777.473.137.961-.341.584.387-.094.526.801.075 1.408-1.454 1.005-.077-.108.833.381.926.34.218.8-1.272 1.053.44-.021-.73.645.258 1.967-1.387.91-.226.347.315 1.501.174.608 1.488 1.247.526-.073.51-.64.019.256.96 1.419-.215-.112.824 1.471.4.715-1.403.999-.016.706-.482 1.074-1.474 1.33.028.4-.685.456.344 1.783-.061.468.599.68-.219 1.332 1.03.803-.574.122-.49 1.58-.514.787 1.645 1.227.493-2.33 2.53-.766 2.317-.793 1.272-.242 5.033.548 1.94 2.13 2.074 2.092 3.323.68.144.884.798 1.196 2.11 2.789 1.183 2.564.193 4.744 2.827 1.046-.088-.052 1.573.854 1.536-.759 1.561-.618.148-.626-.245-.453.842.302 1.276-2.028.682-.855 1.883.081 1.547.741 2.068-.952 4.841.139 1.889-1.036 2.148-.428.273-.944 3.073-.792.69-.061 1.993-1.056 1.582-1.854 1.233-2.22 1.002-.769.663-2.526.917-1.35.046-2.115-1.056-.939-.267-1.374 1.289-.29 1.701-1.518 1.443-.252 1.537-.484.455-1.808-.28-.619-.34-.47-1.014-.698-.306-.434.17-1.145-.857-.689.84-1.08.5-.879-.782-2.056-.206-1.923-.953-.97.86-2.59-.458-.239.27-2.788.467-1.034-.368-1.649 1.173-2.369-1.862-.995-2.126-1.001-1.031-1.055 1.034-.982.44-.3.64.648 1.131-2.428 1.092-2.946 3.873-1.283-.928-1.595-.15-.661.15-1.794 1.56-2.123 1.129-.518 1.006-.715.074-.202 1.164-.329.337-.018 1.143-1.583.497-.644.639-.456 1.52-1.834 1.26-1.548-1.128-1.7.111-1.845.808-1.007-.264-.256 1.717-1.704.791-2.217-1.419 2.967 3.984.934.626.512 1.834-.076.978.59 1.053-.539 1.43.149 1.709 1.286 2.758 2.125 8.14.394.399-.41 1.224-1.172 1.311 1.137 2.783-.502.831-.726.084.059 1.507 2.179.27.965.821.365 1.086 1.862 1.712.433 1.043.593.392.048.576.446.241.585-.232.89.687 1.772-.119-.06 1.794-.727 1.503-.13 2.945-.854.772.798 2.255-.102 1.813.649 2.297.679.121 1.6 1.505 1.422.07.39 1.121.993 1.34 1.634.068 1.756-.55 1.401-1.877 2.544-.012.654.253 2.373-.562h.636l.514.407-1.616 1.406-.15 1.039 1.685 1.185-.276 1.114-.462.431-1.1.009-1.516.667-1.07.788-.409.899.456.34.545-.48 1.031-.031.05.501.743.818-.409 1.661.204 2.236.242.397 2.103.628.059.385-.835 1.38-1.288.351-.168 1.157-.876 1.588-3.053.91-.303.26.172.882-1.014 1.683-.472.241-1.35.27-.651.985-.613.259-1.242-.198-1.086-1.143-.871-.146-1.311.665-.505.904.188 1.128-.435 1.147-.771.226-.792-.517-.92-.171-1.134 1.021-1.365 1.047-.257.56-.618.13-.159.573-1.353 1.018-1.598.185-.44-.358-.51.572-.648.376-.191.786.105 1.06-.168.472-1.071 1.225-1.75-.193-.956-.705-1.286-.488-1.058-.037-.711.389-.563.07-.695.977-.043.328-.976 1.272-.33-.15-1.044.42-.559-1.095-1.814-.056-.424.382-.927.402-1.012.793-1.652.162-.592-.889-1.051-1.068-.51-.202-1.318-.066-1.861.321-1.543-.04-1.214.152-.738-.242-1.172.218-1.266.557-.687.116-1.202-.08-1.12-.327-.499.047-.853.493-.302.948.33.704.135 1.218-.77.765-2.691 1.332-2.014.307-1.789-.072-1.755.22-.729-.109-1.005-.858-.547-.11-1.366.61-2.943.447-1.301.39-1.082.575-.726.697-.21.67-.624.997-1.226.683-.58.698-.25.883.256.968.02.806-.484 2.686-.147.426-1.453.905-1.125 1.517-.554.289-.995.044-.614.347-.852.838-.904.43-2.352.62-1.532.878-1.543 1.004-1.744 1.48-.457 1.164.354 1.893-.181 1.553-1.382 2.156-2.575 1.79-2.208 1.617-1.27.498-1.563-.03-2.417.83-1.006 1.156-.399 1.179-1.798 2.381-1.735 2.132-.337.524-1.944 1.083-.388-.437-1.225.835-.43-.526-.583-1.197-.449-.599.135-1.674.359-1.197.628-1.197-.763-.718-.09-.479.539-1.076-.808-.18-.449-1.018-.134-1.136v-1.496l.135-.658-.539-.838.225-1.495v-1.975l.179-.359-.224-.658.134-1.077-.27-.12.18-1.196-.224-.958.09-3.051.448-1.017v-.898l.808-.778.135-.717-.808-1.197-.045-1.137-.224-.24.045-1.555-.539-1.257.315-.239.269-1.257.18-1.615-.45-.12-.269-.837.494-.419-.27-.778h-.673l.404-1.017-.583-.42.134-.836-.987-1.317.584-.957-.404-.539v-.777l.718-.958-.584-.538.225-.659-.225-.658.09-.717-.135-1.077-.583-.779.083-1.256-.217-.778 1.211.12.808-.3h.628l.449.48h.493l.584-.898.942-.06.898-1.256.628-.3.853.12.224-1.256.942.598.27.658v1.077l.673.599.852-.12-.09.598.584.06.987-.42.449-.776.448.299.629-.18.09-.658-.584-.3-.718.42-.449-.42.404-.957.494.12.404-.658.404-1.855-.315-.3-.314-.837-.852.06v-.718l-.449-.479h-1.436l-.897.12-.808-.359-.494-.718.18-1.077 1.974-.358.853 1.196 1.167-.3 1.077-1.376v-1.495l.358-.12.36-2.274.358-.658-.403-.239-.315-.778.54-.957.493.179 1.256-.358.18-.48.762.06.09-.657-.807-.599.224-.24.763.779.628-.12.314-.419 1.032-.479.718-.718.449-1.136-.045-.838-.359-1.137.359-.12.494-.837.493-.24.404.408 1.526.011.314-.598-.853.12-.314-1.257.45-.06 1.39-.658-.27.718.764.06.628-.36.314.48-.359.299-.942-.24.224.838 1.257-.18.134-.418.673-.48-.09-.957.539-.957 1.346-.538h.449l1.257.478.628-.478v-1.675l.449-.06.179-.958.449-.299.224-.658.987-.12.225.48 1.211-.244.808-.654.09-.3.852-.122.584-.898.044-.954 1.122-1.616.539-.059.27-.957 1.077-.067 1.256-1.13 1.48.479.674.59.807.128.18-.718 1.077.179 1.077.419-.09-.538-.897-.36.852-1.137.09-1.017-.359-1.017-.853-1.017.45-.478-.09-.719.583-1.136v-.718l.628-1.017-.673-.54.27-.957.403-.478-.314-.539v-.658l.314-.3 1.57-.238-1.3-.36-.315.18-1.032-.598-1.256.658-.225-.957-.718-.718-.269 1.257-.449.179-.314 1.017-.583 1.256.942.958.09 1.137-.224.239-1.302.239-.583 1.137-1.032-.06-.718.778-.36 1.137.584.599.18 1.076.359.06.493 1.017-.673.957-.763.599-2.199-.06-.494.18-.179.598-.583.479-.404.658-.539.12-.718.538-1.256-.539-.225.658-.717-.119-.135.478-1.077.18.18-.599-.54-1.615h-.582l-.27.359-.583-.36-1.167-.06-.583.899-.09 1.974h-.494l-.134.589-1.167.249-.673.299-.18.658-.404.419-.762.24-.718.597-1.077-.717-.583-.18-1.526.12-.135 1.316-.493.12v1.735l-.404-.06-.449.419-.27-.718-.493.06-1.346-.598-.449-.778-.18-.719-.942-.418v.957l-.853.36-.538.773-1.121.004-.494-.538-.27-1.078-2.243-.418-.808-.24-.404.42-.718 1.974-.135.957-.493-.3v-.717l-1.077.299-.27-.957h.494l.628-1.078.135-1.136.539-.658-.18-.957-.045-1.377.718-1.854-.09-.838.315-.599-.09-.658.18-1.017-.27-.778.18-.777.807-.24v.778l1.167 1.914-.09 1.077.225.18h1.256l-.045.659.629.358.718 1.915.897.24.673.478.314-1.257-.449.12-.314-1.615.49-.778-.176-.838-.403-.479.224-1.376.404-.06.18-.717-.18-1.197-.584-.419-.134-1.197-.494-.239-.358-1.436.358-.478-.09-.599-.762.06-.808-1.017-.135-.539.763-.598.539.299.942.12.18.658.987-.18.583.24.494-.479 1.705.172.224.486-.269.898 1.301 1.068.674.009.314-.478.718.239.673-.659 1.211-.359.314-.598.629-.24.224-.717h1.167l.538-.48.045-1.615.763-1.555v-.718l.27-.3-.135-.717.269-.538h.673l.045-.719.538-1.077.225.42.628-.12.404-.419.538-1.915.808.06.27-.898.673-.12.673-1.076.673-.18 1.526-.06.807-.658-.314-.3-.718.24.045-.837 1.167.179.852-.598.09-.539.583.12 1.212-1.556.673-.359.718-.957 1.391-.478.808-1.078-.404-.299-.359.718-.942.36-.853-.061-.583-.419-.315 1.197-1.346-.12-.673-.658v-.838l-.404-.359.215-.717-.439-1.077-.942.239-.314.419-1.167.18-.045.717-.493 1.017-.988 1.078-.852-.3-1.167 1.137h-.584l-.717.838-.898-.06-.27.24-.628 1.375-.493.539-1.526.419.045.957-.808.778-1.122-.06-.224 1.017-.673.36-.36-.659.09-.479-.582-.598-.629.12-.404-.479-.448.3-1.571-.898-1.167.718-.224-.718-.718-.24-1.616.479-.359.479.54.718-.226.538-.493-.06-.09 1.137-.673-.718-.538.12-.18.718-.808.18-.448-.42.177-.598-.716-.239-.18-1.436-.448-.36-.718.06-.36.54-.448-.66.18-.537-1.122-2.274-.674-.31-1.436.011-.269-.658.09-1.376.493.06.315-.599v-1.017l.583-.778-.09-.957-.314-1.197-.583-1.197-.584-.718-.134-.478-.808-.538h-.852l-.808-.898-.853.18-.718-.3-1.077-.18-.27.599-.627.18-.045.718-.628.239-.135.778-1.167.12-.044-.599-.719.06.045-.48-.404-.358-.358-.777-.719-.42-.045-.478.54-.18.358-.479.494-.059-.048-.898-.58-.598.358-.24-.044-.657.852.299h1.212l1.795.299.27.359h.807l1.166-.957.763-.18.314-.359.225-.898h.853l.628-.478-.36-.539-.583.3-.448-.718.314-.778.942-.12.36-.478.582.299.45-.36.313.599.45.18.268-.659 1.122.36.449.538.27.718.044.957-.359.42.045 1.016.494.599-.36.658.404.299-.224.658h-.763l-.538.957-.674.12-.403.478-.18.719.045 1.196.27.18.313 1.017.494.06 1.301-.479.449-.718 1.257-.598h.538l1.212-.48 1.436.3.404.718.807.12-.314-1.496-.18-1.975h-.807l-.09-.658.449-.538v-.778l-.538-.24-.225-1.136.628-.838-.09-.478.36-.6.897.24.18.3 1.032-.718h.359l.134-.718-1.39-1.257.268-.538-.538-.539.404-.359-.045-.538.314-.598-.314-.48.36-1.495-1.033.42-.045.477h-.898l.18-2.572-.18-1.077.09-.898-.762-.658-.315-1.256-.493-.48.314-.776.09-.779 1.3.48.27.657.583-.538.27-.838-.225-.24-.628.658-.583-.119-.583-.419.044-.957.27-.359-.045-1.196.807-1.018 1.66.42 1.122.059.404-.479-.045-.539.719-.239.583.36.18-1.137.807-.06-.09-.598.808-.54.09-.477.628-.958.628.538.719-.478v.838h.403l-.09-.958.225-.539.763-.418-.673-1.496-.718-.718-.45-.06.136-.898.493-1.076.583-.24-.09-.478.853-.658.27-.897.403-.18.18-.539.493-.18v-.478l.54-.539.762-.179 1.211-1.436-.044-.778.358-1.675.898-.957.763-.24v-1.317l.404-.179-.02-.897Zm-18.648 37.933.135.48-.314.478.404.299-.045.658-.628.42-.09.717.224.42-.314.537h-1.032l-.135-.359.045-1.256 1.122-1.137.045-1.137.583-.12Z"/></defs><text transform="translate(298.827 214)" font-family="&quot;Tahoma&quot;" class="D">A Coruña</text><text transform="translate(484.441 229)" font-family="&quot;Tahoma&quot;" class="D">Lugo</text><text transform="translate(451.467 417.832)" font-family="&quot;Tahoma&quot;" class="D">Ourense</text><text transform="translate(309.188 306.465)" font-family="&quot;Tahoma&quot;" class="D">Pontevedra</text><text x="643" y="519.333" font-size="11">Created with paintmaps.com</text></svg>