<svg xmlns="http://www.w3.org/2000/svg" baseProfile="full" style="background-color:false" width="800" height="533" xmlns:v="https://vecta.io/nano"><use href="#B" paint-order="fill" clip-path="none" filter="url(#A)"/><use href="#B" fill="#eee" stroke="#000" stroke-width=".4" paint-order="fill" stroke-miterlimit="10" clip-path="none"/><defs><filter id="A" x="-100%" y="-100%" width="1000%" height="1000%"><feOffset in="SourceGraphic" dx="-9.799999999999999" dy="9.799999999999999"/><feColorMatrix values="0.2 0 0 0 0 0 0.2 0 0 0 0 0 0.2 0 0 0 0 0 1 0"/><feGaussianBlur stdDeviation="8"/><feBlend in="SourceGraphic"/></filter><path id="B" d="M285.37 216.046l1.292.268 1.669 2.862 1.675 1.029-.243 3.468-2.613-.482-8.415.71-4.503 1.733-.924-1.575-.34-1.826 1.541-1.324.3-1.742 5.772-3.195.965-1.284 1.208-.038 2.618 1.395zm-61.697 157.819l-3.426.945-3.663-.76-6.154-1.744.635-1.977-1.593-1.461 1.128-.769 2.211.558 1.22-1.573.432-3.746-.295-.786-1.425-1.094-.826-5.845 3.2-2.435.121-.513.452-3.449-.344-.21 2.168-1.019 1.144-2.151 2.07-.733 1.212-1.327-2.147-6.184-.543-5.486-1.101-.796.352-.196-.169-.915-1.063-1.949.328-.912 2.031.47 2.979-1.403-.089 2.224 1.445.798 1.359 2.336.64 2.743 2.147 1.825 1.655-.517 1.711-1.265 1.339-.216 3.269.512 1.913.301 2.319-.418.447-4.347-1.725-2.453.836-1.447 1.888-.393.219-.484 2.275-.992.31-1.378-.517-3.13.238-5.347-.74-1.937.359-.952 1.066-.483-.035-1.061 1.227-1.517 2.177-1.551.376-1.33 1.109-.02.891-1.362 3.298-.287 5.937 1.333 2.794-.15 1.152-1.283 2.244-.569 4.496 1.517 1.333-.602 1.975-.004-1.371-.966.541-1.679-.008-1.935-.764-.112-.562.456-1.14-.645-.377-.817-1.211-.431.239-.943-.36-2.011 2.146-1.197-.716-.593 1.021-.446-.394-1.348 2.353-.238.606-.668-.232-1.547-1.287-.38.139-.992.322-.29 1.166.741.436-.183-.494-1.17 1.063-.817-.72-.624.415-.828-.749-.274-.706-2.134-.015-8.192-.39-1.848-.653-.119 1.124-3.388.439-4.816-1.788-.883.963-2.072-.021-2.219.449-1.15 3.623-2.555 4.696-1.885 1.012-5.949 1.001-2.421-.42-1.909 1.059-1.905.074-1.043-2.81-1.404.352-5.861-.335-.664 2.619-.858 1.755.481.376 2.144 2.213 5.698 1.583.706 3.32.37 6.804-.871 5.563-2.782 4.114-1.011 3.779-2.346-.424-.771-1.436-.076-1.085-1.648.597-1.109-.294-1.273.951-1.768.034-1.467-.289-5.346-1.109-1.018-.006-2.268.403-1.982 2.926-3.411.935-.808 1.367-.112 1.496-.85 1.486-5.831 1.06-2.03 2.187-1.897.224-1.749 2.53-4.188 2.128-1.31 2.22-.611.892-2.721-.63-2.829 3.998-4.052.503-1.776-.078-2.217.837-.112 1.37-1.526 5.755 1.165 1.194 2.165 5.196.846 1.862-.732 1.596-1.301 1.263-.356 2.143.25 1.065.723 1.571-.102.918.549.446-1.206-.429-4.016 1.06-1.35.06-1.077 1.836-1.596 1.429-3.387-.696-5.447.611-1.833 1.309-1.406 2.641-5.518-.25-2.86.924-1.711.159-3.388-1.026-.046-1.33-1.561 1.776-3.359.879-2.691 1.194-1.429-.122-3.743 2.49-.15 1.327-.743.607-2.622.63-1.702 1.385-.629-.117-1.847 1.213-1.875.793-.465 1.374-.593.964-2.626 1.109-.743 2.451-1.225.161-.569 1.536-.189 1.161 1.236 2.416-2.485 2.826-.346 1.299-.991 3.238-1.093 1.946.474 1.866-.504 2.98-2.026 5.295-2.607 2.635-4.011.98-1.316.105-.94 1.979-2.651.836-.254 1.482-2.44 2.616-6.258 2.42-2.769 1.087-.207 1.202-.948 1.138-1.945 2.555-2.007 2.631-1.89 1.877-.678 1.79.328.899-.732 1.161-1.798 5.377-5.15 1.758-4.393 2.356-1.733.566-2.743 3.077-2.92 1.482-2.125 3.34-2.05 2.139.307.417-1.322 1.643-.926 3.591.544 2.889-1.669 4.432-.187.807 1.544-1.001 3.284 1.772 1.123 1.055 2.133 4.5 2.171 2.897 3.496 1.858 3.401-.06 1.992.743.938-.34 1.411.672 2.138 1.171.368 1.952-.925 4.719 2.758.267.971 1.774.939 1.029-.534 1.039.321.945-.728 1.025-.107 1.626.475-.507.402.535 2.979-.423 2.486-1.369 1.011.319 1.376-.948 1.729.212 1.373-.842.865-.079 1.372 1.853.36.473.544 1.733 4.629 3.506 3.214 2.577 2.99.762 2.367-1.469 1.503-4.415 2.719.369 3.428-.416 1.315-.794 2.002-1.562 2.356-.906 3.663-.885 1.057.316 2.839-.492 1.289-2.879 3.756.178 1.202-.741 1.959 1.227 1.575-1.773.608-1.597-.936-.509.276-.113 1.033.533.981-.605.57.151.671 1.458-.16.931 1.267.793-.286 1.783 1.389-.972 1.355.419 1.35.419 2.562-1.384-.598-.684.24-6.015 4.251-.198.64 1.569 2.001-.85 1.662h-1.405l1.586 2.386-.2.838-1.946 1.112.677 4.073-1.298 2.222-.019 1.324-2.322 2.631-.088 2.763-.849.629-1.027-.575-.811.667-.162 2.726-1.43-.607-.573.753 3.366.005 2.962 1.344 4.858.103 1.586.967.914 1.696 1.442 1.367.954 2.518-.137.423.853.836.03 2.325-.872 4.243-.692.07-.371.959.627 1.701 1.707-1.657.621.711.245.281 1.006 1.375-.915 2.783-1.081.791-1.062 1.793-2.33 1.777-.261 1.693-1.544 2.162.325 1.678-1.448.032-.004.96 2.867.605 1.8 1.785.096 1.388 1.54.094.086 1.269 1.538-.32 2.129.878.303-3.345.305.633 1.009-.197 1.393 3.336 1.151-.291 1.39.695.059-2.529 1.185-4.665 1.683-.33.989 1.731 1.564 1.391.772.047 1.781 1.768.021 2.839 1.231 1.772.025 1.113 1.113 1.883-.562 1.212.022 1.152 5.104 2.102-.406 1.052 1.934.638.355-1.442.891.438 2.385-1.348 1.642-2.574.085-.981.611 1.681-1.96 2.806-.141 3.556-1.98 1.228-1.356-.121-.214.469 2.505 1.738 1.365 2.663-2.093 1.622.412.4-.474.508.308.314-.339.965.504.625-.402.488 4.968 5.939 2.015.518 1.361 1.141.361-.385.744.753 1.446.23.872.445.176.713-1.019 1.375.825.45-1.201 1.855 1.599 1.947-.879.949.379.22-3.288 3.858 1.831 1.869 1.517-1.655 1.442.902 1.465-.38 5.536-2.87 1.44 2.306 2.092 1.344 1.333.273-.677-1.982.291-.277.988 1.092.954 2.91 5.85 4.004.424 3.589-.577 1.751-.212 1.09 1.69 5.672-1.233 5.001.438 1.139-.496 4.554.45 1.305 5.1 1.018 1.428 1.026.997-.803 3.142-.201 1.206 2.707-.012 1.512.88 1.324.033.981 1.432 2.515 2.841 2.323-1.003 2.406-.297 2.6-2.147.861 1.369 3.809-2.87.869.201.567-.975 1.444.927 2.167 1.481.977-.133 1.419.706.341-.022.61-1.306.238-.172.911-2.185 1.831 1.175 1.123-.478 2.256-2.253 1.429.057.478-3.906 3.614-1.168 2.796.161 1.016.387.782-.39 2.073.297 1.346-1.466 4.153.753 3.103-3.144 3.875.11 3.297 3.13 1.446.894.929.385 1.504 1.214.689.05-1.621 3.193-5.872 2.138-1.777-.427-.737 2.355-.655 4.101-4.056 3.851-2.466.644.146.443 1.629 1.332.587 1.038 1.151.59 2.072-.793 2.788 2.598 4.101.442 1.405-.603 1.743.688 1.587 1.472 1.418.392 1.899-1.042 2.941.982 2.036-.937 2.075-1.32.76 1.013.671-.597 1.594.612 1.523-.302.901 2.061 4.439-.335 2.658 2.327 1.686.35.854-.968.412-1.733-.136-1.074-.525-.315-1.223-1.006-.278-2.422 3.096.945 1.007-.68 2.668.507.119.212 1.095.861-.771.563.623-.422.079 1.117.178.772 1.114 1.19.046-.032.817 1.273.635-.568.57.742.869-.325.372.687.873 1.161.01.121.365-.632.978 1.358 1.151.15.642.981-.357.361.34-.557.631 1.165 1.593-.135.456-.647.069.974 1.941-1.856 2.905-6.97 6.619-1.668.701-2.837.738-2.789 1.492-5.381-.487-2.324-.992-3.163.335.215-1.41-.558-.582.347-1.08-.413-3.144-1.273-.718.433-1.775-2.15.102-.495.304-.515 1.654-.952-.023-.552.767-1.096.062-.277 1.897-4.275 4.408.388.657 1.248.165-.98.761-.856-.502-.008-.888-4.649 2.172-4.225 1.016-.406-1.952-.893 1.131-1.504-.643-.582 2.39-.712-.323-.628-1.57-.695-.163-.155 1.15-.421.164-1.434-.596.283 1.79-.226.526-.82.146-1.645-.603-.016-.666-.765-.271-1.629-.094-.971.196-1.475-.638-2.196-4.99-3.92-3.631-1.757-.684-2.498.295-3.152 1.533-4.984.304-.685 2.318 1.282 3.265-.466 2.871-2.398-.598-.085.54-1.979 1.499-.007 1.087.644.642-.608 1.597-1.88.431-1.911-1.091.165-.995-4.062-2.185-1.179 2.762-2.682-.129-1.312.597-.479-.312-.264-1.903.462-1.359-1.385-.697-.94.062.339 1.063-3.565 1.921-.945-.4.19-1.273-1.562.395-1.188-.474-.631 1.394-.573.21-.508-2.043-.56-.063-.803.025-.971.804-.988-.264-.352-.817-.609.118.289.903-.588.26-.462-.53-.067 1.029-1.218-.02-.541 2.251-.667 2.017-.489 1.518.539 1.668-2.395.842-5.256.141-5.948.714-.148.702-3.681.067-1.224 3.857-3.717 1.142-1.541 1.499-1.668.855-1.714-.518-2.243 1.387 1.76 6.643-.887-.121-.092 1.004h-6.744l-1.01.73-2.885.969-5.05 4.683-3.383-2.668-4.977 3.622-3.402 1.174-.237 2.4-2.529 3.928-5.658 3.422-2.594 3.822-4.277 4.014.567 1.075-2.697-.418-4.911-4.628-3.535-.939-4.35-.191-.929-.504-.248-.838-.92-.293.324-.327-.839-.631 1.762-2.193-1.584-2.149-.056-1.566 2.248-.878 3.775-2.696 3.169-.94.366.384.135 3.612 1.307.036.486-.602.066-2.746 1.199-2.186.711.057.915-.048 1.091-1.933 1.44-.761 1.462.704.317 2.071 1.208-.644 2.303.624.275-1.305-.686-1.241 3.549-1.565 1.146.034.943-1.212.31-1.326 1.471 2.841-2.828 1.39.072 1.579.748.587.885-.053 2.039-.896.949-.918.027-1.278-2.473-4.766 1.035-.004 1.767 2.492 2.649.659 3.338-1.669.368-1.594-.959-.592-.705 1.119-1.503.34-.842-.659-1.416-3.375 1.375-.681 1.502 1.917.422-.973-.469-1.702 1.329-.57.575-.965 1.117.658-.332-2.401.906-2.006 1.229-.781.906-2.002 2.925-3.18.988-.645 2.339-.276.498 1.296 1.456.582 2.914-4.157 2.709-1.926 1.813.193.662-.488.227-1.472 2.438-1.74-.171-2.384 4.04-1.375.142-.642-1.199-1.029.153-.874 1.503-.734.285-.71-2.684-2.348-.008-.711 1.433-1.154 1.553.457.847-.252.763-1.137 1.256-3.72-1.687.062-.771-1.41 1.946-3.411-3.695-2.033-.097.409-.59-.107-2.289-1.813-5.844-1.964-.065-.774-.81-.165-1.459-2.663-.252-2.392-2.857 1.475-1.32 2.209-1.845-.093-5.462-3.044.159-.307-1.461-1.239-.628-.475-.751.282-4.613 4.305-.746.511-6.681-2.308-.139-.836-1.446-1.827-.193-2.747-1.328-2.293-3.96-4.326-1.478-.598-.175.076-.88 2.712-1.769-.748-4.422 3.356-1.502-.417-2.923-2.376.4-2.713-.564-.648-2.881-2.464-2.809-1.314-.375.962-1.379-.262-2.786.091-1.258-.569-2.695.205-1.402-.553-2.358-2.852-1.425-1.305-1.205.436-.642-.259-.697 1.813-1.094 1.154-.932 1.804-.489-.404.092-2.106-1.33-.643.818-4.576-6.049-.019-3.815.885-1.603-2.186-2.616-1.433-2.815-3.412-.152-1.204-1.202-.57-.06-2.955.633-1.349-6.97-.675-2.699-2.002-.517-1.076-1.677-1.48-2.313-.565-1.815 4.421-3.292 2.448-.826 1.358-1.901-.771-2.224.149-2.597-1.71-3.135 1.268-1.244-.59-.49-.875 1.448-3.199.192-1.756-3.549-2.154-1.363.267-.805-.952-1.525-3.892.126-.977.575-.305-1.094-.108-1.243-1.57-2.931-1.198-1.508 1.047-.401 1.18-.997.597-.523 1.762.482 2.663-.151 2.064-1.254.302-1.212-.38-1.167-1.18-2.032.962-.691-2.003-.618-.279-.649.678-2.886.332-2.966 4.703-1.059 3.9-1.304 1.9-.324 2.048-.691.944-3.617 1.517-1.092 2.073-1.455 1.106-2.584-.865-.674-2.008.767-1.128-.199-.579-1.046-.423-2.681 2.993-1.316-2.829-2.133-1.725-1.482-.38-1.716 1.109.083-2.964.672-2.603-3.08-5.814-.295-1.894.312-2.709-.434-3.252.576-5.087-1.547-.645-.438-.818-2.621-.349-.571-.828-.889-.253.245 1.401-1.968 4.276 1.069.55-.455 2.363.394 1.131-2.246.747-1.482 1.053-2.369 3.154-2.812 2.941-1.62 1.026-.317 1.505-2.049-.492.325 4.552-.766 2.65-2.507 1.514-8.092.992-.388.699-3.9 2.233-2.124.208-2.211 1.181-.729 1.17.144 2.655-1.346 1.099zm284.746-142.334l2.753 1.617.949-1.771-.54-.013.218-1.028.474.347.593-.903-.313-1.405-1.982-.63-.404.851.432.952-2.18 1.983z"/></defs><text transform="translate(400 294.5)" font-family="Tahoma" font-size="18">Madrid</text></svg>