<svg xmlns="http://www.w3.org/2000/svg" width="800" height="533" baseProfile="full" style="background-color:false" xmlns:v="https://vecta.io/nano"><use href="#B" paint-order="fill" filter="url(#A)"/><use href="#B" fill="#eee" stroke="#000" stroke-miterlimit="10" stroke-width=".4" paint-order="fill"/><defs><filter id="A" width="1000%" height="1000%" x="-100%" y="-100%"><feOffset dx="-9.8" dy="9.8" in="SourceGraphic"/><feColorMatrix values="0.2 0 0 0 0 0 0.2 0 0 0 0 0 0.2 0 0 0 0 0 1 0"/><feGaussianBlur stdDeviation="8"/><feBlend in="SourceGraphic"/></filter><path id="B" d="M388.26 468.525l-.002.099h.386v.086h.065v.172l.14-.007-.012.092.042-.01.023.01v.145l.005.033-.198-.006v.086h-.127v.165h-.131v.092h-.707v-.257h.064v-.429l.06-.001.005-.027v-.08l.009-.062.312-.002v-.093l.049-.008zm208.132-76.284v.035h.064v.086l-.066-.001.002.087-.028-.019-.037.019v.172h-.064v.171h-.064l.01.072h-.139v.1h-.064l-.01-.1-.055.014v-.172h.055v-.087l.074.002v-.086l.065-.015v-.071l.057-.003.007-.024v-.145h.064l-.012-.035.012-.05h.129zm-13.19-22.743v.046h.065v.343h-.065v.086h.065v.086l.075-.007-.01.092.04-.013.024.013v.172l-.052.003-.013.083h-.064v.086h-.129v.257l-.052.01-.012.076h-.064v.172h-.064v.084h-.323v.086h-.192v-.086h-.13v-.078l-.018-.006h-.045v-.258h-.065v-.343h.065v-.172h-.065v-.343l.075.002-.007-.056-.003-.032h.064v-.086h.064v-.086h.065v.086h.128v-.087h.021l.043-.004v-.08h.451l.001-.092.127.006zm-60.735 53.06l-.057.013-.007.073h-.06l-.004.086h-.065v.085h-.192l-.007-.066-.034-.019h-.153l.001-.086h-.322l-.017-.086h-.047v-.257h.128l.002-.079.018-.007h.173v-.086h.773v.077l.043.007.02.002v.086h-.064l.002.08-.066.005v.086l-.055.013zm-69.227.38v.049h.057l.007.086.038-.014.026.014v.257l-.026-.007-.038.007v.172h-.064v.086l-.053-.02-.011.19h-.065v.087h-.45v.086h-.193v-.086h-.128v-.257l.063-.02v-.238l.034-.007.03.007v-.085h.065v-.086h.065v-.172h.093l.03.015.005.071h.129l.008-.07.12-.016v-.086h.257zm120.119-33.525v.032h.064v.172l-.069-.015.005.101-.194-.002v.088h-.064v.085h-.129v.086h-.063l.007-.098-.072.012.003-.09-.067.005.004-.074-.068-.012v-.258l.055.001-.002-.033.011-.053h.579zm-5.47-11.304l.001.099h.172l.017.011.004.075h.065l-.015.244-.05.014.007.174.121-.004v.065l.062.03.003.077.07-.004-.006.09h.058l.007.085h.053l.011.086h.129v.072l.064.014v.086l.13-.005-.001.091h.128v.086h.065v.172l.053-.017.011.102.069-.006-.005.092h.08l-.015.086h.05l.014.17.051-.01.013.183h.056l.009 1.544h-.065v.085h-.128v-.085h-.065v-.171l-.075-.01.011.096h-.064v.086h-.065v.085h-.257v.086h-.064v.086h-.386v-.09l-.129.004v-.086h-.257v-.086h-.065l.004-.088-.068.002v-.086h-.064l.002-.092-.066.006-.016-.086h-.113v-.084h-.065l.005-.094-.069.007-.009-.085h-.055v-.087h-.065l-.01-.073-.118-.012-.005-.171h-.06l.01-.093-.074.007.01-.18-.074.008v-.171h-.065l-.006-.356.07.012v-.087h.065v-.084h.065l-.016-.086h-.049l-.013-.164-.01-.024-.041.016v-.45l.129.021.002-.075.026-.01h.036v-.43l.048-.005.016-.08h.386v-.085h.065l.002-.076.028-.01h.034v-.258h.063v-.086h.135zm-6.57-.25l.008.092h.13v.086h.064v.085l.123-.018.005.104h.161l.027.016.005.07h.065v.086l.066-.003-.002.089h.059l.005.428h-.064v.172h-.044l-.02.085h-.129v.082l-.064.004v.086h.128v.086l.042-.005.023.005v.171h.043l.02.086h.06l.005.086h.063l.002.086h.053l.01.302.001.04h-.064v.087h-.065v.086h-.193l.014-.081-.142-.005-.01-.086h-.055l-.005-.08-.014-.018-.045.012-.003-.171h-.061l-.005-.429h-.06v-.086h-.064l-.008-.161-.057-.01-.006-.087h-.058l-.015-.086h-.049v-.085h-.129l-.008-.071-.015-.015h-.041l.016-.168-.145-.004v-.086h-.192v.086h-.258l-.002-.078-.019-.008h-.108v-.342l.062-.002.013-.068.118-.016-.006-.104.2.018v-.085h.064l.004-.076.124-.01.003-.092.126.006v-.086h.258v.07zm11.976-26.33v.086h.064v.086h.064l-.003.335.067.008v.086h.065v.085h.193v.086l.056-.02.008.188h-.05l-.014.09h-.193v-.09h-.019l-.046.004v-.086l-.064-.006v-.08h-.064v-.086h-.064l-.008-.164-.057-.007-.01-.258h-.054l.015-.177.05.006v-.085zM303.89 428.883l-1.22-2.045-8.706-13.411-.38-.983.38-1.84-.394-1.09-2.186-1.265-1.136-2.808-1.565-1.418-.393-2.083-.655-.896-.094-2.578-1.328-2.616-1.227.585-.706-2.16-1.432-1.64-1.308-4.175-.99-1.338.498-4.117-.403-1.764.253-1.94-.506-.654 1.034-3.253.112-2.58.83-.85.965-.137.944-1.564-1.553-6.093-.498-5.664-.961-2.727 1.65-9.253 1.213-4.354-.703-1.277.98-5.634 1.603-3.728 2.54-2.122.67-2.514-1.898-1.667-1.222.041-1.56-2.083-.966 1.322-1.011-.239-.297-1.125-3.993 3.738-.854-.118-3.204-2.002-.732.525-.832-.287.142-.493-1.052-1.027-1.297-.402-.927.238-.619-1.053-1.893-.315-.796.214-.819 1.692-1.662 1.851-.29-.771-2.914-.866-1.18-1.144-1.058-.047.355-1.445-.93-1.448-1.745-1.035-1.186-1.93-1.58.157-1.188.703-3.83.122.226.492-1.4 1.368-1.786-.414-1.745 1.203-2.936-3.99-.06-.624-5.264-3.995-3.25-1.799-.152-.467-1.24.082-.428-.764-1.934-.735-3.593-3.417-1.251-3.201-1.85-.928-1.716-2.013-.61-.186-4.822-9.316-.185-3.675-2.516-2.08-3.186-1.583-4.295-3.712-.643-1.212 1.416-5.362 1.904-3.974.04-1.62 3.782-3.911 4.682-2.86 7.344-7.915 2.605-4.751.184-2.055-.326-1.272 1.254-2.814 1.855-2.935 1.005-.776 2.58-5.32-.126-1.792 1.581-3.228.534-2.494 1.59-1.612 4.52-2.226 2.754-3.011 1.435-.758 6.92-1.595 5.894-2.038 6.896-8.309 1.791-5.456 2.883-4.575 3.423-2.53 4.385 2.002.76-.433 1.33.11 4.836 5.06 3.263.706 1.826-.158 3.549-1.77 3.244-.432 9.57-2.67 3.314-1.552 5.676-4.484 3.353-3.926 2.71-1.289 3.53.164 1.25-.738 2.52-4.67 4.32-.65 1.868-.826-2.93-2.71.278-1.647 2.351 1.303.808-.81.519.124.24.814 1.783.238-.048-4.228.738-.273 1.739.686 1.348 1.188.458-.193.327-1.78 1.837-.474 2.119 1.825.063 1.186 1.078-.318 1.624 1.132.875.018.31.424-.205 1.038.982.29.454-2.643 1.062.083 1.141-1.049.503.07.675 1.664 1.188.212 1.09.843 1.303 1.754-.771 2.512.855.66-.776.858-1.34-.206-.394.308-.047 2.858 1.08.526.28 1.79.645 1.137 2.602 1.356.733 1.772-.104 1.198 7.99.818.297-.402 1.282.488 3.384-.95.726-.628 2.37-.265 2.65.852-.03.434 6.364-3.963 3.142-2.673 1.459-3.073 1.046-1.001.546-.005 3.308-2.418.895-1.166 8.945-5.825.826-10.035-.683-3.783-.115-10.752-.513-3.32-.05-4.368-2.195-10.754-1.911-5.062 1.542-6.035 1.032-3.575 4.799-3.885 3.298-1.87.913-9.449 1.237-7.414-1.085-3.996 5.9-8.482 4.638-4.478 4.34-2.655 3.893-1.364 5.506 8.282 3.211-1.533.178-.766 3.698-3.278 5.924-3.016 3.778-4.632 1.094-2.2 3.776-3.374.83.12.736-.77 3.014-1.184 5.651-1.048 4.93-2.075 14.803 5.124.962 8.55 16.408 14.862 2.614 1.667 1.78.296.462 4.818 1.858 1.528.9 9.068 2.47 10.165-1.772 4.287-1.644 6.767-2.303 4.496 2.854 7.851-6.455 8.446-6.101 5.987-3.165 2.621-2.861 1.09 4.184 2.053-2.07.795-.78 7.898.369 1.62-.314 9.437.851 6.553 6.029.163 7.022 2.25 9.045 5.6 1.108 4.163 2.904 5.054 1.005 5.722-.092 5.037-1.958 4.655-2.893 12.73-2.468 4.933-1.263 3.54-.91 1.631-6.452 9.091 1.402 6.655.063 5.796 1.872 6.757 2.74 4.834.883 1.412 1.849 1.096 3.863 6.839 3.688 5.122 1.611 4.224 5.763 9.303 2.98 7.533 4.897 6.599 9.95 11.707 1.37 1.071 2.276 2.934.02.018 2.58 2.45 6.169 1.63 3.052 3.28 2.023 1.097 2.52.241 1.944-.9v.226h-.065v.225l.005.03-.07.002v.086h.066v.086l.029-.015.035.015v.256h.065v.259l.07-.004-.003.037.002.052h.06v.086l-.055-.002-.01.774h.064v.072l-.004.1h-.06v.257h.049v.257h-.05v.172h.05l.004.024.011.062h.047l.018.085h.064v.257l.07-.003-.003.032.005.057h.056v.087l-.05-.002-.014.43h.057l.007.258h.129v.172l-.034-.02-.03.02v.256h.064v.258h.064v.171h-.064v.172l.036-.01.028.01v.172h.065v.083l.064.002v.429l.055-.018.01.276h.064v.052l.01.027.054.007v.171h.121l.008.428h.064v.087l.08.008-.016.077h.06l.005.087h.064v.086l.324-.005-.002.09h.386l-.002-.09.516.005v.085h.065v.257h.064v.086h-.064v.257h-.065v-.073l-.106-.013h-.15l-.009.067-.025.02h-.031v.257h-.129v.086l-.137.002.008.083-.067-.004.003.09-.067-.004.003.09h-.065v.086h-.193v.086l-.13-.008.001.093-.132-.007.004.093-.12.016-.009.07-.054.013-.01.073-.034-.016-.03.016v.685h-.065v.172l.067-.005.062.005v.515l.072-.003-.003.028-.005.061h.064v.257h.065v.086h.051l.024.081-.075.005v.086h.065v.085l.07-.004-.006.09.04-.01.024.01v.258h.064v.17h-.064v.087l.075-.003-.01.089h.064v.086h-.065v.086h.064l-.01.083-.054.001v.515l.067-.007-.002.093h.064v.172l.037-.02.027.02v.171l.044-.002.02.002v.344l.066-.001-.001.172h.06l.002.03.002.056h.065v.171h.056l.008.172h.053l.02.082-.073.004v.172h.129v.398l-.007.115-.058.002v.17h.063l.002.43h.064v.171h-.064v.258l.07-.001-.001.022-.005.064.068-.006-.003.092h.063v.429h.053l.01.233.002.025h.257v.068l.054.02.011.083h.129v.086h.186v.151l.131.04.004.067h.065v.17l-.052.005-.013.065-.064.016.013.24-.399.018v.056l-.01.02-.054.01.006.091-.071-.006v.172h-.064v.086l-.17-.012h-.024v.098h-.192v-.099h-.13v.1h-.128v-.1h-.036l-.092.013v-.172h-.065v-.172h-.193v-.085h-.129l-.013-.086h-.05v-.086h-.129l.007-.09h-.142l.006-.166h-.064v-.172l-.04-.02-.025.02v-.086h-.129l-.002-.066-.015-.02h-.11v-.086h-.13v-.085h-.193v.085h-.064v.086l-.054.02-.01.066h-.258v-.086h-.064v-.257h-.064v-.172h.064v-.086h.064l.014-.087.05.002v-.172l.065-.015v-.243l.054-.006.01.178h.065v.086h.193v.172h.128v.084l.046-.01.023-.006-.004.103h.253l.004.086h.193v.086h.386v.086l.071-.02-.007.105h.258v-.257l.064-.014v-.329l.058-.002.006-.027v-.143h-.064l-.002-.172h-.062v-.085h-.065v-.172l.065-.015v-.157h.064v-.085h.064l-.008-.359-.056.015-.007-.166-.057-.005-.01-.172h-.055v-.256h.064v-.086l-.02-.009-.044.009-.014-.163-.05-.01v-.171h-.064l-.002-.171h-.063l-.016-.172h-.048l-.007-.086h-.058l-.006-.074-.024-.029-.034.018-.009-.187-.055.015-.003-.172h-.061v-.343l-.021-.01-.044.01v-.257h-.064l-.01-.086h-.119v-.086h-.129v-.086h-.064l-.009-.173-.055.001v-.084h.055v-.086h-.055v-.258l.055-.006v-.17l-.055.005v-.515h.063l.001-.055v-.031l-.055-.017-.009-.069h-.128v-.072l-.03-.014h-.164l-.002-.077-.016-.008h-.046l-.014-.172h-.05v-.172h.064v-.515h-.065v-.513h-.031l-.033-.001v-.257h-.064v-.086h-.064v.085h-.322v-.256h-.129l-.002-.072-.121-.034-.006-.152h.065l.01-.07.054-.016v-.085h.065v-.43l.067.001-.002-.058v-.028l.065.012-.002-.098h.322v.086h.064v.257h.065v.086h.064v.086h.064v-.086h.065v-.172h-.065v-.086h-.064v-.085h-.064v-.514h-.068l-.006-.087h-.055v-.172l.064-.007v-.079h.129l.014-.248.05-.008v-.086h-.064v-.343l-.056-.005-.008-.03v-.051h-.258v-.086h-.064v.028l.001.058h-.066v.258l.072-.014-.007.099h.064v.258h.064v.17h-.192v-.084h-.129l.006-.104-.135.018.008-.105-.137.019v-.086h-.128v-.086h-.129l.008-.1h-.141l.005-.157h-.065v-.086l.032-.001h.032v-.171h.065v-.085h-.065v-.429h-.063v-.086h-.065v-.857h-.065l-.015-.258h-.049v-.258h-.064v-.257l.035-.012.029.012v-.343h.064v-.086h.065v-.429h.064l-.01-.078.074-.008v-.086h.065v-.257h.064v-.342l.078.007-.014-.093h.064l-.011-.173h-.053v-.17h.06l.005-.122v-.05l-.07.02.005-.106h-.321v-.086h-.129v.086h-.193v.086h-.128v.086l-.068-.006.003.092-.125.01-.004.075h-.064v.056l-.01.02-.054.01-.009.07-.055.016v.085h-.065v.086l-.05.016-.014.07h-.065v.085h-.064v.172h-.129v.086l-.25.02-.007.066-.135-.01.006.181h-.064v.172l-.067-.002.003.088h-.065v.085h-.128v.156h-.123l-.006.188h-.064v.086h-.129l-.013.159-.052.012v.261l-.014.077-.05.005v.344l.128-.018.001.188h.064v.172h.065v.172h.066l-.002.085h.065v.344h.054v.429h-.054v.086l.072-.004-.008.347h.064v.086h.053l.011.17.074.015-.003.072h.187v-.086h.135l-.006.258h-.065v.17h-.129v-.256h-.128l-.016.513.08.002v.086h-.064v.085h-.065v.085h-.064v.344h.057l.007.171.088-.012.041.012v.086l-.048.002-.007.089-.202-.005v.059l-.002.027h-.062v.086h.058l.003.078.003.093h-.065v.056l-.009.023.074.007v.086h-.129v-.092l-.178.006h-.144l.003-.066-.045-.02h-.215l.005-.093-.692.005h-.021v.088h-.257v.086h-.322v.077l-.064.009v.135l-.015.033-.05.003v.172h.05v.086h-.05v.172h.05l.015.085h.128v.085h.129v.087l.053-.011.012.096-.051.01-.026.068-.052.009v.17h-.036l-.022.017-.007.07h-.192v.08l-.065.005v.086h-.45v.085l-.68.001-.17-.019.013.104h-.193v.086h-.128v.086H563v.086h-.129v.086h-.128v.085h-.129v.172h-.064v.086h-.064v.086h-.065v.085h-.128v.086h-.065v.258h-.193v.343h-.064v.086h-.064v.086h-.065v.084h-.064v.344h-.064v.171h-.065v.086h-.064v.086h-.064v.086h-.065v.086h-.064v.085h-.065v.085l-.063.001v.158l-.065.014v.172h-.064v.17h-.065v.173h-.064v.171h-.064v.172h-.065v.172h-.064v.171h-.064v.258h-.065v.086h-.064v.6h.064v.171h.065v.172h-.065v.085h.065v.258h-.065v.343h.065v.172h.064v.257h.064v.086h-.064v.258h.064v.256h.065v.772h.064v.6h.064v.602h.065v.256h.064v.172h-.064v.086h-.065v.086h-.064v.085h-.064v.087h-.065v.258h-.192v.257h-.065v.086h-.064v.172h.065v.085h-.065v.172h-.065v.086h-.064v.257h-.193v.258h-.193v.086h-.065v.084h-.064v.086h-.064v.087h-.065v.076l-.064.01v.085h-.064v.085h-.064v.086h-.194v.086h-.064v.086h-.064v.086h-.258v.086h-.064v.085h-.064v.086h-.13v.172h-.063v.086h-.064v.085h-.065v.172h-.064v.086h-.064v.086h-.065v.086h-.064v.085h-.065v.086h-.064v.086h-.064v.086h-.064v.086h-.13v.085h-.064v.086h-.128v.086h-.065v.258h-.064v.17h-.064v.086h-.065v.086h-.128v.086h-.065v.085h-.064v.086h-.065v.086h-.064v.086h-.064v.086h-.064v.086h-.065v.085h-.064v.086h-.064v.086h-.194v.086h-.064v.086h-.064v.085h-.064v.172h-.065v.086h-.064v.086h-.065v.17h-.128v.087h-.065v.086h-.064v.086h-.128v.17h-.13v.087h-.128v.07l-.128.016v.086h-.065v.085h-.064v.087h-.064v.084h-.065v.172h-.064v.087h-.129v.17h-.128v.067l-.065.006-.129.013v.086h-.128v.086h-.129v.086h-.128v.085l-.065.001v.085h-.064v.086h-.065v.086h-.257v-.086h-.579v.086h-.064v.086h-.13v.086h-.192v.085h-.064v.086h-.193v.086h-.258v-.086h-.386v.086h-.064v.086h-.129v.086h-.064v.085h-.064v.086h-.065v.085h-.064v.087h-.064v.172h-.13v.084h-.064v.172h-.128v.086h-.064v.086h-.13v.085h-.064v.086h-.064v.172h-.064v.172h-.064v.085h-.065v.086h-.064v.085h-.065v.257l.065.001v.17h-.065v.087h-.064v.172h-.064v.17h-.065v.087h-.064v.086h-.129v.086h-.064v.857h.064v.171h.065v.258h-.065v.086h-.064v.086h-.129v.171h-.064v.086h-.064v.086h-.065v.073l-.064.013v.085h-.064v.086h-.064V368h-.065v.342h-.129v.087h.065v.514h.064v.257h-.064v.172h-.065v.172h-.064v.085h-.064v.086h-.065v.086h-.064v.086h-.129v.172h-.193v.257h-.064v.086h-.065v.086h-.063v.085h-.065v.086h-.064v.086h-.065v.172h-.064v.086h-.129v.084h-.064v.086h-.193v.086h-.129v.172h-.064v.085h-.065v.258h-.128v.086h-.064v.086h.064v.085h-.064v.569l-.001.032h-.064v.429h.063l.002.343h.064v.086h.048l.016.257h.06l.004.171.06.003.005.17.051.01.013.161h.062l.003.171.072-.007-.008.18h.128v.171h.065v.085h.064v.172l.104-.021.014.03.011.163.06-.005.004.09.13-.002v.088h.064v.172l.07-.003-.006.175h.055l.003.028.006.056h.129v.172h.129v.086l.054.015.01.072h.064v.17l.051-.007.013.093h.127l.002.086h.064v.086l.12-.02.007.022.002.17.061-.003.004.088h.128v.086l.07-.005-.006.091.044-.015.022.008-.001.093.141-.003-.013.174.066-.001-.001.087h.104l.022.019.002.067h.057l.008.086h.058l.006.086h.049l.015.17h.065v.087h.037l.019.016.008.07.05.012.014.159.05-.018.015.018v.086l.069-.006-.005.092h.065v.086l.13-.005-.002.09h.053l.011.171h.028l.03.02.007.066h.129v.086h.101l.024.012.004.074.073-.015-.01.101.122.013.007.072h.065v.172l.031-.021.033.021v.066l.064.02v.172h.13v.171l.056-.016.007.102.144-.006-.015.178h.063l.001.085h.064v.171h.065v.172l.137-.025-.008.196.051-.007.013.093h.064v.085h.064v.173h.13v.17h.064v.087l.072-.01-.008.096.071-.01-.007.095h.063l.002.171h.055l.009.344h.064v.172h.064v.086l.068-.002-.003.174h.064v.086h.065v.085l.137-.001-.009.345.047-.014.007.021.01.164h.052l.013.172h.064v.086h.04l.013.016.012.069h.048l.016.086.05-.011.014.097.127-.022.002.108h.128v.086h.129v.086h.05l.015.084h.064v.086h.129v.086l.189.012.004.074h.053l.011.086h.064v.171l.038-.012.027.012v.344h.064v.6h.092l.034.012.003.074h.064v.086h.193v.086h.129v.515l.045-.013.01.02.01.163h.064v.173l.069-.004-.005.09.036-.009.019.023.009.071h.052l.012.085.052.012.013.16h.062l.018.08.049.006v.171h.128v.086h.057l.007.172h.129v.172h.064v.085h.163l.028.013.003.073.11-.021.015.024.003.083h.049l.015.086h.132l.012.165.05.006v.172h.063v.086h.13v.066l.064.02v.086h.128v.085l.067-.005-.002.09h.129v.087h.128v.086h.058l.019.088.116-.002v.17l.078-.004-.013.09.031-.01.03.02.003.076h.12l.009.086.076-.015-.012.101h.065v.085h.121l.007.086.132-.005-.003.091h.12l.009.086h.057l.007.171.053.014.011.072.133-.019-.004.105.075-.005-.011.177.049-.013.017.007-.002.092.135-.002-.006.173.04-.003.027-.002-.003.09h.13v.087l.073-.017-.01.103h.105l.014.015.01.07h.054l.01.086h.099l.022.017.008.069.068-.01-.004.096.13-.002-.001.088h.064v.086l.132-.005-.003.09.075-.018-.01.103.121.012.007.074h.123l.006.086h.193v.086h.129v.085h.064v.086l.133-.008-.004.094h.064v.086l.138-.023-.01.11.056.012.009.073h.115l.014.085h.064v.086l.131-.005-.003.091h.129v.086h.194v.086h.193v.085h.128v.086h.16l.031.01.002.076h.257v.172l.323-.005v.09h.121l.006.086h.065v.086h.257v.084l.065.002v.086h.128v.081l.064.005v.084h.089l.037.017.003.07.323-.009v.094h.115l.013.087h.06l.004.086h.054l.01.086h.129v.084h.257v.086h.223l.031.014.004.072.193-.002v.088l.593-.013-.014.1h.322v.17h.321v.086h.204l.051.015.003.071h.13l.185-.008.006.094h.193v.086h.233l.034.008-.01.077h.258v.086h.193v.086l.139-.004-.01.09h.155l.03.019.008.067h.257l.006-.066.187-.02.002-.079.127-.007v-.086h.386v.079l.025.002.04.005v.172h.063v.257h.065v.172l.192.015v.07l.26-.018-.002.104h.13v-.097h.063v.097h.129l-.007-.097.2.012v-.086l.32.014.002.072.136-.018-.008.103.132-.006-.003.092h.064v.086h-.064v.086l-.07-.006.006.092h-.065v.256l.043-.019.024.008-.002.097h.306l.015.086h.129v.086h.433l.017.005v.08h.129v-.085h.193l.003-.068.061-.021v-.083h.258l.003.027-.003.06.215-.002.235-.001v-.084h.065v.172h.05l.014.171h.064v.172h.065v.343h.063v.086h-.128v.086h-.128v.086h-.065v.085l-.065-.005v.263l.072-.004-.003.04-.004.05h.065v.085h.064l.008.076.056.01v.086h.065v.086l.044-.013.017.017.002.082.07-.01-.005.096h.064v.084l.133-.008-.004.094h.065v.086l.125-.008.003.094h.103l.02.02.006.066h.184l.009.085h.193v.086h.291l.039.007-.009.08.178-.004.016.09h.14l-.01.154h.378l.006.102h1.544l.005-.101.188.016v-.086h.129l.006-.065.123-.02v-.087h.129l.004-.079.124-.007v-.086h.064v.087h.193l.015-.163.114-.009v-.086l.127.018.002.068h.257l.01-.068.055-.018v-.086l.054-.015.01-.07.051-.011.013-.027v-.049h.064v-.084h.065v-.086h.128l.005-.073.02-.013h.04v-.172l.064-.02v-.151l.059-.002.005-.024v-.232l.057-.004.008-.03v-.309h-.065l.016-.068-.08-.018v-.343h.064v-.086l.043-.007.022-.023v-.056h.064v-.086h.064v-.085h.129v-.086h.065v-.086l.054-.013.01-.073.052-.015.012-.016v-.055h.065l-.013-.611-.052.012-.008-.172h-.056v-.515h.064v-.429l-.018-.008-.046.008v-.515h-.064l-.015-.172h-.05l.002-.087-.13.002v-.085h-.129v-.087h.064v-.086h.064v-.256l.058-.004.007-.088v-.252h.055v-.357l-.055.014-.004-.172h-.06v-.858h-.065v-.086h-.064l.006-.177-.135.006v-.086h-.064l-.01-.086h-.055l-.006-.07-.02-.016h-.102l-.009-.084h-.184v-.086h-.064v-.086h-.644v.086h-.064v-.172h-.065v.082h-.064v.09h-.064v-.09h-.017l-.434.004v-.086h-.064v.086l-.195-.004.002.09h-.128v.042l-.009.04-.056.004v.428h-.064v.085l-.113-.01-.016.096h-.193v.086h-.321v-.086h-.129l.01-.096-.14.01-.002-.067-.018-.018h-.044v-.086h-.128l.006-.084-.07-.002.008-.095-.073.01v-.343l.05-.004.015-.046v-.122h.064v-.086h.643v-.085h.064l-.008-.094.073.008v-.086h.129l-.002-.093h.04l.156-.018-.001.11h.12l.008.087.127-.008.002.094h.129v.085h.115l.013.086.646-.02.013-.06.049-.006v-.257h-.064v-.086h-.193v.086h-.258v-.086h-.257v-.082l-.129-.004v-.085h-.128l-.009-.099-.056.013v-.086h.057l.002-.115-.003-.057h-.056v-.429l.056-.005.009-.055.015-.106.113-.005v-.086l.145-.002-.024-.256h-.056v-.343l.053-.014.011-.328h-.064v-.086h-.065v-.43l.05.004.002-.027.013-.301v-.448h.064l-.011-.099-.053.014-.006-.172h-.059l.008-.43-.072.002v-.258h-.064l-.009-.098-.056.013-.014-.258h-.05l.014-.096-.078.01v-.085h-.064l-.001-.433v-.082h-.064l-.007-.172h-.057v-.086h-.064l.003-.281-.068.024v-.344h-.064l.004-.06.003-.03-.072.005.007-.176-.071.004.002-.173-.067.001-.013-.175-.05.005-.016-.251-.049-.007-.014-.257h-.05v-.086h-.065v-.172h-.064l.007-.1-.072.015-.01-.09-.054.004-.003-.172h-.061v-.081l-.036-.005h-.35l-.004-.047-.009-.124h-.052v-.086h-.064l.012-.092-.076.006v-.172h.064v-.085l.052-.014.012-.072h.065v-.086h.193l.015-.086h.05v-.086h.064l-.001-.028-.005-.143h-.059v-.085l.065-.016v-.499h-.065l.008-.069.002-.024-.074.007v-.257h-.064l-.006-.086h-.059v-.944h.065l.009-.163-.074-.009v-.685h-.064v-.172l-.018-.002-.047.002-.007-.601h-.057l.002-.172-.066.001-.012-.172h-.052v-.087l-.065.001v-.086h-.129v-.084h-.128v.083l-.117.002-.012.084h-.193l-.008-.086h-.056v-.343h.063l.001-.05v-.207h.193l.005-.07.035-.016h.024l-.01-.612-.054.012v-.171h.129v-.086h.064v-1.03l.06-.001.005-.025v-.317h.079v-.258h-.08v-.086l.08-.017-.015-.24h.06l.004-.024v-.147l.057-.005.002-.166h-.059v-.086l.065-.011v-.247l.055.002.01-.035v-.224l.054-.004.009-.039v-.386l.06-.001.004-.046v-.382h.065v-.2l.012-.141.052-.003v-.085h-.064v-.086h.064v-.086l.031-.016.034.016v-.172l.052-.01.012-.023v-.223l.064-.006v-.08h.065v-.173l.07-.008v-.433l-.07.013-.015-.692-.05.006-.012-.773h-.052v-.084l.043-.016.021.016v-.429l.05-.005.015-.081h.128v-.172l.064-.006v-.08h.065v-.257h.064l-.01-.098-.054.012-.013-.161-.052-.011.004-.172-.068.001v-.086h-.064l.005-.096-.07.01-.003-.086h-.06l-.007-.09-.122.004-.013-.07-.052-.015-.015-.086h-.05l-.007-.086h-.057v-.172h-.128l.005-.178-.07.007.012-.099-.076.013.002-.09-.13.004.008-.099-.073.013-.012-.182-.052.012-.01-.344h-.055v-.258h-.064l-.003-.089-.061.004-.002-.343h-.062l.01-.431-.075.002v-.086l.063-.013.002-.073h.514v.073h.05l.01.018.005.167h.064v.085h.064l.012-.27.052.013v-.086h.065v-.086h-.065l-.012-.086h-.052l.012-.075-.076-.01.012-.099-.076.013v-.086h-.065v-.176h-.261l.004.176-.075-.007.01.093h-.064v-.094l-.128-.005v-.243l.053-.004.011-.048v-.034h.064v-.087h.064v-.171l.047-.01.018.01v-.084h.064v-.086h.064l-.005-.084.07-.002-.006-.093.07.007-.007-.1.072.014v-.171h.128v-.086h.064v-.086h-.128v-.086h-.064l.008-.098-.073.012.005-.092-.07.006-.004-.073-.015-.012h-.109l-.001-.086h-.128l-.002-.067-.085-.019h-.105v-.023l-.002-.149h-.191l-.001-.078-.034-.007h-.03l-.006-.172h-.058l-.002-.172h-.063l-.004-.256h-.06v-.259l-.031-.02-.033.02-.01-.265-.054.009-.007-.172h-.058v-.343h.065v-.515h-.065v-.171h-.064l-.016-.086h-.049v-.429h.065v-.772h-.065v-.257h-.064l-.014-.086h-.05v-.086h-.129l-.014-.257h-.05l-.01-.36-.054.016-.014-.25-.051-.007v-.172h-.064v-.085h-.065l-.014-.165-.05-.007v-.088l-.065.002v-.086l-.055-.017-.008-.069h-.129l-.007-.05-.004-.023-.054-.012-.005-.08-.012-.018-.047.012v-.086l-.066.017.002-.189h-.065l-.011-.256h-.053v-.258h-.064l.008-.09-.073.005.013-.18-.141.008.002-.096-.131.01-.003-.075-.021-.011h-.04v-.084h-.128l-.006-.072-.027-.015h-.161l.002-.092-.13.006v-.257h-.065v-.086h-.193l-.01-.072-.054-.014v-.515l-.059-.002-.006-.03v-.054h-.129l-.004-.342h-.06v-.086h.052v-.172h-.052v-.257l.052-.004.013-.11v-.229h-.13v-.258h-.063l-.016-.17h-.048v-.173h.128v-.086h.129v.086h.475l.038.01.001.076.194-.013v.1h.104l.016.014.008.07.07.005-.005.081h.063v.172h.041l.023.007v.079l.141-.006-.011.177h.058l.016.07.054.016v.172h.065v.086l.077-.013-.013.098.056-.016.008.188h.065v.086h-.065v.086l.075-.007-.01.091.04-.01.016.021.008.075h.049l.015.086h.05l.015.172h-.065v.257h.053l.012.086h.257v-.078l.064-.008v.086h.837v.086h.093l.03.016.005.07.195-.012-.001.097h.064v.086l.117.018.012.068.14-.014-.012-.072h.064v-.086h-.064l-.01-.17h-.054l.004-.093-.068.006.008-.096-.073.01.01-.099-.074.013.01-.098-.074.013v-.43l.036-.01.028.01-.013-.17h-.051v-.086l.058-.001.006-.055v-.03h.193v.343h.064v.085l.073-.003-.009.432h.065v.086h.064v.258h.064v.171h.063l.002.258h.056l.008.17h.129v.259l.076.007-.027.159-.049.005v.172h.128v.172h.13v.17h.073l-.01.087h.127l.002.342h.05l.015.258.07-.008-.006.18.05.01.014.039v.122l.055.013.01.073h-.065v.086l-.058.024-.006.062h-.064v-.086h-.065l-.006-.09-.122.004v-.172h-.065v-.085h-.129v.085h-.064v.172h-.257v.086l-.055.018-.01.068h-.064v.085h-.064v.158l-.129.014v.172l-.072-.01.008.096-.066-.012.002.097h-.065l-.01.074-.054.012v.343h-.064v.514h-.065v.344h.065v.171l-.035-.01-.03.01v.258h.064v.429l.037-.018.028.018v.257h.065l-.009.159-.056.013v.257h-.064v.086h.064v.086l.066-.002-.002.088h.049l.016.086h.049l.015.17.076.007-.012.166.072-.005-.002.027-.006.063h.193v.086l.038-.016.027.017v.256h.064v.257h.053l.016.15.124.022v.087h.129v.171h.06l.004.17h.06l.002.04.003.047h.193v.086l.099-.002.029.002v.171l.055-.004.01.09h.064v.086h.163l.018.013.012.159h.116l.01.218.002.038h.126l.003.087h.258v-.087h.193v.087h.06l.004.256h.064v.086h.065v.086l.133-.007-.005.093h.105l.016.016.008.07h.17l.03.01-.007.075h.707v-.085h.065v-.086l.041-.017.024.017.005-.262h.123v-.166h.193v.086h.113l.016.256h.064v.086h.065v.278l.006.063.122.002v.172h.053l.01.146.001.025h.072l.053.018.004.068h.053l.011.258.059-.01.006.18h.064v.259l.043-.006.013.018.008.159h.065v.172h.061l.003.172h.063l.002.084h.125l.003.172h.062l.003.086h.063v.173h.065v.256h-.193l-.012-.086h-.052v-.086h-.064l-.005-.085h-.124l-.016-.093-.049.007-.012-.172h-.052v-.172h-.064v-.084h-.064l.015-.276h-.141l-.003-.047v-.364l-.025-.004-.104.004.009-.102-.073.016v-.086l-.2-.02.007-.151-.053-.006-.011-.036v-.044l-.13.004v-.09h-.064v-.086h-.128v.086h-.064v.086h.128v.086h.064v.17l.039.002h.026v.257h-.065v.172l-.046-.017-.082.013v.089h-.258l.002-.046.005-.188.008-.301h-.141l-.226.008-.291.012v.086h-.193v.086h-.129v.053l-.012.021-.052.012v.079l-.129.007v.17h.13v.087h.063v.086h.065v.342l-.018-.012-.047.012.005.251-.069.007v.238l-.064.02v.131l.002.04h-.067v.257h.085l.04.018.004.068.131-.01-.002.096h.128v.086l-.048-.005-.016.091h.064v.17h-.386v.087l-.24-.012-.017.01v.088h-.193v.086h-.258v.085h-.063v.772h-.065v.515h-.064v.343l.076-.003-.003.025-.009.064h.065v.257h.05v.172h-.05v.172h.05v.939l-.05.005v.171h-.065v.06l-.008.02-.056.005v.143l-.01.024-.055.005v.171h-.064v.344h.064v.085h-.064v.086l-.018-.007-.047.007v.086h-.042l-.013.014-.009.072h-.064v.515h-.064v.429h-.065v.342h.053l.005.08.007.093h-.065v.086h-.064v1.114h.064v.258l.05-.005v.434h-.05v.17h.05l.01.508.005.18h.064v.428h.064v.172h-.064v.085h.048v.172h-.048v.172l.066-.001-.002.258h.05l.001.023.013.406h.058l.007.258h.05l.014.342h.065v.086h.058l.006.171h.051l.014.344.05-.005.013.262.03-.016.035.016v.172h.049l.015.086.07-.01-.005.095h.064v.086h-.064v.429l.049.003.01.084-.06-.001v.258h.065v.084h.065v.214l.003.03.125.014v.086h.057l.007.257h.066l-.001.343h.064v.515l.067-.001-.003.173h.064v.257h.061l.004.258.073-.005-.009.176h.055l.01.258h.052l.012.428h.129v.172l.068-.008-.004.093.064.001v.085l.072-.005-.007.177.063-.014.001.529h.065v.086h.064v.343l.053-.015.01.187.061-.018.004.189h.065v.086h.055l.009.428h.064v.087h.065v.085h.064v.086h.064v.171l.034-.02.03.02v.17l.013.074.052.014v.085l.066-.004-.002.09h.065v.086h-.065v.172h.05l.015.17.052.01.012.163h.05l.014.257.058-.006.007.092h.048l.016.086h.065v.086h-.065v.257h.129v.171l.054-.014.01.357.13-.003-.001.09h.064v.085l.077-.01-.013.096h.058l.007.171h.064v.086h.064v.086h.065v.086l.138-.017-.01.103h.065v-.074l.257-.012v.086l.397-.017-.01.102.189.01.003.076h.064v.086h-.064v.258h-.064v.085l-.189.005-.004.08h-.193v.43l.056-.02.008.192.035-.004.03.004v.086h.064v.086h.064v.084h.055l.01.086h.064v.343l.037-.01.027.01v.258h.053l.011.172.05-.007.013.303.002.047h.257v.086h.129v.085h.064v.172l.044-.014.02.014v.086h-.064v.086h-.065v.343h.086l.039.017.005.069h.05l.014.257.057-.005.007.176h.064v.172h.063l.002.085h.048l.016.086.067-.003-.002.09h.064v.085l.138-.013-.01.27h.055l.01.429h.051l.013.172.036-.004.029.004v.172h.064v.171l.07-.006-.006.092h.05l.014.172h.059l.006.17h.058l.006.173h.058l.007.086h.064v.17h.065v.172l.036-.019.028.02v.171l.042-.002.014.015.008.073h.056l.008.085h.052l.013.086.033-.014.025.025.006.075.066.013-.001.073.067-.006-.003.092h.129v.085h.192l.01.068.018.018h.037v.172h.064v.086l.14-.022-.011.193.053-.005.011.09h.113l.016.087.072-.014-.008.1h.12l.009.086h.064v.085l.197-.014-.004.186h.064v.086h.065v.163l.193.009v.08l.064.004v.086h.054l.01.086h.066v.086l.07-.009-.007.095h.064v.085h.174l.015.012.005.074h.24l.03.007-.013.08h.168l.015.016.01.07h.052l.012.085.089-.01.04-.004v-.158h.065v-.192l.192.02v-.085h.13l.003-.067.318-.019.007-.094.25.008v-.086h.128v-.086l.066.002v-.086h.192v-.086h.064l.01-.071.028-.008.015-.022.012-.016v-.055h.193v-.086h.257v-.086h.258v.245l-.065.013v.6h.128v.162l.258.01v.171h-.064v.087h-.194l-.004.065-.06.02v.085h-.193v.086l-.07-.012.006.098h-.129v.086l-.052.014-.012.072-.033-.012-.031.01v.087h-.364l-.014.014-.008.072h-.128l-.01.068-.055.018v.086l-.07-.017.005.103-.187-.007-.006.092h-.321l.002-.092-.195.007v-.086h-.257v-.086h-.323v.086h-.064l-.004-.072-.025-.014h-.164v-.086h-.193v.086h-.257l-.015.081-.05.005v.17l-.064.002-.014.08-.05.005v.312l-.004.03-.06.002v.42l-.014.094h-.05v.43l.128.003.007.269.03-.009.027-.007v.086h-.064v.086h-.129v-.047l.002-.297-.46-.005-.057.005v.086h-.064v.343h-.064v.152l-.064.02v.172l-.267-.002.01.173h-.065l.006.035.009.053-.08-.002v.258l.056-.01v.263l-.056.004v.342h-.101l-.026.012-.001.074h-.257v-.086h-.065v.086l-.066-.004.002.09h-.193v.086h-.064v.086l-.077-.011.012.096-.31.017-.012.07-.195-.02.002.105h-.064v-.099h-.126l-.003.357h-.064v.171h-.064v.151l-.065.021v.257h-.064v.086h-.064v.086h-.065v.257h-.064v.086h-.128v.08l-.065.006v.165l-.193.007v.514l.047-.02.006.245-.001.035-.052-.003v.257h.064v.086h.064v.086l-.054.002-.01.084v.172h-.064v.085h-.064v-.085h-.13l.015.035-.014.05-.311.007-.01.079h-.129v.086h-.064v.172h-.258v.085h-.257v.086l-.583-.018.003.104h-.192v.086l-.323-.005v.09h-.064v-.087h-.116l-.012.088-.07-.01.005.096h-.128v.085h-.065v.085h-.064v.259h.052l.012.084h-.128v.07l-.065.016v.086h-.128v.086l-.017-.02-.05.01.003.096h-.515v.086l-.456-.004.005.09h-.772v.085h-.162l-.018.013-.013.073h-.284l-.467-.016-.022.01.001.092h-.322v.086h-.194l.002.085-.37-.02-.02-.001.003.107h-.386v.086h-.129l.003.09-.066-.004v.086h-.193v.086h-.065v.085h-.708v-.085h-.064v-.086h-.129v.086h-.193v.07l-.064.015v.086h-.129v-.086h-.386v.086h-.129l-.01-.073-.118-.013v-.085h-.193v-.086h-.193v.086l-.506-.025-.01.11h-.192v.086l-.123-.007-.006.093h-.193l-.007.068-.037.012-.02.006v.086h-.129v.085h-.128l.002-.096-.131.01-.002-.076-.017-.01h-.045v-.084h-.901v.088l-.04-.001-.024-.001v.086l-.132-.02.003.19h-.064v.087h-.193v.086h-.322v.086l-.074-.016.01.102h-.064v.084h-.064v.086h-.13v.086l-.066.02.002.066h-.065v.086h-.128l-.002-.103-.03.007-.032.01v-.086h-.129v-.086h-.258v-.086h-.386v.086h-.128v-.083l-.129-.003v.086h-.257v.086h-.072l-.044.013-.013.073h-.064v.069l-.064.017v.068l-.065.017v.086h-.064v.172h-.064v.086h-.194v.086h-.064l-.004-.102-.035.016h-.154v.076l-.043.007-.021.088h-.064v.086l-.054.015-.024.062-.051.01v.172h-.065v.514h-.064v.084h-.052l-.015.154-.255.018v.086h-.064v.141l-.01.018-.055.012v.085h-.11l-.018.002v.084h-.257l-.005-.086h-.124v-.084h-.193v.085h-.064v.087h-.193l-.009-.087h-.12v-.085h-.064v.084h-.085l-.04.01-.004.077h-.193v.08l-.064.005v.087h-.065v.086h-.643v-.087h-.064l-.013-.086h-.245l.003-.102h-.254l-.006.103h-.258v.428h-.064v.085h-.064v-.086h-.193l-.009-.097-.056.011v.086h-.128v.086h-.193v.086h-.129v.086h-.064v.086h-.129v.078l-.064.008v.087l-.382.009-.004.076h-.129v.17l-.022-.001-.042.002v.086l-.058.012-.007.074h-.064v.086l-.197-.015.004.1h-.193v.172h-.064v.086h.064v.258h-.065v.171h-.063v.086h-.129v.086l-.056.011-.009.075h-.047l-.016.004-.001.08h-.386v.086l-.055.014-.01.072h-.048l-.016.086-.071-.017.007.103-.118.014-.011.072-.053.014-.01.071h-.065v.086h-.065v.086h-.257v.086h-.13v.086l-.314-.01-.007.095h-.128v-.094h-.035l-.03.01v-.086h-.064v-.087l-.067.01.003-.096h-.386l-.007-.072-.014-.014h-.043v-.085l-.056-.014-.009-.039v-.119h-.064l.016-.087-.08.001-.004.188-.125-.016v-.086h-.193v.086h-.129l-.006-.07-.024-.016h-.163v-.087h-.129v.087h-.128l.003-.106-.196.02-.01-.07-.014-.016h-.04v-.086h-.065v-.17h-.16l-.095.018-.002.068h-.065v.084h-.45l-.003-.074-.19-.01v.084h-1.673v-.17h-.064v-.086h-.065v-.086h-.128v-.257h-.064v-.172h-.065v-.086h-.129v-.171h-.064v-.086h-.064v-.086h-.258v-.086h-.321v-.086h-.129v.086h-.129v-.086h-.064v.086h-.322v-.086h-.128v.086h-.193v.172h-.129v.17h-.064v.259h-.065v.086h-.064v.17h-.064v.087h-.065v-.086h-.064v-.085h-.065l.001-.086h-.322v.086h-.193v-.086h-.065v.086h-.321v.085h-.193v.172h-.258v-.086h-.385v.086h-.193v-.086h-.065v-.171h-.386v-.086h-.321v.086h-.194v.067l-.064.018v.086h-.064v.086h-.065v.172h-.064v.084h-.064v.172h-.064v.086h-.065v.257h-.064v.172h-.064v.086h-.065v.086h-.193v-.086h-.05l-.014.086h-.064v.085l-.063.019-.002.067h-.064l.003-.098-.068.012-.009-.073-.055-.012-.003-.066-.034-.02h-.092v-.085h-.193v-.087h-.128l-.014-.159-.05-.012.007-.203.01-.244-.147.017v-.084h-.063v-.086l-.065.02v-.106h-.064v.107l-.028-.01-.034.009-.003.066h-.514v.084l-.03-.017-.035.017v.172h.034l.027.012.004.074.08.003-.016.683h-.064l.002.086h-.067v.344l.077-.001-.003.022.004.061.051.003v.344h-.064v.515h-.03l-.033.011-.002.074-.191-.008-.002.093h-.128v.087l-.134-.016.005.101h-.129v-.085h-.129l-.009.072-.055.014v.087l-.056.007-.008.077h-.193v-.084h-.258v.084l-.134-.002.006.088h-.205l-.047.022-.006.064h-.257v.086h-.129v.086h-.257v.085l-.128.001v.171h-.645l.001.086h-.385v.085l-.04.001-.021.012-.004.074h-.129v.085h-.257v.086h-.168l-.023.01-.002.076h-.194v.086l-.121.021-.007.065-.319.01-.003.075-.322-.018v.104h-.128v.086l-.197-.002.004.088h-.322v.085h-.257v.087l-.054.014-.01.07-.053.015-.012.072-.053.014-.011.072-.054.014-.01.071-.054.015-.01.072h-.066v.082h-.063v.086l-.032.009-.022.005-.011.072-.053.014-.004.025-.007.047h-.039l-.016.017-.01.07-.053-.005-.01.09h-.104l-.019.016-.006.07-.186-.007-.008.092h-.257l.01-.092-.203.006-.009-.062.01-.023h-.066v.086l-.24-.006-.016.092h-.13v.086h-.064v-.172h-.064v.07h-.377l-.009.102h-.132v.331l-.126.012v.086h-.064v.086h-.064v.086h-.129v.086h-.064v.17h-.065l.003.266-.196-.007v.085h-.128v.053l-.006.031-.058.002v.258h-.13l.009-.102-.137.016-.005-.091-.638.005-.004-.07-.041-.016h-.212l-.01-.089-.055-.01v-.072h-.707v-.086h-.064v-.173h-.13l.01-.092-.203.007v-.085h-.256l.002-.19-.26.018v-.086h-.129v.086h-.064v-.086h-.064v-.09l-.016-.008-.049.012-.008-.257h-.12v-.172h-.194v.086h-.064v.086h-.322v-.086h-.176l-.016.086h-.13l.005-.075-.026-.01h-.236l-.007-.103h-.057v.102h-.515l-.008-.102h-.056v.102h-.129v-.102h-.055l-.01.102h-.063v-.102h-.13v-.07H528v.172l-.822.01-.014.076h-.183l-.01.086h-.129v-.086h-.064v.086h-.064v-.086h-.322v.086l-.194-.002.001.087h-.129v.086l-.136-.012.008.098h-.065v-.086h-.128l-.002-.079-.024-.008h-.038v.087h-.13l.012-.087-.333.001v-.085h-.901v-.082l-.024-.004h-.04v.086h-.129l.013-.086h-.141l-.013-.086h-.116l.002-.09-.014-.012-.053.016v-.086l-.131-.006.003-.165-.053-.005-.023-.08h-.053l-.016-.183-.048.01v-.342h.064v-.087h.065l-.004-.088.068.002v-.084l-.032-.014-.032.014-.003-.172h-.062v-.172h-.128l-.001-.104-.064.018.007-.094-.071.009.002-.09-.067.004-.006-.074-.058-.012-.012-.172h-.052l.007-.097-.071.012v-.086h-.065l-.005-.086h-.059v-.087l-.065.001-.016-.086h-.112l-.014-.085h-.05l-.006-.086h-.058l-.007-.086h-.058l-.005-.072-.026-.014h-.098v-.086h-.064v-.256l-.024-.02-.04.02-.002-.266.194.007v.086h.066v.087l.071-.015-.008.1.067-.002-.003.089h.065v.084h.128v.086h.049l.016.086h.064v.086l.056.013.009.073h.05l.014.086h.128l.01.07.055.015v.086h.128v.086l.141-.01v.188l.052-.006.01.067.055.018v.086h.126l.002.086.264-.006-.006.092h.257v-.092h.018l.047.006v-.686h-.065l-.001-.172h-.063v-.086h.04l.153.013v.073h.129v.086h.064v.086h.049l.015.171h.056l.008.172h.065v.086l.14.006-.011.079h.257l.008-.079.12-.006.006-.07.03-.016h.158l.01-.096.183.01v-.086h.45v-.086h.128v-.343h-.256v.086l-.137-.015.008.101h-.065v-.086h-.064l.008-.103-.072.017-.009-.086h-.055v-.085l-.033-.003-.032.002-.013-.07-.051-.014-.014-.087h-.05l-.008-.086h-.057l-.016-.086h-.048v-.084h-.193l-.004-.085h-.125l-.006-.073-.016-.013h-.107v-.086h-.193v.086h-.128v.086l-.113.002-.016.083-.196-.008.003.093h-.129l-.015-.093-.049.007-.008-.17h-.056v-.086h-.065v-.086h-.064v-.172l.064-.018v-.067h.065v-.086h.064v-.086h.257v-.086h.065v-.086h-.064l.01-.09-.14.005.003-.095-.26.009v-.086h-.303l-.018.005v.081l-.265-.005.007.091-.137-.01.009.095-.073-.01.008.096h-.064l-.001-.08-.055-.006h-.458v-.086h-.58v.085h-.064l-.002-.07-.077-.015h-.179v-.258l-.056-.003-.019-.083h-.053v-.086h-.129v-.171h-.065v-.086h-.257v-.026l-.002-.146h-.255v-.099l-.129.014-.001-.076-.027-.01h-.165l-.007-.058-.003-.028h-.054l.004-.174-.068.002v-.428l.058-.002.006-.05v-.205h.064l-.015-.175-.049-.008v-.075h-.064v.085h-.064v-.089l-.065.004v-.087h-.129v-.083h-.064l-.011-.074-.054-.012.003-.072-.038-.014h-.157l-.005-.059-.024-.027h-.1v-.086h-.129v-.17l.064-.02v-.05l.016-.1.113-.003v-.086h.064v-.171h.128v-.172h.065v-.086h.065v-.171l.053-.017.011-.038v-.118h.129v-.342h.065v-.086h-.065v-.164l-.017-.008h-.112v-.086h-.45l-.001-.095h-.385v.095h-.515v-.085h-.064l.003-.089-.067.003v-.086l.067.005-.003-.091.12-.018.009-.068.067.007-.003-.093h.257v-.085h.515v.085l.211-.013-.018.099h.515l.012-.1.052.014v-.084l.064-.022v-.065h.065l.003-.52h.141l-.016-.338.054-.002.01-.094v-.076h-.128l-.005-.172h-.06v-.084h-.064l.011-.18-.075.008-.013-.086h-.051l-.002-.031-.011-.224-.003-.022-.048.02-.002-.086h-.063v-.086h-.451l-.005-.087-.025-.003-.034-.003v.093h-.064v-.093h-.114l-.015.093h-.257v.152l-.064.02v.171l-.031-.003h-.034v.089h-.386l-.004-.089-.51.003v-.086h-.194v-.085h-.126l-.075-.02.008.19h-.064v-.17h-.064l-.007-.086h-.186v-.086h-.322l.012-.093h-.211l.006-.336H517l.012-.177-.077.005v-.086h-.064l-.002-.257h-.063v-.086h-.321l.001.087h-.066v.171h-.064v.171h.064v.344h.063l.002.085h.065v.172h-.065v.086l.205.01-.012.076h.579v.084h.322v.087l.2-.003-.007.26h.064v.087l.07-.003-.006.173h.065v.086h.05l.014.172.073-.007-.009.092h.05l.026.08.053.006v.344h.062l.003.085h-.129v.086h-.064v.125l-.014.039-.05.008v.086h-.258l.006.072-.07.013v.086h-.129v.515h.043l.021.086h.065v.085h.095l.029.016.004.07.126-.004.003.09h.188l.005.085.076-.014-.012.1.065-.016v.189l.055.014.009.072h.054l.01.084h.064v.086h.065v.172l-.143.005.014.081h-.064l.002-.098-.066.012v-.086h-.13l.003.091-.067-.005v.086h-.063v.085h-.065v.086l-.116-.007-.013.093h-.103l-.025.02v.066h-.065v.086h-.064v.087h-.065v.084l-.06-.002-.004.26h-.04l-.015-.017-.01-.07h-.192l.002-.087-.066.002v-.086h-.065l-.011-.157-.053-.014v-.086l-.13-.003v-.169l-.038-.013-.026-.008v-.065h-.192l-.007-.05-.002-.023-.056-.012-.016-.086h-.048l-.013-.162-.008-.022-.043.012-.01-.072-.055-.014-.005-.055-.023-.03h-.1l-.004-.075-.06-.01v-.189h-.45v.103h-.258v-.103h-.038l-.027.01v-.166h-.064v.258l-.056.002-.009.074v.267h-.063l-.001.146-.006.031-.122-.005v.086h-.065v-.082l-.064-.002-.064-.002v.086h-.386v-.081h-.19v-.188l-.196.011v-.086l-.256.018-.002-.188h-.129v.086h-.257v-.087h-.45v.087h.05l.014.78-.45-.009v.086h-.129v.08l-.129.006v.07l-.032.008-.032.007v.086h-.034l-.022.018-.016.064-.057.004v.343h-.064v.172l.042-.01.007.02.015.162h.065v.685h-.065v.086h-.064v.429h-.065v.172h-.064v.085h-.193v.086l-.07-.008.006.094h-.129v.086h-.321v.086l-.136-.017.007.103h-.193v.085h-.129v.086h-.064v-.086h-.064l.005-.103-.07.018-.007-.072-.017-.014h-.105l-.01-.086h-.182v-.086h-.065v.086h-.128v.086h-.194v.07l-.064.016v.085h-.257l-.006-.072-.016-.013h-.043v-.086h-.128v-.086h-.129v-.086h-.064v-.086h-.128l-.017-.086h-.048v-.085l-.249-.01-.008-.162h.064v-.086h-.128l.002-.072-.023-.014h-.173l.012-.099-.14.014-.001-.07-.038-.016h-.154l-.005-.066-.05-.02h-.074v-.172h-.065l-.01-.17h-.054l-.011-.164-.053-.008v-.086h-.257l.007-.109-.072.023v.086h-.064l-.013-.086h-.052v-.085h-.128v-.086h-.064v.086l-.44.006-.011.079h-.257v-.085h-.773v.085h-.128v.086h-.322v-.086h-.579v-.085l-.207.006.014.079h-.064l.005-.103-.134.018v-.086h-.257v-.086l.069-.01v-.162h-.133v.086h-.065v-.086h-.193l-.001-.027-.004-.144h-.188l.004-.101-.454.015v-.078l-.065-.008v.086h-.064v-.09l-.257.004-.01-.07-.016-.016h-.039l-.011-.07-.053-.016v-.085h-.193v-.086h-.643l-.004.037.004.05h-.193v.076l-.065.008v.243l-.064.015v.21l-.012.04-.052.007.006.092-.07-.006v.172h-.026l-.039.003v.083h-.129l.002-.07-.066-.016-.003-.097h-.898v.097h-.129v-.097h-.19l-.002.097h-.387l.003-.102-.195.016.002-.067-.049-.02h-.147v-.086h-.128l.004-.092-.069.007-.005-.073-.016-.012h-.107l-.013-.086h-.052l.006-.174-.135.002v-.343h-.065l-.01-.074-.054-.012-.009-.093-.055-.012v-.067h-.708l.002.09-.066-.004v.07l-.065.016v.086h-.064v.086l-.02-.02-.045.02v.086l-.054.015-.01.242h-.064v.086l-.66-.015-.048.015v.17h-.064v.173h-.064v.172l-.067-.003-.012.02.014.069h-.064v-.086h-.065l-.004.066-.06.02v.17h-.066v.024l-.002.063h-.06v.172h.055l.007.065-.062.02v.085h-.064v.086h-.065v.086h-.129l.014-.087-.143.001v-.086h-.45v.086l-.054.014-.01.072-.055.013-.01.073-.183.016-.01.07-.174-.003h-.02l.001.088h-.166l-.027.014v.072l-.132-.013.004.1h-.129l.003.105h-.196v.066h-.065v-.074l-.107-.012-.016.012-.005.074h-.129v.085h-.064v.172l.044-.021.02.021v.172l-.02-.005-.044.005v.124l-.013.039-.051.008v.128l-.014.034-.05.01v.142l-.01.023-.055.007.011.093-.075-.008v.172h-.064v.086h-.065v.086h-.064v.086h-.129v.17l-.053.011-.012.021v.054h-.027l-.036.009v.077h-.516v.086h-.513l-.072.007.007.25-.26.014.002.072h-.064v-.086h-.257v-.086h-.773l.002-.088-.323.002v-.084h-.322v.084l-.189-.002-.004.088h-.129v.086h-.064v.071h-.198l.005.101-.13-.002.002.087-.065.001v.085l-.055.01-.003.022-.006.054-.057.013-.007.073-.052-.01-.028.188-.05-.006-.008.07-.056.015v.085h-.064v.087h-.128v-.086h-.065v.172h-.129v.17h-.023l-.041.002v.085h-.129v.086l-.184-.002-.009.088h-.322v.086h-.064v.171h-.128l.014.334-.079.01v.084l.07.003-.005.341h-.065v.086l-.512.023-.002.062-.055.013-.01.073-.034-.016-.03.016v.515h-.065v.135l-.009.032-.055.005v.086h-.128v.085l-.18-.007-.013.093h-.13v.152l-.064.02.013.095-.077-.01v.172h-.064v.086h-.129v.07l-.064.016v.086h-.129v.514h-.065l-.006-.074-.056-.006-.066-.006v.171h.061l.003.086h.062l.002.086h.134l-.005.172.041-.008.024.008v.171h-.064v.258l-.129-.004v.09h-.065v.096l-.04-.011h-.024v.086h.257v.086h.06l.005.258h.064v.085l.252-.01.005.096h.12l.01.086h.064v-.086h.128v.085h.113l.016.087.13-.001-.002.171.052-.005.013.091h.322v.088l.066-.003-.002.089.053-.02.011.106h.065v-.096l.077.01h.437v.084l.056.013.008.073.053-.002.012.26.073-.015-.009.1h.065v.086h.064v-.086l.058.012.006.074.07.003-.006.082.067-.002-.002.088h.054l.01.172.048.001.014.337h.141l-.01.09h.058l.007.087h.064v.086h.128v.085h.056l.01.086h.054l.01.086h.128v.085h.046l.016.009.003.078.123-.013.005.099h.122l.007.085h.064v.086h.193v.086h.06l.005.086.052-.009.012.095h.064v.257h.064v.17h.13v.086h.062l.001.132v.04h-.257v.085l-.118.001-.01.085h-.13l-.004-.086h-.124v-.084h-.064v.084h-.13v.172h-.192v-.086h-.129v-.172l.058.002.002-.045.005-.128h-.065v.085h-.45l.003.041-.003.131h-.386v-.086h-.064v.086h-.194v.086l-.187-.014-.006.1-.135.018.007.067h-.064v-.085h-.065v-.086h-.257v-.258h.064l-.013-.085h-.051l-.016-.344h-.048l.005-.097-.134.011v-.084h-.064v-.086l-.127-.009v-.163h-.067l.01-.1-.074.014-.003-.065-.075-.02h-.308v-.083l-.063-.016h-.066v.099h-.128l-.004-.1h-.142l.017.1h-.064v-.1h-.258v.1h-.064v-.1h-.578v.1l-.122.015-.008.07h-.064v.086h-.129l-.011-.086h-.019l-.034-.002v.088h-.193v-.086h-.064l-.006-.049-.018-.036h-.105l.008-.1-.072.014-.002-.076-.035-.01h-.35v-.172l-.064-.016v-.07h-.064v-.084h-.193v-.086h-.064v.086h-.065v-.084l-.022-.002h-.042v.086h-.064v-.084l-.035-.002h-.03v.086l-.197-.018.005.103h-.129v.086l-.451-.004v.09h-.064v-.086h-.065v.086h-.257l.014-.086h-.4v-.086h-.129v-.171h-.257v-.086h-.064l-.008-.073-.057-.013v-.086h-.064l-.016-.085h-.048v-.086h-.45v.086h-.065v.085h-.064v.086l-.046-.005-.018.09-.053.015-.012.072h-.064v.086h-.065v.085h-.708v-.085h-.064v-.077l-.175-.01h-.017v.087h-.194l-.011-.086h-.118v-.086h-.192l-.005-.09-.51.004v-.086h-.258l.003-.094-.026.003-.04-.001v.092h-.58v-.085h-.193l-.01-.075-.247-.01.002-.099-.021-.008-.174.02.018-.095-.211.01-.001-.067-.025-.02h-.103l-.012-.093-.053.007v-.085h-.128v-.086l-.064-.003v-.083h-.258l-.007-.07-.013-.016h-.044v-.086h-.128v-.084h-.065v-.089l-.129.002-.002-.077-.062-.008.009-.345-.073.002-.001-.344h-.064l.005-.097-.134.012.005-.098-.024.004-.044.008v-.086h-.129l-.01-.086h-.055l-.007-.074-.057-.012v-.086h.064v-.171h-.064l-.004-.086h-.06l.01-.175-.075.003v-.085h-.064v-.086h.064v-.086h.129v-.085h.193l-.004-.094.069.007v-.086h.128v-.085h.322v-.514l.074.002-.01-.088.024-.016.04.016v-.172h.064v-.086h.065v-.085l.05-.01.014-.031v-.131l.065-.013v-.16h.064v-.084h.13v-.172h.063l-.016-.086h-.048l-.016-.086h-.049l-.007-.075-.057-.011v-.171h-.064l-.01-.086h-.055l-.007-.102-.057.016v-.085h-.257l.006-.099-.07.013-.004-.079-.061-.007.004-.193-.133.021-.008-.096-.056.01v-.086h-.065v-.084h-.063v-.087h-.065v-.084l-.055-.018-.01-.068h-.128l-.01-.072-.054-.029v-.07h-.193v-.086h-.129l-.01-.071-.013-.015h-.041l-.013-.086h-.052l-.003-.086h-.125l.002-.09-.02-.014-.047.018v-.086h-.193l-.014-.085h-.05v-.086h-.129v-.086h-.064l.006-.1-.134.014v-.085h-.065l.003-.094-.132.008v-.096l-.129.01.015-.086h-.208v-.087h-.257l-.006-.085h-.251l-.012-.07-.117-.016-.006-.087-.02-.005-.038-.009v.101h-.129l-.001-.101-.128.015v-.072l-.636-.014h-.264l-.008-.066-.028-.02h-.093v-.17h-.064l-.002-.087h-.062l.001-.094-.13.008v-.065l-.023-.02h-.106l.001-.094-.14.007h-.311v-.084h.064v-.172h-.128v.086h-.065v-.172h-.257l.003-.098-.169.01-.027.002v-.171h-.129v.085h-.065l.008-.058-.036-.027h-.164v-.086h-.065l-.008-.086h-.185l.006-.103-.135.017-.006-.073-.048-.013h-.267l-.01-.085h-.248v-.09h-.629l-.014.09h-.257v.085h-.065v.086l-.017-.017-.047.017v.343h-.064l.005.088-.07-.002v.17l-.322.002v-.086h.034l.03.008v-.351h.065v-.172h-.064v-.086h-.065v.172h-.064l-.011-.086h-.053l-.01-.07-.015-.015-.04.001v-.087h-.064v.07l-.257.015v-.085h.129v-.086l-.022-.005-.043.005v-.086h-.128l-.013-.05.012-.036h-.064v.084l-.064.002-.01.07-.015.016h-.04l-.002-.25-.02-.008h-.17l-.002-.079-.057-.028-.006-.064h-.257l-.005-.068-.035-.018-.086.021-.003.065-.195-.016.002.101h-.064l.004-.105-.132.02-.002-.067-.127-.019v.086h-.322l-.001-.07-.12-.016h-.33v.086l-.136-.01.008.095h-.129l.008.15-.33.022v-.086h-.128l.005.099-.07-.013v.086h-.064l.007.326-.2.017v-.073l-.235-.013h-.022v-.085h-.065v-.086l.055-.005.025-.072-.042-.009h-.037l.003-.164.009-.523h-.527v-.099h-.194v.1h-1.093l.005-.1-.227.014h-.1v-.086h-.064v-.172h-.258v-.086h-.386v.086h-.128v-.086h-.901v.086h-.326l.005.086h-.129v.086h-.192v.067l-.001.104h-.064v-.101l-.071.002.006.1h-.128v.085l-.06.01-.005.076-.067-.026.003.112-.06.02-.005.066-.066-.01.002.49-.01.028-.055.007v.133l-.007.021-.056.017v.086l-.08-.006.015.092h-.035l-.021.018-.008.068h-.129v.085h-.193v.086h-.386v-.086h-.128v.086l-.11-.004h-.02v.09l-.134-.004.006.09h-.065v.172h-.041l-.013.015-.01.07h-.064v.085l-.053.012-.012.075h-.064v.172h-.064v.084h-.065v.086l-.055.016-.009.07-.055.013-.009.073-.056.012-.008.074h-.065v.171h-.064v.086l-.053.015-.011.071h-.064v.086h-.065l-.016.08-.048.006v.17h.064v.087h.386v.048l.005.037h.06v.431h.064v-.086h.064v-.257l.053.01.011-.035v-.061h.064v-.086h.129l.006-.073.018-.013h.04v-.108l.065.022v-.085h.034l.026.014.004.07.077.006-.012.167h-.064l-.002.183-.192-.011v.061l-.02.006-.044.019v.17h-.065v.258h.065v.342h.064v.087l.065-.01v.17l.17.01h.023v.086h-.065v.172h-.064v.086h-.193v.257h.048l.024.256h-.325l-.004.087-.25-.012-.008.098h-.257l.01-.098h-.198l-.005.098h-.193v.086h-.579v-.07l-.02-.016h-.109l-.013-.098-.051.012v-.086l-.133-.001.004-.084h-.065v-.086h-.128v.086h-.064l.001-.096-.259.01.002-.075-.02-.01h-.174l.001-.093-.019-.01-.047.016.011-.175-.653.027-.001.062-.186-.006-.007.092h-.193v.086h-.064l.01.086h-.142l.003.171h-.065v.172h-.064v.147l-.007.021-.057.004.006.164h-.183l-.016.093h-.387l.007-.093-.07.007-.008-.068-.022-.017h-.035v-.172l.022-.014.043.014-.013-.094.076.008.007-.098.058.012v-.086l-.07.001.005-.086h-.063l.008-.175-.073.003-.003-.073-.032-.013h-.03l-.01-.072-.054-.014-.001-.064-.156-.022-.237-.002.008.088h-.064v.126l-.011.041-.053.005v.173h-.45l-.002-.087h-.449v-.086h-.386v.086h-.112l-.017.171h-.257v.086l.074-.01-.01.096h.065v.172h-.065v.086h-.11l-.018.006v.079h-.258v-.257h.064l-.01-.088.075.002v-.098l.064.012v-.086l-.073.002.009-.087h-.064v-.086h.064v-.086l-.041-.006-.023-.003v-.077h-.193l.003-.092-.142.005-.055.001v-.085h-.579l.012-.09-.462.004-.004-.08-.02-.006h-.17v-.086h-1.028v.172h-.129v-.086l-.434.006v-.264h-.145l.003-.094-.113.01h-.148v-.087h-.321v-.084h-.772v-.087h-.129v.087h-.128l.002-.028.012-.144h-.079l-.006-.1h-.127l.004.1h-.385v-.085h-.065v-.09l-.332.003-.636-.003.003.09h-.064v.257l-.053.014-.012.016v.055h-.129v.087h-.063v.084h-.065l.001.076h-.127l-.003.096h-.322l-.014-.096-.05.01v-.257h.062l.002-.055v-.03h-.128v-.173h-.129v-.17h-.193v-.086h-.579l-.003.026.003.06-.116-.004-.012.09-.384-.014-.003.099-.252.014-.005.072h-.128v.086h-.13v.084l-.13-.012.002.099h-.064v-.087h-.064v.086h-.13v.085h-.064v.151l-.118.02-.01.087-.02.006-.045-.006v-.086h-.064l-.008.08-.056.006v.172h-.065v.049l-.012.026-.052.01v.258h-.064v.086l.073-.007-.009.092.047-.001.017.002v.085h-.064v.086h-.064v.343l-.44-.007-.01.093h-.258l.013-.093h-.255l-.015.093h-.13l.004-.093-.518.007v-.085h-.385v.085h-.065l.004-.07-.133-.015v.07l-.02.004-.044.01v.087l-.195-.001.002.087-.032-.005-.032-.005v.096h-.13v-.096h-.12l-.008.182h.048l.016.085-.055.007-.01.022v.057h-.063v.086h-.258v.057l-.024.026-.155-.013-.014.102h-.192l-.006-.102-.123.016v.086h-.065l.004.068h-.133v.102h-.128l.007-.102h-.255l-.01.188h-.032l-.023.02-.009.066h-.128v.086h-.064v.086h-.065v.085h-.128v.086l-.12.005-.01.081-.174-.005h-.021l.003.091h-.1l-.02.018-.009.068h-.128v.086l-.121-.019v-.153h-.137v.086l-.118-.008v.433h-.155l.015.09h-.064v-.09h-.12l-.009.175h-.064v.086h-.064v.086h-.064v.172l-.067-.01.002.096-.142-.008.014.093h-.065v.086l-.052.012-.012.023v.05l-.128.007v.08h-.258v-.086h-.065v.429h-.064v-.103h-.122v.17l-.135.019v-.087h-.064v.172h-.065v.257h-.064v.086h-.064v.086h-.065v.089l-.128-.003v.085h-.065v.086h-.064v.05l-.012.027-.045.027-.007.068-.056-.02-.025.099-.048.007v.171h-.065v.172h-.064v.086l-.059.012-.005.074h-.129v.058l-.006.024-.058.003v.161l-.065.01v.087h-.064l-.006.082-.058.004.002.175-.067-.004v.086h-.064v.086l-.066-.002.002.088-.031-.009-.034.009v.086l-.057.01-.007.074h-.064v.123l-.012.043-.053.006-.008.067-.056.02v.084h-.065v.156l-.064.015v.601h-.019l-.043.012-.002.074-.188-.002-.005.088h.064v.172h-.128v-.092h-.263l.005.092h-.128v.172h-.065v-.086h-.064v-.086h-.129v.086l-.05.01-.021.057-.057.019v.086h-.065v.086h.054l.01.243h-.126l-.002.1h-.193v.086h-.064l.008-.1-.073.014-.001-.1h-.127v-.158h-.065v.086h-.193v-.086h-.064l.01.158h-.141l.002.1h-.128l.013-.044-.013-.042-.058-.014v-.072h-.14v.128l.004.044h-.128v.086h-.064v.256h.064v.086h-.064l.003.093-.067-.007v-.086h-.065v.07l-.064.016v.064l.002.022h-.067v.085l.075-.002-.002.027-.008.233h-.194v.086l-.119-.017-.01.103h-.192v.085l-.119.013-.01.073-.054.013-.01.073h-.129v.086l-.452-.019.002.105h-.065l-.003-.086h-.06v.086h-.106l-.02.01-.004.075h-.128v-.085h-.13v.085h-.063l-.004-.073-.023-.012-.098.001-.004.023-.014.066-.05-.005v.172h.05l.013.324-.126-.001v.188l-.066.004v.086h-.065v.17l-.039-.015-.026.01.001.091-.137-.002.009.175-.052.011-.012.075h-.028l-.03.02-.007.065h-.129v.086h-.064v.171h-.065v.258l-.04.02-.024-.02v.171h-.064v.172h-.064v.171h-.065v.086h-.064v.172h-.065v.17h-.064v.087h-.064v.172h-.065v.086h-.064v.15l-.064.02v.172h-.064v.172h-.065v.171h-.064v.172h-.065v.086h-.064v.086h-.064v.171h-.129v.086h.064v.086h-.386v.171h.065v.086h.193v.086h.064v.086h.064v.257h-.064v.086h-.064v.086h-.386v.086h-.064v-.086h-.065v.086h-.257v-.086h-.257v.086h-.13v-.086h-.45v-.086h-.386v.086h-.128v.086h-.258v.086h-.257v.085h-.064v.086h-.065v.086h-.064v-.172h-.064v-.085h-.322v-.258h-.064v.086h-.065v.172h-.064v.085h-.065v.172h-.128v.086h-.129v.086h-.321v.084l-.192.002v.085h-.065v.085h-.064v.087h-.064v.086h-.065v.17h-.064v.086h-.065v.086h-.192v.086h-.194v-.086h-.128v-.086h-.129v-.086h-.129v-.085h-.064v-.085h-.45v.075l-.165.01h-.028l-.005.064-.06.021v.172h-.064v.086h-.064v.171l-.064.001v.085h-.13v.086h-.128v.086h-.064v.086h-.193v.086h-.193v-.086h-.322v.086h-.257v.085h-.13v.086h-.127v-.086h-.194v.086l-.064-.018v-.068h-.129v.086h-.064v.086h-.064v.086h-.13v.086h-.064v.085h-.193v.086h-.128v-.086h-.064v.086h-.065v.086h-.064v.172h-.065v.086h-.064v.342h.065v.087h-.065v.084h-.129v.086h-.064v.086h-.45v.086h-.257v-.086h-.065v.086h-.064v.086h-.065v.171h-.128v.086h-.193v.086h-.129v.172h-.129v.085h-.192v.086h-.065v.086h-.193v.086h-.322v-.086h-.064v.086h-.193v.086h-.064v.086h-.065v.257h-.128v.086h-.193v.17h-.065v.087h-.064v.086h-.064v.086h-.129v.086h-.064v.17h-.065v.086h-.064v.086h-.065v.086h-.321v.171h-.194v.087h-.065v.085h-.064v.172h.129v.343h-.065v.257h.065v.086h-.065v.086h-.064v.086h.055l.01.086h.064v.17h-.257v.087h-.193v.086h-.194v.086h-.063v-.086h-.323v.086h-.128v.081l-.065.005v.084h-.064v.087h-.064v.086h-.065v.342h-.193v.258h-.064v.343h-.065v.172h.062l.003.429h-.065v.086h-.063v.238l-.037.01-.028.009.005.088-.07-.002v.172h.065v.085h-.064l-.005.086h-.06v.172h.057l.003.065.005.105h-.065v-.105h-.198l.005.246v.031h-.257l-.008.07-.04.012-.016.004v.086h-.065v.086h-.257v.171h.064v.086h.079l.057.02-.007.237h-.064l-.008.079-.057.007-.008.067.073.019v.086h-.257v.086h-.065v.257h-.064v.258h-.065v.085h.129v.086l-.049.005-.015.08-.016.08-.049.007v.086h-.064v.086h-.064v.171l-.053.011-.012.02v.055l-.02-.022-.044.022v.085h.064v.087l-.05.01-.027.065-.051.01v.343h-.065v.258h-.064v.118l-.014.046-.05.007v.17h-.13v.087h-.127v.086h-.12v.774l-.074-.002v.075l-.064.01v.086h-.065v.087h-.192v.036l-.01.046-.055.004v.17l-.12-.002-.009.088-.051.013-.013.023v.05h-.026l-.155-.005v.433l.117.001v.086l.202.002-.01.255h-.063v.086h-.033l-.026.015-.006.071-.068-.026.004.112-.05.01-.015.038-.01.028-.054.01v.265l-.014.073-.05.005v.17l-.064.002v.209l-.004.047h-.06v.845l-.009.108-.056-.01v.172h-.065l-.007.07-.057.015v.35l-.013.081-.051-.001v.514h-.065v.417l-.128.013v.084h-.064v.142l-.002.03h-.063v.515h.048l.017.257.11-.01.017.012.001.084h.064v.515h.322v.086h.049l.016.086h.328l.055.014.002.07h.065v-.084h.129v.085h.064v-.085h.064v.085h.064v-.084l.188-.001.205-.001-.007.173.043-.012.022.012v.343h.064v.172l-.134-.002.005.174h-.063v.07l-.065.016v.082l-.015.084-.05.004v.344h-.033l-.031-.002v.087h-.257v.086h-.178l-.015.086h-.258l-.005.253-.059.004-.008.154-.056.018v.086h-.064l.012.09.052-.004v.086l-.066-.019.002.104h-.065v.086h-.064l-.004-.073-.025-.013h-.036v.086h-.128v-.086l-.129.01v.076h-.064l.001-.093-.11.006h-.02v.259l-.023-.004-.038.018-.003.072-.128-.014v.099l-.119.011-.01.075h-.194v.086h-.064v.172h.065v.086h-.065v.084l-.024-.003-.04-.007v.096h-.193v-.096h-.02l-.044.01v.086h-.065v.086h-.128v.086h-.194v.086h-.064v-.086h-.45v.086h-.065v-.086h-.064l-.016-.086h-.048v-.086h-.258v-.17h-.018l-.04.02-.006.064-.449-.01-.001.096h-.194l-.003-.096-.17.01h-.02l-.008-.256h-.056v-.173h-.064v-.514h-.064v-.171h-.065l-.011-.172h-.053v-.086l-.068.005.004-.091-.055-.008-.01-.02v-.057h-.128l-.003-.086h-.126l-.005-.096-.002-.076h-.058v-.17l.058-.018.007-.155-.036-.015-.029.015v-.086h-.128v-.086h.193v-.031l.007-.32-.2.009v-.086h-.064v-.171h-.194v-.356h-.122l-.006.098h-.13v.086h-.063l.001-.092h-.08l.014.092h-.063v.086l-.067-.001.002.087-.053.01-.012.075h-.064v.086h-.15l-.036.02-.007.066h-.129l-.005-.066-.02-.02h-.103l.01-.094-.14.008.006-.097-.069.012v-.086l-.064-.017v-.07h-.194l-.006-.07-.025-.015h-.162l.003-.098h-.113l-.019.012v.158h-1.21l-.012.1-.314-.025-.008.11-.182.015-.01.07-.055.013-.01.074h-.064v.172l-.038-.02-.091.02.001.174-.13-.004v.086h-.064l.001.082-.13.004v.086l-.195-.015.002.101h-.128l-.015-.1-.05.014v.086l-.144-.007.016.093h-.064v.085h-.129v.086h-.129v.086h-.257v.086h-.064v.257h-.065v.086h-.065l.003.164h-.098l-.033.008v.25l-.064.007v.084h-.064v.087h-.065v.086l-.114-.014-.015.013v.086l-.07-.004.006.09-.034-.016-.02.029-.01.073-.056.031-.008.14h-.065v.171l-.053-.01-.075.01v.086h-.966v.086h-.193v.086h-.064v.257h-.03l-.028.018-.007.068h-.104l-.017.01-.007.076h-.129v.086h-.064l.016.084h-.142l-.003.087h-.257l.006-.087h-.135v.087h-.064l.004-.07-.068-.015v.086h-.258v.044l-.002.041h-.062v.343h.064v.086h-.064l.005.152h-.325l-.002.106h-.065v.086h-.128v.257h-.064v.086h-.065v.065l-.128.02v.05l-.01.03-.055.005v.258h-.064v.078l-.064.008v.257h-.065v-.082l-.193-.004v.172h-.064v.086l-.121-.008-.008.094-.05.013-.014.025v.047h-.065v.086h-.321l.001-.088-.194.002v-.085h-.129v-.094h-.258v.094h-.127l.005-.094-.327.008.002-.064-.059-.022h-.33v-.086h-.12v.164h-.141l.004.094h-.193v.086h-.065v.066l-.064.02v.149l-.007.02-.057.003v.172h-.064v.171h-.321v.086l.13.001-.002.085.187-.028.006.114.066.018-.002.067-.07-.01.006.182h.064v.086h-.129v-.086h-.385v.172h-.13v.086h.065v.085h.067l-.003.172h.02l.425-.02.006.192.036-.003.028.003v.084l-.07-.006.006.092h-.065v.086l-.069-.008.005.094h-.128v.086h-.194v.086l-.122.032-.006.053h-.193v.086l-.323-.01h-.495l-.019.01v.086h-.128v-.257h.128v-.086h.065l-.003-.186-.126-.007.014-.059.05-.006v-.086h-.064v-.256l-.05-.011-.027-.066-.051-.01-.006-.074-.123-.011v-.092l-.129.007v-.086h-.644v.086h-.257v.085h-.064v.086h-.386v-.086h-.579v.086h-.193v.258h-.064v.084h.061l.003.258h.054l.009.147.001.025.266-.027-.008.112h.064v.172h-.064v.086h.128v.257l-.049-.005-.015.091h-.386v.086h-.129l-.007.068-.05.036-.007.068h-.129v.085h-.128v.086h-.257v.086h-.423l-.092.012v.074h-.065l-.016-.086h-.177v-.086h-.129v-.171h-.065l-.002-.086h-.06v-.086l-.11-.007-.02-.026v-.053h-.064l-.015-.086h-.05l-.004-.066-.055-.02h-.134v-.085h-.643v.085h-.257l.004.097.023-.003.098-.013.004.091h-.322v.077l-.064.009v.068l-.13.018v.086h-.128v.17h-.064v.087h-.129v.086h-.128v.043l-.014.032-.05.01.007.09-.137-.004v.086l-.264-.003.007.175-.045-.009-.02.038v.057h-.063v.086h-.258v.171h.064l-.005.082.07.004v.171h-.065v-.086h-.064v-.09h-.054v.19h-.142l.003-.1h-.064v-.084h-.193v.084h-.065v.172l-.048-.015-.017.013v.088l-.067-.002.003.088h-.064V473h-.128v-.086h.064l-.008-.086h-.122l.001.086h-.064V473h-.193v-.086h-.027l-.038.001v-.173h-.064v.173h-.064V473h-.193v.086h-.065V473h-.128v.086h-.064v.086h.128l.003.183-.131-.012v.086h-.065v.257h-.04l-.015.015-.01.07h-.063v.087l-.053-.019v.105h-.076v-.086h-.065v.068l-.192.018v.074l-.021.004-.044.008v.17h.064v.43h-.064v.085l-.055.015-.01.072h-.063v.091l-.13-.005v.086h-.064v-.08h-.115l-.03-.092h-.047v-.087h-.065v.048l-.012.028-.052.01v.173h-.065l-.009.077-.055.008v.084h-.193l-.009.109-.055-.023v.086h.064v.086h.175l.017.007v.08h.065v.084h.065v.172l-.048.017-.017.07-.054-.014v.189l-.139-.004v.343h-.064l.003.1-.132-.014-.007.077-.057.008v.093l-.193-.007v-.086h-.193v.086h-.129v-.086h-.064v.086l-.198.007.005.079h-.064v-.093l-.193.007v-.086h-.125l-.075-.02h-.255l-.04.02h-.084v.086h-.065v.086h-.064v.086h-.129l.015.344-.079-.001v.086h-.064l.001.084-.066.002-.019.086h-.024l-.019.009-.002.075h-.068l.002.092.002.08h-.451v.086h-.386v.086h-.064v.085l-.065.001v.429h-.064v.085l-.048-.004-.016.09h-.065v.086h-.064l.004.258h-.132v.343h.064v.086h.321v-.172h.065v.172l.13-.002-.001.218v.04h-.065v.087h-.193v.086l-.712.01.004-.268-.054-.004-.006-.03.006-.049.013-.086.008-.054-5.789-5.5-2.523-2.398-4.103-2.834-4.939-3.4-7.425-6.674-9.904-1.34-3.814-1.612-3.58.197.652 5.584-8.412-6.594-.749-1.82-2.363-5.669-1.393-2.305-1.428-.965z"/></defs><text transform="translate(381.128 309.5)" font-family="&quot;Tahoma&quot;" font-size="18">Murcia</text><text x="643" y="519.333" font-size="11">Created with paintmaps.com</text></svg>