<svg xmlns="http://www.w3.org/2000/svg" baseProfile="full" style="background-color:false" version="1.1" viewBox="0 0 800 533"><path d="m346.77 449.91-.42.835-1.411.804-1.278-1.258.088-.883-.465-.159-.532-1.49-1.636.732-2.56-3.514.07-.632-.837-.35-2.203.218-.322-.608-.88-.277-.8-6.032.408-1.513-.867-.478-.486-.918.668-.392.114-2.017 1.93-3.793 1.034-1.656 4.628-4.868.255-.753 1.623-1.122 1.084-2.358 4.368-3.992.653-1.816-.16-2.386 1.297-1.903 2.459-1.62 3.889 1.773.951.733.257 1.094 3.93 1.207.677.01-.323-1.078 2.315-1.19 1.264-1.592 5.686.206 3.237 2.421 1.282 2.526 3.497-1.765 3.25-2.775 2.416-1-1.626-1.42-1.49-.49-1.391-2.695-.33-1.903.9-2.202 3.978-2.35.108-.063-.051-.113-.506-1.13-.972-.476-.535.395-2.476-.293-.28.73-.927-.239.277-1.152-.84-1.933.227-1.467-.641-.8-3.829-1.482-.443.66-2.095-.892-.965.92-5.8-2.85-.2 1.808-.546.404-.806-.18-1.57-2.834-1.74-.303-.611.718-2.222.04-1.45-1.533-2.385-.503-.673-1.043.338-3.985-.522-.947-.776.224-.226.883-.663.456-.58-.128-.908-1.227-2.015-1.452-1.287-1.712-.573-.131-.406.404.028 1.787-.603.754-3.855-1.005-.8-1.831 1.863-2.886.384-2.284-.782-1.594-.203-2.337-.504-.319-1.55.888-1.067-.21-2.726-1.116-4.164-2.878 1.588-1.462.133-.827-.518-.805-1.577-.69-.71-1.095.664-2.225-.467-.799-.887-.044-2.205 1.457-2.43-3.95-3.235-.084-1.602.57-1.096-1.5.953-1.24-1.224-1.473.407-.894-.314-.596-.576-.356-1.485 1.15-.978-2.104-1.884-.9-.981-1.162-2.524.796-1.092-2.094-.786-.434-1.062.25-2.148 1.777-3.792 1.096-.065.86-1.337 1.519-2.284 1.09-1.867 1.543-4.55-1.351-.016-2.584.603-1.335 1.914-2.008.002-.69-3.153-2.143 1.2-2.37-5.095-2.99-1.298-1.838 2.186-4.54.214-.444-1.405-1.097-3.588-.237-.187.39-1.172-.65-1.527.19-1.894 1.365-.861-.778-.79.385-.29.876-.43 1.298-1.012.51-3.098.136-.99-1.944-.297-.584-1.048-.737-1.242.243-.545-.407-.99.05-1.387 1.161-1.333.166-1.238-.241 1.127-1.193-.083-.895-.59-.515-1.125-.455-3.035.055-1.132-.604-.824-.78 1.142-2.236-.405-.89-4.469-2.194-1.589-.7-1.093 1.527-1.015-.088-.758-.79-.425-2.426-1.982-1.404-.08-2.12-2.02-.238-.008.982.844 1.492-.96.763-2.59-1.328-1.83-.078-2.051-1.834-1.396.024-1.01 1.172 1.14 2.075-.097 1.026-2.421.685-.768.115-.423-.397-1.036-3.932-1.338-.428-1.134 1.613-1.8-.807-.094-1.905-1.209-.91-1.678.973-1.368-.057-1.306-.862-.988.513-3.517-5.704-1.158.386-.596-3.14-.099-3.034.384-.635 2.906-1.306 3.894-.281-.25-1.872-1.125-1.903-.036-1.459-.604-1.31.196-1.416.949-1.12 1.383-.671-.138-3.544-.577-1.173-1.163-6.553-.418-.886.747-3.036-.586.37-2.882-.73-1.495-2.084-.586.007-.3.274-.547.502-.023 1.316-1.055.898-.7 1.517-.211.445-2.327 4.899-2.152 2.3-1.542-3.565-.499-2.592-2.347-.6-2.551.061-1.188.43-.387.725-.837-4.817-1.15-3.138-.166-1.493 3.874 1.31.706-.945.015-.028 2.015-3.613 1.489-.018 1.202-2.01.519-.035.425-.193.115-.052-.093-1.437 1.121-2.325 4.573-2.125.087-1.233 2.804-.925.342-.402 2.799 1.012 2.03-.445 4.174 3.068-1.23 1.014 2.173 1.21-.895 1.86-1.478.34.135.56 2.822-.344.06.004.763-.492 4.249.9 2.49-1.965.95-1.713 2.037-.509 2.095-.967.817-.376 2.856.247.6.05.44.136 1.106-1.279-.199-4.013-.958-2.909-2.588 2.249-.996-.211-.507-2.831-1.216-.615.985-1.675-.721-4.647.647-1.633-1.29-3.071-.543.543-.352-.281-.293-1.86.907-1.414.663-3.22 1.303.936 1.252.043.394.013 3.452-1.188.346-.624.16-.29 1.543.02 1.17.262.267.06.25-.345 1.065-1.475.583-.055.607-.055-.508-1.271-.06-.042-.597-1.346-.226-.82-.515-1.877-.564-.823-.498-3.251-1.262-1.777 1.647-1.837 1.18-1.19-.414-4.196.62-1.361 3.357-2.208 3.902-4.193.712-2.834-.741-2.17-1.04-4.272-.37-4.392.26-1.862-2.752-2.167.522-.9.537-.511 1.935.66.493-.228-.015-7.73.514-1.566.27-.484.507-1.089 2.694-.425 1.097-1.124-.165-1.549 1.208-1.02.153-1.385 1.48.125 1.053-.51 1.543.653 2.81 3.36-.214.862 1.616-.02 1.389-.192 2.44-1.964 1.308.062 1.981.112 1.033.487.308-.364.769.15.875.439 1.342-.73 1.36-.143 2.258-1.978.909-.152-.255-1.21 1.424-2.032.765-3.83 2.463-.964 7.252-.18.492-1.023 1.247.341 1.503-.736.425-1.448.846-.436 1.013-3.536-.714.197-.345-.58.344-1.931-1.644-2.808-.621-4.249 2.198-.607.323-1.785 2.158-2.741.631-2.071-1.081-3.573 1.77-.258.136-1.506.478-.633.566-.111 4.582-1.84.295.327 1.08-.619.513-.169.604-.206 1.29-.881.488-.527-.537-1.585 1.706-1.094 4.176-.715-.293-.664.993-1.059 1.152-.412.323-.706-.324-.462 1.309-.59.542-1.018 1.732-.53.696-1.22-.228-.79 1.384-1.993 3.032-2.088-.144-1.582-.357-.943-.818-.62-.759.02-2.063-1.302.014-1.911.456-.993.566-1.535-.228-1.362-.926-1.023-.447-1.953.19-2.346 1.68-2.308.84-3.046-.509-1.498.046-3.656-.672-.507 1.159-1.286.517.945-.305.335.091.777 1.433.62-1.124.374 1.192 1.827 1.85.473.583-.214.524.895.374-1.302-.271-.685.63-.155 1.143 2.305-.093-1.217.177-.442.476.227.998.236-.034-.757-.606-.218.526-.582-.377-.486-.522.868.09-.794-.421-.202 1.32-.117.257-.61-1.546-.099.726-.8-.578-.58.492-.668-.657-.222.925-1.153.369.323.58 1.473 1.134-1.33.114 1.248.545.554-.365.036.389.688-.491 1.21.786.7-.186.87.411.318.428-.118.025-1.648 1.38.573-.05-.587-.624-.302h1.082l-.03-.799.502-.619-.31-1.005.61-.402-.046 1.097.647.221.404-.416 1.041.337 1.015-.562.167.487.324-.134-.31-1.193.622.338.54-.474 1.064.1.57-.826.267-1.719.568-.555 2.576-.05.464-.308.325-1.296 1.352-.213.716-.578-.2-1.991.664-.935-.516-2.313.87-1.742-.576-1.986 1.679-.994.75-2.152 2.284-.69 1.94.81.742-.468.022-.527 1.352-.31.219.38.929-1.081 1.55-.598.636.267.082-.365.727-.036 1.728.455.293-.435-.128-.23 1.426-1.218.095-.017 2.015.055.644-.982.926-.998 1.239-.743 1.446-.869.847.346.221.09.797.38.413-.163 1.205-.198.178-.092 1.986-1.034.104-.04 2.713.388.508.121 2.456 1.753 1.883-.588.491.116 2.32 1.314.11.314-.787 3.39-.764 2.078 1.086 4.329.322.04.097.302.447 1.859 1.147 1.867.804.36.345.41.504.22.305.526.675-.29 5.265.14 1.63.7 1.786-2.647.312-1.092.587-2.049 1.53-3.118-.754-1.33-.37-.238-.129-1.044 7.108-1.464.44.14 1.517-.185 1.447.01 2.213.018.62 1.063.303.504 1.222 1.054.566.693.26.02.34.294.553-.22.997.084 1.935 1.34.014.019.055.029 1.537 1.064 5.21 1.486.315.044 1.457.604 2.023-.114.194.028.076-.043.308-.017 1.47-.564.123-.185.323-.48 1.198-.672.452.232.976.546.408.765.156.29 1.288.702 1.051 1.102 2.28 2.494 1.26 6.336-.018 1.258-.041.063-.86.5-.082.047-.349.745.197.54-.097 3.518-.122.309.105.306-.168 6.094-1.508.66-1.722 1.702-.102.1-.103.075-.002.03-.415.41-.004.567-.026 2.979-.617 1.039.438 1.943-.025.276-1.052.221-.122.132-.034.006-.138.023-.205.379-.92.993.113.488-.277.511.553.679.237 1.023-.211.407-.708 1.364.004.552.008 1.006-.174.581-1.75.944-.216.116-.07.26-.137.51-.325.25-.081 1.065-1.126.86-.538.229-2.075.88.125.243.203.395-4.256 3.253-.509.157-1.526 1.602-.378.396-.468 1.562.265 1.54 3.682 5.56 2.043 3.085 1.294 2.093 17.192 4.693 1.312.358 1.466.468.206-.782.087-.05 1.331-5.218.919-1.976-.36-.452.135-1.627.09-.329-.024-.46.344-4.132.407-1.084-.635-.852-.557-2.76.017-.064.642-.972 1.933-2.023.393-1.46.45-.248 2.385-1.25.218-.047 4.979-.77 1.536-.03.884-.31.175-.063 3.093-.479.3.019-2.24 2.429-2.075 2.156-2.288 3.322-.912 2.302-.41 1.035-.513 2.542-.21.58.083.048-.1.494 2.918 1.632 1.123.213.044-.026 4.197 2.434 1.468 2.151.487 1.18.348.045.104.153 3.212.375 2.948-2.93.914-.838 4.13 1.024.061.049.026.157.076.474.978.947 1.336.936 3.425 2.398.641.448.577.404.83-.457.344-.19.2-.007.048-.13.045-.024.016-.143.195-.534.8.32 5.617 3.523.252 3.17.504.714.19 1.233.33-.497.17.242.478-.313.88.346.566-.475 2.304-1.937.37-.628 1.32-.863.015.022 1.468 2.004 2.117.414.017.012 3.144.686-.053.535-.238.38-.196.313-.146 1.35 1.151.48.41-.224.033.021 1.682 1.089.976.17 1.94.34 2.145-.008 2.029.265 3.253.961 1.254-.374 1.435.188.974.522.778.774.373.626.051.118 1.094 2.471.938.921.73.277 3.957 2.77.158.484.941.455.796.212 4.13 1.653.947.67 2.4.234 2.004-.424.262-.156.151.006.327-.29.558-.332-.036-.13 2.317-2.051 1.916.44.238.113.453 1.212.243.652 2.81.067 1.017.416.447-.08 3.134 1.054.053.027 4.251-.227 1.482-.294.122-.144.718-.081.584.068.251.153 2.776.5 1.77-.089.082.01.024-.014.679-.034 1.841-1.555 3.712-2.341 2.403-.263.614-.494.424-.34.638-.196 3.12.48 1.954 3.822.151 1.1.006.044.082.047.521.295.095.185 1.639.824.225.94-.524.97.594.201-.32 1.837.312.4-.28.254-.078.07.197.3.164.248-.01.12 1.205 2.34-.17.487-3.78.015-.392-.817-1.737-.79-6.772.843-1.513.941.192.46-2.76 2.814-1.81 1.077-.968.089-1.313 1.012-.31 2.237.277 1.242 1.277.305-.598 1.036-.017 1.886.368.507-1.203 1.317.334.974-.561.57-1.35.107-2.375 1.703-.895 2.608-3.54 1.838-.096 4.102.578 1.349-.026 1.642.771 4.84-2.038 1.61.088 1.13 2.3 1.942.54 1.897-2.735 5.211-.715-.104-.17.603-.32 1.142-1.93 1.328-3.62-1.106-1.249-.03-.53.584-.8.1-.144 2.355.398 1.757-.38 1.278-4.987-.39-.406 1.555-1.253 1.02-.38-.182-.898.561.087 1.33-.659 1.415-1.312 1.014-.476 2.372-.554.798-1.604-.335-.675.271-2.397 2.418-2.262-.29-1.06.745-.968-.132-3.062.816-3.489-.702-2.543.669-.478 1.075.235.502-2.309.982.538 3.041.987 1.827-1.624 3.46.038 1.954.603 1.862-.33-.018-.077 1.022-3.345 1.798-1.201.18-2.469.076-4.102-1.456-3.606.084-3.912.322-5.329-.972-1.954.201-.512 1.818.082 2.78-.764 6.667-.847-.998-2.163-1.003-.67.194-.572.49-.559-.099-.287 2.207 1.09.57 1.313.263 2.58 1.69-.8 1.065-1.722-.379-4.163 3.182-2.358 2.412-.923.192-.542 2.322.058 3.683.701 1.805-.415.867-.902-.38-.266.386-2.37.144-1.786 2.102-1.379-.337-1.874-1.6-.675.043-2.894-1.394-.192-.653-1.776-.48-5.321 10.328-.241 2.399-.976 1.194 1.363.73.174 3.045 1.025-.12 1.62.96-.122 1.635.665 2.43-2.065 4.46.1.982-1.93 2.149-5.778 2.475-5.99 7.676-.195 2.874-.132 1.921-1.182 2.163-.434 2.504-1.63 3.437-.586.94.621 1.199 1.465 1.318 1.996-.899 1.282.312.548 2.105.917 1.142-.64.64.8 1.16-1.908 2.987-1.301.918-2.072.91-1.498 1.824-3.711 5.403-1.938 3.642-3.203 3.37-.309.404.246.716 1.849 3.163-.339 1.946-.94.808.122 1.727-1.092 2.231-.027 3.313-3.752 7.139-.247 3.105.925 2.9 4.138 3.513.782 3.36-.553 1.993.033 2.178-.983 2.872.951.411.313 1.656-1.222 4.172-.41 2.176.252.746 7.316 5.848.406 4.37 1.267 1.951 1.625 3.97 1.345.596 3.924-.613 4.223.246-.49 2.215 1.047.925-.008.927 1.108 2.162-1.1 1.625.757 1.063-5.322 4.543-2.58 3.027-.355 1.709-2.973 4.004-2.525 4.615-2.079 6.68-1.286.74-1.378.772 1.358 2.012-.489 2.143-3.344 1.354-1.51 1.155.29.385-1.128 1.821-.024 1.117-.779 1.572-1.143.611-.562 1.02-.805.155-3.303-.432-1.011-.584-2.862.21-4.7-2.7-6.338.104-.992 2.556-1.543.303-2.371 1.509-7.981-1.199-4.967-2.164-3.664-1.86-2.905-5.403-1.79-2.01-6.178-2.297-2.31-1.906-1.242.944.322.567-1.242.118-.205-.742-2.627-1.228-.21 1.121-1.194 1.675.154.39-1.065.76-1.597-.691-1.715.551-.833-1-2.455.082-2.847-1.446-1.5-.661-1.241-1.345-6.181-8.339-1.634.085-2.572 1.419-1.589.349-1.455-.882-2.644-1.648-3.406.73-1.913.169-1.519-2.768-1.552-1.16Z" fill="#000" fill-opacity="1" clip-path="none" filter="url(#a)" paint-order="fill"/><path d="m346.77 449.91-.42.835-1.411.804-1.278-1.258.088-.883-.465-.159-.532-1.49-1.636.732-2.56-3.514.07-.632-.837-.35-2.203.218-.322-.608-.88-.277-.8-6.032.408-1.513-.867-.478-.486-.918.668-.392.114-2.017 1.93-3.793 1.034-1.656 4.628-4.868.255-.753 1.623-1.122 1.084-2.358 4.368-3.992.653-1.816-.16-2.386 1.297-1.903 2.459-1.62 3.889 1.773.951.733.257 1.094 3.93 1.207.677.01-.323-1.078 2.315-1.19 1.264-1.592 5.686.206 3.237 2.421 1.282 2.526 3.497-1.765 3.25-2.775 2.416-1-1.626-1.42-1.49-.49-1.391-2.695-.33-1.903.9-2.202 3.978-2.35.108-.063-.051-.113-.506-1.13-.972-.476-.535.395-2.476-.293-.28.73-.927-.239.277-1.152-.84-1.933.227-1.467-.641-.8-3.829-1.482-.443.66-2.095-.892-.965.92-5.8-2.85-.2 1.808-.546.404-.806-.18-1.57-2.834-1.74-.303-.611.718-2.222.04-1.45-1.533-2.385-.503-.673-1.043.338-3.985-.522-.947-.776.224-.226.883-.663.456-.58-.128-.908-1.227-2.015-1.452-1.287-1.712-.573-.131-.406.404.028 1.787-.603.754-3.855-1.005-.8-1.831 1.863-2.886.384-2.284-.782-1.594-.203-2.337-.504-.319-1.55.888-1.067-.21-2.726-1.116-4.164-2.878 1.588-1.462.133-.827-.518-.805-1.577-.69-.71-1.095.664-2.225-.467-.799-.887-.044-2.205 1.457-2.43-3.95-3.235-.084-1.602.57-1.096-1.5.953-1.24-1.224-1.473.407-.894-.314-.596-.576-.356-1.485 1.15-.978-2.104-1.884-.9-.981-1.162-2.524.796-1.092-2.094-.786-.434-1.062.25-2.148 1.777-3.792 1.096-.065.86-1.337 1.519-2.284 1.09-1.867 1.543-4.55-1.351-.016-2.584.603-1.335 1.914-2.008.002-.69-3.153-2.143 1.2-2.37-5.095-2.99-1.298-1.838 2.186-4.54.214-.444-1.405-1.097-3.588-.237-.187.39-1.172-.65-1.527.19-1.894 1.365-.861-.778-.79.385-.29.876-.43 1.298-1.012.51-3.098.136-.99-1.944-.297-.584-1.048-.737-1.242.243-.545-.407-.99.05-1.387 1.161-1.333.166-1.238-.241 1.127-1.193-.083-.895-.59-.515-1.125-.455-3.035.055-1.132-.604-.824-.78 1.142-2.236-.405-.89-4.469-2.194-1.589-.7-1.093 1.527-1.015-.088-.758-.79-.425-2.426-1.982-1.404-.08-2.12-2.02-.238-.008.982.844 1.492-.96.763-2.59-1.328-1.83-.078-2.051-1.834-1.396.024-1.01 1.172 1.14 2.075-.097 1.026-2.421.685-.768.115-.423-.397-1.036-3.932-1.338-.428-1.134 1.613-1.8-.807-.094-1.905-1.209-.91-1.678.973-1.368-.057-1.306-.862-.988.513-3.517-5.704-1.158.386-.596-3.14-.099-3.034.384-.635 2.906-1.306 3.894-.281-.25-1.872-1.125-1.903-.036-1.459-.604-1.31.196-1.416.949-1.12 1.383-.671-.138-3.544-.577-1.173-1.163-6.553-.418-.886.747-3.036-.586.37-2.882-.73-1.495-2.084-.586.007-.3.274-.547.502-.023 1.316-1.055.898-.7 1.517-.211.445-2.327 4.899-2.152 2.3-1.542-3.565-.499-2.592-2.347-.6-2.551.061-1.188.43-.387.725-.837-4.817-1.15-3.138-.166-1.493 3.874 1.31.706-.945.015-.028 2.015-3.613 1.489-.018 1.202-2.01.519-.035.425-.193.115-.052-.093-1.437 1.121-2.325 4.573-2.125.087-1.233 2.804-.925.342-.402 2.799 1.012 2.03-.445 4.174 3.068-1.23 1.014 2.173 1.21-.895 1.86-1.478.34.135.56 2.822-.344.06.004.763-.492 4.249.9 2.49-1.965.95-1.713 2.037-.509 2.095-.967.817-.376 2.856.247.6.05.44.136 1.106-1.279-.199-4.013-.958-2.909-2.588 2.249-.996-.211-.507-2.831-1.216-.615.985-1.675-.721-4.647.647-1.633-1.29-3.071-.543.543-.352-.281-.293-1.86.907-1.414.663-3.22 1.303.936 1.252.043.394.013 3.452-1.188.346-.624.16-.29 1.543.02 1.17.262.267.06.25-.345 1.065-1.475.583-.055.607-.055-.508-1.271-.06-.042-.597-1.346-.226-.82-.515-1.877-.564-.823-.498-3.251-1.262-1.777 1.647-1.837 1.18-1.19-.414-4.196.62-1.361 3.357-2.208 3.902-4.193.712-2.834-.741-2.17-1.04-4.272-.37-4.392.26-1.862-2.752-2.167.522-.9.537-.511 1.935.66.493-.228-.015-7.73.514-1.566.27-.484.507-1.089 2.694-.425 1.097-1.124-.165-1.549 1.208-1.02.153-1.385 1.48.125 1.053-.51 1.543.653 2.81 3.36-.214.862 1.616-.02 1.389-.192 2.44-1.964 1.308.062 1.981.112 1.033.487.308-.364.769.15.875.439 1.342-.73 1.36-.143 2.258-1.978.909-.152-.255-1.21 1.424-2.032.765-3.83 2.463-.964 7.252-.18.492-1.023 1.247.341 1.503-.736.425-1.448.846-.436 1.013-3.536-.714.197-.345-.58.344-1.931-1.644-2.808-.621-4.249 2.198-.607.323-1.785 2.158-2.741.631-2.071-1.081-3.573 1.77-.258.136-1.506.478-.633.566-.111 4.582-1.84.295.327 1.08-.619.513-.169.604-.206 1.29-.881.488-.527-.537-1.585 1.706-1.094 4.176-.715-.293-.664.993-1.059 1.152-.412.323-.706-.324-.462 1.309-.59.542-1.018 1.732-.53.696-1.22-.228-.79 1.384-1.993 3.032-2.088-.144-1.582-.357-.943-.818-.62-.759.02-2.063-1.302.014-1.911.456-.993.566-1.535-.228-1.362-.926-1.023-.447-1.953.19-2.346 1.68-2.308.84-3.046-.509-1.498.046-3.656-.672-.507 1.159-1.286.517.945-.305.335.091.777 1.433.62-1.124.374 1.192 1.827 1.85.473.583-.214.524.895.374-1.302-.271-.685.63-.155 1.143 2.305-.093-1.217.177-.442.476.227.998.236-.034-.757-.606-.218.526-.582-.377-.486-.522.868.09-.794-.421-.202 1.32-.117.257-.61-1.546-.099.726-.8-.578-.58.492-.668-.657-.222.925-1.153.369.323.58 1.473 1.134-1.33.114 1.248.545.554-.365.036.389.688-.491 1.21.786.7-.186.87.411.318.428-.118.025-1.648 1.38.573-.05-.587-.624-.302h1.082l-.03-.799.502-.619-.31-1.005.61-.402-.046 1.097.647.221.404-.416 1.041.337 1.015-.562.167.487.324-.134-.31-1.193.622.338.54-.474 1.064.1.57-.826.267-1.719.568-.555 2.576-.05.464-.308.325-1.296 1.352-.213.716-.578-.2-1.991.664-.935-.516-2.313.87-1.742-.576-1.986 1.679-.994.75-2.152 2.284-.69 1.94.81.742-.468.022-.527 1.352-.31.219.38.929-1.081 1.55-.598.636.267.082-.365.727-.036 1.728.455.293-.435-.128-.23 1.426-1.218.095-.017 2.015.055.644-.982.926-.998 1.239-.743 1.446-.869.847.346.221.09.797.38.413-.163 1.205-.198.178-.092 1.986-1.034.104-.04 2.713.388.508.121 2.456 1.753 1.883-.588.491.116 2.32 1.314.11.314-.787 3.39-.764 2.078 1.086 4.329.322.04.097.302.447 1.859 1.147 1.867.804.36.345.41.504.22.305.526.675-.29 5.265.14 1.63.7 1.786-2.647.312-1.092.587-2.049 1.53-3.118-.754-1.33-.37-.238-.129-1.044 7.108-1.464.44.14 1.517-.185 1.447.01 2.213.018.62 1.063.303.504 1.222 1.054.566.693.26.02.34.294.553-.22.997.084 1.935 1.34.014.019.055.029 1.537 1.064 5.21 1.486.315.044 1.457.604 2.023-.114.194.028.076-.043.308-.017 1.47-.564.123-.185.323-.48 1.198-.672.452.232.976.546.408.765.156.29 1.288.702 1.051 1.102 2.28 2.494 1.26 6.336-.018 1.258-.041.063-.86.5-.082.047-.349.745.197.54-.097 3.518-.122.309.105.306-.168 6.094-1.508.66-1.722 1.702-.102.1-.103.075-.002.03-.415.41-.004.567-.026 2.979-.617 1.039.438 1.943-.025.276-1.052.221-.122.132-.034.006-.138.023-.205.379-.92.993.113.488-.277.511.553.679.237 1.023-.211.407-.708 1.364.004.552.008 1.006-.174.581-1.75.944-.216.116-.07.26-.137.51-.325.25-.081 1.065-1.126.86-.538.229-2.075.88.125.243.203.395-4.256 3.253-.509.157-1.526 1.602-.378.396-.468 1.562.265 1.54 3.682 5.56 2.043 3.085 1.294 2.093 17.192 4.693 1.312.358 1.466.468.206-.782.087-.05 1.331-5.218.919-1.976-.36-.452.135-1.627.09-.329-.024-.46.344-4.132.407-1.084-.635-.852-.557-2.76.017-.064.642-.972 1.933-2.023.393-1.46.45-.248 2.385-1.25.218-.047 4.979-.77 1.536-.03.884-.31.175-.063 3.093-.479.3.019-2.24 2.429-2.075 2.156-2.288 3.322-.912 2.302-.41 1.035-.513 2.542-.21.58.083.048-.1.494 2.918 1.632 1.123.213.044-.026 4.197 2.434 1.468 2.151.487 1.18.348.045.104.153 3.212.375 2.948-2.93.914-.838 4.13 1.024.061.049.026.157.076.474.978.947 1.336.936 3.425 2.398.641.448.577.404.83-.457.344-.19.2-.007.048-.13.045-.024.016-.143.195-.534.8.32 5.617 3.523.252 3.17.504.714.19 1.233.33-.497.17.242.478-.313.88.346.566-.475 2.304-1.937.37-.628 1.32-.863.015.022 1.468 2.004 2.117.414.017.012 3.144.686-.053.535-.238.38-.196.313-.146 1.35 1.151.48.41-.224.033.021 1.682 1.089.976.17 1.94.34 2.145-.008 2.029.265 3.253.961 1.254-.374 1.435.188.974.522.778.774.373.626.051.118 1.094 2.471.938.921.73.277 3.957 2.77.158.484.941.455.796.212 4.13 1.653.947.67 2.4.234 2.004-.424.262-.156.151.006.327-.29.558-.332-.036-.13 2.317-2.051 1.916.44.238.113.453 1.212.243.652 2.81.067 1.017.416.447-.08 3.134 1.054.053.027 4.251-.227 1.482-.294.122-.144.718-.081.584.068.251.153 2.776.5 1.77-.089.082.01.024-.014.679-.034 1.841-1.555 3.712-2.341 2.403-.263.614-.494.424-.34.638-.196 3.12.48 1.954 3.822.151 1.1.006.044.082.047.521.295.095.185 1.639.824.225.94-.524.97.594.201-.32 1.837.312.4-.28.254-.078.07.197.3.164.248-.01.12 1.205 2.34-.17.487-3.78.015-.392-.817-1.737-.79-6.772.843-1.513.941.192.46-2.76 2.814-1.81 1.077-.968.089-1.313 1.012-.31 2.237.277 1.242 1.277.305-.598 1.036-.017 1.886.368.507-1.203 1.317.334.974-.561.57-1.35.107-2.375 1.703-.895 2.608-3.54 1.838-.096 4.102.578 1.349-.026 1.642.771 4.84-2.038 1.61.088 1.13 2.3 1.942.54 1.897-2.735 5.211-.715-.104-.17.603-.32 1.142-1.93 1.328-3.62-1.106-1.249-.03-.53.584-.8.1-.144 2.355.398 1.757-.38 1.278-4.987-.39-.406 1.555-1.253 1.02-.38-.182-.898.561.087 1.33-.659 1.415-1.312 1.014-.476 2.372-.554.798-1.604-.335-.675.271-2.397 2.418-2.262-.29-1.06.745-.968-.132-3.062.816-3.489-.702-2.543.669-.478 1.075.235.502-2.309.982.538 3.041.987 1.827-1.624 3.46.038 1.954.603 1.862-.33-.018-.077 1.022-3.345 1.798-1.201.18-2.469.076-4.102-1.456-3.606.084-3.912.322-5.329-.972-1.954.201-.512 1.818.082 2.78-.764 6.667-.847-.998-2.163-1.003-.67.194-.572.49-.559-.099-.287 2.207 1.09.57 1.313.263 2.58 1.69-.8 1.065-1.722-.379-4.163 3.182-2.358 2.412-.923.192-.542 2.322.058 3.683.701 1.805-.415.867-.902-.38-.266.386-2.37.144-1.786 2.102-1.379-.337-1.874-1.6-.675.043-2.894-1.394-.192-.653-1.776-.48-5.321 10.328-.241 2.399-.976 1.194 1.363.73.174 3.045 1.025-.12 1.62.96-.122 1.635.665 2.43-2.065 4.46.1.982-1.93 2.149-5.778 2.475-5.99 7.676-.195 2.874-.132 1.921-1.182 2.163-.434 2.504-1.63 3.437-.586.94.621 1.199 1.465 1.318 1.996-.899 1.282.312.548 2.105.917 1.142-.64.64.8 1.16-1.908 2.987-1.301.918-2.072.91-1.498 1.824-3.711 5.403-1.938 3.642-3.203 3.37-.309.404.246.716 1.849 3.163-.339 1.946-.94.808.122 1.727-1.092 2.231-.027 3.313-3.752 7.139-.247 3.105.925 2.9 4.138 3.513.782 3.36-.553 1.993.033 2.178-.983 2.872.951.411.313 1.656-1.222 4.172-.41 2.176.252.746 7.316 5.848.406 4.37 1.267 1.951 1.625 3.97 1.345.596 3.924-.613 4.223.246-.49 2.215 1.047.925-.008.927 1.108 2.162-1.1 1.625.757 1.063-5.322 4.543-2.58 3.027-.355 1.709-2.973 4.004-2.525 4.615-2.079 6.68-1.286.74-1.378.772 1.358 2.012-.489 2.143-3.344 1.354-1.51 1.155.29.385-1.128 1.821-.024 1.117-.779 1.572-1.143.611-.562 1.02-.805.155-3.303-.432-1.011-.584-2.862.21-4.7-2.7-6.338.104-.992 2.556-1.543.303-2.371 1.509-7.981-1.199-4.967-2.164-3.664-1.86-2.905-5.403-1.79-2.01-6.178-2.297-2.31-1.906-1.242.944.322.567-1.242.118-.205-.742-2.627-1.228-.21 1.121-1.194 1.675.154.39-1.065.76-1.597-.691-1.715.551-.833-1-2.455.082-2.847-1.446-1.5-.661-1.241-1.345-6.181-8.339-1.634.085-2.572 1.419-1.589.349-1.455-.882-2.644-1.648-3.406.73-1.913.169-1.519-2.768-1.552-1.16Z" fill="#eee" fill-opacity="1" stroke="#000" stroke-linecap="butt" stroke-linejoin="miter" stroke-miterlimit="10" stroke-opacity="1" stroke-width=".4" clip-path="none" paint-order="fill"/><path d="M790 261.5h10v10h-10v-10Z" fill="none" clip-path="none" paint-order="fill"/><defs><filter id="a" width="1000%" height="1000%" x="-100%" y="-100%"><feOffset dx="-9.8" dy="9.8" in="SourceGraphic" result="offOut"/><feColorMatrix in="offOut" result="matrixOut" type="matrix" values="0.2 0 0 0 0 0 0.2 0 0 0 0 0 0.2 0 0 0 0 0 1 0"/><feGaussianBlur in="matrixOut" result="blurOut" stdDeviation="8"/><feBlend in="SourceGraphic" in2="blurOut" mode="normal"/></filter></defs><text class="maplabels1" font-family="Tahoma" font-size="18" transform="translate(357.504 244.5)">Navarra</text></svg>