<svg xmlns="http://www.w3.org/2000/svg" baseProfile="full" width="800" height="533" style="background-color:false" xmlns:v="https://vecta.io/nano"><use href="#B" paint-order="fill" clip-path="none" filter="url(#A)"/><use href="#B" fill="#eee" stroke="#000" stroke-width=".4" paint-order="fill" stroke-miterlimit="10" clip-path="none"/><defs><filter id="A" x="-100%" y="-100%" width="1000%" height="1000%"><feOffset in="SourceGraphic" dx="-9.799999999999999" dy="9.799999999999999"/><feColorMatrix values="0.2 0 0 0 0 0 0.2 0 0 0 0 0 0.2 0 0 0 0 0 1 0"/><feGaussianBlur stdDeviation="8"/><feBlend in="SourceGraphic"/></filter><path id="B" d="M288.672 428.574l-.914 1.454-5.151 2.827-5.978-1.966-4-5.442-4.196-2.608-1.948.828-4.425-1.208-3.019.488-8.356 3.686-.961-1.655-.19-2.134-3.06-5.154.287-3.59-1.096-1.503 8.399-10.026 1.709-6.037 3.188-3.252.793-3.393 1.31-.709 6.222-8.055.359-2.454-1.243-3.449.707-2.944 1.209-.667-.286-1.854-6.826-5.858-2.754-4.223-4.364-1.143-3.502.512-2.102 3.622-6.266-4.154-4.147.772-3.207 5.509-4.163 3.158-.729 4.532 1.346 1.998.027 1.993-5.806 8.055.056 1.378 2.091 1.615.719 1.66.827 5.279-1.51 2.483.174 7.31-2.738.333-3.706 5.653-1.105.022-3.762-2.599-4.397 1.68-2.899 2.125-1.907.043-5.341 3.297-.669 3.61-1.778 2.02-2.445.837-.714 1.669-3.163 1.821-.766.275-2.36 1.121-2.501-.537-.733-3.872-9.871-3.427-.708-9.487-2.284-5.97-1.1-7.019-1.757-3.127-.479-4.431-1.958-4.002.566-3.447-1.829-1.543-2.334.087-6.439 2.105-1.48-.139-.83.908-8.311.134-6.051-1.991-4.711 2.461-4.738-2.988-3.861-.497-4.801 1.939-5.966-14.345-4.845-9.699-3.174-3.727-3.29-1.481-4.469 1.402-1.044-1.23-1.971-7.643.376-6.306-4.392-4.717 1.421-1.212-2.355-.306.084-1.089-3.24-2.599-1.486.25-1.094-1.738-.156-5.55-4.308-2.912-1.88-3.648.234-.866 4.445-2.091 2.376-2.941 3.228-1.317 2-3.156.797-5.925-1.245-2.919 4.459-7.33 1.652-.582-4.015-10.185 3.561-5.838-2.879-3.505.138-4.941-3.395-10.817.419-1.785-1.779-2.143 1.44-4.796 2.341-.901.968-2.693-1.954-.866-4.566-5.977.506-4.469.124-3.331 9.536-.174 10.497-2.293.184-3.966-3.31-3.883-6.157-9.332-4.438.969-4.174-.977.429-2.886 2.827-4.856.551-3.854-1.386-1.948-.782-3.51-.299-1.342 2.213-.087 2.537-1.749.085-1.443 5.354 3.881-.029.74-.16 4.091-1.779 5.939 1.746 3.505 1.613-.139.66 3.516 2.487 3.297 1.514 3.917 2.956 1.89 2.001-1.935-1.26-6.876-3.524-11.218 2.242-3.304.424-2.684.247-1.566-2.596-4.545 2.467-5.277 5.14-6.594-4.073-6.245-2.517-3.626-1.416-5.252-4.005-3.246-3.953 1.172-.21-.857-2.87-1.718-.491.579-.444-4.914-1.124-.02-.312-1.04.635-2.024 6.139-4.436 1.725-4.337.611-5.382-.928-2.655 1.896-4.384-2.063-2.671-2.114.615-1.227-.59.605-.892-.645-.944-2.261-1.736-3.291 2.168-1.377-.933-3.315 4.34-4.372-2.049-3.487-.497L80 113.876l3.491-1.029 5.023-4.38 4.166-1.552.745.479-.217-2.159.797-1.548 6.22-4.501 2.605-4.055-1.688-4.803 3.028-.859 4.927-3.071 3.64-.161-2.254-2.528.148-2.805 1.853-1.358-.006-1.152-2.13-2.306-2.286-8.748-3.401-1.36-.585-1.382-3.026-.953 2.347-2.109-1.617-2.364.26-3.129 6.508 1.116 12.563-.747 4.993 1.08 5.022 3.537 1.544-4.805 1.657-.749.885.47 1.744-2.002 4.238 1.364 2.274-.228 1.754 3.516 2.606.593.935-.756.89-1.494 2.415-1.139 7.81 1.485 2.719-.441 5.712 2.823 4.074 7.487 3.604 1.297 5.089-.376-.012-3.711 5.15-.711 1.001 1.157-1.548 2.581 5.212.353-.608-2.17 3.18-3.856 5.371-1.322 2.633-2.899 6.684 5.042-.082 3.604-2.2 3.68 1.606 1.678 1.157 3.355 3.277-.342 6.354-3.118.203 3.156-1.849 4.492 2.047 1.06-.214 4.402-1.264 1.81-8.102 4.362 1.365 6.151 4.031 4.357 1.543 5.131 2.154-.016 1.171-1.577.711-5.972 1.224-1.02 4.199 2.924 1.424-1.127.846-4.259 3.939-2.615 3.909-.799 1.236-1.317-.525-1.745 3.078-6.713-.851-6.328 3.485-7.675.948-1.573 3.125 2.248 3.162-2.767 3.805.687 1.71 1.774 2.774 1.118 1.06 2.353 4.039 4.311 5.568 3.767 9.344 2.854 1.454-.253.54.514-2.427 6.693-.448 13.717-1.913 9.938-3.38 8.952-2.807 6.292 4.843-.982 4.036-1.056 1.647-2.044 2.542-1.174-.688 9.155.72.642 3.214-.436 1.146-.049 4.071 3.4 1.14 4.995 1.8 5.907.926 1.286 1.342.085 2.274-.825 3.765-3.326 1.048-3.17 8.098-.159.715-1.66 1.373-2.825 5.78 6.861-.654 1.237-1.985.81-1.156 2.212-.672 2.975.819 2.355 1.577 1.485 1.8.4 2.483-1.087-2.144-3.613.291-1.367 5.902-.219 1.549-4.713 3.06-1.807 4.693 5.252 3.502.403 5.139.635 3.266-.335.208-.848-3.687-2.751-.073-2.329 8.086-8.156 2.455-6.046 1.842-1.049 1.092.767.828 3.102-2.096 4.968-3.497 3.138-.473 2.302.88 2.38 1.076.897 16.546 1.926 1.99-3.322 10.287-2.575 4.653 4.371 7.871.078 2.237-.745 6.792 11.014 1.907-.991 2.523 1.666 2.642.11 3.24-1.879 2.335 1.756.181 3.68 3.476 1.559 2.19-3.116 2.583.828 2.001 7.592.817.767 1.483-.221 4.675-1.324.187-1.98-2.199-4.008 1.949-2.264 2.696-.045 3.962 3.541 3.535.15 5.001 2.566 1.852-1.474-1.629-2.881.016-1.897 3.901.461.152 4.093 3.828 2.711.821 4.684 1.463 1.528 1.961.17 2.112-2.948 3.068 1.351 8.63 4.237.781 1.718-2.204 4.317 1.591 1.508 2.186 1.165 5.861-.105 2.172.879 1.14.993.161 1.729-2.176 2.304 2.391.465 2.574-.32 2.677-2.241 1.914-.098 1.052.787 2.399-.47 2.024 1.423.574 1.127 1.911 3.756 5.984-.264 1.954-.984.83-2.507.56-1.691 1.526-.743 1.663 1.501 3.658-2.635 2.949-.367 2.264 1.255.36-.754 6.929.459 2.714 2.118-.412.857-4.223 8.768 2.506 3.55 9.839 5.773-2.316 4.577 6.087 4.14-.004 1.331-3.695 3.879-1.166 2.577.031 4.99 8.786 2.608 3.605-2.977 4.412-2.107 2.581-2.933.125-1.662 7.324-2.116 4.148-3.431 2.051-.483 1.517.839 2.11 4.044 4.873-1.539 1.896 2.246 3.637 1.738 1.889 4.062 2.868-2.221 1.113.689.605 1.15-.785 1.727 2.363 2.843-1.84 2.398 2.116 2.897 3.093-1.103 6.249.161 4.692 7.63 4.258-2.814 1.712.085.903 1.543-1.283 4.297 1.371 2.114 3.046 1.333.999 1.555-.255 1.597-3.067 2.823 8.041 5.559 5.264 2.154 2.059.405 2.994-1.713.973.615.393 4.514 1.511 3.078-.742 4.411-3.599 5.572 1.546 3.536 7.443 1.942 1.166-1.456-.054-3.451.784-.781 1.106.253 2.487 3.306 3.891 2.805 1.753 2.369 1.121.248 1.281-.881.435-1.704 1.499-.434 1.008 1.83-.652 7.695 1.299 2.015 4.607.971 2.798 2.962 4.291-.078 1.182-1.387 3.359.586 3.033 5.471 1.555.349 1.056-.781.387-3.492 11.199 5.503 1.864-1.776 4.044 1.725.856-1.275 7.394 2.861 1.239 1.546-.437 2.832 1.621 3.733-.535 2.226 1.788.461.543-1.409 4.78.566 1.034-.763 1.877.917.977 2.183.098.219-.208.123-7.682 4.536-1.737 4.252.635 3.675 2.688 5.205 2.876.946 3.141 2.742-4.667 1.93-6.277 5.36-6.752 3.409-2.476-4.879-6.253-4.675-10.981-.398-2.44 3.076-4.471 2.297.625 2.08-1.309-.018-7.588-2.331-.497-2.114-1.837-1.416-7.51-3.425-4.748 3.129-2.505 3.675.309 4.608-1.261 3.507-8.436 7.708-2.093 4.554-3.135 2.168-.492 1.454-8.936 9.402-1.999 3.196-3.725 7.326-.22 3.894-1.29.758.939 1.772 1.673.924-.787 2.921 1.545 11.65 1.698.535.622 1.174 4.256-.421 1.616.676-.137 1.219 4.945 6.787 3.159-1.411 1.028 2.877.899.306-.171 1.704 2.468 2.429 2.724-1.552.813-1.611.068 3.223-1.888 2.599 3.202 6.294-9.298 5.709 3.803 6.567-9.257 8.189-5.766 2.72-7.02 1.295.687 1.519-2.681 1.387-1.744 4.914-2.78-1.181-3.53 2.771-1.374-.514-1.182 2.029-2.732.897-5.857-1.181-2.852 4.185-9.124.611-7.15-6.713-1.315-4.572-5.162-1.349-1.326-2.367-1.524.217-.823-2.297-2.961-2.774-.765.038-.33 2.933-1.624.953.314 1.673-1.012-.096-.204 2.543-3.52-3.968-.394-2.286-2.621-.467-4.832-2.091-6.146 2.083-.947-.262-.771-1.774-2.685-.022-2.152-1.136-4.098.622-4.187-1.523-2.698-3.344.419-1.481-.505-5.049-1.326-1.132-.261-5.574-1.835-5.375 2.045-1.029 3.218.027 1.968-3.375-3.346-5.089-.778-5.896-5.23-2.74-7.033-9.037-2.494-.333.282-1.682-2.129-1.177-1.862-5.174.2-2.4-1.482-3.975 4.532-1.264 4.173-3.123 2.953-.246 3.663-3.671.112-4.196-.704-.922.482-4.424-4.145-3.469-.829.45-4.169-1.25-12.093-.186-10.075 1.34-4.558-1.277-3.402 2.669-3.282 1.147-2.928-1.944-3.123-.441-9.257 8.762-4.705-.749-5.346-11.632.497-3.492-.86-2.626 1.609-2.116-1.428-5.436-2.74-1.93-8.547-3.078-3.482-2.49-1.492-.429-3.408.908-2.314-1.38-5.213.309-1.841-.707-1.259 1.069-8.629.85-2.42 1.206-5.142-.649-4.111 3.246-1.841-1.539-7.138.324-4.105 1.886-5.056-.859-1.232.459-2.299 2.498-.898 4.769-2.203 1.66-2.23 3.487-5.786.593-1.16 1.899-4.379 2.767-2.627-2.7-2.446-1.17-2.289.309-3.256-1.772-2.71.528-.795 2.168.105 4.8-1.382 2.727.497 4.246-1.451 1.892-.483 2.733 1.429 1.123 2.051 3.955-.06 3.143-7.752 7.995-1.269.633-1.82-.49-4.193 2.038-1.304 3.46.33 3.959-2.085 2.349-4.079 12.253-4.377 4.277-2.049 6.096-7.343-3.331-5.754-.566-2.381-1.684-4.119.503-.951-.928-10.283 1.59-4.298-.922z"/></defs><text transform="translate(337.031 266.5)" font-family="Tahoma" font-size="18">La Rioja</text><text x="643" y="519.333" font-size="11">Created with paintmaps.com</text></svg>