<svg xmlns="http://www.w3.org/2000/svg" width="800" height="533" baseProfile="full" style="background-color:false" xmlns:v="https://vecta.io/nano"><style><![CDATA[.B{font-family:&quot;Tahoma&quot;}]]></style><use href="#B" paint-order="fill" filter="url(#A)"/><use href="#C" paint-order="fill" filter="url(#A)"/><g fill="#eee" stroke="#000" stroke-miterlimit="10" stroke-width=".4"><use href="#B" paint-order="fill"/><use href="#C" paint-order="fill"/></g><defs><filter id="A" width="1000%" height="1000%" x="-100%" y="-100%"><feOffset dx="-9.8" dy="9.8" in="SourceGraphic"/><feColorMatrix values="0.2 0 0 0 0 0 0.2 0 0 0 0 0 0.2 0 0 0 0 0 1 0"/><feGaussianBlur stdDeviation="8"/><feBlend in="SourceGraphic"/></filter><path id="B" d="M395.87 433.649v.04h.09v.04h.06v.04h.06v.08h-.09v-.04h-.06v-.04h-.09v-.04h-.061v.04h-.12v.04h-.091v-.08h.06v-.04h.12v-.04zm-3.199-.805v.04h.363v.04h.12v-.04h.151v.04h.06v.04h.151v-.04h.03v-.04h.091v.04h.03v.081h.027l.003.04h.029l.002.04h.21v-.04H394v.04h.12v-.04h.06v-.04h.122v.034l.03.006v.04h.09v.04h.091v.04h.12v.041h.03v.04h.03v.04h.061v.04h.211v.04h.06v.041h.031v.04h.03v.04h.03v.04h.03v.041h-.03v.04h-.03v-.04h-.09v-.04h-.09v-.04h-.061v-.04h-.06v.04h-.091v.04h-.09v.04h-.121v.033l-.04.005-.02.002v.04h-.091v-.04l-.02-.002-.04-.006v-.032h-.03v-.04h-.182v.04h-.09v-.04h-.06v.04h-.09v-.04h-.031v-.04h-.06v-.04h-.03v-.04h-.03v-.041h-.03v-.12h-.031v-.04h-.03v-.041h-.03v-.04h-.03v-.04h-.091v.04h-.03v.034l-.022.004-.008.042h-.03v.04h-.333v-.04h-.06v-.04h-.03v-.04h-.03v-.08h-.03v-.04h-.151v.04h-.09v-.04h-.061v-.122h.06v-.04zm45.012-53.378v.04h-.03v-.04h-.03v.04h-.03v-.04h-.03v-.08h.06v-.04h.09v-.04h.09v.08h-.03v.08zm-6.396 4.747v.04h.15v.04h.031v.04h.06v.08h.03v.082h-.03v.08h-.06v.04h-.09v-.04h-.121v-.08h-.09v.04h-.06v-.04h-.031v-.081h.03v-.04h.06v-.04h.06v-.081h.03v-.04zm39.4-36.766v.162h.03v.04h-.03v.322h-.03v.04h-.03v.04h-.332v-.12h-.03v-.202h.03v-.12h.03v-.081h.03v-.04h.272v-.04zM363.86 473.108v.161h-.03v.04h-.03v.081h.026l.004.161h-.03v.122h-.03v.08h-.03v.12h-.031v.04h-.03v.121h.03v.04h-.03v.201h.03v.201h.03v.04h.03v.08h.03v.242h-.03v.04h-.03v.04h-.03V475h-.03v.161h-.03v.402h.03v.12h-.09v.041h-.061v.04h-.09v.081h-.03v.04h.03v.04h-.03v.201h.03v.162h-.03v.12h-.03v.04h-.031v.04h-.03v.041h-.03v.04h-.03v.04h-.06v-.04h-.061v-.04h-.03v-.161h-.03v-.04h-.091v.04h-.03v.04h-.03v.04h-.03v.04h-.03v.161h-.03v.04h-.03v.322h-.031v.08h-.03v.082h.03v.04h-.03v.16h-.03v.282h-.03v.161h.03v.04h-.03v.08h.03v.202h-.03v.12h.03v.04h-.03v.162h.03v.04h.03v.08h.03v.162h-.03v.04h.025l.005.08h.03v.12h-.03v.08h-.03v.162h-.03v.055l-.912.422-1.182-.113-.948-.515-1.431-1.538-2.893-.764-1.21-1.148-.009-.01-1.068-1.375-.642-.502-4.665-5.49-2.297-3.094-1.397-3.532-2.702-4.363-.755-1.98-1.73-2.402-1.811-3.206-.868-.515-.413-.661-1.285-2.268-.878-3.167-.03-2.718-.657-3.12 3.025-4.264.427-.765.592-1.66 1.158-2.313 1.356-5.969.918-2.182.044-2.362-.472-2.683-1.361-2.37-.52-1.952-4.241-2.626-3.293-1.055-2.827-.077-.399-3.072.147-4.426-.173-.759.366-3.703.97-.373-1.962-.962 1.342-.512 1.484-1.229 2.861-2.807 3.027-3.96-1.338-3.682 1.08-2.108.77-3.173.831-2.01-1.158-4.767-.422-4.252-.87-.716-.218-2.26 1.218-.237.441.105.191-.246 1.905.464 3.158-.27 3.254-2.982 1.815-2.67-1.182-1.44-.214-.516.1-.523-1.11-1.858-.17-.844-.695-.721-1.685-5.513 1.24-.184 2.288-1.126 1.524.351-.288.754.471.956.977.37 1.84-.319.516-.405 2.264.168.165.22 2.68 4.16-.224.6.318.589.478-.008.663-.55.728-.242.97.048.2.334.607-.268.912-.29.55-1.068.42-.262.45.241.989-.568.514-.063.465.287 1.02-.914.946-.037-.26-.435.105-.09.828.375.242-.402.32.461-.438.387.297.273 1.203-.286.545.45.97 1.746.116.68 1.999-1.08 1.187 1.73.2.052.538-.387 1.94.158 1.06.403-.013 1.366.385 1.717-.279.31.485.964.916 1.135.107.476 1.156-.014.119-.4.872-.726 1.644-.79 1.046-1.257 3.576-1.238 1.769-2.307 1.129-.364.134-.362.808-.238.397-.543.554.069-.038-1.78-1.456-.207-.47-.506-.07-.536-.617-.483-1.123.495.006.295-1.59.618-.046.322-.33.206-.622-.228-1.114-1.276-.908-.597-.653-1.368.037-.932-.691-.879.275-.175-.158-.517 1.628-.836 1.371-.12.804-.35 1.296-.222 1.408-.682.486-.017.564-.015 1.065.543 3.95.316.208-.093.331.208 1.37-.55.056-.407.154-.67.695-.317.494-.26.168-.09.342-.116.104.205.334-.687.54-.228.332-.148.077-.019 2.983-.952-.031-.839.232-.125.562.344 1.593.415 1.401-1.234 1.553-.974.416-.947.157-.146-.375-.179.518-.401.416-.06 1.097-.337 1.192.086.133-.44.437-.216.273-.731.347-.277.207-.945 1.255-.027 1.187 1.366 1.623 1.193 1.423.593 1.628.16.346-.253.308.437.947.588 3.717-.861-.143-.996 1.908-1.802 1.358-.163.568-.427.163-.66.768 2.246-.145 1.651.762.297 4.994-2.403.777.05.31.456.263-1.127.756-.078.3-.22.197.105-.062-.503.877-.232.286.311.413 1.33.785.772 1.202.648.406 1.177.866-.089.764-.718-.138-.755.086-.435.307-.302-.194-.242-.298.01-.438-.772-.407-.19-.063-.736h.03v.04h.09v.04h.181v.04h.06v.081h.031v.04h.03v.08h.09v.04h.06v.041h.061v.04h.03v.04h.03v.04h.03v.041h.061v.04h.03v.04h.06v.04h.06v.04h.031v.041h.03v.04h.12v.04h.031v.121h.03v.04h.09v.04h.122v.041h.03v.04h.06v.04h.06v.04h.03v.04h.03v.041h.03v.04h.031v.04h.03v.04h.03v.04h.06v.041h.061v.04h.18v.04h.031v.121h.03v.08l.12.001v.04h.031v.04h.09v.04h.121v.12h.03v.081h.151v.04h.06v-.04h.272v.04h.03v.041h.06v.04h.091v.04h.12v.04h.212v.04h.181v.041h.03v.04h.181v.04h.151v.04h.06v.04h.181v.041h.151v.04h.06v.04h.091v.04h.302v.041h.12v.04h.091v.04h.09v.041h.03v.04h.06v.04h.182v.04h.03v.04h.06v.041h.121v.04h.09v.04h.333v-.04h.06v-.04h.09v-.04h.03v-.04h.03v-.04h.091v.04h.12v.04h.061v.04h.09v.04h.061v.04h.03v.04h.06v.04h.06v.041h.152v.04h.06v.04h.06v.04h.06v.04h.03v.041h.091v.04h.151v.04h.09v.04h.061v.041h.06v.04h.151v.04h.03v.04h.302v-.04h.604v-.04h.181v-.04h.272v-.04h.03v-.04h.03v-.04h.03v-.201h.03v-.081h.332v-.04h.091v.04h.272v.04h.06v.04h.12v.04h.061v.04h.09v.04h.06v.041h.061v.04h.06v.04h.272v.04h.06v.041h.09v.04h.061v.04h.09v.04h.091v.04h.09v.041h.091v.04h.12v.04h.152v.041h.09v.04h.151v.04h.15v.04h.061v.04h.181v.041h.09v.04h.091v.04h.211v.04h.03v.04h.302v.041h.242v.04h.12v.04h.453v.04h.06v.04h.06v.041h.182v.04h.09v.04h.06v.04h.12v.041h.061v.04h.121v.04h.09v.041h.03v.04h.061v.04h.06v.04h.09v.04h.031v.041h.03v.04h.06v.08h.03v.081h.031v.04h.03v.04h.03v.04h.03v.04h.09v.041h.182v.04h.241v.04h.181v.04h.06v-.04h.152v-.04h.09v-.04h.03v-.04h.03v-.08h.03v-.04h.06v.04h.061v.12h-.03v.12h.03v.04h.06v.041h.03v.04h.061v.04h.03v.04h.12v.041h.091v.04h.392v-.04h.03v-.04h.091v-.04h.03v-.04h.03v-.04h.06v-.041h.061v-.04h.03v-.04h.03v-.04h.03v-.04h.06v-.041h.031v-.04h.09v.12h-.06v.04h-.03v.04h-.06v.04h-.06v.041h-.03v.04h-.091v.04h-.03v.04h-.03v.041h-.03v.08h-.03v.161h-.061v-.04h-.09v-.04h-.151v.04h-.03v.04h-.03v.04h.03v.081h.03v.08h-.06v.04h-.031v.041h-.12v-.04h-.03v-.04h-.031v-.04h-.03v-.04h-.03v-.041h-.06v-.04h-.03v-.04h-.031v-.04h-.03v-.04h-.03v-.041h-.03v-.04h-.03v-.04h-.061v-.041h-.03v-.04h-.03v.04h-.03v.04h.03v.081h.03v.04h.03v.04h.03v.121h-.03v.04h-.03v.04h.03v.04h.03v.04h.06v.041h.03v.08h.03v.04h.061v.04h.03v.041h.06v.04h.061v.04h.06v-.04h.03v.04h.03v.04h.03v.04h.03v.041h.061v.04h.06v.04h.03v.041h.091v-.04h.03v-.04h-.03v-.04h-.06v-.041h-.03v-.04h-.03v-.04h.03v-.04h.03v-.121h-.03v-.04h-.12v-.04h.12v-.04h.12v-.041h.03v-.04h.091v.04h.03v.08h.03v.08h-.03v.04h.03v.082h.03v.12h.03v.04h-.03v.161h-.03v.403h.03v.04h.03v.08h.031v.04h.03v.04h.053l.008.04h.03v.04h.03v.041h.181v.04h.151v.04h.03v.041h.241v-.04h.061v-.04h.09v-.04h.03v-.041h.03v-.04h.03v-.08h.03v-.201h.091v.04h.03v.04h.06v.04h.03v.04h.212v.04h.241v.04h.03v.04h.121v.122h.03v.04h.242v.04h.422v.04h.03v.04h.242v.04h.03v.04h.03v.121h.03v.121h.03v.08h.03v.081h.03v.04h.03v.04h.031v.04h.12v-.04h.091v-.04h.03v-.04h.121v.08h.03v.04h.12v.04h.031v.122h.03v.08h.03v.08h.03v.04h.03v.041h.152v.04h.09v.04h.03v.04h.03v.04h.06v.082h-.03v.12h.03v.04h.031v.04h.056l.004.04h.06v.041h.03v.04h.03v.04h.031v.04h.03v.041h.06v.04h.03v.04h.03v.04h.061v.04h.03v.041h.182v.04h.12v.04h.06v.04h.06v.04h.031v.041h.03v.04h.06v.04h.06v.04h.03v.041h.031v.04h.06v.04h.181v.08h.03v.041h.03v.04h.091v.04h.06v.041h.152v.04h.15v.04h.09v.04h.061v.04h.03v.041h.09v.04h.031v.04h.332v.04h.03v.04h.03v.041h.12v.04h.091v.04h-.03v.04h.03v.04h.03v.041h.121v.04h.03v-.04h.06v.04h.061v.04h.12v.081h.121v.04h.03v.12h-.03v.041h.03v.04h.061v.04h.15v.041h.091v.04h.03v.04h.03v.16h.06v-.039h.152v.04h.12v.08h.03v.081h.061v.04h.06v.08h.03v.04h.03v.041h-.03v.04h-.03v.04h-.03v.08h-.03v.04h-.06v.04h-.06v.041h-.152v-.04h-.03v.04h-.09v.04h-.03v-.04h-.09v.04h-.091v.04h-.03v.04h-.03v.04h-.061v-.04h-.09v-.04h-.151v.121h.03v.04h-.03v.04h-.03v.08h-.03v.041h-.031v.16h-.03v.121h-.03v.08h-.06v.041h-.061v-.08h.03l-.001-.031-.002-.05h-.027v-.04h-.03v-.04h-.03v.04h-.03v.04h-.272v.04h-.09v.04h-.03v.04h-.03v.283h-.031v.241h.03v.08h.03v.04h.061v.323h.022l.004.064.004.056h.03v.322h.03v.031l.09.01v.08h.03v.12h.031v.04h.03v.04h.03v.04h.03v.082h.03v.08h.03v.04h.031v.04h.06v.04h.03v.04h.03v.04h.061v.041h.03v.08h.03v.04h.03v.121h.03v.081h.031v.04h.03v.04h.03v.08h.03v.081h.03v.04h.03v.04h.031v.202h-.09v-.04h-.152v.04h-.03v.04h-.03v.12h.03v.041h.03v.04h.09v.04h.031v.081h.06v.04h.091v-.04h.03v-.04h.03v-.081h.03v-.08h.03v-.04h.03v-.04h.031v-.121h.03v.08h.03v.08h.03v.081h.03v.04h.03v.08h.031v.041h.09v.04h.03v.04h.061v.08h.03v.041h.06v.04h.091v.04h.06v.04h.06v.04h.03v.041h.031v.08h.03v.04h.03v.04h.03v.041h.03v.04h.03v.04h.031v.041h.03v.04h.03v.04h.03v.04h.03v.033l.031.008v.041h.03v.039h.06v.04h.03v.081h.03v.04h.061v.04h.061v.04h.03v.04h.03v.041h.03v.04h.03v.04h.06v.04h.055l.006.04h.06v.042h.03v.04h.061v.04h.03v.041h.12v-.04h.03v-.04h.121v-.04h.06v-.041h.03v-.04h.212v-.04h.12v.04h.03v.04h.031v.04h.12v.04h.061v.04h.03v.041h.151v-.04h.03v-.08h-.03v-.083h-.03v-.12h.03v-.041h-.03v-.04h.03v-.08h.12v.04h.091v-.04h.151v-.041h.181v.04h.03v.04h-.06v.04h-.03v.04h-.03v.041h-.03v.04h-.03v.04h-.03v.04h-.031v.04h.03v.041h.15v.121h-.12v.04h-.03v.04h-.03v.04h-.03v.081h-.06v.04h-.03v.08h-.03v.081h-.031v.04h.03v.04h.03v.04h.03v.041h.03v.04h.121v.04h-.03v.04h.03v.04h.09v.041h.121v.04h.03v.081h.03v.04h.061v.08h-.181v.04h-.03v.08h-.06v.041h-.03v.282h.03v.201h.03v.04h.09v.04h.09v.04h-.03v.081h.03v.08h.031v.041h-.03v.04h.03v.04h.09v.04h.06v.04h.061v.041h.09v-.04h.03v-.04h.393v.08h.03v.04h-.06v.04h-.03v.121h-.03v.04h.03v.121h-.03v.241h-.03v.081h-.031v.04h.03v.04h.06v-.04h.151v-.04h.03v.04h.03v.04h-.03v.121h.03v.04h-.12v.12h.06v.082h.06v.12h-.03v.08h-.18v.04h-.03v.162h-.03v.08h-.031v.12h-.03v.121h.03v.08h-.06v.041h-.03v-.04h-.03v-.04h-.181v.04h-.061v-.04h-.06v-.04h-.03v.039h-.09v-.04h-.031v-.04h-.03v.04h-.03v.04h-.03v.04h-.091v.041h-.03v.08h-.06v-.04h-.06v.121h-.061v.04h-.03v.04h-.06v-.04h-.152v.04h-.12v-.04h-.03v-.04h-.09v.08h-.061v.121h-.03v.04h-.091v.12h.03v.081h.03v.04h.03v.041h.06v.08h.061v.08h-.03v.041h-.03v-.04h-.302v-.04h-.03v-.04h-.03v-.041h-.03v-.04h-.06v-.04h-.03v-.081h-.031v-.201h-.03v-.08h-.03v-.202h-.03v-.12h-.121v.12h-.15v-.04h-.061v-.04h-.272v-.04h-.12v.04h-.091v.04h-.06v.121h-.06v-.04h-.152v-.04h-.03v-.04h-.03v.04h-.03v.08h-.06v.08h-.06v.04h-.03v.04h-.092v.04h-.03v.082h-.03v.04h-.21v.08h.03v.04h.06v.081h.03v.08h.03v.04h.03v.04h.03v.041h.03v.04h.03v.04h-.03v.04h-.06v.04h-.18v-.12h-.031v.04h-.03v.04h-.06v.043h-.06v.04h-.152v-.04h-.03v.04h-.09v.04h-.03v-.04h-.091v.04h-.03v.04h-.03v.04h-.181v.04h-.06v.041h-.061v.04h-.06v.04h-.06v.08h-.061v.041h-.03v-.04h-.06v.08h-.03v.041h-.031v.08h-.03v.04h-.03v.04h-.09v-.08h-.031v-.04h-.06v-.04h-.09v.04h.03v.033l-.061.007v.121h-.03v.04h-.03v.04h-.03v.121h-.03v.201h-.06v.04h-.031v.08h-.091v.04h-.03v.041h-.03v.04h-.06v.08h-.03v.04h-.03v.041h-.091v.121h-.03v-.04h-.03v.04h-.06v.04h-.061v.04h-.03v.04h-.03v-.04h-.03v.04h-.061v.041h-.03v.04h-.06v-.04h-.182v-.04h-.03v.04h-.06v.04h-.03v.04h-.03v.04h-.121v.04h-.03v.042h-.06v.08h-.091v.16h.03v.161h-.03v.08h-.06v.081h-.06v.04h-.03v.121h-.031v.08h-.03v.121h-.06v.08h-.061v.04h-.06l-.004.115-.007.007h-.02v.04h-.029v.04h-.03v.04h-.03v.04h-.091v.081h-.031v.039h-.03v.04h-.03v.04h-.06v.039l-.121.002v.08h-.03v.04h-.03v.04h-.03v.041h-.03v-.04h-.121v.04h.03v.04h-.06v.04h-.03v.04h.03v.162h-.03v.16h-.06v.04h.03v.08h.06v.041h.03v.04h-.06v.04h.06v.162h-.03v.08h.03v.08h-.03v-.04h-.09v.161h.06v.04h-.03v.202h-.03v-.04h-.061v.08h.06v.04h-.06v.04h-.03v.04h.06v.161h-.091v.04h-.06v.04h-.03v.041h-.03v.04h.03v.072l-.03.009v.121h-.03v.08h-.03v.12h-.03v.04h-.091v.04h-.03v.041h-.061v.16h-.03v.082h-.121v.04h-.03v.08h-.09v-.04h-.03v-.04h-.06v-.04h-.031v-.081h.03v-.04h-.06v.04h-.03v-.683l.03-.001v-.16h-.09v-.041h-.03v-.04h-.122v.04h-.03v.04h-.09v.04h-.09v.04h-.091v.041h-.181v.04h-.151v.12h-.03v.041h-.513v-.04h-.03v-.121h-.03v-.04h-.362v.04h-.091v.04h-.06v.04h-.09v.04h-.061v.041h-.09v.04h-.121v.04h-.091v.04h-.03v.042h-.06v.04h-.061v.04h-.03v.04h-.091v.039h-.03v.04h-.03v.08h.03v.041h-.06v.04h-.03v.04h-.03v.08h-.03v.041h-.06v.04h-.061v.04h-.03v.04h-.03v.04h-.03v.041h-.03v.04h-.03v.04h-.031v.081h-.06v.12h-.03v.04h-.061v.122h-.06v.281h-.06v.04h-.03v.04h-.212v-.08h-.06v-.08h-.03v-.04h-.151v-.04h-.06v.04h-.151v.04h-.242v.08h-.543v.04h-.03v.04h-.09v.04h-.091v.041h-.03v.04h-.03v.04h-.06v.121h-.03v.08h-.242v.04h-.03v.04h-.03v.041h-.06v.03l-.061.01v.08h-.03v.081h-.03v.12h-.03v.041h-.061v.08h-.06v.041h-.03v.04h-.03v.04h-.091v.04h-.15v.04h-.031v.041h-.03v.08h-.03v.08h-.03v.162h.06v.04h-.09v.12h-.031v.04h-.06v.041h-.09v.04h-.031v.161h-.03v.04h-.03v.04h-.09l-.007.041h-.024v.04h-.03v.04h-.03v.04h-.121v.04h-.03v.041h-.06v.08h-.061v.08h-.03v.041h-.03v.042h-.03v.04h-.03v.08h-.03v.04h-.03v.04h-.031v.081h-.03v.04h-.06v.04h-.03v.081h-.031v.201h.06v.161h-.06v.12h-.151v.04h-.03v.081h-.09v.04h-.03v.04h-.06v.041h-.061v.08h-.03v.121h-.03v.08h-.03v.081h-.03v.04h-.031v.161h-.03v.282h.03v.08h.03v.04h.272v.04h.09v.04h.03v.081h-.03v.161h-.03v.121h-.03v.12h.09v.04h.06v.081h.03v.121h.06l.001.028v.012h.091v.041h.091v-.041h.12v.08h.03v.04h.03v.041h.03v.04h.03v.04h.03v.04h.03v.081h.03v.04h.031v.04h.03v.081h-.03v.04h-.03v.04h-.121v-.04h-.06v-.04h-.06v-.04h-.06v-.04h-.121v-.04h-.181v-.04h-.302v.04h-.03v.04h-.272v-.04h-.03v-.04h-.06v-.041h-.03v-.121h.03v-.12h-.211v-.04h-.182v-.041h-.06v-.04h.03v-.04h.09v-.04h.031v-.04h.03v-.242h-.06v-.04h-.03v-.04h.03v-.081h-.03v-.04h-.03v-.121h-.182v.04h-.482v-.04h-.03v-.04h-.242v.04h-.09v-.08h-.03v-.12h-.151v.039h-.392v.04h-.03v-.04h-.483v.04h-.151v.04h-.121v.042h-.09v.04h-.03v.04h-.121v.04h-.03v.041h-.061v.04h-.03v.04h-.03v.04h-.121v.04h-.03v.04h-.03v.081h-.03v.08h-.03v.081h-.03v.04h-.423v.04h-.03v.041h-.03v.12h.06v.04h.06v.081h-.06v.04h-.03v.04h-.06v.081h-.09v.04h-.122v.04h-.12v.04h-.03v.041h-.03v.12h-.061v.04h.06v.081h.03v.081h.03v.04h-.03v.04h-.149v.08h.059v.041h.03v.16h.03v.082h.03v.04h-.03v.08h-.03v.08h-.301v-.04h-.03v-.04h-.03v-.04h-.03v-.04h.03v-.08l.03-.007v-.034h-.03v-.04h-.03v-.081h-.061v-.04h-.09v-.04h-.302v-.04h-.091v-.04h-.06v-.041h-.181v-.04h-.03v-.04h-.06v-.04h-.091v-.04h-.121v-.041h-.181v-.08h-.09v-.04h-.604v.12h-.06v.04h-.09v.04h-.06v.04h-.122v.202h-.03v.04h-.09v-.08h-.03v-.081h-.031v-.04h-.06l-.006-.04h-.024v-.041h-.302v.161h-.03v.121h-.03v.04h-.121v-.04h-.362v-.04h-.06v-.201h-.03v-.04h-.06v-.04h-.061v.04h-.03v.079l-.09.001v.04h-.091v.04h-.03v.04h-.09v.04h-.031v.041h-.06v.04h-.061v.08h-.392v.04h-.03v.041h-.09v.04h-.061v.04h-.03v.04h-.06v.04h-.03v.041h-.03v.04h-.031v.081h-.06v.04h-.03v.04h-.03v.04h-.061v.04h-.09v.04h-.03v.041h-.03v.04h-.061v.04h-.03v.041h-.03v.04h-.03v.04h-.06v.04h-.031v.04h-.03v.041h-.03v.04h-.091v.04h-.09v.041h-.091v.04h-.03v.08h-.06v.04h-.091v-.04h-.03v.04h-.06v.04h-.03v.041h-.031v.04h-.03v.04h-.06v.04h-.03v.081h-.03v.04h-.031v.04h-.06v.041h-.03v.04h-.03v.12h.03v.121h-.06v.04h-.061v.161h-.03v.04h-.03v.04h-.151v.041h-.03v.04h-.06v.04h-.031v.081h-.03v.04h-.03v.08h-.03v.04h-.03v.122h-.03v.04h-.03v.04h-.061v.04h-.031v.039h-.029v.121h-.03v.04h-.031v.04h-.03v.04h-.03v.041h-.03v.04h-.03v.08h-.03v.081h-.03v.08h-.031v.04h-.03v.041h-.09v.04h-.061v.041h-.06v.04h-.06v.04h-.031v.08h-.03v.081h-.03v-.04h-.03v.04h-.03v.04h-.06v.04h-.031v.04h-.03v.04h-.03v.081h-.03v.04h-.03v.04h-.031v.04h-.03v.041h-.03v.04h-.03v.04h-.03v.04h-.03v.041h-.031v.08h-.03v.04h-.03v.04h-.03v.041h-.03v.04h-.061v.04h-.03v.041h-.03v.04h-.03v.04h-.03v.04h-.031v.04h-.06v.041h-.03v.08h-.03v.08h-.03v.041h-.031v.08h.03v.08h.03v.041h.03v.04h.03v.04h.061v.081h-.03v.04h-.03v.242h-.03v.04h-.03v.04h-.03v.04h-.061v-.08h-.03v-.04h.03v-.04h-.03v-.08h.03v-.041h.03v-.08h.03l-.005-.081h-.085v-.04h-.03v.04h-.03v.241h-.03v.04h-.03v.04h-.031v.041h-.12v-.04h-.153v.04h-.03v.04h-.03v.04h-.03v.04h-.03v.04h-.03v.041h-.03v.16h-.03v.082h-.031v.04h-.03v.04h-.03v.08h-.06v.08h-.03v.081h-.03v.12h-.031v.041h-.03v.04h.03l-.002.07-.028.01v.041h-.03v.202h-.03v.12h-.031v.12h-.03v.083h-.03v.28h-.03v.403h.09v.04h.03v.04h.06v.04h.03v.04h.031v.041h.211v.039h.03v.04h.06v.04h.061v.04h.06v.041h.09v.04h.152v-.04h.06v.04h.03v.08h.06v.081h.03v.04h.03v.202h.031v.04h.03v.04h.03v-.04h.03v-.081h.091v-.04h.242v.08h.03v.08h.03v.122h.03v.16h-.03v.04h-.06v.08h-.03v.081h-.061v.081h-.09v.04h-.03v.12h-.06v.082h-.061v.04h-.03v.04h-.03v-.04h-.031v.08h-.03v-.04h-.09v.08h-.03v.04h-.03v.04h-.091v.081h-.06v.08h-.03v.041h-.061v.08h-.03v.04h.03v.081h-.03v.04h.06v.08h.03v.081h-.03v.04h-.03v.081h-.06v.04h-.03v.12h-.031v.04h-.06v.041h-.03v.04h-.03v-.04h-.242v-.04h-.06v.04h-.03v.04h.06v.04h-.09v.08h-.06v-.039h-.061v.16h-.09v.08h.06v.082h-.091v.16h-.06v.121h-.06v.04h-.03v.037l-.031.003v.04h-.03v.04h-.06v.202h-.091v.081h-.06v.04h-.03v.08h-.03v.08h-.151v.041h-.06v.04h-.031v-.04h-.12v.08h-.03v.04h-.031v.081h-.06v.04h-.03v.12h-.03v.041h.03v.04h-.03v.04h-.03v.04h-.061v.041h-.03v.04h-.03v.04h-.091v.04h-.03v-.04h-.09v.04h-.03v-.04h-.121v.04h-.06v.203h-.091v.04h-.06v.04h-.121v.04h-.06v.04h-.031v.041h-.09v.04h-.03v.08h-.03v-.04h-.03v.04h-.091v.04h-.06v.082h-.122v.08h-.03v.04h-.03v.081h-.06v.04h.06v.04h-.03v.04h-.03v.08h-.03v.081h-.06v.04h-.06v.08h-.061v.041h-.03v.04h-.121v.04h-.06v-.04h-.09v.08h-.031v.04h-.06v.041h-.091v.08h-.03v.04h-.06v.162h-.06v.04h-.031v.12h-.03v-.04h-.03v.04h-.09v.04h-.061v-.12h-.03v-.04h-.03v-.081h-.03v-.04h-.03v-.04h-.122v-.08h-.211v-.04h-.09v-.04h-.06v-.041h-.212v-.04h-.06v-.04h-.03v-.121h-.091v-.041h-.09v.04h-.03v-.04h-.03v-.08h.03v-.04h.03v-.121h.03v-.08h.03v-.242h-.03v-.04h-.03v-.04h-.09v-.04h-.091v-.04h-.03v-.04h-.03v-.04h-.03v-.041h-.061v-.04h-.151v-.04h-.392v-.04h-.211v-.041h-.181v-.04h-.362v-.04h-.151v.04h-.06v.04h-.151v.08h-.242v.04h-.09v.04h-.03v.121h-.03v.08h-.03v.041h-.03v-.04h-.061v-.16h-.03v-.041h-.09v-.04h.03v-.121h-.03v-.04h-.031v-.04h-.09v-.041h-.03v-.04h-.121v-.04h-.453v.04h-.149v-.04h-.121l-.002.03-.029.007v-.037h-.21v.04h-.303v-.04h-.09v.04h-.09v.04h-.091v.04h-.12v.04h-.121v.041h-.06v.04h-.03v.04h-.061v.04h-.09v.04h-.03v.041h-.061v.04h-.09v.04h-.061v.04h-.06v.04h-.03v.041h-.03v.04h-.06v-.04h-.061v.04h-.03v.12h-.03v.041h-.091v.04h-.03v.04h-.03v.121h-.06v.081h-.061v.08h-.03v.08h-.03v.041h-.03v.04h.03v.04h.03v.04h.03v.04h.06v.041h.03v.08h.03v.121h-.03v.12H428v.04h-.06v.041h-.151v.04h-.122v.041h-.03v-.04h-.06v-.04h-.091v-.041h-.03v-.04h-.06v.04h-.03v.12h-.03v.081h-.031v.04h-.03v.161h-.03v.04h-.03v.121h.03v.08h-.03v.04h-.06v.041h-.061v.04h-.03v.04h-.03v.121h-.03v.04h-.03l-.001.04h-.03v.041h-.06v.04h-.06v.08h-.091v.04h-.03v.041h-.091v-.04h-.121v.04h-.15v.04h-.121v-.04h-.03v.04h-.06v-.04h-.061v-.04h-.03v-.04h-.06v-.04h-.242l-.002.03-.018.01h-.04v.04h-.09v.04h-.092v.04h-.03v.039h-.09v.04h-.06v.041h-.091v.036l-.03.003-.03.001v-.04h-.12v-.04h-.031v-.04h-.03v-.041h-.06v.04h-.03v-.04h-.06v-.04h-.121v-.04h-.091v.04h-.06v.04h-.03v.04h-.031v.04h-.06v-.04h-.09v.041h-.03v.04h-.061v-.081h-.03v-.04h-.12v.04h-.031v.04h-.03v-.04h-.09v.04h-.03v.122h-.061v.08h-.12v-.04h-.061v.04h-.06v.04h-.061v-.04h-.03v.04h-.06v.04h-.091v.04h-.12v.04h-.03v.04h-.061v.041h-.06v-.04h-.03v.04h-.061v.04h-.09v.04h-.091v.041h-.12v.08h-.091v.04h-.121v.04h-.03v.041h-.03v.04h-.03v.04h-.06v.08h-.061v.041h-.09v.04h-.06v.04h-.061v.04h.03v.041h-.15v.04h-.031v.04h-.03v.04h-.03v.04h-.121v.041h-.181v-.04h-.03v-.04h.06v-.04h.06v-.04h.09v-.041h.091v-.04h.06v-.04h.061v-.04h.03v-.04h-.03v-.041h-.06v.04h-.06v.04h-.091v.04h-.09v.04h-.03v-.04h-.061v-.04h-.12v-.04h-.061v-.04h-.03v-.04h-.12v.04h-.061v.036l-.06.004v.04h-.091v.04h-.09v.04h-.061v.041h-.09v.04h-.03v.04h-.06v.04h-.031v.04h-.06v.041h-.03v.04h-.03v.04h-.03l-.001.121h-.06v.04h-.03v.037l-.03.004v.08h-.03v.04h-.031v.04h-.03v.04h-.03v.041h-.09v.04h-.061v.04h-.06v.04h-.06v.04h-.091v.041h-.03v.041h-.091v.04h-.03v.033h-.03l-.212.007v.04h-.301v.04h-.09v.04h-.03v.04h-.121v-.04h-.272v.04h-.151v-.04h-.06v-.04h-.12v.04h-.031v.04h-.15v.04h-.031v.041h-.12v.04h-.182v.04h-.06v.041h-.09v.04h-.242v.04h-.06v-.04h-.06v.04h-.03v.08h-.121v.041h-.06v.036l-.018.001-.043.003v-.04h-.06v.04h-.121v.04h-.06v.04h-.121v.04h-.181v.041h-.151v.04h-.09v.04h-.06v.081h-.061v.081h-.091v.08h-.03v.08h-.03v.04h-.06v-.04h-.06v.04h-.061v.08h-.06v.041h-.151v-.04h-.06v.04h-.06v.04h-.182v-.04h-.03v.04h-.03v-.04h-.151v.04h-.03v.081h-.03v-.04h-.06v.04h-.03v.04h-.031v.161h-.09v.04h-.091v-.04h-.06v-.04h-.06v.04h-.031v-.04h-.12v.04h-.061v.04h-.15v.041h-.122v.04h-.09v.04H414v.041h-.03v.041h-.03v.04h-.091v.04h-.091v.04h-.06v.039h-.03v.04h-.09v.041h-.092v.04h-.09v.04h-.061v.04h-.059v.041h-.061v.04h-.12v.04h-.09v.04h-.061v.04h-.06v.04h-.121v.037l-.09.004v.04h-.061v.04h-.03v.04h-.06v.04h-.03v.081h-.122v.04h-.03v.04h-.03v.04h-.06v.041h-.03v.041h-.03v.04h-.091v.04h-.03v.04h-.06v.04h-.03v.04h-.03v.041h-.151v.04h-.091v.04h-.119v.081h-.03v.04h-.031v.08h-.06v.04h-.03v-.04h-.061v.04h-.06v.04h-.151v.041h-.03v.08h-.03v.04h-.03v.081h-.03v.16h-.03v.082h-.031v.04h-.03v.08h-.121v.04h-.09v.041h-.061v.04h-.121v.04h-.03v.04h-.03v.081h-.03v-.041h-.03v.04h-.06v.041h-.061v.04h-.09v.04h-.03v.04h-.06v.04h-.031v.041h-.09v.04h-.03v.04h-.03v.04h-.061v.04h-.06v.122h-.06v-.04h-.031v.04h-.06v.072l-.012.003-.019.005v.04h-.15v.04h-.03v.04h-.091v.041h-.03v.04h-.06v.04h-.03v.04h-.03v.041h-.091v.04h-.03v.04h-.06v.04h-.031v.04h-.06v.041h-.06v.04h-.031v.04h-.06v.04h-.03v.04h-.03v.041h-.061v.04h-.06v.04h-.06v.04h-.03v.04h-.03v.042h-.031v.08h-.03v-.04h-.06v.04h-.03v.117l-.03.003v.121h-.061v.04h-.03v.04h-.091v-.04h-.211v.04h-.03v.041h-.06v.04h-.06v.04h-.031v.08h-.06v.041h-.03v.04h-.031v.04h-.03v.04h-.09v-.04h-.091v.04h-.06v.042h-.03v.04h-.03v.04h-.091v.04h-.03v.04h-.03v.162h-.03v.04h-.031v.04h-.09v.08h-.121v.04h-.03v.041h-.06v.04h-.03v.04h-.061v-.04h-.151v.04h-.03v-.08h-.03v-.04h-.09v.04h-.031v.08h.03v.08h-.03v.041h-.03v.04h-.151v.04h-.03v-.08h-.03v-.04h-.06v.04h-.03v.04h-.03v.04h-.031v.081h.03v.08h-.03v.04h-.272v-.04h-.12v.04h-.06v.041h-.03v.08h-.031v.08h-.09v.121h-.06v-.04h-.212v-.04h-.06v.04h-.03v.04h-.06v.04h-.121v.04h-.06v.041h-.031v.04h-.03v.08h-.06v.081h-.03v.04h-.03v.161h.03v.081h-.031v.04h.03v.12h-.06v.08h-.181v.041h-.03l-.003-.04h-.058v.04h-.09v.04h-.03v.081h-.03v.04h-.03v.04h-.03v.04h-.061v.04h-.03v.041h-.03v.241h.03v.04l.06.001v.04h.03v.04h.06v.04h.03v.12h.061v.041h-.09v-.04h-.03v-.04h-.06v.04h-.031v.12h-.06v.041h-.03v.08h-.061v.04h-.03v.04h-.03v-.04h-.03v-.04h-.03v-.04h-.03v-.04h-.03v-.04h-.031v.04h-.03v.04h-.151v.04h-.03v.04h-.03v.04h-.03v.041h-.03v.04h-.03v.04h-.031v.04h-.03v.081h-.03v.242h-.03v.08h.03v.04h-.03v.08h-.03v.08h-.031v.203h-.03v.12h-.03v.08h-.03v.242h.03v.16h.03v.202h-.03v.04h-.03v.12h-.03v.04h-.03v.041h-.031v.04h-.03v.04h-.061v.04h-.06v.04h-.271v.041h-.242v.04h-.15v.04h-.06v.04h-.03v.041h-.031v.04h-.06v.04h-.03v.08h-.031v.122h-.03v.04h-.03v.08h-.03v.04h-.03v.121h-.03v.08h-.03v.04h-.031v.041h-.03v.242h-.03v.08h-.03v.08h-.03v.121h-.03v.12h-.031v.121h-.03v.202h-.03v.2h-.03v.08h-.03v.122h-.03v.241h-.031v.201h-.03v.201h-.03v.12h-.03v.283h.03v.12h-.03v.282h-.03v.16h-.03v.323h-.031v-.081h-.03v.161h.03v.08h-.03v-.04h-.03v.08h.03v.202h-.03v.08h-.03v.161h-.03v.322h-.03v.764h.03v.08h-.03v.242h-.031v.402h-.03v.845h.03v.282h.03v.16h.03v.04h.03v.08h.03v.081h.03v.04h.061v.041h.091v.04h.03v.04h.03v.04h.06v.04h.03v.041h.03v.04h.091v.04h.03v.04h.06v.081h.03v.04h.03v.04h.031v.04h.06v.041h.03v.04h.031v.04h-.09v-.04h-.03v.041h-.031v.04h-.603v.04h-.242v.04h-.03v.04h-.09v-.04h-.121v-.08h-.03v.04h-.03v-.04h-.121v-.04h-.15v.04h-.182v-.04h-.15v-.04h-.061v-.041h-.302v-.04h-.06v.04h-.03v-.04h-.151v-.04h-.09v-.04h-.091v-.04h-.12v.04h-.061v-.04h-.06v-.041h-.06v-.04h-.242v-.04h-.12v-.04h-.061v-.04h-.03v-.041h.03v-.041h.03v-.04h.03v-.08h-.03v-.04h-.03v-.04h-.03v-.04h-.03v-.121h-.03v-.161h.03v-.08h-.03v-.041h-.091v.04h-.09v-.04h-.303v.04h-.121v-.08h-.03v-.04h-.06v-.081h-.03v-.04h-.061v-.04h-.03v-.04h-.03v-.04h-.03v-.04h-.272v.04h-.06v.04h-.06v.04h-.122v.04h-.03v.08h-.03v.04h-.03v.04h-.03v.041h-.06v.04h-.03v.081h-.03v-.04h-.031v.04h-.03v.04h-.06v.04h-.06v.04h-.031v.04h-.03v.041h-.12v.04h-.03v-.04h-.061v.04h-.03v.04h-.03v.04h-.091v.081h-.12v.081h-.121v.04h-.151v.08h-.03v.039h-.061v.041h-.03v.04h-.302v.04h-.06v.041h-.06v.04h-.06v.04h-.03v.04h-.031v.122h-.03v.08h-.03v.08h-.03v.04h-.06v-.04h-.061v.04h-.06v.041h-.091v.04h-.06v.04h-.06v.04h-.061v.04h-.03v.081h-.06v.04h-.06v.04h-.061v.04h-.03v.082h-.06v.04h-.031v.04h-.12v-.04h-.061v.08h-.03v.04h-.03v.04h-.121v.04h.03v.04h-.03v.081h-.06v.04h-.091v.041h-.03v.04h-.03v.04h-.03v.04h-.03v.161h.03v.121h.03v.241h-.03v.242h.03v.08h.03v.121h.03v.12h-.03v.04h-.03v.081h-.12v.04h-.061v.04h-.03v.04h-.06v.041h-.03v.04h.03v.04h-.03v.04h-.031v.04h-.03v-.04h-.03v.04h-.06v.041h-.03v.08h-.031v.041h-.09v.04h-.03v.08h-.091v.041h-.06v.04h-.03v.04h-.061v.04h-.03v.04h-.03v.041h-.03v.08h-.06v-.04h.03v-.12h.03v-.041h.03v-.16h.06v-.041h.03v-.04h.06v-.04h.03v-.04h.061v-.04h.06v-.041h.03v-.04h.03v-.04h.061v-.04h.03v-.121h.03v-.04h.152v-.082h.03v-.04h.03v-.04h.06v-.04h.03v-.081h-.03v-.04h.03v-.081h-.03v-.04h-.09v.04h-.091v-.04h-.03v-.08h-.03v-.04h-.091v-.081h-.03v-.04h-.03v-.08h.03v-.121h.03v-.04h.03v-.04h-.03v-.041h-.12v.04h-.06v.04h-.031v.04h.03v.04h.03v.162h.03v.08h.03v.04h-.12v.04h-.03v.04h.03v.041h.211v.04h.03v.04h.03v.081h-.03v.04h-.181v.04h-.03v.081h.03v.04h-.09v.04h-.06v-.04h-.061v.04h-.03v-.04h-.09v.04h-.03v.08h.03l.002.031.02.012.007.038h-.03v.08h.03v.04h.03v.04h.03v.082h-.06v.04h-.06v.04h-.03v-.04h-.03v-.04h-.03v-.04h-.06v.04h-.03v.04h-.031v.04h-.03v.04h-.06v-.04h-.03v-.12h-.03v-.041h-.031v-.04h-.09v-.04h-.03v-.04h-.061v.04h-.09v-.04h-.091v.04h-.03v.04h.03v.04h.03v.04h.03v.04h.03v.04h.03v.041h.03v.04h.03v.04h.031v.04h.03v.041h.03v.08h.06v.04h-.06v.04h-.03v.041h-.06v.08h-.03v.04h-.151v-.08h-.03v-.04h-.09v-.04h-.03v-.04h-.03v-.041h-.061v-.04h-.03v-.04h-.03v-.04h-.031v-.04h-.03v-.041h-.03v-.04h-.06v-.08h-.03v-.04h-.242v-.041h-.03v-.201h-.03v-.04h-.121v.037l-.06.003v.04h-.03v.04h-.03v.04h-.031v.04h-.06v.04h-.03v.041h-.061v.04h-.03v.04h-.06v.041h-.03v.04h-.03v.04h-.03v.081h.03v.04h.06v.04h-.03v.08h-.03v.081h-.03v.04h-.03v.121h-.122v.08h-.06v.04h-.03v.04h-.03v.082h-.03v.04h-.031v.08h-.03v.081h-.03v.04h-.03v.04h-.03v.08h-.03v.04h-.03v.081h-.03v.12h-.031v.081h-.03v.12h-.03v.202h-.031v.04h-.03v.16h-.03v.162h-.03v.08h-.03v.04h-.03v.122h.027l.003.08h-.03v.161h-.03v.12h-.061v.04h-.03v.121h-.03v.161h-.03v.08h-.03v.081h-.03v.281l.03.001v.16h-.03v.282h-.03v.04h-.031v.162h-.03v.16h-.03v.161h-.06v.08h-.03v.08h-.031v.041h-.03v.161h.03v.08h-.03v.122h-.03v.16h-.03v.242h-.03v.241h-.03v.322h-.031v.12h-.03v.161h.03v.08h.03v.04h.03v.524h.03v.2h-.03v.162h.03v.442h.03v.201h-.03v.353l.03.01v.562h.03v.564h.031v.321h.03v.121h.03v.12h.03v.081h.03v.202h.03v.12h.031v.04h.03v.08h.03v.403h.03v.241h.03v.202h.03v.12h.03v.161h.031v.04h-.03v.08h-.03v.161h.03v.081h.03v.12l.03.001v.12h-.03v.242h.03v.282h.03v.361h.03v.322h.03v.241h.031v.08h-.03v.202h.03v.121h.03v.16h.03v.041h.03v.08h.03v.04h.03v.04h.031v.041h.03v.08h.03v.04h.03v.04h.03v.081h.03v.08h.03v.162h.031v.12h.03v.322h-.06v.08h-.03l-.002.087.032-.006v.041h.03v.04h.06v.04h.03v.08h.03v.242h.061v.04h.03v.04h.03v.04h.03v.161h.031v.241h.03v.202h.03v.482h-.03v.121h-.03v.282h-.03v.08h-.03v.241h-.03v.121h-.03v.12h-.031v.202h-.03v.08h-.03v.04h-.03v.121h.03v.08h-.03v.076l-.03.005v.121h-.03v.08h-.031v.04h-.03v.04h-.03v.04h-.06v.081h-.03v.08h-.061v.081h-.03v.04h-.03v.04h-.03v.04h-.03v.081h-.03v.04h-.061v.04h-.03v.04h-.03v.041h-.03v.04h-.061v.04h-.03v.041h-.03v.04h-.03v.04h-.061v.04h-.03v.04h-.06v.041h-.121v.04h-.03v.04h-.03v.04h-.03v.04h-.061v.041h-.06v.04h-.06v.04h-.091v.04h-.151v.041h-.15v.04h-.031v.04h-.06v.04h-.06v.04h-.091v.041h-.12v.04h-.333v.04h-.03v-.04h-.12v.04h-.483v.04l-.03.001v.201h.03v.08h-.181v-.08h-.03v-.08h-.03v-.081h-.03v-.04h-.333v-.04h-1.327l-.001.04h-.03v-.04h-.06v.04h-.03v.241h-.12v.04h-.06v.04h-.03v.081h-.091v.04h-.06v.04h-.03v.08h-.061v.041h-.06v.04h-.061v-.04h-.03v.04h-.03v-.08h-.03v-.04h.06v.04h.03v-.04h.03v-.08l.03-.001v-.04h.03v-.04h.03v-.04h.03v-.04h.031v.04h.03v-.04h.03v-.041h.03v-.04h.03v-.04h.061v-.04h.06v-.04h.06v-.041h.03v-.08h-.03v-.04h-.029v-.04h-.03v-.041h-.03v.04h-.061v.04h-.03v.04h.03v.04l-.06.001v.04h-.03v.04h-.06v.04h-.031v-.08h-.03v-.08h-.03v-.162h.03v-.04h-.03v-.04h-.06v.04h-.031v.04h-.03v-.04h-.03v.04h-.03v.04h.03v.081h.03v.04h-.03v.041h.03v.281h.03v.04h-.03v.04h-.03v.041h-.06v-.04h-.061v-.04h-.06v-.12h-.03v-.082h-.03v-.08h-.03v-.12h-.031v-.081h-.03v-.04h-.03v-.08h-.03v-.081h-.03v-.04h-.393v.04h-.211v.04h-.332v.04h-.06v-.04h-.09v.04h-.242v.04h-.211v.04h-.272v.04h-.301v.041h-.212v.04h-.24v.04h-.031v-.04h-.12v-.04h-.03l-.001.04h-.06v.08l-.03.001v.04h-.061v-.04h-.06v.04h-.151v-.04h-.03v.04h-.06v.04h-.03v.08h-.06v.041h-.031v.04h-.09v.04h-.03v.04h-.031v.04h-.03v.041h-.03v.04h-.121v.04h-.06v.04h-.03v.04h-.03v.082h-.03v.04h-.061v.04h-.06v.04h-.03v.04h-.031v.04H380v.08h-.03v.041h-.03v.04h-.03v.04h-.061v.041h-.03v.04h-.03v.04h-.06v.04h-.06v.04h-.061v.041h-.03v.04h-.06v.04h-.061v.04h-.09v.04h-.03v.041h-.031v.04h-.03v.04h-.06v.04h-.06v.081h-.03v.04h-.031v.04h-.03v.04h-.03v.041h-.03v.04h-.03v.04h-.03v.08h-.031v.041h-.03v.04h-.03v.041h-.03v.04h-.06v.08h-.031v.08h-.03v.041h-.03v.04h-.03v.08h-.03v.081h-.031v.04h-.03v.08h-.03v.081h-.03v.04h-.03v.08h-.061v.041h-.03v.121h-.03v.04h.03v.322h-.03v.04h-.06v.04h-.092v.04h-.03v.04h-.03v.122h-.03v.04h-.03v.04h-.03v.04h-.03v.04h-.03v.081h-.03v.04h-.03v.04h-.03v.08h-.031v.081h-.03v.04h-.03v.04h-.03v.04h-.03v.081h-.03v.04h-.031v.04h-.03v.04h-.03v.041h-.03v.08h-.03v.04h-.03v.04h-.03v.162h.03v.12h-.03l-.004.032-.016.005-.011.004v.04h-.03v.08h-.03v.073l-.03.008v.04h-.03v.04h-.031v.08h-.03v.041h-.03v.081h-.03v.04h-.03v.04h-.03v.04h-.031v.04h-.03v.04h-.03v.08h-.03v.041h-.03v.04h-.03v.04h-.091v.041h-.03v.04h-.061v.08h-.03v.041h-.03v.16h-.03v.041h-.03v.08h-.03v.121h-.031v.08h-.03v.121h-.03v.08h.03v.081h-.03v.12h-.06v.041h-.03v.04h-.03v.04h-.031v.162h-.03v.04h-.03v.08h-.03v.04h-.03v.04h-.061v.04h-.03v.04h-.03v.202h.03v.04h-.03v.161h-.03v.12h-.03v.242h-.031v.201h-.03v.12h-.03v.202h-.03v.12h-.03v.162h-.03v.402h-.03v.04h-.061v.08h.03v.121h.03v.08h-.03v.202h-.03v.241h-.03v.04h.03v.202h-.03v.08h-.03v.08h-.03v.04h-.03v.041h-.122v.04h.151v.202h-.03v.08h.03v.08h-.12v.04h-.121v.04h-.03v.121h.03v.04h.09v-.04h.09v.12h-.03v.081h-.03v.12h-.03v.162h-.03v.16h-.03v.363h-.03v.04h-.03v.282h.03v.04h-.03v.12h-.03v.122h-.03v.04h.03v.2h.03v.081h-.03v.12h-.03v.04h-.03v.282h-.031v.202h-.03v.2h-.03v.162h-.03v.321h-.03v.322h-.03v.161h-.031v.684h-.03v.16h.03v.122h-.03v.2h.03v.202h-.03v.04h-.03v.04h-.03v.08h-.03v.363h-.03v.322h-.03v.12h-.031v.12h-.03v.162h.03v.2h-.03v.081h-.03v.08l-.03.001v.12h-.03v.202h-.031v.04h-.03v.442h-.03v.403h-.03v.04h-.03v.12h.03v.121h.03v.04h-.03v.08h.03v.323h-.03v.08h-.03v.12h-.061v.041h-.03v.281h-.03v.483h-.03v.04h.03v.12h.03v.282h-.03v.483h.03v.161h-.03v.08h-.03v.121h-.03v.121h.03v.04h.03v.04h.06v.04h.03v.202h.03v.04h.03v.04h.03v.04h.03v.04h.061v.04h-.03v.041h-.03v.121h.03v.04h-.03v.08h-.03v.04h-.03v.121h-.03v.121h-.03v.16h-.061v.041h-.03v.04h-.03v.12h.03v.041h.03v.161h-.06v.04h-.03v.121h.03v.04h.03v.403h-.03v.402h.03v.321h.03v.162h.06v.2h-.03v.322h-.03v.04h.03v.041h.03v.04h.241v.08h.03v.04h.03v.122h.152v.04h.06v.08h.03v.04h.03v.161h-.03v.643h-.06v.041h-.03v.04h-.151v.04h-.12v.04h-.061v.04h-.03v.041h-.03v.04h-.03v.04h-.03v.041h-.031v.08h-.03v.121h-.03v.08h-.03v.08h-.03v.041h.03v.12h.03v.041h-.06v.161h-.03v.04h-.031v.08h.03v.161h.03v.04h-.03v.161h-.06v.04h-.03v.202h.03v.08h-.03v.242h-.091v.04h-.03v.12h.03v.121h-.03v.04h-.151v.04h-.03v-.08h-.06v-.04h-.121v-.04h-.091v.04h-.089v.04h-.03v.122h-.03v.04h-.03v.04h-.03v.04h-.031v.04h-.03v.08h-.03v.04h-.03v.121h-.03v.04h.03v.121h-.06v.04h-.03v.04h-.031v.041h-.03v.04h-.03v.04h-.03v.04h-.03v.04h-.03v.041h-.031v.04h-.06v.04h-.06v.04h-.061v-.04h-.03v-.241h-.03v-.04h-.121v.04h-.09v.04h-.03v.04h-.061v.04h-.06v.041h-.03v.04h-.03v.04h-.061v.04h-.09v.04h-.061v.041h-.09v.04h-.152v.04h-.06v.04h-.03v.04h-.031v.041h-.03v.08h-.03v-.04h-.091v-.04h-.03v-.04h-.121v-.04h-.03v-.04h-.06v.04h-.12v.04h-.031v.04h-.241v.04h-.03v.04h-.091v.04h-.03v.041h-.03v.04h-.091v-.04h-.12v-.04h-.06v-.04h-.031v-.04h-.03v-.081h.03v-.16h-.03v-.041h-.06v.04h-.03v.04h-.03v.04h-.031v.041h-.091v.04h-.03v.04h-.09v.04h-.03v.04h-.03v.081h.03v.04h.06v.04h.06v.04h.03v.04h.03v.041h.03v.04h.031v.04h.03v.081h.03v.04h.03v.04h.06v.081h.03v.04h.061v.04h.03v.04h.03v.202h-.03v-.04h-.06v-.04h-.03v-.04h-.03v-.041h-.06v-.04h-.06v-.04h-.061v-.04h-.06v-.04h-.03v-.041h-.031v-.08h-.03v-.081h-.03v.04h-.03v-.04h-.03v-.04h-.242v.08h-.09v.04h-.061v.081h-.03v.04h-.03v.04h-.03v.12h-.03v.041h-.03v.04h-.03v.04h-.031v.162h-.03v.16h-.03v.081h-.03v.04h-.03v.121h-.03v.04h-.031v.08h-.03v.04h-.03v.121h-.031v.04h-.03v.202h-.03v.04h-.03v.12h-.03v.081h-.03v.12h-.03v.081h-.03v.402h.03v.12h-.03v.082h-.03v.04h.03v.241h-.03v.08h-.031v.081h-.03v.16h-.03v.243h-.03v.12h.03v.04h-.03v.282h.03v.12h-.03v.08l-.021-.001-.082-.008-.01.007-.008.043h-.06v-.04h-.453v.04h-.09v.04h-.03v.04h-.03v.08h-.061v.081h-.06v.04h-.121v.04l-.09.001v.04h-.091v.04h-.03v.08h-.06v.041h-.061v.08h-.03v.04h-.03v.121h-.03v.322h-.03v.12h-.03v.162h-.031v.08h-.03v.08h.03v.04h-.03v.041h-.06v.04h-.091v.04h-.03v.08h.03v.041h.12v.08h.03v.04h-.06v.041h-.03v.04h-.03v.04h-.121v.04h-.03v.081h.03v.04h.03v.04h.03v.041h-.03v.16h-.06v.041h-.03v.12h.03v.04h.06v.121h-.03v.04h-.03v.122h-.06v.04h-.03v.08h.028l.002.04h.03v.081h.03v.08h.03v.04h.03v.04h.061v.041h.03v.12h.03v.04h-.03v.081h.03v.04h.03v.121h.03v.08h-.03v.04h.03v.122h.03v.28h-.06v.041h-.03v.04h-.06v.04h-.03v.041h-.03v.04h-.06v.04h-.061v-.04h-.09v-.04h-.121v-.04h-.09v-.04h-.091v.04h-.09v-.04h-.03v-.04h-.031v-.081h-.03v-.04h-.03v-.081h-.03v-.04h-.03v-.04h-.152v.04h-.03v.04h-.12v.04h-.09v.04h-.061v.121h-.06v.04h-.03v.04h-.061v.041h-.03v.04h-.03v.04h-.06v.04h-.031v.04h-.03v.081h-.06v.04h-.06v-.04h-.061v.04h-.06v-.04h-.03v-.04h-.061v-.04h-.241v.04h-.03v.04h-.03v.04h-.03v.08h-.031v.041h-.03v.12h-.03v.04h-.03v.082h-.03v.12h-.091v.04h-.03v.121h-.06v.04h-.031v.08h-.03v.041h-.03v.04h-.03v.04h-.03v.403h-.03v.04h-.03v.04h-.031v.04h-.12v.04h-.242v.041h-.03v.12h-.031v.04h-.03v.524h-.03v.16h-.031v.362h-.03zm156.303-291.224v.04h.03v.04h.03v.16h-.03v.041h-.03v.04h-.03v.04h-.06v.041h-.03v.04h-.061v.04h-.06v.04h-.03v.04h-.06v.041h-.061v.12h.03v.041h.03v.04h.06v.04h.272v-.04h.09v-.04h.03v-.04h.091v-.04h.03v-.08h.03v-.041h.061v.04h.03v.202h-.03v.04h-.03v.04h-.06v.04h-.06v.04h-.061v.04h-.06v.04h-.03v.04h-.06v.04h-.243v-.04h-.06v-.04h-.03v-.04h-.03v-.04h-.03v-.04h-.03v-.04h-.03v-.04h-.03v-.121h-.03v-.201h.03v-.12h.03v-.082h.03v-.04h.03v-.04h.06v-.04h.03v-.04h.03v-.04h.03v-.04h.03v-.041h.091v-.04zm-1.72 3.58v.04h.091v.04h.03v.08h-.03v.04h-.06v.041h-.06v.04h-.031v.04h-.09v-.04h-.03v-.04h-.03v-.04h-.03v-.161h.03v-.04zm-.392-2.414v.04h.03v.081h.03v.04h.03v.04h.03v.04h.031v.04h.03v.041h.06v.12h-.12v-.04h-.09v-.04h-.03v-.04h-.061v-.04h-.03v-.08h-.03v-.162h.03v-.04zm-147.592 5.815l-.435.348-1.295 2.161-.598 2.648-1.123.522-.554-.418-.279.173-.013-.246-.625-.497-.154-.474.129-.838-.48-.441-.448.03.005-.55-.433-.688-.53-.399-2.121-3.841-2.195-1.686-.426.053.013-.315-.431-.212-.332-1.071-.889-.852-.453-.082-1.415-1.191-.316-.61-.03-.902-.463-.887-.325-.233.436-.493-.355-1.95-.719-.85.23-.916.492-.194.425-.671-.3-.945-.323-.353.368-.479.015-.62.34-.405 1.144-.435.793.017 1.469-1.19.51-.13.992.207 1.275-1.21.358-.863.793-.84.206-2.43.276-.501.063-1.591.94-.774.655 1.264 1.796-.645.53.153.137.26.653.11.32-.225.287-.283 1.133-.634 2.165.345.332-.21 1.712-.835 1.98-2.352.46.021.398-.303.224.307.011-.614.112-.136.141.298.292-.054-.05-.358.237-.179.202-.216.446.14-.01.815.446.178.599-.237-1.642-4.646 2.108-3.418.3-.374.272.223.594-.267.167-.504.67-.237.42.33.744-.84.179-.12-.098-1.385.503-.155.004-.569.453-.403.14-.544-.164-.12.124-.293-.471-1.586.256-.283.121-.78-.181-.17.914-1.038.302-1.262.334-.503-.129-1.342 1.214-4.946.403-1.071 1.625 1.783 2.024 1.095.98-.204.765.646.856-.789 1.014-.16.796-.702.669.907 1.304-.21 2.577-1.229 4.293-2.578.534-.469-.16-1.373.249-.579-.82-1.4-1.059-.893-.008-.217.68-.284-.08-.401.21.243.3-.17-.166-.374.15-.459.259-.24.35.234.6-.625.273.724.423-.52.015.66.228-.045.03-.33.411.227-.11-.47-.295-.223.162-.33.418-.23.161-.414.536.523.366-.257.205.197.103-.61-.161-.059.54-.384-.136-1.06.225-.046.123.462.374-.047-.069-.236.292-.287-.215-.764.267-.825.327.086.084-.233.48-.074.087-.477 1.123-.759.24-.664.502-.535.278-.087.346.19.445-.734.71.143.962-.919.005.378.403-.153.332.204-.168-.52.149-.223.273.105-.178-.565.103-.498-.489-1.373-1.158-1.313-.587-.32-.642-1.678-1.027-1.157-1.224-.655-.53-.556-.907-1.834-.67-.83.167-.126.341.185-.02-.444.431-.338-.021-.649.216-.455.487-.362 1.097-.155 1.51-.826 1.649-.015-.216-.65.547-.028.325-.259.175.338.273-.449.24-.103.095.213.173-.43.229-.065.398.311.149-.699-.293-.46-.61-.256.039-.745.478-.695.024-.512-.69-1.193-.762-.638-1.038.55-.188-1.062-.265-.414.476-2.219.476-.766.324-1.068-.265-.39.246-.933-.404-.127.169-.31-.392-.634-.014-.585.08-.24.061-.572-.488-.522-.053-.52.498-.525.106-.434-.115-.296.205-.792-.21-.546.226-.165-.156-.498.26-.666-.099-.96-.635-.27-.355.199-.996.012-.664.486-.477.761-1.34-.503-.018-.16-.946.13-.077-.678-1.765-.624-1.11.278-.771-.766-.227-.673.129-.854.217-.95.49-.742-.082-.932.21-.467-.91-.877-.255-.688.372-.844.464-.115.195.138.184-.25-.273-.23.35.067-.104-.273 1.565-.826 2.97-.375.322.33.407.04.219 1.447.344.596 1.078.597.09-.647.77-.533.592-.915.454.254 1.137-1.148 1.954-.718 1.185-.82 1.53-.05-.168-.99.431-1.537-.306-.16-.312-1.215.225-.824.471-.35.128-.963.265-.417-.137-.381.396-.796-.023-.552.328-.946 1.194-.565.281-1.35.497-.515.034-.35.34-.21.179-.343-.104-.341.79-.332-.294-.381 3.3-.187.2-.418 2.218.462-.288 1.494.363.931.578.352.584 1.202.798.742 1.4.655.589.713.59.1 1.691.652.655.659 1.71.904.955.098.238-.167 1.091.243 1.402.52.228-.532.654-.569.535-.142 1.918.211 1.715.19.236.373-.197.375.286.53.553.3.493.63-.42.856-.032.713.286.286-.043.785 1.166.244.543.327 3.314-3.375 4.324-1.857-.068.352.505-.055.79.62 1.905.339 2.44-.745.092-.6.402-.252.257-.485 1.37.67.835-.427.68 1.013 2.145-1.21.986-.093-.215 1.091.358 1.535.796 1.267.133.608.64.248.97-.61 1.2-.2.825.381.807 1.293 1.624.847.052.488-.72.87-.388.915-.747.346-.758 1.58.094 1.698-.326.24.008.282.52.862.525.207.327.983 1.462.981.664-.395.251.491 1.121.827.456.378.352-.094 1.225.565 1.682.503.603-.085 2.201.452.4-.2 1.565-.03.346.355.41.251.635.008.48.743-.193.351 1.41 1.015.72.575.702.605 1.44.21-.798.81.187.35-.533.699.295.95-.032 1.303.232.4.898.307.3.528.814.154.42.389 1.457.501.342.303.566.02.531.386 1.278.195 1.77.71.031.007v.08h-.06v.04h-.03v.121h.028v.121h-.06v.12h.03v.201h-.12v.04h-.03v.041h-.03v.08h.03v.162h.03v.04h-.03v.04h-.03v.04h-.091v.04h-.06v.04h.03v.122h-.03v.04h-.03v.04h-.182v.04h-.03v.08h-.03v.04h-.03v.04h-.03v.081h-.03v.04h-.03v.041h-.03v.08h-.031v.04h-.03v.04h-.03v.08h-.03v.041h-.03v.04h-.03v.04h-.031v.081h-.03v.04h-.03v.121h-.03v.161h-.03v.16h-.03v.162h-.031v.12h-.06v.04h-.061v.038l-.06.003v.121h-.03v.16h-.03v.08h-.06v.041h-.03v.04h-.061v.04h-.06v.04h-.03v.081h-.03v.081h-.031v.04h-.03v.08h-.03v.04h-.03v.08h-.03v.082h-.031v.04h-.03v.04h-.03v.04h-.03v.081h-.031v.04h-.03v.04h-.03v.04h-.03v.04h-.03v.08h-.03v.041h-.06v.08h.03v.122h.03v.08h-.03v.04h-.03v.04h-.03v.04h-.303v.04h-.03v.081h-.03v.08h-.03v.081h-.03v.04h-.03v.08h-.03v.081h-.121v.04h-.03v.04h-.03v.04h-.03v.041h.03v.04h.06v.04h-.03v.04h-.03v.081h-.03v.04h-.03v.081h-.031v.08h-.03v.08h-.03v.081h-.03v.08h-.121v.282h.03v.201h-.03v.04h-.061v.041h-.03v.04h-.03v.04h-.03v.04h-.03v.041h-.031v.04h-.06v.04h-.03v.04h-.03v.04h-.06v.04h-.03v.041h-.03v.04h-.03v.08h-.031v.041h-.03v.04h-.03v.04h-.03v.04h-.03v.08h-.031v.041h-.03v.04h-.03v.042h-.03v.04h-.03v.08h-.03v.04h-.031v.041h-.03v.08h-.03v.08h-.03v.081h.03v.041h.03v.04h.06v.04h.03v.04h.03v.12h.03v.202h.03v.443h-.03v.08h-.03v.08h-.03v.08h-.03v.081h-.03v.04h-.03v.04h-.03v.041h-.06v.04h-.03v-.12h.03v-.04h.03v-.041h.06v-.04h.03v-.04h.03v-.04h-.06v-.04h.03v-.082h.03v-.08h.03v-.08h.03v-.12h-.03v-.164h-.03v-.08h-.03v-.04h-.03v-.04h-.03v-.04h-.03v-.04h-.091v-.04h-.12v.04h-.061v.12h-.03v.04h-.151v.041h.03v.04h.03v.04h.06v.04h.03v.04h.03v.041h.062v.04h-.031v.08h-.06v-.04h-.06v-.04h-.061v-.08h-.03v-.08h-.211v.04h-.06v.04h-.06v.04h-.061v.04h-.03v.04h-.061v.03l-.06.01v.041h-.06v.04h-.06v.04h-.03v.08h-.031v.081h-.03v.04h-.03v.081h-.03v.04h-.03v.08h-.03v.041h-.031v.08h-.03v.08h-.03v.041h-.03v.08h-.03v.04h-.03v.081h-.031v.04h-.03v.08h-.03v.041h-.03v.08h-.03v.08h-.031v.041h-.03v.08h-.03v.08h-.03v.082h-.03v.08h-.03v.08h-.031v.08h-.06v.041h-.031v.04h-.059v.04h-.06v.04h-.03v.081h-.03v.04h-.03v.08h-.03v.041h-.031v.081h-.03v.04h-.03v.08h-.03v.08h-.03v.041h-.03v.08h-.031v.04h-.03v.081h-.03v.04h-.03v.08h-.03v.04h-.061v.041h-.09v.04h-.06v.04h-.091v.04h-.06v.041h-.091v.04h-.03v.08h-.03v.04h-.03v.041h-.03v.08h-.031v.041h-.03v.04h-.03v.08h-.03v.04h-.03v.041h-.03v.08h-.03v.04h-.031v.04h-.03v.081h-.03v.04h-.03v.04h-.031v.081h-.03v.041h-.031v.04h-.03v.08h-.03v.037l-.03.003v.081h-.03v.08h-.03v.04h-.03v.081h-.03v.04h-.03v.081h-.03v.08h-.03v.04h-.031v.08h-.03v.081h-.03v.04h-.031v.081h-.03v.04h-.03v.08h-.03v.08h-.03v.081h-.03v.161h-.03v.161h-.031v.121h-.03v.161h-.03v.16h-.03v.121h-.03v.161h-.03v.161h-.03v.281h-.03v.121h-.031v.282h.03v.08h-.03v.121h-.03v.12h-.03v.041h-.03v.04h-.03v-.04h-.03v-.04h.03v-.12h.03v-.122h.03v-.08h-.03v-.282h.03v-.12h.03v-.161h-.242v.08h-.03v.04h-.03v.121h-.03v.08h-.03v.081h-.03v.04h-.06v.04h-.031v.04h-.06v.04h-.06v.041h-.03v.08h-.031v.081h-.03v.08h-.03v.04h-.06v.041h-.06v.04h-.061v.04h-.09v.04h-.061v.041h-.06v.04h-.06v.04h-.031v.04h-.03v.04h-.03v.04h-.03v.041h-.03v.04h-.03v.04h-.031v.04h-.03v.04h-.03v.041h-.03v.08h-.03v.041h-.03l-.008.037-.023.003v.04h-.06v.04h-.03v.04h-.061v.041h-.03v.04h-.06v.04h-.03v.04h-.06v.041h-.031v.04h-.03v.08h-.03v.081h-.03l-.008.077-.023.004v.079h-.03v.122h-.03v.08h-.03v.081h-.03v.08h-.031v.08h-.03v.081h-.03v.081h-.03v.08h-.03v.08h-.03v.081h-.031v.08h-.03v.081h-.03v.08h-.03v.081h-.03v.08h-.03v.08h-.03v.121h-.03v.08h-.03v.081h-.031v.12h-.03v.081h-.03v.08h-.03v.08h-.03v.122h-.03v.12h-.031v.08h-.03v.121h-.03v.121h-.03v.12h-.03v.122h-.031v.08h-.03v.121h-.03v.12h-.03v.121h-.03v.08h-.03v.121h-.03v.121h-.031v.12h-.03v.121h-.03v.121h-.03v.12h-.03v.12h-.03v.122h-.031v.12h-.03v.121h-.03v.12h-.03v.122h-.03v.12h-.031v.322h-.03v.242h.03v.08h.03v.04h.03v.04h.03v.08h.03v.04h.03v.041h.121v-.04h.182v.04h.03v.04h.06v.04h.03v.04h.03v.04h-.03v.041h-.03v.072l-.012.003-.018.006v.04h-.03v.04h-.03v.04h-.03v.04h-.03v.081h-.03v.04h-.031v.04h-.06v.04h-.09v.04h-.061v.041h-.09v.04h-.061v.08h-.03v.081h-.06v-.04h-.03v-.12h.03v-.081h.06v-.04h.06v-.041h.06v-.04h.03v-.04h.06v-.04h.061v-.04h-.03v-.04h-.09v.04h-.03v.04h-.061v.04h-.06v-.08h.03v-.121h-.03v-.081h-.03v-.08h-.272v.034l-.03.006v.04h-.06v.242h-.03v.16h-.03v.162h-.03v.04h-.122v.04h-.06v.04h-.06v.04h-.06v.04h-.061v.04h-.06v.041h-.06v.04h-.03v.04h-.061v.041h-.03v.08h-.03v.08h-.03v.081h-.031v.08h-.03v.04h-.03v.081h-.03v.08h-.03v.081h-.03v.08h-.031v.04h-.03v.081h-.03v.08h-.03v.081h-.03v.04h-.03v.081h-.03v.08h-.031v.04h-.03v.081h-.03v.04h-.03v.08h-.03v.081h-.03v.04h-.031v.04h-.06v.04h-.03v.04h-.061v.038l-.03.003v.04h-.03v.04h-.061v.041h-.03v.04h-.03v.04h-.06v.04h-.03v.04h-.06v.041h-.03v.04h-.031v.04h-.06v.04h-.03v.041h-.06v.04h-.031v.04h-.03v.04h-.06v.04h-.03v.041h-.061v.04h-.03v.04h-.03v.04h-.06v.04h-.031v.041h-.06v.04h-.03v.081h-.03v.08h-.03v.08h-.061v.041h-.03v.04h-.061v.04h-.03v.04h-.06v.04h-.03v.041h-.06v.04h-.03v.04h-.061v.04h-.03v.041h-.031v.04h-.06v.04h-.03v.04h-.06v.04h-.03v.041h-.03v.04h-.06v.04h-.031v.041h-.03v.04h-.06v.04h-.03v.04h-.061v.04h-.03v.041h-.03v.04h-.06v.04h-.031v.08h-.03v.082h-.03v.08h-.03v.08h-.03v.08h-.03v.081h-.031v.08h-.03v.08h-.03v.081h-.06v.04h-.031v.041h-.03v.04h-.03v.04h-.06v.04h-.03v.04h-.031v.041h-.03v.04h-.03v.04h-.03v.04h-.03v.04h-.03v.041h-.061v.04h-.03v.04h-.03v.04h-.03v.041h-.03v.04h-.03v.04h-.031v.04h-.03v.04h-.06v.041h-.03v.04h-.031v.04h-.03v.041h-.03v.04h-.03v.04h-.03v.08h-.03v.041h-.03v.04h-.031v.282h-.03v.362h-.03v.12h-.03v.12h-.03v.122h-.03v.04h-.031v.04h-.03v.08h-.03v.042h-.031v.32h-.03v.04h-.03v.04h-.03v.08h-.03v.041h-.03v.04h-.03v.04h-.03v.04h-.031v.041h-.03v.04h-.03v.08h-.03v.04h-.03v.04h-.03v.041h-.031v.04h-.09v.04h-.06v.04h-.091v.04h-.09v.041h-.091v.04h-.121v.04h-.09v.043h-.121v.04h-.09v.04h-.091v.04h-.09v.04h-.091v.04h-.03v.041h-.03v.08h-.03v.041H482v.04h-.031v.08h-.03v.04h-.03v.041h-.03v.08h-.03v.04h-.03v.122h-.031v.2h.03v.08h-.03v.242h-.03v.121h-.03v.08h-.03v.08h-.03v.081h-.031v.08h-.03v.04h-.03v.041h-.03v.04h-.03v.04h-.03v.04h-.061v.04h-.03v.041h-.031v.031l-.03.01v.04h-.03v.04h-.03v.04h-.03v.04h-.03v.041h-.03v.04h-.06v.04h-.03v.04h-.031v.04h-.03v.04h-.03v.041h-.03v.04h-.03v.04h-.031v.04h-.03v.04h-.09v.041h-.061v.04h-.03v.04h-.06v.04h-.03v.04l-.061.002v.04h-.06v.04h-.06v.04h-.06v.04h-.031v.08h-.06v.04h-.06v.04h-.061v.041h-.06v.04h-.06v.032l-.022.006-.009.002v.04h-.06v.041h-.06v.04h-.06v.04h-.061v.04h-.06v.04h-.061v.041h-.06v.04h-.151v.04h-.06v.04h-.03v.04h-.061v.041h-.06v.04h-.06v.04h-.031v.041h-.06v.08h-.03v.08h-.031v.08h-.03v.082h-.03v.08h-.03v.04h-.03v.04h-.03v.081h-.03v.04h-.03v.04h-.03v.04h-.031v.04h-.03v.081h-.03v.04h-.03v.041h-.03v.08h-.03v.08h-.031v.041h-.12v.04h-.212v.04h-.18v.04h-.212v.04h-.181v.041h-.03v.04h-.03v.04h-.06v.04h-.031v.04h-.03v.041h-.03v.04h-.03v.04h-.03v.04h-.06v.041h-.031v.04h-.03v.04h-.06v.04l-.03.001v.04h-.03v.04h-.061v.04h-.091v.04h-.06v.041h-.272v.241h.272v.08h.03v.081h.03v.04h-.03v.08h-.03v.04h-.03v.041h-.03v.08h-.03v.04h-.151v.041h-.181v.034l-.011.002-.02.004v.04h-.03v.041h-.06v.04h-.03v.04h-.03v.04h-.03v.04h-.03v.041h-.061v.04h-.03v.04h-.03v.04h-.091v.04h-.181v.041h-.03v.04h-.06v.081h-.03v.04h-.03v.04h-.031v.08h-.06v.04h-.03v.041h-.03v.04h-.03v.04h-.031v.08h-.03v.041h.03v.04h-.09v.04h-.03v.041h-.03v.08h-.031v.121h.03v.04h.06v-.04h.121v.08h-.03v.08h-.03v.027l-.014.013h-.017v.04h-.059v.04h-.03v.04h-.091v.04h-.06v.041h-.031v.08h-.03v.242h.03v.04h.03v-.04h.03v-.04h.03v.16h-.03v.161h-.03v.121h-.03v.04h-.03v.04h-.03v.081h.03v.04h.06v.12h-.03v.041h-.06v.04h-.03v.04h-.03v.121h-.03v.04h.03v.081h.03v.08h-.03v.04h-.03v.081H475v.08h-.03v.04h-.03v.081h-.03v.08h-.03v.041h-.03v.08h-.061v.04h-.03v.121h-.03v.08h-.03v.202h-.03v.08h-.03v.202h-.031v.04h-.03v.08h-.031v.161h-.03v.08h-.03v.081h-.03v.08h-.03v.122h-.03v.12h-.03v.241h-.03v.04h-.03v.04h-.031v.04h-.03v.04h-.03v.041h-.03v.04h-.06v.042h-.122v.04h-.03v.04h-.06v.04h-.12v.04h-.03v.04h-.031v.041h-.03v.04h-.03v.04h-.061v.04h-.03v.04h-.06v.041h-.06v.04h-.031v.04h-.03v.04h-.03v.041h-.03v.04h-.151v.04h-.151v.04h-.241v.041h-.121v.04h-.15v.04h-.212v.04h-.06v.041h-.12v.04h-.152v.04h-.09v.04h-.09v.04h-.122v.041h-.06v.04h-.06v.04h-.06v.04h-.06v.04h-.061v-.04h-.241v.04l-.03-.001v-.038h-.091v.04h-.15v.04h-.061v.04h-.091v.04h-.06v.04h-.06v.041h-.091v.04h-.06v.04h-.09v.04h-.061v.04h-.06v.041h-.06v.04h-.061v.04h-.06v.041h-.061v.04h-.06v.04h-.06v.04h-.03v.04h-.061v.041h-.03v.033l-.02.002-.04.005v.04h-.03v.04h-.03v.04h-.061v.041h-.03v.039l-.043.001h-.018v.04h-.03v.04h-.03v.04h-.06v.041h-.03v.04h-.061v.04h-.03v.04h-.03v.041h-.06v.04h-.03v.04h-.031v.04h-.06v.04h-.03v.041h-.03v.04h-.061v.041h-.03v.04h-.06v.04h-.031v.04h-.03v.04h-.06v.041h-.03v.04h-.03v.04h-.061v.04h-.03v.121h-.03v.04h-.03v.04h-.03v.04h-.03v.04h-.151v.041l-.121-.01v-.03h-.06v.04h-.121v.04h-.09v.04h-.091v.04h-.03v.041h-.12v.04h-.061v.04h-.03v.041h-.061v.04h-.03v.08h-.03v.04h-.06v.041h-.06v.04h-.061v.032l-.03.008v.04h-.03v.04h-.03v.082h-.03v.04h-.061v.04h-.03v.08h-.031v.08h-.03v.04h-.06v.04h-.03v.041h-.03v.032l-.03.009v.04h-.06v.04h-.031v.04h-.03v.04h-.03v.04h-.03v.041h-.03v.04h-.03v.04h-.031v.04h-.06v.04h-.03v.041h-.03v.04h-.03v.04h-.031v.04h-.03v.04h-.03v.082h-.03v.04h-.03v.04h-.031v.04h-.03v.04h-.03v.04h-.03v.04h-.03v.081h-.03v.04h-.031v.04h-.03v.041h-.03v.08h-.03v.08h-.03v.081h-.03v.04h-.031v.081h-.03v.08h-.03v.04h-.06v.04h-.061v.034l-.06.007v.04h-.06v.04h-.061v.04h-.03v.08h-.03v.082h-.03v.08h-.03v.08h-.031v.081h-.03v.08h-.03v.08h-.03v.081h-.03v.04h-.03v.08h-.03v.081h-.03v.08h-.031v.081h-.03v.08h-.03v.08h-.03v.082h-.03v.04h-.03v.08h-.031v.04h-.03v.081h-.03v.04h-.03v.08h-.03v.04h-.031v.081h-.03v.04h-.03v.08h-.03v.041h-.03v.08h-.03v.08h-.031v.041h-.03v.081h-.03v.04h-.031v.08h-.03v.04h-.03v.08h-.03v.04h-.03v.081h-.03v.04h-.03v.08h-.03v.04h-.031v.081h-.03v.04h-.03v.08h-.03v.081h-.03v.08h-.03v.041h-.03v.08h-.031v.08h-.03v.08h-.03v.041h-.03v.08h-.03v.082h-.03v.08h-.031v.08h-.03v.04h-.03v.08h-.03v.081h-.03v.081h-.03v.04h-.031v.08h-.03v.082h-.03v.079h-.03v.04h-.03v.081h-.03v.08h-.032v.081h-.027v.03l-.03.01v.08h-.03v.081h-.031v.081h-.03v.039l-.03.001v.081h-.03v.079h-.031v.041h-.03v.08h-.03v.081h-.03v.08h-.03v.08h-.03v.081h-.03v.08h-.03v.08h-.03v.082h-.031v.08h-.03v.08h-.03v.081h-.03v.08h-.03v.08h-.03v.08h-.031v.082h-.03v.08h-.03v.08h-.03v.08h-.03v.082h-.03v.08h-.03v.08h-.031v.08h-.03v.081h-.03v.121h-.03v.04h.03v.04h-.03v.161h-.03v.04h-.03v.04h-.031v.202h-.06v.08h-.03v.08h-.03v.081h-.031v.16h-.03v.163h-.03v.12h-.03v.04h-.03v.041h-.03v.08h-.031v.04h-.03v.04h-.03v.082H462v.08h-.03v.08h-.03v.04h-.03v.08h-.061v.041h-.03v.04h-.031v.081h-.03v.161h-.03v.16h-.06v.121h-.03v.08h-.03v.121h-.03v.08h-.031v.242h-.03v.161h-.03v.08h-.03v.162h-.03v.2h.03v.242h-.03v.12h.03v.081h.03v.04h.18v.04h.03v.081h-.03v.04h-.03v.04h-.03v.242h.03v.04h-.03v.08h-.03v.04h-.031v.041h-.06v.08h-.09v.04h-.152v.081h-.03v.04h-.03v-.04h-.06v-.04h-.03v-.04h-.03l-.005-.04h-.026v-.043h-.03v-.16h-.03v-.121h-.12v.04h-.031v.04h-.06v.04h-.06v.04h-.03v.041h-.031v.04h-.03v.04h-.09v.04h-.091v.04h-.03v.04h-.03v.041h-.03v.04h-.031v.04h-.03v.04h-.03v.566h-.03v.24h-.03v.122h-.03v.04h-.091v.04h-.09v.04h-.03v.081h-.061v.12h-.06v.04h-.031v.04h-.09v.04h.027l.003.04h-.091v.081h-.03v.04h-.121v.04h-.06v.04h-.03v.041h-.06v.04h-.03v.04h-.03v.04h-.03v.121h-.031v.081h-.03v.08h-.03v.04h-.03v.04h-.03v.04h-.03v.041h-.121v.04h-.091v.04h-.03v.122h-.03v.04h-.03v.04h-.06v.04h-.031v.04h-.03v.04h-.06v.04h-.03v.04h-.182v.041h-.09v.04h-.423v.04h-.03v.04h-.06v.04h-.06v.041h-.03v.04h-.06v.04h-.061v.08h-.03v.041h-.03v.04h-.06v.04h-.031v.04h-.03v.081h-.06v.04h-.03v.041h-.061v.04h-.12v.04h-.031v-.04h-.06v-.04h-.362v.04h-.06v-.04h-.061v.04h-.09v.04h-.121v.04h-.242v-.04h-.06v-.04h-.03v-.04h-.181v.04h-.03v.04h-.03v.04h-.03v.04h-.06v-.04h-.031v.04h-.03v-.04h-.06v-.04h-.091v.04h-.03v.04h-.03v-.04h-.121v-.04h-.121v-.04h-.21v-.04h-.091v-.04h-.06v-.04h-.182v.04h-.03v.04h-.06v.04h-.06v.04h-.03v.04h-.061v.04h-.03v.041h-.06v.04h-.03v.04h-.061v.04h-.03v.04h-.06v.041h-.061v.04h-.03v.04h-.06v.04h-.03v.04h-.061v.041h-.03v.08h-.03v.04h-.091v.04h-.09v.041h-.03v.04h-.03v.041h-.06v.04h-.031v.04h-.03v.04h-.03v.04h-.03v.041h-.061v.04h-.03v.04h-.03v.04h-.03v.04h-.03v.041h-.061v.04h-.03v.04h-.181v.04h-.06v.04h-.061v.041h-.06v.04h-.06v.04h-.06v.04h-.061v.04h-.03v.041h-.061v.04h-.03v.04h-.06v.04h-.03v.041h-.03v.04h-.06v.04h-.031v.04h-.06v.04h-.03v.041h-.03v.04h-.06v.04h-.031v.041h-.06v.04h-.03v.04h-.061v.04h-.06v.041h-.061v.04h-.06v.04h-.061v.04h-.06v.04h-.06v.03l-.06.01v.041h-.06v.04h-.061v.04h-.03v.04h-.06v.04h-.03v.041h-.031v.04h-.03v.04h-.06v.04h-.03v.041h-.03v.04h-.03v.04h-.061v.04h-.03v.041h-.03v.08h-.03v.041h-.031v.08h-.03v.04h-.03v.04h-.03v.081h-.03v.04h-.03v.081h-.031v.04h-.03v.08h-.03v.04h-.03v.04h-.03v.081h-.03v.08h-.03v.081h-.031v.121h-.03v.12h-.03v.081h-.03v.12h-.031v.121h-.03v.08h-.03v.122h-.03v.08h-.03v.12h-.03v.081h-.03v.12h-.031v.122h-.03v.08h-.03v.12h-.03v.08h-.03v.122h-.03v.08h-.031v.08h-.03v.04h-.06v.041l-.044-.006-.014-.002-.002.032v.016h-.061v.04h-.03v.04h-.03v.04h-.03v.082h-.031v.04h-.06v.04h-.03v.201h-.03v.04h-.121v-.04h-.06v.04h-.03v.16h-.03v.041h-.031v.121h-.03v.12h-.03v.121h-.03v.161h-.03v.08h-.03v.04h-.031v.202h-.03v.08h-.03v.12h.03v.041h.06v.04h.03v.04h.03v.08l-.06.001v.04h-.03v-.04h-.03v-.04h-.03v-.04h-.091v.04h-.06v.08h-.03v.08h-.03v.322h-.03v.081h-.031v.081h-.03v.04h-.03v.08h-.03v.08h-.03v.161h-.03v.322h-.03v.202h-.031v.08h-.03v.12h-.03v.08h-.03v.081h-.03v.081h-.03v.08h-.031v.201h-.03v.121h-.03v.08h-.03v.162h-.03v.12h-.031v.121h-.03v.12h-.03v.081h-.03v.12H448v.081h-.03v.16h.03v.082h.301v.04h.03v.08h-.03v.04h-.03v.04h-.03v.121h-.03v.04h.03v.04h.06v.041h.03v.04h.03v.04h.03v.08h-.03v.242h.03v.16h.03v.041h.03v.08h.061v.082h.06v.081h.03v.04h.03v.241h-.03v.04h-.06v-.08h-.03v-.04h-.03v-.04h-.03v-.04h-.03v-.081h-.03v-.04h-.03v-.04h-.03v-.041h-.03v-.04h-.031v-.04h-.03v-.04h-.03v-.04h-.03v-.081h-.03v-.04h-.061v.04h-.03l-.002.03-.028.01v.08H448v.04h-.03v.041h-.031v.04h-.03v.04h-.181v-.04h-.03v-.04h-.03v-.12h.03l-.001-.322h-.03v-.04h-.03v-.04h-.09v-.041h-.211v.04h-.03v.04h-.03v.04h-.03v.161h.03v.08h.03v.081h.03v.04h.06v.04h.03v.041h.03v.04h.06v.04h.031v.04h.03v.032l.017.005.013.004v.04h.03v.08h-.18v-.04h-.121v-.04h-.06v-.04h-.061v-.04h-.06v-.04h-.121v.08h.03v.04h.03v.04h.06v.04h.03v.04h.091v.041h.03v.04h.03v.04h.212v-.04h.15v-.04h.03v-.04h.092v.08h-.06v.04h-.031v.04h-.06v.04h-.513v-.04h-.03v-.04h-.06v-.04h-.061v-.04h-.09v-.04h-.061v-.04h-.03v-.04h-.211v.04h-.06v.04h-.03v.08h-.031v.04h-.03v.04h-.03v.081h-.03v.08h-.03v.04h-.031v.121h-.03v.081h-.03v.12h-.03v.121h-.03v.322h-.03v.12h-.03v.081h-.031v.201h-.03v.08h-.03v.041h-.03v.04h-.03v.04h-.03v.081h-.031v.241h-.03v.08h-.03v.323h-.03v.281h-.03v.08h-.03v.121h-.031v1.085h.03v.322h-.03v.04h-.12v.04h-.031v.282h.03v.04h.03v.04h.03v.08h-.03v.041h-.03v.04h-.06v.04h-.03v.04h-.091v.081h-.03v.242h-.03v.241h-.03v.08h-.03v.161h-.03v.08h-.03v.122h-.03v.08h-.031v.08h-.03v.081h-.03v.16h-.03v.242h-.03v.12h-.03v.04h-.031v.122h-.03v.12h-.03v.201h-.03v.081h-.03v.12h-.031v.081h-.03v.08h-.06v.04h-.03v.04h-.03v.082h-.03v.031l-.031.009v.04h-.03v.04h-.03v.04h-.03v.08h-.03v.081h-.03v.04h-.031v.04h-.06v.041h-.03v.04h-.031v.04h-.03v.04h-.03v.04h-.03v.121h-.03v.04h-.03v.081h-.03v.04h-.031v.04h-.06v.04h-.03v.04h-.06v.041h-.031v.04h-.06v.04h-.06v.04h-.03v.04h-.031v.041h-.06v.04h-.09v.04h-.031v.041h-.06v.04h-.03v.04h-.06v.04h-.182v.042h-.09v.04h-.06v.04h-.121v.04h-.091v.04h-.03v.041h-.03v.04h-.03v.04h-.06v.04h-.03v.04h-.091v.041h-.03v.04h-.03v.04h-.061v.04h-.03v.04h-.03v.041h-.06v.04h-.061v.04h-.06v.041h-.03v.032l-.03.008v.04h-.031v.04h-.03v.04h-.03v.041h-.03v.04h-.03v.04h-.03v.081h-.03v.04h-.061v.04h-.06v.04h-.03v.04h-.03v.041h-.031v.08h-.03v.04h-.03v.04h-.03v.041h-.03v.04h-.031v.04h-.03v.041h-.06v.04h-.06v.04h-.061v.04h-.03v.04h-.03v.041h-.03v.04h-.03v.04h-.031v.04h-.03v.04h-.03v.041h-.03v.08h-.061v.04h-.03v.081h-.03v.04h-.089v.04h-.03v.04h-.031v.081h-.03v.04h-.03v.04h-.03v.04h-.03v.04h-.03v.04h-.031v.04h-.03v.041h-.03v.04h-.03v.04h-.03v.04h-.03v.04h-.03v.041h-.031v.04h-.03v.04h-.06v.04h-.03v.04h-.061v.041h-.03v.04h-.03v.04h-.03v.04h-.03v.041h-.031v.04h-.03v.04h-.06v.04l-.03.001v.04h-.03v.04h-.091v.04h-.03v.04h-.03v.041h-.031v.04h-.03v.04h-.03v.04h-.03v.04h-.03v.041h-.03v.04h-.031v.04h-.06v.04h-.03v.04h-.03v.041h-.03v.04h-.061v.04h-.03v.04h-.06v.041h-.03v.04h-.061v.04h-.06v.04h-.03v.04h-.061v.041h-.06v.04h-.03v.04h-.06v.041h-.031v.04h-.03v.04h-.06v.04h-.06v.04h-.091v.041h-.03v.04h-.09v.04h-.091v.04h-.091v.04h-.06v.041h-.06v.04h-.061v.04h-.06v.04h-.03v.04h-.03v.041h-.03v.04h-.031v.04h-.09v.04h-.03v.041h-.03v.04h-.03v.04h-.031v.202h.03v.04h.06v.04h.03v.04h.03v.04h.03v.04h.031v.041h.06v-.04h.03v-.04h.06v.04h.031v.04h.03v.12h-.03v.04h-.03v.041h-.03v.04h-.09v.04h-.031v.04h-.15v-.04h-.03v-.12h.03v-.04h.03v-.12h-.03v-.041h-.091v-.04h-.211v.04h-.03v.12h-.03v.04h-.031v.04h-.03v.041h-.212v-.04h-.06v-.04h-.06v-.04h-.181v.04h-.09v.04h-.03v.04h-.03v.04h-.031v.04h-.03v.04h-.03v.04h-.03v.041h-.03v.04h-.061v.04h-.06v.04h-.03v.041h-.03v.04h-.031v.04h-.03v.041h-.06v.04h-.03v.04h-.06v.04h-.031v.04h-.03v.041h-.03v.04h-.03v.04h-.06v.04h-.031v.04h-.06v.041h-.03v.04h-.03v.08h-.031v.04h-.03v.082h-.03v.04h-.03v.08h-.03v.08h-.03v.04h-.03v.04h-.031v.081h-.06v.04h-.03v.121h-.03v.04h-.03v.081h-.031v.04h-.03v.04h-.03v.04h-.03v.081h-.031v.04h-.03v.04h-.03v.04h-.03v.04h-.03v.122h-.03v.04h-.03v.04h-.031v.04h-.03v.121h-.03v.04h-.03v.08h-.03v.081h-.03v.04h-.031v.04h-.03v.04h-.03v.037l-.03.004v.08h-.03v.04h-.03v.04h-.031v.082h-.03v.08h-.03v.12h-.03v.04h-.03v.121h-.03v.04h-.031v.081h-.03v.04h-.03v.121h-.03v.04h-.03v.08h-.03v.04h-.031v.081h-.03v.08h-.06v.04h-.03v.041h-.061v.04h-.03v.042h-.03v.04h-.031v.04h-.03v.08h-.03v.04h-.06v.04h-.03v.04h-.06v.04h-.031v.04h-.03v.041h-.03v.04h-.03v.04h-.03v.04h-.03v.04h-.03v.081h-.031v.04h-.03v.08h-.03v.041h-.03v.04h-.03v.081h-.03v.04h-.031v.04h-.03v.04h-.03v.04h-.03v.08h-.03v.042h-.031v.04h-.03v.081h-.03v.04h-.03v.08h-.03v.041h-.03v.04h-.031v.04h-.03v.04h-.03v.04h-.06v.041h-.03v.08h-.03v.041h-.031v.04h-.03v.04h-.03v.04h-.03v.04h-.06v.04h-.031v.08h-.03v.04h-.03v.04h-.03v.041h-.03v.04h-.061v.04h-.03v.04h-.03v.04h-.06v.041h-.031v.12h-.03v.041h-.03v.04h-.03v.04h-.03v.08h-.03v.041h-.031v.08h-.03v.08h-.03v.041h-.03v.04h-.03v.081h-.03v.08h-.03v.04h-.031v.121h-.03v.08h-.024l-.006.081h-.03v.121h-.03v.08h-.031v.081h-.03v.04h-.03v.08h-.03v.081h-.03v.04h-.03v.04h-.031v.08h-.03v.041h-.03v.04h-.03v.04h-.03v.04h-.03v.161h-.03v.04h-.031v.081h-.03v.04h-.03v.04h-.03v.04h-.03v.041h-.031v.04h-.03v.12h-.03v.041h-.03v.04h-.03v.04h-.03v.081h-.031v.04h-.03v.04h-.03v.081h-.03v.04h-.03v.08h-.03v.081h-.031v.04h-.03v.04h-.06v.04h-.03v.041h-.031v.04h-.03v.04h-.03v.08h-.03v.041h-.03v.04h-.03v.081h-.031v.08h-.03v.08h-.03v.081h-.03v.08h-.03v.04h-.06v.041h-.122v.04h-.06v.04h-.09v.04h-.03v.04h-.03v.041h-.031v.04h-.03v.04h-.03v.04h-.03v.081h-.03v.121h-.03v.04h-.031v.121h-.03v.04h-.03v.08h-.03v.081h-.03v.12h-.03v.121h-.031v.033l-.03.008v.04h-.03v.04h-.03v.04h-.03v.08h-.03v.041h-.061v.04h-.03v.04h-.03v.081h-.03v.08h-.03v.08h-.031v.041h-.03v.08h-.03v.08h-.03v.041h-.03v.04h-.03v.04h-.031v.08h-.03v.081h-.03v.082h-.03v.04h-.03v.081h-.03v.08h-.031v.08h-.03v.081h-.03v.08h-.03v.04h-.03v.04h-.182v.041h-.03v.04h-.03v.08h-.03v.04h-.03v.081h-.03v.04h-.03v.041h-.03v.04h-.031v.08h-.03v.08h-.03v.04h-.03v.08h-.03v.077l-.03.004v.04h-.03v.04h-.031v.04h-.03v.041h-.03v.04h-.03v.04h-.031v.04h-.03v.04h-.03v.041h-.03v.04h-.03v.04h-.03v.121h-.03v.08h-.031v.041h-.03v.08h-.03v.033l-.03.008v.04h-.03v.04h-.03v.04h-.031v.04h-.03v.04h-.03v.081h-.03v.04h-.03v.04h-.031v.04h-.03v.041h-.06v.04h-.03v.04h-.03v.04l-.031.001v.08h-.03v.04h-.06v.04h-.03v.041h-.03v.035l-.03.005v.04h-.031v.08h-.03v.041h-.03v.04h-.03v.04h-.03v.04h-.03v.04h-.031v.041h-.03v.08h-.03v.04h-.03v.041h-.03v.04h-.03l-.001.12h-.03v.122h-.03v.04h-.03v.08h-.03v.03l-.03.01v.033h-.031v.047l-.03.001v.081h-.03v.04h-.03v.04h-.06v.041h-.031v.04h-.03v.081h-.03v.033l-.03.007v.037l-.03.003v.04h-.03v.04h-.03v.081h-.031v.121h-.03v.04h-.03v.08h-.03v.081h-.03v.04h-.031v.04h-.03v.04h-.03v.04h-.06v.041h-.03v.08h-.031v.08h-.03v.082h-.03v.08h-.03v.04h-.03v.04h-.03v.04h-.031v.08h-.03v.041h-.03v.04h-.031v.04h-.03v.041h-.03v.12h-.03v.04h-.03v.041h-.03v.08h-.03v.08h-.03v.081h-.03v.04h-.031v.04h-.03v.081h-.03v.08h-.03v.08h-.03v.082h-.03v.04h-.031v.08h-.03v.04h-.03v.081h-.03v.04h-.03v.08h-.03v.081h-.031v.08h-.03v.04h-.03v.081h-.03v.08h-.03v.08h-.031l-.738-.33-3.586-1.8-.58-.476-.084.153-.822-.249-.491-.33-1.41-.076-.126-.076-1.11-.927-.273-.672.233-.763-.42-.539-.12-.935-2.276-2.12-1.204-1.71-.81-.41-1.328-.24-1.113.191-4.28.04-.526.824-.615.528-.368 1.543.646.5-.118 1.051-.22.07-.624 1.232-1.616 2.171-1.042-.115-1.193.924-.312.463-.656-.064.173.49-.206.493-.619 1.617-.357.36-.847.249-.524-.095-.29-.756-.766-.85-.478-.781-.823-.34-.791-1.104-.897-.832-.827-1.727-.29-1.633-.516-.69-.05-.482-.772-.815-1.057-1.665-1.935.035-1.102.752-2.01 2.51-.01.751-.452 1.637-.751 2.176-4.647-.673-2.317-1.122.503-4.9.327-.53-1.243-6.426-1.294-.62z"/><path id="C" d="M314.415 167.234l-1.03.04-3.414.94-1.834-.534-1.18-.767-1.149-.597-2.346-.332-2.21-.427-.807-.471-1.554.223-.964.405-.584.022-1.36-.626-.48-1.544-.202-1.709-1.151-2.048-.76-2.022-1.345-2.048-.047-.703-.731-1.077 1.378-1.143-.283-.449-2.077-1.316-1.465-.645-1.455-1.87-.111-.593.91-1.49 1.687.85.389.02.798-.436 1.935.46 1.196.696.939-.555.877-.302.607.237.824.005-.072.86.281.44.504.108 2.285-1.921 1.774-.614.34-.472-.313-.946.238-1.148-.573-1.089-.047-1.915.87-2.39.437-.368.962-.27.555-.6-.134-.257.558.69-.397 1.114 1.058 2.51.289 1.506.85.67-.003.673 2.62 2.74.754-.546.128.16-.322.842.12.23-.295.516.293 1.135-.482.47.613 1.126.94.399 1.69-.296 1.466.767.647-.126.923.06 2.957-.618.561.142.282-.207.87.083.268.115.365.775.904.646.239.973 1.203.275.49.382.651.009.644.622 2.525 2.499.498.357-.166.152.814 1.05.04 1.358-.788.93-.566 1.227-1.484.512-1.291 1.075-.659.182-2.21 1.29-1.094-.24-.778.597-.557.02-.72.346-.842-.11-.746.649-.577.13-.72.571-.846-.277zm95.483 82.106v.04h.06v.04h.12v-.04h.091v.04h.03v.04h.091v.041h.15v.04h.091v.04h.12v.04h.092v.04h.06v.041h.09v.04h.09v.04h.061v.041h.12v.04h.061v.04h.03v.04h.151v.04h.03v.121h-.03v.04h-.03v.04h-.03v.082h-.03v.08h-.03v.04h-.03v.04h-.03v.04h-.031v.04h-.03v.04h-.03v.081h-.03v.201h-.03v.04h.06v.041h.09v.04h.09v.04h.061v.04h.06v-.04h.06v-.04h.061v-.08h.03v-.081h.03v-.08h.03v-.08h.03v-.081h.03v-.08h.031v-.04h.03v-.081h.03v-.08h.03v-.081h.03v-.08h.03v-.08h.031v-.041h-.03v-.08h-.03v-.081h-.03v-.04h-.06v-.04h-.03v-.041h-.031v-.04h-.03v-.04h-.06v-.04h-.03v-.04h-.03v-.041h-.031v-.04h.03v-.04h.03v.04h.03v.04h.06v.04h.03v.04h.031v.04h.03v.04h.06v.041h.03v.04h.03v.04h.031v.041h.03v.08h.03v.08h.03v.041h-.03v.08h-.03v.08h-.03v.082h-.03v.08h-.03v.08h-.03v.04h-.03v.08h-.03v.081h-.03v.08h-.031v.081h-.03v.08h-.03v.082h-.03v.04h-.03v.04h-.03v.04h-.061v.041h-.06v.04h-.061v-.04h-.06v-.04h-.09v-.04h-.091v-.04h-.06v-.041h-.06v-.04h-.091v-.04h-.121v-.04h-.06v-.041h-.06v-.04h-.091v-.04h-.151v-.04h-.06v-.04h-.06l-.001-.041h-.09v-.04h-.121v-.04h-.03v-.04h-.09v-.04h-.061v-.041h-.03v-.04h-.03v-.161h.03v-.04h.03v-.12h.03v-.082h.03v-.04h.03v-.04h.03v-.04h.03v-.04h.03v-.042h.061v-.12h-.15v-.04h-.03v-.04h-.03v-.041h-.061v-.04h-.09v-.04h-.03v-.08zm2.624-2.212v.04h.06v.04h.03v.04h.031v.04h.03v.081h.03v.804h.03v.443h-.03v.12l.03.001v.16h-.03v.604h-.15v-.12h.03v-.04h.03v-1.369h-.03v-.04h-.181v-.08h.03v-.04h.03v-.04h.03v-.122h-.03v-.04h-.12v-.04h-.182v.04h-.06v.04h-.09v.04h-.06v.041h-.061v.04h-.03v.161h.03v.04h.03v.161h-.03v.04h-.03v.04h-.03v.041h-.03v.04h-.121v.04h-.151v-.04h-.03v-.12h.03v-.12h.03v-.041h.03v-.08h.03v-.121h.03v-.04h.03v-.04h.03v-.041h.061v-.04h.03v-.161h.03v-.04h.03v-.04h.03v-.04h.031v-.081h.03v-.04h.03v-.041h.03v-.04h.06v-.04zm-15.6 91.289l-.168.088-.494.261-.695.317-.154.67-.056.408-1.37.549-.33-.208-.21.093-3.95-.316-1.064-.543-.565.015-.485.017-1.407.682-1.297.222-.804.35-1.37.12-1.629.836.158.517-.275.175.691.88-.037.931.653 1.368.908.597 1.114 1.276.623.228.329-.206.045-.322 1.591-.618-.006-.295 1.123-.495.617.483.07.536.47.506 1.456.208.038 1.779-.554-.069-.397.543-.808.238-.134.362-1.129.364-1.77 2.307-3.575 1.238-1.046 1.256-1.644.791-.872.726-.119.4-1.156.014-.107-.476-.916-1.135-.484-.965.278-.31-.385-1.716.013-1.366-1.06-.403-1.94-.158-.538.387-.2-.053-1.187-1.728-1.999 1.078-.116-.68-.97-1.746-.545-.449-1.203.286-.297-.273.438-.387-.32-.461-.242.402-.828-.375-.105.09.26.435-.947.037-1.019.914-.465-.287-.514.063-.99.568-.45-.24-.418.261-.551 1.068-.912.29-.606.268-.201-.334-.97-.048-.728.242-.663.55-.478.008-.318-.589.224-.6-2.68-4.16-.165-.22-2.264-.168-.515.405-1.841.319-.977-.37-.47-.957.287-.753-1.524-.35-.008-.432-.525-1.038.115-2.503.544-.645.315-1.107-.685-.93-.49-3.787.537-1.112-.197-.618.069-1.707.803-1.75-1.772-1.138-1.046-1.717-.357-1.173-.299-.08.044-.516-.274-.654.12-.708-.203-1.663-1.943.263-1.138-.718-.44.064-.815-.315-.881.54-.651.948-2.48.708-.69-.363-1.258.327-4.127.478-1.489.393-2.606-.126-.913.262-.905-.256-.66-1.425-.195-.07-.69-2.192-3.517-4.836-.928-.693-.737-1.745-1.949-2.842-1.413-.852-1.357-1.302-.783-.26-.505-.543-.309-.858.165-.21.158-2.298-.209-1.032 1.074-1.24.01-3.206 1.652-1.096.886-2.889.582-2.609 1.788-1.523 1.46-2.1.281-.534.247-1.942.33-.81.908-1.797.483-2.668-.055-2.377.112-2.75.121-1.967.895-2.041.5-1.75-.338-.738-1.428-.598-1.132-.135-.323.171-.345-.217-.315.337-.705-.682.061-.382-.422-.736-.288-.05-.462.607-.032.445-.428.344-.515.086-.483-.492-1.122-.433-.67.128-.313-1.008-.322.879-.52-.667-.836-.406-.532.191-.678-.666-.403.07-.482.593-.358-.185.01-.313-.655-.386-.264.453-.485.063-.398-.465.292-.225-.014-.263-1.162-.384-.28-.39-.61-.016-.285.512-.895-.376-.496.23-.15.164.362.163.11.392-.63.25-.697-.898-1.04.057-.354-.35-.219-.746-.494-.229-.58-1.038-1.09-.043-.835.307.385-.754-.227-.977-.891-.163-1.005.557-.717-.328-.115-.353.234-.16.656.122.323-.3.162-.536-.123-.21-.33-.186-.795.767-.256-.187-.092-.743-.353-.296-.89-.15-.39.31.296.708.1 1.253-.148.22-.552.306-.382-.416.452-.866-.03-.725-.429-.267-.205.175.233.514-.666-.081-.517.836-.145.847-1.177.131.007-.448.605-.37-.29-1.017.392-.512-.084-.236-.913-.21-.533.109-.606-.57.55-.585.882.663.19-.086.049-.27-.464-.237-.08-.401.6-.144-.229-.292.181-.87-.352-.296-.684.107-.539 1.385-.659-.107-.418-.53.209-.552.916-.376-.368-.862-.522-.22-.734 1.075-.737.034-.14-.806.25-.757-.112-.582.049-.278.615-.156-.176-.585-.596.082-.97 1.026-.727-.401.402-1.106.552-.464-1.08-.072-.205-.53-.368-.299-.18.113-.095.794-.729-.394-.04-.495.643-.416-.03-.177-.573-.178-.408-.409.595-.547.072-.301-1.045-.472-.084-.443.201-.294.355-.081.498.298.577-.313.085-1.858.219-.611.212-.39.603-.126.011-.213-.784-.16-.206-.303.808-.712-.63-.325-.167-.85.955.69.342-.593-.124-.235.272-.468-.876-1.073.006-.725.477-.218.174-.21-.633-.698.308-.597-.197-.97.539-.431-.554-.81.377-.649-.07-.382-.775.237-.58-.463-.553-.02.33-.368 1.589-.092.002-.601.259-.131-.389-.987 2.267-.761.727.006.723-.387.875-.7.772-1.587 1.009-3.423.995-2.547 2.019-3.783 1.512-1.6 3.853-3.422 2.804 1.162 1.837 1.232 1.409.376 2.264-.297 1.346-.775 1.91-3.043-.987-2.045-.124-.787.139-1.841-.488-.842 1.452-2.817 1.398-2.326 1.638-1.495 1.404-2.946.672-.811-.205-.813.562-.856.109-1.876-.018-.713.439-1.14.745-1.938-.082-1.65.337-.316-.27-.11.008-2.125.204-2.947.25-.743-.303-.298.148-.349-.287-.222-.067-.427-.915-.765.22-.576-.304-.279.308-.958-.166-.098.027-.355.457-.802 5.434-2.105 1.254-1.153.587-.033.73.265.2 1.065.725.295-.226-.749.506-.312.314-.571.387-.147.315.599.304-.232-.086-.18.304-.454 1.397 1.04.494-.38.331-.207-.259-.198.109-.45 1.563-.482 1.638-.102 3.39.832 2.468-1.045.373.243.844-.243 1.632.881.852.185 1.772 1.08.318-.037.506.642 1.06.422.315.556.79-.464.451-.741.51.941-.154.437 1.21 1.582.367 1.753-.09.822-.448-.258-.674 1.44.677 2.547-.22.263.722.22.295.761-.376.574-.482.267-.48 1.98.52.968 1.382 1.287.704.677 1.008-.026.571.571.417-.07.301.297.42-.092.598-.45.173-.722.77-.213 1.121-.791 1.077-1.223 1.536-.38 1.878-1.095.426-.053 2.195 1.686 2.12 3.841.531.399.433.688-.005.55.447-.03.48.44-.128.839.154.474.625.497.013.246.279-.173.554.418 1.123-.522.598-2.648 1.295-2.16.435-.35 2.503 1.77 1.294.62 1.243 6.426-.327.53-.503 4.9 2.317 1.122 4.647.673.75-2.176.453-1.637.01-.75 2.01-2.511 1.102-.752 1.935-.035 1.057 1.665.772.815.05.483.517.689.289 1.633.827 1.727.897.832.791 1.104.823.34.478.781.766.85.29.756.524.095.847-.25.357-.36.619-1.616.206-.492-.173-.491.656.064.312-.463 1.193-.924 1.042.115 1.616-2.171.623-1.232.221-.07.118-1.05-.646-.501.368-1.543.615-.528.525-.823 4.28-.04 1.114-.193 1.328.24.81.411 1.204 1.71 2.276 2.12.12.935.42.539-.233.763.273.672 1.11.927.126.076 1.41.075.491.332.822.248.084-.153.58.476 3.586 1.8.738.33v.081h-.03v.08h-.03v.041h-.03v.04h-.03v.08h-.03v.081h-.03v.121h-.031v.282h-.03v.04h-.03v.04h-.03v.12h-.03v.08h-.03v.082h-.031v.08h-.03v.08h-.03v.04h-.03v.04h-.03v.082h-.03v.08h-.031v.081h-.03v.08h-.03v.202h-.03v.08h-.03v.08h-.031v.08h-.03v.082h-.03v.241h-.09v.04h-.03v.08h-.031v.242h-.03v.2h-.03v.082h-.03v.12h-.03v.12h-.03v.162h-.031v.08h-.03v.12h-.03v.162h-.03v.12h-.03v.081h-.03l-.001.16h-.03v.08l-.03.001v.08h-.03v.122h-.03v.08h-.03v.2h-.031v.242h-.03v.16h-.03v.403h-.03v.603h-.03v.442h.03v.04h.06v.04h.03v.04h.03v.041h.03v.282h-.03v.04h-.03v.04h-.03v.04h-.03v.08h-.03v.041h-.091v.04h-.03v.04h-.03v.08h-.03v.041h-.03v.041h-.031v.04h-.03v.12h-.03v.08h-.03v.162h-.03v.04h-.03v.04h-.03v.04h-.031v.08h-.03v.041h-.03v.04h-.03v.04h-.03v.04h-.031v.04h-.03v.083h-.03v.08h-.03v.04h-.03v.241h-.03v.04h-.06v.041h-.092v.04h-.03v.04h-.03v.04h-.06v.04h-.03v.041h-.03v.04h-.03v.04h-.031v.04h-.03v.041h-.03v.04h-.03v.16h.03v.041h.06v.04h.03v.04h.03v.04h.06v.04h.091v.041h.09v.04h.091v.04h.06v.041h.061v.04h.03v.04h.06v.04h.121v.041h.09v.04h.03v.04h.091v.04h.09v.04h.061v.041h.06v.04h.06v.04h.031v.04h.09v.04h.091v.041h.06v.04h.03v.04h.061v.04h.06v.04h.03v.041h.09v.04h.091v.04h.03v.041h.06v.04h.061v.04h.03v.04h.03v.081h-.12v-.04h-.03v-.04h-.06v-.04h-.06v-.041h-.031v-.04h-.12v-.04h-.061v-.04h-.06v-.04h-.03v-.041h-.06v-.04h-.061v-.04h-.06v-.04h-.061v-.04h-.09v-.041h-.06v-.04h-.031v-.04h-.09v-.04h-.06v-.04h-.091v-.041h-.06v-.04h-.091v-.04h-.09v-.04h-.03v-.041h-.061v-.04h-.06v-.04h-.06v.038h.03v.241h.03v.201h.03v.201h.03v.242h.03v.2h.03v.242h.03v.12h-.03v.04h-.03v-.04h-.03v-.12h-.03v-.241h-.03v-.201h-.03v-.242h-.03v-.2h-.03v-.202h-.031v-.241h-.03v-.081h-.03v-.04h-.09v-.04h-.031v.04h-.03v-.04h-.091v-.04h-.03v-.04h-.211v.04h-.06v.04h-.03v.08h-.03v.08h-.031v.081h-.03v.04h-.03v.04h-.03v.081h-.03v.04h-.031v.12h.03v.041h.03v.04h.06v.04h.091v.04h.03v.04h.06v.041h.061v.04h.06v.04h.06v.041h.03v.12h-.03v.04h-.18v.041h-.09v.04h-.061v.04h-.06v.04h-.06v.041h-.031v.04h-.03v.04h-.03v.04h-.03v.04h-.03v.041h-.03v.04h-.061v.04h-.211v.04h-.12v.04h-.091v.041h-.06v.04h-.061v.04h-.06v.041h-.03v.04h-.03v.036l-.031.004v.041h-.03v.041h-.061v.04h-.09v.04h-.09v.04h-.03v.04h-.03v.04h-.061v.041h-.06v.04h-.06v.04h-.031v.041h-.09v.04h-.091v.04h-.09v.04h-.09v.04h-.122v.04h-.06v.041h-.06v.04h-.03v.04h-.03v.041h-.03v.04h-.031v.032l-.06.008v.04h-.03v.04h-.03v.041h-.03v.04h-.031v.04h-.03v.04h-.03v.04h-.03v.041h-.03v.04h-.031v.04h-.03v.04h-.03v.081h-.03v.04h-.03v.04h-.03v.04h-.061v.041h-.06v.04h-.06v.04h-.061v.04l-.03.001v.04h-.03v.04h-.03v.04h-.06v.04h-.031v.08h-.06v.041h-.03v.04h-.03v.04h-.031v.041h-.03v.04h-.06v.04h-.03v.04h-.03v.04h-.03v.081h-.031v.04h-.03v.04h-.03v.081h-.03v.04h-.03v.04h-.03v.04h-.031v.041h-.03v.04h-.03v.04h-.03v.041h-.03v.04h-.061v.04h-.03v.08h-.03v.041h-.03v.04h-.03v.04h-.031v.04h-.03v.081h-.03v.04h-.03v.04h-.03v.04h-.03v.04h-.031v.041h-.03v.04h-.03v.04h-.03v.081h-.03v.08h-.03v.041h-.03v.04h-.031v.04h-.03v.04h-.03v.03l-.031.007v.044h-.03v.04h-.03v.04h-.03v.04h-.03v.04h-.03v.041h-.03v.08h-.03v.04h-.031v.081h-.03v.08h-.03v.08h-.03v.041h-.03v.08h-.03v.081h-.031v.04h-.03v.081h-.03v.04h-.03v.04h-.03v.08h-.031v.081h-.03v.08h-.03v.081h-.03v.08h-.03v.08h-.03v.122h-.031v.08h-.03v.12h-.03v.04h-.03v.162h-.03v.12h-.03v.081h-.03v.08h-.031v.121h-.03v.16h-.03v.162h-.03v.241h-.03v.08h-.03v.161h-.031v.121h-.03v.08h-.03v.162h-.03v.08h-.03v.08h-.031v.081h-.03v.523h-.03v.04h-.03v.16h-.03v.12l-.03.002v.121h-.031v.04h-.03v.281h-.03v.08h-.03v.121h-.03v.08h-.03v.04h-.03v.081h-.031v.12h-.03v.082h-.03v.08h-.03v.08h-.03v.04h-.03v.122h-.031v.08h-.03v.04h-.03v.08h-.03v.04h-.03v.121h-.031v.04h-.03v.041h-.03v.04h-.03v.081h-.031v.04h-.03v.04h-.03v.04h-.03v.04h-.03v.04h-.03v.121h-.03v.04h-.03v.04h-.061v.041h-.03v.282h.03v.08h.03v.201h-.03v.04h-.03v.04h-.03v.04h-.03v.037l-.03.004v.04h-.03v.04h-.061v.041h-.121v.04h-.12v.04h-.061v.04h-.121v.04h-.06v.04h-.06v.04h-.03v.041h-.03v.04h-.03v.04h-.031v.04h-.03v.041h-.03v.04l-.029-.004-.001.045h-.03v.04h-.03v.08h-.031v.04h-.03v.04h-.06v.041h-.03v.04h-.03v.04h-.03v.04h-.031v.04h-.03v.041h-.03v.08h-.03v.08h-.031v.082h-.03v.08h-.03v.04h-.03v.08h-.03v.08h-.03v.041h-.03v.04h-.061v.04h-.03v.121h-.03v.04h-.03v.04h-.03v.081h-.031v.08h-.03v.081h-.03v.04h-.031l-.001.03-.029.01v.037l-.03.004v.079h-.03v.041h-.06v.04h-.03v.04h-.03v.04h-.031v.04h-.03v.081h-.03v.04h-.03v.04h-.03v.08h-.03v.081h-.03v.04h-.031v.04h-.03v.04h-.03v.081h-.06v.04h-.061v.04h-.03v.081h-.03v.04h-.03v.04h-.03v.04h-.03v.081h-.031v.04h-.03v.081h-.03v.04h-.06v.04h-.031v.121h-.03v.08h-.03v.081h-.03v.04h-.03v.04h-.03v.08h-.031v.122h-.03v.041h-.03v.03l-.03.01v.04h-.03v.04h-.03v.04h-.03v.081h-.031v.04h-.03v.04h-.03v.04h-.03v.041h-.03v.12h-.03v.041h-.031v.08h-.03v.04h-.03v.04h-.03v.081h-.03v.04h-.031v.04h-.03v.081h-.03v.04h-.03v.08h-.03v.04h-.03v.041h-.031v.04h-.03v.161h-.03v.08h-.03v.081h-.03v.161h-.03v.04h-.03v.04h-.031v.162h-.03v.04h-.03v.201h-.03v.04h-.031v.201h-.03v.161h-.03v.242h-.03v.12h-.03v.201h-.03v.04h-.03v.04h-.031v.041h-.03v.04h-.03v.161h-.03v.161h-.03v.16h-.03v.202h-.031v.281h-.03v.483h-.03v.322h-.03v.12h-.03v.403h-.031v.242h-.03v.24h-.03v.282h-.03v.04h-.03v.322h.03v.08h.03v.038l.03.003v.08h.03v.563h.03v.925h-.03v.363h.03v.16h.03v.121h-.03v.121h.03v.16h.03v.081h.03v.12h.031v.242h.03v.04h.03v.04h.03v.081h.03v.04h.06v-.04h.031v.04h.03v.04h.03v.081h.03v.04h.031v.161h.03v.08h.03v.04h.03v.041h.03v.04h.03v.04h.03v.04h.031v.081h.03v.04h.03v.04h.03v.08h.03v.041h.03v.04h.031v.04h.03v.041h.03v.04h.03v.04h.03v.04h.03v.041h.031v.08h.03v.04h.03v.04h.03v.041h.03v.08h.03v.04h.031v.04h.06v.041h.03v.04h.03v.04h.061v.041h.06v.04h.03v.04h.06v.08h-.06v.041h-.03v.04h-.21v-.04h-.061v.04h-.03v.04h-.03v.04h-.03v.081h-.03v.08h-.031v.04h-.03v.041h-.151v-.04h-.03v-.04h-.03v-.04h-.03v-.081h-.03v-.08h-.03v-.041h-.03v-.04h-.031v-.04h-.03v-.04h-.03v-.04h-.03v-.08h-.031v-.122h-.03v-.08h-.03v-.04h-.03v-.04h-.03v-.041h-.03v-.08h-.03v-.04h-.031v-.081h-.03v-.08h-.03v-.041h-.03v-.04h-.06v-.04h-.031v-.04h-.03v-.04h-.03v-.041h-.03v-.04h-.121v-.04h-.03l-.007-.04h-.024v-.081h.031v-.04h.03l-.006-.161h-.024v-.08h-.03v-.04h-.03v-.041h-.03v-.04h-.031v-.04h-.06v-.04h-.242v.04h-.03v.04h-.03v.04h-.03v.04h-.03v.04h-.03v.04h-.03v.202h.03v.12h.03v.04h.06v.041h.03v.04h.06v.04h.09v-.04h.031v-.04h.03v-.04h.06v-.04h.06v.04h.061v.04h.03v.12h-.03v.04h-.03v.041h-.03v.04h-.03v.04h-.03v.04h-.03v.041h-.03v.04h.03v.04h.06v.04h.211v.04h.03v.042h.03v.04h.03v.242h.03v.08h.03v.04h.031v.04h.03v.04h.12v.041h.03v.04h.031v.04h.03v.08h-.03v.041h-.09v-.04h-.091v-.04h-.241v.04h-.03v.16h.03v.081h.03v.08h.03v.04h.03v.041h.09v.04h.242v.04h.06v.202h-.03v.04h-.03v.08h-.03v.04h-.241v-.04h-.272v.04h-.03v.041h-.03v.04h-.03v.04h-.03v.04h-.03v.242h-.03v.04h-.031v.08h-.03v.121h-.03v.121h-.03v.04h-.03v.04h-.03v.08h-.031v.041h-.03v.04h-.03v.04h-.03v.04h-.03v.282h-.031v.523h.03v.04h.03v.362h-.03v.04h-.03v.04h-.03v.041h-.06v.04h-.302v-.04h-.211v-.04h-.06v-.04h-.061v-.04h-.09v-.04h-.121v-.041h-.09v-.04h-.06v-.04h-.091v-.04h-.06v-.04h-.121v-.041h-.151v-.04h-.03v-.04h-.091v-.041h-.09v-.04h-.121v-.04h-.06v-.04h-.061v-.04h-.12v-.041h-.091v-.04h-.03v-.04h-.09v-.04h-.091v-.041h-.121v-.04h-.09v-.04h-.03v-.04h-.091v-.04h-.09v-.041h-.151v-.04h-.09v-.04h-.061v-.04h-.121v-.04h-.06v-.041h-.151v-.04h-.09v-.04h-.242v.04h-.03v.08h.03v.04h.332v.04h.09v.04h.12v.041h.122v.04h.06v.04h.09v.04h.091v.04h.09v.041h.06v.04h.061v.04h.06v.041h.091v.04h.09v.04h.061v.04h.06v.04h.09v.041h.122v.04h.12v.04h.09v.04h.061v.04h.03v.041h.06v.04h.06v.04h.152v.04h.09v.04h.06v.041h.091v.04h.09v.04h.091v.04h.09v.041h.091v.04h.06v.04h.06v.04h.061v.04h.06v.041h.09v.04h.061v.04h.03v.041h.03v.04h.03v.04h.03v.483h.031v.12h.03v.363h.03v.04h.03v.241h.03v.161h.03v.16h.031v.122h.03v.16h.03v.121h.03v.121h.03v.16h.031v.161h.03v.162h.03v.16h.03v.161h.03v.161h.03v.161h.031v.161h.03v.16h.03v.122h.03v.12h.03v.161h.03v.121h.03v.12h.031v.162h.03v.12h.03v.121h.03v.12h.03v.121h.03v.121h.031v.16h.03v.122h.03v.12h.03v.121h.03v.12h.031v.12h.03v.122h.03v.12h.03v.081h.03v.12h.03v.121h.031v.12h.03v.122h.03v.12h.03v.08h.03v.121h.03v.121h.03v.12h.031v.122h.03v.12h.03v.121h.03v.08h.025l.001.025.005.096h.03v.121h.03v.12l.023.004.007.024v.093h.03v.12h.03v.081h.03v.121h.031v.12h.03v.12h.03v.122h.03v.12h.03v.121h.03v.08h.031v.121h.03v.12h.03v.122h.03v.08h.03v.08h.03v.121h.031v.08h.03v.121h.03v.08h.03v.081h.03v.12h.03v.081h.031v.12h.03v.081h.03v.081h.03v.12h.03v.081h.03v.08h.031v.08h.03v.122h.03v.08h.03v.08h.03v.08h.03v.122h.031v.08h.03v.08h.03v.081h.03v.12h.03v.081h.03v.08h.03v.081h.031v.081h.03v.12h.031v.08h.03v.08h.03v.08h.03v.121h.03v.08h.03v.081h.03v.08h.03v.121h.031v.08h.03v.08h.03v.082h.03v.12h.03v.08h.03v.081h.03v.08h.031v.121h.03v.08h.031v.081h.03v.081l.023.004.007.02v.096h.03v.08h.03v.08h.03v.081h.03v.12h.03v.082h.03v.08h.031v.08h.03v.121h.03v.08h.03v.081h.03v.08h.03v.121h.03v.08h.031v.08h.03v.082h.03v.08h.03v.08h.03v.08h.03v.121h.031v.081h.03v.08h.03v.041h.03v.04h-.03v.04h.03v.08h.03v.08h.031v.082h.03v.08h.03v.08h.03v.161h.03v.08h.03v.161h.031v.121h.03v.081h.03v.04h.03v.04h.03v.04h.03v.04h.031v.041h.03v.04h.06v.04h.03v.08h.031v.121h.03v.04h.03v.04h.03v.041h.03v.242h.03v.08h.03v.362h.031v.04h.03v.04h.06v.04h.06v.04h.031v.041h.03v.08h.03v.04h.03v.162h.03v.08h.03v.121h.031v.08h.03v.04h.03v.04h.03v.041h.03v.08h.03v.04h.031v.081h.03v.08h.03v.04h.03v.04h.03v.041h.03v.04h.031v.08h.03v.122h.03v.04h.03v.04h.03v.04h.03v.04h.031v.081h.03v.04h.03v.12h.03v.121h.03v.08h.03l.001.041h.03v.08h.03v.04h.06v.04h.061v.041h.03v.16h.03v.041h.03v.04h.03v.121h.03v.08h.03v.041h.031v.04h.03v.04h.03v.08h.03v.041h.03v.04h.03v.12h.031v.082h.03v.08h.03v.08h.03v.04h.03v.121h.031v.08h.03v.081h.03v.08h.03v.04h.03v.081h.03v.08h.031v.04h.03v.081h.03v.08h.03v.081h.03v.08h.03v.08h.03v.041h.031v.04h.03v.081h.03v.04h.03v.08h.031v.041h.03v.08h.03v.04h.03v.081h.03v.04h.03v.08h.03v.081h.031v.08h.03v.041h.03v.08h.03v.08h.03v.041h.03v.04h.031v.08h.03v.081h.03v.12h.03v.041h.03v.08h.03v.04h.031v.04h.03v.122h.03v.12h.03v.08h.03v.121h.03v.201h.03v.08h.031v.082h.03v.08h.03v.08h.03v.04h.03v.08h.031v.041h.03v.04h.03v.04h.03v.08h.03v.041h.03v.04h.031v.081h.03v.12h.03v.081h.03v.08h.03v.121h.03v.08h.031v.081h.03v.08h.03v.08h.03v.081h.03v.04h.031v.041h.03v.08h.03v.08h.03v.041h.03v.08h.03v.08h.031v.041h.03v.12h.03v.081h.03v.04h.03v.08h.03v.081h.03v.04h.031v.08h.03v.081h.03v.081h.03v.12h.03v.081h.03v.12h.031v.081h.06v.04h.03v.04h.03v.081h.031v.08h.03v.04h.03v.04h.03v.081h.03v.081h.03v.04h.03v.04h.031v.04h.03v.081h.03v.08h.03v.121h.03v.04h.03v.08h.031v.04h.03v.082h.03v.04h.03v.08h.03v.04h.031v.081h.03v.04h.03v.08h.03v.04h.03v.081h.03v.04h.031v.08h.03v.041h.03v.08h.03v.04h.03v.081h.03v.04h.031v.08h.03v.04h.03v.082h.03v.04h.03v.08h.03l.001.04h.03v.081h.025l.005.04h.03v.08h.03v.041h.03v.08h.031v.04h.03v.082h.03v.079h.03v.04h.03v.081h.031v.08h.03v.081h.026l.004.04h.03v.081h.03v.08h.03v.04h.031v.081h.022l.002.017.006.063h.03v.04h.03v.081h.03v.08h.03v.08h.03v.04h.03v.041h.031v.121h.03v.04h.028l.002.08h.03v.081h.03v.04h.03v.08h.031v.04h.03v.041h.03v.08h.03v.121h.03v.04h.03v.04l.025.005.006.015v.02h.03v.041h.03v.04h.03v.121H421v.08h.029v.041h.03v.04h.031v.08h.03v.081h.03v.081h.031v.08h.022l.002.018.006.062h.03v.12h.03v.122h.03v.04h.03v.04h.061v.04h.03v.04h.03v.04h.06v.041h.03v.04h.03v.04h.454v.04h.03v.161h-.03v.04h-.06v.04h-.03v.121h-.03v.041h-.03v.08h-.03v.08h-.061v.041h-.03v.121h-.03v.04h-.03v.04h-.03v.04h-.03v.04h-.061v-.04h-.03v-.04h-.03v-.04h-.03v-.04h-.06v-.04h-.152v.039h-.03v.04h-.03v.04h-.03v.04h-.151v-.04H421v-.04h-.03v-.04h-.182v.04h-.03v.04h-.03v.04h-.06v.04h-.03v.04h-.03v.041h-.03v.04h-.121v-.04h-.03v-.04h-.06v-.04h-.031v-.04h-.15v.04h-.121v.04h-.151v.04h-.03v.08h-.03v.08h-.03v.041h-.031v.04h-.03v.04h-.03v.04h-.03v.04h-.03v.041h-.03v.04h-.031v.121h-.03v.08h-.03v.041h-.03v.04h-.03v.04h-.03v.08h-.031v.121h-.03v.161h-.03v.12h-.03v.121h-.03v.483h-.031v1.65h.03v.08h.03v.08h.03v.161h.03v.241h.031v.081h.03v.04h.03v.08h.03v.242h-.03v.121h-.03v.16h.03v.161h.03v.121h.03v.12h.03v.122h.031v.12h.03v.04h.03v.081h.03v.12h.03v.121h.028l.003.08h.029v.041h.031v.114l.03.006v.363h.03v.04h.03v.08h.03v.08h.031v.041h.03v.161h.03v.08h.029l.002.08h.025l.005.122h.03v.04h.03v.12h.03v.04h.03v.121h.03v.121h.03v.16h-.03v.041h-.09v-.04h-.03v-.04h-.06v-.04h-.03v-.041h-.06v-.04h-.031v-.04h-.09v-.04h-.03v.04h-.031v.08h.03v.04h.09v.04h.03v.04h.061v.041h.06v.04h.03v.04h.03v.04h.152v.04h.03v.082h.03v.08h.03v.08h.03v.04h.03v.04l.03.001v.04h.06l.001.04h.06v.121h.031v.12h.024l.002.017.004.064h.022l.002.023.006.057h.03v.08h.03v.121h.03v.242h.03v.362h.03v.04h.03v.08h.031v.04h.03v.041h.03v.08h.03v.04h.03v.121h.03v.08h.03v.162h.031v.201h.03v.12h.06v.04h.031v.041h.03v.04h.06v.08h.03v.081h.03v.04h.031v.08h.03v.081h.03v.12h.03v.041h.03v.08h.03v.282h.03v.201h.031v.04h.03v.04h.03v.121h.03v.08h.03v.122h.03v.04h.031v.04h.03v.08h.03v.081h.03v.04h.03v.08h.031v.121h.03v.161h.03v.08h.03v.121h.03v.08h.03v.08h.03v.082h.031v.04h.03v.04h.03v.12h.03v.081h.03v.08h.03v.162h.031v.08h.03v.12h.03v.04h.03v.122h.03v.16h.031v.08h.03v.081h.03v.04h.03v.162h.03v.04h.03v.08h.031v.16h.03v.082h.03v.08h.03v.08h.03v.121h.03v.04h.031v.08h.03v.122h.03v.12h.03v.04h.03v.08h.031v.04h.03v.081h.03v.081h.03v.04h.03v.08h.03v.04h.03v.121h.031v.08h.03v.082h.03v.04h.03v.04h.03v.08h.03v.08h.031v.04h.03v.081h.03v.04h.03v.041h.03v.04h.03v.2h.031v.082h.03v.12h.03v.04h.03v.04h.03v.04h.03v.121h.03l.001.04h.03v.081h.03v.08h.03v.04h.03v.081h.031v.04h.03v.08h.03v.081h.03v.081h.03v.08h.03v.08h.03v.081h.031v.08h.03v.081h.03v.04h.03v.04h.03v.081h.03v.08h.031v.041h.03v.08h.03v.08h.03v.041h.03v.04h.031v.04h.03v.08h.03v.041h.03v.04h.03v.04h.03v.04h.03v.04h.031v.082h.03v.08h.03v.04h.03v.04h.03v.04h.03v.04h.031v.04h.03v.122h.03v.12h.03v.121h.03v.08h.03v.08h.031v.041h.03v.08h.03v.04h.03v.121h.03v.202h.031v.12h.03v.04h.03v.04h.03v.041h.03v.04h.03v.04h.061v.04h.03v.04h.03v.041h.03v.04h.03v.04h.031v.04h.03v.04h.03v.082h.03v.04h.03v.04h.03v.08h.031v.08h.03v.081h.03v.08h.03v.121h.03v.04h.03v.081h.031v.04h.03v.04h.03v.08h.03v.041h.03v.08h.03v.08h.031v.041h.03v.04h.03v.04h.03v.04h.03v.081h.03v.04h.03v.081h.031v.04h.06v.04h.03v.081h.061v.04h.03v.04h.03v.04h.03v.081h.03v.04h.03v.04h.031v.04h.03v.081h.03v.08h.03v.04h.03v.04h.03v.041h.031v.04h.03v.04h.03v.041h.03v.04h.03v.08h.031v.04h.03v.041h.03v.12h.03v.041h.03v.04h.03v.04h.031v.04h.03v.04h.03v.041h.03v.08h.03v.04h.03v.04h.03v.041h.031v.04h.03v.081h.03v.08h.03v.08h.03v.041h.03v.04h.031v.04h.03v.08h.03v.041h.03v.04h.03v.04h.031v.04h.03v.041h.03v.04h.03v.12h.03v.081h.03v.04h.03v.041h.031v.04h.03v.04h.03v.04h.03v.04h.03v.041h.03v.04h.031v.04h.03v.08h.03v.041h.06v.04h.03v.04h.031v.04h.03v.04h.06v.041h.061v.04h.03v.04h-.03v.081h.03v.04h.06v.04h.03v.04l.182.001v.04h.09v.04h.181v.08h.06v.041h.06v.08h-.331v.04h-.03v.04h-.06v.041h-.091v.04h-.09v.04h-.09v.04h-.092v.04h-.06v.041h-.03v.08h.03v.036l.09.005v-.04h.091v-.04h.09v-.04h.091v-.04h.09v-.04h.091v-.04h.06v-.04l.13-.001h.021v-.04h.091v.04h.06v.12h.03v.041h.03v.04h.06v.04h.061v-.04h.06v.04h.03v.121h-.06v.04h-.06v.04h-.03v.04h-.03v.041h-.06v.08h-.061v-.04h-.03v-.04h-.091v-.04h-.06v-.04h-.06v.04h-.03v.161h.03v.04h.03v.04h.03v.04h.03v.04h.06v.041h.031v.04h.03v.04h.03v.081h.023l.003.015.004.025h.06v.04h.03v.08h.03v.162h.031v.08h.03v.04h.03v.08h.03v.04h.091v.041h.03v.04h.03v.081h.03v.04h.031v.08h.06v.04h.03v.082h.03v.04h.03v.04h.031v.04h.03v.04h.031v.08h.03v.08h.03v.041h.053l.007.04h.03v.041h.03v.04h.06v.121h.03v.04h.03v.04h.061v.04h.06v.08h.03v.041h.03v.04h.061v.08h.03v.04h.03v.081h.03v.08h.031v.04h.03v.162h.03v.08h.03v.04h.03v.04h.06v.04h.03v.081h.031v.04h.03v.081h.03v.04h.03v.04h.061v.04h.03v-.04h.06v.04h.03v.041h.061l-.002.038.032.002v.04h.12v.04h.03v.04h.031v.041h.03v.04h.03v.04h.03v.04h.03v.04h.03v.082h.031v.04h.03v.04h.03v.08h.03v.04h.03v.04h.031v.041h.06v.04h.06v.08h.03v.041h.031v.04h.06v.08h.03v.04h.03v.041h.03v.04h.03v.04h.031v.08h.03v.041h.03v.121h.031v.08h.06v.041h.03v.04h.03v.04h.03v.04h.031v.08h.06v.04h.03v.041h.03v.04h.03v.04h.031v.041h.06v.08h.06l-.005.048.036-.007v.04h.03v.04h.06v.08h-.03v.04h.03v.04h.03v.04h.03v.041h.06v.04h.031v.04h.03v.041h.06v.04h.09v.04h.031v.04h.03v.081h.03v.04h.03v.04h.03v.04h.03v.04h.031v.041h.03v.04h.03v.04h.03v.038l.03.003v.035l.031.005v.033l.03.007v.03l.03.01.004.033.007.007h.02v.04h.03v.122h.03v.08h.06v.04h.03v.04h.03v.04h.03v.041h.03v.04h.03v.04h.031v.121h.03v.04h.03v.04h.03v.04h.242v.122h.06v.079h.03v.162h.03v.08h.091v-.04h.06v.04h-.03v.08h.03v.041h.03v.04h.03v.04h.031v.04h.03v.04h.06v.08l.03.002v.04h.03v.04h.03v.04h.061v.04h.03v.04h.121v.04h.03v.04h.06v.041h.03v.04h.031v.08h.03v.04h.03v.041h.06v-.04h.031v-.04h.03v-.08h.15v.32h-.03v.122h.03v.04h.031v.04h.03v.04h.03v.04h.03v.04h.091v.041h.03v.04h.03v.04h.03v.04h.03v.04h.061v.041h.03v.04h.03v.04h.03v.04h.03v.041h.061v.04h.03v.04h.03v.041h.091v.12h.03v.04h.03v.041h.03v.04h.03v.04h.06v.04h.031v.121h.03v.04h.03v.04h.09v.04h.091v-.04h.03v.121h.03v.04h.031v.04h.03v.04h.06v.041h.061v.04h.03v.041h.03v.04h-.03v.04h.03v.04h.03v.081h.03v.04h.151v.08h.03v.081h.06v.04h.03v.04h.031v.08h.03v.041h.03v.08h.151v.121h.03v.04h.091v.04h-.03v.04h.03v.04h.03v.041h.03v.04h.03v.08h.03v.041h.03v.04h.061v.081h.06v.04h.03v.04h.091v.04h.06v.04h.06v.041h.091v.04h.091v.04h.06v.04h.03v.081h.03l.002.03.01.004.019.006v.08h.03v.04h.03v.162h.03v.04h.06v.04h.03v.04h.061v.04h.03v.041h.03v.04h.09v.04h.031v.04h.03v.041h.03v.04h.03v.04h.06v.04h.031v.04h.06v.041h.121v.04h.03v.08h.03v.081h.03v.04h.03v.04h.151v.04h.03v.04h.091v.041h.03v.04h.03v.04h.03v.041h.061v.04h.06v.04h.03v.04h.121v.041h.03v.04h.03v.08h.03v.081h.031v.04h.09v.04h.121v.04h.03v.04h.03v.041h.03v.04h.031v.04h.026l.004.04h.151v.04h.06v.082h.03v.08h.03v.04h.03v.04h.091v.04h.03v.081h.03v.04h.03v.04h.03v.04h.03v.041h.091v.04h.031v.08h.03v.04h.03v.041h.06v.04h.06v.04h.03v.04h.031v.04h.03v.041h.03v.04h.03v.04h.03v.041l.064.736.407.19.438.772.298-.01.194.242-.307.302-.086.435.139.755-.765.718-.866.09-.406-1.178-1.202-.648-.785-.773-.413-1.329-.286-.31-.877.23.062.504-.197-.106-.3.22-.756.079-.263 1.127-.31-.456-.777-.05-4.994 2.403-.762-.297.145-1.651-.768-2.246-.163.66-.568.427-1.358.163-1.908 1.802.143.996-3.717.861-.947-.588-.308-.437-.346.254-1.628-.161-1.423-.593-1.623-1.193-1.187-1.366-1.255.027-.207.945-.347.277-.273.731-.437.217-.133.44-1.192-.087-1.097.336-.416.06-.518.402.375.18-.157.145-.416.947-1.553.974-1.401 1.234-1.593-.415-.562-.344-.232.125.03.84-2.982.952-.077.018-.332.148-.54.228-.334.687-.104-.205z"/></defs><text transform="translate(353.605 384.615)" font-family="&quot;Tahoma&quot;" font-size="13">Alicante</text><text transform="translate(396.08 152.53)" font-family="&quot;Tahoma&quot;" font-size="13">Castelln</text><text transform="translate(337.431 284.271)" font-family="&quot;Tahoma&quot;" font-size="13">Valencia</text></svg>