<svg xmlns="http://www.w3.org/2000/svg" width="800" height="533" baseProfile="full" style="background-color:false" xmlns:v="https://vecta.io/nano"><style><![CDATA[.B{filter:url(#A)}.C{font-family:&quot;Tahoma&quot;}]]></style><use href="#B" paint-order="fill" class="B"/><use href="#C" paint-order="fill" class="B"/><use href="#D" paint-order="fill" class="B"/><g fill="#eee" stroke="#000" stroke-miterlimit="10" stroke-width=".4"><use href="#B" paint-order="fill"/><use href="#C" paint-order="fill"/><use href="#D" paint-order="fill"/></g><defs><filter id="A" width="1000%" height="1000%" x="-100%" y="-100%"><feOffset dx="-9.8" dy="9.8" in="SourceGraphic"/><feColorMatrix values="0.2 0 0 0 0 0 0.2 0 0 0 0 0 0.2 0 0 0 0 0 1 0"/><feGaussianBlur stdDeviation="8"/><feBlend in="SourceGraphic"/></filter><path id="B" d="m223.78 355.914-5.426.602 1.909-2.688 1.753-1.117 2.73-8.148 1.617-2.18-2.43-.138-3.035-2.628-6.22-3.843 3.604-4.28-.236-2.623 2.58-6.816 2.59-.47.92-1.38-.416-1.783 1.13-2.13 1.622.3.676-2.647 2.498-2.629-.194-1.298 1.786-3.085.993-3.892-2.642-.734.244-2.106-.77-1.09-1.305-.878-2.189-.02-4.022 6.563-.207 2.11-1.955 1.126-1.673 3.193-3.526 2.16-4-.379-5.726-5.308-3.178 6.237-2.12 1.607-.794 3.087-4.136 2.422 5.406 4.865-3.715.383-2.881-1.56-18.44-19.66-1.35-4.174 3.366-.81-.271-6.306 9.32-4.575.916-5.065 1.876-3.34 1.488-.658-.062-4.674 3.517-2.524 1.541.09 1.085.686-.001 1.015.943-.208.69.75.594-.114.021-.94 1.052-.088 1.268.854 1.964-.63 5.127.82 3.69 1.874 8.01 2.39-.981.864-.997 5.712.412.943 2.586 1.771 3.156.213 1.736 3.76 5.884-.908 1.22-1.733 1.995 1.756 1.845 2.526-.305.444 1.384.108 4.658-.87 2.016-1.262 2.897.954 10.182-2.088 3.182-.856.9-.884.567-3.64 3.085-3.482.843-.364 1.513.69 2.038-3.596 2.082-.431 1.131-1.411-1.086-2.35-1.915-1.169-1.744-2.574-5.049.183-2.6-1.115-.57-1.161.326-1.42-1.43-.409-4.227-3.24-.916-.011-1.387-1.712 1.947-2.118.629-1.713-1.367-.038-3.816-5.236-1.858-1.052-.81-1.001.282-1.888-3.739-.91-1.73-1.261-.716 1.61-3.147 1.372-5.561-1.631-4.64-.233-1.296-.788-1.702-.045-4.925.445-7.955-3.648-2.769-2.911 2.221-1.536.233-1.535 5.65.91 3.05-.185.521-1.046-1.823-2.212 1.004-1.37-.225-4.872 1.073.14-.601-2 .972-2.463.103-3.394-.237-.669-2.087-.082-3.483-2.22 2.15-2.142 1.289-2.932 4.437-4.983-2.453-5.807-2.106 1.034-1.326 1.793-3.393-2.08-2.324-.29-3.5-2.914-.44-1.976 6.597-9.661-1.72-1.627 1.599-3.17 4.361-2.952 2.294-.198.998-.712 1.037 2.186.857.709 2.393.355 2.739 4.056 1.728 1.217.83-.066 4.93-3.391 1.805.135 2.071 1.464 2.261.621 2.857-4.08 12.672-2.423-.281-3.345 2.971-5.675-.828-4.375 1.18-.814-1.28-2.376 1.615-1.37-3.988-.984-3.667-2.07 2.226-3.004 1.936-.071 2.856 3.12-.38 1.387 1.532.39.88 2.394 1.763 1.541 7.832-1.693.408-.58.443-.008 2.281 6.747 3.732 4.304 4.918 2.369-2.524 4.834 1.477 1.148 3.181 4.689.315.406.427 1.132-.537 1.691 1.097 1.109-1.781 1.546-.481 1.611-1.878 1.798-2.438 4.158-.531-.012-2.334 4.722-3.441 2.09.83 1.74 3.942 1.03 6.442 6.14-.512 1.029 4 1.446 3.726 5.567 3.946 2.204 4.04 3.818 1.26.248.675-1.305 1.437-.684 6.49-.655 5.091 3.207 3.7 1.122 4.805 2.994 10.502.24 2.74.216 2.097 1.234.256.897 1.357.958 3.862-.61 2.166.755.687-.328 1.12-2.669 1.867-.299 1.6 2.158.405 1.642 1.294.61 4.686-2.952 2.284.37 1.39-.517.592 1.429 1.115.386 2.148 2.257 1.427-.856.231.89 3.409-2.06.828.187 2.303-2.372 3.307 2.2 1.12-1.594-.062 1.254 3.295 2.495 3.142.632.986-3.81-1.067-2.129.057-4.847-1.197-.641-3.512-5.089-1.457-.728-1.439-2.069-1.343-.36-.14-3.867 9.298-5.533 2.795.636 4.206-.167 1.615 1.064 4.564.996 10.523-1.692 3.942-1.196.42-.133.512.493-.712 1.022 2.036 3.459-1.753.06-.562.637 1.92 1.98.445 3.173 2.211 2.044 1.623 2.855 1.361 3.25-1.75-.206-1.903 3.775-1.58 1.44.045 3.408-2.846 2.227-1.807-.532-2.688 1.02-5.999 4.577-.871-.312-1.904.591-1.981-.778-1.431 3.413.742 3.116 1.833 3.081-2.196.904-.946 1.188 1.911 2.708.902 1.255 2.152.557 2.071 3.263 2.404.292.66 1.064 1.519-.375 5.117 1.46.97 2.38.926 1.155.916.128.785-1.5.51-1.566-.754-3.408 1.797-3.61 9.53 5.553 1.827.342 5.43-2.325 1.515-.314 4.534 1.573 3.541 2.354 2.995-.542.89-.423 2.957.397 3.429 1.115 4.086-1.692 3.24 1.27 2.009 1.945 1.276-.247 1.623.693 2.642 1.302 1.803-.373 2.474.912 2.829-1.4.934 1.221.331 1.991 3.828 2.693 5.28 2.285 2.086.894.709 1.02 1.51.275 1.513-.595.855.643 1.496 4.722 2.118 3.033-.524.834 1.06 1.65 5.317.275 5.757 1.353 1.517 1.22-.744 1.283 3.926 3.091-.37 2.657.526 6.264 1.483 6.093 1.057 3.095-1.015 4.042-5.567 5.98-4.788 3.15-.883 1.941.59 5.986-1.683 1.696-2.35 2.62 1.8 2.535.71 4.637.805 1.173.736 2.678.321 1.17.853 1.92.084.06.725 1.812-.865.079-.832.078-1.52 2.104-.356.493-.381-.086-1.669-.375-2.2-.027-.229.413-.493.89-4.924 1.694-.562-.018-1.786-.061-1.857-1.337-.946 4.595-1.294 2.015.418 2.654.501.401.775-.775 1.84 4.38-.922 2.33 1.027 6.628-1.404 2.389 1.734.877.724 4.038 1.42.3 3.691-3.207 1.367 4.149.284 5.724-1.577 1.824-.628-.193-.857-.073-4.072-.351-1.165.536-2.989 1.38-2.906.725-1.355 2.444-3.552 2.803-6.06-1.285-1.087.702-.086-.005-4.026.49-.191-.797 2.107-.488 1.276-2.651-3.097-1.727 1.753-1.445-5.955-4.377-2.894.635-3.993-1.442-.487.573-4 1.318-.123 1.76-6.523 3.03-1.6 3.317.134 2.049-.165.074-.606.276-.74.05-1.715 2.866-2.123.026-2.874 5.153-.022.04-1.007 1.348-5.525-1.869.237 2.13 1.64 4.476 1.193 6.87.553-1.034 1.694-.613 3.638-.087 3.348.856.712 3.697 2.2 5.084 3.068-3.28 3.32-6.987.301-.636.998-2.162 1.505-1.282.033-1.877.781-.715.427-.392.835-.01 2.134 2.972 4.11 1.043.835-.529-1.065 4.33.597 1.264 1.658 9.348.822 1.672.197 5.055-1.972.958-1.354 1.596-.279 2.019.861 1.87.052 2.08 1.606 2.715.356 2.67-5.555.4-4.145 1.864-.548.906.141 4.327.85 4.478-5.813-.057-3.437-3.229-7.598 1.902-1.47 2.453-12.22-1.422-.794-.663-.65-1.757.349-1.7 2.583-2.318 1.548-3.67-.612-2.291-.807-.567-1.36.775-1.813 4.466-5.972 6.023.054 1.72 2.724 2.032-.154.626-2.413.248-3.795-.47-2.587-.296-3.466-3.88-2.26 1.335-1.144 3.481-4.36.162-.214 1.01 1.584 2.668-1.834.803-1.33-.296-1.164-1.097-.605-1.74.497-2.197.853-1.634 1.466-.598.483-.914-4.269-5.067-1.014 2.087-.528 1.226-5.98.117-.774 2.341-2.78 2.457-1.68.61-.991-.063-.684-.95-1.33-4.364-.842-3.689-3.007-2.51-.846.036-2.373.322-.532-.474.508-6.762-1.877.867-1.216 1.51-2.98.78-3.578.725 2.073-4.647 2.496-6.612 1.413-7.34.33-10.131 1.793-4.943-.4-.38-1.073.187-6.9-2.108-4.113-2.783-2.984-3.183-.782-1.738-2.05-.826-1.262-1.31-2.81-.508-2.336 2.044-2.308-1.66-.7 1.161-2.575 5.668.629 4.674-2.274 4.958.388 1.289-.912.973-2.888.59-2.91 1.931-.624 3.146-1.051.832-3.101-2.159-.904.753-.525 4.411-.865 1.165-1.59.012-1.14-3.79-2.977-3.218-1.009-4.544 5.984-3.221.934-1.337.157-3.251-1.511-.783 1.366-3.318-.15-2.33-4.693 2.302-2.42.253-.855-2.478-1.186-1.24 1.624-2.717.061-2.661-4.937-3.724-.27-.263-2.97.038-1.185-.626-.897-1.24-4.758-2.682-2.252-2.516-1.508-5.533 1.107-.688-.846-1.538.978-1.923.595-.832-.97-1.297-1.09-.118-.774-1.666.416-3.108-5.197-1.87-1.027-1.416-2.812.66.744-2.207-.828-1.498-5.338-.62-3.038-.318-2.301 1.026-3.423-.288-2.158 2.107-2.07-2.181-.77-4.512-1.605-.983-4.27-.725-1.079-2.27 1.603-1.733-.42-.517-2.98-.101-.005-2.86-.484-.319-4.948 1.8-2.504-.617-.748-2.282-1.85-2.108-.53-3.165.94-2.14-.347-1.683-.353-.363-2.663.925-.841.637-1.218.827-1.426-.389-3.984-2.714-.48.472.323 1.846-1.01 2.083-1.526-1.356-.61-1.728-3.128-1.28-2.948 1.598-1.852 1.818-5.128.518ZM338.123 340.9l-4.741-.18-5.384.709-2.447.666-2.9 2.4-1.205-3.329-1.609-1.789-2.07 8.693-1.118-.806-2.751 4.254-.025.69 1.775 1.45-1.287.494-.304 1.531.642 2.526-1.496.123.551 2.392-2.51.63-2.122 2.426 1.15 1.205 3.482.32 2.424 2.442-2.755.869 1.176 1.583 2.391.26 1.902 1.302 3.053 1.074 1.196 4.364 4.643.95 1.391 1.91 3.648 1.896 3.57-.428 1.996 5.723 2.55 3.937-.091 1.705-1.61 1.06 1.672.671.877 1.165 6.167.028 3.646 1.226.86.443 2.768-.686 2.764.719 1.129-.808-.072-2.465 3.051-1.839 2-.441 6.282 1.396.645 1.059 2.34-.28 1.39 1.569 2.345-2.712 1.704 1.068.717 3.899 4.584 4.921.896.792.986-.608 4.266.248 1.736.79 3.053-1.21.895.765.423-1.246 4.884-.37 6.47 3.035 1.532-1.173-.18-.423 1.267-.591 1.6.15 1.33 1.804-1.218 1.882.788 1.373 3.545-.493 4.655-2.712 2.12-.589v-3.428l-1.892-4.64.387-8.258-4.372-1.511-1.27.408-2.918 7.699-6.258-.732-1.821 1.049-1.466-.061-.554-.313.44-2.189-5.204-6.952-3.144-2.417-1.676-.148.284-4.838 1.637-.672.895-2.85 2.568 2.009.786-.06 5.637-6.24.762-3.195 1.062-2.075.773.19.669-1.895-.52-2.496 1.686-2.675.362-3.066-.142-1.054-2.115-.09-.712 1.69-2.601 1.87-4.662 1.904-.763-.58-.218-3.305-3.253-2.882.018-2.028-2.18-.057-1.707 1.023-1.155-1.054-.936.623-1.085-.496-2.809 2.144-.791.305-1.601-.612-1.17.688-.607-1.061-1.95-.14-.586-2.04-4.458-1.012-.239.912-3.608-3.179-4.759.306-.408-1.237-2.335-1.06-2.836.311-2.578-2.192-3.066-1.097-1.104-1.416-3.936 1.005-4.723-.739-2.993.644-1.81-.712-2.007.565Z"/><path id="C" d="M397.36 261.547l-1.91-2.708.945-1.188 2.196-.904-1.833-3.08-.742-3.117 1.43-3.413 1.982.778 1.904-.591.871.312 5.999-4.576 2.688-1.021 1.807.532 2.846-2.227-.044-3.409 1.58-1.439 1.903-3.775 1.75.205-1.362-3.25-1.623-2.854-2.21-2.044-.445-3.174-1.92-1.979.561-.638 1.752-.06-2.035-3.458.712-1.022-.512-.494.64-1.569 1.875-.068 4.203-1.518 3.942 2.32 3.725-2.28.395-.504-1.304-.233 1.239-9.384 1.664-2.022-2.38-7.167.957-4.912-1.419-1.928-1.543-2.465.595-1.923 1.637.194.401-.85 4.753-.869.685-.955-1.68-3.565-.79-.38 1.133-2.747.683-6.227-1.41-.223-1.507-2.037-1.175-1.345.066-.938.49-3.64 1.186-2.321 1.339.808 2.201-.25 3.229 1.117 3.256-.71 1.112-1.183 4.77-4.575.721-1.852 2.046-1.148-.773-3.526 5.267-4.232 1.446-2.802-1.068-2.444-1.267-.816-1.366-2.808-3.36-2.632 1.059-4.955 1.566-1.178 1.094-2.848 2.81-1.688 1.453-3.138.873-.477.136-.041v.109h.09v.12h.272v-.12h.09v-.242h.09v-.119h.09v-.12h.091v-.12h.45v-.121h.271v.12h.542v.12h1.534v.121h.09v.12h.18v.12h.271v.12h.27v.121h.452v.12h.09v.121h.18v.12h.361v.12h.181v.12h.18v.121h.271v.12h.27v.12h.181v.12h.36v.12h.182v.121h.18v.121h.18v.12h.18v.12h.272v.12h.18v.12h.18v.121h.09v.121h.271v.119h.181v.12h.18v.121h.09v.12h.18v.121h.091v.121h.18v.119h.18v.12h.181v.121h.18v.12h.182v-.12h.09v-.12h.27v.12h.09v1.203h-.09v.12h-.18v.121h-.18v.12h-.09v.12h-.091v.12h-.09v.362h.09v.119h.812v-.119h.18v-.12h.993v-.121h.27v-.12h.361v-.121h.542v-.12h.541v.12h.09v.12h.181v.12h.09v.121h.09v.602h.09v.12h.18v.121h.182v.119h.09v.12h.36v.121h.362v-.12h.09v.12h1.263v.12h.271v.121h.18v.12h.18v.12h.181v.12h.18v.121h.271v.12h.09v.121h.09v.24h.09v.601h.091v.242h.09v.12h.09v.12h.09v1.083h.09v.12h.362v.121h.632v-.12h.09v-.242h.09v-.12h.36v-.121h.091v.12h.18v-.12h.181v-.119h.09v-.12h.27v-.121h.181v-.12h.27v-.121h.091v-.841h.09v-.362l.271-.025v-.096h.632v-.119h.09v.12h.27v.12h.271v.12h.361v.121h.36v.12h.091v.12h.451v.12h.542v.12h.18v.121h.09v.121h.18v.12h.182v.12h.18v.12h.09v.12h.18v.121h.362v.121h.18v.11l.18.009v.121h.631v.12h.09v.1l.056.003.396.018v.12h.813v-.12h.54v.12h1.354v.121h1.984v-.12h.181v-.121H491v.12h.362v.121h.45v.119h.993v.12h.18v.121h.812v.12h.271v.121h.271v.12h.812v.12h.18v.121h.722v.12h.271v.12h1.263v-.12h1.263v-.12h.902v-.121h.722v-.12h.18v-.12h.181v-.12h.09v-.12h.542v-.121h.18v-.121l.09-.02v-.099h.542v-.12h.09v-.121h.18v-.12h.452v-.121h.18v-.121h.27v-.119h.09v-.12h.182v-.121h.18v-.12h.27v-.121h.272v-.119h.18v-.12h.902v-.121h.451v-.121h.271v-.12h.18v-.121h.09v-.12h.181v-.12h.09v-.12h.09v-.121h.09v-.12h.09v-.12h.181v-.12h.722v.12h.09v.12h.903v.12h.45v-.12h.272v-.12h.54v-.12h.091v-.12h.09v-.121h.09v-.242h.09v-.119h.18v-.12h.181v-.12h.362v-.121h.09v.12h.09v.12h-.09v.121h-.18v.722h-.181v.12h-.09v.12h-.09v.241h-.091v.12h-.18v.12h-.09v.12h-.181v.12h-.09v.363h.09v.119h.18v-.12h.09v-.12h.271v-.12h.09v-.121h.09v-.121h.091v-.12h.09v-.24l.193-.013-.012-.108h.09v-.12h.09v-.24h.27v-.12h.813v-.12h.09v-.121h.27v-.121h.091v-.12h.09v-.24h.09v-.12h.09v-1.083h.182v-.12h.812v-.121l.116-.013.063-.007v-.1l.305-.016.057-.003v-.102h.09v.12h.36v-.12h.362v-.12h.18v-.12l.044-.007.046-.008v-.105h.09v-.121h.722v-.12h.09v-.24h.813v.119l.18.001v.12h.903v.12h.54v.12h.091v.121h.27v.12h.542v.12h.632v.12h.36v.12h.181v.242h.07l.02.119.09.002v.119h.09v.12h.903v.12h.09v.121h.18v.121h.542v.119h-.09v.362h.09v.12h.18v.12h.542v.12h.27v-.12h.09v-.12h.09v-.24h.271l.001-.121h.09v-.121h.09v-.722h-.09v-.72h.09v-.242h.09v-.12h.09v-.12h.09v-.12l.091-.001v-.12h.09v-.12h.27v.12h.181v.12l.094.001h.087v.12h.09v.12h.451v.12h.09v.481h-.09v.362h-.09v.601h.09v.121h.45v.119h.091v.12h-.18v.121h-.09v.12h-.09v.121h-.09v.36h-.271v.121h-.09v.241h-.09v.12h-.542v-.12h-.18v.12h-.09v.6h.09v.121h.09v.12h.09v.122h.09v.12h.18v.12h.09v.12h.271v.12h.18v.12h.452v.121h1.444v.121h.09v.36h.09v.241h.09v.121h.09v.119h.09v.482h.09v.12h.091v.721h.09v.362h.091v.12h.09v.12h.09v.12h.09v.12h.181v-.359h.09v-.12h.36v.12h.723v-.12h.09v-.482h.18v-.12h.452v.12h.18v.12h.181v.12h.181v.211l.041.014.05.016v.12h.54v.24h.09v.12h.091v.121h.27v1.565h.09v.116l.091.003v.12h.722v.121h.631v-.12h.813v-.121h.992v-.119h.632v-.12h.631v-.121h.18v-.12h.181v-.121h.09v-.121h.09v-.119h.09v-.12h.181v.12h.09v.119l.064-.005.117-.01v-.104h.09v-.12h.09v-.121h.18v-.12h.362v-.121h.902V125h.27v-.12h.09v-.12h.182v-.121h.09v-.12h.09v-.121h.09v-.24h.09v-.12h.18v-.121h.091v-.12h.18v-.12h.902v.12h.181v.12h.09v.12h.181v.121h.18v.12h.18v.12h.452v-.12h.18v.12h1.444v.12h.36v.12h.181v.121h.722v.121h.993v.24h.09v.12h.18v.12h.09v.242h.09v.119h.091v.241h.09v.12h.18v.353l.065.006.026.002v.482h.09v.12h.09v.239l.09.002v.12h.09v.12h-.09v.121h-.27v.12h-.09v.12h-.09v.241h-.09v.24h-.091v.362h-.09v.24h-.09v.12h-.09v.12h-.091v.12h-.09v.843h-.09v.841h.09v.121h.09v.12h.09v.121h.09v.241h.09v.24h.091v.12h.09v.121h.18v.12h.271v.12h.18v-.12h.091v-.24h-.09v-.121h-.09v-.12h-.271v-.12h-.09v-.12h-.09v-.241h-.09v-.242h-.09v-.119h-.091v-.12h-.09v-.481h.09v-.722h.09v-.12h.18v-.121h.09v-.12h.09v-.24h.091v-.12h.09v-.242h-.09v-.36h.09v-.12h.271v-.121h.09v-.121h.09v-.24h.09v-.482h-.09v-.12h-.09v-.12h-.09v-.12h-.09v-.362h.27v-.119h.09v.24h.09v.12h.181v-.12h.09v-.24h.09v-.362h-.09v-.12h-.18v-.36h.09v-.242h.09v-.12h.181V125h.09v-.12h.18v-.12h.09v-.121h.091v-.12h.27v-.121h.09v-.361l.091-.02v-.22h.722v-.12l.27-.008v-.112h.091v-.362h.27v-.12h.09v-.12l.092-.011.09-.012v-.097h.27v-.12h.541v-.121h.271v-.121h.18v-.119h.09v-.12l.09-.017v-.104h.072l.02-.12h.056l.019-.022.014-.22h.09v-.24h.091v-.12h.18v-.12h.18v-.121h.542v-.12h.18v-.12h.272v-.12h.09v-.121h.09v-.12h.893l.009.12h.361v-.12h.18v-.121h.09v-.12h.09v-.12h.181v-.12h.361v-.121l.36-.007v-.114l.305-.018.057-.003v-.098h.361v-.12l.225-.013.045-.004v-.104h.272v-.12h.27v-.121h.27v-.12h.361v-.12h.542v-.12h.361v-.121h.361v-.12h.27v-.121l.159-.008.022-.11h.18v.118h.27v-.119h.271v-.12h.181v-.121h.18v-.121h.18v-.12h.09v-.12l.541-.001v-.119h1.805v.119l.18.002v.119h1.083v-.12l.178-.001h.093v-.119h.09v-.12h.09v-.121h.09v-.241h.09v-.12h.09v-.481h.165l.016-.119.09-.001v-.12h1.084v-.12h.09v-.12h.09v-.121h.451v-.12h.09v.12h.452v.102l.812.019v-.121h.09v-.121h.09v-.119h.451v-.12h1.534v-.121h1.353v-.12h.271v-.121h.181v-.119h.09v-.12h.18v-.121h.18v-.12h.181v-.121h.27v-.121h.09v-.119h.091v-.12h.09v-.362h.09v-.12l.09-.006v-.114h.993v-.12h.632v.12h.452v-.12h.27v-.121h.18v-.12h.09v-.121h.09v-.12h.09v-.12h.091v-.12h.09v-.121h.27v-.12h.272v-.12h.36v-.12h.361v-.12h.542v-.121h.18v.12h.541v-.12h.993v-.121h.09v-.12h.181v-.12h.361v-.12h.541v.12h.18v.12h.271v.12h.18v-.12h.09v-.12h.362v.12h.27v.118h.09v.12h.993v-.12h.09v-.12h.09v-.12h.091v-.842h.09v-.12h.992v-.121h.452v.12h.09v.12h.722v.121h.18v1.203h-.09v.602h.09v.722h.09v.12h.813l.006.091.049.018.035.012v.119h.09v.12h.36v.121h.271v.09l.051.004.49.026v.121h.091v.119h.361v.12h.09v.121h.722v.12h.451v-.12h.722v-.12h.09v-.121h.09v-.119h.09v-.12h.18v-.121h.181v-.12h.09v-.121h.091v-.12h.451v-.12h.09v-.12h.09v-.242h.181v-.12h.09v-.602h-.09v-.119h-.09v-.12h-.09v-.121h-.181v-.12l-.047-.014-.043-.013v-.094h-.09v-.12h-.09v-.12h-.18v-.12h-.091v.12h-.09v-.12h-.722v-.12h-.271v-.121h-.27v-.121h-.09v-.119h-.091v-.12h-.09v-.121h-.181v-.12h-.09v-.242h.09v-.119h.09v-.12h.091v-.121h.09v-.12h.09v-.121h.09v-.12h.09v-.12h.18v-.12h.091v-.121h.18v-.12h.09v-.121h.363v-.12h.179v.12h.18v.12h.091v.12h.09v.121h.09v.121h.632v.12h.451v.12h.18v.12h.181v.12h.18l.001.121h.27v.121h.361v-.12l.148-.02.032-.005v-.096h.09v.121h1.264v-.121h.18v-.12h.271v-.121h.271v-.12h.09v-.12h.27v-.12h.091v-.121h.09v-.241h.09v-.12h.091V109h.09v-.362h-.09v-.119h-.09v-.361h-.09v-.722h.09v-.602h-.09v-.241h-.09v-.119h-.091v-.601l.158.008.022.11h.181v-.118h.09v.119h.09v.12h.18v.12h.813v-.12h.09v-.12h.18v-.12h.27v-.12h.272v-.12h.18v-.121h.542v-.36h.09v-.12h.09v-.122h.45v-.12h.182v.12h.18v.121h.271v.12h.27v.36h.09v.121h1.264v.121h.452v.121h.451v.24h.09v.12h.09v.12h.09v.121h.09v.119h.09v.362h.091v.12h.18v.121h.091v.119h.361v-.119h.45v-.12h.09v-.121h.091v-.241h.09v-.121h.09v-.119h.18v-.12h.451v-.362h.09v-.12h.542v-.12h.542v-.12h.18v-.121h.09v.12h.18v.121h.09v.121h.362v.119h.722v-.12h.18v-.12h.631v.24h.09v.24h.091v.242h.09l-.001.119h.092v.12h.09v.121h.09v.241h.09v.121h.18v-.121h.993v.121h.361v.119h.09v.241h.09v.36h-.09v.362h.09v.12h.09v.121h.09v.12h.091v.12h.361v.12h.18v.242h.09v.24h.09v.24h.091v.602h-.09v.12h-.18v.121h-.18v.119h-.091v-.119h-.18v.119h-.09v.12h-.182v.121h-.09v.241h-.09v.121h.09v.119h.18v-.119h.362v.119h.722v.12h.09v.121h.09v.12h.452v.121h.09v.12h.36v.12h.362v.12h.18v.121h.09v.12h.27v.121h.091v.12h.09v.12h.271v.12h.18v-.12h.361v.12h.36v-.36h-.27v-.12h-.18v-.12h-.452v-.363h-.09v-.119h-.27v-.12h-.18v-.12h-.09v-.121h-.452v-.24h-.09v-.12h-.09v-.121h-.18v-.12h-.091v-.121h-.18v-.121h-.09v-.119h-.09v-.12h-.091v-.242h-.09v-.24h-.091v-.24h-.09v-.121h-.09v-.12h-.18v-.121h-.09V109h-.091v-.241h-.09v-.24h-.181v-.12h-.27v-.602h-.09v-.12h-.09v-.722h-.091v-.12h-.09v-.242h-.09v-.119h-.09v-.12h-.271v-.121h-.09v-.12h-.09v-.121h-.272v-.12h.361v-.12h.271v-.12h.812v-.121h.542v-.12h.36v-.121h.722v-.12h.452v-.12h.36v-.12l.271-.009v-.112l.18-.012v-.109h.159l.022-.119h.27v-.12h.091v.12h.18v-.12h.09v-.12h.09v-.121h.09v-.121h.362v-.12h.27l.001-.12h.36v-.12h.181v-.12h.09v-.121h.18v-.121h.181v-.118h.812v-.121h.18v-.121h.18v-.12h.09v-.121h.362v-.121h.09v.12h.181v-.12h.36v-.119h.09v-.12h.091v-.122h.361v-.12h.067l.023-.12h.18v-.24h.451v-.12h.09v-.121h.181v.12h.09v-.12h.181v-.12h.09v-.121h.271v-.12l.27-.008v-.112l.147-.02.034-.005v-.095h.181v-.121h.18v-.121l.09-.001v-.118h.181v-.12h.27v-.12h.18v-.121h.181v-.121h.27v-.12h.181v-.12h.18v-.12h.182v.12h.36v-.12h.09v-.241h.09v-.121h.181v-.119h.09v-.12h.09v-.121h.09v-.241h.09v-.121h.091v-.119h.181v-.12h.09v-.362h.09v-.24h.09v-.12h.09l.001-.362h.09v-.12h.09v-.361h.09v-.24h.09v-.12h.091v-.241h.09v-.242h.09v-.24h.09v-.361h.09v-.119h.09v-.12h.091v-.362h.09v-.36h.09v-.362h.091v-.12h.18v-.12h.361v-.12h.18V93.6h.181v-.12h.09v-.36h.09v-.482h.09v-.12h.091v-.362h.09v-.48h.09v-.242h.09v-.119h.361v-.121h.452v-.12h.09v-.36l.361-.002v-.119h.09v-.12h.09v-.242h.27v-.12h.091v-.12h.09v-.12h.271v.12h.27v.12h.813v-.12h.091v-.6l.18-.002v-.12h.09v-.12h.271v-.12h.09v-.121h.271v-.12h.09v-.12h.361v.12h.361v.12h.36v-.12h.091v-.12h.09v-.12h.091v-.362h.18v-.119h.091v-.12h.09v-.121h.18v-.12h.181v-.121h.09v-.121h.179v-.119h.09v-.12h.09v-.121h.181v.36h.181v.12h.361v.121h.18v.12h.18v.242h.09v.119h.271v-.24h.09v-.12h.09v-.12h.452v-.121h.09v-.121h.18v-.119h.09v-.12h.091v-.121h.09v-.12h.09v-.121h.091v-.12h.09v-.24h.09v-.121h.18v-.12h.091v-.121h.09v-.12h.181v-.12h.09v-.12h.902v-.121h.09v-.12h.09v-.12h.272v-.12h.09v-.241h.09v-.121h1.173v-.12h.721v-.12h.09v-.12h.813v-.12h.903v-.121h.09v-.121h.09v.241h.09v.12h.27v-.12h.09v-.12h.09v-.121h.181v-.119h.18v-.12h.091v-.121h1.082v-.12h.09v-.121h.09v-.121h.091v-.119h.09v-.12h.632v-.121h.632v-.12h.451v-.121h.541v-.12h.181v-.12h.27v.12h.09v.12h.632v-.12h.09v-.12h.18v-.12h.182v-.362h.09v-.12h.09v-.12h.27v-.12h.18v-.121h.182v-.12h.09v-.12h.18v-.12h.09v-.12h.632v-.121h.09v-.242h.09v-.119h1.354v.12h.451v.12h.09v.12h.09v.121h.09v.241h-.09v.12h-.09v.24h.09v.121h.09v.12h.361v.361h-.09v.241h-.09v.12h-.18v.12h-.091v.12h-.09v.481h-.09v.12h-.09v.121h-.09v.12h-.09v.122h-.091v.12h-.27v.119h-.09v.12h-.362v.121h-.09l-.014.22-.02.021h-.057v.119h-.089v.121h-.271v.12h-.09v.242h-.09v.12h-.09v.12h-.182v.12h-.09v.12h-.09v.237l-.09.005v.481h.18v.12h.271v.24h.18v.12h.272v.12h.18v.121h.18v.121h.09v.119h.09v.12h.452v.121h.09v.12h.18v.361h-.18v.12h-.09v.121h-.09v.36h-.09v.242h.09v.12h-.271v.24h-.09v.482h.09v.841l.09.002v.481h.076l.006.054.009.066h.09v.119h.09v.12h.09v.121h.18v.481h-.09v.12h.09v.121h.07l.02.12h.091v.24h.09v.121h.09v.12h.09v.121h.09v.12h.09v.12h.091v.12h.181v.093l.153.023.028.005v.12h.09v.121h.541v.24h-.271v.12h-.09v.242h-.09v.12h-.09v.48h-.09v.242h-.09v.119h-.091v.121h-.09v.24h-.181v.121h-.09v.12h-.09v.12h-.091v.12h-.27v.121h-.18v.12h-.091v.24h-.09v.242h-.09v.12h-.09v.12h-.09v.12h-.091v.12h-.09v.12h-.09v.122h-.181v.12h-.18v.121h-.09v.36h-.09v.12h-.091v.121h-.18v.119h-.09v.12h-.182v.121h-.09v.12h-.09v.121h-.09v.121h-.09v1.685h.09v.12h.09v.12h.09v.12h.18v.12h.091v.12h.09v.121h.271v-.12h.09v-.12h.09v-.121h.18v-.12h.181v-.12h.09v-.12h.091v-.121h.18v-.12h.09v-.12h.09v-.12h.181v-.12h.18v-.121h.091v-.121h.09v-.12h.09v-.12h.09v-.12h.18v-.12h.272v-.121h.18v-.121h.415l.122.177.684.216 2.18.688.25.98.166.652 1.493.652.175-.046 2.706-.719.137.015.108.157.329-.063 2.59 1.484.174.952.216 1.878.695.953 1.223.106 2.285 1.178-.254 5.338-.093.12.083.096-.02.43.602 1.505-.23.319.456.244 1.981 4.948.336-.06.372 1.311.183.327-.418.621-2.465-.649-1.038.051-.116.52-.907-.38-2.211.853-1.325 1.542-.313-.542-1.928.442-.031.752-1.06.668-2.765-1.155-3.257.983-1.071 3.07-2.395 1.417.822 2.833-1.241 2.485.736 3.3-.949 1.333.287 2.84-1.021.824-1.928.304-.464 1.849-.662.439-3.673.071-.812.791-.38 2.452-.813 1.178-1.517-.142-.77.676-.89-.483.444 1.702-.462.192-.238-.696-1.447.803-1.485-.48-.577.592-.923-.315.065-1.565-.868.573.44 1.435-.716.882.044 1.14h-1.544l.89.43.072.837-1.968-.816-.037 2.349-.61.168-.585-.452.265-1.24-1.122-.999.7-1.726-.554-.982.52-.05-.777-.792-.163-1.78-1.618 1.897-.827-2.101-.526-.46-1.318 1.644.936.317-.702.954.824.826-1.035 1.141 2.206.142-.368.87-1.882.166.6.288-.128 1.133.745-1.239.538.694-.75.83.863.312.049 1.078-1.423-.337-.679-.323-.253.63.132 1.737-1.63-3.288-.898.222.386.976-.533 1.857-.747-1.277-.832.306-2.638-.674-1.7-2.608 1.602-.533-2.043-.884-.13-1.109.435-.477-.738-1.348-1.652 1.835.958.722-.066 5.216.727 2.136-1.2 4.345-2.394 3.291-.273 3.347.639 2.786 1.32 1.459.325 1.942-.808 2.19-.65 1.415-.02 2.726 2.944 1.857 1.082-.028 1.167.884.51 1.345.204 2.257-4.325 2.978-1.973 2.842.324 1.127-.993 1.74-2.47.756-.773 1.452-1.867.843.463.657-.46 1.008-1.645.588-1.416 1.51.419.947-5.957 1.02-2.434 1.56.767 2.26-.697.752-1.839 1.257-.862.295-.733.24-1.539.883-.421-.466-6.535 2.624-.808.158-.681.904-.194 2.148-2.525.368 1.543 5.095-.901 2.954-3.078 3.91-.46 2.547-3.136.865.886 6.06 2.344 4.005-.49 2.754.492.828 1.02-.281-1.446 5.044-1.207.62-.607 2.066-2.143 1.05-1.778-.487-.702 1.459-10.344.258-3.513 1.374-1.091 5.464-2.031 2.898.363 1.726-1.296.216-3.22 2.822-1.94.203-1.915 1.041-1.247-.624-1.097-.215-.44.519-1.473-.694-2.825-.16-1.866-.09-3.48 2.802-1.982.273-2.304.03.306-1.23-4.01-4.792-2.2-.93-1.5.727-2.113-.179-.218 1.976-1.722 1.454.234 2.209-1.564 1.604-3.843.606-.723 1.553-.384.69-.734 2.233.022 11.026-.704.325-2.76-.941-.766.73-1.517-1.221-5.757-1.353-5.317-.274-1.06-1.65.524-.835-2.118-3.033-1.496-4.722-.855-.643-1.513.595-1.51-.276-.709-1.02-2.086-.893-5.28-2.285-3.828-2.693-.33-1.99-.935-1.221-2.83 1.399-2.473-.912-1.803.373-2.642-1.301-1.623-.694-1.276.247-2.009-1.944-3.24-1.27-4.086 1.691-3.429-1.115-2.956-.397-.891.423-2.995.542-3.54-2.354-4.535-1.573-1.515.314-5.43 2.325-1.827-.342-9.53-5.553-1.797 3.61.754 3.408-.51 1.566-.785 1.5-.916-.128-.925-1.155-.97-2.38-5.118-1.46-1.52.375-.659-1.064-2.404-.292-2.07-3.263-2.153-.557-.902-1.255z"/><path id="D" d="M430.548 91.676v.12h.181v.121h.18v.36h-.09v.121h-.27v.481h-.09v.12h-.09v.121h-.362V93h-.36v-.121h-.09v-.24h.09v-.12h.09v-.12h.09v-.121h.09v-.121h.09v-.12h.09v-.12h.091v-.24h.36zm-62.346-25.624v.12h.18v.12h.091v.12h.27v.12h.361v.122h.362v.12h.18v.12h.09v.481h.09v.24h-.09v.12h-.27v-.119h-.181v-.119h-.18v-.12h-.181v-.121h-.18v-.12h-.09v-.121h-.09v-.12h-.091v-.24h-.09v-.121h-.09v-.12h-.182v-.121h-.18v-.24h.271zM208.289 175.248l-2.193 2.607-.62-.004-3.685-.743-1.91-1.517-.997-2.146-1.01.673-.559 1.607-.446.3-1.281-.782-1.98 2.22.193-.917-1.404-1.77-.747-.03-.33-1.073-.744-.051-1.324-2.933-5.17-5.546-.93 1.433-2.004-.433-1.773.894-3.314-.095.158 1.899-6.436 3.215-1.001 1.521-1.696.906-1.155 1.954-3.338.539-.21.67-4.376 1.742-1.586-.802-1.102.303-2.814 5.407-3.023.983-3.599.278-.302 1.156-5.494 3.798-5.938 1.135-1.036 1.235-2.374.479-1.545-8.339-1.157-1.288-.418-1.96-.583-.036-1.432-4.669-.517-11.685.778-3.242-3.647-6.781-.926-4.043-.74-.882.087-1.545.984-.641 2.463 1.247 2.52-3.198 2.39.932 1.485-.488 2.563-2.597-.947-1.227 2.22-.339 2.495 2.105 2.358-2.95 1.056-5.017 1.768-2.717 1.597-.137 3.062-1.64 3.267.985 5.998-2.475.193-1.817-1.111-5.295 2.875-1.886.55-1.329 2.832 4.08 2.695-1.13.645-1.03 5.997-1.434.72 1.822-.612 1.618 1.133 1.06 3.793.136 3.512-2.173 1.344-.413 1.12.858 2.183-1.137 1.86-2.853 7.591-2.462.069 4.781 2.294 2.668-.138 2.127 2.882 1.424 1.373-3.209 2.012-.827 1.908-2.422 2.92.13 1.188-.662 7.546-.712 1.887-2.394.602-5.442-1.512-9.272 1.112-3.482-.76-1.907v-.097h.09v-.12h.452v.36h.09v.122h.09v.12h.09v-.12h.091v-.242h.09v.12h.09v.121h.18v.121h.18v.119h.181v.12h.181v.121h.18v-.12h1.083v-.121h.09v-.119h.09v-.12h.091v.36h.631v-.481h.271v.241h.09v.119h.09v-.119h.09v-.12h.272v.12h.54v-.12h.091v.12h1.172v-.12h.181v-.121h.09v-.12h.09v-.24h.091v-.12h-.09v-.242h.09v-.12h.09v-.121h.361v-.12h.361v.12h.09v.12h.09v.235l.09.007v.12h.091v.12h.09v.12h.18v-.12h.272v.12h.27v.12h.09v.12h.09v.121h.09v.24h.091v.12h.09v.121h.09v.12h.09v.121h.09v.121h.091v.119h.09v.12h.09v.242h.091v.12h.09v.481h.09v.12h-.09v.121h.09v.24h.09v.241h.09v.24h-.09v.12h-.09v.242h.09v.12h.09v.12h.271v.12h-.09v.12h.09v.242h.09v.12h.091v.119h.27v-.119h.18v-.12h.091v-.121h.09v-.12h-.09v-.121h-.09v-.24h.18v-.12h.181v-.121h.09v-.12h.361v-.121h.09v-.12h-.09v-.12h.09v-.12h.09v-.121h.091v-.12h.09v-.12h.09v-.12h.09v-.12h.09v-.121h.091v-.481h.09v-.12h.09v-.121h.09v-.24h-.09v-.241h.09v-.12h-.09v-.121h-.18v-.481h-.09v-.36h.09v-.12h.09v-.121h.09v-.722h-.09v-.242h-.09v-.24h-.09v-.361h-.09v-.12h.18v-.12h.271v-.12h.18v-.12h.09v-.482h.09v-.721h.09v-.121h.091v-.12h.09v-.121h.361v-.12h.09v-.361h-.09v-.36h.361v.096l.18.023v-.12h.09v-.12h.09v.12h.181v-.12h.362V93h.089v-.121h.09v-.12h.18v-.12h.182v-.12h.18v-.12h.09v-.121h.09v-.241h-.09v-.12h.18v-.12h.091v.12h.271v-.12h.09v-.12h.18v-.361h.18v-.12h.362v-.121l.158-.008.022-.113h.27v-.239l.181-.012v-.109h.09v-.12h.18v-.121h.362v-.241h.271v-.12h.18v-.12h.09v-.241h-.09v-.12h.09v-.12h.09v.12h.18v-.12l.091-.001v-.24h.27v-.12h.09v-.121h.091v-.12h.271v-.24h.27v-.12h.09v-.121h.181v-.121h.09v-.119h.272v-.12h.09v-.121h.18v-.241h.36v-.121h.181v-.119h.18v.11l.362.009v.12h.09v.121h-.09v.12h-.271v.121h-.27v.12l-.181.001v.119h-.27v.12h-.181v.242h-.09v.12h-.271v.12h-.18v.12h-.09v.12h-.091v.121h-.09v.12h-.18v.12h-.09v.12h-.091v.12h-.09v.121h-.091v.121h-.18v.12h-.09v.12h-.18v.12h-.091v.12h-.452v.121h-.09v.121h-.18v.12h-.27v.12h-.181v.24h-.18v.121h-.09v.121h-.091v.119h-.09v.12h-.452v.121h-.09v.12h-.27v.121h-.09v.09l-.036.006-.145.023v.121h-.09v.121h-.361v.12h-.09v.235l-.181.006v.12h-.09V93h-.09v.12h-.09v.24h.09v.12h.27v.121h.09v.121h.091v.12h.27v-.12h.091V93.6h.27v-.12h.271v.105l-.063.01-.027.005v.241h.09v.12h.18v-.12h.09l.001-.12h.09V93.6h.09v-.12l.09-.019v-.102h.09v.12h.272v.106l.045.003.225.012v.121h.451v.11l.18.01v.121h.451v-.12h.091v-.121h.09v-.362h.452v-.12h.09v.24h.09v.602h-.271v.12h-.09v.242h.09v.24h.09v.12h.09v.12h.452v-.12h.361v.12h.27v.12h.09v.121h.362v.121h.09v.119h.09v.12h.721v.121h.09v.12h.181v.121h.18v.12h.181v.602h-.09v.24h.09v.12h.181v.121h.18v.12h.18v.24h.09v.12h.182v-.12h.18v.12h.36v-.12h.091v-.12h.09v.12h.18l.001-.12h.09v-.24h.18v-.12h.09v-.602h.091v-.241h.09v-.24h.09v-.24h.09v-.482h.09v-.24h.09v-.242h-.09v-.24h.09v-.12h.091v-.241h.09v-.12h.09v.12h2.437v.12h.632v-.12h.089v.12h.813v.12h.09v.121h.541v.121h.451v.12h.452v.12h.45v.12h.451v.12h.362v.121h.631v.121h.542v.119h.27v.12h.451v.121h.18v.241h-.09v.12h-.27v-.12h-.36v-.12h-.542v-.12h-.27v-.121h-.813v-.121h-.18v-.119h-.632v-.12h-.36v-.121h-.632v-.12h-.18v-.121h-.452v-.12h-.27v.12h-.452v.12h-.09v-.12h-.27v-.12h-.542v-.12h-.903v-.12h-1.082v.12h-.09v.12h-.271v.12h-.09v.361h-.09v.24h-.09v.482h-.091v.12h-.09v.361h-.09v.36h-.09v.362h-.09v.12h-.091v.482h.09v.12h.09v.12h.18v.12h.09v.24h.091v.242h-.09v.119h.09v.12h.09v.121h.09v-.12h.272v.12h.09v.12h.27v.121h.09v.24h.09v.12h.091v.121h.27v.12h.09v.121h.09v.12h.091v.12h.09v.12h.09v.121h.091v.12h.09v.121h.18v.12h.362v.12h.27v.12h.18v.121h.091v.12h.18v.12h.181v.12h.36v.12h.091v.121h.09v.121h.181v.12h.09v.12h.09v-.12h.09v.12h.09v.12h.181v.12h.36v.121h.542v.121h.902v-.12h.09v-.121h.09v-.12h.091v-.121h.09v.601h.09v.12h.091v.242h.09v.12h.361v-.12h.09v-.12h.181v.12h.45v-.12h.091v-.121h.09v-.121h.09v-.119h.091v-.12h.09v-.481h.09v-.12h.09v-.242h.09v-.12h.09v-.24h.091v-.12h.09v-.121h.09v-.242h.09v-.119h.09v-.12h.091v-.12h.09v-.121h.09v-.121h.09v-.48h.091v.12h.09v.12h.27v-.12h.091v-.12h.631v.24h.09v.36h-.09v.121h-.36v.12h-.09v.24h-.09v.12h-.09v.122h-.091v.12h-.36v.12h-.091v.24h-.09v.12h-.181v.121h-.09v.121h-.09v.12h-.09v.12h-.09v.12h-.09v.242h.09v.12h.36v.119h.18v.12h.09v.121h.091v.12h.09v.122h.18v-.121h.09v-.12h.091v-.121h.09v-.121h.181v-.119h.09v-.12h.09v-.121h.09v-.48h.09v-.121h.271v-.121h.181v-.12h.27v-.121h.272v.12h.09v.12h.36v-.12h.18v-.12h.091v-.12h.272v.12h.18v.12h-.09v.12h-.09v.723h.09v.601h.09v.362h.09v.24h-.18v-.121h-.181v-.119h-.361v-.12h-.27v-.121h-.362v-.12h-.36v-.121h-.181v.12h-.271v.12h-.09v.122h-.09v.12h-.09v.24h.09v.105l.105.009.075.006v.12h.361v.121h1.083v.12h.348l.013.24h.09v.121h.36v-.12h.272v.12h-.09v.36h-.091v.12h-.09v.121h.09v.121h.09v.12h.09v.12h-.54v-.12h-.362v-.12h-.09v-.12h-.18v.12h-1.174v-.12h-.18v-.121h-.18v-.12h-.18v-.12h-.272v-.12h-.27v-.12h-.27v-.121h-.091v.12h-.09v.12h.09v.121h.083l.007.12h.09v.12h.09v.12h.271v.121h.271v.12h.18v.12h.18v.12h.632v.12h1.264v.121h.27v.121h.27v-.12h.542v.12h.18v.36h.091v.602h.09v.601h-.09v.12h.09v.121h.09v.12h.09v.121h.09v.24h.09v.241h.091v.241h.09v.12h.362v-.12h.18v.12h.09v.12h.09v.12h.09V109h.451v.096l.09.025v.114l.182.005v.12h.09v.12h.09v.122h.09v.24h.09v.106l.09.014.012.099.022.02.043-.002.014-.117h.541v-.12h.18v-.12h.09v-.12h.181v-.121h.09v-.241l-.041-.01-.049-.01v-.1h-.09v-.241h-.09v-.12h-.09v-.12h.09v-.12l.09-.005v-.115l.09-.01v-.11h.18v-.121h.18l.002.361h.09v.12h.27v-.12h.09v-.12l.09-.002v-.119h.091v-.241h.09v-.24h.09v-.12h.09v-.241h.09v-.121h.09v-.24h.091v-.12h.09v-.12h.09v-.36h.091v-.242h.09v-.12h.09v-.121h.09v-.12h.09v-.24h.09v-.242h.091v-.24h-.09v-.24h-.09v-.121h-.09v-.121h-.452v-.119h-.09v-.12h-.361v.24h-.09v.12h-.18v.12h-.09v.121h-.272v.12h-.36v-.12h-.361v-.12h-.18v-.121h-.09v-.12h-.181v-.12h-.18v-.361h-.091v-.121h-.18v-.12h-.27v-.24h-.091v-.241h.812v.12h.09v-.12h.541v.12h.632v-.12h.18v.12h.18v-.12h.09v-.121h.272v-.119h.09v-.12h.09v-.121h.09v-1.925h-.09v-.12h-.09v-.36h-.09v-.121h-.181v-.12h-.27v-.121h-.271v-.121h-.18v-.12h-.09v-.12h-.362v-.12h-.09v-.12h-.09v-.242h-.09v-.119h-.09v-.12h-.18v-.121h-.181v-.12h-.09v-.36l-.091-.004v-.118h-.09v-.48h.18v-.12h.09v-.121h.09v-.602h-.09v-.362h.09v-.24h.091v-.361h-.18v-.12h-.09v-.12h-.091v-.12h-.18v-.12h-.18v-.121h-.181v-.121h-.09v-.119h-.09v-.12h-.091l-.015-.121h-.076v-.121h-.069l-.021-.12h-.27v-.24h-.09v-.12h-.09v-.121h-.25l-.02-.12h-.091v-.121l-.18-.004v-.115h-.183v-.12h-.09v-.121h-.27V93.6h-.09v-.12l-.09-.004v-.117h-.181v-.12h-.181v-.12h-.18V93h-.09v-.121h-.181v-.12h-.18l-.01-.12h-.08v-.241h-.09v-.12h-.181v-.121h-.18v-.12h-.181v-.12h-.09v-.24h-.09v-.242h-.091v-.119h-.09v-.12h-.18v-.121h-.09v-.241h-.09v-.12h-.361V89.51h.089v-.119l.09-.001v-.12h.09v-.12h.091v-.362h.361v-.119h.18v.12h.09v-.12h.272v-.601h.09v-.241h.09v-.12h.45v-.121h.272v-.121h.09v-.119h.09v.119h.09v-.119h.542v-.12h1.172v.12h1.084v-.12h.18v-.121h.18v-.12h.361v-.121h.09v-.12h.723v-.12h.27v-.12h.09v-.121h.09v-.12h.18v-.36h.09v-.363h.09v-.119h.182v.12h.36v.12h.632v.12h1.083v-.12h.542v-.12h.09v-.12h.09v-.12h.09v-.12h.18v-.242h.09v-.84h.272v-.121h.18v-.121h.09v-.12h.45v.12h.271v-.12h.09v-.121h.362v-.121h.18v-.119h.18v-.12h.182v-.121h.18v-.12h.09v-.121h.09v-.12h.09v-.12h.271v-.12h.09v-.121h.09v-.12h.09l.001-.121h.18v-.12h.271v-.12h.09v-.12h.09v-.242l.055-.013.036-.008v-.098h.09v-.12h.09v-.362h.09v-.12h.09v-.602h.09v-.119h.091v-.12h.541v.12h.541v-.12h.09v-1.444h.091v-.121h.18v-.12h.271v-.121h.36v-.12h.182v-.12h.09v-.12h.09v-.121h.09v-.12l.048-.014.042-.013v-.093l.14-.02.041-.006v-.094h.271v-.12h.27v-.121h.18v-.121h.362v-.12h.09v-.12h.36v-.12h.181v-.12h.18v-.121h.09v-.121h.09v-.119h.091v-.12h.09v-.242h.09v-.12H275v-.24h.09v-.12h.09v-.481h.09v-.362h.09v-.36h.09v-.722h.09v-.241h.091v-.121h.09v-.36h.09v-.241h.09v-.121h.993v-.119h.18v-.12h.09v-.121h.091v-.12h.18v-.121h.09v-.12h.361v.12l.41-.022.041-.001v-.098h.271v-.118h.09v-.121l.227-.022.044-.003v-.096h.45v.12h.09v.121h.091v.24h.09v.601h.09v.12h.36v.121h1.172v.12h.452v.121h.18v-.12h.542v-.12h.09v.12h.18v.12h-.09v.36h.09v.121h.18v.12h.181v.24h.09v.121h.091v.12h.361v.121h.36v-.12h.091v-1.083h.09v-.241h.09v-.241h.09v-.119h.09v-.963h-.09v-.12h-.09v-.121h.09v-.722h-.09v-.12h-.09v-.12h-.09v-.12h-.09v-.121h-.542v.121h-.36v.12h-.09v.12h-.091v.12h-1.353v-.12h-.09v-.12h.09v-.362h.09v-.722h-.09l-.016-.119h-.255v-.12h-.09v-.12h-.451v-.602h.09v-.12h.09v-.121h.09v-.24h.452v-.12l.09-.03v-.091h.09v-.241h-.09v-.12h-.09v-.361h-.09v-.601h.18v-.121h.09v-.36h.09v-.121l.09-.01v-.231h.18v-.12h1.356v-.12h.09v-.12h.09v-.241h.09v-.121h.091v-.24h.09v-.24h.09v-.481h-.09v-.242h-.09v-.12h-.27v-.36h.09v-.36h.27v.118h.271v.121h.36v.121h.272v.12h.631v.12h.722v.12h1.173v-.12h1.353v-.12h.18v-.12h.09v-.121h.091v-.12h.271v-.12l.18-.001v-.12h.452v-.12h.451v-.12l.18-.004v-.117h.27v-.12h.723v.12h.54v-.12h.091v-.12h.18v-.12h.361v-.12h.361v-.121h.09l.001.12h1.714v.12h.361v-.12h.54v.12h.09v-.12h.542v.12h.18v.121h.451v-.12h.09v-.12h.09v-.242h.452v.12h.27v.121h.091v.12h.09v.121h.09v.119h.09v.483h.09v.119l.091.001v.12h.09v.24h-.722v.121h-.09v.36h.09v.12h.09v.122h.181v.12h.09v.12h.09v.12h.09v.12h.091v.12l.541-.016v-.104h.09v-.12h.09v-.602l.144-.006.037-.002v-.112h.09v-.12h.452v-.12h.09v.22l.09.02v.12h.09v.12h.09v.122h.18v.12h.181v.12h.18v.12h.181v-.12h.09v-.602h-.09v-.12h.09v-.12h.993v-.12h.631l.001-.121h.27v-.12h.271v-.12h.552l.711-.001v-.12h.18v-.12h.271v.12h.18v.12l.09.001v.12h.362v.12l.812-.022v-.099h.542v.242h.09v.12l.685-.008.217-.003v-.11h.721v.962l.09.002v.119h.09v.12h.091v.12h.09v.121h.09v.121h.091v.119h.09v.12h.18v.121h.542v.12h.632v-.12h1.624v-.12h.09v.12h.18v.12h.271v-.12h.812v.12h.27v.122h1.355v-.121h.089v-.241h.09v-.121h.09v-.119h.09v-.362h.091v-.12h.09v-.12h.272v-.12h.27v.12h.451v.12h.09v.12h.361v.116l.23.005h.041v-.12h.09v-.24h.722v.119h.541v.12h.632v.12h.631v-.12h.09v-.12h.361v.12h.18v.12h.272v.121h.09v.121h.812v-.12l.09-.029v-.092h.632v-.12h.27v-.121h.09v-.36h.271v-.121h.18v-.12h.18v-.121h.091v.109l.09.011v-.12h.181v.12h.451v.12h.541v.122h.09v.12h1.174v.24h.09v.12h.36v-.12h.181v-.12h.542v.12h.27v.114l.178.005.093.001v.12h.271v.092l.037.011.053.019v.12h.086l.004.119h.813v-.119h.09v-.12h.09v-.121h.09v-.12h.18v-.121h.452v.24h.09v.121h.632v-.12h.18v-.12h.09v-.121h.09v-.24h.09v-.362h.09v-.722h.091v-.24h.18v-.12h.09v-.12h.09v-.121h.181v-.12h.18v-.12h.091v-.482h.09v-.36h.09v-.12h.542v-.121h.09v-.36h.09v-.121h.452v-.12h.09v-.121h.09v-.12h.18v-.12h.361v-.12h.27v-.121h.452v-.12l.042-.014.048-.016v-.091h.09v-.12h.091v-.12h.27v-.12l.234-.02.037-.004v-.097h.27v-.12h.09v-.24h-.09v-.12h-.631v.12h-.09v-.963h.18v-.121h.18v-.119h.181v-.12h.09v-.121h.361v.12h.09v.361h.09v.722h.091v.12h.18l.005.12h1.71v-.12h.54v-.12h.091v-.121h.271v-.121h.09v-.119h.091v-.241h.09v-.12h.361v-.121h.18v-.119h.09v-.12h.18v-.121h1.715v-.12h.09v.12h.451v-.12h.271v-.121h.09v-.12h.542v-.121h.09v.12h.09v-.241h.18v-.12h.091v-.241h.18v-.12h.09v-.12h.09v-.241h.181v.121h.09v-.121h.27v-.12h.181v-.121h.09v-.12h.091v-.12h.09v-.12h.09v-.121h.091v-.12h.09v-.12h.09v-.12h.09v-.12h.09V53.9h.091v-.12h.09v-.24h.09v-.12h.542v-.12h.09v.12h.09v.241h.18v.12h.181v.119h.18v.12h.09v.121h.181v.12h.09v.121h.09v.12h.09v.12h.091v.12h.18v.242h.09v.36h.091v.12h.09v1.203h-.09v.12h-.09v.242h-.09v1.082h-.09v.36h.09v.242h.09v.24h.09v.12h.09v.12h.09v.12h.09v.242h.09v.12h.091v.12h.09v.24h.09v.121h.09v.121h.091v.12h.09v.36h.09v.121h.09v.24h.09v.12h.091v.121h.18v.12h.091v.121h.09v.12h.09v.963h.09v.601h.087l.003.12h.272v.121h.09v.36h.09v.362h.09v.24h.09v.12h.09v.231l.09.01v.24h.181v.12h.09v.121h.091v.12h.27v.121h.452v.119h.18v.121h.18v.121h.452v.12h.541v.12h.27v.12h.903v.12h1.353v-.12h.18v.12h.272v.12h.18v.122h.08l.01.24h.09v.602h.09v.24h.09v.482h.091v.119h.089l.001.12h.09v.212l.09.03v.12h.09v.12h.362v-.119l.166-.01.105-.006v-.104h.27v-.12h.452v-.121h.36v-.121h.362v-.119h.54v-.12h.451v.12h.09v.119h-.09v.12h-.45v.121h-.541v.12h-.362v.121h-.271v.12h-.09v.12h-.18v.12h-.18v.121h-.272v.12h-.09v.361h.18v.12h.09v.121h.272v.12h.36v-.12h.09v-.601h-.09v-.241h.09v-.121h.182v-.12h.09v-.12h.18v.12h.09v.602h.09v.12h.271v.12h.903v.12h.18v.121h.27v.121h.073l.018.119h.18v.12h.181v.12h.18v.122h.27v.12h.181v.12h.362v.12h.18v.12h.182v.12h.09v.121h.09v.121h.09v.24h-.09v.842h.09v.12h.18v.121h.181v.12h.18v.12h.18v.12h.181v.121h.09v.114l.036.004.055.003v.36h.09v.12h.09v.36h.09v.121h.09v.242h.09v.12h-.09v.48h.09v.361h-.27v.12h-.09v.121h-.902v.12h.09v.121h1.082v.36h.09v.121h.09v.12h.091v.121h.09v.12h.09v.24h.091v.481h.09v.121h.09v.48h.09v1.085h-.36v.24h.09v.241h.09v.12h.09v.602h.18v-.12h.09v-.121h.091v-.119h.09v-.12h.09v-.121h.091v.241h.09v.601h-.18v.12h-.09v.24h.18v.602h.09v.963h.27v.12h.09v.12h.091v.361h.09v.602h.09v.12h.18v.121h.091v.119h.27v.12h.091v.964h.09v.24h.091v.842h-.09v.12h-.09v.121h-.091v.36h-.09v1.444h.09v.241h.09v.24h.09v.12h.091v.121h.09v.24l.09.001v.24h.09v.12h.09v.242h.091v.24h.09v.24h.09v.24l.09.002v.24h.18v.12h.091v.12h.09v.121h.181v.119h.09v.12h.09v.121h.09v.12h.09v.126l.123-.003.058-.002v.24h.09v.12h-.09v.242h-.18v.12h-.18v.12h-.271v.6h.631v-.118h.18v-.12h.181v-.363h.09v-.24h.09v-.12h.09v-.241h.09v-.48h.091V89.75h-.09v-.36l.09-.001v-.481h.09v-.36h.09v-.241H371v-.24h.09v-.241h.09v-.12h.09v-.242h-.09v-.24h-.09v-.24H371v-.36h-.09v-.363h-.09v-.12h-.09v-.12h-.09v-.12h-.091v-.12h-.09v-.121h-.09v-.24h-.09v-.24h-.09v-.121h-.091v-.121h-.09v-.24h-.09v-.12h-.09v-.241h-.091v-.121h-.09v-.119h-.09v-.241h-.09v-.12h-.09v-.121h-.091v-.24h-.09v-.12h-.09v-.242h-.09v-.12h.45v-1.082h-.09v-.602h-.09v-.722h.09v-.12h.18v-.121h.09v-.24h-.18v-.12h-.18v-.12h-.09v-.121h-.18v-.121h-.091v-.36h-.09v-.241h-.09v-.602h-.09v-1.444h.09v-.84h.09v-.121h.18v-.12h.09v-.36h.09v-.483h.091v-.36h.09v-.121h.09v-.12h.09v-.121h.09v-.24h.09v-.241h.091v-.24h.09v-.12h.09v-.12h.181v-.121h.09v-.121h.09v-.12h.09v-.12h.272v-.12h.18v-.12h.632v-.121h1.443v-.121h.632v.12h.27v.121h.18v.12h.542v.121h.631v.12h.182v.12h.18v.12h.09v.242h-.09v.24h.09v.12h.27v-.12h1.895v-.12h.18v-.12h.181v-.12h.09v-.964h.271v.12h.09v.121h.452v-.12h.09v-.121h.09v-.24h.09v-.12h.09v-.12h.181v-.121h.18v-.12h.18v-.12h.181v-.12h.09v-.121h.09v-.12h.272v.12h.18v-.12h.09v.12h.18v-.12h.181v.12h.18v-.12h.09v.12h.452v.12l.09-.021v-.1h.18v.121h.181v.121h.45l.001.12h.27v.12h.09v.12h.361v.12h.181v.121h.18v.121h.181v-.12h.09v.12h.09v.119h.091v.241h.09v.12h.09v.24h.09v.242h.09v1.323h-.09v.362h-.09v.119h-.09v.601h-.09v.241h.09v.843h.09v.239h.09V77h.09v.12h.181v.121h.084l.007.12h.18v.122h.089v.239h.091v.12h.09v.121h.091v.12h.09v.12h.09v.12h.18v.12h.091v.122h.18v.12h.09v.12h.091v.12h.09v.12h.09v.12h.09v.121h.181v.121h.09v.119h.181v.12h.09v.121h.09v.12h.09v.121h.09v.121h.181v.119h.09v.12h.451v-.12h.181v.12h.361v.121h.09v.12h.36v.121h.272v.12h.09v.12h.18v.12h.09v.121h.09v.12h1.625v-.12h.18v-.12h.542v-.121h1.263v-.12h.451v-.12h.18v-.12h.361v-.12H395v-.121h.452v-.121h.18v.12h.069l.021.242h.09v.12h.09v.12h.091v.12h.09v.12h.632v.121h.09v.12h.09v.121h.09v.12h1.173v-.12h.451v.12h.181v.12h.09v.241h.09v.12h.09v.12h.091v.24h.09v.242h.09v.12h.452v.12h.09v.12h.18v.12h.632v-.12h.09v-.12h.451v-.12h.181v-.12h.36v.12h.18v.12h.181v.12h.27v.242h.091v.12h.903v.119h.27v-.119h.09v-.241h.18v-.12h.091v-.121h.09v-.12h.181v-.12h.361v-.12h.09v-.121h.45l.001-.12h.09v-.121h.902v-.12h.271v-.12h.993v-.12h.541v-.121h.09v.12h.18v.1l.272.021v.12h.09v.12h.09v.12h.18v.12h.09v.121h.18v.121h.182v.12h.18v.12h.18v.12h.09v.242h.09v.36h.08l.003.109.008.253h-.09v.12h-.09v.36h.09v.12h.27v.121h.09v.12h.091v.12h.18v.12h.16l.02.121h.181v.121h.272v.12h.18v.24h.09v.12h.09v.121h.067l.023.36h.09v.12h.181v.363h.09v1.803h.09v.12h.09v.12h.09v.12h.091v.12h.632v.121h.36v.12h.18v.12l.633.001v.12h1.353v-.12l.09-.001v-.12h.09v-.24h.09v-.242l.18-.006v-.113h.091v-.12h.09v-.12h.091v.12h.27v-.121h.181v-.121h.722v-.12h.18v-.119h.09v-.12h.451v-.121h.632v.12h.451v.121h.27v.119h1.264v.12h.09v.121h.812v.12h1.534v-.12h.18v-.12h.181v-.121h.18v-.119h.18v-.12l.058-.007.033-.005v-.11h.27v-.12h1.264v.12h.09v.121h.09v.121h.181v.119h.09v.12h.181v.121h.09v.12h.09v.121h.09v.12h.451v.12h.09v.241h-.09v.12h-.09v.24h.09v.12h.09v.121h.09v.121h.091v.12h.18v.12h.091v.12h.18v.481l.09.002v.48h.09v.587l.09.015v.36h.091v.12h.36v-.12h.903v.362h-.09v.12h-.09v.24h-.18v.12h-.09v.121h-.091v.12h-.09v.24h-.181v.362h.09v.12h.271v.12h.721v-.24h.722v-.12h.27v.12h.361v.12h.632v-.12h.18v-.12h.09v-.602h.091V93h.27v.12h.09v.12h.181v.12h.09v.12h.09v.12h.18v.122h.181v.117l.09.003v.12h.091v.12h.09v.12h.09v.12h.091v.242h.09v.24h.09v.241h.09v1.203h.09v.12h.181v.12h.271v.121h.09v.24h.09v.12h1.534v.121h.09v.36h.09v.242h.09v.36h.091v.12h.09v.12h.09v.121h.09v.121h.181v.119h.09v.12h.18v.121h.181v-.12h.09v-.121h.452v.12h.09v.121h.091v.12h.089v.121h.09v.121h.09v.119h.091v.12h.075l.015.121h.181v.241h.09v.36h.091v.601h.09v.242h.09v.12h.09v.12h.09v.24h.09v.121h.09v.121h.091v.12h.068l.01.052.012.068h.09v.12h.09v.12h.09v.121h.09v.121h.182v.36h.09v.481h.09v.12h.09v.121h.09v.12h.09v.24h.18v.121h.091v.12h.09v.121h.18v.36h.09v.12h.091v.121h.09v.121h.18v.12h.091v.12h.09v.12h.09l.001.12h.09v.121h.451v-.12h.09v-.12h.18v-.121h.271v-.12h.31l.322-.003v-.117h.27v.12h.181v.12h.09v.12h.09v.12h.177l.004.121h.451v.121h.722v.12h.18v.12h.09v.12h.09l.008.093.064.028h.11v.12h.09v.24h.09v.12h1.263v.121h.541v-.12h.452v-.121h.09v-.119h.18v-.12h.451v-.121h.361v.12h.45v.121h.362v.119h.271v.1l.116.01.154.01v.121h.181v.12h.632v.121h.27v.121h.361v.119h.18v.12h.181v.121h.18v.12h.361v.121h.181v.12h.18v.12h.18v.12h.09v.108l.181.013v.12h.08l.01.121h.091v.12h.18v.12h.09v.12h.09V109h.09v.24h.091v.12h.09v.12h.361v.121h.09v.121h.181v.12h.181v.12h.07l.02.12h.18v.362h-.18v-.12h-.722v.12h-.09v.722h.09v.093l.18.026v.12h.18v-.12h.633v.12h.09v.121h.181v.12h.18v.121h.452v-.12h.27v.12h.09v.12h.09v.132l-.136.04-.873.478-1.453 3.138-2.81 1.688-1.094 2.848-1.566 1.178-1.06 4.955 3.36 2.632 1.367 2.808 1.267.816 1.068 2.444-1.446 2.802-5.267 4.232.773 3.526-2.046 1.148-.72 1.852-4.772 4.575-1.111 1.183-3.256.71-3.229-1.117-2.201.25-1.339-.808-1.186 2.321-.49 3.64-.066.938 1.175 1.345 1.507 2.037 1.41.223-.683 6.227-1.132 2.747.789.38 1.68 3.565-.685.955-4.753.87-.401.849-1.637-.194-.595 1.923 1.543 2.465 1.419 1.928-.957 4.912 2.38 7.167-1.664 2.022-1.24 9.384 1.305.233-.395.504-3.725 2.28-3.942-2.32-4.203 1.518-1.876.068-.64 1.57-.419.133-3.942 1.196-10.523 1.692-4.564-.996-1.615-1.064-4.206.167-2.795-.636-9.298 5.533.14 3.867 1.343.36 1.44 2.069 1.456.728 3.512 5.089 1.197.64-.057 4.848 1.067 2.13-.986 3.81-3.142-.633-3.295-2.495.062-1.254-1.12 1.594-3.307-2.2-2.303 2.372-.828-.186-3.409 2.06-.231-.89-1.427.855-2.148-2.257-1.115-.386-.593-1.43-1.39.518-2.283-.37-4.686 2.952-1.294-.61-.405-1.642-1.6-2.158-1.867.3-1.12 2.668-.687.328-2.166-.755-3.862.61-1.357-.958-.256-.897-2.098-1.234-2.739-.215-10.502-.241-4.806-2.994-3.699-1.122-5.091-3.207-6.49.655-1.436.684-.676 1.305-1.26-.248-4.04-3.818-3.946-2.204-3.725-5.567-4-1.446.51-1.03-6.44-6.138-3.944-1.031-.83-1.74 3.442-2.09 2.334-4.722.531.012 2.438-4.158 1.878-1.798.48-1.61 1.782-1.547-1.097-1.109.537-1.691-.427-1.132-.315-.406-3.18-4.69-1.478-1.147 2.524-4.834-4.918-2.37-3.732-4.303-2.28-6.747-.444.008-.408.58-7.832 1.693-1.763-1.541-.88-2.394-1.532-.39.38-1.388-2.856-3.119-1.936.071-2.226 3.004 3.668 2.07 3.987.984-1.616 1.37 1.28 2.376-1.179.814.828 4.375-2.971 5.675.28 3.345-12.671 2.422-2.857 4.081-2.261-.621-2.071-1.464-1.806-.135-4.929 3.391-.83.066-1.728-1.217-2.738-4.056-2.394-.355-.857-.71-1.037-2.185-.998.712-.469-2.914-1.782-2.483-2.96-1.669-1.667.342-1.788-.659-3.525 1.446zm-40.831-36.137l.437 1.054-.767 1.595 1.907 1.592 1.056 2.36 1.228 1.014-1.35 4.849.145 3.69 1.268.987-.68 3.63-1.068 1.754 2.215 1.313 1.96 2.578.437-1.02 4.534-.905 1.51-1.76-2.024-4.903 1.613-2.306-1.266-2.908.418-1.974 3.768-2.596 1.907-3.193.675-5.272-5.693-3.146-1.42.247-2.647 1.9-2.99.03-5.173 1.39z"/></defs><text transform="translate(332.997 305.436)" font-family="&quot;Tahoma&quot;" font-size="13">Álava</text><text transform="translate(507.955 188.619)" font-family="&quot;Tahoma&quot;" font-size="13">Guipúzcoa</text><text transform="translate(309.123 141.91)" font-family="&quot;Tahoma&quot;" font-size="13">Vizcaya</text><text x="643" y="519.333" font-size="11">Created with paintmaps.com</text></svg>